<?xml version="1.0" encoding="UTF-8" standalone="no"?><svg xmlns="http://www.w3.org/2000/svg" xmlns:xlink="http://www.w3.org/1999/xlink" contentScriptType="application/ecmascript" contentStyleType="text/css" height="213px" preserveAspectRatio="none" style="width:251px;height:213px;" version="1.1" viewBox="0 0 251 213" width="251px" zoomAndPan="magnify"><defs><filter height="300%" id="fcana53b9poz0" width="300%" x="-1" y="-1"><feGaussianBlur result="blurOut" stdDeviation="2.0"/><feColorMatrix in="blurOut" result="blurOut2" type="matrix" values="0 0 0 0 0 0 0 0 0 0 0 0 0 0 0 0 0 0 .4 0"/><feOffset dx="4.0" dy="4.0" in="blurOut2" result="blurOut3"/><feBlend in="SourceGraphic" in2="blurOut3" mode="normal"/></filter></defs><g><!--MD5=[ee783c3948724089dca92721bf277377]
class BaseMenuWindow--><rect fill="#FEFECE" filter="url(#fcana53b9poz0)" height="86.4141" id="BaseMenuWindow" style="stroke: #A80036; stroke-width: 1.5;" width="234" x="6" y="116"/><ellipse cx="62.75" cy="132" fill="#ADD1B2" rx="11" ry="11" style="stroke: #A80036; stroke-width: 1.0;"/><path d="M65.7188,137.6406 Q65.1406,137.9375 64.5,138.0781 Q63.8594,138.2344 63.1563,138.2344 Q60.6563,138.2344 59.3281,136.5938 Q58.0156,134.9375 58.0156,131.8125 Q58.0156,128.6875 59.3281,127.0313 Q60.6563,125.375 63.1563,125.375 Q63.8594,125.375 64.5,125.5313 Q65.1563,125.6875 65.7188,125.9844 L65.7188,128.7031 Q65.0938,128.125 64.5,127.8594 Q63.9063,127.5781 63.2813,127.5781 Q61.9375,127.5781 61.25,128.6563 Q60.5625,129.7188 60.5625,131.8125 Q60.5625,133.9063 61.25,134.9844 Q61.9375,136.0469 63.2813,136.0469 Q63.9063,136.0469 64.5,135.7813 Q65.0938,135.5 65.7188,134.9219 L65.7188,137.6406 Z "/><text fill="#000000" font-family="sans-serif" font-size="12" lengthAdjust="spacingAndGlyphs" textLength="112" x="83.25" y="136.1543">BaseMenuWindow</text><line style="stroke: #A80036; stroke-width: 1.5;" x1="7" x2="239" y1="148" y2="148"/><line style="stroke: #A80036; stroke-width: 1.5;" x1="7" x2="239" y1="156" y2="156"/><ellipse cx="17" cy="167" fill="#84BE84" rx="3" ry="3" style="stroke: #038048; stroke-width: 1.0;"/><text fill="#000000" font-family="sans-serif" font-size="11" lengthAdjust="spacingAndGlyphs" textLength="164" x="26" y="170.2104">«override» OnUpdate() : void</text><text fill="#000000" font-family="sans-serif" font-size="11" lengthAdjust="spacingAndGlyphs" textLength="113" x="26" y="183.0151">MenuOutline() : void</text><ellipse cx="17" cy="192.6094" fill="#84BE84" rx="3" ry="3" style="stroke: #038048; stroke-width: 1.0;"/><text fill="#000000" font-family="sans-serif" font-size="11" lengthAdjust="spacingAndGlyphs" textLength="208" x="26" y="195.8198">GetRectTransform() : RectTransform</text><!--MD5=[cdc675492b5c7404f9d1fea69146a946]
class EditorBase--><rect fill="#FEFECE" filter="url(#fcana53b9poz0)" height="48" id="EditorBase" style="stroke: #A80036; stroke-width: 1.5;" width="100" x="73" y="8"/><ellipse cx="88" cy="24" fill="#ADD1B2" rx="11" ry="11" style="stroke: #A80036; stroke-width: 1.0;"/><path d="M90.9688,29.6406 Q90.3906,29.9375 89.75,30.0781 Q89.1094,30.2344 88.4063,30.2344 Q85.9063,30.2344 84.5781,28.5938 Q83.2656,26.9375 83.2656,23.8125 Q83.2656,20.6875 84.5781,19.0313 Q85.9063,17.375 88.4063,17.375 Q89.1094,17.375 89.75,17.5313 Q90.4063,17.6875 90.9688,17.9844 L90.9688,20.7031 Q90.3438,20.125 89.75,19.8594 Q89.1563,19.5781 88.5313,19.5781 Q87.1875,19.5781 86.5,20.6563 Q85.8125,21.7188 85.8125,23.8125 Q85.8125,25.9063 86.5,26.9844 Q87.1875,28.0469 88.5313,28.0469 Q89.1563,28.0469 89.75,27.7813 Q90.3438,27.5 90.9688,26.9219 L90.9688,29.6406 Z "/><text fill="#000000" font-family="sans-serif" font-size="12" lengthAdjust="spacingAndGlyphs" textLength="68" x="102" y="28.1543">EditorBase</text><line style="stroke: #A80036; stroke-width: 1.5;" x1="74" x2="172" y1="40" y2="40"/><line style="stroke: #A80036; stroke-width: 1.5;" x1="74" x2="172" y1="48" y2="48"/><!--MD5=[e12b430c7f5c1e33e4a1179d0b595e09]
reverse link EditorBase to BaseMenuWindow--><path d="M123,76.27 C123,89.12 123,103.17 123,115.94 " fill="none" id="EditorBase&lt;-BaseMenuWindow" style="stroke: #A80036; stroke-width: 1.0;"/><polygon fill="none" points="116,76.22,123,56.22,130,76.22,116,76.22" style="stroke: #A80036; stroke-width: 1.0;"/><!--MD5=[216376861c4ee7309d1a8616b66bfef8]
@startuml
class BaseMenuWindow {
    + <<override>> OnUpdate() : void
    MenuOutline() : void
    + GetRectTransform() : RectTransform
}
EditorBase <|- - BaseMenuWindow
@enduml

PlantUML version 1.2020.02(Sun Mar 01 10:22:07 GMT 2020)
(GPL source distribution)
Java Runtime: OpenJDK Runtime Environment
JVM: OpenJDK 64-Bit Server VM
Java Version: 11.0.9+11-Ubuntu-0ubuntu1
Operating System: Linux
Default Encoding: ANSI_X3.4-1968
Language: en
Country: US
--></g></svg>