<?xml version="1.0" encoding="UTF-8" standalone="no"?><svg xmlns="http://www.w3.org/2000/svg" xmlns:xlink="http://www.w3.org/1999/xlink" contentScriptType="application/ecmascript" contentStyleType="text/css" height="321px" preserveAspectRatio="none" style="width:522px;height:321px;" version="1.1" viewBox="0 0 522 321" width="522px" zoomAndPan="magnify"><defs><filter height="300%" id="f1hgt96q6kap5k" width="300%" x="-1" y="-1"><feGaussianBlur result="blurOut" stdDeviation="2.0"/><feColorMatrix in="blurOut" result="blurOut2" type="matrix" values="0 0 0 0 0 0 0 0 0 0 0 0 0 0 0 0 0 0 .4 0"/><feOffset dx="4.0" dy="4.0" in="blurOut2" result="blurOut3"/><feBlend in="SourceGraphic" in2="blurOut3" mode="normal"/></filter></defs><g><!--MD5=[87883d71b198d198d39dc7178a395e7c]
class CustomizableMenuManager--><rect fill="#FEFECE" filter="url(#f1hgt96q6kap5k)" height="86.4141" id="CustomizableMenuManager" style="stroke: #A80036; stroke-width: 1.5;" width="330" x="118.3" y="116"/><ellipse cx="193.55" cy="132" fill="#ADD1B2" rx="11" ry="11" style="stroke: #A80036; stroke-width: 1.0;"/><path d="M196.5188,137.6406 Q195.9406,137.9375 195.3,138.0781 Q194.6594,138.2344 193.9563,138.2344 Q191.4563,138.2344 190.1281,136.5938 Q188.8156,134.9375 188.8156,131.8125 Q188.8156,128.6875 190.1281,127.0313 Q191.4563,125.375 193.9563,125.375 Q194.6594,125.375 195.3,125.5313 Q195.9563,125.6875 196.5188,125.9844 L196.5188,128.7031 Q195.8938,128.125 195.3,127.8594 Q194.7063,127.5781 194.0813,127.5781 Q192.7375,127.5781 192.05,128.6563 Q191.3625,129.7188 191.3625,131.8125 Q191.3625,133.9063 192.05,134.9844 Q192.7375,136.0469 194.0813,136.0469 Q194.7063,136.0469 195.3,135.7813 Q195.8938,135.5 196.5188,134.9219 L196.5188,137.6406 Z "/><text fill="#000000" font-family="sans-serif" font-size="12" lengthAdjust="spacingAndGlyphs" textLength="171" x="214.05" y="136.1543">CustomizableMenuManager</text><line style="stroke: #A80036; stroke-width: 1.5;" x1="119.3" x2="447.3" y1="148" y2="148"/><line style="stroke: #A80036; stroke-width: 1.5;" x1="119.3" x2="447.3" y1="156" y2="156"/><text fill="#000000" font-family="sans-serif" font-size="11" lengthAdjust="spacingAndGlyphs" textLength="113" x="138.3" y="170.2104">UpdateMenu() : void</text><ellipse cx="129.3" cy="179.8047" fill="#84BE84" rx="3" ry="3" style="stroke: #038048; stroke-width: 1.0;"/><text fill="#000000" font-family="sans-serif" font-size="11" lengthAdjust="spacingAndGlyphs" textLength="304" x="138.3" y="183.0151">AddMeToBorders(border:IBorderCustomization) : void</text><ellipse cx="129.3" cy="192.6094" fill="#84BE84" rx="3" ry="3" style="stroke: #038048; stroke-width: 1.0;"/><text fill="#000000" font-family="sans-serif" font-size="11" lengthAdjust="spacingAndGlyphs" textLength="280" x="138.3" y="195.8198">AddMeToMenus(menu:IMenuCustomization) : void</text><!--MD5=[e644022de7dea015dd09463c37421447]
class List`1--><rect fill="#FEFECE" filter="url(#f1hgt96q6kap5k)" height="48" id="List`1" style="stroke: #A80036; stroke-width: 1.5;" width="78" x="191.3" y="262"/><ellipse cx="206.3" cy="278" fill="#ADD1B2" rx="11" ry="11" style="stroke: #A80036; stroke-width: 1.0;"/><path d="M209.2688,283.6406 Q208.6906,283.9375 208.05,284.0781 Q207.4094,284.2344 206.7063,284.2344 Q204.2063,284.2344 202.8781,282.5938 Q201.5656,280.9375 201.5656,277.8125 Q201.5656,274.6875 202.8781,273.0313 Q204.2063,271.375 206.7063,271.375 Q207.4094,271.375 208.05,271.5313 Q208.7063,271.6875 209.2688,271.9844 L209.2688,274.7031 Q208.6438,274.125 208.05,273.8594 Q207.4563,273.5781 206.8313,273.5781 Q205.4875,273.5781 204.8,274.6563 Q204.1125,275.7188 204.1125,277.8125 Q204.1125,279.9063 204.8,280.9844 Q205.4875,282.0469 206.8313,282.0469 Q207.4563,282.0469 208.05,281.7813 Q208.6438,281.5 209.2688,280.9219 L209.2688,283.6406 Z "/><text fill="#000000" font-family="sans-serif" font-size="12" lengthAdjust="spacingAndGlyphs" textLength="35" x="220.3" y="282.1543">List`1</text><rect fill="#FFFFFF" height="15.9688" style="stroke: #000000; stroke-width: 1.0; stroke-dasharray: 2.0,2.0;" width="9" x="263.3" y="259"/><text fill="#000000" font-family="sans-serif" font-size="12" font-style="italic" lengthAdjust="spacingAndGlyphs" textLength="7" x="264.3" y="271.1387">T</text><line style="stroke: #A80036; stroke-width: 1.5;" x1="192.3" x2="268.3" y1="294" y2="294"/><line style="stroke: #A80036; stroke-width: 1.5;" x1="192.3" x2="268.3" y1="302" y2="302"/><!--MD5=[cdc675492b5c7404f9d1fea69146a946]
class EditorBase--><rect fill="#FEFECE" filter="url(#f1hgt96q6kap5k)" height="48" id="EditorBase" style="stroke: #A80036; stroke-width: 1.5;" width="100" x="233.3" y="8"/><ellipse cx="248.3" cy="24" fill="#ADD1B2" rx="11" ry="11" style="stroke: #A80036; stroke-width: 1.0;"/><path d="M251.2688,29.6406 Q250.6906,29.9375 250.05,30.0781 Q249.4094,30.2344 248.7063,30.2344 Q246.2063,30.2344 244.8781,28.5938 Q243.5656,26.9375 243.5656,23.8125 Q243.5656,20.6875 244.8781,19.0313 Q246.2063,17.375 248.7063,17.375 Q249.4094,17.375 250.05,17.5313 Q250.7063,17.6875 251.2688,17.9844 L251.2688,20.7031 Q250.6438,20.125 250.05,19.8594 Q249.4563,19.5781 248.8313,19.5781 Q247.4875,19.5781 246.8,20.6563 Q246.1125,21.7188 246.1125,23.8125 Q246.1125,25.9063 246.8,26.9844 Q247.4875,28.0469 248.8313,28.0469 Q249.4563,28.0469 250.05,27.7813 Q250.6438,27.5 251.2688,26.9219 L251.2688,29.6406 Z "/><text fill="#000000" font-family="sans-serif" font-size="12" lengthAdjust="spacingAndGlyphs" textLength="68" x="262.3" y="28.1543">EditorBase</text><line style="stroke: #A80036; stroke-width: 1.5;" x1="234.3" x2="332.3" y1="40" y2="40"/><line style="stroke: #A80036; stroke-width: 1.5;" x1="234.3" x2="332.3" y1="48" y2="48"/><!--MD5=[18eee71c88ab61f27581b8cbdd3ef5ee]
class Color--><rect fill="#FEFECE" filter="url(#f1hgt96q6kap5k)" height="48" id="Color" style="stroke: #A80036; stroke-width: 1.5;" width="64" x="304.3" y="262"/><ellipse cx="319.3" cy="278" fill="#ADD1B2" rx="11" ry="11" style="stroke: #A80036; stroke-width: 1.0;"/><path d="M322.2688,283.6406 Q321.6906,283.9375 321.05,284.0781 Q320.4094,284.2344 319.7063,284.2344 Q317.2063,284.2344 315.8781,282.5938 Q314.5656,280.9375 314.5656,277.8125 Q314.5656,274.6875 315.8781,273.0313 Q317.2063,271.375 319.7063,271.375 Q320.4094,271.375 321.05,271.5313 Q321.7063,271.6875 322.2688,271.9844 L322.2688,274.7031 Q321.6438,274.125 321.05,273.8594 Q320.4563,273.5781 319.8313,273.5781 Q318.4875,273.5781 317.8,274.6563 Q317.1125,275.7188 317.1125,277.8125 Q317.1125,279.9063 317.8,280.9844 Q318.4875,282.0469 319.8313,282.0469 Q320.4563,282.0469 321.05,281.7813 Q321.6438,281.5 322.2688,280.9219 L322.2688,283.6406 Z "/><text fill="#000000" font-family="sans-serif" font-size="12" lengthAdjust="spacingAndGlyphs" textLength="32" x="333.3" y="282.1543">Color</text><line style="stroke: #A80036; stroke-width: 1.5;" x1="305.3" x2="367.3" y1="294" y2="294"/><line style="stroke: #A80036; stroke-width: 1.5;" x1="305.3" x2="367.3" y1="302" y2="302"/><!--MD5=[918a38b01a21c2531058dd1ec2fbd27e]
reverse link EditorBase to CustomizableMenuManager--><path d="M283.3,76.27 C283.3,89.12 283.3,103.17 283.3,115.94 " fill="none" id="EditorBase&lt;-CustomizableMenuManager" style="stroke: #A80036; stroke-width: 1.0;"/><polygon fill="none" points="276.3,76.22,283.3,56.22,290.3,76.22,276.3,76.22" style="stroke: #A80036; stroke-width: 1.0;"/><!--MD5=[7901906d7514cbf23190ff636295014f]
link CustomizableMenuManager to Color--><path d="M289.11,202.32 C295.66,220.45 304.87,241.11 313.73,257.25 " fill="none" id="CustomizableMenuManager-&gt;Color" style="stroke: #A80036; stroke-width: 1.0;"/><polygon fill="#A80036" points="316.22,261.67,315.3077,251.8635,313.7748,257.3087,308.3296,255.7758,316.22,261.67" style="stroke: #A80036; stroke-width: 1.0;"/><text fill="#000000" font-family="sans-serif" font-size="13" lengthAdjust="spacingAndGlyphs" textLength="122" x="372.485" y="250.687">currentBorderColor</text><!--MD5=[7901906d7514cbf23190ff636295014f]
link CustomizableMenuManager to Color--><path d="M314.1,202.32 C322.91,220.29 331.13,240.76 335.86,256.83 " fill="none" id="CustomizableMenuManager-&gt;Color-1" style="stroke: #A80036; stroke-width: 1.0;"/><polygon fill="#A80036" points="337.2,261.67,338.6348,251.9262,335.8566,256.8538,330.929,254.0756,337.2,261.67" style="stroke: #A80036; stroke-width: 1.0;"/><text fill="#000000" font-family="sans-serif" font-size="13" lengthAdjust="spacingAndGlyphs" textLength="114" x="235.2945" y="250.9328">currentMenuColor</text><!--MD5=[2b5bf9538483e07391f7a319c776ef99]
link CustomizableMenuManager to List`1--><path d="M253.22,202.32 C244.48,220.29 236.23,240.76 231.39,256.83 " fill="none" id="CustomizableMenuManager-&gt;List`1" style="stroke: #A80036; stroke-width: 1.0;"/><polygon fill="#A80036" points="230,261.67,236.3393,254.1326,231.3868,256.8662,228.6532,251.9137,230,261.67" style="stroke: #A80036; stroke-width: 1.0;"/><text fill="#000000" font-family="sans-serif" font-size="13" lengthAdjust="spacingAndGlyphs" textLength="209" x="-4.545" y="250.9945">borders&lt;IBorderCustomization&gt;</text><!--MD5=[2b5bf9538483e07391f7a319c776ef99]
link CustomizableMenuManager to List`1--><path d="M278.21,202.32 C271.73,220.45 262.49,241.11 253.51,257.25 " fill="none" id="CustomizableMenuManager-&gt;List`1-1" style="stroke: #A80036; stroke-width: 1.0;"/><polygon fill="#A80036" points="250.99,261.67,258.9323,255.846,253.4738,257.3305,251.9892,251.872,250.99,261.67" style="stroke: #A80036; stroke-width: 1.0;"/><text fill="#000000" font-family="sans-serif" font-size="13" lengthAdjust="spacingAndGlyphs" textLength="196" x="277.8594" y="250.8813">menus&lt;IMenuCustomization&gt;</text><!--MD5=[9ab6192eb75802f62f742a7d36f26fb6]
link CustomizableMenuManager to CustomizableMenuManager--><path d="M448.45,138.36 C469.46,141.97 483.3,148.85 483.3,159 C483.3,168.28 471.73,174.82 453.71,178.64 " fill="none" id="CustomizableMenuManager-&gt;CustomizableMenuManager" style="stroke: #A80036; stroke-width: 1.0;"/><polygon fill="#A80036" points="448.45,179.64,458.0362,181.8994,453.3631,178.7117,456.5508,174.0385,448.45,179.64" style="stroke: #A80036; stroke-width: 1.0;"/><text fill="#000000" font-family="sans-serif" font-size="13" lengthAdjust="spacingAndGlyphs" textLength="54" x="456.5563" y="177.2553">instance</text><!--MD5=[3321c7e8ff051077bf078b48099ed78f]
@startuml
class CustomizableMenuManager {
    UpdateMenu() : void
    + AddMeToBorders(border:IBorderCustomization) : void
    + AddMeToMenus(menu:IMenuCustomization) : void
}
class "List`1"<T> {
}
EditorBase <|- - CustomizableMenuManager
CustomizableMenuManager - -> "currentBorderColor" Color
CustomizableMenuManager - -> "currentMenuColor" Color
CustomizableMenuManager - -> "borders<IBorderCustomization>" "List`1"
CustomizableMenuManager - -> "menus<IMenuCustomization>" "List`1"
CustomizableMenuManager - -> "instance" CustomizableMenuManager
@enduml

PlantUML version 1.2020.02(Sun Mar 01 10:22:07 GMT 2020)
(GPL source distribution)
Java Runtime: OpenJDK Runtime Environment
JVM: OpenJDK 64-Bit Server VM
Java Version: 11.0.9+11-Ubuntu-0ubuntu1
Operating System: Linux
Default Encoding: ANSI_X3.4-1968
Language: en
Country: US
--></g></svg>