<?xml version="1.0" encoding="UTF-8" standalone="no"?><svg xmlns="http://www.w3.org/2000/svg" xmlns:xlink="http://www.w3.org/1999/xlink" contentScriptType="application/ecmascript" contentStyleType="text/css" height="296px" preserveAspectRatio="none" style="width:308px;height:296px;" version="1.1" viewBox="0 0 308 296" width="308px" zoomAndPan="magnify"><defs><filter height="300%" id="f1e4rqfmjr52o3" width="300%" x="-1" y="-1"><feGaussianBlur result="blurOut" stdDeviation="2.0"/><feColorMatrix in="blurOut" result="blurOut2" type="matrix" values="0 0 0 0 0 0 0 0 0 0 0 0 0 0 0 0 0 0 .4 0"/><feOffset dx="4.0" dy="4.0" in="blurOut2" result="blurOut3"/><feBlend in="SourceGraphic" in2="blurOut3" mode="normal"/></filter></defs><g><!--MD5=[f88d301a9589f10b4fa8fc1562fb62ce]
class CustomizableMenu--><rect fill="#FEFECE" filter="url(#f1e4rqfmjr52o3)" height="60.8047" id="CustomizableMenu" style="stroke: #A80036; stroke-width: 1.5;" width="235" x="19.5" y="116"/><ellipse cx="74.75" cy="132" fill="#ADD1B2" rx="11" ry="11" style="stroke: #A80036; stroke-width: 1.0;"/><path d="M77.7188,137.6406 Q77.1406,137.9375 76.5,138.0781 Q75.8594,138.2344 75.1563,138.2344 Q72.6563,138.2344 71.3281,136.5938 Q70.0156,134.9375 70.0156,131.8125 Q70.0156,128.6875 71.3281,127.0313 Q72.6563,125.375 75.1563,125.375 Q75.8594,125.375 76.5,125.5313 Q77.1563,125.6875 77.7188,125.9844 L77.7188,128.7031 Q77.0938,128.125 76.5,127.8594 Q75.9063,127.5781 75.2813,127.5781 Q73.9375,127.5781 73.25,128.6563 Q72.5625,129.7188 72.5625,131.8125 Q72.5625,133.9063 73.25,134.9844 Q73.9375,136.0469 75.2813,136.0469 Q75.9063,136.0469 76.5,135.7813 Q77.0938,135.5 77.7188,134.9219 L77.7188,137.6406 Z "/><text fill="#000000" font-family="sans-serif" font-size="12" lengthAdjust="spacingAndGlyphs" textLength="116" x="95.25" y="136.1543">CustomizableMenu</text><line style="stroke: #A80036; stroke-width: 1.5;" x1="20.5" x2="253.5" y1="148" y2="148"/><line style="stroke: #A80036; stroke-width: 1.5;" x1="20.5" x2="253.5" y1="156" y2="156"/><ellipse cx="30.5" cy="167" fill="#84BE84" rx="3" ry="3" style="stroke: #038048; stroke-width: 1.0;"/><text fill="#000000" font-family="sans-serif" font-size="11" lengthAdjust="spacingAndGlyphs" textLength="209" x="39.5" y="170.2104">SetMenuColor(newColor:Color) : void</text><!--MD5=[cdc675492b5c7404f9d1fea69146a946]
class EditorBase--><rect fill="#FEFECE" filter="url(#f1e4rqfmjr52o3)" height="48" id="EditorBase" style="stroke: #A80036; stroke-width: 1.5;" width="100" x="6" y="8"/><ellipse cx="21" cy="24" fill="#ADD1B2" rx="11" ry="11" style="stroke: #A80036; stroke-width: 1.0;"/><path d="M23.9688,29.6406 Q23.3906,29.9375 22.75,30.0781 Q22.1094,30.2344 21.4063,30.2344 Q18.9063,30.2344 17.5781,28.5938 Q16.2656,26.9375 16.2656,23.8125 Q16.2656,20.6875 17.5781,19.0313 Q18.9063,17.375 21.4063,17.375 Q22.1094,17.375 22.75,17.5313 Q23.4063,17.6875 23.9688,17.9844 L23.9688,20.7031 Q23.3438,20.125 22.75,19.8594 Q22.1563,19.5781 21.5313,19.5781 Q20.1875,19.5781 19.5,20.6563 Q18.8125,21.7188 18.8125,23.8125 Q18.8125,25.9063 19.5,26.9844 Q20.1875,28.0469 21.5313,28.0469 Q22.1563,28.0469 22.75,27.7813 Q23.3438,27.5 23.9688,26.9219 L23.9688,29.6406 Z "/><text fill="#000000" font-family="sans-serif" font-size="12" lengthAdjust="spacingAndGlyphs" textLength="68" x="35" y="28.1543">EditorBase</text><line style="stroke: #A80036; stroke-width: 1.5;" x1="7" x2="105" y1="40" y2="40"/><line style="stroke: #A80036; stroke-width: 1.5;" x1="7" x2="105" y1="48" y2="48"/><!--MD5=[084153738ba943530306eab57e7066eb]
class IMenuCustomization--><rect fill="#FEFECE" filter="url(#f1e4rqfmjr52o3)" height="48" id="IMenuCustomization" style="stroke: #A80036; stroke-width: 1.5;" width="156" x="141" y="8"/><ellipse cx="156" cy="24" fill="#ADD1B2" rx="11" ry="11" style="stroke: #A80036; stroke-width: 1.0;"/><path d="M158.9688,29.6406 Q158.3906,29.9375 157.75,30.0781 Q157.1094,30.2344 156.4063,30.2344 Q153.9063,30.2344 152.5781,28.5938 Q151.2656,26.9375 151.2656,23.8125 Q151.2656,20.6875 152.5781,19.0313 Q153.9063,17.375 156.4063,17.375 Q157.1094,17.375 157.75,17.5313 Q158.4063,17.6875 158.9688,17.9844 L158.9688,20.7031 Q158.3438,20.125 157.75,19.8594 Q157.1563,19.5781 156.5313,19.5781 Q155.1875,19.5781 154.5,20.6563 Q153.8125,21.7188 153.8125,23.8125 Q153.8125,25.9063 154.5,26.9844 Q155.1875,28.0469 156.5313,28.0469 Q157.1563,28.0469 157.75,27.7813 Q158.3438,27.5 158.9688,26.9219 L158.9688,29.6406 Z "/><text fill="#000000" font-family="sans-serif" font-size="12" lengthAdjust="spacingAndGlyphs" textLength="124" x="170" y="28.1543">IMenuCustomization</text><line style="stroke: #A80036; stroke-width: 1.5;" x1="142" x2="296" y1="40" y2="40"/><line style="stroke: #A80036; stroke-width: 1.5;" x1="142" x2="296" y1="48" y2="48"/><!--MD5=[964f074a2dd77d134c21b891bb53e381]
class Image--><rect fill="#FEFECE" filter="url(#f1e4rqfmjr52o3)" height="48" id="Image" style="stroke: #A80036; stroke-width: 1.5;" width="70" x="102" y="237"/><ellipse cx="117" cy="253" fill="#ADD1B2" rx="11" ry="11" style="stroke: #A80036; stroke-width: 1.0;"/><path d="M119.9688,258.6406 Q119.3906,258.9375 118.75,259.0781 Q118.1094,259.2344 117.4063,259.2344 Q114.9063,259.2344 113.5781,257.5938 Q112.2656,255.9375 112.2656,252.8125 Q112.2656,249.6875 113.5781,248.0313 Q114.9063,246.375 117.4063,246.375 Q118.1094,246.375 118.75,246.5313 Q119.4063,246.6875 119.9688,246.9844 L119.9688,249.7031 Q119.3438,249.125 118.75,248.8594 Q118.1563,248.5781 117.5313,248.5781 Q116.1875,248.5781 115.5,249.6563 Q114.8125,250.7188 114.8125,252.8125 Q114.8125,254.9063 115.5,255.9844 Q116.1875,257.0469 117.5313,257.0469 Q118.1563,257.0469 118.75,256.7813 Q119.3438,256.5 119.9688,255.9219 L119.9688,258.6406 Z "/><text fill="#000000" font-family="sans-serif" font-size="12" lengthAdjust="spacingAndGlyphs" textLength="38" x="131" y="257.1543">Image</text><line style="stroke: #A80036; stroke-width: 1.5;" x1="103" x2="171" y1="269" y2="269"/><line style="stroke: #A80036; stroke-width: 1.5;" x1="103" x2="171" y1="277" y2="277"/><!--MD5=[a903d9f9979042df450b544bc2062df3]
reverse link EditorBase to CustomizableMenu--><path d="M84.31,72.32 C94.56,86.55 105.95,102.37 115.51,115.65 " fill="none" id="EditorBase&lt;-CustomizableMenu" style="stroke: #A80036; stroke-width: 1.0;"/><polygon fill="none" points="78.59,76.36,72.59,56.04,89.95,68.18,78.59,76.36" style="stroke: #A80036; stroke-width: 1.0;"/><!--MD5=[50b6964fd584d0114804226f4ca5de85]
reverse link IMenuCustomization to CustomizableMenu--><path d="M190.34,72.32 C179.97,86.55 168.44,102.37 158.76,115.65 " fill="none" id="IMenuCustomization&lt;-CustomizableMenu" style="stroke: #A80036; stroke-width: 1.0;"/><polygon fill="none" points="184.77,68.08,202.21,56.04,196.08,76.32,184.77,68.08" style="stroke: #A80036; stroke-width: 1.0;"/><!--MD5=[0474351f310b3455ef589989a3f7ebed]
link CustomizableMenu to Image--><path d="M137,177.06 C137,193.93 137,214.98 137,231.65 " fill="none" id="CustomizableMenu-&gt;Image" style="stroke: #A80036; stroke-width: 1.0;"/><polygon fill="#A80036" points="137,236.67,141,227.67,137,231.67,133,227.67,137,236.67" style="stroke: #A80036; stroke-width: 1.0;"/><text fill="#000000" font-family="sans-serif" font-size="13" lengthAdjust="spacingAndGlyphs" textLength="37" x="95.4906" y="225.9945">menu</text><!--MD5=[e157de65f9cf872a01c98bb083a2ccbd]
@startuml
class CustomizableMenu {
    + SetMenuColor(newColor:Color) : void
}
EditorBase <|- - CustomizableMenu
IMenuCustomization <|- - CustomizableMenu
CustomizableMenu - -> "menu" Image
@enduml

PlantUML version 1.2020.02(Sun Mar 01 10:22:07 GMT 2020)
(GPL source distribution)
Java Runtime: OpenJDK Runtime Environment
JVM: OpenJDK 64-Bit Server VM
Java Version: 11.0.9+11-Ubuntu-0ubuntu1
Operating System: Linux
Default Encoding: ANSI_X3.4-1968
Language: en
Country: US
--></g></svg>