<?xml version="1.0" encoding="UTF-8" standalone="no"?><svg xmlns="http://www.w3.org/2000/svg" xmlns:xlink="http://www.w3.org/1999/xlink" contentScriptType="application/ecmascript" contentStyleType="text/css" height="296px" preserveAspectRatio="none" style="width:316px;height:296px;" version="1.1" viewBox="0 0 316 296" width="316px" zoomAndPan="magnify"><defs><filter height="300%" id="fy7x0q5vzkzzl" width="300%" x="-1" y="-1"><feGaussianBlur result="blurOut" stdDeviation="2.0"/><feColorMatrix in="blurOut" result="blurOut2" type="matrix" values="0 0 0 0 0 0 0 0 0 0 0 0 0 0 0 0 0 0 .4 0"/><feOffset dx="4.0" dy="4.0" in="blurOut2" result="blurOut3"/><feBlend in="SourceGraphic" in2="blurOut3" mode="normal"/></filter></defs><g><!--MD5=[bd98c9a5b3e5d27b9ae91ce34da61d1b]
class CustomizableBorder--><rect fill="#FEFECE" filter="url(#fy7x0q5vzkzzl)" height="60.8047" id="CustomizableBorder" style="stroke: #A80036; stroke-width: 1.5;" width="244" x="17" y="116"/><ellipse cx="72.75" cy="132" fill="#ADD1B2" rx="11" ry="11" style="stroke: #A80036; stroke-width: 1.0;"/><path d="M75.7188,137.6406 Q75.1406,137.9375 74.5,138.0781 Q73.8594,138.2344 73.1563,138.2344 Q70.6563,138.2344 69.3281,136.5938 Q68.0156,134.9375 68.0156,131.8125 Q68.0156,128.6875 69.3281,127.0313 Q70.6563,125.375 73.1563,125.375 Q73.8594,125.375 74.5,125.5313 Q75.1563,125.6875 75.7188,125.9844 L75.7188,128.7031 Q75.0938,128.125 74.5,127.8594 Q73.9063,127.5781 73.2813,127.5781 Q71.9375,127.5781 71.25,128.6563 Q70.5625,129.7188 70.5625,131.8125 Q70.5625,133.9063 71.25,134.9844 Q71.9375,136.0469 73.2813,136.0469 Q73.9063,136.0469 74.5,135.7813 Q75.0938,135.5 75.7188,134.9219 L75.7188,137.6406 Z "/><text fill="#000000" font-family="sans-serif" font-size="12" lengthAdjust="spacingAndGlyphs" textLength="124" x="93.25" y="136.1543">CustomizableBorder</text><line style="stroke: #A80036; stroke-width: 1.5;" x1="18" x2="260" y1="148" y2="148"/><line style="stroke: #A80036; stroke-width: 1.5;" x1="18" x2="260" y1="156" y2="156"/><ellipse cx="28" cy="167" fill="#84BE84" rx="3" ry="3" style="stroke: #038048; stroke-width: 1.0;"/><text fill="#000000" font-family="sans-serif" font-size="11" lengthAdjust="spacingAndGlyphs" textLength="218" x="37" y="170.2104">SetBorderColor(newColor:Color) : void</text><!--MD5=[cdc675492b5c7404f9d1fea69146a946]
class EditorBase--><rect fill="#FEFECE" filter="url(#fy7x0q5vzkzzl)" height="48" id="EditorBase" style="stroke: #A80036; stroke-width: 1.5;" width="100" x="6" y="8"/><ellipse cx="21" cy="24" fill="#ADD1B2" rx="11" ry="11" style="stroke: #A80036; stroke-width: 1.0;"/><path d="M23.9688,29.6406 Q23.3906,29.9375 22.75,30.0781 Q22.1094,30.2344 21.4063,30.2344 Q18.9063,30.2344 17.5781,28.5938 Q16.2656,26.9375 16.2656,23.8125 Q16.2656,20.6875 17.5781,19.0313 Q18.9063,17.375 21.4063,17.375 Q22.1094,17.375 22.75,17.5313 Q23.4063,17.6875 23.9688,17.9844 L23.9688,20.7031 Q23.3438,20.125 22.75,19.8594 Q22.1563,19.5781 21.5313,19.5781 Q20.1875,19.5781 19.5,20.6563 Q18.8125,21.7188 18.8125,23.8125 Q18.8125,25.9063 19.5,26.9844 Q20.1875,28.0469 21.5313,28.0469 Q22.1563,28.0469 22.75,27.7813 Q23.3438,27.5 23.9688,26.9219 L23.9688,29.6406 Z "/><text fill="#000000" font-family="sans-serif" font-size="12" lengthAdjust="spacingAndGlyphs" textLength="68" x="35" y="28.1543">EditorBase</text><line style="stroke: #A80036; stroke-width: 1.5;" x1="7" x2="105" y1="40" y2="40"/><line style="stroke: #A80036; stroke-width: 1.5;" x1="7" x2="105" y1="48" y2="48"/><!--MD5=[25c9afad8010c8b1ba1652569cc8fc21]
class IBorderCustomization--><rect fill="#FEFECE" filter="url(#fy7x0q5vzkzzl)" height="48" id="IBorderCustomization" style="stroke: #A80036; stroke-width: 1.5;" width="164" x="141" y="8"/><ellipse cx="156" cy="24" fill="#ADD1B2" rx="11" ry="11" style="stroke: #A80036; stroke-width: 1.0;"/><path d="M158.9688,29.6406 Q158.3906,29.9375 157.75,30.0781 Q157.1094,30.2344 156.4063,30.2344 Q153.9063,30.2344 152.5781,28.5938 Q151.2656,26.9375 151.2656,23.8125 Q151.2656,20.6875 152.5781,19.0313 Q153.9063,17.375 156.4063,17.375 Q157.1094,17.375 157.75,17.5313 Q158.4063,17.6875 158.9688,17.9844 L158.9688,20.7031 Q158.3438,20.125 157.75,19.8594 Q157.1563,19.5781 156.5313,19.5781 Q155.1875,19.5781 154.5,20.6563 Q153.8125,21.7188 153.8125,23.8125 Q153.8125,25.9063 154.5,26.9844 Q155.1875,28.0469 156.5313,28.0469 Q157.1563,28.0469 157.75,27.7813 Q158.3438,27.5 158.9688,26.9219 L158.9688,29.6406 Z "/><text fill="#000000" font-family="sans-serif" font-size="12" lengthAdjust="spacingAndGlyphs" textLength="132" x="170" y="28.1543">IBorderCustomization</text><line style="stroke: #A80036; stroke-width: 1.5;" x1="142" x2="304" y1="40" y2="40"/><line style="stroke: #A80036; stroke-width: 1.5;" x1="142" x2="304" y1="48" y2="48"/><!--MD5=[964f074a2dd77d134c21b891bb53e381]
class Image--><rect fill="#FEFECE" filter="url(#fy7x0q5vzkzzl)" height="48" id="Image" style="stroke: #A80036; stroke-width: 1.5;" width="70" x="104" y="237"/><ellipse cx="119" cy="253" fill="#ADD1B2" rx="11" ry="11" style="stroke: #A80036; stroke-width: 1.0;"/><path d="M121.9688,258.6406 Q121.3906,258.9375 120.75,259.0781 Q120.1094,259.2344 119.4063,259.2344 Q116.9063,259.2344 115.5781,257.5938 Q114.2656,255.9375 114.2656,252.8125 Q114.2656,249.6875 115.5781,248.0313 Q116.9063,246.375 119.4063,246.375 Q120.1094,246.375 120.75,246.5313 Q121.4063,246.6875 121.9688,246.9844 L121.9688,249.7031 Q121.3438,249.125 120.75,248.8594 Q120.1563,248.5781 119.5313,248.5781 Q118.1875,248.5781 117.5,249.6563 Q116.8125,250.7188 116.8125,252.8125 Q116.8125,254.9063 117.5,255.9844 Q118.1875,257.0469 119.5313,257.0469 Q120.1563,257.0469 120.75,256.7813 Q121.3438,256.5 121.9688,255.9219 L121.9688,258.6406 Z "/><text fill="#000000" font-family="sans-serif" font-size="12" lengthAdjust="spacingAndGlyphs" textLength="38" x="133" y="257.1543">Image</text><line style="stroke: #A80036; stroke-width: 1.5;" x1="105" x2="173" y1="269" y2="269"/><line style="stroke: #A80036; stroke-width: 1.5;" x1="105" x2="173" y1="277" y2="277"/><!--MD5=[84dd81b59231d1b83066d1411759a9f5]
reverse link EditorBase to CustomizableBorder--><path d="M85.01,72.32 C95.51,86.55 107.18,102.37 116.98,115.65 " fill="none" id="EditorBase&lt;-CustomizableBorder" style="stroke: #A80036; stroke-width: 1.0;"/><polygon fill="none" points="79.24,76.29,73,56.04,90.5,67.98,79.24,76.29" style="stroke: #A80036; stroke-width: 1.0;"/><!--MD5=[336ac8d6ecd2c5c6f31d278aa4ad9357]
reverse link IBorderCustomization to CustomizableBorder--><path d="M193.64,72.32 C183.02,86.55 171.2,102.37 161.29,115.65 " fill="none" id="IBorderCustomization&lt;-CustomizableBorder" style="stroke: #A80036; stroke-width: 1.0;"/><polygon fill="none" points="188.22,67.88,205.8,56.04,199.44,76.25,188.22,67.88" style="stroke: #A80036; stroke-width: 1.0;"/><!--MD5=[701173c9d3911de72688491691b52719]
link CustomizableBorder to Image--><path d="M104.2,177.06 C98.46,193.93 98.6,214.98 104.62,231.65 " fill="none" id="CustomizableBorder-&gt;Image" style="stroke: #A80036; stroke-width: 1.0;"/><polygon fill="#A80036" points="106.68,236.67,106.9887,226.826,104.7935,232.0395,99.58,229.8444,106.68,236.67" style="stroke: #A80036; stroke-width: 1.0;"/><text fill="#000000" font-family="sans-serif" font-size="13" lengthAdjust="spacingAndGlyphs" textLength="66" x="29.8614" y="228.476">outlineTop</text><!--MD5=[701173c9d3911de72688491691b52719]
link CustomizableBorder to Image--><path d="M127.62,177.06 C125.75,193.93 125.79,214.98 127.76,231.65 " fill="none" id="CustomizableBorder-&gt;Image-1" style="stroke: #A80036; stroke-width: 1.0;"/><polygon fill="#A80036" points="128.43,236.67,131.2126,227.2224,127.7729,231.7134,123.282,228.2737,128.43,236.67" style="stroke: #A80036; stroke-width: 1.0;"/><text fill="#000000" font-family="sans-serif" font-size="13" lengthAdjust="spacingAndGlyphs" textLength="91" x="136.9442" y="225.9945">outlineBottom</text><!--MD5=[701173c9d3911de72688491691b52719]
link CustomizableBorder to Image--><path d="M151.05,177.06 C153.03,193.93 152.98,214.98 150.9,231.65 " fill="none" id="CustomizableBorder-&gt;Image-2" style="stroke: #A80036; stroke-width: 1.0;"/><polygon fill="#A80036" points="150.19,236.67,155.4125,228.3198,150.8911,231.7194,147.4915,227.198,150.19,236.67" style="stroke: #A80036; stroke-width: 1.0;"/><text fill="#000000" font-family="sans-serif" font-size="13" lengthAdjust="spacingAndGlyphs" textLength="67" x="182.0316" y="236.7928">outlineLeft</text><!--MD5=[701173c9d3911de72688491691b52719]
link CustomizableBorder to Image--><path d="M174.47,177.06 C180.32,193.93 180.17,214.98 174.04,231.65 " fill="none" id="CustomizableBorder-&gt;Image-3" style="stroke: #A80036; stroke-width: 1.0;"/><polygon fill="#A80036" points="171.94,236.67,179.1013,229.9086,173.8681,232.0567,171.72,226.8236,171.94,236.67" style="stroke: #A80036; stroke-width: 1.0;"/><text fill="#000000" font-family="sans-serif" font-size="13" lengthAdjust="spacingAndGlyphs" textLength="75" x="181.8456" y="229.2701">outlineRight</text><!--MD5=[b91e6f3a5f873c96f5446a59984e29b1]
@startuml
class CustomizableBorder {
    + SetBorderColor(newColor:Color) : void
}
EditorBase <|- - CustomizableBorder
IBorderCustomization <|- - CustomizableBorder
CustomizableBorder - -> "outlineTop" Image
CustomizableBorder - -> "outlineBottom" Image
CustomizableBorder - -> "outlineLeft" Image
CustomizableBorder - -> "outlineRight" Image
@enduml

PlantUML version 1.2020.02(Sun Mar 01 10:22:07 GMT 2020)
(GPL source distribution)
Java Runtime: OpenJDK Runtime Environment
JVM: OpenJDK 64-Bit Server VM
Java Version: 11.0.9+11-Ubuntu-0ubuntu1
Operating System: Linux
Default Encoding: ANSI_X3.4-1968
Language: en
Country: US
--></g></svg>