<?xml version="1.0" encoding="UTF-8" standalone="no"?><svg xmlns="http://www.w3.org/2000/svg" xmlns:xlink="http://www.w3.org/1999/xlink" contentScriptType="application/ecmascript" contentStyleType="text/css" height="321px" preserveAspectRatio="none" style="width:277px;height:321px;" version="1.1" viewBox="0 0 277 321" width="277px" zoomAndPan="magnify"><defs><filter height="300%" id="f4rainu68lm9s" width="300%" x="-1" y="-1"><feGaussianBlur result="blurOut" stdDeviation="2.0"/><feColorMatrix in="blurOut" result="blurOut2" type="matrix" values="0 0 0 0 0 0 0 0 0 0 0 0 0 0 0 0 0 0 .4 0"/><feOffset dx="4.0" dy="4.0" in="blurOut2" result="blurOut3"/><feBlend in="SourceGraphic" in2="blurOut3" mode="normal"/></filter></defs><g><!--MD5=[d713d1ca125aa9f881491c6dda98eb99]
class ExecuteOnlyIf--><rect fill="#FEFECE" filter="url(#f4rainu68lm9s)" height="86.4141" id="ExecuteOnlyIf" style="stroke: #A80036; stroke-width: 1.5;" width="205" x="17.49" y="116"/><ellipse cx="74.24" cy="132" fill="#ADD1B2" rx="11" ry="11" style="stroke: #A80036; stroke-width: 1.0;"/><path d="M77.2088,137.6406 Q76.6306,137.9375 75.99,138.0781 Q75.3494,138.2344 74.6463,138.2344 Q72.1463,138.2344 70.8181,136.5938 Q69.5056,134.9375 69.5056,131.8125 Q69.5056,128.6875 70.8181,127.0313 Q72.1463,125.375 74.6463,125.375 Q75.3494,125.375 75.99,125.5313 Q76.6463,125.6875 77.2088,125.9844 L77.2088,128.7031 Q76.5838,128.125 75.99,127.8594 Q75.3963,127.5781 74.7713,127.5781 Q73.4275,127.5781 72.74,128.6563 Q72.0525,129.7188 72.0525,131.8125 Q72.0525,133.9063 72.74,134.9844 Q73.4275,136.0469 74.7713,136.0469 Q75.3963,136.0469 75.99,135.7813 Q76.5838,135.5 77.2088,134.9219 L77.2088,137.6406 Z "/><text fill="#000000" font-family="sans-serif" font-size="12" lengthAdjust="spacingAndGlyphs" textLength="83" x="94.74" y="136.1543">ExecuteOnlyIf</text><line style="stroke: #A80036; stroke-width: 1.5;" x1="18.49" x2="221.49" y1="148" y2="148"/><line style="stroke: #A80036; stroke-width: 1.5;" x1="18.49" x2="221.49" y1="156" y2="156"/><ellipse cx="28.49" cy="167" fill="#84BE84" rx="3" ry="3" style="stroke: #038048; stroke-width: 1.0;"/><text fill="#000000" font-family="sans-serif" font-size="11" lengthAdjust="spacingAndGlyphs" textLength="121" x="37.49" y="170.2104">InvokeIfSaved() : void</text><ellipse cx="28.49" cy="179.8047" fill="#84BE84" rx="3" ry="3" style="stroke: #038048; stroke-width: 1.0;"/><text fill="#000000" font-family="sans-serif" font-size="11" lengthAdjust="spacingAndGlyphs" textLength="179" x="37.49" y="183.0151">InvokeIfFileDoesntExists() : void</text><ellipse cx="28.49" cy="192.6094" fill="#84BE84" rx="3" ry="3" style="stroke: #038048; stroke-width: 1.0;"/><text fill="#000000" font-family="sans-serif" font-size="11" lengthAdjust="spacingAndGlyphs" textLength="137" x="37.49" y="195.8198">AFileIsOpenened() : void</text><!--MD5=[83b3cf3d23d77c6f1e1b5291a241bc2a]
class MonoBehaviour--><rect fill="#FEFECE" filter="url(#f4rainu68lm9s)" height="48" id="MonoBehaviour" style="stroke: #A80036; stroke-width: 1.5;" width="128" x="55.99" y="8"/><ellipse cx="70.99" cy="24" fill="#ADD1B2" rx="11" ry="11" style="stroke: #A80036; stroke-width: 1.0;"/><path d="M73.9588,29.6406 Q73.3806,29.9375 72.74,30.0781 Q72.0994,30.2344 71.3963,30.2344 Q68.8963,30.2344 67.5681,28.5938 Q66.2556,26.9375 66.2556,23.8125 Q66.2556,20.6875 67.5681,19.0313 Q68.8963,17.375 71.3963,17.375 Q72.0994,17.375 72.74,17.5313 Q73.3963,17.6875 73.9588,17.9844 L73.9588,20.7031 Q73.3338,20.125 72.74,19.8594 Q72.1463,19.5781 71.5213,19.5781 Q70.1775,19.5781 69.49,20.6563 Q68.8025,21.7188 68.8025,23.8125 Q68.8025,25.9063 69.49,26.9844 Q70.1775,28.0469 71.5213,28.0469 Q72.1463,28.0469 72.74,27.7813 Q73.3338,27.5 73.9588,26.9219 L73.9588,29.6406 Z "/><text fill="#000000" font-family="sans-serif" font-size="12" lengthAdjust="spacingAndGlyphs" textLength="96" x="84.99" y="28.1543">MonoBehaviour</text><line style="stroke: #A80036; stroke-width: 1.5;" x1="56.99" x2="182.99" y1="40" y2="40"/><line style="stroke: #A80036; stroke-width: 1.5;" x1="56.99" x2="182.99" y1="48" y2="48"/><!--MD5=[3ead63e7a6dbaeb1466e3b865cfef6ea]
class UnityEvent--><rect fill="#FEFECE" filter="url(#f4rainu68lm9s)" height="48" id="UnityEvent" style="stroke: #A80036; stroke-width: 1.5;" width="98" x="70.99" y="262"/><ellipse cx="85.99" cy="278" fill="#ADD1B2" rx="11" ry="11" style="stroke: #A80036; stroke-width: 1.0;"/><path d="M88.9588,283.6406 Q88.3806,283.9375 87.74,284.0781 Q87.0994,284.2344 86.3963,284.2344 Q83.8963,284.2344 82.5681,282.5938 Q81.2556,280.9375 81.2556,277.8125 Q81.2556,274.6875 82.5681,273.0313 Q83.8963,271.375 86.3963,271.375 Q87.0994,271.375 87.74,271.5313 Q88.3963,271.6875 88.9588,271.9844 L88.9588,274.7031 Q88.3338,274.125 87.74,273.8594 Q87.1463,273.5781 86.5213,273.5781 Q85.1775,273.5781 84.49,274.6563 Q83.8025,275.7188 83.8025,277.8125 Q83.8025,279.9063 84.49,280.9844 Q85.1775,282.0469 86.5213,282.0469 Q87.1463,282.0469 87.74,281.7813 Q88.3338,281.5 88.9588,280.9219 L88.9588,283.6406 Z "/><text fill="#000000" font-family="sans-serif" font-size="12" lengthAdjust="spacingAndGlyphs" textLength="66" x="99.99" y="282.1543">UnityEvent</text><line style="stroke: #A80036; stroke-width: 1.5;" x1="71.99" x2="167.99" y1="294" y2="294"/><line style="stroke: #A80036; stroke-width: 1.5;" x1="71.99" x2="167.99" y1="302" y2="302"/><!--MD5=[2cbee30ad9bb8b3f16caacedb44185a3]
reverse link MonoBehaviour to ExecuteOnlyIf--><path d="M119.99,76.27 C119.99,89.12 119.99,103.17 119.99,115.94 " fill="none" id="MonoBehaviour&lt;-ExecuteOnlyIf" style="stroke: #A80036; stroke-width: 1.0;"/><polygon fill="none" points="112.99,76.22,119.99,56.22,126.99,76.22,112.99,76.22" style="stroke: #A80036; stroke-width: 1.0;"/><!--MD5=[16793153db9a0dc652894f22addf8650]
link ExecuteOnlyIf to UnityEvent--><path d="M95,202.32 C92.68,220.29 93.56,240.76 97.64,256.83 " fill="none" id="ExecuteOnlyIf-&gt;UnityEvent" style="stroke: #A80036; stroke-width: 1.0;"/><polygon fill="#A80036" points="99,261.67,100.3813,251.9185,97.6302,256.8613,92.6873,254.1102,99,261.67" style="stroke: #A80036; stroke-width: 1.0;"/><text fill="#000000" font-family="sans-serif" font-size="13" lengthAdjust="spacingAndGlyphs" textLength="78" x="6.3774" y="250.9945">ifTrueEvents</text><!--MD5=[16793153db9a0dc652894f22addf8650]
link ExecuteOnlyIf to UnityEvent--><path d="M119.99,202.32 C119.99,220.14 119.99,240.41 119.99,256.42 " fill="none" id="ExecuteOnlyIf-&gt;UnityEvent-1" style="stroke: #A80036; stroke-width: 1.0;"/><polygon fill="#A80036" points="119.99,261.67,123.99,252.67,119.99,256.67,115.99,252.67,119.99,261.67" style="stroke: #A80036; stroke-width: 1.0;"/><text fill="#000000" font-family="sans-serif" font-size="13" lengthAdjust="spacingAndGlyphs" textLength="83" x="130.1056" y="250.9945">ifFalseEvents</text><!--MD5=[16793153db9a0dc652894f22addf8650]
link ExecuteOnlyIf to UnityEvent--><path d="M144.98,202.32 C147.3,220.29 146.42,240.76 142.34,256.83 " fill="none" id="ExecuteOnlyIf-&gt;UnityEvent-2" style="stroke: #A80036; stroke-width: 1.0;"/><polygon fill="#A80036" points="140.98,261.67,147.2927,254.1102,142.3498,256.8613,139.5987,251.9185,140.98,261.67" style="stroke: #A80036; stroke-width: 1.0;"/><text fill="#000000" font-family="sans-serif" font-size="13" lengthAdjust="spacingAndGlyphs" textLength="88" x="177.5369" y="264.3074">invokeIfInvalid</text><!--MD5=[59f800eb1dfe24e2287a7a17e0eb56ab]
@startuml
class ExecuteOnlyIf {
    + InvokeIfSaved() : void
    + InvokeIfFileDoesntExists() : void
    + AFileIsOpenened() : void
}
MonoBehaviour <|- - ExecuteOnlyIf
ExecuteOnlyIf - -> "ifTrueEvents" UnityEvent
ExecuteOnlyIf - -> "ifFalseEvents" UnityEvent
ExecuteOnlyIf - -> "invokeIfInvalid" UnityEvent
@enduml

PlantUML version 1.2020.02(Sun Mar 01 10:22:07 GMT 2020)
(GPL source distribution)
Java Runtime: OpenJDK Runtime Environment
JVM: OpenJDK 64-Bit Server VM
Java Version: 11.0.9+11-Ubuntu-0ubuntu1
Operating System: Linux
Default Encoding: ANSI_X3.4-1968
Language: en
Country: US
--></g></svg>