<?xml version="1.0" encoding="UTF-8" standalone="no"?><svg xmlns="http://www.w3.org/2000/svg" xmlns:xlink="http://www.w3.org/1999/xlink" contentScriptType="application/ecmascript" contentStyleType="text/css" height="213px" preserveAspectRatio="none" style="width:328px;height:213px;" version="1.1" viewBox="0 0 328 213" width="328px" zoomAndPan="magnify"><defs><filter height="300%" id="f1cg2rncshu6oj" width="300%" x="-1" y="-1"><feGaussianBlur result="blurOut" stdDeviation="2.0"/><feColorMatrix in="blurOut" result="blurOut2" type="matrix" values="0 0 0 0 0 0 0 0 0 0 0 0 0 0 0 0 0 0 .4 0"/><feOffset dx="4.0" dy="4.0" in="blurOut2" result="blurOut3"/><feBlend in="SourceGraphic" in2="blurOut3" mode="normal"/></filter></defs><g><!--MD5=[19d32d471abfe7a6755c89f2077889bb]
class GotoNextUI--><rect fill="#FEFECE" filter="url(#f1cg2rncshu6oj)" height="86.4141" id="GotoNextUI" style="stroke: #A80036; stroke-width: 1.5;" width="311" x="6" y="116"/><ellipse cx="122.25" cy="132" fill="#ADD1B2" rx="11" ry="11" style="stroke: #A80036; stroke-width: 1.0;"/><path d="M125.2188,137.6406 Q124.6406,137.9375 124,138.0781 Q123.3594,138.2344 122.6563,138.2344 Q120.1563,138.2344 118.8281,136.5938 Q117.5156,134.9375 117.5156,131.8125 Q117.5156,128.6875 118.8281,127.0313 Q120.1563,125.375 122.6563,125.375 Q123.3594,125.375 124,125.5313 Q124.6563,125.6875 125.2188,125.9844 L125.2188,128.7031 Q124.5938,128.125 124,127.8594 Q123.4063,127.5781 122.7813,127.5781 Q121.4375,127.5781 120.75,128.6563 Q120.0625,129.7188 120.0625,131.8125 Q120.0625,133.9063 120.75,134.9844 Q121.4375,136.0469 122.7813,136.0469 Q123.4063,136.0469 124,135.7813 Q124.5938,135.5 125.2188,134.9219 L125.2188,137.6406 Z "/><text fill="#000000" font-family="sans-serif" font-size="12" lengthAdjust="spacingAndGlyphs" textLength="70" x="142.75" y="136.1543">GotoNextUI</text><line style="stroke: #A80036; stroke-width: 1.5;" x1="7" x2="316" y1="148" y2="148"/><line style="stroke: #A80036; stroke-width: 1.5;" x1="7" x2="316" y1="156" y2="156"/><ellipse cx="17" cy="167" fill="#84BE84" rx="3" ry="3" style="stroke: #038048; stroke-width: 1.0;"/><text fill="#000000" font-family="sans-serif" font-size="11" lengthAdjust="spacingAndGlyphs" textLength="230" x="26" y="170.2104">OpenMenu(newMenu:GameObject) : void</text><ellipse cx="17" cy="179.8047" fill="#84BE84" rx="3" ry="3" style="stroke: #038048; stroke-width: 1.0;"/><text fill="#000000" font-family="sans-serif" font-size="11" lengthAdjust="spacingAndGlyphs" textLength="91" x="26" y="183.0151">CloseMe() : void</text><ellipse cx="17" cy="192.6094" fill="#84BE84" rx="3" ry="3" style="stroke: #038048; stroke-width: 1.0;"/><text fill="#000000" font-family="sans-serif" font-size="11" lengthAdjust="spacingAndGlyphs" textLength="285" x="26" y="195.8198">AddOpenMenuAction(newMenu:GameObject) : void</text><!--MD5=[83b3cf3d23d77c6f1e1b5291a241bc2a]
class MonoBehaviour--><rect fill="#FEFECE" filter="url(#f1cg2rncshu6oj)" height="48" id="MonoBehaviour" style="stroke: #A80036; stroke-width: 1.5;" width="128" x="97.5" y="8"/><ellipse cx="112.5" cy="24" fill="#ADD1B2" rx="11" ry="11" style="stroke: #A80036; stroke-width: 1.0;"/><path d="M115.4688,29.6406 Q114.8906,29.9375 114.25,30.0781 Q113.6094,30.2344 112.9063,30.2344 Q110.4063,30.2344 109.0781,28.5938 Q107.7656,26.9375 107.7656,23.8125 Q107.7656,20.6875 109.0781,19.0313 Q110.4063,17.375 112.9063,17.375 Q113.6094,17.375 114.25,17.5313 Q114.9063,17.6875 115.4688,17.9844 L115.4688,20.7031 Q114.8438,20.125 114.25,19.8594 Q113.6563,19.5781 113.0313,19.5781 Q111.6875,19.5781 111,20.6563 Q110.3125,21.7188 110.3125,23.8125 Q110.3125,25.9063 111,26.9844 Q111.6875,28.0469 113.0313,28.0469 Q113.6563,28.0469 114.25,27.7813 Q114.8438,27.5 115.4688,26.9219 L115.4688,29.6406 Z "/><text fill="#000000" font-family="sans-serif" font-size="12" lengthAdjust="spacingAndGlyphs" textLength="96" x="126.5" y="28.1543">MonoBehaviour</text><line style="stroke: #A80036; stroke-width: 1.5;" x1="98.5" x2="224.5" y1="40" y2="40"/><line style="stroke: #A80036; stroke-width: 1.5;" x1="98.5" x2="224.5" y1="48" y2="48"/><!--MD5=[a9707a828395e1a7d8222e3854b8e6fd]
reverse link MonoBehaviour to GotoNextUI--><path d="M161.5,76.27 C161.5,89.12 161.5,103.17 161.5,115.94 " fill="none" id="MonoBehaviour&lt;-GotoNextUI" style="stroke: #A80036; stroke-width: 1.0;"/><polygon fill="none" points="154.5,76.22,161.5,56.22,168.5,76.22,154.5,76.22" style="stroke: #A80036; stroke-width: 1.0;"/><!--MD5=[bab59e0b185723101e73b2c1d21bf08b]
@startuml
class GotoNextUI {
    + OpenMenu(newMenu:GameObject) : void
    + CloseMe() : void
    + AddOpenMenuAction(newMenu:GameObject) : void
}
MonoBehaviour <|- - GotoNextUI
@enduml

PlantUML version 1.2020.02(Sun Mar 01 10:22:07 GMT 2020)
(GPL source distribution)
Java Runtime: OpenJDK Runtime Environment
JVM: OpenJDK 64-Bit Server VM
Java Version: 11.0.9+11-Ubuntu-0ubuntu1
Operating System: Linux
Default Encoding: ANSI_X3.4-1968
Language: en
Country: US
--></g></svg>