<?xml version="1.0" encoding="UTF-8" standalone="no"?><svg xmlns="http://www.w3.org/2000/svg" xmlns:xlink="http://www.w3.org/1999/xlink" contentScriptType="application/ecmascript" contentStyleType="text/css" height="79px" preserveAspectRatio="none" style="width:503px;height:79px;" version="1.1" viewBox="0 0 503 79" width="503px" zoomAndPan="magnify"><defs><filter height="300%" id="f1gcrdxu944jni" width="300%" x="-1" y="-1"><feGaussianBlur result="blurOut" stdDeviation="2.0"/><feColorMatrix in="blurOut" result="blurOut2" type="matrix" values="0 0 0 0 0 0 0 0 0 0 0 0 0 0 0 0 0 0 .4 0"/><feOffset dx="4.0" dy="4.0" in="blurOut2" result="blurOut3"/><feBlend in="SourceGraphic" in2="blurOut3" mode="normal"/></filter></defs><g><!--MD5=[25c9afad8010c8b1ba1652569cc8fc21]
class IBorderCustomization--><rect fill="#FEFECE" filter="url(#f1gcrdxu944jni)" height="60.8047" id="IBorderCustomization" style="stroke: #A80036; stroke-width: 1.5;" width="230" x="6" y="8"/><ellipse cx="50.25" cy="24" fill="#B4A7E5" rx="11" ry="11" style="stroke: #A80036; stroke-width: 1.0;"/><path d="M46.1719,19.7656 L46.1719,17.6094 L53.5625,17.6094 L53.5625,19.7656 L51.0938,19.7656 L51.0938,27.8438 L53.5625,27.8438 L53.5625,30 L46.1719,30 L46.1719,27.8438 L48.6406,27.8438 L48.6406,19.7656 L46.1719,19.7656 Z "/><text fill="#000000" font-family="sans-serif" font-size="12" font-style="italic" lengthAdjust="spacingAndGlyphs" textLength="133" x="70.75" y="28.1543">IBorderCustomization</text><line style="stroke: #A80036; stroke-width: 1.5;" x1="7" x2="235" y1="40" y2="40"/><line style="stroke: #A80036; stroke-width: 1.5;" x1="7" x2="235" y1="48" y2="48"/><text fill="#000000" font-family="sans-serif" font-size="11" lengthAdjust="spacingAndGlyphs" textLength="218" x="12" y="62.2104">SetBorderColor(newColor:Color) : void</text><!--MD5=[084153738ba943530306eab57e7066eb]
class IMenuCustomization--><rect fill="#FEFECE" filter="url(#f1gcrdxu944jni)" height="60.8047" id="IMenuCustomization" style="stroke: #A80036; stroke-width: 1.5;" width="221" x="271.5" y="8"/><ellipse cx="315.3" cy="24" fill="#B4A7E5" rx="11" ry="11" style="stroke: #A80036; stroke-width: 1.0;"/><path d="M311.2219,19.7656 L311.2219,17.6094 L318.6125,17.6094 L318.6125,19.7656 L316.1438,19.7656 L316.1438,27.8438 L318.6125,27.8438 L318.6125,30 L311.2219,30 L311.2219,27.8438 L313.6906,27.8438 L313.6906,19.7656 L311.2219,19.7656 Z "/><text fill="#000000" font-family="sans-serif" font-size="12" font-style="italic" lengthAdjust="spacingAndGlyphs" textLength="125" x="335.7" y="28.1543">IMenuCustomization</text><line style="stroke: #A80036; stroke-width: 1.5;" x1="272.5" x2="491.5" y1="40" y2="40"/><line style="stroke: #A80036; stroke-width: 1.5;" x1="272.5" x2="491.5" y1="48" y2="48"/><text fill="#000000" font-family="sans-serif" font-size="11" lengthAdjust="spacingAndGlyphs" textLength="209" x="277.5" y="62.2104">SetMenuColor(newColor:Color) : void</text><!--MD5=[0753c12e8d7d1ff26df18598d7bb84c8]
@startuml
interface IBorderCustomization {
    SetBorderColor(newColor:Color) : void
}
interface IMenuCustomization {
    SetMenuColor(newColor:Color) : void
}
@enduml

PlantUML version 1.2020.02(Sun Mar 01 10:22:07 GMT 2020)
(GPL source distribution)
Java Runtime: OpenJDK Runtime Environment
JVM: OpenJDK 64-Bit Server VM
Java Version: 11.0.9+11-Ubuntu-0ubuntu1
Operating System: Linux
Default Encoding: ANSI_X3.4-1968
Language: en
Country: US
--></g></svg>