<?xml version="1.0" encoding="UTF-8" standalone="no"?><svg xmlns="http://www.w3.org/2000/svg" xmlns:xlink="http://www.w3.org/1999/xlink" contentScriptType="application/ecmascript" contentStyleType="text/css" height="309px" preserveAspectRatio="none" style="width:592px;height:309px;" version="1.1" viewBox="0 0 592 309" width="592px" zoomAndPan="magnify"><defs><filter height="300%" id="f2wu1a8tf8w5s" width="300%" x="-1" y="-1"><feGaussianBlur result="blurOut" stdDeviation="2.0"/><feColorMatrix in="blurOut" result="blurOut2" type="matrix" values="0 0 0 0 0 0 0 0 0 0 0 0 0 0 0 0 0 0 .4 0"/><feOffset dx="4.0" dy="4.0" in="blurOut2" result="blurOut3"/><feBlend in="SourceGraphic" in2="blurOut3" mode="normal"/></filter></defs><g><!--MD5=[44a1b4afaef76c16e6c9ec4990ad0c8d]
class Item--><rect fill="#FEFECE" filter="url(#f2wu1a8tf8w5s)" height="73.6094" id="Item" style="stroke: #A80036; stroke-width: 1.5;" width="575" x="6" y="116"/><ellipse cx="275.75" cy="132" fill="#ADD1B2" rx="11" ry="11" style="stroke: #A80036; stroke-width: 1.0;"/><path d="M278.7188,137.6406 Q278.1406,137.9375 277.5,138.0781 Q276.8594,138.2344 276.1563,138.2344 Q273.6563,138.2344 272.3281,136.5938 Q271.0156,134.9375 271.0156,131.8125 Q271.0156,128.6875 272.3281,127.0313 Q273.6563,125.375 276.1563,125.375 Q276.8594,125.375 277.5,125.5313 Q278.1563,125.6875 278.7188,125.9844 L278.7188,128.7031 Q278.0938,128.125 277.5,127.8594 Q276.9063,127.5781 276.2813,127.5781 Q274.9375,127.5781 274.25,128.6563 Q273.5625,129.7188 273.5625,131.8125 Q273.5625,133.9063 274.25,134.9844 Q274.9375,136.0469 276.2813,136.0469 Q276.9063,136.0469 277.5,135.7813 Q278.0938,135.5 278.7188,134.9219 L278.7188,137.6406 Z "/><text fill="#000000" font-family="sans-serif" font-size="12" lengthAdjust="spacingAndGlyphs" textLength="27" x="296.25" y="136.1543">Item</text><line style="stroke: #A80036; stroke-width: 1.5;" x1="7" x2="580" y1="148" y2="148"/><line style="stroke: #A80036; stroke-width: 1.5;" x1="7" x2="580" y1="156" y2="156"/><ellipse cx="17" cy="167" fill="#84BE84" rx="3" ry="3" style="stroke: #038048; stroke-width: 1.0;"/><text fill="#000000" font-family="sans-serif" font-size="11" lengthAdjust="spacingAndGlyphs" textLength="549" x="26" y="170.2104">Initialize(commandManager:CommandManager, parent:Transform, spawnPivot:Transform) : void</text><ellipse cx="17" cy="179.8047" fill="#84BE84" rx="3" ry="3" style="stroke: #038048; stroke-width: 1.0;"/><text fill="#000000" font-family="sans-serif" font-size="11" lengthAdjust="spacingAndGlyphs" textLength="138" x="26" y="183.0151">AddItemToScene() : void</text><!--MD5=[cdc675492b5c7404f9d1fea69146a946]
class EditorBase--><rect fill="#FEFECE" filter="url(#f2wu1a8tf8w5s)" height="48" id="EditorBase" style="stroke: #A80036; stroke-width: 1.5;" width="100" x="243.5" y="8"/><ellipse cx="258.5" cy="24" fill="#ADD1B2" rx="11" ry="11" style="stroke: #A80036; stroke-width: 1.0;"/><path d="M261.4688,29.6406 Q260.8906,29.9375 260.25,30.0781 Q259.6094,30.2344 258.9063,30.2344 Q256.4063,30.2344 255.0781,28.5938 Q253.7656,26.9375 253.7656,23.8125 Q253.7656,20.6875 255.0781,19.0313 Q256.4063,17.375 258.9063,17.375 Q259.6094,17.375 260.25,17.5313 Q260.9063,17.6875 261.4688,17.9844 L261.4688,20.7031 Q260.8438,20.125 260.25,19.8594 Q259.6563,19.5781 259.0313,19.5781 Q257.6875,19.5781 257,20.6563 Q256.3125,21.7188 256.3125,23.8125 Q256.3125,25.9063 257,26.9844 Q257.6875,28.0469 259.0313,28.0469 Q259.6563,28.0469 260.25,27.7813 Q260.8438,27.5 261.4688,26.9219 L261.4688,29.6406 Z "/><text fill="#000000" font-family="sans-serif" font-size="12" lengthAdjust="spacingAndGlyphs" textLength="68" x="272.5" y="28.1543">EditorBase</text><line style="stroke: #A80036; stroke-width: 1.5;" x1="244.5" x2="342.5" y1="40" y2="40"/><line style="stroke: #A80036; stroke-width: 1.5;" x1="244.5" x2="342.5" y1="48" y2="48"/><!--MD5=[85c2ed8dbf494cb60783de624603a7dd]
class Sprite--><rect fill="#FEFECE" filter="url(#f2wu1a8tf8w5s)" height="48" id="Sprite" style="stroke: #A80036; stroke-width: 1.5;" width="69" x="115" y="250"/><ellipse cx="130" cy="266" fill="#ADD1B2" rx="11" ry="11" style="stroke: #A80036; stroke-width: 1.0;"/><path d="M132.9688,271.6406 Q132.3906,271.9375 131.75,272.0781 Q131.1094,272.2344 130.4063,272.2344 Q127.9063,272.2344 126.5781,270.5938 Q125.2656,268.9375 125.2656,265.8125 Q125.2656,262.6875 126.5781,261.0313 Q127.9063,259.375 130.4063,259.375 Q131.1094,259.375 131.75,259.5313 Q132.4063,259.6875 132.9688,259.9844 L132.9688,262.7031 Q132.3438,262.125 131.75,261.8594 Q131.1563,261.5781 130.5313,261.5781 Q129.1875,261.5781 128.5,262.6563 Q127.8125,263.7188 127.8125,265.8125 Q127.8125,267.9063 128.5,268.9844 Q129.1875,270.0469 130.5313,270.0469 Q131.1563,270.0469 131.75,269.7813 Q132.3438,269.5 132.9688,268.9219 L132.9688,271.6406 Z "/><text fill="#000000" font-family="sans-serif" font-size="12" lengthAdjust="spacingAndGlyphs" textLength="37" x="144" y="270.1543">Sprite</text><line style="stroke: #A80036; stroke-width: 1.5;" x1="116" x2="183" y1="282" y2="282"/><line style="stroke: #A80036; stroke-width: 1.5;" x1="116" x2="183" y1="290" y2="290"/><!--MD5=[c1f8e17d83d5d6a6ca17c065171989b6]
class CommandManager--><rect fill="#FEFECE" filter="url(#f2wu1a8tf8w5s)" height="48" id="CommandManager" style="stroke: #A80036; stroke-width: 1.5;" width="149" x="219" y="250"/><ellipse cx="234" cy="266" fill="#ADD1B2" rx="11" ry="11" style="stroke: #A80036; stroke-width: 1.0;"/><path d="M236.9688,271.6406 Q236.3906,271.9375 235.75,272.0781 Q235.1094,272.2344 234.4063,272.2344 Q231.9063,272.2344 230.5781,270.5938 Q229.2656,268.9375 229.2656,265.8125 Q229.2656,262.6875 230.5781,261.0313 Q231.9063,259.375 234.4063,259.375 Q235.1094,259.375 235.75,259.5313 Q236.4063,259.6875 236.9688,259.9844 L236.9688,262.7031 Q236.3438,262.125 235.75,261.8594 Q235.1563,261.5781 234.5313,261.5781 Q233.1875,261.5781 232.5,262.6563 Q231.8125,263.7188 231.8125,265.8125 Q231.8125,267.9063 232.5,268.9844 Q233.1875,270.0469 234.5313,270.0469 Q235.1563,270.0469 235.75,269.7813 Q236.3438,269.5 236.9688,268.9219 L236.9688,271.6406 Z "/><text fill="#000000" font-family="sans-serif" font-size="12" lengthAdjust="spacingAndGlyphs" textLength="117" x="248" y="270.1543">CommandManager</text><line style="stroke: #A80036; stroke-width: 1.5;" x1="220" x2="367" y1="282" y2="282"/><line style="stroke: #A80036; stroke-width: 1.5;" x1="220" x2="367" y1="290" y2="290"/><!--MD5=[6a60e0a9ae019339c2c7e78bb1504adc]
class AddObjectCommand--><rect fill="#FEFECE" filter="url(#f2wu1a8tf8w5s)" height="48" id="AddObjectCommand" style="stroke: #A80036; stroke-width: 1.5;" width="158" x="402.5" y="250"/><ellipse cx="417.5" cy="266" fill="#ADD1B2" rx="11" ry="11" style="stroke: #A80036; stroke-width: 1.0;"/><path d="M420.4688,271.6406 Q419.8906,271.9375 419.25,272.0781 Q418.6094,272.2344 417.9063,272.2344 Q415.4063,272.2344 414.0781,270.5938 Q412.7656,268.9375 412.7656,265.8125 Q412.7656,262.6875 414.0781,261.0313 Q415.4063,259.375 417.9063,259.375 Q418.6094,259.375 419.25,259.5313 Q419.9063,259.6875 420.4688,259.9844 L420.4688,262.7031 Q419.8438,262.125 419.25,261.8594 Q418.6563,261.5781 418.0313,261.5781 Q416.6875,261.5781 416,262.6563 Q415.3125,263.7188 415.3125,265.8125 Q415.3125,267.9063 416,268.9844 Q416.6875,270.0469 418.0313,270.0469 Q418.6563,270.0469 419.25,269.7813 Q419.8438,269.5 420.4688,268.9219 L420.4688,271.6406 Z "/><text fill="#000000" font-family="sans-serif" font-size="12" lengthAdjust="spacingAndGlyphs" textLength="126" x="431.5" y="270.1543">AddObjectCommand</text><line style="stroke: #A80036; stroke-width: 1.5;" x1="403.5" x2="559.5" y1="282" y2="282"/><line style="stroke: #A80036; stroke-width: 1.5;" x1="403.5" x2="559.5" y1="290" y2="290"/><!--MD5=[226dd766db5cb362fc8216bf1ba28f41]
reverse link EditorBase to Item--><path d="M293.5,76.43 C293.5,89.33 293.5,103.32 293.5,115.71 " fill="none" id="EditorBase&lt;-Item" style="stroke: #A80036; stroke-width: 1.0;"/><polygon fill="none" points="286.5,76.23,293.5,56.23,300.5,76.23,286.5,76.23" style="stroke: #A80036; stroke-width: 1.0;"/><!--MD5=[5e0fbb366e431e27c6bd0043f99a79cb]
link Item to Sprite--><path d="M249.9,190.03 C227.86,208.24 201.6,229.95 181.46,246.59 " fill="none" id="Item-&gt;Sprite" style="stroke: #A80036; stroke-width: 1.0;"/><polygon fill="#A80036" points="177.51,249.85,186.9916,247.1855,181.3593,246.6589,181.8859,241.0267,177.51,249.85" style="stroke: #A80036; stroke-width: 1.0;"/><text fill="#000000" font-family="sans-serif" font-size="13" lengthAdjust="spacingAndGlyphs" textLength="36" x="144.0751" y="238.8236">sprite</text><!--MD5=[d206af5142a5aa3e57c9ca534a304f43]
link Item to CommandManager--><path d="M293.5,190.03 C293.5,207.48 293.5,228.15 293.5,244.49 " fill="none" id="Item-&gt;CommandManager" style="stroke: #A80036; stroke-width: 1.0;"/><polygon fill="#A80036" points="293.5,249.85,297.5,240.85,293.5,244.85,289.5,240.85,293.5,249.85" style="stroke: #A80036; stroke-width: 1.0;"/><text fill="#000000" font-family="sans-serif" font-size="13" lengthAdjust="spacingAndGlyphs" textLength="121" x="309.0031" y="238.8236">commandManager</text><!--MD5=[9ccddc69f36e4b54247954a96cd700f4]
link Item to AddObjectCommand--><path d="M350.42,190.03 C379.43,208.39 414.06,230.31 440.44,247.01 " fill="none" id="Item-&gt;AddObjectCommand" style="stroke: #A80036; stroke-width: 1.0;"/><polygon fill="#A80036" points="444.93,249.85,439.4701,241.6531,440.707,247.173,435.187,248.4099,444.93,249.85" style="stroke: #A80036; stroke-width: 1.0;"/><text fill="#000000" font-family="sans-serif" font-size="13" lengthAdjust="spacingAndGlyphs" textLength="65" x="443.8871" y="238.8236">addObject</text><!--MD5=[8e23a4fe892d2b9ce6e539cf5e5203b2]
@startuml
class Item {
    + Initialize(commandManager:CommandManager, parent:Transform, spawnPivot:Transform) : void
    + AddItemToScene() : void
}
EditorBase <|- - Item
Item - -> "sprite" Sprite
Item - -> "commandManager" CommandManager
Item - -> "addObject" AddObjectCommand
@enduml

PlantUML version 1.2020.02(Sun Mar 01 10:22:07 GMT 2020)
(GPL source distribution)
Java Runtime: OpenJDK Runtime Environment
JVM: OpenJDK 64-Bit Server VM
Java Version: 11.0.9+11-Ubuntu-0ubuntu1
Operating System: Linux
Default Encoding: ANSI_X3.4-1968
Language: en
Country: US
--></g></svg>