<?xml version="1.0" encoding="UTF-8" standalone="no"?><svg xmlns="http://www.w3.org/2000/svg" xmlns:xlink="http://www.w3.org/1999/xlink" contentScriptType="application/ecmascript" contentStyleType="text/css" height="296px" preserveAspectRatio="none" style="width:334px;height:296px;" version="1.1" viewBox="0 0 334 296" width="334px" zoomAndPan="magnify"><defs><filter height="300%" id="fllaxm5tt8wfq" width="300%" x="-1" y="-1"><feGaussianBlur result="blurOut" stdDeviation="2.0"/><feColorMatrix in="blurOut" result="blurOut2" type="matrix" values="0 0 0 0 0 0 0 0 0 0 0 0 0 0 0 0 0 0 .4 0"/><feOffset dx="4.0" dy="4.0" in="blurOut2" result="blurOut3"/><feBlend in="SourceGraphic" in2="blurOut3" mode="normal"/></filter></defs><g><!--MD5=[8651423c6dcf43923f9c53b9d77db1df]
class LoadExistingFiles--><rect fill="#FEFECE" filter="url(#fllaxm5tt8wfq)" height="60.8047" id="LoadExistingFiles" style="stroke: #A80036; stroke-width: 1.5;" width="138" x="41.57" y="116"/><ellipse cx="56.57" cy="132" fill="#ADD1B2" rx="11" ry="11" style="stroke: #A80036; stroke-width: 1.0;"/><path d="M59.5388,137.6406 Q58.9606,137.9375 58.32,138.0781 Q57.6794,138.2344 56.9763,138.2344 Q54.4763,138.2344 53.1481,136.5938 Q51.8356,134.9375 51.8356,131.8125 Q51.8356,128.6875 53.1481,127.0313 Q54.4763,125.375 56.9763,125.375 Q57.6794,125.375 58.32,125.5313 Q58.9763,125.6875 59.5388,125.9844 L59.5388,128.7031 Q58.9138,128.125 58.32,127.8594 Q57.7263,127.5781 57.1013,127.5781 Q55.7575,127.5781 55.07,128.6563 Q54.3825,129.7188 54.3825,131.8125 Q54.3825,133.9063 55.07,134.9844 Q55.7575,136.0469 57.1013,136.0469 Q57.7263,136.0469 58.32,135.7813 Q58.9138,135.5 59.5388,134.9219 L59.5388,137.6406 Z "/><text fill="#000000" font-family="sans-serif" font-size="12" lengthAdjust="spacingAndGlyphs" textLength="106" x="70.57" y="136.1543">LoadExistingFiles</text><line style="stroke: #A80036; stroke-width: 1.5;" x1="42.57" x2="178.57" y1="148" y2="148"/><line style="stroke: #A80036; stroke-width: 1.5;" x1="42.57" x2="178.57" y1="156" y2="156"/><ellipse cx="52.57" cy="167" fill="#84BE84" rx="3" ry="3" style="stroke: #038048; stroke-width: 1.0;"/><text fill="#000000" font-family="sans-serif" font-size="11" lengthAdjust="spacingAndGlyphs" textLength="103" x="61.57" y="170.2104">UpdateList() : void</text><!--MD5=[cdc675492b5c7404f9d1fea69146a946]
class EditorBase--><rect fill="#FEFECE" filter="url(#fllaxm5tt8wfq)" height="48" id="EditorBase" style="stroke: #A80036; stroke-width: 1.5;" width="100" x="60.57" y="8"/><ellipse cx="75.57" cy="24" fill="#ADD1B2" rx="11" ry="11" style="stroke: #A80036; stroke-width: 1.0;"/><path d="M78.5388,29.6406 Q77.9606,29.9375 77.32,30.0781 Q76.6794,30.2344 75.9763,30.2344 Q73.4763,30.2344 72.1481,28.5938 Q70.8356,26.9375 70.8356,23.8125 Q70.8356,20.6875 72.1481,19.0313 Q73.4763,17.375 75.9763,17.375 Q76.6794,17.375 77.32,17.5313 Q77.9763,17.6875 78.5388,17.9844 L78.5388,20.7031 Q77.9138,20.125 77.32,19.8594 Q76.7263,19.5781 76.1013,19.5781 Q74.7575,19.5781 74.07,20.6563 Q73.3825,21.7188 73.3825,23.8125 Q73.3825,25.9063 74.07,26.9844 Q74.7575,28.0469 76.1013,28.0469 Q76.7263,28.0469 77.32,27.7813 Q77.9138,27.5 78.5388,26.9219 L78.5388,29.6406 Z "/><text fill="#000000" font-family="sans-serif" font-size="12" lengthAdjust="spacingAndGlyphs" textLength="68" x="89.57" y="28.1543">EditorBase</text><line style="stroke: #A80036; stroke-width: 1.5;" x1="61.57" x2="159.57" y1="40" y2="40"/><line style="stroke: #A80036; stroke-width: 1.5;" x1="61.57" x2="159.57" y1="48" y2="48"/><!--MD5=[064f7a74fee85463ec1a30143664ee17]
class GameObject--><rect fill="#FEFECE" filter="url(#fllaxm5tt8wfq)" height="48" id="GameObject" style="stroke: #A80036; stroke-width: 1.5;" width="108" x="56.57" y="237"/><ellipse cx="71.57" cy="253" fill="#ADD1B2" rx="11" ry="11" style="stroke: #A80036; stroke-width: 1.0;"/><path d="M74.5388,258.6406 Q73.9606,258.9375 73.32,259.0781 Q72.6794,259.2344 71.9763,259.2344 Q69.4763,259.2344 68.1481,257.5938 Q66.8356,255.9375 66.8356,252.8125 Q66.8356,249.6875 68.1481,248.0313 Q69.4763,246.375 71.9763,246.375 Q72.6794,246.375 73.32,246.5313 Q73.9763,246.6875 74.5388,246.9844 L74.5388,249.7031 Q73.9138,249.125 73.32,248.8594 Q72.7263,248.5781 72.1013,248.5781 Q70.7575,248.5781 70.07,249.6563 Q69.3825,250.7188 69.3825,252.8125 Q69.3825,254.9063 70.07,255.9844 Q70.7575,257.0469 72.1013,257.0469 Q72.7263,257.0469 73.32,256.7813 Q73.9138,256.5 74.5388,255.9219 L74.5388,258.6406 Z "/><text fill="#000000" font-family="sans-serif" font-size="12" lengthAdjust="spacingAndGlyphs" textLength="76" x="85.57" y="257.1543">GameObject</text><line style="stroke: #A80036; stroke-width: 1.5;" x1="57.57" x2="163.57" y1="269" y2="269"/><line style="stroke: #A80036; stroke-width: 1.5;" x1="57.57" x2="163.57" y1="277" y2="277"/><!--MD5=[281c999374e61fd3a46e672fb26d53ea]
class RectTransform--><rect fill="#FEFECE" filter="url(#fllaxm5tt8wfq)" height="48" id="RectTransform" style="stroke: #A80036; stroke-width: 1.5;" width="123" x="200.07" y="237"/><ellipse cx="215.07" cy="253" fill="#ADD1B2" rx="11" ry="11" style="stroke: #A80036; stroke-width: 1.0;"/><path d="M218.0388,258.6406 Q217.4606,258.9375 216.82,259.0781 Q216.1794,259.2344 215.4763,259.2344 Q212.9763,259.2344 211.6481,257.5938 Q210.3356,255.9375 210.3356,252.8125 Q210.3356,249.6875 211.6481,248.0313 Q212.9763,246.375 215.4763,246.375 Q216.1794,246.375 216.82,246.5313 Q217.4763,246.6875 218.0388,246.9844 L218.0388,249.7031 Q217.4138,249.125 216.82,248.8594 Q216.2263,248.5781 215.6013,248.5781 Q214.2575,248.5781 213.57,249.6563 Q212.8825,250.7188 212.8825,252.8125 Q212.8825,254.9063 213.57,255.9844 Q214.2575,257.0469 215.6013,257.0469 Q216.2263,257.0469 216.82,256.7813 Q217.4138,256.5 218.0388,255.9219 L218.0388,258.6406 Z "/><text fill="#000000" font-family="sans-serif" font-size="12" lengthAdjust="spacingAndGlyphs" textLength="91" x="229.07" y="257.1543">RectTransform</text><line style="stroke: #A80036; stroke-width: 1.5;" x1="201.07" x2="322.07" y1="269" y2="269"/><line style="stroke: #A80036; stroke-width: 1.5;" x1="201.07" x2="322.07" y1="277" y2="277"/><!--MD5=[810f9fb573d8a6fe8b24d9dc31388c14]
reverse link EditorBase to LoadExistingFiles--><path d="M110.57,76.11 C110.57,89.31 110.57,103.54 110.57,115.65 " fill="none" id="EditorBase&lt;-LoadExistingFiles" style="stroke: #A80036; stroke-width: 1.0;"/><polygon fill="none" points="103.57,76.04,110.57,56.04,117.57,76.04,103.57,76.04" style="stroke: #A80036; stroke-width: 1.0;"/><!--MD5=[b0fd221c55c5a51c5a16657bd20e2f5b]
link LoadExistingFiles to GameObject--><path d="M99.19,177.06 C97.31,193.93 97.36,214.98 99.33,231.65 " fill="none" id="LoadExistingFiles-&gt;GameObject" style="stroke: #A80036; stroke-width: 1.0;"/><polygon fill="#A80036" points="100,236.67,102.7826,227.2224,99.3429,231.7134,94.852,228.2737,100,236.67" style="stroke: #A80036; stroke-width: 1.0;"/><text fill="#000000" font-family="sans-serif" font-size="13" lengthAdjust="spacingAndGlyphs" textLength="79" x="8.7954" y="225.9945">framePrefab</text><!--MD5=[b0fd221c55c5a51c5a16657bd20e2f5b]
link LoadExistingFiles to GameObject--><path d="M122.61,177.06 C124.6,193.93 124.55,214.98 122.47,231.65 " fill="none" id="LoadExistingFiles-&gt;GameObject-1" style="stroke: #A80036; stroke-width: 1.0;"/><polygon fill="#A80036" points="121.76,236.67,126.9791,228.3177,122.4591,231.7191,119.0577,227.1991,121.76,236.67" style="stroke: #A80036; stroke-width: 1.0;"/><text fill="#000000" font-family="sans-serif" font-size="13" lengthAdjust="spacingAndGlyphs" textLength="96" x="136.0667" y="225.9328">topLevelParent</text><!--MD5=[3289a38b8deb43a4d8d0c357437d14df]
link LoadExistingFiles to RectTransform--><path d="M150.24,177.06 C173.77,194.59 203.34,216.62 226.09,233.57 " fill="none" id="LoadExistingFiles-&gt;RectTransform" style="stroke: #A80036; stroke-width: 1.0;"/><polygon fill="#A80036" points="230.25,236.67,225.4303,228.081,226.2431,233.6792,220.645,234.492,230.25,236.67" style="stroke: #A80036; stroke-width: 1.0;"/><text fill="#000000" font-family="sans-serif" font-size="13" lengthAdjust="spacingAndGlyphs" textLength="48" x="228.4658" y="225.9945">myRect</text><!--MD5=[4df58616f0b48316e239725b61d719cc]
@startuml
class LoadExistingFiles {
    + UpdateList() : void
}
EditorBase <|- - LoadExistingFiles
LoadExistingFiles - -> "framePrefab" GameObject
LoadExistingFiles - -> "topLevelParent" GameObject
LoadExistingFiles - -> "myRect" RectTransform
@enduml

PlantUML version 1.2020.02(Sun Mar 01 10:22:07 GMT 2020)
(GPL source distribution)
Java Runtime: OpenJDK Runtime Environment
JVM: OpenJDK 64-Bit Server VM
Java Version: 11.0.9+11-Ubuntu-0ubuntu1
Operating System: Linux
Default Encoding: ANSI_X3.4-1968
Language: en
Country: US
--></g></svg>