<?xml version="1.0" encoding="UTF-8" standalone="no"?><svg xmlns="http://www.w3.org/2000/svg" xmlns:xlink="http://www.w3.org/1999/xlink" contentScriptType="application/ecmascript" contentStyleType="text/css" height="283px" preserveAspectRatio="none" style="width:370px;height:283px;" version="1.1" viewBox="0 0 370 283" width="370px" zoomAndPan="magnify"><defs><filter height="300%" id="fyuqp0cws9dto" width="300%" x="-1" y="-1"><feGaussianBlur result="blurOut" stdDeviation="2.0"/><feColorMatrix in="blurOut" result="blurOut2" type="matrix" values="0 0 0 0 0 0 0 0 0 0 0 0 0 0 0 0 0 0 .4 0"/><feOffset dx="4.0" dy="4.0" in="blurOut2" result="blurOut3"/><feBlend in="SourceGraphic" in2="blurOut3" mode="normal"/></filter></defs><g><!--MD5=[8a812d0dd31a9fb8d3c98439112d47f8]
class ObjectMenuItemSpace--><rect fill="#FEFECE" filter="url(#fyuqp0cws9dto)" height="48" id="ObjectMenuItemSpace" style="stroke: #A80036; stroke-width: 1.5;" width="172" x="130" y="116"/><ellipse cx="145" cy="132" fill="#ADD1B2" rx="11" ry="11" style="stroke: #A80036; stroke-width: 1.0;"/><path d="M147.9688,137.6406 Q147.3906,137.9375 146.75,138.0781 Q146.1094,138.2344 145.4063,138.2344 Q142.9063,138.2344 141.5781,136.5938 Q140.2656,134.9375 140.2656,131.8125 Q140.2656,128.6875 141.5781,127.0313 Q142.9063,125.375 145.4063,125.375 Q146.1094,125.375 146.75,125.5313 Q147.4063,125.6875 147.9688,125.9844 L147.9688,128.7031 Q147.3438,128.125 146.75,127.8594 Q146.1563,127.5781 145.5313,127.5781 Q144.1875,127.5781 143.5,128.6563 Q142.8125,129.7188 142.8125,131.8125 Q142.8125,133.9063 143.5,134.9844 Q144.1875,136.0469 145.5313,136.0469 Q146.1563,136.0469 146.75,135.7813 Q147.3438,135.5 147.9688,134.9219 L147.9688,137.6406 Z "/><text fill="#000000" font-family="sans-serif" font-size="12" lengthAdjust="spacingAndGlyphs" textLength="140" x="159" y="136.1543">ObjectMenuItemSpace</text><line style="stroke: #A80036; stroke-width: 1.5;" x1="131" x2="301" y1="148" y2="148"/><line style="stroke: #A80036; stroke-width: 1.5;" x1="131" x2="301" y1="156" y2="156"/><!--MD5=[ee783c3948724089dca92721bf277377]
class BaseMenuWindow--><rect fill="#FEFECE" filter="url(#fyuqp0cws9dto)" height="48" id="BaseMenuWindow" style="stroke: #A80036; stroke-width: 1.5;" width="144" x="144" y="8"/><ellipse cx="159" cy="24" fill="#ADD1B2" rx="11" ry="11" style="stroke: #A80036; stroke-width: 1.0;"/><path d="M161.9688,29.6406 Q161.3906,29.9375 160.75,30.0781 Q160.1094,30.2344 159.4063,30.2344 Q156.9063,30.2344 155.5781,28.5938 Q154.2656,26.9375 154.2656,23.8125 Q154.2656,20.6875 155.5781,19.0313 Q156.9063,17.375 159.4063,17.375 Q160.1094,17.375 160.75,17.5313 Q161.4063,17.6875 161.9688,17.9844 L161.9688,20.7031 Q161.3438,20.125 160.75,19.8594 Q160.1563,19.5781 159.5313,19.5781 Q158.1875,19.5781 157.5,20.6563 Q156.8125,21.7188 156.8125,23.8125 Q156.8125,25.9063 157.5,26.9844 Q158.1875,28.0469 159.5313,28.0469 Q160.1563,28.0469 160.75,27.7813 Q161.3438,27.5 161.9688,26.9219 L161.9688,29.6406 Z "/><text fill="#000000" font-family="sans-serif" font-size="12" lengthAdjust="spacingAndGlyphs" textLength="112" x="173" y="28.1543">BaseMenuWindow</text><line style="stroke: #A80036; stroke-width: 1.5;" x1="145" x2="287" y1="40" y2="40"/><line style="stroke: #A80036; stroke-width: 1.5;" x1="145" x2="287" y1="48" y2="48"/><!--MD5=[90ba54f54370e77ef24813dec6818fa3]
class Button--><rect fill="#FEFECE" filter="url(#fyuqp0cws9dto)" height="48" id="Button" style="stroke: #A80036; stroke-width: 1.5;" width="74" x="6" y="224"/><ellipse cx="21" cy="240" fill="#ADD1B2" rx="11" ry="11" style="stroke: #A80036; stroke-width: 1.0;"/><path d="M23.9688,245.6406 Q23.3906,245.9375 22.75,246.0781 Q22.1094,246.2344 21.4063,246.2344 Q18.9063,246.2344 17.5781,244.5938 Q16.2656,242.9375 16.2656,239.8125 Q16.2656,236.6875 17.5781,235.0313 Q18.9063,233.375 21.4063,233.375 Q22.1094,233.375 22.75,233.5313 Q23.4063,233.6875 23.9688,233.9844 L23.9688,236.7031 Q23.3438,236.125 22.75,235.8594 Q22.1563,235.5781 21.5313,235.5781 Q20.1875,235.5781 19.5,236.6563 Q18.8125,237.7188 18.8125,239.8125 Q18.8125,241.9063 19.5,242.9844 Q20.1875,244.0469 21.5313,244.0469 Q22.1563,244.0469 22.75,243.7813 Q23.3438,243.5 23.9688,242.9219 L23.9688,245.6406 Z "/><text fill="#000000" font-family="sans-serif" font-size="12" lengthAdjust="spacingAndGlyphs" textLength="42" x="35" y="244.1543">Button</text><line style="stroke: #A80036; stroke-width: 1.5;" x1="7" x2="79" y1="256" y2="256"/><line style="stroke: #A80036; stroke-width: 1.5;" x1="7" x2="79" y1="264" y2="264"/><!--MD5=[fa07864ef55e7d1943fa981e1ee9b4e7]
class TMP_Text--><rect fill="#FEFECE" filter="url(#fyuqp0cws9dto)" height="48" id="TMP_Text" style="stroke: #A80036; stroke-width: 1.5;" width="89" x="115.5" y="224"/><ellipse cx="130.5" cy="240" fill="#ADD1B2" rx="11" ry="11" style="stroke: #A80036; stroke-width: 1.0;"/><path d="M133.4688,245.6406 Q132.8906,245.9375 132.25,246.0781 Q131.6094,246.2344 130.9063,246.2344 Q128.4063,246.2344 127.0781,244.5938 Q125.7656,242.9375 125.7656,239.8125 Q125.7656,236.6875 127.0781,235.0313 Q128.4063,233.375 130.9063,233.375 Q131.6094,233.375 132.25,233.5313 Q132.9063,233.6875 133.4688,233.9844 L133.4688,236.7031 Q132.8438,236.125 132.25,235.8594 Q131.6563,235.5781 131.0313,235.5781 Q129.6875,235.5781 129,236.6563 Q128.3125,237.7188 128.3125,239.8125 Q128.3125,241.9063 129,242.9844 Q129.6875,244.0469 131.0313,244.0469 Q131.6563,244.0469 132.25,243.7813 Q132.8438,243.5 133.4688,242.9219 L133.4688,245.6406 Z "/><text fill="#000000" font-family="sans-serif" font-size="12" lengthAdjust="spacingAndGlyphs" textLength="57" x="144.5" y="244.1543">TMP_Text</text><line style="stroke: #A80036; stroke-width: 1.5;" x1="116.5" x2="203.5" y1="256" y2="256"/><line style="stroke: #A80036; stroke-width: 1.5;" x1="116.5" x2="203.5" y1="264" y2="264"/><!--MD5=[18eee71c88ab61f27581b8cbdd3ef5ee]
class Color--><rect fill="#FEFECE" filter="url(#fyuqp0cws9dto)" height="48" id="Color" style="stroke: #A80036; stroke-width: 1.5;" width="64" x="240" y="224"/><ellipse cx="255" cy="240" fill="#ADD1B2" rx="11" ry="11" style="stroke: #A80036; stroke-width: 1.0;"/><path d="M257.9688,245.6406 Q257.3906,245.9375 256.75,246.0781 Q256.1094,246.2344 255.4063,246.2344 Q252.9063,246.2344 251.5781,244.5938 Q250.2656,242.9375 250.2656,239.8125 Q250.2656,236.6875 251.5781,235.0313 Q252.9063,233.375 255.4063,233.375 Q256.1094,233.375 256.75,233.5313 Q257.4063,233.6875 257.9688,233.9844 L257.9688,236.7031 Q257.3438,236.125 256.75,235.8594 Q256.1563,235.5781 255.5313,235.5781 Q254.1875,235.5781 253.5,236.6563 Q252.8125,237.7188 252.8125,239.8125 Q252.8125,241.9063 253.5,242.9844 Q254.1875,244.0469 255.5313,244.0469 Q256.1563,244.0469 256.75,243.7813 Q257.3438,243.5 257.9688,242.9219 L257.9688,245.6406 Z "/><text fill="#000000" font-family="sans-serif" font-size="12" lengthAdjust="spacingAndGlyphs" textLength="32" x="269" y="244.1543">Color</text><line style="stroke: #A80036; stroke-width: 1.5;" x1="241" x2="303" y1="256" y2="256"/><line style="stroke: #A80036; stroke-width: 1.5;" x1="241" x2="303" y1="264" y2="264"/><!--MD5=[3e0b9ad2be96b105cff30e0e46c39a37]
reverse link BaseMenuWindow to ObjectMenuItemSpace--><path d="M216,76.02 C216,89.58 216,104.04 216,115.68 " fill="none" id="BaseMenuWindow&lt;-ObjectMenuItemSpace" style="stroke: #A80036; stroke-width: 1.0;"/><polygon fill="none" points="209,76,216,56,223,76,209,76" style="stroke: #A80036; stroke-width: 1.0;"/><!--MD5=[02cc0f100926505773a11960ed675ccf]
link ObjectMenuItemSpace to Button--><path d="M178.46,164 C150.82,180.94 113.24,203.96 84.67,221.47 " fill="none" id="ObjectMenuItemSpace-&gt;Button" style="stroke: #A80036; stroke-width: 1.0;"/><polygon fill="#A80036" points="80.17,224.23,89.9345,222.9435,84.4346,221.6199,85.7583,216.12,80.17,224.23" style="stroke: #A80036; stroke-width: 1.0;"/><text fill="#000000" font-family="sans-serif" font-size="13" lengthAdjust="spacingAndGlyphs" textLength="42" x="82.0882" y="213.0112">button</text><!--MD5=[f03b5209315ec2cb516e117a852e462a]
link ObjectMenuItemSpace to TMP_Text--><path d="M203.85,164 C195.32,180.14 183.87,201.82 174.81,218.97 " fill="none" id="ObjectMenuItemSpace-&gt;TMP_Text" style="stroke: #A80036; stroke-width: 1.0;"/><polygon fill="#A80036" points="172.32,223.68,180.0571,217.5859,174.6529,219.2576,172.9812,213.8534,172.32,223.68" style="stroke: #A80036; stroke-width: 1.0;"/><text fill="#000000" font-family="sans-serif" font-size="13" lengthAdjust="spacingAndGlyphs" textLength="25" x="147.2761" y="213.007">text</text><!--MD5=[4d40609b5e90650252503bde750ced04]
link ObjectMenuItemSpace to Color--><path d="M217.43,164 C223.55,180.28 234.92,202.19 246.08,219.41 " fill="none" id="ObjectMenuItemSpace-&gt;Color" style="stroke: #A80036; stroke-width: 1.0;"/><polygon fill="#A80036" points="248.9,223.68,247.2513,213.9701,246.1331,219.5154,240.5878,218.3972,248.9,223.68" style="stroke: #A80036; stroke-width: 1.0;"/><text fill="#000000" font-family="sans-serif" font-size="13" lengthAdjust="spacingAndGlyphs" textLength="71" x="190.845" y="212.9452">activeColor</text><!--MD5=[4d40609b5e90650252503bde750ced04]
link ObjectMenuItemSpace to Color--><path d="M239.51,164 C250.63,180.14 262.32,201.82 269.26,218.97 " fill="none" id="ObjectMenuItemSpace-&gt;Color-1" style="stroke: #A80036; stroke-width: 1.0;"/><polygon fill="#A80036" points="271.09,223.68,271.5502,213.8419,269.275,219.0211,264.0959,216.7459,271.09,223.68" style="stroke: #A80036; stroke-width: 1.0;"/><text fill="#000000" font-family="sans-serif" font-size="13" lengthAdjust="spacingAndGlyphs" textLength="78" x="280.3744" y="213.007">normalColor</text><!--MD5=[8921d8d82d0f6ba43c5867a5e01cb6e1]
@startuml
class ObjectMenuItemSpace {
}
BaseMenuWindow <|- - ObjectMenuItemSpace
ObjectMenuItemSpace - -> "button" Button
ObjectMenuItemSpace - -> "text" TMP_Text
ObjectMenuItemSpace - -> "activeColor" Color
ObjectMenuItemSpace - -> "normalColor" Color
@enduml

PlantUML version 1.2020.02(Sun Mar 01 10:22:07 GMT 2020)
(GPL source distribution)
Java Runtime: OpenJDK Runtime Environment
JVM: OpenJDK 64-Bit Server VM
Java Version: 11.0.9+11-Ubuntu-0ubuntu1
Operating System: Linux
Default Encoding: ANSI_X3.4-1968
Language: en
Country: US
--></g></svg>