<?xml version="1.0" encoding="UTF-8" standalone="no"?><svg xmlns="http://www.w3.org/2000/svg" xmlns:xlink="http://www.w3.org/1999/xlink" contentScriptType="application/ecmascript" contentStyleType="text/css" height="411px" preserveAspectRatio="none" style="width:867px;height:411px;" version="1.1" viewBox="0 0 867 411" width="867px" zoomAndPan="magnify"><defs><filter height="300%" id="f4r542oomddtt" width="300%" x="-1" y="-1"><feGaussianBlur result="blurOut" stdDeviation="2.0"/><feColorMatrix in="blurOut" result="blurOut2" type="matrix" values="0 0 0 0 0 0 0 0 0 0 0 0 0 0 0 0 0 0 .4 0"/><feOffset dx="4.0" dy="4.0" in="blurOut2" result="blurOut3"/><feBlend in="SourceGraphic" in2="blurOut3" mode="normal"/></filter></defs><g><!--MD5=[96883848da6aa3f105496dabad7d1d06]
class ObjectMenu--><rect fill="#FEFECE" filter="url(#f4r542oomddtt)" height="176.0469" id="ObjectMenu" style="stroke: #A80036; stroke-width: 1.5;" width="228" x="487.39" y="116"/><ellipse cx="560.14" cy="132" fill="#ADD1B2" rx="11" ry="11" style="stroke: #A80036; stroke-width: 1.0;"/><path d="M563.1088,137.6406 Q562.5306,137.9375 561.89,138.0781 Q561.2494,138.2344 560.5463,138.2344 Q558.0463,138.2344 556.7181,136.5938 Q555.4056,134.9375 555.4056,131.8125 Q555.4056,128.6875 556.7181,127.0313 Q558.0463,125.375 560.5463,125.375 Q561.2494,125.375 561.89,125.5313 Q562.5463,125.6875 563.1088,125.9844 L563.1088,128.7031 Q562.4838,128.125 561.89,127.8594 Q561.2963,127.5781 560.6713,127.5781 Q559.3275,127.5781 558.64,128.6563 Q557.9525,129.7188 557.9525,131.8125 Q557.9525,133.9063 558.64,134.9844 Q559.3275,136.0469 560.6713,136.0469 Q561.2963,136.0469 561.89,135.7813 Q562.4838,135.5 563.1088,134.9219 L563.1088,137.6406 Z "/><text fill="#000000" font-family="sans-serif" font-size="12" lengthAdjust="spacingAndGlyphs" textLength="74" x="580.64" y="136.1543">ObjectMenu</text><line style="stroke: #A80036; stroke-width: 1.5;" x1="488.39" x2="714.39" y1="148" y2="148"/><text fill="#000000" font-family="sans-serif" font-size="11" lengthAdjust="spacingAndGlyphs" textLength="152" x="493.39" y="162.2104">spaceBetweenItems : float</text><text fill="#000000" font-family="sans-serif" font-size="11" lengthAdjust="spacingAndGlyphs" textLength="130" x="493.39" y="175.0151">edgeWidthOffset : float</text><text fill="#000000" font-family="sans-serif" font-size="11" lengthAdjust="spacingAndGlyphs" textLength="136" x="493.39" y="187.8198">edgeHeightOffset : float</text><text fill="#000000" font-family="sans-serif" font-size="11" lengthAdjust="spacingAndGlyphs" textLength="122" x="493.39" y="200.6245">maxItemsInARow : int</text><text fill="#000000" font-family="sans-serif" font-size="11" lengthAdjust="spacingAndGlyphs" textLength="142" x="493.39" y="213.4292">currentCategory : int = 0</text><text fill="#000000" font-family="sans-serif" font-size="11" lengthAdjust="spacingAndGlyphs" textLength="103" x="493.39" y="226.2339">navigator : int = 0</text><line style="stroke: #A80036; stroke-width: 1.5;" x1="488.39" x2="714.39" y1="232.8281" y2="232.8281"/><ellipse cx="498.39" cy="243.8281" fill="#84BE84" rx="3" ry="3" style="stroke: #038048; stroke-width: 1.0;"/><text fill="#000000" font-family="sans-serif" font-size="11" lengthAdjust="spacingAndGlyphs" textLength="164" x="507.39" y="247.0386">«override» OnUpdate() : void</text><text fill="#000000" font-family="sans-serif" font-size="11" lengthAdjust="spacingAndGlyphs" textLength="135" x="507.39" y="259.8433">UpdateSizeDelta() : void</text><text fill="#000000" font-family="sans-serif" font-size="11" lengthAdjust="spacingAndGlyphs" textLength="164" x="507.39" y="272.6479">CreateCategoryItems() : void</text><ellipse cx="498.39" cy="282.2422" fill="#84BE84" rx="3" ry="3" style="stroke: #038048; stroke-width: 1.0;"/><text fill="#000000" font-family="sans-serif" font-size="11" lengthAdjust="spacingAndGlyphs" textLength="202" x="507.39" y="285.4526">DisplayCategory(category:int) : void</text><!--MD5=[a96594a83e2ecdc78cbf17c2ddf01934]
class Category--><rect fill="#FEFECE" filter="url(#f4r542oomddtt)" height="66.7422" id="Category" style="stroke: #A80036; stroke-width: 1.5;" width="103" x="201.89" y="170.5"/><ellipse cx="223.64" cy="189.4688" fill="#ADD1B2" rx="11" ry="11" style="stroke: #A80036; stroke-width: 1.0;"/><path d="M226.6088,195.1094 Q226.0306,195.4063 225.39,195.5469 Q224.7494,195.7031 224.0463,195.7031 Q221.5463,195.7031 220.2181,194.0625 Q218.9056,192.4063 218.9056,189.2813 Q218.9056,186.1563 220.2181,184.5 Q221.5463,182.8438 224.0463,182.8438 Q224.7494,182.8438 225.39,183 Q226.0463,183.1563 226.6088,183.4531 L226.6088,186.1719 Q225.9838,185.5938 225.39,185.3281 Q224.7963,185.0469 224.1713,185.0469 Q222.8275,185.0469 222.14,186.125 Q221.4525,187.1875 221.4525,189.2813 Q221.4525,191.375 222.14,192.4531 Q222.8275,193.5156 224.1713,193.5156 Q224.7963,193.5156 225.39,193.25 Q225.9838,192.9688 226.6088,192.3906 L226.6088,195.1094 Z "/><text fill="#000000" font-family="sans-serif" font-size="12" font-style="italic" lengthAdjust="spacingAndGlyphs" textLength="50" x="242.14" y="186.6387">«struct»</text><text fill="#000000" font-family="sans-serif" font-size="12" lengthAdjust="spacingAndGlyphs" textLength="56" x="239.14" y="200.6074">Category</text><line style="stroke: #A80036; stroke-width: 1.5;" x1="202.89" x2="303.89" y1="208.4375" y2="208.4375"/><ellipse cx="212.89" cy="219.4375" fill="none" rx="3" ry="3" style="stroke: #038048; stroke-width: 1.0;"/><text fill="#000000" font-family="sans-serif" font-size="11" lengthAdjust="spacingAndGlyphs" textLength="77" x="221.89" y="222.6479">name : string</text><line style="stroke: #A80036; stroke-width: 1.5;" x1="202.89" x2="303.89" y1="229.2422" y2="229.2422"/><!--MD5=[e644022de7dea015dd09463c37421447]
class List`1--><rect fill="#FEFECE" filter="url(#f4r542oomddtt)" height="48" id="List`1" style="stroke: #A80036; stroke-width: 1.5;" width="78" x="214.39" y="352"/><ellipse cx="229.39" cy="368" fill="#ADD1B2" rx="11" ry="11" style="stroke: #A80036; stroke-width: 1.0;"/><path d="M232.3588,373.6406 Q231.7806,373.9375 231.14,374.0781 Q230.4994,374.2344 229.7963,374.2344 Q227.2963,374.2344 225.9681,372.5938 Q224.6556,370.9375 224.6556,367.8125 Q224.6556,364.6875 225.9681,363.0313 Q227.2963,361.375 229.7963,361.375 Q230.4994,361.375 231.14,361.5313 Q231.7963,361.6875 232.3588,361.9844 L232.3588,364.7031 Q231.7338,364.125 231.14,363.8594 Q230.5463,363.5781 229.9213,363.5781 Q228.5775,363.5781 227.89,364.6563 Q227.2025,365.7188 227.2025,367.8125 Q227.2025,369.9063 227.89,370.9844 Q228.5775,372.0469 229.9213,372.0469 Q230.5463,372.0469 231.14,371.7813 Q231.7338,371.5 232.3588,370.9219 L232.3588,373.6406 Z "/><text fill="#000000" font-family="sans-serif" font-size="12" lengthAdjust="spacingAndGlyphs" textLength="35" x="243.39" y="372.1543">List`1</text><rect fill="#FFFFFF" height="15.9688" style="stroke: #000000; stroke-width: 1.0; stroke-dasharray: 2.0,2.0;" width="9" x="286.39" y="349"/><text fill="#000000" font-family="sans-serif" font-size="12" font-style="italic" lengthAdjust="spacingAndGlyphs" textLength="7" x="287.39" y="361.1387">T</text><line style="stroke: #A80036; stroke-width: 1.5;" x1="215.39" x2="291.39" y1="384" y2="384"/><line style="stroke: #A80036; stroke-width: 1.5;" x1="215.39" x2="291.39" y1="392" y2="392"/><!--MD5=[ee783c3948724089dca92721bf277377]
class BaseMenuWindow--><rect fill="#FEFECE" filter="url(#f4r542oomddtt)" height="48" id="BaseMenuWindow" style="stroke: #A80036; stroke-width: 1.5;" width="144" x="529.39" y="8"/><ellipse cx="544.39" cy="24" fill="#ADD1B2" rx="11" ry="11" style="stroke: #A80036; stroke-width: 1.0;"/><path d="M547.3588,29.6406 Q546.7806,29.9375 546.14,30.0781 Q545.4994,30.2344 544.7963,30.2344 Q542.2963,30.2344 540.9681,28.5938 Q539.6556,26.9375 539.6556,23.8125 Q539.6556,20.6875 540.9681,19.0313 Q542.2963,17.375 544.7963,17.375 Q545.4994,17.375 546.14,17.5313 Q546.7963,17.6875 547.3588,17.9844 L547.3588,20.7031 Q546.7338,20.125 546.14,19.8594 Q545.5463,19.5781 544.9213,19.5781 Q543.5775,19.5781 542.89,20.6563 Q542.2025,21.7188 542.2025,23.8125 Q542.2025,25.9063 542.89,26.9844 Q543.5775,28.0469 544.9213,28.0469 Q545.5463,28.0469 546.14,27.7813 Q546.7338,27.5 547.3588,26.9219 L547.3588,29.6406 Z "/><text fill="#000000" font-family="sans-serif" font-size="12" lengthAdjust="spacingAndGlyphs" textLength="112" x="558.39" y="28.1543">BaseMenuWindow</text><line style="stroke: #A80036; stroke-width: 1.5;" x1="530.39" x2="672.39" y1="40" y2="40"/><line style="stroke: #A80036; stroke-width: 1.5;" x1="530.39" x2="672.39" y1="48" y2="48"/><!--MD5=[8a812d0dd31a9fb8d3c98439112d47f8]
class ObjectMenuItemSpace--><rect fill="#FEFECE" filter="url(#f4r542oomddtt)" height="48" id="ObjectMenuItemSpace" style="stroke: #A80036; stroke-width: 1.5;" width="172" x="327.39" y="352"/><ellipse cx="342.39" cy="368" fill="#ADD1B2" rx="11" ry="11" style="stroke: #A80036; stroke-width: 1.0;"/><path d="M345.3588,373.6406 Q344.7806,373.9375 344.14,374.0781 Q343.4994,374.2344 342.7963,374.2344 Q340.2963,374.2344 338.9681,372.5938 Q337.6556,370.9375 337.6556,367.8125 Q337.6556,364.6875 338.9681,363.0313 Q340.2963,361.375 342.7963,361.375 Q343.4994,361.375 344.14,361.5313 Q344.7963,361.6875 345.3588,361.9844 L345.3588,364.7031 Q344.7338,364.125 344.14,363.8594 Q343.5463,363.5781 342.9213,363.5781 Q341.5775,363.5781 340.89,364.6563 Q340.2025,365.7188 340.2025,367.8125 Q340.2025,369.9063 340.89,370.9844 Q341.5775,372.0469 342.9213,372.0469 Q343.5463,372.0469 344.14,371.7813 Q344.7338,371.5 345.3588,370.9219 L345.3588,373.6406 Z "/><text fill="#000000" font-family="sans-serif" font-size="12" lengthAdjust="spacingAndGlyphs" textLength="140" x="356.39" y="372.1543">ObjectMenuItemSpace</text><line style="stroke: #A80036; stroke-width: 1.5;" x1="328.39" x2="498.39" y1="384" y2="384"/><line style="stroke: #A80036; stroke-width: 1.5;" x1="328.39" x2="498.39" y1="392" y2="392"/><!--MD5=[47f9f6bfe5cfd9169913797a39737c41]
class InputCommands--><rect fill="#FEFECE" filter="url(#f4r542oomddtt)" height="48" id="InputCommands" style="stroke: #A80036; stroke-width: 1.5;" width="133" x="534.89" y="352"/><ellipse cx="549.89" cy="368" fill="#ADD1B2" rx="11" ry="11" style="stroke: #A80036; stroke-width: 1.0;"/><path d="M552.8588,373.6406 Q552.2806,373.9375 551.64,374.0781 Q550.9994,374.2344 550.2963,374.2344 Q547.7963,374.2344 546.4681,372.5938 Q545.1556,370.9375 545.1556,367.8125 Q545.1556,364.6875 546.4681,363.0313 Q547.7963,361.375 550.2963,361.375 Q550.9994,361.375 551.64,361.5313 Q552.2963,361.6875 552.8588,361.9844 L552.8588,364.7031 Q552.2338,364.125 551.64,363.8594 Q551.0463,363.5781 550.4213,363.5781 Q549.0775,363.5781 548.39,364.6563 Q547.7025,365.7188 547.7025,367.8125 Q547.7025,369.9063 548.39,370.9844 Q549.0775,372.0469 550.4213,372.0469 Q551.0463,372.0469 551.64,371.7813 Q552.2338,371.5 552.8588,370.9219 L552.8588,373.6406 Z "/><text fill="#000000" font-family="sans-serif" font-size="12" lengthAdjust="spacingAndGlyphs" textLength="101" x="563.89" y="372.1543">InputCommands</text><line style="stroke: #A80036; stroke-width: 1.5;" x1="535.89" x2="666.89" y1="384" y2="384"/><line style="stroke: #A80036; stroke-width: 1.5;" x1="535.89" x2="666.89" y1="392" y2="392"/><!--MD5=[004b1d6c4ca8aad4ba8b586a335ed4f3]
class Transform--><rect fill="#FEFECE" filter="url(#f4r542oomddtt)" height="48" id="Transform" style="stroke: #A80036; stroke-width: 1.5;" width="95" x="702.89" y="352"/><ellipse cx="717.89" cy="368" fill="#ADD1B2" rx="11" ry="11" style="stroke: #A80036; stroke-width: 1.0;"/><path d="M720.8588,373.6406 Q720.2806,373.9375 719.64,374.0781 Q718.9994,374.2344 718.2963,374.2344 Q715.7963,374.2344 714.4681,372.5938 Q713.1556,370.9375 713.1556,367.8125 Q713.1556,364.6875 714.4681,363.0313 Q715.7963,361.375 718.2963,361.375 Q718.9994,361.375 719.64,361.5313 Q720.2963,361.6875 720.8588,361.9844 L720.8588,364.7031 Q720.2338,364.125 719.64,363.8594 Q719.0463,363.5781 718.4213,363.5781 Q717.0775,363.5781 716.39,364.6563 Q715.7025,365.7188 715.7025,367.8125 Q715.7025,369.9063 716.39,370.9844 Q717.0775,372.0469 718.4213,372.0469 Q719.0463,372.0469 719.64,371.7813 Q720.2338,371.5 720.8588,370.9219 L720.8588,373.6406 Z "/><text fill="#000000" font-family="sans-serif" font-size="12" lengthAdjust="spacingAndGlyphs" textLength="63" x="731.89" y="372.1543">Transform</text><line style="stroke: #A80036; stroke-width: 1.5;" x1="703.89" x2="796.89" y1="384" y2="384"/><line style="stroke: #A80036; stroke-width: 1.5;" x1="703.89" x2="796.89" y1="392" y2="392"/><!--MD5=[cae509e57efc332b81385466a2c5d8bf]
reverse link BaseMenuWindow to ObjectMenu--><path d="M601.39,76.71 C601.39,88.77 601.39,102.3 601.39,115.9 " fill="none" id="BaseMenuWindow&lt;-ObjectMenu" style="stroke: #A80036; stroke-width: 1.0;"/><polygon fill="none" points="594.39,76.28,601.39,56.28,608.39,76.28,594.39,76.28" style="stroke: #A80036; stroke-width: 1.0;"/><!--MD5=[b893fa4e701509b4caf4dccd975cc056]
link ObjectMenu to ObjectMenuItemSpace--><path d="M492.16,292.24 C469.8,312.53 448.59,332.65 433.65,347.97 " fill="none" id="ObjectMenu-&gt;ObjectMenuItemSpace" style="stroke: #A80036; stroke-width: 1.0;"/><polygon fill="#A80036" points="429.99,351.76,439.1166,348.0579,433.4607,348.1608,433.3578,342.5049,429.99,351.76" style="stroke: #A80036; stroke-width: 1.0;"/><text fill="#000000" font-family="sans-serif" font-size="13" lengthAdjust="spacingAndGlyphs" textLength="184" x="266.3545" y="340.9218">objectMenuItemSpacePrefab</text><!--MD5=[b893fa4e701509b4caf4dccd975cc056]
link ObjectMenu to ObjectMenuItemSpace--><path d="M518.41,292.24 C495.7,312.7 472.14,333 452.98,348.36 " fill="none" id="ObjectMenu-&gt;ObjectMenuItemSpace-1" style="stroke: #A80036; stroke-width: 1.0;"/><polygon fill="#A80036" points="448.71,351.76,458.2433,349.2867,452.6227,348.647,453.2624,343.0264,448.71,351.76" style="stroke: #A80036; stroke-width: 1.0;"/><text fill="#000000" font-family="sans-serif" font-size="13" lengthAdjust="spacingAndGlyphs" textLength="140" x="474.1145" y="340.9218">categoryButtonPrefab</text><!--MD5=[6bfd5a55e0d4128bf8ad96b6cea735b6]
link ObjectMenu to InputCommands--><path d="M601.39,292.49 C601.39,312.05 601.39,331.44 601.39,346.5 " fill="none" id="ObjectMenu-&gt;InputCommands" style="stroke: #A80036; stroke-width: 1.0;"/><polygon fill="#A80036" points="601.39,351.85,605.39,342.85,601.39,346.85,597.39,342.85,601.39,351.85" style="stroke: #A80036; stroke-width: 1.0;"/><text fill="#000000" font-family="sans-serif" font-size="13" lengthAdjust="spacingAndGlyphs" textLength="106" x="614.9712" y="340.8236">inputCommands</text><!--MD5=[1bdecd30fbc69b1fea9be288854c320a]
link ObjectMenu to Transform--><path d="M665.33,292.49 C683.15,312.74 701.78,332.8 717.18,348.07 " fill="none" id="ObjectMenu-&gt;Transform" style="stroke: #A80036; stroke-width: 1.0;"/><polygon fill="#A80036" points="721.02,351.85,717.3918,342.6938,717.4489,348.3504,711.7924,348.4075,721.02,351.85" style="stroke: #A80036; stroke-width: 1.0;"/><text fill="#000000" font-family="sans-serif" font-size="13" lengthAdjust="spacingAndGlyphs" textLength="126" x="729.6377" y="340.8236">objectListTransform</text><!--MD5=[1bdecd30fbc69b1fea9be288854c320a]
link ObjectMenu to Transform--><path d="M691.57,292.49 C709.08,312.57 725.43,332.46 736.68,347.68 " fill="none" id="ObjectMenu-&gt;Transform-1" style="stroke: #A80036; stroke-width: 1.0;"/><polygon fill="#A80036" points="739.71,351.85,737.6474,342.2196,736.7674,347.8076,731.1794,346.9276,739.71,351.85" style="stroke: #A80036; stroke-width: 1.0;"/><text fill="#000000" font-family="sans-serif" font-size="13" lengthAdjust="spacingAndGlyphs" textLength="71" x="628.2252" y="341.0076">spawnPivot</text><!--MD5=[aed9812cd13fde6a7a28e04572852d42]
link Category to List`1--><path d="M243.08,237.78 C239.65,269.43 239.83,316.85 243.62,346.84 " fill="none" id="Category-&gt;List`1" style="stroke: #A80036; stroke-width: 1.0;"/><polygon fill="#A80036" points="244.31,351.86,247.0353,342.3957,243.6229,346.9074,239.1112,343.495,244.31,351.86" style="stroke: #A80036; stroke-width: 1.0;"/><text fill="#000000" font-family="sans-serif" font-size="13" lengthAdjust="spacingAndGlyphs" textLength="87" x="143.8364" y="340.8362">items&lt;Item&gt;</text><!--MD5=[aed9812cd13fde6a7a28e04572852d42]
link Category to List`1--><path d="M264.31,237.78 C267.93,269.43 267.74,316.85 263.73,346.84 " fill="none" id="Category-&gt;List`1-1" style="stroke: #A80036; stroke-width: 1.0;"/><polygon fill="#A80036" points="263,351.86,268.2697,343.5395,263.7291,346.9134,260.3552,342.3729,263,351.86" style="stroke: #A80036; stroke-width: 1.0;"/><text fill="#000000" font-family="sans-serif" font-size="13" lengthAdjust="spacingAndGlyphs" textLength="242" x="-36.0874" y="355.4329">parentObjectTransforms&lt;Transform&gt;</text><!--MD5=[9a44a7ef9a6bcc026a16f4040e3c998a]
link Category to ObjectMenuItemSpace--><path d="M284.24,237.78 C314.4,269.82 359.77,318.02 387.93,347.95 " fill="none" id="Category-&gt;ObjectMenuItemSpace" style="stroke: #A80036; stroke-width: 1.0;"/><polygon fill="#A80036" points="391.61,351.86,388.3545,342.5647,388.1832,348.219,382.5289,348.0477,391.61,351.86" style="stroke: #A80036; stroke-width: 1.0;"/><text fill="#000000" font-family="sans-serif" font-size="13" lengthAdjust="spacingAndGlyphs" textLength="42" x="391.4101" y="340.8362">button</text><!--MD5=[97dc9befb7a8da1d59f43cf71a70ddcb]
@startuml
class ObjectMenu {
    spaceBetweenItems : float
    edgeWidthOffset : float
    edgeHeightOffset : float
    maxItemsInARow : int
    currentCategory : int = 0
    navigator : int = 0
    + <<override>> OnUpdate() : void
    UpdateSizeDelta() : void
    CreateCategoryItems() : void
    + DisplayCategory(category:int) : void
}
class Category <<struct>> {
    + name : string
}
class "List`1"<T> {
}
BaseMenuWindow <|- - ObjectMenu
ObjectMenu - -> "objectMenuItemSpacePrefab" ObjectMenuItemSpace
ObjectMenu - -> "categoryButtonPrefab" ObjectMenuItemSpace
ObjectMenu - -> "inputCommands" InputCommands
ObjectMenu - -> "objectListTransform" Transform
ObjectMenu - -> "spawnPivot" Transform
Category - -> "items<Item>" "List`1"
Category - -> "parentObjectTransforms<Transform>" "List`1"
Category - -> "button" ObjectMenuItemSpace
@enduml

PlantUML version 1.2020.02(Sun Mar 01 10:22:07 GMT 2020)
(GPL source distribution)
Java Runtime: OpenJDK Runtime Environment
JVM: OpenJDK 64-Bit Server VM
Java Version: 11.0.9+11-Ubuntu-0ubuntu1
Operating System: Linux
Default Encoding: ANSI_X3.4-1968
Language: en
Country: US
--></g></svg>