<?xml version="1.0" encoding="UTF-8" standalone="no"?><svg xmlns="http://www.w3.org/2000/svg" xmlns:xlink="http://www.w3.org/1999/xlink" contentScriptType="application/ecmascript" contentStyleType="text/css" height="309px" preserveAspectRatio="none" style="width:168px;height:309px;" version="1.1" viewBox="0 0 168 309" width="168px" zoomAndPan="magnify"><defs><filter height="300%" id="fcyyw9yza2r1l" width="300%" x="-1" y="-1"><feGaussianBlur result="blurOut" stdDeviation="2.0"/><feColorMatrix in="blurOut" result="blurOut2" type="matrix" values="0 0 0 0 0 0 0 0 0 0 0 0 0 0 0 0 0 0 .4 0"/><feOffset dx="4.0" dy="4.0" in="blurOut2" result="blurOut3"/><feBlend in="SourceGraphic" in2="blurOut3" mode="normal"/></filter></defs><g><!--MD5=[16964636f5ffd87d538034900565021c]
class UIListener--><rect fill="#FEFECE" filter="url(#fcyyw9yza2r1l)" height="73.6094" id="UIListener" style="stroke: #A80036; stroke-width: 1.5;" width="151" x="6" y="116"/><ellipse cx="46.65" cy="132" fill="#ADD1B2" rx="11" ry="11" style="stroke: #A80036; stroke-width: 1.0;"/><path d="M49.6188,137.6406 Q49.0406,137.9375 48.4,138.0781 Q47.7594,138.2344 47.0563,138.2344 Q44.5563,138.2344 43.2281,136.5938 Q41.9156,134.9375 41.9156,131.8125 Q41.9156,128.6875 43.2281,127.0313 Q44.5563,125.375 47.0563,125.375 Q47.7594,125.375 48.4,125.5313 Q49.0563,125.6875 49.6188,125.9844 L49.6188,128.7031 Q48.9938,128.125 48.4,127.8594 Q47.8063,127.5781 47.1813,127.5781 Q45.8375,127.5781 45.15,128.6563 Q44.4625,129.7188 44.4625,131.8125 Q44.4625,133.9063 45.15,134.9844 Q45.8375,136.0469 47.1813,136.0469 Q47.8063,136.0469 48.4,135.7813 Q48.9938,135.5 49.6188,134.9219 L49.6188,137.6406 Z "/><text fill="#000000" font-family="sans-serif" font-size="12" lengthAdjust="spacingAndGlyphs" textLength="62" x="66.35" y="136.1543">UIListener</text><line style="stroke: #A80036; stroke-width: 1.5;" x1="7" x2="156" y1="148" y2="148"/><line style="stroke: #A80036; stroke-width: 1.5;" x1="7" x2="156" y1="156" y2="156"/><ellipse cx="17" cy="167" fill="#84BE84" rx="3" ry="3" style="stroke: #038048; stroke-width: 1.0;"/><text fill="#000000" font-family="sans-serif" font-size="11" lengthAdjust="spacingAndGlyphs" textLength="125" x="26" y="170.2104">InvokeListener() : void</text><ellipse cx="17" cy="179.8047" fill="#84BE84" rx="3" ry="3" style="stroke: #038048; stroke-width: 1.0;"/><text fill="#000000" font-family="sans-serif" font-size="11" lengthAdjust="spacingAndGlyphs" textLength="119" x="26" y="183.0151">ClearListener() : void</text><!--MD5=[83b3cf3d23d77c6f1e1b5291a241bc2a]
class MonoBehaviour--><rect fill="#FEFECE" filter="url(#fcyyw9yza2r1l)" height="48" id="MonoBehaviour" style="stroke: #A80036; stroke-width: 1.5;" width="128" x="17.5" y="8"/><ellipse cx="32.5" cy="24" fill="#ADD1B2" rx="11" ry="11" style="stroke: #A80036; stroke-width: 1.0;"/><path d="M35.4688,29.6406 Q34.8906,29.9375 34.25,30.0781 Q33.6094,30.2344 32.9063,30.2344 Q30.4063,30.2344 29.0781,28.5938 Q27.7656,26.9375 27.7656,23.8125 Q27.7656,20.6875 29.0781,19.0313 Q30.4063,17.375 32.9063,17.375 Q33.6094,17.375 34.25,17.5313 Q34.9063,17.6875 35.4688,17.9844 L35.4688,20.7031 Q34.8438,20.125 34.25,19.8594 Q33.6563,19.5781 33.0313,19.5781 Q31.6875,19.5781 31,20.6563 Q30.3125,21.7188 30.3125,23.8125 Q30.3125,25.9063 31,26.9844 Q31.6875,28.0469 33.0313,28.0469 Q33.6563,28.0469 34.25,27.7813 Q34.8438,27.5 35.4688,26.9219 L35.4688,29.6406 Z "/><text fill="#000000" font-family="sans-serif" font-size="12" lengthAdjust="spacingAndGlyphs" textLength="96" x="46.5" y="28.1543">MonoBehaviour</text><line style="stroke: #A80036; stroke-width: 1.5;" x1="18.5" x2="144.5" y1="40" y2="40"/><line style="stroke: #A80036; stroke-width: 1.5;" x1="18.5" x2="144.5" y1="48" y2="48"/><!--MD5=[f8e7078f77c005d15b486c0c98deb1e6]
class Action--><rect fill="#FEFECE" filter="url(#fcyyw9yza2r1l)" height="48" id="Action" style="stroke: #A80036; stroke-width: 1.5;" width="71" x="46" y="250"/><ellipse cx="61" cy="266" fill="#ADD1B2" rx="11" ry="11" style="stroke: #A80036; stroke-width: 1.0;"/><path d="M63.9688,271.6406 Q63.3906,271.9375 62.75,272.0781 Q62.1094,272.2344 61.4063,272.2344 Q58.9063,272.2344 57.5781,270.5938 Q56.2656,268.9375 56.2656,265.8125 Q56.2656,262.6875 57.5781,261.0313 Q58.9063,259.375 61.4063,259.375 Q62.1094,259.375 62.75,259.5313 Q63.4063,259.6875 63.9688,259.9844 L63.9688,262.7031 Q63.3438,262.125 62.75,261.8594 Q62.1563,261.5781 61.5313,261.5781 Q60.1875,261.5781 59.5,262.6563 Q58.8125,263.7188 58.8125,265.8125 Q58.8125,267.9063 59.5,268.9844 Q60.1875,270.0469 61.5313,270.0469 Q62.1563,270.0469 62.75,269.7813 Q63.3438,269.5 63.9688,268.9219 L63.9688,271.6406 Z "/><text fill="#000000" font-family="sans-serif" font-size="12" lengthAdjust="spacingAndGlyphs" textLength="39" x="75" y="270.1543">Action</text><line style="stroke: #A80036; stroke-width: 1.5;" x1="47" x2="116" y1="282" y2="282"/><line style="stroke: #A80036; stroke-width: 1.5;" x1="47" x2="116" y1="290" y2="290"/><!--MD5=[ae3d25031a6d018ee7e0186563966285]
reverse link MonoBehaviour to UIListener--><path d="M81.5,76.43 C81.5,89.33 81.5,103.32 81.5,115.71 " fill="none" id="MonoBehaviour&lt;-UIListener" style="stroke: #A80036; stroke-width: 1.0;"/><polygon fill="none" points="74.5,76.23,81.5,56.23,88.5,76.23,74.5,76.23" style="stroke: #A80036; stroke-width: 1.0;"/><!--MD5=[8fba47ac6b040197a27c64c9d8989a8f]
link UIListener to Action--><path d="M81.5,190.03 C81.5,207.48 81.5,228.15 81.5,244.49 " fill="none" id="UIListener-&gt;Action" style="stroke: #A80036; stroke-width: 1.0;"/><polygon fill="#A80036" points="81.5,249.85,85.5,240.85,81.5,244.85,77.5,240.85,81.5,249.85" style="stroke: #A80036; stroke-width: 1.0;"/><text fill="#000000" font-family="sans-serif" font-size="13" lengthAdjust="spacingAndGlyphs" textLength="47" x="28.4781" y="238.8236">listener</text><!--MD5=[abfc75a7d46bf4fcbe4a13dc39d201ef]
@startuml
class UIListener {
    + InvokeListener() : void
    + ClearListener() : void
}
MonoBehaviour <|- - UIListener
UIListener - -> "listener" Action
@enduml

PlantUML version 1.2020.02(Sun Mar 01 10:22:07 GMT 2020)
(GPL source distribution)
Java Runtime: OpenJDK Runtime Environment
JVM: OpenJDK 64-Bit Server VM
Java Version: 11.0.9+11-Ubuntu-0ubuntu1
Operating System: Linux
Default Encoding: ANSI_X3.4-1968
Language: en
Country: US
--></g></svg>