<?xml version="1.0" encoding="UTF-8" standalone="no"?><svg xmlns="http://www.w3.org/2000/svg" xmlns:xlink="http://www.w3.org/1999/xlink" contentScriptType="application/ecmascript" contentStyleType="text/css" height="360px" preserveAspectRatio="none" style="width:530px;height:360px;" version="1.1" viewBox="0 0 530 360" width="530px" zoomAndPan="magnify"><defs><filter height="300%" id="fqu46riodws4b" width="300%" x="-1" y="-1"><feGaussianBlur result="blurOut" stdDeviation="2.0"/><feColorMatrix in="blurOut" result="blurOut2" type="matrix" values="0 0 0 0 0 0 0 0 0 0 0 0 0 0 0 0 0 0 .4 0"/><feOffset dx="4.0" dy="4.0" in="blurOut2" result="blurOut3"/><feBlend in="SourceGraphic" in2="blurOut3" mode="normal"/></filter></defs><g><!--MD5=[9cbd1ce9e42482ebd3bdc4a28ac74627]
class CreateGridTileCommand--><rect fill="#FEFECE" filter="url(#fqu46riodws4b)" height="124.8281" id="CreateGridTileCommand" style="stroke: #A80036; stroke-width: 1.5;" width="237" x="125.33" y="116"/><ellipse cx="165.08" cy="132" fill="#ADD1B2" rx="11" ry="11" style="stroke: #A80036; stroke-width: 1.0;"/><path d="M168.0487,137.6406 Q167.4706,137.9375 166.83,138.0781 Q166.1894,138.2344 165.4862,138.2344 Q162.9862,138.2344 161.6581,136.5938 Q160.3456,134.9375 160.3456,131.8125 Q160.3456,128.6875 161.6581,127.0313 Q162.9862,125.375 165.4862,125.375 Q166.1894,125.375 166.83,125.5313 Q167.4862,125.6875 168.0487,125.9844 L168.0487,128.7031 Q167.4237,128.125 166.83,127.8594 Q166.2362,127.5781 165.6112,127.5781 Q164.2675,127.5781 163.58,128.6563 Q162.8925,129.7188 162.8925,131.8125 Q162.8925,133.9063 163.58,134.9844 Q164.2675,136.0469 165.6112,136.0469 Q166.2362,136.0469 166.83,135.7813 Q167.4237,135.5 168.0487,134.9219 L168.0487,137.6406 Z "/><text fill="#000000" font-family="sans-serif" font-size="12" lengthAdjust="spacingAndGlyphs" textLength="150" x="184.58" y="136.1543">CreateGridTileCommand</text><line style="stroke: #A80036; stroke-width: 1.5;" x1="126.33" x2="361.33" y1="148" y2="148"/><line style="stroke: #A80036; stroke-width: 1.5;" x1="126.33" x2="361.33" y1="156" y2="156"/><ellipse cx="136.33" cy="167" fill="#84BE84" rx="3" ry="3" style="stroke: #038048; stroke-width: 1.0;"/><text fill="#000000" font-family="sans-serif" font-size="11" lengthAdjust="spacingAndGlyphs" textLength="152" x="145.33" y="170.2104">«override» Execute() : void</text><ellipse cx="136.33" cy="179.8047" fill="#84BE84" rx="3" ry="3" style="stroke: #038048; stroke-width: 1.0;"/><text fill="#000000" font-family="sans-serif" font-size="11" lengthAdjust="spacingAndGlyphs" textLength="137" x="145.33" y="183.0151">«override» Undo() : void</text><ellipse cx="136.33" cy="192.6094" fill="#84BE84" rx="3" ry="3" style="stroke: #038048; stroke-width: 1.0;"/><text fill="#000000" font-family="sans-serif" font-size="11" lengthAdjust="spacingAndGlyphs" textLength="136" x="145.33" y="195.8198">«override» Redo() : void</text><ellipse cx="136.33" cy="205.4141" fill="#84BE84" rx="3" ry="3" style="stroke: #038048; stroke-width: 1.0;"/><text fill="#000000" font-family="sans-serif" font-size="11" lengthAdjust="spacingAndGlyphs" textLength="192" x="145.33" y="208.6245">«override» ClearFirstUndo() : void</text><ellipse cx="136.33" cy="218.2188" fill="#84BE84" rx="3" ry="3" style="stroke: #038048; stroke-width: 1.0;"/><text fill="#000000" font-family="sans-serif" font-size="11" lengthAdjust="spacingAndGlyphs" textLength="166" x="145.33" y="221.4292">«override» ClearRedo() : void</text><ellipse cx="136.33" cy="231.0234" fill="#84BE84" rx="3" ry="3" style="stroke: #038048; stroke-width: 1.0;"/><text fill="#000000" font-family="sans-serif" font-size="11" lengthAdjust="spacingAndGlyphs" textLength="211" x="145.33" y="234.2339">InitializeTiles(tiles:GridObject[]) : void</text><!--MD5=[500abf91d043834fcdd772523ff9273e]
class Stack`1--><rect fill="#FEFECE" filter="url(#fqu46riodws4b)" height="48" id="Stack`1" style="stroke: #A80036; stroke-width: 1.5;" width="92" x="127.83" y="301"/><ellipse cx="142.83" cy="317" fill="#ADD1B2" rx="11" ry="11" style="stroke: #A80036; stroke-width: 1.0;"/><path d="M145.7987,322.6406 Q145.2206,322.9375 144.58,323.0781 Q143.9394,323.2344 143.2362,323.2344 Q140.7362,323.2344 139.4081,321.5938 Q138.0956,319.9375 138.0956,316.8125 Q138.0956,313.6875 139.4081,312.0313 Q140.7362,310.375 143.2362,310.375 Q143.9394,310.375 144.58,310.5313 Q145.2362,310.6875 145.7987,310.9844 L145.7987,313.7031 Q145.1737,313.125 144.58,312.8594 Q143.9862,312.5781 143.3612,312.5781 Q142.0175,312.5781 141.33,313.6563 Q140.6425,314.7188 140.6425,316.8125 Q140.6425,318.9063 141.33,319.9844 Q142.0175,321.0469 143.3612,321.0469 Q143.9862,321.0469 144.58,320.7813 Q145.1737,320.5 145.7987,319.9219 L145.7987,322.6406 Z "/><text fill="#000000" font-family="sans-serif" font-size="12" lengthAdjust="spacingAndGlyphs" textLength="49" x="156.83" y="321.1543">Stack`1</text><rect fill="#FFFFFF" height="15.9688" style="stroke: #000000; stroke-width: 1.0; stroke-dasharray: 2.0,2.0;" width="9" x="213.83" y="298"/><text fill="#000000" font-family="sans-serif" font-size="12" font-style="italic" lengthAdjust="spacingAndGlyphs" textLength="7" x="214.83" y="310.1387">T</text><line style="stroke: #A80036; stroke-width: 1.5;" x1="128.83" x2="218.83" y1="333" y2="333"/><line style="stroke: #A80036; stroke-width: 1.5;" x1="128.83" x2="218.83" y1="341" y2="341"/><!--MD5=[92d1d42b41ac56e5f57f4bc2f2e7fa06]
class LinkedList`1--><rect fill="#FEFECE" filter="url(#fqu46riodws4b)" height="48" id="LinkedList`1" style="stroke: #A80036; stroke-width: 1.5;" width="118" x="254.83" y="301"/><ellipse cx="269.83" cy="317" fill="#ADD1B2" rx="11" ry="11" style="stroke: #A80036; stroke-width: 1.0;"/><path d="M272.7988,322.6406 Q272.2206,322.9375 271.58,323.0781 Q270.9394,323.2344 270.2363,323.2344 Q267.7363,323.2344 266.4081,321.5938 Q265.0956,319.9375 265.0956,316.8125 Q265.0956,313.6875 266.4081,312.0313 Q267.7363,310.375 270.2363,310.375 Q270.9394,310.375 271.58,310.5313 Q272.2363,310.6875 272.7988,310.9844 L272.7988,313.7031 Q272.1738,313.125 271.58,312.8594 Q270.9863,312.5781 270.3613,312.5781 Q269.0175,312.5781 268.33,313.6563 Q267.6425,314.7188 267.6425,316.8125 Q267.6425,318.9063 268.33,319.9844 Q269.0175,321.0469 270.3613,321.0469 Q270.9863,321.0469 271.58,320.7813 Q272.1738,320.5 272.7988,319.9219 L272.7988,322.6406 Z "/><text fill="#000000" font-family="sans-serif" font-size="12" lengthAdjust="spacingAndGlyphs" textLength="75" x="283.83" y="321.1543">LinkedList`1</text><rect fill="#FFFFFF" height="15.9688" style="stroke: #000000; stroke-width: 1.0; stroke-dasharray: 2.0,2.0;" width="9" x="366.83" y="298"/><text fill="#000000" font-family="sans-serif" font-size="12" font-style="italic" lengthAdjust="spacingAndGlyphs" textLength="7" x="367.83" y="310.1387">T</text><line style="stroke: #A80036; stroke-width: 1.5;" x1="255.83" x2="371.83" y1="333" y2="333"/><line style="stroke: #A80036; stroke-width: 1.5;" x1="255.83" x2="371.83" y1="341" y2="341"/><!--MD5=[e03d4c2f474ddd868eb5f718b492b09b]
class BaseEditorCommand--><rect fill="#FEFECE" filter="url(#fqu46riodws4b)" height="48" id="BaseEditorCommand" style="stroke: #A80036; stroke-width: 1.5;" width="162" x="162.83" y="8"/><ellipse cx="177.83" cy="24" fill="#ADD1B2" rx="11" ry="11" style="stroke: #A80036; stroke-width: 1.0;"/><path d="M180.7988,29.6406 Q180.2206,29.9375 179.58,30.0781 Q178.9394,30.2344 178.2363,30.2344 Q175.7363,30.2344 174.4081,28.5938 Q173.0956,26.9375 173.0956,23.8125 Q173.0956,20.6875 174.4081,19.0313 Q175.7363,17.375 178.2363,17.375 Q178.9394,17.375 179.58,17.5313 Q180.2363,17.6875 180.7988,17.9844 L180.7988,20.7031 Q180.1738,20.125 179.58,19.8594 Q178.9863,19.5781 178.3613,19.5781 Q177.0175,19.5781 176.33,20.6563 Q175.6425,21.7188 175.6425,23.8125 Q175.6425,25.9063 176.33,26.9844 Q177.0175,28.0469 178.3613,28.0469 Q178.9863,28.0469 179.58,27.7813 Q180.1738,27.5 180.7988,26.9219 L180.7988,29.6406 Z "/><text fill="#000000" font-family="sans-serif" font-size="12" lengthAdjust="spacingAndGlyphs" textLength="130" x="191.83" y="28.1543">BaseEditorCommand</text><line style="stroke: #A80036; stroke-width: 1.5;" x1="163.83" x2="323.83" y1="40" y2="40"/><line style="stroke: #A80036; stroke-width: 1.5;" x1="163.83" x2="323.83" y1="48" y2="48"/><!--MD5=[f592c72eaabc4507831b37bf50d7c91a]
reverse link BaseEditorCommand to CreateGridTileCommand--><path d="M243.83,76.67 C243.83,89.05 243.83,102.77 243.83,115.99 " fill="none" id="BaseEditorCommand&lt;-CreateGridTileCommand" style="stroke: #A80036; stroke-width: 1.0;"/><polygon fill="none" points="236.83,76.22,243.83,56.22,250.83,76.22,236.83,76.22" style="stroke: #A80036; stroke-width: 1.0;"/><!--MD5=[6a159b4b5c0c9bf996505d19c20410df]
link CreateGridTileCommand to Stack`1--><path d="M213.94,241.2 C204.64,260.39 194.86,280.59 187.28,296.23 " fill="none" id="CreateGridTileCommand-&gt;Stack`1" style="stroke: #A80036; stroke-width: 1.0;"/><polygon fill="#A80036" points="185,300.94,192.5302,294.592,187.1845,296.4425,185.3341,291.0968,185,300.94" style="stroke: #A80036; stroke-width: 1.0;"/><text fill="#000000" font-family="sans-serif" font-size="13" lengthAdjust="spacingAndGlyphs" textLength="164" x="2.8498" y="289.9367">redoStack&lt;GridObject[]&gt;</text><!--MD5=[7b5f96e185e68bbed7a93f2daca9010e]
link CreateGridTileCommand to LinkedList`1--><path d="M273.72,241.2 C283.01,260.39 292.8,280.59 300.38,296.23 " fill="none" id="CreateGridTileCommand-&gt;LinkedList`1" style="stroke: #A80036; stroke-width: 1.0;"/><polygon fill="#A80036" points="302.65,300.94,302.3159,291.0968,300.4655,296.4425,295.1198,294.592,302.65,300.94" style="stroke: #A80036; stroke-width: 1.0;"/><text fill="#000000" font-family="sans-serif" font-size="13" lengthAdjust="spacingAndGlyphs" textLength="194" x="324.6414" y="289.9367">undoLinkedList&lt;GridObject[]&gt;</text><!--MD5=[9c58acbcb10e60b5e79d49288e2d03ae]
@startuml
class CreateGridTileCommand {
    + <<override>> Execute() : void
    + <<override>> Undo() : void
    + <<override>> Redo() : void
    + <<override>> ClearFirstUndo() : void
    + <<override>> ClearRedo() : void
    + InitializeTiles(tiles:GridObject[]) : void
}
class "Stack`1"<T> {
}
class "LinkedList`1"<T> {
}
BaseEditorCommand <|- - CreateGridTileCommand
CreateGridTileCommand - -> "redoStack<GridObject[]>" "Stack`1"
CreateGridTileCommand - -> "undoLinkedList<GridObject[]>" "LinkedList`1"
@enduml

PlantUML version 1.2020.02(Sun Mar 01 10:22:07 GMT 2020)
(GPL source distribution)
Java Runtime: OpenJDK Runtime Environment
JVM: OpenJDK 64-Bit Server VM
Java Version: 11.0.9+11-Ubuntu-0ubuntu1
Operating System: Linux
Default Encoding: ANSI_X3.4-1968
Language: en
Country: US
--></g></svg>