<?xml version="1.0" encoding="UTF-8" standalone="no"?><svg xmlns="http://www.w3.org/2000/svg" xmlns:xlink="http://www.w3.org/1999/xlink" contentScriptType="application/ecmascript" contentStyleType="text/css" height="283px" preserveAspectRatio="none" style="width:250px;height:283px;" version="1.1" viewBox="0 0 250 283" width="250px" zoomAndPan="magnify"><defs><filter height="300%" id="fto1xha2gslu4" width="300%" x="-1" y="-1"><feGaussianBlur result="blurOut" stdDeviation="2.0"/><feColorMatrix in="blurOut" result="blurOut2" type="matrix" values="0 0 0 0 0 0 0 0 0 0 0 0 0 0 0 0 0 0 .4 0"/><feOffset dx="4.0" dy="4.0" in="blurOut2" result="blurOut3"/><feBlend in="SourceGraphic" in2="blurOut3" mode="normal"/></filter></defs><g><!--MD5=[5c00ed69caea7a5d2758c83acb20e707]
class DebugVerts--><rect fill="#FEFECE" filter="url(#fto1xha2gslu4)" height="48" id="DebugVerts" style="stroke: #A80036; stroke-width: 1.5;" width="106" x="17" y="116"/><ellipse cx="32" cy="132" fill="#ADD1B2" rx="11" ry="11" style="stroke: #A80036; stroke-width: 1.0;"/><path d="M34.9688,137.6406 Q34.3906,137.9375 33.75,138.0781 Q33.1094,138.2344 32.4063,138.2344 Q29.9063,138.2344 28.5781,136.5938 Q27.2656,134.9375 27.2656,131.8125 Q27.2656,128.6875 28.5781,127.0313 Q29.9063,125.375 32.4063,125.375 Q33.1094,125.375 33.75,125.5313 Q34.4063,125.6875 34.9688,125.9844 L34.9688,128.7031 Q34.3438,128.125 33.75,127.8594 Q33.1563,127.5781 32.5313,127.5781 Q31.1875,127.5781 30.5,128.6563 Q29.8125,129.7188 29.8125,131.8125 Q29.8125,133.9063 30.5,134.9844 Q31.1875,136.0469 32.5313,136.0469 Q33.1563,136.0469 33.75,135.7813 Q34.3438,135.5 34.9688,134.9219 L34.9688,137.6406 Z "/><text fill="#000000" font-family="sans-serif" font-size="12" lengthAdjust="spacingAndGlyphs" textLength="74" x="46" y="136.1543">DebugVerts</text><line style="stroke: #A80036; stroke-width: 1.5;" x1="18" x2="122" y1="148" y2="148"/><line style="stroke: #A80036; stroke-width: 1.5;" x1="18" x2="122" y1="156" y2="156"/><!--MD5=[83b3cf3d23d77c6f1e1b5291a241bc2a]
class MonoBehaviour--><rect fill="#FEFECE" filter="url(#fto1xha2gslu4)" height="48" id="MonoBehaviour" style="stroke: #A80036; stroke-width: 1.5;" width="128" x="6" y="8"/><ellipse cx="21" cy="24" fill="#ADD1B2" rx="11" ry="11" style="stroke: #A80036; stroke-width: 1.0;"/><path d="M23.9688,29.6406 Q23.3906,29.9375 22.75,30.0781 Q22.1094,30.2344 21.4063,30.2344 Q18.9063,30.2344 17.5781,28.5938 Q16.2656,26.9375 16.2656,23.8125 Q16.2656,20.6875 17.5781,19.0313 Q18.9063,17.375 21.4063,17.375 Q22.1094,17.375 22.75,17.5313 Q23.4063,17.6875 23.9688,17.9844 L23.9688,20.7031 Q23.3438,20.125 22.75,19.8594 Q22.1563,19.5781 21.5313,19.5781 Q20.1875,19.5781 19.5,20.6563 Q18.8125,21.7188 18.8125,23.8125 Q18.8125,25.9063 19.5,26.9844 Q20.1875,28.0469 21.5313,28.0469 Q22.1563,28.0469 22.75,27.7813 Q23.3438,27.5 23.9688,26.9219 L23.9688,29.6406 Z "/><text fill="#000000" font-family="sans-serif" font-size="12" lengthAdjust="spacingAndGlyphs" textLength="96" x="35" y="28.1543">MonoBehaviour</text><line style="stroke: #A80036; stroke-width: 1.5;" x1="7" x2="133" y1="40" y2="40"/><line style="stroke: #A80036; stroke-width: 1.5;" x1="7" x2="133" y1="48" y2="48"/><!--MD5=[459a56cf68debab3f13ef46812e5a2c6]
class MeshFilter--><rect fill="#FEFECE" filter="url(#fto1xha2gslu4)" height="48" id="MeshFilter" style="stroke: #A80036; stroke-width: 1.5;" width="96" x="22" y="224"/><ellipse cx="37" cy="240" fill="#ADD1B2" rx="11" ry="11" style="stroke: #A80036; stroke-width: 1.0;"/><path d="M39.9688,245.6406 Q39.3906,245.9375 38.75,246.0781 Q38.1094,246.2344 37.4063,246.2344 Q34.9063,246.2344 33.5781,244.5938 Q32.2656,242.9375 32.2656,239.8125 Q32.2656,236.6875 33.5781,235.0313 Q34.9063,233.375 37.4063,233.375 Q38.1094,233.375 38.75,233.5313 Q39.4063,233.6875 39.9688,233.9844 L39.9688,236.7031 Q39.3438,236.125 38.75,235.8594 Q38.1563,235.5781 37.5313,235.5781 Q36.1875,235.5781 35.5,236.6563 Q34.8125,237.7188 34.8125,239.8125 Q34.8125,241.9063 35.5,242.9844 Q36.1875,244.0469 37.5313,244.0469 Q38.1563,244.0469 38.75,243.7813 Q39.3438,243.5 39.9688,242.9219 L39.9688,245.6406 Z "/><text fill="#000000" font-family="sans-serif" font-size="12" lengthAdjust="spacingAndGlyphs" textLength="64" x="51" y="244.1543">MeshFilter</text><line style="stroke: #A80036; stroke-width: 1.5;" x1="23" x2="117" y1="256" y2="256"/><line style="stroke: #A80036; stroke-width: 1.5;" x1="23" x2="117" y1="264" y2="264"/><!--MD5=[65d619c042c23702cef2ca07d67b1cf6]
class Vector3--><rect fill="#FEFECE" filter="url(#fto1xha2gslu4)" height="48" id="Vector3" style="stroke: #A80036; stroke-width: 1.5;" width="81" x="158.5" y="116"/><ellipse cx="173.5" cy="132" fill="#ADD1B2" rx="11" ry="11" style="stroke: #A80036; stroke-width: 1.0;"/><path d="M176.4688,137.6406 Q175.8906,137.9375 175.25,138.0781 Q174.6094,138.2344 173.9063,138.2344 Q171.4063,138.2344 170.0781,136.5938 Q168.7656,134.9375 168.7656,131.8125 Q168.7656,128.6875 170.0781,127.0313 Q171.4063,125.375 173.9063,125.375 Q174.6094,125.375 175.25,125.5313 Q175.9063,125.6875 176.4688,125.9844 L176.4688,128.7031 Q175.8438,128.125 175.25,127.8594 Q174.6563,127.5781 174.0313,127.5781 Q172.6875,127.5781 172,128.6563 Q171.3125,129.7188 171.3125,131.8125 Q171.3125,133.9063 172,134.9844 Q172.6875,136.0469 174.0313,136.0469 Q174.6563,136.0469 175.25,135.7813 Q175.8438,135.5 176.4688,134.9219 L176.4688,137.6406 Z "/><text fill="#000000" font-family="sans-serif" font-size="12" lengthAdjust="spacingAndGlyphs" textLength="49" x="187.5" y="136.1543">Vector3</text><line style="stroke: #A80036; stroke-width: 1.5;" x1="159.5" x2="238.5" y1="148" y2="148"/><line style="stroke: #A80036; stroke-width: 1.5;" x1="159.5" x2="238.5" y1="156" y2="156"/><!--MD5=[2d70ce539491ab8213c33c8d2d84ca37]
reverse link MonoBehaviour to DebugVerts--><path d="M70,76.02 C70,89.58 70,104.04 70,115.68 " fill="none" id="MonoBehaviour&lt;-DebugVerts" style="stroke: #A80036; stroke-width: 1.0;"/><polygon fill="none" points="63,76,70,56,77,76,63,76" style="stroke: #A80036; stroke-width: 1.0;"/><!--MD5=[476c8c38ebcfdd80f2884d85dbe26824]
link DebugVerts to MeshFilter--><path d="M70,164 C70,180 70,201.45 70,218.53 " fill="none" id="DebugVerts-&gt;MeshFilter" style="stroke: #A80036; stroke-width: 1.0;"/><polygon fill="#A80036" points="70,223.68,74,214.68,70,218.68,66,214.68,70,223.68" style="stroke: #A80036; stroke-width: 1.0;"/><text fill="#000000" font-family="sans-serif" font-size="13" lengthAdjust="spacingAndGlyphs" textLength="36" x="29.6125" y="213.007">mesh</text><!--MD5=[5e7194611d7d8901be77d936d6488206]
link DebugVerts to Vector3--><path d="M135.16,140 C135.16,140 142.35,140 145.33,140 " fill="none" id="DebugVerts-Vector3" style="stroke: #A80036; stroke-width: 1.0;"/><polygon fill="#A80036" points="158.41,140,149.41,136,153.41,140,149.41,144,158.41,140" style="stroke: #A80036; stroke-width: 1.0;"/><line style="stroke: #A80036; stroke-width: 1.0;" x1="153.41" x2="145.41" y1="140" y2="140"/><polygon fill="#FFFFFF" points="123.16,140,129.16,144,135.16,140,129.16,136,123.16,140" style="stroke: #A80036; stroke-width: 1.0;"/><text fill="#000000" font-family="sans-serif" font-size="13" lengthAdjust="spacingAndGlyphs" textLength="36" x="114.4258" y="133.3984">offset</text><!--MD5=[0e239a45f18e60df0a637ca6d917a2ea]
@startuml
class DebugVerts {
}
MonoBehaviour <|- - DebugVerts
DebugVerts - -> "mesh" MeshFilter
DebugVerts o-> "offset" Vector3
@enduml

PlantUML version 1.2020.02(Sun Mar 01 10:22:07 GMT 2020)
(GPL source distribution)
Java Runtime: OpenJDK Runtime Environment
JVM: OpenJDK 64-Bit Server VM
Java Version: 11.0.9+11-Ubuntu-0ubuntu1
Operating System: Linux
Default Encoding: ANSI_X3.4-1968
Language: en
Country: US
--></g></svg>