<?xml version="1.0" encoding="UTF-8" standalone="no"?><svg xmlns="http://www.w3.org/2000/svg" xmlns:xlink="http://www.w3.org/1999/xlink" contentScriptType="application/ecmascript" contentStyleType="text/css" height="475px" preserveAspectRatio="none" style="width:750px;height:475px;" version="1.1" viewBox="0 0 750 475" width="750px" zoomAndPan="magnify"><defs><filter height="300%" id="f1k5yftq40xuv3" width="300%" x="-1" y="-1"><feGaussianBlur result="blurOut" stdDeviation="2.0"/><feColorMatrix in="blurOut" result="blurOut2" type="matrix" values="0 0 0 0 0 0 0 0 0 0 0 0 0 0 0 0 0 0 .4 0"/><feOffset dx="4.0" dy="4.0" in="blurOut2" result="blurOut3"/><feBlend in="SourceGraphic" in2="blurOut3" mode="normal"/></filter></defs><g><!--MD5=[efac5280600e76c4208457733b73d915]
class DropDownMenu--><rect fill="#FEFECE" filter="url(#f1k5yftq40xuv3)" height="240.0703" id="DropDownMenu" style="stroke: #A80036; stroke-width: 1.5;" width="330" x="103.14" y="116"/><ellipse cx="214.89" cy="132" fill="#ADD1B2" rx="11" ry="11" style="stroke: #A80036; stroke-width: 1.0;"/><path d="M217.8588,137.6406 Q217.2806,137.9375 216.64,138.0781 Q215.9994,138.2344 215.2963,138.2344 Q212.7963,138.2344 211.4681,136.5938 Q210.1556,134.9375 210.1556,131.8125 Q210.1556,128.6875 211.4681,127.0313 Q212.7963,125.375 215.2963,125.375 Q215.9994,125.375 216.64,125.5313 Q217.2963,125.6875 217.8588,125.9844 L217.8588,128.7031 Q217.2338,128.125 216.64,127.8594 Q216.0463,127.5781 215.4213,127.5781 Q214.0775,127.5781 213.39,128.6563 Q212.7025,129.7188 212.7025,131.8125 Q212.7025,133.9063 213.39,134.9844 Q214.0775,136.0469 215.4213,136.0469 Q216.0463,136.0469 216.64,135.7813 Q217.2338,135.5 217.8588,134.9219 L217.8588,137.6406 Z "/><text fill="#000000" font-family="sans-serif" font-size="12" lengthAdjust="spacingAndGlyphs" textLength="98" x="235.39" y="136.1543">DropDownMenu</text><line style="stroke: #A80036; stroke-width: 1.5;" x1="104.14" x2="432.14" y1="148" y2="148"/><text fill="#000000" font-family="sans-serif" font-size="11" lengthAdjust="spacingAndGlyphs" textLength="103" x="109.14" y="162.2104">buttonWidth : float</text><text fill="#000000" font-family="sans-serif" font-size="11" lengthAdjust="spacingAndGlyphs" textLength="109" x="109.14" y="175.0151">buttonHeight : float</text><text fill="#000000" font-family="sans-serif" font-size="11" lengthAdjust="spacingAndGlyphs" textLength="93" x="109.14" y="187.8198">textOffset : float</text><text fill="#000000" font-family="sans-serif" font-size="11" lengthAdjust="spacingAndGlyphs" textLength="121" x="109.14" y="200.6245">display : bool = false</text><text fill="#000000" font-family="sans-serif" font-size="11" lengthAdjust="spacingAndGlyphs" textLength="154" x="109.14" y="213.4292">visibleOnEdit : bool = false</text><text fill="#000000" font-family="sans-serif" font-size="11" lengthAdjust="spacingAndGlyphs" textLength="147" x="109.14" y="226.2339">hideMainButtonText : bool</text><text fill="#000000" font-family="sans-serif" font-size="11" lengthAdjust="spacingAndGlyphs" textLength="108" x="109.14" y="239.0386">canvasScale : float</text><line style="stroke: #A80036; stroke-width: 1.5;" x1="104.14" x2="432.14" y1="245.6328" y2="245.6328"/><ellipse cx="114.14" cy="256.6328" fill="#84BE84" rx="3" ry="3" style="stroke: #038048; stroke-width: 1.0;"/><text fill="#000000" font-family="sans-serif" font-size="11" lengthAdjust="spacingAndGlyphs" textLength="114" x="123.14" y="259.8433">DisplayMenu() : void</text><ellipse cx="114.14" cy="269.4375" fill="#84BE84" rx="3" ry="3" style="stroke: #038048; stroke-width: 1.0;"/><text fill="#000000" font-family="sans-serif" font-size="11" lengthAdjust="spacingAndGlyphs" textLength="98" x="123.14" y="272.6479">HideMenu() : void</text><ellipse cx="114.14" cy="282.2422" fill="#84BE84" rx="3" ry="3" style="stroke: #038048; stroke-width: 1.0;"/><text fill="#000000" font-family="sans-serif" font-size="11" lengthAdjust="spacingAndGlyphs" textLength="111" x="123.14" y="285.4526">ToggleMenu() : void</text><ellipse cx="114.14" cy="295.0469" fill="#84BE84" rx="3" ry="3" style="stroke: #038048; stroke-width: 1.0;"/><text fill="#000000" font-family="sans-serif" font-size="11" lengthAdjust="spacingAndGlyphs" textLength="145" x="123.14" y="298.2573">AddButtonToMenu() : void</text><ellipse cx="114.14" cy="307.8516" fill="#84BE84" rx="3" ry="3" style="stroke: #038048; stroke-width: 1.0;"/><text fill="#000000" font-family="sans-serif" font-size="11" lengthAdjust="spacingAndGlyphs" textLength="184" x="123.14" y="311.062">RemoveButtonFromMenu() : void</text><ellipse cx="114.14" cy="320.6563" fill="#84BE84" rx="3" ry="3" style="stroke: #038048; stroke-width: 1.0;"/><text fill="#000000" font-family="sans-serif" font-size="11" lengthAdjust="spacingAndGlyphs" textLength="117" x="123.14" y="323.8667">ClearButtons() : void</text><ellipse cx="114.14" cy="333.4609" fill="#84BE84" rx="3" ry="3" style="stroke: #038048; stroke-width: 1.0;"/><text fill="#000000" font-family="sans-serif" font-size="11" lengthAdjust="spacingAndGlyphs" textLength="304" x="123.14" y="336.6714">CopyBaseButton(parent:Button, copy:Button) : Button</text><ellipse cx="114.14" cy="346.2656" fill="#84BE84" rx="3" ry="3" style="stroke: #038048; stroke-width: 1.0;"/><text fill="#000000" font-family="sans-serif" font-size="11" lengthAdjust="spacingAndGlyphs" textLength="283" x="123.14" y="349.4761">DisplayDropDownOnLocation(x:float, y:float) : void</text><!--MD5=[e644022de7dea015dd09463c37421447]
class List`1--><rect fill="#FEFECE" filter="url(#f1k5yftq40xuv3)" height="48" id="List`1" style="stroke: #A80036; stroke-width: 1.5;" width="78" x="468.14" y="212"/><ellipse cx="483.14" cy="228" fill="#ADD1B2" rx="11" ry="11" style="stroke: #A80036; stroke-width: 1.0;"/><path d="M486.1088,233.6406 Q485.5306,233.9375 484.89,234.0781 Q484.2494,234.2344 483.5463,234.2344 Q481.0463,234.2344 479.7181,232.5938 Q478.4056,230.9375 478.4056,227.8125 Q478.4056,224.6875 479.7181,223.0313 Q481.0463,221.375 483.5463,221.375 Q484.2494,221.375 484.89,221.5313 Q485.5463,221.6875 486.1088,221.9844 L486.1088,224.7031 Q485.4838,224.125 484.89,223.8594 Q484.2963,223.5781 483.6713,223.5781 Q482.3275,223.5781 481.64,224.6563 Q480.9525,225.7188 480.9525,227.8125 Q480.9525,229.9063 481.64,230.9844 Q482.3275,232.0469 483.6713,232.0469 Q484.2963,232.0469 484.89,231.7813 Q485.4838,231.5 486.1088,230.9219 L486.1088,233.6406 Z "/><text fill="#000000" font-family="sans-serif" font-size="12" lengthAdjust="spacingAndGlyphs" textLength="35" x="497.14" y="232.1543">List`1</text><rect fill="#FFFFFF" height="15.9688" style="stroke: #000000; stroke-width: 1.0; stroke-dasharray: 2.0,2.0;" width="9" x="540.14" y="209"/><text fill="#000000" font-family="sans-serif" font-size="12" font-style="italic" lengthAdjust="spacingAndGlyphs" textLength="7" x="541.14" y="221.1387">T</text><line style="stroke: #A80036; stroke-width: 1.5;" x1="469.14" x2="545.14" y1="244" y2="244"/><line style="stroke: #A80036; stroke-width: 1.5;" x1="469.14" x2="545.14" y1="252" y2="252"/><!--MD5=[83b3cf3d23d77c6f1e1b5291a241bc2a]
class MonoBehaviour--><rect fill="#FEFECE" filter="url(#f1k5yftq40xuv3)" height="48" id="MonoBehaviour" style="stroke: #A80036; stroke-width: 1.5;" width="128" x="204.14" y="8"/><ellipse cx="219.14" cy="24" fill="#ADD1B2" rx="11" ry="11" style="stroke: #A80036; stroke-width: 1.0;"/><path d="M222.1088,29.6406 Q221.5306,29.9375 220.89,30.0781 Q220.2494,30.2344 219.5463,30.2344 Q217.0463,30.2344 215.7181,28.5938 Q214.4056,26.9375 214.4056,23.8125 Q214.4056,20.6875 215.7181,19.0313 Q217.0463,17.375 219.5463,17.375 Q220.2494,17.375 220.89,17.5313 Q221.5463,17.6875 222.1088,17.9844 L222.1088,20.7031 Q221.4838,20.125 220.89,19.8594 Q220.2963,19.5781 219.6713,19.5781 Q218.3275,19.5781 217.64,20.6563 Q216.9525,21.7188 216.9525,23.8125 Q216.9525,25.9063 217.64,26.9844 Q218.3275,28.0469 219.6713,28.0469 Q220.2963,28.0469 220.89,27.7813 Q221.4838,27.5 222.1088,26.9219 L222.1088,29.6406 Z "/><text fill="#000000" font-family="sans-serif" font-size="12" lengthAdjust="spacingAndGlyphs" textLength="96" x="233.14" y="28.1543">MonoBehaviour</text><line style="stroke: #A80036; stroke-width: 1.5;" x1="205.14" x2="331.14" y1="40" y2="40"/><line style="stroke: #A80036; stroke-width: 1.5;" x1="205.14" x2="331.14" y1="48" y2="48"/><!--MD5=[064f7a74fee85463ec1a30143664ee17]
class GameObject--><rect fill="#FEFECE" filter="url(#f1k5yftq40xuv3)" height="48" id="GameObject" style="stroke: #A80036; stroke-width: 1.5;" width="108" x="63.14" y="416"/><ellipse cx="78.14" cy="432" fill="#ADD1B2" rx="11" ry="11" style="stroke: #A80036; stroke-width: 1.0;"/><path d="M81.1088,437.6406 Q80.5306,437.9375 79.89,438.0781 Q79.2494,438.2344 78.5463,438.2344 Q76.0463,438.2344 74.7181,436.5938 Q73.4056,434.9375 73.4056,431.8125 Q73.4056,428.6875 74.7181,427.0313 Q76.0463,425.375 78.5463,425.375 Q79.2494,425.375 79.89,425.5313 Q80.5463,425.6875 81.1088,425.9844 L81.1088,428.7031 Q80.4838,428.125 79.89,427.8594 Q79.2963,427.5781 78.6713,427.5781 Q77.3275,427.5781 76.64,428.6563 Q75.9525,429.7188 75.9525,431.8125 Q75.9525,433.9063 76.64,434.9844 Q77.3275,436.0469 78.6713,436.0469 Q79.2963,436.0469 79.89,435.7813 Q80.4838,435.5 81.1088,434.9219 L81.1088,437.6406 Z "/><text fill="#000000" font-family="sans-serif" font-size="12" lengthAdjust="spacingAndGlyphs" textLength="76" x="92.14" y="436.1543">GameObject</text><line style="stroke: #A80036; stroke-width: 1.5;" x1="64.14" x2="170.14" y1="448" y2="448"/><line style="stroke: #A80036; stroke-width: 1.5;" x1="64.14" x2="170.14" y1="456" y2="456"/><!--MD5=[281c999374e61fd3a46e672fb26d53ea]
class RectTransform--><rect fill="#FEFECE" filter="url(#f1k5yftq40xuv3)" height="48" id="RectTransform" style="stroke: #A80036; stroke-width: 1.5;" width="123" x="206.64" y="416"/><ellipse cx="221.64" cy="432" fill="#ADD1B2" rx="11" ry="11" style="stroke: #A80036; stroke-width: 1.0;"/><path d="M224.6088,437.6406 Q224.0306,437.9375 223.39,438.0781 Q222.7494,438.2344 222.0463,438.2344 Q219.5463,438.2344 218.2181,436.5938 Q216.9056,434.9375 216.9056,431.8125 Q216.9056,428.6875 218.2181,427.0313 Q219.5463,425.375 222.0463,425.375 Q222.7494,425.375 223.39,425.5313 Q224.0463,425.6875 224.6088,425.9844 L224.6088,428.7031 Q223.9838,428.125 223.39,427.8594 Q222.7963,427.5781 222.1713,427.5781 Q220.8275,427.5781 220.14,428.6563 Q219.4525,429.7188 219.4525,431.8125 Q219.4525,433.9063 220.14,434.9844 Q220.8275,436.0469 222.1713,436.0469 Q222.7963,436.0469 223.39,435.7813 Q223.9838,435.5 224.6088,434.9219 L224.6088,437.6406 Z "/><text fill="#000000" font-family="sans-serif" font-size="12" lengthAdjust="spacingAndGlyphs" textLength="91" x="235.64" y="436.1543">RectTransform</text><line style="stroke: #A80036; stroke-width: 1.5;" x1="207.64" x2="328.64" y1="448" y2="448"/><line style="stroke: #A80036; stroke-width: 1.5;" x1="207.64" x2="328.64" y1="456" y2="456"/><!--MD5=[85c2ed8dbf494cb60783de624603a7dd]
class Sprite--><rect fill="#FEFECE" filter="url(#f1k5yftq40xuv3)" height="48" id="Sprite" style="stroke: #A80036; stroke-width: 1.5;" width="69" x="364.64" y="416"/><ellipse cx="379.64" cy="432" fill="#ADD1B2" rx="11" ry="11" style="stroke: #A80036; stroke-width: 1.0;"/><path d="M382.6088,437.6406 Q382.0306,437.9375 381.39,438.0781 Q380.7494,438.2344 380.0463,438.2344 Q377.5463,438.2344 376.2181,436.5938 Q374.9056,434.9375 374.9056,431.8125 Q374.9056,428.6875 376.2181,427.0313 Q377.5463,425.375 380.0463,425.375 Q380.7494,425.375 381.39,425.5313 Q382.0463,425.6875 382.6088,425.9844 L382.6088,428.7031 Q381.9838,428.125 381.39,427.8594 Q380.7963,427.5781 380.1713,427.5781 Q378.8275,427.5781 378.14,428.6563 Q377.4525,429.7188 377.4525,431.8125 Q377.4525,433.9063 378.14,434.9844 Q378.8275,436.0469 380.1713,436.0469 Q380.7963,436.0469 381.39,435.7813 Q381.9838,435.5 382.6088,434.9219 L382.6088,437.6406 Z "/><text fill="#000000" font-family="sans-serif" font-size="12" lengthAdjust="spacingAndGlyphs" textLength="37" x="393.64" y="436.1543">Sprite</text><line style="stroke: #A80036; stroke-width: 1.5;" x1="365.64" x2="432.64" y1="448" y2="448"/><line style="stroke: #A80036; stroke-width: 1.5;" x1="365.64" x2="432.64" y1="456" y2="456"/><!--MD5=[904907aec70c3817983bd27a243dd750]
class TextMeshProUGUI--><rect fill="#FEFECE" filter="url(#f1k5yftq40xuv3)" height="48" id="TextMeshProUGUI" style="stroke: #A80036; stroke-width: 1.5;" width="142" x="469.14" y="416"/><ellipse cx="484.14" cy="432" fill="#ADD1B2" rx="11" ry="11" style="stroke: #A80036; stroke-width: 1.0;"/><path d="M487.1088,437.6406 Q486.5306,437.9375 485.89,438.0781 Q485.2494,438.2344 484.5463,438.2344 Q482.0463,438.2344 480.7181,436.5938 Q479.4056,434.9375 479.4056,431.8125 Q479.4056,428.6875 480.7181,427.0313 Q482.0463,425.375 484.5463,425.375 Q485.2494,425.375 485.89,425.5313 Q486.5463,425.6875 487.1088,425.9844 L487.1088,428.7031 Q486.4838,428.125 485.89,427.8594 Q485.2963,427.5781 484.6713,427.5781 Q483.3275,427.5781 482.64,428.6563 Q481.9525,429.7188 481.9525,431.8125 Q481.9525,433.9063 482.64,434.9844 Q483.3275,436.0469 484.6713,436.0469 Q485.2963,436.0469 485.89,435.7813 Q486.4838,435.5 487.1088,434.9219 L487.1088,437.6406 Z "/><text fill="#000000" font-family="sans-serif" font-size="12" lengthAdjust="spacingAndGlyphs" textLength="110" x="498.14" y="436.1543">TextMeshProUGUI</text><line style="stroke: #A80036; stroke-width: 1.5;" x1="470.14" x2="610.14" y1="448" y2="448"/><line style="stroke: #A80036; stroke-width: 1.5;" x1="470.14" x2="610.14" y1="456" y2="456"/><!--MD5=[5edf34eb39d3b3dfde6419c044ab889f]
class Canvas--><rect fill="#FEFECE" filter="url(#f1k5yftq40xuv3)" height="48" id="Canvas" style="stroke: #A80036; stroke-width: 1.5;" width="77" x="646.64" y="416"/><ellipse cx="661.64" cy="432" fill="#ADD1B2" rx="11" ry="11" style="stroke: #A80036; stroke-width: 1.0;"/><path d="M664.6088,437.6406 Q664.0306,437.9375 663.39,438.0781 Q662.7494,438.2344 662.0463,438.2344 Q659.5463,438.2344 658.2181,436.5938 Q656.9056,434.9375 656.9056,431.8125 Q656.9056,428.6875 658.2181,427.0313 Q659.5463,425.375 662.0463,425.375 Q662.7494,425.375 663.39,425.5313 Q664.0463,425.6875 664.6088,425.9844 L664.6088,428.7031 Q663.9838,428.125 663.39,427.8594 Q662.7963,427.5781 662.1713,427.5781 Q660.8275,427.5781 660.14,428.6563 Q659.4525,429.7188 659.4525,431.8125 Q659.4525,433.9063 660.14,434.9844 Q660.8275,436.0469 662.1713,436.0469 Q662.7963,436.0469 663.39,435.7813 Q663.9838,435.5 664.6088,434.9219 L664.6088,437.6406 Z "/><text fill="#000000" font-family="sans-serif" font-size="12" lengthAdjust="spacingAndGlyphs" textLength="45" x="675.64" y="436.1543">Canvas</text><line style="stroke: #A80036; stroke-width: 1.5;" x1="647.64" x2="722.64" y1="448" y2="448"/><line style="stroke: #A80036; stroke-width: 1.5;" x1="647.64" x2="722.64" y1="456" y2="456"/><!--MD5=[9352ed7a20e53f53e747a69d2345eb10]
reverse link MonoBehaviour to DropDownMenu--><path d="M268.14,76.19 C268.14,88.09 268.14,101.61 268.14,115.62 " fill="none" id="MonoBehaviour&lt;-DropDownMenu" style="stroke: #A80036; stroke-width: 1.0;"/><polygon fill="none" points="261.14,76.17,268.14,56.17,275.14,76.17,261.14,76.17" style="stroke: #A80036; stroke-width: 1.0;"/><!--MD5=[03b69731afd3bcb4dae5797819e4d1fe]
link DropDownMenu to GameObject--><path d="M166.43,356.26 C151.47,376.85 138.01,396.39 128.74,411.31 " fill="none" id="DropDownMenu-&gt;GameObject" style="stroke: #A80036; stroke-width: 1.0;"/><polygon fill="#A80036" points="126,415.79,134.1047,410.1941,128.6061,411.5229,127.2773,406.0243,126,415.79" style="stroke: #A80036; stroke-width: 1.0;"/><text fill="#000000" font-family="sans-serif" font-size="13" lengthAdjust="spacingAndGlyphs" textLength="105" x="9.8173" y="404.7482">dropDownObject</text><!--MD5=[03b69731afd3bcb4dae5797819e4d1fe]
link DropDownMenu to GameObject--><path d="M192.3,356.26 C176.32,377.02 160.35,396.73 147.14,411.69 " fill="none" id="DropDownMenu-&gt;GameObject-1" style="stroke: #A80036; stroke-width: 1.0;"/><polygon fill="#A80036" points="143.49,415.79,152.4676,411.7399,146.8198,412.0601,146.4997,406.4123,143.49,415.79" style="stroke: #A80036; stroke-width: 1.0;"/><text fill="#000000" font-family="sans-serif" font-size="13" lengthAdjust="spacingAndGlyphs" textLength="101" x="163.1828" y="404.7482">emptyGameObj</text><!--MD5=[c1417912b32bd93932eaa82f8c06ddc5]
link DropDownMenu to RectTransform--><path d="M255.58,356.26 C256,376.49 257.12,395.72 258.94,410.53 " fill="none" id="DropDownMenu-&gt;RectTransform" style="stroke: #A80036; stroke-width: 1.0;"/><polygon fill="#A80036" points="259.65,415.79,262.4326,406.3424,258.9929,410.8334,254.502,407.3937,259.65,415.79" style="stroke: #A80036; stroke-width: 1.0;"/><text fill="#000000" font-family="sans-serif" font-size="13" lengthAdjust="spacingAndGlyphs" textLength="92" x="269.2619" y="404.7482">dropDownRect</text><!--MD5=[c1417912b32bd93932eaa82f8c06ddc5]
link DropDownMenu to RectTransform--><path d="M281.44,356.26 C281,376.49 279.81,395.72 277.88,410.53 " fill="none" id="DropDownMenu-&gt;RectTransform-1" style="stroke: #A80036; stroke-width: 1.0;"/><polygon fill="#A80036" points="277.14,415.79,282.3625,407.4398,277.8411,410.8394,274.4415,406.318,277.14,415.79" style="stroke: #A80036; stroke-width: 1.0;"/><text fill="#000000" font-family="sans-serif" font-size="13" lengthAdjust="spacingAndGlyphs" textLength="90" x="336.0111" y="405.0435">rectTransform</text><!--MD5=[6e83ac85a7442939da03fc6975474772]
link DropDownMenu to List`1--><path d="M443.4708,306.3003 C443.4708,306.3003 469.03,285.21 481.34,270.67 " fill="none" id="DropDownMenu-List`1" style="stroke: #A80036; stroke-width: 1.0;"/><polygon fill="#A80036" points="489.86,260.15,481.0857,264.6234,486.7118,264.0344,487.3008,269.6605,489.86,260.15" style="stroke: #A80036; stroke-width: 1.0;"/><line style="stroke: #A80036; stroke-width: 1.0;" x1="486.7118" x2="481.675" y1="264.0344" y2="270.255"/><polygon fill="#FFFFFF" points="433.39,312.81,440.6003,312.9154,443.4708,306.3003,436.2605,306.1949,433.39,312.81" style="stroke: #A80036; stroke-width: 1.0;"/><text fill="#000000" font-family="sans-serif" font-size="13" lengthAdjust="spacingAndGlyphs" textLength="114" x="499.5418" y="279.9478">buttons&lt;Button&gt;</text><!--MD5=[6e83ac85a7442939da03fc6975474772]
link DropDownMenu to List`1--><path d="M443.4708,165.6997 C443.4708,165.6997 469.03,186.79 481.34,201.33 " fill="none" id="DropDownMenu-List`1-1" style="stroke: #A80036; stroke-width: 1.0;"/><polygon fill="#A80036" points="489.86,211.85,487.3008,202.3395,486.7118,207.9656,481.0857,207.3766,489.86,211.85" style="stroke: #A80036; stroke-width: 1.0;"/><line style="stroke: #A80036; stroke-width: 1.0;" x1="486.7118" x2="481.675" y1="207.9656" y2="201.745"/><polygon fill="#FFFFFF" points="433.39,159.19,436.2605,165.8051,443.4708,165.6997,440.6003,159.0846,433.39,159.19" style="stroke: #A80036; stroke-width: 1.0;"/><text fill="#000000" font-family="sans-serif" font-size="13" lengthAdjust="spacingAndGlyphs" textLength="213" x="512.7226" y="200.8236">buttonTexts&lt;TextMeshProUGUI&gt;</text><!--MD5=[8ba99f8a3dac3409e8e82caca945e4ee]
link DropDownMenu to Sprite--><path d="M345.48,356.26 C358.83,376.85 371.51,396.39 381.18,411.31 " fill="none" id="DropDownMenu-&gt;Sprite" style="stroke: #A80036; stroke-width: 1.0;"/><polygon fill="#A80036" points="384.09,415.79,382.5645,406.06,381.3761,411.5906,375.8455,410.4022,384.09,415.79" style="stroke: #A80036; stroke-width: 1.0;"/><text fill="#000000" font-family="sans-serif" font-size="13" lengthAdjust="spacingAndGlyphs" textLength="104" x="393.5584" y="404.7482">dropDownImage</text><!--MD5=[d0f81e0ed0f6b4526f8209c8eeec278e]
link DropDownMenu to TextMeshProUGUI--><path d="M428.72,356.26 C457.29,377.47 484.35,397.57 504.66,412.65 " fill="none" id="DropDownMenu-&gt;TextMeshProUGUI" style="stroke: #A80036; stroke-width: 1.0;"/><polygon fill="#A80036" points="508.88,415.79,504.026,407.2204,504.8612,412.8152,499.2663,413.6505,508.88,415.79" style="stroke: #A80036; stroke-width: 1.0;"/><text fill="#000000" font-family="sans-serif" font-size="13" lengthAdjust="spacingAndGlyphs" textLength="102" x="513.9384" y="404.7482">mainButtonText</text><!--MD5=[e54c779476524876df98df0db571b2bb]
link DropDownMenu to Canvas--><path d="M433.15,346.88 C439.16,350.06 445.17,353.11 451.14,356 C526.28,392.38 550.93,386.79 629.14,416 C633.18,417.51 637.35,419.12 641.52,420.77 " fill="none" id="DropDownMenu-&gt;Canvas" style="stroke: #A80036; stroke-width: 1.0;"/><polygon fill="#A80036" points="646.41,422.71,639.5206,415.6718,641.7627,420.8654,636.5692,423.1075,646.41,422.71" style="stroke: #A80036; stroke-width: 1.0;"/><text fill="#000000" font-family="sans-serif" font-size="13" lengthAdjust="spacingAndGlyphs" textLength="89" x="649.9441" y="404.6337">ParentCanvas</text><!--MD5=[f5651217bab2a3448607508b05b506c8]
@startuml
class DropDownMenu {
    buttonWidth : float
    buttonHeight : float
    textOffset : float
    display : bool = false
    visibleOnEdit : bool = false
    hideMainButtonText : bool
    canvasScale : float
    + DisplayMenu() : void
    + HideMenu() : void
    + ToggleMenu() : void
    + AddButtonToMenu() : void
    + RemoveButtonFromMenu() : void
    + ClearButtons() : void
    + CopyBaseButton(parent:Button, copy:Button) : Button
    + DisplayDropDownOnLocation(x:float, y:float) : void
}
class "List`1"<T> {
}
MonoBehaviour <|- - DropDownMenu
DropDownMenu - -> "dropDownObject" GameObject
DropDownMenu - -> "dropDownRect" RectTransform
DropDownMenu o-> "buttons<Button>" "List`1"
DropDownMenu - -> "dropDownImage" Sprite
DropDownMenu o-> "buttonTexts<TextMeshProUGUI>" "List`1"
DropDownMenu - -> "rectTransform" RectTransform
DropDownMenu - -> "emptyGameObj" GameObject
DropDownMenu - -> "mainButtonText" TextMeshProUGUI
DropDownMenu - -> "ParentCanvas" Canvas
@enduml

PlantUML version 1.2020.02(Sun Mar 01 10:22:07 GMT 2020)
(GPL source distribution)
Java Runtime: OpenJDK Runtime Environment
JVM: OpenJDK 64-Bit Server VM
Java Version: 11.0.9+11-Ubuntu-0ubuntu1
Operating System: Linux
Default Encoding: ANSI_X3.4-1968
Language: en
Country: US
--></g></svg>