<?xml version="1.0" encoding="UTF-8" standalone="no"?><svg xmlns="http://www.w3.org/2000/svg" xmlns:xlink="http://www.w3.org/1999/xlink" contentScriptType="application/ecmascript" contentStyleType="text/css" height="360px" preserveAspectRatio="none" style="width:607px;height:360px;" version="1.1" viewBox="0 0 607 360" width="607px" zoomAndPan="magnify"><defs><filter height="300%" id="fz55973jpql0f" width="300%" x="-1" y="-1"><feGaussianBlur result="blurOut" stdDeviation="2.0"/><feColorMatrix in="blurOut" result="blurOut2" type="matrix" values="0 0 0 0 0 0 0 0 0 0 0 0 0 0 0 0 0 0 .4 0"/><feOffset dx="4.0" dy="4.0" in="blurOut2" result="blurOut3"/><feBlend in="SourceGraphic" in2="blurOut3" mode="normal"/></filter></defs><g><!--MD5=[5b629db1805e52831b18f86d04f0ad32]
class PlayState--><rect fill="#FEFECE" filter="url(#fz55973jpql0f)" height="124.8281" id="PlayState" style="stroke: #A80036; stroke-width: 1.5;" width="219" x="93.14" y="116"/><ellipse cx="168.89" cy="132" fill="#ADD1B2" rx="11" ry="11" style="stroke: #A80036; stroke-width: 1.0;"/><path d="M171.8588,137.6406 Q171.2806,137.9375 170.64,138.0781 Q169.9994,138.2344 169.2963,138.2344 Q166.7963,138.2344 165.4681,136.5938 Q164.1556,134.9375 164.1556,131.8125 Q164.1556,128.6875 165.4681,127.0313 Q166.7963,125.375 169.2963,125.375 Q169.9994,125.375 170.64,125.5313 Q171.2963,125.6875 171.8588,125.9844 L171.8588,128.7031 Q171.2338,128.125 170.64,127.8594 Q170.0463,127.5781 169.4213,127.5781 Q168.0775,127.5781 167.39,128.6563 Q166.7025,129.7188 166.7025,131.8125 Q166.7025,133.9063 167.39,134.9844 Q168.0775,136.0469 169.4213,136.0469 Q170.0463,136.0469 170.64,135.7813 Q171.2338,135.5 171.8588,134.9219 L171.8588,137.6406 Z "/><text fill="#000000" font-family="sans-serif" font-size="12" lengthAdjust="spacingAndGlyphs" textLength="59" x="189.39" y="136.1543">PlayState</text><line style="stroke: #A80036; stroke-width: 1.5;" x1="94.14" x2="311.14" y1="148" y2="148"/><line style="stroke: #A80036; stroke-width: 1.5;" x1="94.14" x2="311.14" y1="156" y2="156"/><ellipse cx="104.14" cy="167" fill="#84BE84" rx="3" ry="3" style="stroke: #038048; stroke-width: 1.0;"/><text fill="#000000" font-family="sans-serif" font-size="11" lengthAdjust="spacingAndGlyphs" textLength="154" x="113.14" y="170.2104">«override» OnEnter() : void</text><ellipse cx="104.14" cy="179.8047" fill="#84BE84" rx="3" ry="3" style="stroke: #038048; stroke-width: 1.0;"/><text fill="#000000" font-family="sans-serif" font-size="11" lengthAdjust="spacingAndGlyphs" textLength="144" x="113.14" y="183.0151">«override» OnExit() : void</text><ellipse cx="104.14" cy="192.6094" fill="#84BE84" rx="3" ry="3" style="stroke: #038048; stroke-width: 1.0;"/><text fill="#000000" font-family="sans-serif" font-size="11" lengthAdjust="spacingAndGlyphs" textLength="193" x="113.14" y="195.8198">«override» OnFixedUpdate() : void</text><ellipse cx="104.14" cy="205.4141" fill="#84BE84" rx="3" ry="3" style="stroke: #038048; stroke-width: 1.0;"/><text fill="#000000" font-family="sans-serif" font-size="11" lengthAdjust="spacingAndGlyphs" textLength="164" x="113.14" y="208.6245">«override» OnUpdate() : void</text><ellipse cx="104.14" cy="218.2188" fill="#84BE84" rx="3" ry="3" style="stroke: #038048; stroke-width: 1.0;"/><text fill="#000000" font-family="sans-serif" font-size="11" lengthAdjust="spacingAndGlyphs" textLength="188" x="113.14" y="221.4292">«override» OnLateUpdate() : void</text><ellipse cx="104.14" cy="231.0234" fill="#84BE84" rx="3" ry="3" style="stroke: #038048; stroke-width: 1.0;"/><text fill="#000000" font-family="sans-serif" font-size="11" lengthAdjust="spacingAndGlyphs" textLength="145" x="113.14" y="234.2339">SwitchToEditState() : void</text><!--MD5=[e644022de7dea015dd09463c37421447]
class List`1--><rect fill="#FEFECE" filter="url(#fz55973jpql0f)" height="48" id="List`1" style="stroke: #A80036; stroke-width: 1.5;" width="78" x="480.64" y="154.5"/><ellipse cx="495.64" cy="170.5" fill="#ADD1B2" rx="11" ry="11" style="stroke: #A80036; stroke-width: 1.0;"/><path d="M498.6088,176.1406 Q498.0306,176.4375 497.39,176.5781 Q496.7494,176.7344 496.0463,176.7344 Q493.5463,176.7344 492.2181,175.0938 Q490.9056,173.4375 490.9056,170.3125 Q490.9056,167.1875 492.2181,165.5313 Q493.5463,163.875 496.0463,163.875 Q496.7494,163.875 497.39,164.0313 Q498.0463,164.1875 498.6088,164.4844 L498.6088,167.2031 Q497.9838,166.625 497.39,166.3594 Q496.7963,166.0781 496.1713,166.0781 Q494.8275,166.0781 494.14,167.1563 Q493.4525,168.2188 493.4525,170.3125 Q493.4525,172.4063 494.14,173.4844 Q494.8275,174.5469 496.1713,174.5469 Q496.7963,174.5469 497.39,174.2813 Q497.9838,174 498.6088,173.4219 L498.6088,176.1406 Z "/><text fill="#000000" font-family="sans-serif" font-size="12" lengthAdjust="spacingAndGlyphs" textLength="35" x="509.64" y="174.6543">List`1</text><rect fill="#FFFFFF" height="15.9688" style="stroke: #000000; stroke-width: 1.0; stroke-dasharray: 2.0,2.0;" width="9" x="552.64" y="151.5"/><text fill="#000000" font-family="sans-serif" font-size="12" font-style="italic" lengthAdjust="spacingAndGlyphs" textLength="7" x="553.64" y="163.6387">T</text><line style="stroke: #A80036; stroke-width: 1.5;" x1="481.64" x2="557.64" y1="186.5" y2="186.5"/><line style="stroke: #A80036; stroke-width: 1.5;" x1="481.64" x2="557.64" y1="194.5" y2="194.5"/><!--MD5=[da8c3974d335aac350241f92734c9c19]
class Queue`1--><rect fill="#FEFECE" filter="url(#fz55973jpql0f)" height="48" id="Queue`1" style="stroke: #A80036; stroke-width: 1.5;" width="98" x="347.64" y="154.5"/><ellipse cx="362.64" cy="170.5" fill="#ADD1B2" rx="11" ry="11" style="stroke: #A80036; stroke-width: 1.0;"/><path d="M365.6088,176.1406 Q365.0306,176.4375 364.39,176.5781 Q363.7494,176.7344 363.0463,176.7344 Q360.5463,176.7344 359.2181,175.0938 Q357.9056,173.4375 357.9056,170.3125 Q357.9056,167.1875 359.2181,165.5313 Q360.5463,163.875 363.0463,163.875 Q363.7494,163.875 364.39,164.0313 Q365.0463,164.1875 365.6088,164.4844 L365.6088,167.2031 Q364.9838,166.625 364.39,166.3594 Q363.7963,166.0781 363.1713,166.0781 Q361.8275,166.0781 361.14,167.1563 Q360.4525,168.2188 360.4525,170.3125 Q360.4525,172.4063 361.14,173.4844 Q361.8275,174.5469 363.1713,174.5469 Q363.7963,174.5469 364.39,174.2813 Q364.9838,174 365.6088,173.4219 L365.6088,176.1406 Z "/><text fill="#000000" font-family="sans-serif" font-size="12" lengthAdjust="spacingAndGlyphs" textLength="55" x="376.64" y="174.6543">Queue`1</text><rect fill="#FFFFFF" height="15.9688" style="stroke: #000000; stroke-width: 1.0; stroke-dasharray: 2.0,2.0;" width="9" x="439.64" y="151.5"/><text fill="#000000" font-family="sans-serif" font-size="12" font-style="italic" lengthAdjust="spacingAndGlyphs" textLength="7" x="440.64" y="163.6387">T</text><line style="stroke: #A80036; stroke-width: 1.5;" x1="348.64" x2="444.64" y1="186.5" y2="186.5"/><line style="stroke: #A80036; stroke-width: 1.5;" x1="348.64" x2="444.64" y1="194.5" y2="194.5"/><!--MD5=[ced70c4db88c0caf8c044d862484d7f7]
class BaseState--><rect fill="#FEFECE" filter="url(#fz55973jpql0f)" height="48" id="BaseState" style="stroke: #A80036; stroke-width: 1.5;" width="97" x="154.14" y="8"/><ellipse cx="169.14" cy="24" fill="#ADD1B2" rx="11" ry="11" style="stroke: #A80036; stroke-width: 1.0;"/><path d="M172.1088,29.6406 Q171.5306,29.9375 170.89,30.0781 Q170.2494,30.2344 169.5463,30.2344 Q167.0463,30.2344 165.7181,28.5938 Q164.4056,26.9375 164.4056,23.8125 Q164.4056,20.6875 165.7181,19.0313 Q167.0463,17.375 169.5463,17.375 Q170.2494,17.375 170.89,17.5313 Q171.5463,17.6875 172.1088,17.9844 L172.1088,20.7031 Q171.4838,20.125 170.89,19.8594 Q170.2963,19.5781 169.6713,19.5781 Q168.3275,19.5781 167.64,20.6563 Q166.9525,21.7188 166.9525,23.8125 Q166.9525,25.9063 167.64,26.9844 Q168.3275,28.0469 169.6713,28.0469 Q170.2963,28.0469 170.89,27.7813 Q171.4838,27.5 172.1088,26.9219 L172.1088,29.6406 Z "/><text fill="#000000" font-family="sans-serif" font-size="12" lengthAdjust="spacingAndGlyphs" textLength="65" x="183.14" y="28.1543">BaseState</text><line style="stroke: #A80036; stroke-width: 1.5;" x1="155.14" x2="250.14" y1="40" y2="40"/><line style="stroke: #A80036; stroke-width: 1.5;" x1="155.14" x2="250.14" y1="48" y2="48"/><!--MD5=[47f9f6bfe5cfd9169913797a39737c41]
class InputCommands--><rect fill="#FEFECE" filter="url(#fz55973jpql0f)" height="48" id="InputCommands" style="stroke: #A80036; stroke-width: 1.5;" width="133" x="46.14" y="301"/><ellipse cx="61.14" cy="317" fill="#ADD1B2" rx="11" ry="11" style="stroke: #A80036; stroke-width: 1.0;"/><path d="M64.1088,322.6406 Q63.5306,322.9375 62.89,323.0781 Q62.2494,323.2344 61.5463,323.2344 Q59.0463,323.2344 57.7181,321.5938 Q56.4056,319.9375 56.4056,316.8125 Q56.4056,313.6875 57.7181,312.0313 Q59.0463,310.375 61.5463,310.375 Q62.2494,310.375 62.89,310.5313 Q63.5463,310.6875 64.1088,310.9844 L64.1088,313.7031 Q63.4838,313.125 62.89,312.8594 Q62.2963,312.5781 61.6713,312.5781 Q60.3275,312.5781 59.64,313.6563 Q58.9525,314.7188 58.9525,316.8125 Q58.9525,318.9063 59.64,319.9844 Q60.3275,321.0469 61.6713,321.0469 Q62.2963,321.0469 62.89,320.7813 Q63.4838,320.5 64.1088,319.9219 L64.1088,322.6406 Z "/><text fill="#000000" font-family="sans-serif" font-size="12" lengthAdjust="spacingAndGlyphs" textLength="101" x="75.14" y="321.1543">InputCommands</text><line style="stroke: #A80036; stroke-width: 1.5;" x1="47.14" x2="178.14" y1="333" y2="333"/><line style="stroke: #A80036; stroke-width: 1.5;" x1="47.14" x2="178.14" y1="341" y2="341"/><!--MD5=[a88e068c787d4f33cced8e983488a95f]
class PlayerStateManager--><rect fill="#FEFECE" filter="url(#fz55973jpql0f)" height="48" id="PlayerStateManager" style="stroke: #A80036; stroke-width: 1.5;" width="159" x="214.14" y="301"/><ellipse cx="229.14" cy="317" fill="#ADD1B2" rx="11" ry="11" style="stroke: #A80036; stroke-width: 1.0;"/><path d="M232.1088,322.6406 Q231.5306,322.9375 230.89,323.0781 Q230.2494,323.2344 229.5463,323.2344 Q227.0463,323.2344 225.7181,321.5938 Q224.4056,319.9375 224.4056,316.8125 Q224.4056,313.6875 225.7181,312.0313 Q227.0463,310.375 229.5463,310.375 Q230.2494,310.375 230.89,310.5313 Q231.5463,310.6875 232.1088,310.9844 L232.1088,313.7031 Q231.4838,313.125 230.89,312.8594 Q230.2963,312.5781 229.6713,312.5781 Q228.3275,312.5781 227.64,313.6563 Q226.9525,314.7188 226.9525,316.8125 Q226.9525,318.9063 227.64,319.9844 Q228.3275,321.0469 229.6713,321.0469 Q230.2963,321.0469 230.89,320.7813 Q231.4838,320.5 232.1088,319.9219 L232.1088,322.6406 Z "/><text fill="#000000" font-family="sans-serif" font-size="12" lengthAdjust="spacingAndGlyphs" textLength="127" x="243.14" y="321.1543">PlayerStateManager</text><line style="stroke: #A80036; stroke-width: 1.5;" x1="215.14" x2="372.14" y1="333" y2="333"/><line style="stroke: #A80036; stroke-width: 1.5;" x1="215.14" x2="372.14" y1="341" y2="341"/><!--MD5=[9a8e1510a88b3b1e9985d5c625a91de1]
reverse link BaseState to PlayState--><path d="M202.64,76.67 C202.64,89.05 202.64,102.77 202.64,115.99 " fill="none" id="BaseState&lt;-PlayState" style="stroke: #A80036; stroke-width: 1.0;"/><polygon fill="none" points="195.64,76.22,202.64,56.22,209.64,76.22,195.64,76.22" style="stroke: #A80036; stroke-width: 1.0;"/><!--MD5=[a93559467239a8843e6ebc083f3e0428]
link PlayState to List`1--><path d="M293.6719,109.9035 C293.6719,109.9035 329.92,91.3 348.14,86 C389.96,73.83 406.91,67.07 446.14,86 C470.65,97.83 489.5,122.25 501.97,143.03 " fill="none" id="PlayState-List`1" style="stroke: #A80036; stroke-width: 1.0;"/><polygon fill="#A80036" points="508.4,154.41,507.4505,144.607,505.9383,150.058,500.4873,148.5458,508.4,154.41" style="stroke: #A80036; stroke-width: 1.0;"/><line style="stroke: #A80036; stroke-width: 1.0;" x1="505.9383" x2="502" y1="150.058" y2="143.09"/><polygon fill="#FFFFFF" points="283.33,115.99,290.5298,116.394,293.6719,109.9035,286.4721,109.4994,283.33,115.99" style="stroke: #A80036; stroke-width: 1.0;"/><text fill="#000000" font-family="sans-serif" font-size="13" lengthAdjust="spacingAndGlyphs" textLength="148" x="338.5572" y="143.399">runners&lt;RunnerBase&gt;</text><!--MD5=[359099f8d75d1f978bcd3232322a6352]
link PlayState to Queue`1--><path d="M323.9312,222.371 C323.9312,222.371 345.72,215.33 356.05,209.52 " fill="none" id="PlayState-Queue`1" style="stroke: #A80036; stroke-width: 1.0;"/><polygon fill="#A80036" points="367.26,202.59,357.5008,203.9157,363.0059,205.2172,361.7043,210.7223,367.26,202.59" style="stroke: #A80036; stroke-width: 1.0;"/><line style="stroke: #A80036; stroke-width: 1.0;" x1="363.0059" x2="356.2" y1="205.2172" y2="209.43"/><polygon fill="#FFFFFF" points="312.14,224.6,318.7786,227.4159,323.9312,222.371,317.2926,219.5551,312.14,224.6" style="stroke: #A80036; stroke-width: 1.0;"/><text fill="#000000" font-family="sans-serif" font-size="13" lengthAdjust="spacingAndGlyphs" textLength="213" x="356.3858" y="222.5577">newRunnesQueue&lt;RunnerBase&gt;</text><!--MD5=[359099f8d75d1f978bcd3232322a6352]
link PlayState to Queue`1--><path d="M323.9312,134.629 C323.9312,134.629 345.72,141.67 356.05,147.48 " fill="none" id="PlayState-Queue`1-1" style="stroke: #A80036; stroke-width: 1.0;"/><polygon fill="#A80036" points="367.26,154.41,361.7043,146.2777,363.0059,151.7828,357.5008,153.0843,367.26,154.41" style="stroke: #A80036; stroke-width: 1.0;"/><line style="stroke: #A80036; stroke-width: 1.0;" x1="363.0059" x2="356.2" y1="151.7828" y2="147.57"/><polygon fill="#FFFFFF" points="312.14,132.4,317.2926,137.4449,323.9312,134.629,318.7786,129.5841,312.14,132.4" style="stroke: #A80036; stroke-width: 1.0;"/><text fill="#000000" font-family="sans-serif" font-size="13" lengthAdjust="spacingAndGlyphs" textLength="237" x="358.5782" y="143.399">removeRunnesQueue&lt;RunnerBase&gt;</text><!--MD5=[7715a0fb0bb635a0853f0a208049077c]
link PlayState to InputCommands--><path d="M164.21,241.2 C152.15,260.55 139.46,280.94 129.68,296.64 " fill="none" id="PlayState-&gt;InputCommands" style="stroke: #A80036; stroke-width: 1.0;"/><polygon fill="#A80036" points="127,300.94,135.1536,295.4157,129.6436,296.696,128.3632,291.1859,127,300.94" style="stroke: #A80036; stroke-width: 1.0;"/><text fill="#000000" font-family="sans-serif" font-size="13" lengthAdjust="spacingAndGlyphs" textLength="106" x="11.0985" y="289.9367">inputCommands</text><!--MD5=[55b82f9027f6b8c62a1df4477ae2e6a8]
link PlayState to PlayerStateManager--><path d="M241.49,241.2 C253.68,260.55 266.52,280.94 276.4,296.64 " fill="none" id="PlayState-&gt;PlayerStateManager" style="stroke: #A80036; stroke-width: 1.0;"/><polygon fill="#A80036" points="279.11,300.94,277.6848,291.1948,276.4395,296.7129,270.9214,295.4676,279.11,300.94" style="stroke: #A80036; stroke-width: 1.0;"/><text fill="#000000" font-family="sans-serif" font-size="13" lengthAdjust="spacingAndGlyphs" textLength="130" x="175.028" y="289.8748">playerStateManager</text><!--MD5=[be325318e137b2a93c680e7cea499e27]
@startuml
class PlayState {
    + <<override>> OnEnter() : void
    + <<override>> OnExit() : void
    + <<override>> OnFixedUpdate() : void
    + <<override>> OnUpdate() : void
    + <<override>> OnLateUpdate() : void
    + SwitchToEditState() : void
}
class "List`1"<T> {
}
class "Queue`1"<T> {
}
BaseState <|- - PlayState
PlayState o-> "runners<RunnerBase>" "List`1"
PlayState o-> "newRunnesQueue<RunnerBase>" "Queue`1"
PlayState o-> "removeRunnesQueue<RunnerBase>" "Queue`1"
PlayState - -> "inputCommands" InputCommands
PlayState - -> "playerStateManager" PlayerStateManager
@enduml

PlantUML version 1.2020.02(Sun Mar 01 10:22:07 GMT 2020)
(GPL source distribution)
Java Runtime: OpenJDK Runtime Environment
JVM: OpenJDK 64-Bit Server VM
Java Version: 11.0.9+11-Ubuntu-0ubuntu1
Operating System: Linux
Default Encoding: ANSI_X3.4-1968
Language: en
Country: US
--></g></svg>