<?xml version="1.0" encoding="UTF-8" standalone="no"?><svg xmlns="http://www.w3.org/2000/svg" xmlns:xlink="http://www.w3.org/1999/xlink" contentScriptType="application/ecmascript" contentStyleType="text/css" height="188px" preserveAspectRatio="none" style="width:551px;height:188px;" version="1.1" viewBox="0 0 551 188" width="551px" zoomAndPan="magnify"><defs><filter height="300%" id="f1tsnmfuk5uga1" width="300%" x="-1" y="-1"><feGaussianBlur result="blurOut" stdDeviation="2.0"/><feColorMatrix in="blurOut" result="blurOut2" type="matrix" values="0 0 0 0 0 0 0 0 0 0 0 0 0 0 0 0 0 0 .4 0"/><feOffset dx="4.0" dy="4.0" in="blurOut2" result="blurOut3"/><feBlend in="SourceGraphic" in2="blurOut3" mode="normal"/></filter></defs><g><!--MD5=[31796a549d5a5eebfa62628789de4c0a]
class GameData--><rect fill="#FEFECE" filter="url(#f1tsnmfuk5uga1)" height="60.8047" id="GameData" style="stroke: #A80036; stroke-width: 1.5;" width="98" x="234.57" y="8"/><ellipse cx="249.57" cy="24" fill="#ADD1B2" rx="11" ry="11" style="stroke: #A80036; stroke-width: 1.0;"/><path d="M252.5388,29.6406 Q251.9606,29.9375 251.32,30.0781 Q250.6794,30.2344 249.9763,30.2344 Q247.4763,30.2344 246.1481,28.5938 Q244.8356,26.9375 244.8356,23.8125 Q244.8356,20.6875 246.1481,19.0313 Q247.4763,17.375 249.9763,17.375 Q250.6794,17.375 251.32,17.5313 Q251.9763,17.6875 252.5388,17.9844 L252.5388,20.7031 Q251.9138,20.125 251.32,19.8594 Q250.7263,19.5781 250.1013,19.5781 Q248.7575,19.5781 248.07,20.6563 Q247.3825,21.7188 247.3825,23.8125 Q247.3825,25.9063 248.07,26.9844 Q248.7575,28.0469 250.1013,28.0469 Q250.7263,28.0469 251.32,27.7813 Q251.9138,27.5 252.5388,26.9219 L252.5388,29.6406 Z "/><text fill="#000000" font-family="sans-serif" font-size="12" lengthAdjust="spacingAndGlyphs" textLength="66" x="263.57" y="28.1543">GameData</text><line style="stroke: #A80036; stroke-width: 1.5;" x1="235.57" x2="331.57" y1="40" y2="40"/><line style="stroke: #A80036; stroke-width: 1.5;" x1="235.57" x2="331.57" y1="48" y2="48"/><ellipse cx="245.57" cy="59" fill="#84BE84" rx="3" ry="3" style="stroke: #038048; stroke-width: 1.0;"/><text fill="#000000" font-family="sans-serif" font-size="11" lengthAdjust="spacingAndGlyphs" textLength="68" x="254.57" y="62.2104">GameData()</text><!--MD5=[e644022de7dea015dd09463c37421447]
class List`1--><rect fill="#FEFECE" filter="url(#f1tsnmfuk5uga1)" height="48" id="List`1" style="stroke: #A80036; stroke-width: 1.5;" width="78" x="244.57" y="129"/><ellipse cx="259.57" cy="145" fill="#ADD1B2" rx="11" ry="11" style="stroke: #A80036; stroke-width: 1.0;"/><path d="M262.5388,150.6406 Q261.9606,150.9375 261.32,151.0781 Q260.6794,151.2344 259.9763,151.2344 Q257.4763,151.2344 256.1481,149.5938 Q254.8356,147.9375 254.8356,144.8125 Q254.8356,141.6875 256.1481,140.0313 Q257.4763,138.375 259.9763,138.375 Q260.6794,138.375 261.32,138.5313 Q261.9763,138.6875 262.5388,138.9844 L262.5388,141.7031 Q261.9138,141.125 261.32,140.8594 Q260.7263,140.5781 260.1013,140.5781 Q258.7575,140.5781 258.07,141.6563 Q257.3825,142.7188 257.3825,144.8125 Q257.3825,146.9063 258.07,147.9844 Q258.7575,149.0469 260.1013,149.0469 Q260.7263,149.0469 261.32,148.7813 Q261.9138,148.5 262.5388,147.9219 L262.5388,150.6406 Z "/><text fill="#000000" font-family="sans-serif" font-size="12" lengthAdjust="spacingAndGlyphs" textLength="35" x="273.57" y="149.1543">List`1</text><rect fill="#FFFFFF" height="15.9688" style="stroke: #000000; stroke-width: 1.0; stroke-dasharray: 2.0,2.0;" width="9" x="316.57" y="126"/><text fill="#000000" font-family="sans-serif" font-size="12" font-style="italic" lengthAdjust="spacingAndGlyphs" textLength="7" x="317.57" y="138.1387">T</text><line style="stroke: #A80036; stroke-width: 1.5;" x1="245.57" x2="321.57" y1="161" y2="161"/><line style="stroke: #A80036; stroke-width: 1.5;" x1="245.57" x2="321.57" y1="169" y2="169"/><!--MD5=[65d619c042c23702cef2ca07d67b1cf6]
class Vector3--><rect fill="#FEFECE" filter="url(#f1tsnmfuk5uga1)" height="48" id="Vector3" style="stroke: #A80036; stroke-width: 1.5;" width="81" x="358.07" y="129"/><ellipse cx="373.07" cy="145" fill="#ADD1B2" rx="11" ry="11" style="stroke: #A80036; stroke-width: 1.0;"/><path d="M376.0388,150.6406 Q375.4606,150.9375 374.82,151.0781 Q374.1794,151.2344 373.4763,151.2344 Q370.9763,151.2344 369.6481,149.5938 Q368.3356,147.9375 368.3356,144.8125 Q368.3356,141.6875 369.6481,140.0313 Q370.9763,138.375 373.4763,138.375 Q374.1794,138.375 374.82,138.5313 Q375.4763,138.6875 376.0388,138.9844 L376.0388,141.7031 Q375.4138,141.125 374.82,140.8594 Q374.2263,140.5781 373.6013,140.5781 Q372.2575,140.5781 371.57,141.6563 Q370.8825,142.7188 370.8825,144.8125 Q370.8825,146.9063 371.57,147.9844 Q372.2575,149.0469 373.6013,149.0469 Q374.2263,149.0469 374.82,148.7813 Q375.4138,148.5 376.0388,147.9219 L376.0388,150.6406 Z "/><text fill="#000000" font-family="sans-serif" font-size="12" lengthAdjust="spacingAndGlyphs" textLength="49" x="387.07" y="149.1543">Vector3</text><line style="stroke: #A80036; stroke-width: 1.5;" x1="359.07" x2="438.07" y1="161" y2="161"/><line style="stroke: #A80036; stroke-width: 1.5;" x1="359.07" x2="438.07" y1="169" y2="169"/><!--MD5=[8163fec67d9db725879d3432b97ffad1]
link GameData to List`1--><path d="M272.19,69.06 C270.31,85.93 270.36,106.98 272.33,123.65 " fill="none" id="GameData-&gt;List`1" style="stroke: #A80036; stroke-width: 1.0;"/><polygon fill="#A80036" points="273,128.67,275.7826,119.2224,272.3429,123.7134,267.852,120.2737,273,128.67" style="stroke: #A80036; stroke-width: 1.0;"/><text fill="#000000" font-family="sans-serif" font-size="13" lengthAdjust="spacingAndGlyphs" textLength="252" x="-12.2889" y="117.9945">terrainObjectData&lt;TerrainObjectData&gt;</text><!--MD5=[8163fec67d9db725879d3432b97ffad1]
link GameData to List`1--><path d="M295.61,69.06 C297.6,85.93 297.55,106.98 295.47,123.65 " fill="none" id="GameData-&gt;List`1-1" style="stroke: #A80036; stroke-width: 1.0;"/><polygon fill="#A80036" points="294.76,128.67,299.9791,120.3177,295.4591,123.7191,292.0577,119.1991,294.76,128.67" style="stroke: #A80036; stroke-width: 1.0;"/><text fill="#000000" font-family="sans-serif" font-size="13" lengthAdjust="spacingAndGlyphs" textLength="216" x="323.8645" y="117.9328">gridObjectData&lt;GridObjectData&gt;</text><!--MD5=[cca90d637880642b1c3f87873b0d7c92]
link GameData to Vector3--><path d="M313.78,69.06 C331.48,86.37 353.66,108.07 370.9,124.93 " fill="none" id="GameData-&gt;Vector3" style="stroke: #A80036; stroke-width: 1.0;"/><polygon fill="#A80036" points="374.72,128.67,371.0918,119.5138,371.1489,125.1704,365.4924,125.2275,374.72,128.67" style="stroke: #A80036; stroke-width: 1.0;"/><text fill="#000000" font-family="sans-serif" font-size="13" lengthAdjust="spacingAndGlyphs" textLength="89" x="326.702" y="117.8742">playerPosition</text><!--MD5=[f7c87853c000f43ceb894a3d462a5e83]
@startuml
class GameData {
    + GameData()
}
class "List`1"<T> {
}
GameData - -> "terrainObjectData<TerrainObjectData>" "List`1"
GameData - -> "gridObjectData<GridObjectData>" "List`1"
GameData - -> "playerPosition" Vector3
@enduml

PlantUML version 1.2020.02(Sun Mar 01 10:22:07 GMT 2020)
(GPL source distribution)
Java Runtime: OpenJDK Runtime Environment
JVM: OpenJDK 64-Bit Server VM
Java Version: 11.0.9+11-Ubuntu-0ubuntu1
Operating System: Linux
Default Encoding: ANSI_X3.4-1968
Language: en
Country: US
--></g></svg>