<?xml version="1.0" encoding="UTF-8" standalone="no"?><svg xmlns="http://www.w3.org/2000/svg" xmlns:xlink="http://www.w3.org/1999/xlink" contentScriptType="application/ecmascript" contentStyleType="text/css" height="239px" preserveAspectRatio="none" style="width:236px;height:239px;" version="1.1" viewBox="0 0 236 239" width="236px" zoomAndPan="magnify"><defs><filter height="300%" id="f19bmxh3jfilky" width="300%" x="-1" y="-1"><feGaussianBlur result="blurOut" stdDeviation="2.0"/><feColorMatrix in="blurOut" result="blurOut2" type="matrix" values="0 0 0 0 0 0 0 0 0 0 0 0 0 0 0 0 0 0 .4 0"/><feOffset dx="4.0" dy="4.0" in="blurOut2" result="blurOut3"/><feBlend in="SourceGraphic" in2="blurOut3" mode="normal"/></filter></defs><g><!--MD5=[8c8e1cdcdb86969f09283b163e22343d]
class PausedState--><rect fill="#FEFECE" filter="url(#f19bmxh3jfilky)" height="112.0234" id="PausedState" style="stroke: #A80036; stroke-width: 1.5;" width="219" x="6" y="116"/><ellipse cx="70.75" cy="132" fill="#ADD1B2" rx="11" ry="11" style="stroke: #A80036; stroke-width: 1.0;"/><path d="M73.7188,137.6406 Q73.1406,137.9375 72.5,138.0781 Q71.8594,138.2344 71.1563,138.2344 Q68.6563,138.2344 67.3281,136.5938 Q66.0156,134.9375 66.0156,131.8125 Q66.0156,128.6875 67.3281,127.0313 Q68.6563,125.375 71.1563,125.375 Q71.8594,125.375 72.5,125.5313 Q73.1563,125.6875 73.7188,125.9844 L73.7188,128.7031 Q73.0938,128.125 72.5,127.8594 Q71.9063,127.5781 71.2813,127.5781 Q69.9375,127.5781 69.25,128.6563 Q68.5625,129.7188 68.5625,131.8125 Q68.5625,133.9063 69.25,134.9844 Q69.9375,136.0469 71.2813,136.0469 Q71.9063,136.0469 72.5,135.7813 Q73.0938,135.5 73.7188,134.9219 L73.7188,137.6406 Z "/><text fill="#000000" font-family="sans-serif" font-size="12" lengthAdjust="spacingAndGlyphs" textLength="81" x="91.25" y="136.1543">PausedState</text><line style="stroke: #A80036; stroke-width: 1.5;" x1="7" x2="224" y1="148" y2="148"/><line style="stroke: #A80036; stroke-width: 1.5;" x1="7" x2="224" y1="156" y2="156"/><ellipse cx="17" cy="167" fill="#84BE84" rx="3" ry="3" style="stroke: #038048; stroke-width: 1.0;"/><text fill="#000000" font-family="sans-serif" font-size="11" lengthAdjust="spacingAndGlyphs" textLength="154" x="26" y="170.2104">«override» OnEnter() : void</text><ellipse cx="17" cy="179.8047" fill="#84BE84" rx="3" ry="3" style="stroke: #038048; stroke-width: 1.0;"/><text fill="#000000" font-family="sans-serif" font-size="11" lengthAdjust="spacingAndGlyphs" textLength="144" x="26" y="183.0151">«override» OnExit() : void</text><ellipse cx="17" cy="192.6094" fill="#84BE84" rx="3" ry="3" style="stroke: #038048; stroke-width: 1.0;"/><text fill="#000000" font-family="sans-serif" font-size="11" lengthAdjust="spacingAndGlyphs" textLength="193" x="26" y="195.8198">«override» OnFixedUpdate() : void</text><ellipse cx="17" cy="205.4141" fill="#84BE84" rx="3" ry="3" style="stroke: #038048; stroke-width: 1.0;"/><text fill="#000000" font-family="sans-serif" font-size="11" lengthAdjust="spacingAndGlyphs" textLength="164" x="26" y="208.6245">«override» OnUpdate() : void</text><ellipse cx="17" cy="218.2188" fill="#84BE84" rx="3" ry="3" style="stroke: #038048; stroke-width: 1.0;"/><text fill="#000000" font-family="sans-serif" font-size="11" lengthAdjust="spacingAndGlyphs" textLength="188" x="26" y="221.4292">«override» OnLateUpdate() : void</text><!--MD5=[ced70c4db88c0caf8c044d862484d7f7]
class BaseState--><rect fill="#FEFECE" filter="url(#f19bmxh3jfilky)" height="48" id="BaseState" style="stroke: #A80036; stroke-width: 1.5;" width="97" x="67" y="8"/><ellipse cx="82" cy="24" fill="#ADD1B2" rx="11" ry="11" style="stroke: #A80036; stroke-width: 1.0;"/><path d="M84.9688,29.6406 Q84.3906,29.9375 83.75,30.0781 Q83.1094,30.2344 82.4063,30.2344 Q79.9063,30.2344 78.5781,28.5938 Q77.2656,26.9375 77.2656,23.8125 Q77.2656,20.6875 78.5781,19.0313 Q79.9063,17.375 82.4063,17.375 Q83.1094,17.375 83.75,17.5313 Q84.4063,17.6875 84.9688,17.9844 L84.9688,20.7031 Q84.3438,20.125 83.75,19.8594 Q83.1563,19.5781 82.5313,19.5781 Q81.1875,19.5781 80.5,20.6563 Q79.8125,21.7188 79.8125,23.8125 Q79.8125,25.9063 80.5,26.9844 Q81.1875,28.0469 82.5313,28.0469 Q83.1563,28.0469 83.75,27.7813 Q84.3438,27.5 84.9688,26.9219 L84.9688,29.6406 Z "/><text fill="#000000" font-family="sans-serif" font-size="12" lengthAdjust="spacingAndGlyphs" textLength="65" x="96" y="28.1543">BaseState</text><line style="stroke: #A80036; stroke-width: 1.5;" x1="68" x2="163" y1="40" y2="40"/><line style="stroke: #A80036; stroke-width: 1.5;" x1="68" x2="163" y1="48" y2="48"/><!--MD5=[7c5242a72b2b53bf537458ae155c6a73]
reverse link BaseState to PausedState--><path d="M115.5,76.25 C115.5,88.82 115.5,102.73 115.5,115.93 " fill="none" id="BaseState&lt;-PausedState" style="stroke: #A80036; stroke-width: 1.0;"/><polygon fill="none" points="108.5,76.1,115.5,56.1,122.5,76.1,108.5,76.1" style="stroke: #A80036; stroke-width: 1.0;"/><!--MD5=[3150978a8c76416630b6cc3a8b17e36b]
@startuml
class PausedState {
    + <<override>> OnEnter() : void
    + <<override>> OnExit() : void
    + <<override>> OnFixedUpdate() : void
    + <<override>> OnUpdate() : void
    + <<override>> OnLateUpdate() : void
}
BaseState <|- - PausedState
@enduml

PlantUML version 1.2020.02(Sun Mar 01 10:22:07 GMT 2020)
(GPL source distribution)
Java Runtime: OpenJDK Runtime Environment
JVM: OpenJDK 64-Bit Server VM
Java Version: 11.0.9+11-Ubuntu-0ubuntu1
Operating System: Linux
Default Encoding: ANSI_X3.4-1968
Language: en
Country: US
--></g></svg>