<?xml version="1.0" encoding="UTF-8" standalone="no"?><svg xmlns="http://www.w3.org/2000/svg" xmlns:xlink="http://www.w3.org/1999/xlink" contentScriptType="application/ecmascript" contentStyleType="text/css" height="334px" preserveAspectRatio="none" style="width:946px;height:334px;" version="1.1" viewBox="0 0 946 334" width="946px" zoomAndPan="magnify"><defs><filter height="300%" id="fgsq628eot0sz" width="300%" x="-1" y="-1"><feGaussianBlur result="blurOut" stdDeviation="2.0"/><feColorMatrix in="blurOut" result="blurOut2" type="matrix" values="0 0 0 0 0 0 0 0 0 0 0 0 0 0 0 0 0 0 .4 0"/><feOffset dx="4.0" dy="4.0" in="blurOut2" result="blurOut3"/><feBlend in="SourceGraphic" in2="blurOut3" mode="normal"/></filter></defs><g><!--MD5=[d90a1d56f5f90592b31ccf04cb25e477]
class BackGroundLayerOptions--><rect fill="#FEFECE" filter="url(#fgsq628eot0sz)" height="99.2188" id="BackGroundLayerOptions" style="stroke: #A80036; stroke-width: 1.5;" width="359" x="208.63" y="116"/><ellipse cx="305.38" cy="132" fill="#ADD1B2" rx="11" ry="11" style="stroke: #A80036; stroke-width: 1.0;"/><path d="M308.3488,137.6406 Q307.7706,137.9375 307.13,138.0781 Q306.4894,138.2344 305.7863,138.2344 Q303.2863,138.2344 301.9581,136.5938 Q300.6456,134.9375 300.6456,131.8125 Q300.6456,128.6875 301.9581,127.0313 Q303.2863,125.375 305.7863,125.375 Q306.4894,125.375 307.13,125.5313 Q307.7863,125.6875 308.3488,125.9844 L308.3488,128.7031 Q307.7238,128.125 307.13,127.8594 Q306.5363,127.5781 305.9113,127.5781 Q304.5675,127.5781 303.88,128.6563 Q303.1925,129.7188 303.1925,131.8125 Q303.1925,133.9063 303.88,134.9844 Q304.5675,136.0469 305.9113,136.0469 Q306.5363,136.0469 307.13,135.7813 Q307.7238,135.5 308.3488,134.9219 L308.3488,137.6406 Z "/><text fill="#000000" font-family="sans-serif" font-size="12" lengthAdjust="spacingAndGlyphs" textLength="157" x="325.88" y="136.1543">BackGroundLayerOptions</text><line style="stroke: #A80036; stroke-width: 1.5;" x1="209.63" x2="566.63" y1="148" y2="148"/><line style="stroke: #A80036; stroke-width: 1.5;" x1="209.63" x2="566.63" y1="156" y2="156"/><ellipse cx="219.63" cy="167" fill="#84BE84" rx="3" ry="3" style="stroke: #038048; stroke-width: 1.0;"/><text fill="#000000" font-family="sans-serif" font-size="11" lengthAdjust="spacingAndGlyphs" textLength="288" x="228.63" y="170.2104">OnPointerDown(eventData:PointerEventData) : void</text><ellipse cx="219.63" cy="179.8047" fill="#84BE84" rx="3" ry="3" style="stroke: #038048; stroke-width: 1.0;"/><text fill="#000000" font-family="sans-serif" font-size="11" lengthAdjust="spacingAndGlyphs" textLength="272" x="228.63" y="183.0151">OnPointerUp(eventData:PointerEventData) : void</text><ellipse cx="219.63" cy="192.6094" fill="#84BE84" rx="3" ry="3" style="stroke: #038048; stroke-width: 1.0;"/><text fill="#000000" font-family="sans-serif" font-size="11" lengthAdjust="spacingAndGlyphs" text-decoration="underline" textLength="137" x="228.63" y="195.8198">ClearDropdowns() : void</text><ellipse cx="219.63" cy="205.4141" fill="#84BE84" rx="3" ry="3" style="stroke: #038048; stroke-width: 1.0;"/><text fill="#000000" font-family="sans-serif" font-size="11" lengthAdjust="spacingAndGlyphs" textLength="333" x="228.63" y="208.6245">OpenFloatingDropDown(eventData:PointerEventData) : void</text><!--MD5=[e644022de7dea015dd09463c37421447]
class List`1--><rect fill="#FEFECE" filter="url(#fgsq628eot0sz)" height="48" id="List`1" style="stroke: #A80036; stroke-width: 1.5;" width="78" x="603.13" y="141.5"/><ellipse cx="618.13" cy="157.5" fill="#ADD1B2" rx="11" ry="11" style="stroke: #A80036; stroke-width: 1.0;"/><path d="M621.0988,163.1406 Q620.5206,163.4375 619.88,163.5781 Q619.2394,163.7344 618.5363,163.7344 Q616.0363,163.7344 614.7081,162.0938 Q613.3956,160.4375 613.3956,157.3125 Q613.3956,154.1875 614.7081,152.5313 Q616.0363,150.875 618.5363,150.875 Q619.2394,150.875 619.88,151.0313 Q620.5363,151.1875 621.0988,151.4844 L621.0988,154.2031 Q620.4738,153.625 619.88,153.3594 Q619.2863,153.0781 618.6613,153.0781 Q617.3175,153.0781 616.63,154.1563 Q615.9425,155.2188 615.9425,157.3125 Q615.9425,159.4063 616.63,160.4844 Q617.3175,161.5469 618.6613,161.5469 Q619.2863,161.5469 619.88,161.2813 Q620.4738,161 621.0988,160.4219 L621.0988,163.1406 Z "/><text fill="#000000" font-family="sans-serif" font-size="12" lengthAdjust="spacingAndGlyphs" textLength="35" x="632.13" y="161.6543">List`1</text><rect fill="#FFFFFF" height="15.9688" style="stroke: #000000; stroke-width: 1.0; stroke-dasharray: 2.0,2.0;" width="9" x="675.13" y="138.5"/><text fill="#000000" font-family="sans-serif" font-size="12" font-style="italic" lengthAdjust="spacingAndGlyphs" textLength="7" x="676.13" y="150.6387">T</text><line style="stroke: #A80036; stroke-width: 1.5;" x1="604.13" x2="680.13" y1="173.5" y2="173.5"/><line style="stroke: #A80036; stroke-width: 1.5;" x1="604.13" x2="680.13" y1="181.5" y2="181.5"/><!--MD5=[cdc675492b5c7404f9d1fea69146a946]
class EditorBase--><rect fill="#FEFECE" filter="url(#fgsq628eot0sz)" height="48" id="EditorBase" style="stroke: #A80036; stroke-width: 1.5;" width="100" x="180.13" y="8"/><ellipse cx="195.13" cy="24" fill="#ADD1B2" rx="11" ry="11" style="stroke: #A80036; stroke-width: 1.0;"/><path d="M198.0988,29.6406 Q197.5206,29.9375 196.88,30.0781 Q196.2394,30.2344 195.5363,30.2344 Q193.0363,30.2344 191.7081,28.5938 Q190.3956,26.9375 190.3956,23.8125 Q190.3956,20.6875 191.7081,19.0313 Q193.0363,17.375 195.5363,17.375 Q196.2394,17.375 196.88,17.5313 Q197.5363,17.6875 198.0988,17.9844 L198.0988,20.7031 Q197.4738,20.125 196.88,19.8594 Q196.2863,19.5781 195.6613,19.5781 Q194.3175,19.5781 193.63,20.6563 Q192.9425,21.7188 192.9425,23.8125 Q192.9425,25.9063 193.63,26.9844 Q194.3175,28.0469 195.6613,28.0469 Q196.2863,28.0469 196.88,27.7813 Q197.4738,27.5 198.0988,26.9219 L198.0988,29.6406 Z "/><text fill="#000000" font-family="sans-serif" font-size="12" lengthAdjust="spacingAndGlyphs" textLength="68" x="209.13" y="28.1543">EditorBase</text><line style="stroke: #A80036; stroke-width: 1.5;" x1="181.13" x2="279.13" y1="40" y2="40"/><line style="stroke: #A80036; stroke-width: 1.5;" x1="181.13" x2="279.13" y1="48" y2="48"/><!--MD5=[4b7da3b5f2f7c5203c3ee658d897f239]
class IPointerUpHandler--><rect fill="#FEFECE" filter="url(#fgsq628eot0sz)" height="48" id="IPointerUpHandler" style="stroke: #A80036; stroke-width: 1.5;" width="146" x="315.13" y="8"/><ellipse cx="330.13" cy="24" fill="#ADD1B2" rx="11" ry="11" style="stroke: #A80036; stroke-width: 1.0;"/><path d="M333.0988,29.6406 Q332.5206,29.9375 331.88,30.0781 Q331.2394,30.2344 330.5363,30.2344 Q328.0363,30.2344 326.7081,28.5938 Q325.3956,26.9375 325.3956,23.8125 Q325.3956,20.6875 326.7081,19.0313 Q328.0363,17.375 330.5363,17.375 Q331.2394,17.375 331.88,17.5313 Q332.5363,17.6875 333.0988,17.9844 L333.0988,20.7031 Q332.4738,20.125 331.88,19.8594 Q331.2863,19.5781 330.6613,19.5781 Q329.3175,19.5781 328.63,20.6563 Q327.9425,21.7188 327.9425,23.8125 Q327.9425,25.9063 328.63,26.9844 Q329.3175,28.0469 330.6613,28.0469 Q331.2863,28.0469 331.88,27.7813 Q332.4738,27.5 333.0988,26.9219 L333.0988,29.6406 Z "/><text fill="#000000" font-family="sans-serif" font-size="12" lengthAdjust="spacingAndGlyphs" textLength="114" x="344.13" y="28.1543">IPointerUpHandler</text><line style="stroke: #A80036; stroke-width: 1.5;" x1="316.13" x2="460.13" y1="40" y2="40"/><line style="stroke: #A80036; stroke-width: 1.5;" x1="316.13" x2="460.13" y1="48" y2="48"/><!--MD5=[461668fedb11703ee0efd569ed7c4f48]
class IPointerDownHandler--><rect fill="#FEFECE" filter="url(#fgsq628eot0sz)" height="48" id="IPointerDownHandler" style="stroke: #A80036; stroke-width: 1.5;" width="163" x="496.63" y="8"/><ellipse cx="511.63" cy="24" fill="#ADD1B2" rx="11" ry="11" style="stroke: #A80036; stroke-width: 1.0;"/><path d="M514.5988,29.6406 Q514.0206,29.9375 513.38,30.0781 Q512.7394,30.2344 512.0363,30.2344 Q509.5363,30.2344 508.2081,28.5938 Q506.8956,26.9375 506.8956,23.8125 Q506.8956,20.6875 508.2081,19.0313 Q509.5363,17.375 512.0363,17.375 Q512.7394,17.375 513.38,17.5313 Q514.0363,17.6875 514.5988,17.9844 L514.5988,20.7031 Q513.9738,20.125 513.38,19.8594 Q512.7863,19.5781 512.1613,19.5781 Q510.8175,19.5781 510.13,20.6563 Q509.4425,21.7188 509.4425,23.8125 Q509.4425,25.9063 510.13,26.9844 Q510.8175,28.0469 512.1613,28.0469 Q512.7863,28.0469 513.38,27.7813 Q513.9738,27.5 514.5988,26.9219 L514.5988,29.6406 Z "/><text fill="#000000" font-family="sans-serif" font-size="12" lengthAdjust="spacingAndGlyphs" textLength="131" x="525.63" y="28.1543">IPointerDownHandler</text><line style="stroke: #A80036; stroke-width: 1.5;" x1="497.63" x2="658.63" y1="40" y2="40"/><line style="stroke: #A80036; stroke-width: 1.5;" x1="497.63" x2="658.63" y1="48" y2="48"/><!--MD5=[efac5280600e76c4208457733b73d915]
class DropDownMenu--><rect fill="#FEFECE" filter="url(#fgsq628eot0sz)" height="48" id="DropDownMenu" style="stroke: #A80036; stroke-width: 1.5;" width="130" x="61.13" y="275"/><ellipse cx="76.13" cy="291" fill="#ADD1B2" rx="11" ry="11" style="stroke: #A80036; stroke-width: 1.0;"/><path d="M79.0988,296.6406 Q78.5206,296.9375 77.88,297.0781 Q77.2394,297.2344 76.5363,297.2344 Q74.0363,297.2344 72.7081,295.5938 Q71.3956,293.9375 71.3956,290.8125 Q71.3956,287.6875 72.7081,286.0313 Q74.0363,284.375 76.5363,284.375 Q77.2394,284.375 77.88,284.5313 Q78.5363,284.6875 79.0988,284.9844 L79.0988,287.7031 Q78.4738,287.125 77.88,286.8594 Q77.2863,286.5781 76.6613,286.5781 Q75.3175,286.5781 74.63,287.6563 Q73.9425,288.7188 73.9425,290.8125 Q73.9425,292.9063 74.63,293.9844 Q75.3175,295.0469 76.6613,295.0469 Q77.2863,295.0469 77.88,294.7813 Q78.4738,294.5 79.0988,293.9219 L79.0988,296.6406 Z "/><text fill="#000000" font-family="sans-serif" font-size="12" lengthAdjust="spacingAndGlyphs" textLength="98" x="90.13" y="295.1543">DropDownMenu</text><line style="stroke: #A80036; stroke-width: 1.5;" x1="62.13" x2="190.13" y1="307" y2="307"/><line style="stroke: #A80036; stroke-width: 1.5;" x1="62.13" x2="190.13" y1="315" y2="315"/><!--MD5=[5edf34eb39d3b3dfde6419c044ab889f]
class Canvas--><rect fill="#FEFECE" filter="url(#fgsq628eot0sz)" height="48" id="Canvas" style="stroke: #A80036; stroke-width: 1.5;" width="77" x="226.63" y="275"/><ellipse cx="241.63" cy="291" fill="#ADD1B2" rx="11" ry="11" style="stroke: #A80036; stroke-width: 1.0;"/><path d="M244.5988,296.6406 Q244.0206,296.9375 243.38,297.0781 Q242.7394,297.2344 242.0363,297.2344 Q239.5363,297.2344 238.2081,295.5938 Q236.8956,293.9375 236.8956,290.8125 Q236.8956,287.6875 238.2081,286.0313 Q239.5363,284.375 242.0363,284.375 Q242.7394,284.375 243.38,284.5313 Q244.0363,284.6875 244.5988,284.9844 L244.5988,287.7031 Q243.9738,287.125 243.38,286.8594 Q242.7863,286.5781 242.1613,286.5781 Q240.8175,286.5781 240.13,287.6563 Q239.4425,288.7188 239.4425,290.8125 Q239.4425,292.9063 240.13,293.9844 Q240.8175,295.0469 242.1613,295.0469 Q242.7863,295.0469 243.38,294.7813 Q243.9738,294.5 244.5988,293.9219 L244.5988,296.6406 Z "/><text fill="#000000" font-family="sans-serif" font-size="12" lengthAdjust="spacingAndGlyphs" textLength="45" x="255.63" y="295.1543">Canvas</text><line style="stroke: #A80036; stroke-width: 1.5;" x1="227.63" x2="302.63" y1="307" y2="307"/><line style="stroke: #A80036; stroke-width: 1.5;" x1="227.63" x2="302.63" y1="315" y2="315"/><!--MD5=[3ead63e7a6dbaeb1466e3b865cfef6ea]
class UnityEvent--><rect fill="#FEFECE" filter="url(#fgsq628eot0sz)" height="48" id="UnityEvent" style="stroke: #A80036; stroke-width: 1.5;" width="98" x="339.13" y="275"/><ellipse cx="354.13" cy="291" fill="#ADD1B2" rx="11" ry="11" style="stroke: #A80036; stroke-width: 1.0;"/><path d="M357.0988,296.6406 Q356.5206,296.9375 355.88,297.0781 Q355.2394,297.2344 354.5363,297.2344 Q352.0363,297.2344 350.7081,295.5938 Q349.3956,293.9375 349.3956,290.8125 Q349.3956,287.6875 350.7081,286.0313 Q352.0363,284.375 354.5363,284.375 Q355.2394,284.375 355.88,284.5313 Q356.5363,284.6875 357.0988,284.9844 L357.0988,287.7031 Q356.4738,287.125 355.88,286.8594 Q355.2863,286.5781 354.6613,286.5781 Q353.3175,286.5781 352.63,287.6563 Q351.9425,288.7188 351.9425,290.8125 Q351.9425,292.9063 352.63,293.9844 Q353.3175,295.0469 354.6613,295.0469 Q355.2863,295.0469 355.88,294.7813 Q356.4738,294.5 357.0988,293.9219 L357.0988,296.6406 Z "/><text fill="#000000" font-family="sans-serif" font-size="12" lengthAdjust="spacingAndGlyphs" textLength="66" x="368.13" y="295.1543">UnityEvent</text><line style="stroke: #A80036; stroke-width: 1.5;" x1="340.13" x2="436.13" y1="307" y2="307"/><line style="stroke: #A80036; stroke-width: 1.5;" x1="340.13" x2="436.13" y1="315" y2="315"/><!--MD5=[0c1d28805c9d5faf898e1d02d62da19b]
reverse link EditorBase to BackGroundLayerOptions--><path d="M273.61,69.19 C290.95,83.62 311.18,100.46 329.77,115.93 " fill="none" id="EditorBase&lt;-BackGroundLayerOptions" style="stroke: #A80036; stroke-width: 1.0;"/><polygon fill="none" points="268.91,74.38,258.01,56.21,277.86,63.62,268.91,74.38" style="stroke: #A80036; stroke-width: 1.0;"/><!--MD5=[3ffc74077146aa2484df9d1bcc763372]
reverse link IPointerUpHandler to BackGroundLayerOptions--><path d="M388.13,76.51 C388.13,89.14 388.13,103.01 388.13,115.93 " fill="none" id="IPointerUpHandler&lt;-BackGroundLayerOptions" style="stroke: #A80036; stroke-width: 1.0;"/><polygon fill="none" points="381.13,76.21,388.13,56.21,395.13,76.21,381.13,76.21" style="stroke: #A80036; stroke-width: 1.0;"/><!--MD5=[6c4f626453928f5c5c7071ae29fb5afb]
reverse link IPointerDownHandler to BackGroundLayerOptions--><path d="M528.09,67.64 C506.74,82.41 481.46,99.9 458.3,115.93 " fill="none" id="IPointerDownHandler&lt;-BackGroundLayerOptions" style="stroke: #A80036; stroke-width: 1.0;"/><polygon fill="none" points="524.17,61.83,544.6,56.21,532.14,73.34,524.17,61.83" style="stroke: #A80036; stroke-width: 1.0;"/><!--MD5=[854f403c1584423685fcd06e8a907e48]
link BackGroundLayerOptions to List`1--><path d="M579.71,165.5 C579.71,165.5 586.86,165.5 589.83,165.5 " fill="none" id="BackGroundLayerOptions-List`1" style="stroke: #A80036; stroke-width: 1.0;"/><polygon fill="#A80036" points="602.89,165.5,593.89,161.5,597.89,165.5,593.89,169.5,602.89,165.5" style="stroke: #A80036; stroke-width: 1.0;"/><line style="stroke: #A80036; stroke-width: 1.0;" x1="597.89" x2="589.89" y1="165.5" y2="165.5"/><polygon fill="#FFFFFF" points="567.71,165.5,573.71,169.5,579.71,165.5,573.71,161.5,567.71,165.5" style="stroke: #A80036; stroke-width: 1.0;"/><text fill="#000000" font-family="sans-serif" font-size="13" lengthAdjust="spacingAndGlyphs" textLength="246" x="688.744" y="154.9475">AllDropDownMenus&lt;DropDownMenu&gt;</text><!--MD5=[f3e7deef5c1c3ec3f050080b44779450]
link BackGroundLayerOptions to DropDownMenu--><path d="M291.31,215.09 C252.41,234.62 209.19,256.31 176.71,272.61 " fill="none" id="BackGroundLayerOptions-&gt;DropDownMenu" style="stroke: #A80036; stroke-width: 1.0;"/><polygon fill="#A80036" points="172,274.98,181.8381,274.5202,176.4693,272.7382,178.2513,267.3694,172,274.98" style="stroke: #A80036; stroke-width: 1.0;"/><text fill="#000000" font-family="sans-serif" font-size="13" lengthAdjust="spacingAndGlyphs" textLength="151" x="13.4073" y="263.9869">FloatingDropDownMenu</text><!--MD5=[817af90caff3e3082b838ceae08f6bb9]
link BackGroundLayerOptions to Canvas--><path d="M342.68,215.09 C325.01,233.98 305.45,254.89 290.39,270.99 " fill="none" id="BackGroundLayerOptions-&gt;Canvas" style="stroke: #A80036; stroke-width: 1.0;"/><polygon fill="#A80036" points="286.66,274.98,295.7256,271.131,290.0721,271.3252,289.8779,265.6717,286.66,274.98" style="stroke: #A80036; stroke-width: 1.0;"/><text fill="#000000" font-family="sans-serif" font-size="13" lengthAdjust="spacingAndGlyphs" textLength="124" x="308.0363" y="263.9252">backGroundCanvas</text><!--MD5=[4379d4345db621baf3ee3861febe9739]
link BackGroundLayerOptions to UnityEvent--><path d="M324.9,215.09 C320.17,234.79 323.75,256.69 335.65,273.03 " fill="none" id="BackGroundLayerOptions-&gt;UnityEvent" style="stroke: #A80036; stroke-width: 1.0;"/><polygon fill="#A80036" points="338.85,277.07,336.3767,267.5367,335.737,273.1573,330.1164,272.5176,338.85,277.07" style="stroke: #A80036; stroke-width: 1.0;"/><text fill="#000000" font-family="sans-serif" font-size="13" lengthAdjust="spacingAndGlyphs" textLength="67" x="293.9106" y="263.9625">leftClickUp</text><!--MD5=[4379d4345db621baf3ee3861febe9739]
link BackGroundLayerOptions to UnityEvent--><path d="M350.33,215.09 C347.67,233.66 349.42,254.18 355.59,270.17 " fill="none" id="BackGroundLayerOptions-&gt;UnityEvent-1" style="stroke: #A80036; stroke-width: 1.0;"/><polygon fill="#A80036" points="357.64,274.98,357.7713,265.132,355.6704,270.3843,350.4181,268.2834,357.64,274.98" style="stroke: #A80036; stroke-width: 1.0;"/><text fill="#000000" font-family="sans-serif" font-size="13" lengthAdjust="spacingAndGlyphs" textLength="90" x="361.3582" y="263.9869">middleClickUp</text><!--MD5=[4379d4345db621baf3ee3861febe9739]
link BackGroundLayerOptions to UnityEvent--><path d="M375.77,215.09 C374.91,233.5 375.46,253.83 377.44,269.75 " fill="none" id="BackGroundLayerOptions-&gt;UnityEvent-2" style="stroke: #A80036; stroke-width: 1.0;"/><polygon fill="#A80036" points="378.16,274.98,380.8891,265.5168,377.4749,270.0272,372.9645,266.613,378.16,274.98" style="stroke: #A80036; stroke-width: 1.0;"/><text fill="#000000" font-family="sans-serif" font-size="13" lengthAdjust="spacingAndGlyphs" textLength="76" x="418.1028" y="263.6005">rightClickUp</text><!--MD5=[4379d4345db621baf3ee3861febe9739]
link BackGroundLayerOptions to UnityEvent--><path d="M401.21,215.09 C402.13,233.5 401.54,253.83 399.45,269.75 " fill="none" id="BackGroundLayerOptions-&gt;UnityEvent-3" style="stroke: #A80036; stroke-width: 1.0;"/><polygon fill="#A80036" points="398.68,274.98,403.9261,266.6446,399.3951,270.0314,396.0083,265.5004,398.68,274.98" style="stroke: #A80036; stroke-width: 1.0;"/><text fill="#000000" font-family="sans-serif" font-size="13" lengthAdjust="spacingAndGlyphs" textLength="84" x="269.8638" y="263.6005">leftClickDown</text><!--MD5=[4379d4345db621baf3ee3861febe9739]
link BackGroundLayerOptions to UnityEvent--><path d="M426.65,215.09 C429.37,233.66 427.58,254.18 421.3,270.17 " fill="none" id="BackGroundLayerOptions-&gt;UnityEvent-4" style="stroke: #A80036; stroke-width: 1.0;"/><polygon fill="#A80036" points="419.2,274.98,426.4644,268.3295,421.1988,270.3969,419.1315,265.1314,419.2,274.98" style="stroke: #A80036; stroke-width: 1.0;"/><text fill="#000000" font-family="sans-serif" font-size="13" lengthAdjust="spacingAndGlyphs" textLength="107" x="440.8711" y="263.9869">middleClickDown</text><!--MD5=[4379d4345db621baf3ee3861febe9739]
link BackGroundLayerOptions to UnityEvent--><path d="M452.09,215.09 C456.94,235.06 453.14,257.29 440.71,273.7 " fill="none" id="BackGroundLayerOptions-&gt;UnityEvent-5" style="stroke: #A80036; stroke-width: 1.0;"/><polygon fill="#A80036" points="437.37,277.75,446.1933,273.3741,440.5611,273.9007,440.0345,268.2684,437.37,277.75" style="stroke: #A80036; stroke-width: 1.0;"/><text fill="#000000" font-family="sans-serif" font-size="13" lengthAdjust="spacingAndGlyphs" textLength="93" x="444.9993" y="288.7265">rightClickDown</text><!--MD5=[d4f9d9ad214e54d1bb774707b0bb5a68]
@startuml
class BackGroundLayerOptions {
    + OnPointerDown(eventData:PointerEventData) : void
    + OnPointerUp(eventData:PointerEventData) : void
    + {static} ClearDropdowns() : void
    + OpenFloatingDropDown(eventData:PointerEventData) : void
}
class "List`1"<T> {
}
EditorBase <|- - BackGroundLayerOptions
IPointerUpHandler <|- - BackGroundLayerOptions
IPointerDownHandler <|- - BackGroundLayerOptions
BackGroundLayerOptions o-> "AllDropDownMenus<DropDownMenu>" "List`1"
BackGroundLayerOptions - -> "FloatingDropDownMenu" DropDownMenu
BackGroundLayerOptions - -> "backGroundCanvas" Canvas
BackGroundLayerOptions - -> "leftClickUp" UnityEvent
BackGroundLayerOptions - -> "middleClickUp" UnityEvent
BackGroundLayerOptions - -> "rightClickUp" UnityEvent
BackGroundLayerOptions - -> "leftClickDown" UnityEvent
BackGroundLayerOptions - -> "middleClickDown" UnityEvent
BackGroundLayerOptions - -> "rightClickDown" UnityEvent
@enduml

PlantUML version 1.2020.02(Sun Mar 01 10:22:07 GMT 2020)
(GPL source distribution)
Java Runtime: OpenJDK Runtime Environment
JVM: OpenJDK 64-Bit Server VM
Java Version: 11.0.9+11-Ubuntu-0ubuntu1
Operating System: Linux
Default Encoding: ANSI_X3.4-1968
Language: en
Country: US
--></g></svg>