<?xml version="1.0" encoding="UTF-8" standalone="no"?><svg xmlns="http://www.w3.org/2000/svg" xmlns:xlink="http://www.w3.org/1999/xlink" contentScriptType="application/ecmascript" contentStyleType="text/css" height="213px" preserveAspectRatio="none" style="width:478px;height:213px;" version="1.1" viewBox="0 0 478 213" width="478px" zoomAndPan="magnify"><defs><filter height="300%" id="f1nkenzwomyq9p" width="300%" x="-1" y="-1"><feGaussianBlur result="blurOut" stdDeviation="2.0"/><feColorMatrix in="blurOut" result="blurOut2" type="matrix" values="0 0 0 0 0 0 0 0 0 0 0 0 0 0 0 0 0 0 .4 0"/><feOffset dx="4.0" dy="4.0" in="blurOut2" result="blurOut3"/><feBlend in="SourceGraphic" in2="blurOut3" mode="normal"/></filter></defs><g><!--MD5=[2a080db755a4c5276fe793c69de3a64c]
class ClipBoard--><rect fill="#FEFECE" filter="url(#f1nkenzwomyq9p)" height="86.4141" id="ClipBoard" style="stroke: #A80036; stroke-width: 1.5;" width="198" x="6" y="116"/><ellipse cx="71.25" cy="132" fill="#ADD1B2" rx="11" ry="11" style="stroke: #A80036; stroke-width: 1.0;"/><path d="M74.2188,137.6406 Q73.6406,137.9375 73,138.0781 Q72.3594,138.2344 71.6563,138.2344 Q69.1563,138.2344 67.8281,136.5938 Q66.5156,134.9375 66.5156,131.8125 Q66.5156,128.6875 67.8281,127.0313 Q69.1563,125.375 71.6563,125.375 Q72.3594,125.375 73,125.5313 Q73.6563,125.6875 74.2188,125.9844 L74.2188,128.7031 Q73.5938,128.125 73,127.8594 Q72.4063,127.5781 71.7813,127.5781 Q70.4375,127.5781 69.75,128.6563 Q69.0625,129.7188 69.0625,131.8125 Q69.0625,133.9063 69.75,134.9844 Q70.4375,136.0469 71.7813,136.0469 Q72.4063,136.0469 73,135.7813 Q73.5938,135.5 74.2188,134.9219 L74.2188,137.6406 Z "/><text fill="#000000" font-family="sans-serif" font-size="12" lengthAdjust="spacingAndGlyphs" textLength="59" x="91.75" y="136.1543">ClipBoard</text><line style="stroke: #A80036; stroke-width: 1.5;" x1="7" x2="203" y1="148" y2="148"/><ellipse cx="17" cy="159" fill="none" rx="3" ry="3" style="stroke: #038048; stroke-width: 1.0;"/><text fill="#000000" font-family="sans-serif" font-size="11" lengthAdjust="spacingAndGlyphs" textLength="118" x="26" y="162.2104">normalName : string</text><line style="stroke: #A80036; stroke-width: 1.5;" x1="7" x2="203" y1="168.8047" y2="168.8047"/><ellipse cx="17" cy="179.8047" fill="#84BE84" rx="3" ry="3" style="stroke: #038048; stroke-width: 1.0;"/><text fill="#000000" font-family="sans-serif" font-size="11" lengthAdjust="spacingAndGlyphs" textLength="133" x="26" y="183.0151">AddToClipBoard() : void</text><ellipse cx="17" cy="192.6094" fill="#84BE84" rx="3" ry="3" style="stroke: #038048; stroke-width: 1.0;"/><text fill="#000000" font-family="sans-serif" font-size="11" lengthAdjust="spacingAndGlyphs" textLength="172" x="26" y="195.8198">RemoveFromClipBoard() : void</text><!--MD5=[e644022de7dea015dd09463c37421447]
class List`1--><rect fill="#FEFECE" filter="url(#f1nkenzwomyq9p)" height="48" id="List`1" style="stroke: #A80036; stroke-width: 1.5;" width="78" x="239" y="135"/><ellipse cx="254" cy="151" fill="#ADD1B2" rx="11" ry="11" style="stroke: #A80036; stroke-width: 1.0;"/><path d="M256.9688,156.6406 Q256.3906,156.9375 255.75,157.0781 Q255.1094,157.2344 254.4063,157.2344 Q251.9063,157.2344 250.5781,155.5938 Q249.2656,153.9375 249.2656,150.8125 Q249.2656,147.6875 250.5781,146.0313 Q251.9063,144.375 254.4063,144.375 Q255.1094,144.375 255.75,144.5313 Q256.4063,144.6875 256.9688,144.9844 L256.9688,147.7031 Q256.3438,147.125 255.75,146.8594 Q255.1563,146.5781 254.5313,146.5781 Q253.1875,146.5781 252.5,147.6563 Q251.8125,148.7188 251.8125,150.8125 Q251.8125,152.9063 252.5,153.9844 Q253.1875,155.0469 254.5313,155.0469 Q255.1563,155.0469 255.75,154.7813 Q256.3438,154.5 256.9688,153.9219 L256.9688,156.6406 Z "/><text fill="#000000" font-family="sans-serif" font-size="12" lengthAdjust="spacingAndGlyphs" textLength="35" x="268" y="155.1543">List`1</text><rect fill="#FFFFFF" height="15.9688" style="stroke: #000000; stroke-width: 1.0; stroke-dasharray: 2.0,2.0;" width="9" x="311" y="132"/><text fill="#000000" font-family="sans-serif" font-size="12" font-style="italic" lengthAdjust="spacingAndGlyphs" textLength="7" x="312" y="144.1387">T</text><line style="stroke: #A80036; stroke-width: 1.5;" x1="240" x2="316" y1="167" y2="167"/><line style="stroke: #A80036; stroke-width: 1.5;" x1="240" x2="316" y1="175" y2="175"/><!--MD5=[cdc675492b5c7404f9d1fea69146a946]
class EditorBase--><rect fill="#FEFECE" filter="url(#f1nkenzwomyq9p)" height="48" id="EditorBase" style="stroke: #A80036; stroke-width: 1.5;" width="100" x="55" y="8"/><ellipse cx="70" cy="24" fill="#ADD1B2" rx="11" ry="11" style="stroke: #A80036; stroke-width: 1.0;"/><path d="M72.9688,29.6406 Q72.3906,29.9375 71.75,30.0781 Q71.1094,30.2344 70.4063,30.2344 Q67.9063,30.2344 66.5781,28.5938 Q65.2656,26.9375 65.2656,23.8125 Q65.2656,20.6875 66.5781,19.0313 Q67.9063,17.375 70.4063,17.375 Q71.1094,17.375 71.75,17.5313 Q72.4063,17.6875 72.9688,17.9844 L72.9688,20.7031 Q72.3438,20.125 71.75,19.8594 Q71.1563,19.5781 70.5313,19.5781 Q69.1875,19.5781 68.5,20.6563 Q67.8125,21.7188 67.8125,23.8125 Q67.8125,25.9063 68.5,26.9844 Q69.1875,28.0469 70.5313,28.0469 Q71.1563,28.0469 71.75,27.7813 Q72.3438,27.5 72.9688,26.9219 L72.9688,29.6406 Z "/><text fill="#000000" font-family="sans-serif" font-size="12" lengthAdjust="spacingAndGlyphs" textLength="68" x="84" y="28.1543">EditorBase</text><line style="stroke: #A80036; stroke-width: 1.5;" x1="56" x2="154" y1="40" y2="40"/><line style="stroke: #A80036; stroke-width: 1.5;" x1="56" x2="154" y1="48" y2="48"/><!--MD5=[42207016804570bb4ccc93b2fcd9897b]
reverse link EditorBase to ClipBoard--><path d="M105,76.27 C105,89.12 105,103.17 105,115.94 " fill="none" id="EditorBase&lt;-ClipBoard" style="stroke: #A80036; stroke-width: 1.0;"/><polygon fill="none" points="98,76.22,105,56.22,112,76.22,98,76.22" style="stroke: #A80036; stroke-width: 1.0;"/><!--MD5=[e1c2bdeb58df93b3ad1de8880e43d6ea]
link ClipBoard to List`1--><path d="M216,159 C216,159 222.81,159 225.66,159 " fill="none" id="ClipBoard-List`1" style="stroke: #A80036; stroke-width: 1.0;"/><polygon fill="#A80036" points="238.98,159,229.98,155,233.98,159,229.98,163,238.98,159" style="stroke: #A80036; stroke-width: 1.0;"/><line style="stroke: #A80036; stroke-width: 1.0;" x1="233.98" x2="225.98" y1="159" y2="159"/><polygon fill="#FFFFFF" points="204,159,210,163,216,159,210,155,204,159" style="stroke: #A80036; stroke-width: 1.0;"/><text fill="#000000" font-family="sans-serif" font-size="13" lengthAdjust="spacingAndGlyphs" textLength="141" x="325.55" y="135.6245">clipboard&lt;ClipBoard&gt;</text><!--MD5=[d058164967d63e1b9acbf52a3413333e]
@startuml
class ClipBoard {
    + normalName : string
    + AddToClipBoard() : void
    + RemoveFromClipBoard() : void
}
class "List`1"<T> {
}
EditorBase <|- - ClipBoard
ClipBoard o-> "clipboard<ClipBoard>" "List`1"
@enduml

PlantUML version 1.2020.02(Sun Mar 01 10:22:07 GMT 2020)
(GPL source distribution)
Java Runtime: OpenJDK Runtime Environment
JVM: OpenJDK 64-Bit Server VM
Java Version: 11.0.9+11-Ubuntu-0ubuntu1
Operating System: Linux
Default Encoding: ANSI_X3.4-1968
Language: en
Country: US
--></g></svg>