<?xml version="1.0" encoding="UTF-8" standalone="no"?><svg xmlns="http://www.w3.org/2000/svg" xmlns:xlink="http://www.w3.org/1999/xlink" contentScriptType="application/ecmascript" contentStyleType="text/css" height="239px" preserveAspectRatio="none" style="width:236px;height:239px;" version="1.1" viewBox="0 0 236 239" width="236px" zoomAndPan="magnify"><defs><filter height="300%" id="f3ol0cfuyvfiq" width="300%" x="-1" y="-1"><feGaussianBlur result="blurOut" stdDeviation="2.0"/><feColorMatrix in="blurOut" result="blurOut2" type="matrix" values="0 0 0 0 0 0 0 0 0 0 0 0 0 0 0 0 0 0 .4 0"/><feOffset dx="4.0" dy="4.0" in="blurOut2" result="blurOut3"/><feBlend in="SourceGraphic" in2="blurOut3" mode="normal"/></filter></defs><g><!--MD5=[cdc675492b5c7404f9d1fea69146a946]
class EditorBase--><rect fill="#FEFECE" filter="url(#f3ol0cfuyvfiq)" height="112.0234" id="EditorBase" style="stroke: #A80036; stroke-width: 1.5;" width="219" x="6" y="116"/><ellipse cx="77.25" cy="132" fill="#ADD1B2" rx="11" ry="11" style="stroke: #A80036; stroke-width: 1.0;"/><path d="M80.2188,137.6406 Q79.6406,137.9375 79,138.0781 Q78.3594,138.2344 77.6563,138.2344 Q75.1563,138.2344 73.8281,136.5938 Q72.5156,134.9375 72.5156,131.8125 Q72.5156,128.6875 73.8281,127.0313 Q75.1563,125.375 77.6563,125.375 Q78.3594,125.375 79,125.5313 Q79.6563,125.6875 80.2188,125.9844 L80.2188,128.7031 Q79.5938,128.125 79,127.8594 Q78.4063,127.5781 77.7813,127.5781 Q76.4375,127.5781 75.75,128.6563 Q75.0625,129.7188 75.0625,131.8125 Q75.0625,133.9063 75.75,134.9844 Q76.4375,136.0469 77.7813,136.0469 Q78.4063,136.0469 79,135.7813 Q79.5938,135.5 80.2188,134.9219 L80.2188,137.6406 Z "/><text fill="#000000" font-family="sans-serif" font-size="12" lengthAdjust="spacingAndGlyphs" textLength="68" x="97.75" y="136.1543">EditorBase</text><line style="stroke: #A80036; stroke-width: 1.5;" x1="7" x2="224" y1="148" y2="148"/><line style="stroke: #A80036; stroke-width: 1.5;" x1="7" x2="224" y1="156" y2="156"/><ellipse cx="17" cy="167" fill="#84BE84" rx="3" ry="3" style="stroke: #038048; stroke-width: 1.0;"/><text fill="#000000" font-family="sans-serif" font-size="11" lengthAdjust="spacingAndGlyphs" textLength="154" x="26" y="170.2104">«override» OnEnter() : void</text><ellipse cx="17" cy="179.8047" fill="#84BE84" rx="3" ry="3" style="stroke: #038048; stroke-width: 1.0;"/><text fill="#000000" font-family="sans-serif" font-size="11" lengthAdjust="spacingAndGlyphs" textLength="144" x="26" y="183.0151">«override» OnExit() : void</text><ellipse cx="17" cy="192.6094" fill="#84BE84" rx="3" ry="3" style="stroke: #038048; stroke-width: 1.0;"/><text fill="#000000" font-family="sans-serif" font-size="11" lengthAdjust="spacingAndGlyphs" textLength="164" x="26" y="195.8198">«override» OnUpdate() : void</text><ellipse cx="17" cy="205.4141" fill="#84BE84" rx="3" ry="3" style="stroke: #038048; stroke-width: 1.0;"/><text fill="#000000" font-family="sans-serif" font-size="11" lengthAdjust="spacingAndGlyphs" textLength="193" x="26" y="208.6245">«override» OnFixedUpdate() : void</text><ellipse cx="17" cy="218.2188" fill="#84BE84" rx="3" ry="3" style="stroke: #038048; stroke-width: 1.0;"/><text fill="#000000" font-family="sans-serif" font-size="11" lengthAdjust="spacingAndGlyphs" textLength="188" x="26" y="221.4292">«override» OnLateUpdate() : void</text><!--MD5=[ced70c4db88c0caf8c044d862484d7f7]
class BaseState--><rect fill="#FEFECE" filter="url(#f3ol0cfuyvfiq)" height="48" id="BaseState" style="stroke: #A80036; stroke-width: 1.5;" width="97" x="67" y="8"/><ellipse cx="82" cy="24" fill="#ADD1B2" rx="11" ry="11" style="stroke: #A80036; stroke-width: 1.0;"/><path d="M84.9688,29.6406 Q84.3906,29.9375 83.75,30.0781 Q83.1094,30.2344 82.4063,30.2344 Q79.9063,30.2344 78.5781,28.5938 Q77.2656,26.9375 77.2656,23.8125 Q77.2656,20.6875 78.5781,19.0313 Q79.9063,17.375 82.4063,17.375 Q83.1094,17.375 83.75,17.5313 Q84.4063,17.6875 84.9688,17.9844 L84.9688,20.7031 Q84.3438,20.125 83.75,19.8594 Q83.1563,19.5781 82.5313,19.5781 Q81.1875,19.5781 80.5,20.6563 Q79.8125,21.7188 79.8125,23.8125 Q79.8125,25.9063 80.5,26.9844 Q81.1875,28.0469 82.5313,28.0469 Q83.1563,28.0469 83.75,27.7813 Q84.3438,27.5 84.9688,26.9219 L84.9688,29.6406 Z "/><text fill="#000000" font-family="sans-serif" font-size="12" lengthAdjust="spacingAndGlyphs" textLength="65" x="96" y="28.1543">BaseState</text><line style="stroke: #A80036; stroke-width: 1.5;" x1="68" x2="163" y1="40" y2="40"/><line style="stroke: #A80036; stroke-width: 1.5;" x1="68" x2="163" y1="48" y2="48"/><!--MD5=[15642128f7bd4a347d30c9530f0d626a]
reverse link BaseState to EditorBase--><path d="M115.5,76.25 C115.5,88.82 115.5,102.73 115.5,115.93 " fill="none" id="BaseState&lt;-EditorBase" style="stroke: #A80036; stroke-width: 1.0;"/><polygon fill="none" points="108.5,76.1,115.5,56.1,122.5,76.1,108.5,76.1" style="stroke: #A80036; stroke-width: 1.0;"/><!--MD5=[174f0ef19b36e7b006abfd3e59d4367a]
@startuml
class EditorBase {
    + <<override>> OnEnter() : void
    + <<override>> OnExit() : void
    + <<override>> OnUpdate() : void
    + <<override>> OnFixedUpdate() : void
    + <<override>> OnLateUpdate() : void
}
BaseState <|- - EditorBase
@enduml

PlantUML version 1.2020.02(Sun Mar 01 10:22:07 GMT 2020)
(GPL source distribution)
Java Runtime: OpenJDK Runtime Environment
JVM: OpenJDK 64-Bit Server VM
Java Version: 11.0.9+11-Ubuntu-0ubuntu1
Operating System: Linux
Default Encoding: ANSI_X3.4-1968
Language: en
Country: US
--></g></svg>