<?xml version="1.0" encoding="UTF-8" standalone="no"?><svg xmlns="http://www.w3.org/2000/svg" xmlns:xlink="http://www.w3.org/1999/xlink" contentScriptType="application/ecmascript" contentStyleType="text/css" height="360px" preserveAspectRatio="none" style="width:654px;height:360px;" version="1.1" viewBox="0 0 654 360" width="654px" zoomAndPan="magnify"><defs><filter height="300%" id="f120ez7g66ksby" width="300%" x="-1" y="-1"><feGaussianBlur result="blurOut" stdDeviation="2.0"/><feColorMatrix in="blurOut" result="blurOut2" type="matrix" values="0 0 0 0 0 0 0 0 0 0 0 0 0 0 0 0 0 0 .4 0"/><feOffset dx="4.0" dy="4.0" in="blurOut2" result="blurOut3"/><feBlend in="SourceGraphic" in2="blurOut3" mode="normal"/></filter></defs><g><!--MD5=[29bfb817a0a3a5c304db8bf39fbb6565]
class EditorState--><rect fill="#FEFECE" filter="url(#f120ez7g66ksby)" height="124.8281" id="EditorState" style="stroke: #A80036; stroke-width: 1.5;" width="219" x="17.5" y="116"/><ellipse cx="87.25" cy="132" fill="#ADD1B2" rx="11" ry="11" style="stroke: #A80036; stroke-width: 1.0;"/><path d="M90.2188,137.6406 Q89.6406,137.9375 89,138.0781 Q88.3594,138.2344 87.6563,138.2344 Q85.1563,138.2344 83.8281,136.5938 Q82.5156,134.9375 82.5156,131.8125 Q82.5156,128.6875 83.8281,127.0313 Q85.1563,125.375 87.6563,125.375 Q88.3594,125.375 89,125.5313 Q89.6563,125.6875 90.2188,125.9844 L90.2188,128.7031 Q89.5938,128.125 89,127.8594 Q88.4063,127.5781 87.7813,127.5781 Q86.4375,127.5781 85.75,128.6563 Q85.0625,129.7188 85.0625,131.8125 Q85.0625,133.9063 85.75,134.9844 Q86.4375,136.0469 87.7813,136.0469 Q88.4063,136.0469 89,135.7813 Q89.5938,135.5 90.2188,134.9219 L90.2188,137.6406 Z "/><text fill="#000000" font-family="sans-serif" font-size="12" lengthAdjust="spacingAndGlyphs" textLength="71" x="107.75" y="136.1543">EditorState</text><line style="stroke: #A80036; stroke-width: 1.5;" x1="18.5" x2="235.5" y1="148" y2="148"/><line style="stroke: #A80036; stroke-width: 1.5;" x1="18.5" x2="235.5" y1="156" y2="156"/><ellipse cx="28.5" cy="167" fill="#84BE84" rx="3" ry="3" style="stroke: #038048; stroke-width: 1.0;"/><text fill="#000000" font-family="sans-serif" font-size="11" lengthAdjust="spacingAndGlyphs" textLength="154" x="37.5" y="170.2104">«override» OnEnter() : void</text><ellipse cx="28.5" cy="179.8047" fill="#84BE84" rx="3" ry="3" style="stroke: #038048; stroke-width: 1.0;"/><text fill="#000000" font-family="sans-serif" font-size="11" lengthAdjust="spacingAndGlyphs" textLength="144" x="37.5" y="183.0151">«override» OnExit() : void</text><ellipse cx="28.5" cy="192.6094" fill="#84BE84" rx="3" ry="3" style="stroke: #038048; stroke-width: 1.0;"/><text fill="#000000" font-family="sans-serif" font-size="11" lengthAdjust="spacingAndGlyphs" textLength="193" x="37.5" y="195.8198">«override» OnFixedUpdate() : void</text><ellipse cx="28.5" cy="205.4141" fill="#84BE84" rx="3" ry="3" style="stroke: #038048; stroke-width: 1.0;"/><text fill="#000000" font-family="sans-serif" font-size="11" lengthAdjust="spacingAndGlyphs" textLength="164" x="37.5" y="208.6245">«override» OnUpdate() : void</text><ellipse cx="28.5" cy="218.2188" fill="#84BE84" rx="3" ry="3" style="stroke: #038048; stroke-width: 1.0;"/><text fill="#000000" font-family="sans-serif" font-size="11" lengthAdjust="spacingAndGlyphs" textLength="188" x="37.5" y="221.4292">«override» OnLateUpdate() : void</text><ellipse cx="28.5" cy="231.0234" fill="#84BE84" rx="3" ry="3" style="stroke: #038048; stroke-width: 1.0;"/><text fill="#000000" font-family="sans-serif" font-size="11" lengthAdjust="spacingAndGlyphs" textLength="147" x="37.5" y="234.2339">SwitchToPlayState() : void</text><!--MD5=[da8c3974d335aac350241f92734c9c19]
class Queue`1--><rect fill="#FEFECE" filter="url(#f120ez7g66ksby)" height="48" id="Queue`1" style="stroke: #A80036; stroke-width: 1.5;" width="98" x="385" y="154.5"/><ellipse cx="400" cy="170.5" fill="#ADD1B2" rx="11" ry="11" style="stroke: #A80036; stroke-width: 1.0;"/><path d="M402.9688,176.1406 Q402.3906,176.4375 401.75,176.5781 Q401.1094,176.7344 400.4063,176.7344 Q397.9063,176.7344 396.5781,175.0938 Q395.2656,173.4375 395.2656,170.3125 Q395.2656,167.1875 396.5781,165.5313 Q397.9063,163.875 400.4063,163.875 Q401.1094,163.875 401.75,164.0313 Q402.4063,164.1875 402.9688,164.4844 L402.9688,167.2031 Q402.3438,166.625 401.75,166.3594 Q401.1563,166.0781 400.5313,166.0781 Q399.1875,166.0781 398.5,167.1563 Q397.8125,168.2188 397.8125,170.3125 Q397.8125,172.4063 398.5,173.4844 Q399.1875,174.5469 400.5313,174.5469 Q401.1563,174.5469 401.75,174.2813 Q402.3438,174 402.9688,173.4219 L402.9688,176.1406 Z "/><text fill="#000000" font-family="sans-serif" font-size="12" lengthAdjust="spacingAndGlyphs" textLength="55" x="414" y="174.6543">Queue`1</text><rect fill="#FFFFFF" height="15.9688" style="stroke: #000000; stroke-width: 1.0; stroke-dasharray: 2.0,2.0;" width="9" x="477" y="151.5"/><text fill="#000000" font-family="sans-serif" font-size="12" font-style="italic" lengthAdjust="spacingAndGlyphs" textLength="7" x="478" y="163.6387">T</text><line style="stroke: #A80036; stroke-width: 1.5;" x1="386" x2="482" y1="186.5" y2="186.5"/><line style="stroke: #A80036; stroke-width: 1.5;" x1="386" x2="482" y1="194.5" y2="194.5"/><!--MD5=[e644022de7dea015dd09463c37421447]
class List`1--><rect fill="#FEFECE" filter="url(#f120ez7g66ksby)" height="48" id="List`1" style="stroke: #A80036; stroke-width: 1.5;" width="78" x="272" y="154.5"/><ellipse cx="287" cy="170.5" fill="#ADD1B2" rx="11" ry="11" style="stroke: #A80036; stroke-width: 1.0;"/><path d="M289.9688,176.1406 Q289.3906,176.4375 288.75,176.5781 Q288.1094,176.7344 287.4063,176.7344 Q284.9063,176.7344 283.5781,175.0938 Q282.2656,173.4375 282.2656,170.3125 Q282.2656,167.1875 283.5781,165.5313 Q284.9063,163.875 287.4063,163.875 Q288.1094,163.875 288.75,164.0313 Q289.4063,164.1875 289.9688,164.4844 L289.9688,167.2031 Q289.3438,166.625 288.75,166.3594 Q288.1563,166.0781 287.5313,166.0781 Q286.1875,166.0781 285.5,167.1563 Q284.8125,168.2188 284.8125,170.3125 Q284.8125,172.4063 285.5,173.4844 Q286.1875,174.5469 287.5313,174.5469 Q288.1563,174.5469 288.75,174.2813 Q289.3438,174 289.9688,173.4219 L289.9688,176.1406 Z "/><text fill="#000000" font-family="sans-serif" font-size="12" lengthAdjust="spacingAndGlyphs" textLength="35" x="301" y="174.6543">List`1</text><rect fill="#FFFFFF" height="15.9688" style="stroke: #000000; stroke-width: 1.0; stroke-dasharray: 2.0,2.0;" width="9" x="344" y="151.5"/><text fill="#000000" font-family="sans-serif" font-size="12" font-style="italic" lengthAdjust="spacingAndGlyphs" textLength="7" x="345" y="163.6387">T</text><line style="stroke: #A80036; stroke-width: 1.5;" x1="273" x2="349" y1="186.5" y2="186.5"/><line style="stroke: #A80036; stroke-width: 1.5;" x1="273" x2="349" y1="194.5" y2="194.5"/><!--MD5=[ced70c4db88c0caf8c044d862484d7f7]
class BaseState--><rect fill="#FEFECE" filter="url(#f120ez7g66ksby)" height="48" id="BaseState" style="stroke: #A80036; stroke-width: 1.5;" width="97" x="78.5" y="8"/><ellipse cx="93.5" cy="24" fill="#ADD1B2" rx="11" ry="11" style="stroke: #A80036; stroke-width: 1.0;"/><path d="M96.4688,29.6406 Q95.8906,29.9375 95.25,30.0781 Q94.6094,30.2344 93.9063,30.2344 Q91.4063,30.2344 90.0781,28.5938 Q88.7656,26.9375 88.7656,23.8125 Q88.7656,20.6875 90.0781,19.0313 Q91.4063,17.375 93.9063,17.375 Q94.6094,17.375 95.25,17.5313 Q95.9063,17.6875 96.4688,17.9844 L96.4688,20.7031 Q95.8438,20.125 95.25,19.8594 Q94.6563,19.5781 94.0313,19.5781 Q92.6875,19.5781 92,20.6563 Q91.3125,21.7188 91.3125,23.8125 Q91.3125,25.9063 92,26.9844 Q92.6875,28.0469 94.0313,28.0469 Q94.6563,28.0469 95.25,27.7813 Q95.8438,27.5 96.4688,26.9219 L96.4688,29.6406 Z "/><text fill="#000000" font-family="sans-serif" font-size="12" lengthAdjust="spacingAndGlyphs" textLength="65" x="107.5" y="28.1543">BaseState</text><line style="stroke: #A80036; stroke-width: 1.5;" x1="79.5" x2="174.5" y1="40" y2="40"/><line style="stroke: #A80036; stroke-width: 1.5;" x1="79.5" x2="174.5" y1="48" y2="48"/><!--MD5=[47f9f6bfe5cfd9169913797a39737c41]
class InputCommands--><rect fill="#FEFECE" filter="url(#f120ez7g66ksby)" height="48" id="InputCommands" style="stroke: #A80036; stroke-width: 1.5;" width="133" x="60.5" y="301"/><ellipse cx="75.5" cy="317" fill="#ADD1B2" rx="11" ry="11" style="stroke: #A80036; stroke-width: 1.0;"/><path d="M78.4688,322.6406 Q77.8906,322.9375 77.25,323.0781 Q76.6094,323.2344 75.9063,323.2344 Q73.4063,323.2344 72.0781,321.5938 Q70.7656,319.9375 70.7656,316.8125 Q70.7656,313.6875 72.0781,312.0313 Q73.4063,310.375 75.9063,310.375 Q76.6094,310.375 77.25,310.5313 Q77.9063,310.6875 78.4688,310.9844 L78.4688,313.7031 Q77.8438,313.125 77.25,312.8594 Q76.6563,312.5781 76.0313,312.5781 Q74.6875,312.5781 74,313.6563 Q73.3125,314.7188 73.3125,316.8125 Q73.3125,318.9063 74,319.9844 Q74.6875,321.0469 76.0313,321.0469 Q76.6563,321.0469 77.25,320.7813 Q77.8438,320.5 78.4688,319.9219 L78.4688,322.6406 Z "/><text fill="#000000" font-family="sans-serif" font-size="12" lengthAdjust="spacingAndGlyphs" textLength="101" x="89.5" y="321.1543">InputCommands</text><line style="stroke: #A80036; stroke-width: 1.5;" x1="61.5" x2="192.5" y1="333" y2="333"/><line style="stroke: #A80036; stroke-width: 1.5;" x1="61.5" x2="192.5" y1="341" y2="341"/><!--MD5=[25fe413483b1e6b59d1fd8fc7842fd17]
reverse link BaseState to EditorState--><path d="M127,76.67 C127,89.05 127,102.77 127,115.99 " fill="none" id="BaseState&lt;-EditorState" style="stroke: #A80036; stroke-width: 1.0;"/><polygon fill="none" points="120,76.22,127,56.22,134,76.22,120,76.22" style="stroke: #A80036; stroke-width: 1.0;"/><!--MD5=[b65bbc4d7428a2d9b0960e53ffae2a8e]
link EditorState to Queue`1--><path d="M228.1894,110.5862 C228.1894,110.5862 254.14,99.42 266.67,96 C305.11,85.49 319.75,80.2 356.33,96 C378.91,105.76 397.97,125.66 411.55,143.48 " fill="none" id="EditorState-Queue`1" style="stroke: #A80036; stroke-width: 1.0;"/><polygon fill="#A80036" points="419.28,154.19,417.2533,144.5519,416.3525,150.1366,410.7679,149.2358,419.28,154.19" style="stroke: #A80036; stroke-width: 1.0;"/><line style="stroke: #A80036; stroke-width: 1.0;" x1="416.3525" x2="411.67" y1="150.1366" y2="143.655"/><polygon fill="#FFFFFF" points="217.43,115.9,224.5809,116.8296,228.1894,110.5862,221.0384,109.6567,217.43,115.9" style="stroke: #A80036; stroke-width: 1.0;"/><text fill="#000000" font-family="sans-serif" font-size="13" lengthAdjust="spacingAndGlyphs" textLength="202" x="440.3108" y="143.5194">editorsAddQueue&lt;EditorBase&gt;</text><!--MD5=[b65bbc4d7428a2d9b0960e53ffae2a8e]
link EditorState to Queue`1--><path d="M210.5063,109.2462 C210.5063,109.2462 255.06,83.14 278.33,76 C306.52,67.35 317.83,63.79 344.67,76 C374.76,89.69 398.67,119.09 414.15,142.91 " fill="none" id="EditorState-Queue`1-1" style="stroke: #A80036; stroke-width: 1.0;"/><polygon fill="#A80036" points="421.06,154.05,419.7195,144.2928,418.4263,149.7998,412.9193,148.5067,421.06,154.05" style="stroke: #A80036; stroke-width: 1.0;"/><line style="stroke: #A80036; stroke-width: 1.0;" x1="418.4263" x2="414.215" y1="149.7998" y2="143.005"/><polygon fill="#FFFFFF" points="200.54,115.93,207.7511,115.9102,210.5063,109.2462,203.2952,109.266,200.54,115.93" style="stroke: #A80036; stroke-width: 1.0;"/><text fill="#000000" font-family="sans-serif" font-size="13" lengthAdjust="spacingAndGlyphs" textLength="229" x="244.8058" y="141.7763">editorsRemoveQueue&lt;EditorBase&gt;</text><!--MD5=[82b3e6d1ab3860cd46672696666eac63]
link EditorState to List`1--><path d="M248.61,178.5 C248.61,178.5 255.75,178.5 258.72,178.5 " fill="none" id="EditorState-List`1" style="stroke: #A80036; stroke-width: 1.0;"/><polygon fill="#A80036" points="271.77,178.5,262.77,174.5,266.77,178.5,262.77,182.5,271.77,178.5" style="stroke: #A80036; stroke-width: 1.0;"/><line style="stroke: #A80036; stroke-width: 1.0;" x1="266.77" x2="258.77" y1="178.5" y2="178.5"/><polygon fill="#FFFFFF" points="236.61,178.5,242.61,182.5,248.61,178.5,242.61,174.5,236.61,178.5" style="stroke: #A80036; stroke-width: 1.0;"/><text fill="#000000" font-family="sans-serif" font-size="13" lengthAdjust="spacingAndGlyphs" textLength="135" x="235.935" y="222.2039">editors&lt;EditorBase&gt;</text><!--MD5=[bb483ef01e6580d7cf0f6dadcfaf1940]
link EditorState to InputCommands--><path d="M127,241.2 C127,260.22 127,280.24 127,295.83 " fill="none" id="EditorState-&gt;InputCommands" style="stroke: #A80036; stroke-width: 1.0;"/><polygon fill="#A80036" points="127,300.94,131,291.94,127,295.94,123,291.94,127,300.94" style="stroke: #A80036; stroke-width: 1.0;"/><text fill="#000000" font-family="sans-serif" font-size="13" lengthAdjust="spacingAndGlyphs" textLength="106" x="7.4188" y="289.9367">inputCommands</text><!--MD5=[b30a5d11d4a87c8970a155c777fb50cf]
@startuml
class EditorState {
    + <<override>> OnEnter() : void
    + <<override>> OnExit() : void
    + <<override>> OnFixedUpdate() : void
    + <<override>> OnUpdate() : void
    + <<override>> OnLateUpdate() : void
    + SwitchToPlayState() : void
}
class "Queue`1"<T> {
}
class "List`1"<T> {
}
BaseState <|- - EditorState
EditorState o-> "editorsAddQueue<EditorBase>" "Queue`1"
EditorState o-> "editorsRemoveQueue<EditorBase>" "Queue`1"
EditorState o-> "editors<EditorBase>" "List`1"
EditorState - -> "inputCommands" InputCommands
@enduml

PlantUML version 1.2020.02(Sun Mar 01 10:22:07 GMT 2020)
(GPL source distribution)
Java Runtime: OpenJDK Runtime Environment
JVM: OpenJDK 64-Bit Server VM
Java Version: 11.0.9+11-Ubuntu-0ubuntu1
Operating System: Linux
Default Encoding: ANSI_X3.4-1968
Language: en
Country: US
--></g></svg>