<?xml version="1.0" encoding="UTF-8" standalone="no"?><svg xmlns="http://www.w3.org/2000/svg" xmlns:xlink="http://www.w3.org/1999/xlink" contentScriptType="application/ecmascript" contentStyleType="text/css" height="545px" preserveAspectRatio="none" style="width:736px;height:545px;" version="1.1" viewBox="0 0 736 545" width="736px" zoomAndPan="magnify"><defs><filter height="300%" id="f1whevb22j1pwx" width="300%" x="-1" y="-1"><feGaussianBlur result="blurOut" stdDeviation="2.0"/><feColorMatrix in="blurOut" result="blurOut2" type="matrix" values="0 0 0 0 0 0 0 0 0 0 0 0 0 0 0 0 0 0 .4 0"/><feOffset dx="4.0" dy="4.0" in="blurOut2" result="blurOut3"/><feBlend in="SourceGraphic" in2="blurOut3" mode="normal"/></filter></defs><g><!--MD5=[0f8b90e0a694fb6b7359e8beb96c9e2f]
class GridObject--><rect fill="#FEFECE" filter="url(#f1whevb22j1pwx)" height="188.8516" id="GridObject" style="stroke: #A80036; stroke-width: 1.5;" width="268" x="182.5" y="116"/><ellipse cx="279.75" cy="132" fill="#ADD1B2" rx="11" ry="11" style="stroke: #A80036; stroke-width: 1.0;"/><path d="M282.7188,137.6406 Q282.1406,137.9375 281.5,138.0781 Q280.8594,138.2344 280.1563,138.2344 Q277.6563,138.2344 276.3281,136.5938 Q275.0156,134.9375 275.0156,131.8125 Q275.0156,128.6875 276.3281,127.0313 Q277.6563,125.375 280.1563,125.375 Q280.8594,125.375 281.5,125.5313 Q282.1563,125.6875 282.7188,125.9844 L282.7188,128.7031 Q282.0938,128.125 281.5,127.8594 Q280.9063,127.5781 280.2813,127.5781 Q278.9375,127.5781 278.25,128.6563 Q277.5625,129.7188 277.5625,131.8125 Q277.5625,133.9063 278.25,134.9844 Q278.9375,136.0469 280.2813,136.0469 Q280.9063,136.0469 281.5,135.7813 Q282.0938,135.5 282.7188,134.9219 L282.7188,137.6406 Z "/><text fill="#000000" font-family="sans-serif" font-size="12" lengthAdjust="spacingAndGlyphs" textLength="65" x="300.25" y="136.1543">GridObject</text><line style="stroke: #A80036; stroke-width: 1.5;" x1="183.5" x2="449.5" y1="148" y2="148"/><ellipse cx="193.5" cy="159" fill="none" rx="3" ry="3" style="stroke: #038048; stroke-width: 1.0;"/><text fill="#000000" font-family="sans-serif" font-size="11" lengthAdjust="spacingAndGlyphs" textLength="136" x="202.5" y="162.2104">isCreated : bool = false</text><line style="stroke: #A80036; stroke-width: 1.5;" x1="183.5" x2="449.5" y1="168.8047" y2="168.8047"/><ellipse cx="193.5" cy="179.8047" fill="#84BE84" rx="3" ry="3" style="stroke: #038048; stroke-width: 1.0;"/><text fill="#000000" font-family="sans-serif" font-size="11" lengthAdjust="spacingAndGlyphs" textLength="176" x="202.5" y="183.0151">«override» OnSelection() : void</text><ellipse cx="193.5" cy="192.6094" fill="#84BE84" rx="3" ry="3" style="stroke: #038048; stroke-width: 1.0;"/><text fill="#000000" font-family="sans-serif" font-size="11" lengthAdjust="spacingAndGlyphs" textLength="190" x="202.5" y="195.8198">«override» OnDeselection() : void</text><ellipse cx="193.5" cy="205.4141" fill="#84BE84" rx="3" ry="3" style="stroke: #038048; stroke-width: 1.0;"/><text fill="#000000" font-family="sans-serif" font-size="11" lengthAdjust="spacingAndGlyphs" textLength="172" x="202.5" y="208.6245">«override» OnCreation() : void</text><ellipse cx="193.5" cy="218.2188" fill="#84BE84" rx="3" ry="3" style="stroke: #038048; stroke-width: 1.0;"/><text fill="#000000" font-family="sans-serif" font-size="11" lengthAdjust="spacingAndGlyphs" textLength="170" x="202.5" y="221.4292">«override» OnDeletion() : void</text><ellipse cx="193.5" cy="231.0234" fill="#84BE84" rx="3" ry="3" style="stroke: #038048; stroke-width: 1.0;"/><text fill="#000000" font-family="sans-serif" font-size="11" lengthAdjust="spacingAndGlyphs" textLength="121" x="202.5" y="234.2339">OnReCreation() : void</text><ellipse cx="193.5" cy="243.8281" fill="#84BE84" rx="3" ry="3" style="stroke: #038048; stroke-width: 1.0;"/><text fill="#000000" font-family="sans-serif" font-size="11" lengthAdjust="spacingAndGlyphs" textLength="189" x="202.5" y="247.0386">AssignGrid(grid:PuzzleGrid) : void</text><ellipse cx="193.5" cy="256.6328" fill="#84BE84" rx="3" ry="3" style="stroke: #038048; stroke-width: 1.0;"/><text fill="#000000" font-family="sans-serif" font-size="11" lengthAdjust="spacingAndGlyphs" textLength="242" x="202.5" y="259.8433">«override» MoveTo(newPos:Vector3) : void</text><ellipse cx="193.5" cy="269.4375" fill="#84BE84" rx="3" ry="3" style="stroke: #038048; stroke-width: 1.0;"/><text fill="#000000" font-family="sans-serif" font-size="11" lengthAdjust="spacingAndGlyphs" textLength="172" x="202.5" y="272.6479">«override» SaveObject() : void</text><ellipse cx="193.5" cy="282.2422" fill="#84BE84" rx="3" ry="3" style="stroke: #038048; stroke-width: 1.0;"/><text fill="#000000" font-family="sans-serif" font-size="11" lengthAdjust="spacingAndGlyphs" textLength="112" x="202.5" y="285.4526">OnPlayMode() : void</text><ellipse cx="193.5" cy="295.0469" fill="#84BE84" rx="3" ry="3" style="stroke: #038048; stroke-width: 1.0;"/><text fill="#000000" font-family="sans-serif" font-size="11" lengthAdjust="spacingAndGlyphs" textLength="110" x="202.5" y="298.2573">OnEditMode() : void</text><!--MD5=[3e3dd52dac426c18b8ac473edafca0c7]
class GridObjectData--><rect fill="#FEFECE" filter="url(#f1whevb22j1pwx)" height="60.8047" id="GridObjectData" style="stroke: #A80036; stroke-width: 1.5;" width="127" x="60" y="365"/><ellipse cx="75" cy="381" fill="#ADD1B2" rx="11" ry="11" style="stroke: #A80036; stroke-width: 1.0;"/><path d="M77.9688,386.6406 Q77.3906,386.9375 76.75,387.0781 Q76.1094,387.2344 75.4063,387.2344 Q72.9063,387.2344 71.5781,385.5938 Q70.2656,383.9375 70.2656,380.8125 Q70.2656,377.6875 71.5781,376.0313 Q72.9063,374.375 75.4063,374.375 Q76.1094,374.375 76.75,374.5313 Q77.4063,374.6875 77.9688,374.9844 L77.9688,377.7031 Q77.3438,377.125 76.75,376.8594 Q76.1563,376.5781 75.5313,376.5781 Q74.1875,376.5781 73.5,377.6563 Q72.8125,378.7188 72.8125,380.8125 Q72.8125,382.9063 73.5,383.9844 Q74.1875,385.0469 75.5313,385.0469 Q76.1563,385.0469 76.75,384.7813 Q77.3438,384.5 77.9688,383.9219 L77.9688,386.6406 Z "/><text fill="#000000" font-family="sans-serif" font-size="12" lengthAdjust="spacingAndGlyphs" textLength="95" x="89" y="385.1543">GridObjectData</text><line style="stroke: #A80036; stroke-width: 1.5;" x1="61" x2="186" y1="397" y2="397"/><line style="stroke: #A80036; stroke-width: 1.5;" x1="61" x2="186" y1="405" y2="405"/><ellipse cx="71" cy="416" fill="#84BE84" rx="3" ry="3" style="stroke: #038048; stroke-width: 1.0;"/><text fill="#000000" font-family="sans-serif" font-size="11" lengthAdjust="spacingAndGlyphs" textLength="94" x="80" y="419.2104">GridObjectData()</text><!--MD5=[e644022de7dea015dd09463c37421447]
class List`1--><rect fill="#FEFECE" filter="url(#f1whevb22j1pwx)" height="48" id="List`1" style="stroke: #A80036; stroke-width: 1.5;" width="78" x="644.5" y="186.5"/><ellipse cx="659.5" cy="202.5" fill="#ADD1B2" rx="11" ry="11" style="stroke: #A80036; stroke-width: 1.0;"/><path d="M662.4688,208.1406 Q661.8906,208.4375 661.25,208.5781 Q660.6094,208.7344 659.9063,208.7344 Q657.4063,208.7344 656.0781,207.0938 Q654.7656,205.4375 654.7656,202.3125 Q654.7656,199.1875 656.0781,197.5313 Q657.4063,195.875 659.9063,195.875 Q660.6094,195.875 661.25,196.0313 Q661.9063,196.1875 662.4688,196.4844 L662.4688,199.2031 Q661.8438,198.625 661.25,198.3594 Q660.6563,198.0781 660.0313,198.0781 Q658.6875,198.0781 658,199.1563 Q657.3125,200.2188 657.3125,202.3125 Q657.3125,204.4063 658,205.4844 Q658.6875,206.5469 660.0313,206.5469 Q660.6563,206.5469 661.25,206.2813 Q661.8438,206 662.4688,205.4219 L662.4688,208.1406 Z "/><text fill="#000000" font-family="sans-serif" font-size="12" lengthAdjust="spacingAndGlyphs" textLength="35" x="673.5" y="206.6543">List`1</text><rect fill="#FFFFFF" height="15.9688" style="stroke: #000000; stroke-width: 1.0; stroke-dasharray: 2.0,2.0;" width="9" x="716.5" y="183.5"/><text fill="#000000" font-family="sans-serif" font-size="12" font-style="italic" lengthAdjust="spacingAndGlyphs" textLength="7" x="717.5" y="195.6387">T</text><line style="stroke: #A80036; stroke-width: 1.5;" x1="645.5" x2="721.5" y1="218.5" y2="218.5"/><line style="stroke: #A80036; stroke-width: 1.5;" x1="645.5" x2="721.5" y1="226.5" y2="226.5"/><!--MD5=[59deb3f529aec2644655575e1fb76f6e]
class SceneObject--><rect fill="#FEFECE" filter="url(#f1whevb22j1pwx)" height="48" id="SceneObject" style="stroke: #A80036; stroke-width: 1.5;" width="111" x="261" y="8"/><ellipse cx="276" cy="24" fill="#ADD1B2" rx="11" ry="11" style="stroke: #A80036; stroke-width: 1.0;"/><path d="M278.9688,29.6406 Q278.3906,29.9375 277.75,30.0781 Q277.1094,30.2344 276.4063,30.2344 Q273.9063,30.2344 272.5781,28.5938 Q271.2656,26.9375 271.2656,23.8125 Q271.2656,20.6875 272.5781,19.0313 Q273.9063,17.375 276.4063,17.375 Q277.1094,17.375 277.75,17.5313 Q278.4063,17.6875 278.9688,17.9844 L278.9688,20.7031 Q278.3438,20.125 277.75,19.8594 Q277.1563,19.5781 276.5313,19.5781 Q275.1875,19.5781 274.5,20.6563 Q273.8125,21.7188 273.8125,23.8125 Q273.8125,25.9063 274.5,26.9844 Q275.1875,28.0469 276.5313,28.0469 Q277.1563,28.0469 277.75,27.7813 Q278.3438,27.5 278.9688,26.9219 L278.9688,29.6406 Z "/><text fill="#000000" font-family="sans-serif" font-size="12" lengthAdjust="spacingAndGlyphs" textLength="79" x="290" y="28.1543">SceneObject</text><line style="stroke: #A80036; stroke-width: 1.5;" x1="262" x2="371" y1="40" y2="40"/><line style="stroke: #A80036; stroke-width: 1.5;" x1="262" x2="371" y1="48" y2="48"/><!--MD5=[ca4282e67b9ec4eef327b3d9bf721b8a]
class PuzzleGrid--><rect fill="#FEFECE" filter="url(#f1whevb22j1pwx)" height="48" id="PuzzleGrid" style="stroke: #A80036; stroke-width: 1.5;" width="94" x="269.5" y="371.5"/><ellipse cx="284.5" cy="387.5" fill="#ADD1B2" rx="11" ry="11" style="stroke: #A80036; stroke-width: 1.0;"/><path d="M287.4688,393.1406 Q286.8906,393.4375 286.25,393.5781 Q285.6094,393.7344 284.9063,393.7344 Q282.4063,393.7344 281.0781,392.0938 Q279.7656,390.4375 279.7656,387.3125 Q279.7656,384.1875 281.0781,382.5313 Q282.4063,380.875 284.9063,380.875 Q285.6094,380.875 286.25,381.0313 Q286.9063,381.1875 287.4688,381.4844 L287.4688,384.2031 Q286.8438,383.625 286.25,383.3594 Q285.6563,383.0781 285.0313,383.0781 Q283.6875,383.0781 283,384.1563 Q282.3125,385.2188 282.3125,387.3125 Q282.3125,389.4063 283,390.4844 Q283.6875,391.5469 285.0313,391.5469 Q285.6563,391.5469 286.25,391.2813 Q286.8438,391 287.4688,390.4219 L287.4688,393.1406 Z "/><text fill="#000000" font-family="sans-serif" font-size="12" lengthAdjust="spacingAndGlyphs" textLength="62" x="298.5" y="391.6543">PuzzleGrid</text><line style="stroke: #A80036; stroke-width: 1.5;" x1="270.5" x2="362.5" y1="403.5" y2="403.5"/><line style="stroke: #A80036; stroke-width: 1.5;" x1="270.5" x2="362.5" y1="411.5" y2="411.5"/><!--MD5=[8f832a948bfc4a3a93e752f9abe9d00b]
class TileInformation--><rect fill="#FEFECE" filter="url(#f1whevb22j1pwx)" height="48" id="TileInformation" style="stroke: #A80036; stroke-width: 1.5;" width="124" x="485.5" y="186.5"/><ellipse cx="500.5" cy="202.5" fill="#ADD1B2" rx="11" ry="11" style="stroke: #A80036; stroke-width: 1.0;"/><path d="M503.4688,208.1406 Q502.8906,208.4375 502.25,208.5781 Q501.6094,208.7344 500.9063,208.7344 Q498.4063,208.7344 497.0781,207.0938 Q495.7656,205.4375 495.7656,202.3125 Q495.7656,199.1875 497.0781,197.5313 Q498.4063,195.875 500.9063,195.875 Q501.6094,195.875 502.25,196.0313 Q502.9063,196.1875 503.4688,196.4844 L503.4688,199.2031 Q502.8438,198.625 502.25,198.3594 Q501.6563,198.0781 501.0313,198.0781 Q499.6875,198.0781 499,199.1563 Q498.3125,200.2188 498.3125,202.3125 Q498.3125,204.4063 499,205.4844 Q499.6875,206.5469 501.0313,206.5469 Q501.6563,206.5469 502.25,206.2813 Q502.8438,206 503.4688,205.4219 L503.4688,208.1406 Z "/><text fill="#000000" font-family="sans-serif" font-size="12" lengthAdjust="spacingAndGlyphs" textLength="92" x="514.5" y="206.6543">TileInformation</text><line style="stroke: #A80036; stroke-width: 1.5;" x1="486.5" x2="608.5" y1="218.5" y2="218.5"/><line style="stroke: #A80036; stroke-width: 1.5;" x1="486.5" x2="608.5" y1="226.5" y2="226.5"/><!--MD5=[f0f1385ed93d2b4b9c99cf13ea11d247]
class SceneObjectData--><rect fill="#FEFECE" filter="url(#f1whevb22j1pwx)" height="48" id="SceneObjectData" style="stroke: #A80036; stroke-width: 1.5;" width="141" x="6" y="186.5"/><ellipse cx="21" cy="202.5" fill="#ADD1B2" rx="11" ry="11" style="stroke: #A80036; stroke-width: 1.0;"/><path d="M23.9688,208.1406 Q23.3906,208.4375 22.75,208.5781 Q22.1094,208.7344 21.4063,208.7344 Q18.9063,208.7344 17.5781,207.0938 Q16.2656,205.4375 16.2656,202.3125 Q16.2656,199.1875 17.5781,197.5313 Q18.9063,195.875 21.4063,195.875 Q22.1094,195.875 22.75,196.0313 Q23.4063,196.1875 23.9688,196.4844 L23.9688,199.2031 Q23.3438,198.625 22.75,198.3594 Q22.1563,198.0781 21.5313,198.0781 Q20.1875,198.0781 19.5,199.1563 Q18.8125,200.2188 18.8125,202.3125 Q18.8125,204.4063 19.5,205.4844 Q20.1875,206.5469 21.5313,206.5469 Q22.1563,206.5469 22.75,206.2813 Q23.3438,206 23.9688,205.4219 L23.9688,208.1406 Z "/><text fill="#000000" font-family="sans-serif" font-size="12" lengthAdjust="spacingAndGlyphs" textLength="109" x="35" y="206.6543">SceneObjectData</text><line style="stroke: #A80036; stroke-width: 1.5;" x1="7" x2="146" y1="218.5" y2="218.5"/><line style="stroke: #A80036; stroke-width: 1.5;" x1="7" x2="146" y1="226.5" y2="226.5"/><!--MD5=[67dc9d447ac5dbb625e3d503755a5c3a]
class TileType--><rect fill="#FEFECE" filter="url(#f1whevb22j1pwx)" height="48" id="TileType" style="stroke: #A80036; stroke-width: 1.5;" width="82" x="82.5" y="486"/><ellipse cx="97.5" cy="502" fill="#ADD1B2" rx="11" ry="11" style="stroke: #A80036; stroke-width: 1.0;"/><path d="M100.4688,507.6406 Q99.8906,507.9375 99.25,508.0781 Q98.6094,508.2344 97.9063,508.2344 Q95.4063,508.2344 94.0781,506.5938 Q92.7656,504.9375 92.7656,501.8125 Q92.7656,498.6875 94.0781,497.0313 Q95.4063,495.375 97.9063,495.375 Q98.6094,495.375 99.25,495.5313 Q99.9063,495.6875 100.4688,495.9844 L100.4688,498.7031 Q99.8438,498.125 99.25,497.8594 Q98.6563,497.5781 98.0313,497.5781 Q96.6875,497.5781 96,498.6563 Q95.3125,499.7188 95.3125,501.8125 Q95.3125,503.9063 96,504.9844 Q96.6875,506.0469 98.0313,506.0469 Q98.6563,506.0469 99.25,505.7813 Q99.8438,505.5 100.4688,504.9219 L100.4688,507.6406 Z "/><text fill="#000000" font-family="sans-serif" font-size="12" lengthAdjust="spacingAndGlyphs" textLength="50" x="111.5" y="506.1543">TileType</text><line style="stroke: #A80036; stroke-width: 1.5;" x1="83.5" x2="163.5" y1="518" y2="518"/><line style="stroke: #A80036; stroke-width: 1.5;" x1="83.5" x2="163.5" y1="526" y2="526"/><!--MD5=[600e4172a42b607f634b2c4769501dd3]
reverse link SceneObject to GridObject--><path d="M316.5,76.38 C316.5,88.4 316.5,101.93 316.5,115.65 " fill="none" id="SceneObject&lt;-GridObject" style="stroke: #A80036; stroke-width: 1.0;"/><polygon fill="none" points="309.5,76.07,316.5,56.07,323.5,76.07,309.5,76.07" style="stroke: #A80036; stroke-width: 1.0;"/><!--MD5=[a8c56ede7a4a246f1974683cc52f866e]
link GridObject to PuzzleGrid--><path d="M316.5,305.14 C316.5,327.27 316.5,349.22 316.5,365.83 " fill="none" id="GridObject-&gt;PuzzleGrid" style="stroke: #A80036; stroke-width: 1.0;"/><polygon fill="#A80036" points="316.5,371.25,320.5,362.25,316.5,366.25,312.5,362.25,316.5,371.25" style="stroke: #A80036; stroke-width: 1.0;"/><text fill="#000000" font-family="sans-serif" font-size="13" lengthAdjust="spacingAndGlyphs" textLength="70" x="237.9688" y="360.594">sharedGrid</text><!--MD5=[219d7598daede26a7f14c5daaa7c261d]
link GridObject to List`1--><path d="M435.1148,109.6451 C435.1148,109.6451 468.97,91.58 486,86 C538.37,68.83 562.14,58.68 610,86 C642.75,104.7 662.38,144.34 673,173.9 " fill="none" id="GridObject-List`1" style="stroke: #A80036; stroke-width: 1.0;"/><polygon fill="#A80036" points="677.14,186.26,678.0751,176.4556,675.5523,181.5188,670.4891,178.996,677.14,186.26" style="stroke: #A80036; stroke-width: 1.0;"/><line style="stroke: #A80036; stroke-width: 1.0;" x1="675.5523" x2="673.015" y1="181.5188" y2="173.925"/><polygon fill="#FFFFFF" points="424.88,115.91,432.0857,116.1892,435.1148,109.6451,427.9091,109.366,424.88,115.91" style="stroke: #A80036; stroke-width: 1.0;"/><text fill="#000000" font-family="sans-serif" font-size="13" lengthAdjust="spacingAndGlyphs" textLength="161" x="495.099" y="175.4218">gridObjects&lt;GridObject&gt;</text><!--MD5=[3b4f406a29f1f41e2632b31478b71b0b]
link GridObject to TileInformation--><path d="M462.95,210.5 C462.95,210.5 469.38,210.5 472.03,210.5 " fill="none" id="GridObject-TileInformation" style="stroke: #A80036; stroke-width: 1.0;"/><polygon fill="#A80036" points="485.27,210.5,476.27,206.5,480.27,210.5,476.27,214.5,485.27,210.5" style="stroke: #A80036; stroke-width: 1.0;"/><line style="stroke: #A80036; stroke-width: 1.0;" x1="480.27" x2="472.27" y1="210.5" y2="210.5"/><polygon fill="#FFFFFF" points="450.95,210.5,456.95,214.5,462.95,210.5,456.95,206.5,450.95,210.5" style="stroke: #A80036; stroke-width: 1.0;"/><text fill="#000000" font-family="sans-serif" font-size="13" lengthAdjust="spacingAndGlyphs" textLength="117" x="401.2161" y="175.1605">lastTileInformation</text><!--MD5=[a689101e534316f48549aac42a532e5a]
link GridObject to GridObjectData--><path d="M217.74,305.14 C196.53,325.26 175.46,345.23 158.65,361.18 " fill="none" id="GridObject-&gt;GridObjectData" style="stroke: #A80036; stroke-width: 1.0;"/><polygon fill="#A80036" points="154.9,364.72,164.182,361.427,158.5271,361.2785,158.6756,355.6236,154.9,364.72" style="stroke: #A80036; stroke-width: 1.0;"/><text fill="#000000" font-family="sans-serif" font-size="13" lengthAdjust="spacingAndGlyphs" textLength="51" x="105.1169" y="353.9255">myData</text><!--MD5=[5d66e4098b478947907e96b4ad633ef6]
reverse link SceneObjectData to GridObjectData--><path d="M87.52,254.41 C96.24,288.37 108.2,334.92 115.89,364.86 " fill="none" id="SceneObjectData&lt;-GridObjectData" style="stroke: #A80036; stroke-width: 1.0;"/><polygon fill="none" points="80.65,255.79,82.45,234.68,94.21,252.31,80.65,255.79" style="stroke: #A80036; stroke-width: 1.0;"/><!--MD5=[3ef4cb5bcec8170b13b0346f1da81f14]
link GridObjectData to TileType--><path d="M123.5,426.06 C123.5,442.93 123.5,463.98 123.5,480.65 " fill="none" id="GridObjectData-&gt;TileType" style="stroke: #A80036; stroke-width: 1.0;"/><polygon fill="#A80036" points="123.5,485.67,127.5,476.67,123.5,480.67,119.5,476.67,123.5,485.67" style="stroke: #A80036; stroke-width: 1.0;"/><text fill="#000000" font-family="sans-serif" font-size="13" lengthAdjust="spacingAndGlyphs" textLength="49" x="68.5281" y="474.9945">tileType</text><!--MD5=[6cb2533267b409fabfe73924e5a1b849]
@startuml
class GridObject {
    + isCreated : bool = false
    + <<override>> OnSelection() : void
    + <<override>> OnDeselection() : void
    + <<override>> OnCreation() : void
    + <<override>> OnDeletion() : void
    + OnReCreation() : void
    + AssignGrid(grid:PuzzleGrid) : void
    + <<override>> MoveTo(newPos:Vector3) : void
    + <<override>> SaveObject() : void
    + OnPlayMode() : void
    + OnEditMode() : void
}
class GridObjectData {
    + GridObjectData()
}
class "List`1"<T> {
}
SceneObject <|- - GridObject
GridObject - -> "sharedGrid" PuzzleGrid
GridObject o-> "gridObjects<GridObject>" "List`1"
GridObject o-> "lastTileInformation" TileInformation
GridObject - -> "myData" GridObjectData
SceneObjectData <|- - GridObjectData
GridObjectData - -> "tileType" TileType
@enduml

PlantUML version 1.2020.02(Sun Mar 01 10:22:07 GMT 2020)
(GPL source distribution)
Java Runtime: OpenJDK Runtime Environment
JVM: OpenJDK 64-Bit Server VM
Java Version: 11.0.9+11-Ubuntu-0ubuntu1
Operating System: Linux
Default Encoding: ANSI_X3.4-1968
Language: en
Country: US
--></g></svg>