<?xml version="1.0" encoding="UTF-8" standalone="no"?><svg xmlns="http://www.w3.org/2000/svg" xmlns:xlink="http://www.w3.org/1999/xlink" contentScriptType="application/ecmascript" contentStyleType="text/css" height="437px" preserveAspectRatio="none" style="width:730px;height:437px;" version="1.1" viewBox="0 0 730 437" width="730px" zoomAndPan="magnify"><defs><filter height="300%" id="f1wd0ctew8wtnc" width="300%" x="-1" y="-1"><feGaussianBlur result="blurOut" stdDeviation="2.0"/><feColorMatrix in="blurOut" result="blurOut2" type="matrix" values="0 0 0 0 0 0 0 0 0 0 0 0 0 0 0 0 0 0 .4 0"/><feOffset dx="4.0" dy="4.0" in="blurOut2" result="blurOut3"/><feBlend in="SourceGraphic" in2="blurOut3" mode="normal"/></filter></defs><g><!--MD5=[8a054eb5e479324502f5c09247189d5a]
class MoveToolArrow--><rect fill="#FEFECE" filter="url(#f1wd0ctew8wtnc)" height="201.6563" id="MoveToolArrow" style="stroke: #A80036; stroke-width: 1.5;" width="713" x="6" y="116"/><ellipse cx="311.75" cy="132" fill="#ADD1B2" rx="11" ry="11" style="stroke: #A80036; stroke-width: 1.0;"/><path d="M314.7188,137.6406 Q314.1406,137.9375 313.5,138.0781 Q312.8594,138.2344 312.1563,138.2344 Q309.6563,138.2344 308.3281,136.5938 Q307.0156,134.9375 307.0156,131.8125 Q307.0156,128.6875 308.3281,127.0313 Q309.6563,125.375 312.1563,125.375 Q312.8594,125.375 313.5,125.5313 Q314.1563,125.6875 314.7188,125.9844 L314.7188,128.7031 Q314.0938,128.125 313.5,127.8594 Q312.9063,127.5781 312.2813,127.5781 Q310.9375,127.5781 310.25,128.6563 Q309.5625,129.7188 309.5625,131.8125 Q309.5625,133.9063 310.25,134.9844 Q310.9375,136.0469 312.2813,136.0469 Q312.9063,136.0469 313.5,135.7813 Q314.0938,135.5 314.7188,134.9219 L314.7188,137.6406 Z "/><text fill="#000000" font-family="sans-serif" font-size="12" lengthAdjust="spacingAndGlyphs" textLength="93" x="332.25" y="136.1543">MoveToolArrow</text><line style="stroke: #A80036; stroke-width: 1.5;" x1="7" x2="718" y1="148" y2="148"/><text fill="#000000" font-family="sans-serif" font-size="11" lengthAdjust="spacingAndGlyphs" textLength="110" x="12" y="162.2104">arrowsDepth : float</text><text fill="#000000" font-family="sans-serif" font-size="11" lengthAdjust="spacingAndGlyphs" textLength="114" x="12" y="175.0151">forwardDepth : float</text><text fill="#000000" font-family="sans-serif" font-size="11" lengthAdjust="spacingAndGlyphs" textLength="123" x="12" y="187.8198">doRelativeSnap : bool</text><text fill="#000000" font-family="sans-serif" font-size="11" lengthAdjust="spacingAndGlyphs" textLength="88" x="12" y="200.6245">snapSize : float</text><text fill="#000000" font-family="sans-serif" font-size="11" lengthAdjust="spacingAndGlyphs" textLength="103" x="12" y="213.4292">doGridSnap : bool</text><text fill="#000000" font-family="sans-serif" font-size="11" lengthAdjust="spacingAndGlyphs" textLength="115" x="12" y="226.2339">minViewAngle : float</text><text fill="#000000" font-family="sans-serif" font-size="11" lengthAdjust="spacingAndGlyphs" textLength="104" x="12" y="239.0386">doFreeMove : bool</text><text fill="#000000" font-family="sans-serif" font-size="11" lengthAdjust="spacingAndGlyphs" textLength="102" x="12" y="251.8433">doEmission : bool</text><line style="stroke: #A80036; stroke-width: 1.5;" x1="7" x2="718" y1="258.4375" y2="258.4375"/><ellipse cx="17" cy="269.4375" fill="#84BE84" rx="3" ry="3" style="stroke: #038048; stroke-width: 1.0;"/><text fill="#000000" font-family="sans-serif" font-size="11" lengthAdjust="spacingAndGlyphs" textLength="164" x="26" y="272.6479">«override» OnUpdate() : void</text><ellipse cx="17" cy="282.2422" fill="#84BE84" rx="3" ry="3" style="stroke: #038048; stroke-width: 1.0;"/><text fill="#000000" font-family="sans-serif" font-size="11" lengthAdjust="spacingAndGlyphs" textLength="687" x="26" y="285.4526">MouseDown(currentArrowDepth:float, currentToolCentre:Vector3, relativeSnap:bool, gridSnap:bool, snapSize:float) : void</text><ellipse cx="17" cy="295.0469" fill="#84BE84" rx="3" ry="3" style="stroke: #038048; stroke-width: 1.0;"/><text fill="#000000" font-family="sans-serif" font-size="11" lengthAdjust="spacingAndGlyphs" textLength="109" x="26" y="298.2573">MouseMove() : void</text><ellipse cx="17" cy="307.8516" fill="#84BE84" rx="3" ry="3" style="stroke: #038048; stroke-width: 1.0;"/><text fill="#000000" font-family="sans-serif" font-size="11" lengthAdjust="spacingAndGlyphs" textLength="115" x="26" y="311.062">MouseUp() : Vector3</text><!--MD5=[cdc675492b5c7404f9d1fea69146a946]
class EditorBase--><rect fill="#FEFECE" filter="url(#f1wd0ctew8wtnc)" height="48" id="EditorBase" style="stroke: #A80036; stroke-width: 1.5;" width="100" x="312.5" y="8"/><ellipse cx="327.5" cy="24" fill="#ADD1B2" rx="11" ry="11" style="stroke: #A80036; stroke-width: 1.0;"/><path d="M330.4688,29.6406 Q329.8906,29.9375 329.25,30.0781 Q328.6094,30.2344 327.9063,30.2344 Q325.4063,30.2344 324.0781,28.5938 Q322.7656,26.9375 322.7656,23.8125 Q322.7656,20.6875 324.0781,19.0313 Q325.4063,17.375 327.9063,17.375 Q328.6094,17.375 329.25,17.5313 Q329.9063,17.6875 330.4688,17.9844 L330.4688,20.7031 Q329.8438,20.125 329.25,19.8594 Q328.6563,19.5781 328.0313,19.5781 Q326.6875,19.5781 326,20.6563 Q325.3125,21.7188 325.3125,23.8125 Q325.3125,25.9063 326,26.9844 Q326.6875,28.0469 328.0313,28.0469 Q328.6563,28.0469 329.25,27.7813 Q329.8438,27.5 330.4688,26.9219 L330.4688,29.6406 Z "/><text fill="#000000" font-family="sans-serif" font-size="12" lengthAdjust="spacingAndGlyphs" textLength="68" x="341.5" y="28.1543">EditorBase</text><line style="stroke: #A80036; stroke-width: 1.5;" x1="313.5" x2="411.5" y1="40" y2="40"/><line style="stroke: #A80036; stroke-width: 1.5;" x1="313.5" x2="411.5" y1="48" y2="48"/><!--MD5=[452be1aaf8b94e2bc4204d466ef769a4]
class Camera--><rect fill="#FEFECE" filter="url(#f1wd0ctew8wtnc)" height="48" id="Camera" style="stroke: #A80036; stroke-width: 1.5;" width="80" x="76.5" y="378"/><ellipse cx="91.5" cy="394" fill="#ADD1B2" rx="11" ry="11" style="stroke: #A80036; stroke-width: 1.0;"/><path d="M94.4688,399.6406 Q93.8906,399.9375 93.25,400.0781 Q92.6094,400.2344 91.9063,400.2344 Q89.4063,400.2344 88.0781,398.5938 Q86.7656,396.9375 86.7656,393.8125 Q86.7656,390.6875 88.0781,389.0313 Q89.4063,387.375 91.9063,387.375 Q92.6094,387.375 93.25,387.5313 Q93.9063,387.6875 94.4688,387.9844 L94.4688,390.7031 Q93.8438,390.125 93.25,389.8594 Q92.6563,389.5781 92.0313,389.5781 Q90.6875,389.5781 90,390.6563 Q89.3125,391.7188 89.3125,393.8125 Q89.3125,395.9063 90,396.9844 Q90.6875,398.0469 92.0313,398.0469 Q92.6563,398.0469 93.25,397.7813 Q93.8438,397.5 94.4688,396.9219 L94.4688,399.6406 Z "/><text fill="#000000" font-family="sans-serif" font-size="12" lengthAdjust="spacingAndGlyphs" textLength="48" x="105.5" y="398.1543">Camera</text><line style="stroke: #A80036; stroke-width: 1.5;" x1="77.5" x2="155.5" y1="410" y2="410"/><line style="stroke: #A80036; stroke-width: 1.5;" x1="77.5" x2="155.5" y1="418" y2="418"/><!--MD5=[004b1d6c4ca8aad4ba8b586a335ed4f3]
class Transform--><rect fill="#FEFECE" filter="url(#f1wd0ctew8wtnc)" height="48" id="Transform" style="stroke: #A80036; stroke-width: 1.5;" width="95" x="192" y="378"/><ellipse cx="207" cy="394" fill="#ADD1B2" rx="11" ry="11" style="stroke: #A80036; stroke-width: 1.0;"/><path d="M209.9688,399.6406 Q209.3906,399.9375 208.75,400.0781 Q208.1094,400.2344 207.4063,400.2344 Q204.9063,400.2344 203.5781,398.5938 Q202.2656,396.9375 202.2656,393.8125 Q202.2656,390.6875 203.5781,389.0313 Q204.9063,387.375 207.4063,387.375 Q208.1094,387.375 208.75,387.5313 Q209.4063,387.6875 209.9688,387.9844 L209.9688,390.7031 Q209.3438,390.125 208.75,389.8594 Q208.1563,389.5781 207.5313,389.5781 Q206.1875,389.5781 205.5,390.6563 Q204.8125,391.7188 204.8125,393.8125 Q204.8125,395.9063 205.5,396.9844 Q206.1875,398.0469 207.5313,398.0469 Q208.1563,398.0469 208.75,397.7813 Q209.3438,397.5 209.9688,396.9219 L209.9688,399.6406 Z "/><text fill="#000000" font-family="sans-serif" font-size="12" lengthAdjust="spacingAndGlyphs" textLength="63" x="221" y="398.1543">Transform</text><line style="stroke: #A80036; stroke-width: 1.5;" x1="193" x2="286" y1="410" y2="410"/><line style="stroke: #A80036; stroke-width: 1.5;" x1="193" x2="286" y1="418" y2="418"/><!--MD5=[65d619c042c23702cef2ca07d67b1cf6]
class Vector3--><rect fill="#FEFECE" filter="url(#f1wd0ctew8wtnc)" height="48" id="Vector3" style="stroke: #A80036; stroke-width: 1.5;" width="81" x="322" y="378"/><ellipse cx="337" cy="394" fill="#ADD1B2" rx="11" ry="11" style="stroke: #A80036; stroke-width: 1.0;"/><path d="M339.9688,399.6406 Q339.3906,399.9375 338.75,400.0781 Q338.1094,400.2344 337.4063,400.2344 Q334.9063,400.2344 333.5781,398.5938 Q332.2656,396.9375 332.2656,393.8125 Q332.2656,390.6875 333.5781,389.0313 Q334.9063,387.375 337.4063,387.375 Q338.1094,387.375 338.75,387.5313 Q339.4063,387.6875 339.9688,387.9844 L339.9688,390.7031 Q339.3438,390.125 338.75,389.8594 Q338.1563,389.5781 337.5313,389.5781 Q336.1875,389.5781 335.5,390.6563 Q334.8125,391.7188 334.8125,393.8125 Q334.8125,395.9063 335.5,396.9844 Q336.1875,398.0469 337.5313,398.0469 Q338.1563,398.0469 338.75,397.7813 Q339.3438,397.5 339.9688,396.9219 L339.9688,399.6406 Z "/><text fill="#000000" font-family="sans-serif" font-size="12" lengthAdjust="spacingAndGlyphs" textLength="49" x="351" y="398.1543">Vector3</text><line style="stroke: #A80036; stroke-width: 1.5;" x1="323" x2="402" y1="410" y2="410"/><line style="stroke: #A80036; stroke-width: 1.5;" x1="323" x2="402" y1="418" y2="418"/><!--MD5=[17c0e1de84ba98e23d8fba3bc9315d65]
class MeshRenderer--><rect fill="#FEFECE" filter="url(#f1wd0ctew8wtnc)" height="48" id="MeshRenderer" style="stroke: #A80036; stroke-width: 1.5;" width="123" x="438" y="378"/><ellipse cx="453" cy="394" fill="#ADD1B2" rx="11" ry="11" style="stroke: #A80036; stroke-width: 1.0;"/><path d="M455.9688,399.6406 Q455.3906,399.9375 454.75,400.0781 Q454.1094,400.2344 453.4063,400.2344 Q450.9063,400.2344 449.5781,398.5938 Q448.2656,396.9375 448.2656,393.8125 Q448.2656,390.6875 449.5781,389.0313 Q450.9063,387.375 453.4063,387.375 Q454.1094,387.375 454.75,387.5313 Q455.4063,387.6875 455.9688,387.9844 L455.9688,390.7031 Q455.3438,390.125 454.75,389.8594 Q454.1563,389.5781 453.5313,389.5781 Q452.1875,389.5781 451.5,390.6563 Q450.8125,391.7188 450.8125,393.8125 Q450.8125,395.9063 451.5,396.9844 Q452.1875,398.0469 453.5313,398.0469 Q454.1563,398.0469 454.75,397.7813 Q455.3438,397.5 455.9688,396.9219 L455.9688,399.6406 Z "/><text fill="#000000" font-family="sans-serif" font-size="12" lengthAdjust="spacingAndGlyphs" textLength="91" x="467" y="398.1543">MeshRenderer</text><line style="stroke: #A80036; stroke-width: 1.5;" x1="439" x2="560" y1="410" y2="410"/><line style="stroke: #A80036; stroke-width: 1.5;" x1="439" x2="560" y1="418" y2="418"/><!--MD5=[54a488a4a92f468cb0211fa542ba3aa8]
class Collider--><rect fill="#FEFECE" filter="url(#f1wd0ctew8wtnc)" height="48" id="Collider" style="stroke: #A80036; stroke-width: 1.5;" width="78" x="596.5" y="378"/><ellipse cx="611.5" cy="394" fill="#ADD1B2" rx="11" ry="11" style="stroke: #A80036; stroke-width: 1.0;"/><path d="M614.4688,399.6406 Q613.8906,399.9375 613.25,400.0781 Q612.6094,400.2344 611.9063,400.2344 Q609.4063,400.2344 608.0781,398.5938 Q606.7656,396.9375 606.7656,393.8125 Q606.7656,390.6875 608.0781,389.0313 Q609.4063,387.375 611.9063,387.375 Q612.6094,387.375 613.25,387.5313 Q613.9063,387.6875 614.4688,387.9844 L614.4688,390.7031 Q613.8438,390.125 613.25,389.8594 Q612.6563,389.5781 612.0313,389.5781 Q610.6875,389.5781 610,390.6563 Q609.3125,391.7188 609.3125,393.8125 Q609.3125,395.9063 610,396.9844 Q610.6875,398.0469 612.0313,398.0469 Q612.6563,398.0469 613.25,397.7813 Q613.8438,397.5 614.4688,396.9219 L614.4688,399.6406 Z "/><text fill="#000000" font-family="sans-serif" font-size="12" lengthAdjust="spacingAndGlyphs" textLength="46" x="625.5" y="398.1543">Collider</text><line style="stroke: #A80036; stroke-width: 1.5;" x1="597.5" x2="673.5" y1="410" y2="410"/><line style="stroke: #A80036; stroke-width: 1.5;" x1="597.5" x2="673.5" y1="418" y2="418"/><!--MD5=[f328a2c20ccd9c37b10e938a346f416a]
reverse link EditorBase to MoveToolArrow--><path d="M362.5,76.46 C362.5,88.49 362.5,102.06 362.5,115.9 " fill="none" id="EditorBase&lt;-MoveToolArrow" style="stroke: #A80036; stroke-width: 1.0;"/><polygon fill="none" points="355.5,76.18,362.5,56.18,369.5,76.18,355.5,76.18" style="stroke: #A80036; stroke-width: 1.0;"/><!--MD5=[e63084aa1fce8d41047d94e75cf17811]
link MoveToolArrow to Camera--><path d="M227.98,318.07 C199.8,339.03 172.43,359.39 151.86,374.69 " fill="none" id="MoveToolArrow-&gt;Camera" style="stroke: #A80036; stroke-width: 1.0;"/><polygon fill="#A80036" points="147.84,377.68,157.445,375.502,151.8469,374.6892,152.6597,369.091,147.84,377.68" style="stroke: #A80036; stroke-width: 1.0;"/><text fill="#000000" font-family="sans-serif" font-size="13" lengthAdjust="spacingAndGlyphs" textLength="83" x="62.3635" y="367.007">mainCamera</text><!--MD5=[7cc112c551c3f07fddca388032b56995]
link MoveToolArrow to Transform--><path d="M282.54,318.07 C269.16,338.33 256.99,358.03 248.75,373.15 " fill="none" id="MoveToolArrow-&gt;Transform" style="stroke: #A80036; stroke-width: 1.0;"/><polygon fill="#A80036" points="246.32,377.68,254.0878,371.6251,248.6752,373.2694,247.0308,367.8568,246.32,377.68" style="stroke: #A80036; stroke-width: 1.0;"/><text fill="#000000" font-family="sans-serif" font-size="13" lengthAdjust="spacingAndGlyphs" textLength="67" x="172.8167" y="367.007">toolCentre</text><!--MD5=[7cc112c551c3f07fddca388032b56995]
link MoveToolArrow to Transform--><path d="M308.69,318.07 C294.7,338.51 280.19,358.37 267.93,373.54 " fill="none" id="MoveToolArrow-&gt;Transform-1" style="stroke: #A80036; stroke-width: 1.0;"/><polygon fill="#A80036" points="264.54,377.68,273.3278,373.2332,267.7,373.8051,267.128,368.1773,264.54,377.68" style="stroke: #A80036; stroke-width: 1.0;"/><text fill="#000000" font-family="sans-serif" font-size="13" lengthAdjust="spacingAndGlyphs" textLength="42" x="275.6595" y="366.9452">arrows</text><!--MD5=[1f2f6d680c6c7ce17b967cc4badb91cb]
link MoveToolArrow to Vector3--><path d="M310.21,318.07 C311.18,338.33 315.61,358.03 323.51,373.15 " fill="none" id="MoveToolArrow-&gt;Vector3" style="stroke: #A80036; stroke-width: 1.0;"/><polygon fill="#A80036" points="326.07,377.68,325.1195,367.8771,323.6078,373.3283,318.1567,371.8166,326.07,377.68" style="stroke: #A80036; stroke-width: 1.0;"/><text fill="#000000" font-family="sans-serif" font-size="13" lengthAdjust="spacingAndGlyphs" textLength="53" x="323.6496" y="367.007">startPos</text><!--MD5=[1f2f6d680c6c7ce17b967cc4badb91cb]
link MoveToolArrow to Vector3--><path d="M336.35,318.07 C336.83,338.16 339.02,357.69 342.9,372.75 " fill="none" id="MoveToolArrow-&gt;Vector3-1" style="stroke: #A80036; stroke-width: 1.0;"/><polygon fill="#A80036" points="344.28,377.68,345.7148,367.9362,342.9366,372.8638,338.009,370.0856,344.28,377.68" style="stroke: #A80036; stroke-width: 1.0;"/><text fill="#000000" font-family="sans-serif" font-size="13" lengthAdjust="spacingAndGlyphs" textLength="36" x="299.4514" y="367.007">offset</text><!--MD5=[1f2f6d680c6c7ce17b967cc4badb91cb]
link MoveToolArrow to Vector3--><path d="M362.5,318.07 C362.5,337.98 362.5,357.35 362.5,372.36 " fill="none" id="MoveToolArrow-&gt;Vector3-2" style="stroke: #A80036; stroke-width: 1.0;"/><polygon fill="#A80036" points="362.5,377.68,366.5,368.68,362.5,372.68,358.5,368.68,362.5,377.68" style="stroke: #A80036; stroke-width: 1.0;"/><text fill="#000000" font-family="sans-serif" font-size="13" lengthAdjust="spacingAndGlyphs" textLength="86" x="372.8508" y="366.9452">displacement</text><!--MD5=[1f2f6d680c6c7ce17b967cc4badb91cb]
link MoveToolArrow to Vector3--><path d="M388.65,318.07 C388.17,338.16 385.98,357.69 382.1,372.75 " fill="none" id="MoveToolArrow-&gt;Vector3-3" style="stroke: #A80036; stroke-width: 1.0;"/><polygon fill="#A80036" points="380.72,377.68,386.991,370.0856,382.0634,372.8638,379.2852,367.9362,380.72,377.68" style="stroke: #A80036; stroke-width: 1.0;"/><text fill="#000000" font-family="sans-serif" font-size="13" lengthAdjust="spacingAndGlyphs" textLength="70" x="383.0613" y="366.907">resultMove</text><!--MD5=[1f2f6d680c6c7ce17b967cc4badb91cb]
link MoveToolArrow to Vector3--><path d="M414.79,318.07 C413.82,338.33 409.39,358.03 401.49,373.15 " fill="none" id="MoveToolArrow-&gt;Vector3-4" style="stroke: #A80036; stroke-width: 1.0;"/><polygon fill="#A80036" points="398.93,377.68,406.8433,371.8166,401.3922,373.3283,399.8805,367.8771,398.93,377.68" style="stroke: #A80036; stroke-width: 1.0;"/><text fill="#000000" font-family="sans-serif" font-size="13" lengthAdjust="spacingAndGlyphs" textLength="62" x="407.6133" y="366.928">gridOffset</text><!--MD5=[0cf22bafb2ec65fcb59e1a0df80ea136]
link MoveToolArrow to MeshRenderer--><path d="M437.41,318.07 C452.72,338.51 467.59,358.37 478.94,373.54 " fill="none" id="MoveToolArrow-&gt;MeshRenderer" style="stroke: #A80036; stroke-width: 1.0;"/><polygon fill="#A80036" points="482.04,377.68,479.84,368.08,479.04,373.68,473.44,372.88,482.04,377.68" style="stroke: #A80036; stroke-width: 1.0;"/><text fill="#000000" font-family="sans-serif" font-size="13" lengthAdjust="spacingAndGlyphs" textLength="54" x="484.3654" y="367.007">myMesh</text><!--MD5=[34a1b5eb4b09fce8d41780677202ddbf]
link MoveToolArrow to Collider--><path d="M511.78,318.07 C543.3,339.2 573.91,359.71 596.79,375.05 " fill="none" id="MoveToolArrow-&gt;Collider" style="stroke: #A80036; stroke-width: 1.0;"/><polygon fill="#A80036" points="600.98,377.86,595.7301,369.527,596.8263,375.0766,591.2767,376.1728,600.98,377.86" style="stroke: #A80036; stroke-width: 1.0;"/><text fill="#000000" font-family="sans-serif" font-size="13" lengthAdjust="spacingAndGlyphs" textLength="67" x="600.7186" y="366.8362">myCollider</text><!--MD5=[cb674643b4a33c32203bce77ce8d94bc]
@startuml
class MoveToolArrow {
    arrowsDepth : float
    forwardDepth : float
    doRelativeSnap : bool
    snapSize : float
    doGridSnap : bool
    minViewAngle : float
    doFreeMove : bool
    doEmission : bool
    + <<override>> OnUpdate() : void
    + MouseDown(currentArrowDepth:float, currentToolCentre:Vector3, relativeSnap:bool, gridSnap:bool, snapSize:float) : void
    + MouseMove() : void
    + MouseUp() : Vector3
}
EditorBase <|- - MoveToolArrow
MoveToolArrow - -> "mainCamera" Camera
MoveToolArrow - -> "toolCentre" Transform
MoveToolArrow - -> "arrows" Transform
MoveToolArrow - -> "startPos" Vector3
MoveToolArrow - -> "offset" Vector3
MoveToolArrow - -> "displacement" Vector3
MoveToolArrow - -> "resultMove" Vector3
MoveToolArrow - -> "gridOffset" Vector3
MoveToolArrow - -> "myMesh" MeshRenderer
MoveToolArrow - -> "myCollider" Collider
@enduml

PlantUML version 1.2020.02(Sun Mar 01 10:22:07 GMT 2020)
(GPL source distribution)
Java Runtime: OpenJDK Runtime Environment
JVM: OpenJDK 64-Bit Server VM
Java Version: 11.0.9+11-Ubuntu-0ubuntu1
Operating System: Linux
Default Encoding: ANSI_X3.4-1968
Language: en
Country: US
--></g></svg>