<?xml version="1.0" encoding="UTF-8" standalone="no"?><svg xmlns="http://www.w3.org/2000/svg" xmlns:xlink="http://www.w3.org/1999/xlink" contentScriptType="application/ecmascript" contentStyleType="text/css" height="308px" preserveAspectRatio="none" style="width:396px;height:308px;" version="1.1" viewBox="0 0 396 308" width="396px" zoomAndPan="magnify"><defs><filter height="300%" id="fwr26ktbvyn29" width="300%" x="-1" y="-1"><feGaussianBlur result="blurOut" stdDeviation="2.0"/><feColorMatrix in="blurOut" result="blurOut2" type="matrix" values="0 0 0 0 0 0 0 0 0 0 0 0 0 0 0 0 0 0 .4 0"/><feOffset dx="4.0" dy="4.0" in="blurOut2" result="blurOut3"/><feBlend in="SourceGraphic" in2="blurOut3" mode="normal"/></filter></defs><g><!--MD5=[b44f19f833e29b4385afbc28aaa80f5c]
class PlayerObject--><rect fill="#FEFECE" filter="url(#fwr26ktbvyn29)" height="60.8047" id="PlayerObject" style="stroke: #A80036; stroke-width: 1.5;" width="198" x="187" y="116"/><ellipse cx="242.75" cy="132" fill="#ADD1B2" rx="11" ry="11" style="stroke: #A80036; stroke-width: 1.0;"/><path d="M245.7188,137.6406 Q245.1406,137.9375 244.5,138.0781 Q243.8594,138.2344 243.1563,138.2344 Q240.6563,138.2344 239.3281,136.5938 Q238.0156,134.9375 238.0156,131.8125 Q238.0156,128.6875 239.3281,127.0313 Q240.6563,125.375 243.1563,125.375 Q243.8594,125.375 244.5,125.5313 Q245.1563,125.6875 245.7188,125.9844 L245.7188,128.7031 Q245.0938,128.125 244.5,127.8594 Q243.9063,127.5781 243.2813,127.5781 Q241.9375,127.5781 241.25,128.6563 Q240.5625,129.7188 240.5625,131.8125 Q240.5625,133.9063 241.25,134.9844 Q241.9375,136.0469 243.2813,136.0469 Q243.9063,136.0469 244.5,135.7813 Q245.0938,135.5 245.7188,134.9219 L245.7188,137.6406 Z "/><text fill="#000000" font-family="sans-serif" font-size="12" lengthAdjust="spacingAndGlyphs" textLength="78" x="263.25" y="136.1543">PlayerObject</text><line style="stroke: #A80036; stroke-width: 1.5;" x1="188" x2="384" y1="148" y2="148"/><line style="stroke: #A80036; stroke-width: 1.5;" x1="188" x2="384" y1="156" y2="156"/><ellipse cx="198" cy="167" fill="#84BE84" rx="3" ry="3" style="stroke: #038048; stroke-width: 1.0;"/><text fill="#000000" font-family="sans-serif" font-size="11" lengthAdjust="spacingAndGlyphs" textLength="172" x="207" y="170.2104">«override» SaveObject() : void</text><!--MD5=[6d7ff1cf30e6ac8252e0340a10afffd6]
class PlayerObjectData--><rect fill="#FEFECE" filter="url(#fwr26ktbvyn29)" height="60.8047" id="PlayerObjectData" style="stroke: #A80036; stroke-width: 1.5;" width="140" x="112" y="237"/><ellipse cx="127" cy="253" fill="#ADD1B2" rx="11" ry="11" style="stroke: #A80036; stroke-width: 1.0;"/><path d="M129.9688,258.6406 Q129.3906,258.9375 128.75,259.0781 Q128.1094,259.2344 127.4063,259.2344 Q124.9063,259.2344 123.5781,257.5938 Q122.2656,255.9375 122.2656,252.8125 Q122.2656,249.6875 123.5781,248.0313 Q124.9063,246.375 127.4063,246.375 Q128.1094,246.375 128.75,246.5313 Q129.4063,246.6875 129.9688,246.9844 L129.9688,249.7031 Q129.3438,249.125 128.75,248.8594 Q128.1563,248.5781 127.5313,248.5781 Q126.1875,248.5781 125.5,249.6563 Q124.8125,250.7188 124.8125,252.8125 Q124.8125,254.9063 125.5,255.9844 Q126.1875,257.0469 127.5313,257.0469 Q128.1563,257.0469 128.75,256.7813 Q129.3438,256.5 129.9688,255.9219 L129.9688,258.6406 Z "/><text fill="#000000" font-family="sans-serif" font-size="12" lengthAdjust="spacingAndGlyphs" textLength="108" x="141" y="257.1543">PlayerObjectData</text><line style="stroke: #A80036; stroke-width: 1.5;" x1="113" x2="251" y1="269" y2="269"/><line style="stroke: #A80036; stroke-width: 1.5;" x1="113" x2="251" y1="277" y2="277"/><ellipse cx="123" cy="288" fill="#84BE84" rx="3" ry="3" style="stroke: #038048; stroke-width: 1.0;"/><text fill="#000000" font-family="sans-serif" font-size="11" lengthAdjust="spacingAndGlyphs" textLength="105" x="132" y="291.2104">PlayerObjectData()</text><!--MD5=[427fbd514f55f9891a822d8ba5b0a5e3]
class TerrainObject--><rect fill="#FEFECE" filter="url(#fwr26ktbvyn29)" height="48" id="TerrainObject" style="stroke: #A80036; stroke-width: 1.5;" width="116" x="228" y="8"/><ellipse cx="243" cy="24" fill="#ADD1B2" rx="11" ry="11" style="stroke: #A80036; stroke-width: 1.0;"/><path d="M245.9688,29.6406 Q245.3906,29.9375 244.75,30.0781 Q244.1094,30.2344 243.4063,30.2344 Q240.9063,30.2344 239.5781,28.5938 Q238.2656,26.9375 238.2656,23.8125 Q238.2656,20.6875 239.5781,19.0313 Q240.9063,17.375 243.4063,17.375 Q244.1094,17.375 244.75,17.5313 Q245.4063,17.6875 245.9688,17.9844 L245.9688,20.7031 Q245.3438,20.125 244.75,19.8594 Q244.1563,19.5781 243.5313,19.5781 Q242.1875,19.5781 241.5,20.6563 Q240.8125,21.7188 240.8125,23.8125 Q240.8125,25.9063 241.5,26.9844 Q242.1875,28.0469 243.5313,28.0469 Q244.1563,28.0469 244.75,27.7813 Q245.3438,27.5 245.9688,26.9219 L245.9688,29.6406 Z "/><text fill="#000000" font-family="sans-serif" font-size="12" lengthAdjust="spacingAndGlyphs" textLength="84" x="257" y="28.1543">TerrainObject</text><line style="stroke: #A80036; stroke-width: 1.5;" x1="229" x2="343" y1="40" y2="40"/><line style="stroke: #A80036; stroke-width: 1.5;" x1="229" x2="343" y1="48" y2="48"/><!--MD5=[5beff7c38c9aead66ac6518e757ba8f7]
class TerrainObjectData--><rect fill="#FEFECE" filter="url(#fwr26ktbvyn29)" height="48" id="TerrainObjectData" style="stroke: #A80036; stroke-width: 1.5;" width="146" x="6" y="122.5"/><ellipse cx="21" cy="138.5" fill="#ADD1B2" rx="11" ry="11" style="stroke: #A80036; stroke-width: 1.0;"/><path d="M23.9688,144.1406 Q23.3906,144.4375 22.75,144.5781 Q22.1094,144.7344 21.4063,144.7344 Q18.9063,144.7344 17.5781,143.0938 Q16.2656,141.4375 16.2656,138.3125 Q16.2656,135.1875 17.5781,133.5313 Q18.9063,131.875 21.4063,131.875 Q22.1094,131.875 22.75,132.0313 Q23.4063,132.1875 23.9688,132.4844 L23.9688,135.2031 Q23.3438,134.625 22.75,134.3594 Q22.1563,134.0781 21.5313,134.0781 Q20.1875,134.0781 19.5,135.1563 Q18.8125,136.2188 18.8125,138.3125 Q18.8125,140.4063 19.5,141.4844 Q20.1875,142.5469 21.5313,142.5469 Q22.1563,142.5469 22.75,142.2813 Q23.3438,142 23.9688,141.4219 L23.9688,144.1406 Z "/><text fill="#000000" font-family="sans-serif" font-size="12" lengthAdjust="spacingAndGlyphs" textLength="114" x="35" y="142.6543">TerrainObjectData</text><line style="stroke: #A80036; stroke-width: 1.5;" x1="7" x2="151" y1="154.5" y2="154.5"/><line style="stroke: #A80036; stroke-width: 1.5;" x1="7" x2="151" y1="162.5" y2="162.5"/><!--MD5=[135bbc8645f7960db158d98eae1b5a00]
reverse link TerrainObject to PlayerObject--><path d="M286,76.11 C286,89.31 286,103.54 286,115.65 " fill="none" id="TerrainObject&lt;-PlayerObject" style="stroke: #A80036; stroke-width: 1.0;"/><polygon fill="none" points="279,76.04,286,56.04,293,76.04,279,76.04" style="stroke: #A80036; stroke-width: 1.0;"/><!--MD5=[8d36127b940bcd786c58da7532afd18e]
link PlayerObject to PlayerObjectData--><path d="M260.02,177.22 C245.26,194.12 226.72,215.33 211.42,232.84 " fill="none" id="PlayerObject-&gt;PlayerObjectData" style="stroke: #A80036; stroke-width: 1.0;"/><polygon fill="#A80036" points="208,236.74,216.9357,232.5984,211.2915,232.9762,210.9137,227.332,208,236.74" style="stroke: #A80036; stroke-width: 1.0;"/><text fill="#000000" font-family="sans-serif" font-size="13" lengthAdjust="spacingAndGlyphs" textLength="51" x="157.1031" y="225.9496">myData</text><!--MD5=[bf703e8955454d5652de7ae0962a4db3]
reverse link TerrainObjectData to PlayerObjectData--><path d="M112.27,185.94 C126.61,202.5 143.11,221.57 156.46,236.99 " fill="none" id="TerrainObjectData&lt;-PlayerObjectData" style="stroke: #A80036; stroke-width: 1.0;"/><polygon fill="none" points="106.9,190.43,99.1,170.73,117.49,181.27,106.9,190.43" style="stroke: #A80036; stroke-width: 1.0;"/><!--MD5=[4a569f97efbbb08b78a190dee892e59a]
@startuml
class PlayerObject {
    + <<override>> SaveObject() : void
}
class PlayerObjectData {
    + PlayerObjectData()
}
TerrainObject <|- - PlayerObject
PlayerObject - -> "myData" PlayerObjectData
TerrainObjectData <|- - PlayerObjectData
@enduml

PlantUML version 1.2020.02(Sun Mar 01 10:22:07 GMT 2020)
(GPL source distribution)
Java Runtime: OpenJDK Runtime Environment
JVM: OpenJDK 64-Bit Server VM
Java Version: 11.0.9+11-Ubuntu-0ubuntu1
Operating System: Linux
Default Encoding: ANSI_X3.4-1968
Language: en
Country: US
--></g></svg>