<?xml version="1.0" encoding="UTF-8" standalone="no"?><svg xmlns="http://www.w3.org/2000/svg" xmlns:xlink="http://www.w3.org/1999/xlink" contentScriptType="application/ecmascript" contentStyleType="text/css" height="1205px" preserveAspectRatio="none" style="width:890px;height:1205px;" version="1.1" viewBox="0 0 890 1205" width="890px" zoomAndPan="magnify"><defs><filter height="300%" id="f1t4muzlhlkv2h" width="300%" x="-1" y="-1"><feGaussianBlur result="blurOut" stdDeviation="2.0"/><feColorMatrix in="blurOut" result="blurOut2" type="matrix" values="0 0 0 0 0 0 0 0 0 0 0 0 0 0 0 0 0 0 .4 0"/><feOffset dx="4.0" dy="4.0" in="blurOut2" result="blurOut3"/><feBlend in="SourceGraphic" in2="blurOut3" mode="normal"/></filter></defs><g><!--MD5=[ca4282e67b9ec4eef327b3d9bf721b8a]
class PuzzleGrid--><rect fill="#FEFECE" filter="url(#f1t4muzlhlkv2h)" height="329.7031" id="PuzzleGrid" style="stroke: #A80036; stroke-width: 1.5;" width="537" x="323.5" y="8"/><ellipse cx="556.75" cy="24" fill="#ADD1B2" rx="11" ry="11" style="stroke: #A80036; stroke-width: 1.0;"/><path d="M559.7188,29.6406 Q559.1406,29.9375 558.5,30.0781 Q557.8594,30.2344 557.1563,30.2344 Q554.6563,30.2344 553.3281,28.5938 Q552.0156,26.9375 552.0156,23.8125 Q552.0156,20.6875 553.3281,19.0313 Q554.6563,17.375 557.1563,17.375 Q557.8594,17.375 558.5,17.5313 Q559.1563,17.6875 559.7188,17.9844 L559.7188,20.7031 Q559.0938,20.125 558.5,19.8594 Q557.9063,19.5781 557.2813,19.5781 Q555.9375,19.5781 555.25,20.6563 Q554.5625,21.7188 554.5625,23.8125 Q554.5625,25.9063 555.25,26.9844 Q555.9375,28.0469 557.2813,28.0469 Q557.9063,28.0469 558.5,27.7813 Q559.0938,27.5 559.7188,26.9219 L559.7188,29.6406 Z "/><text fill="#000000" font-family="sans-serif" font-size="12" lengthAdjust="spacingAndGlyphs" textLength="62" x="577.25" y="28.1543">PuzzleGrid</text><line style="stroke: #A80036; stroke-width: 1.5;" x1="324.5" x2="859.5" y1="40" y2="40"/><text fill="#000000" font-family="sans-serif" font-size="11" lengthAdjust="spacingAndGlyphs" textLength="56" x="329.5" y="54.2104">width : int</text><text fill="#000000" font-family="sans-serif" font-size="11" lengthAdjust="spacingAndGlyphs" textLength="61" x="329.5" y="67.0151">length : int</text><line style="stroke: #A80036; stroke-width: 1.5;" x1="324.5" x2="859.5" y1="73.6094" y2="73.6094"/><ellipse cx="334.5" cy="84.6094" fill="#84BE84" rx="3" ry="3" style="stroke: #038048; stroke-width: 1.0;"/><text fill="#000000" font-family="sans-serif" font-size="11" lengthAdjust="spacingAndGlyphs" textLength="381" x="343.5" y="87.8198">PuzzleGrid(width:int, length:int, origin:Vector3, materials:Material[])</text><ellipse cx="334.5" cy="97.4141" fill="#84BE84" rx="3" ry="3" style="stroke: #038048; stroke-width: 1.0;"/><text fill="#000000" font-family="sans-serif" font-size="11" lengthAdjust="spacingAndGlyphs" textLength="270" x="343.5" y="100.6245">IncreaseGrid(addWidth:int, addLength:int) : void</text><text fill="#000000" font-family="sans-serif" font-size="11" lengthAdjust="spacingAndGlyphs" textLength="237" x="343.5" y="113.4292">FindXZ(position:Vector3, x:int, z:int) : void</text><text fill="#000000" font-family="sans-serif" font-size="11" lengthAdjust="spacingAndGlyphs" textLength="258" x="343.5" y="126.2339">FindXZ(current:Vector3, offset:Vector3) : void</text><ellipse cx="334.5" cy="135.8281" fill="#84BE84" rx="3" ry="3" style="stroke: #038048; stroke-width: 1.0;"/><text fill="#000000" font-family="sans-serif" font-size="11" lengthAdjust="spacingAndGlyphs" textLength="167" x="343.5" y="139.0386">HighlightTile(x:int, z:int) : void</text><ellipse cx="334.5" cy="148.6328" fill="#84BE84" rx="3" ry="3" style="stroke: #038048; stroke-width: 1.0;"/><text fill="#000000" font-family="sans-serif" font-size="11" lengthAdjust="spacingAndGlyphs" textLength="217" x="343.5" y="151.8433">HighlightTile(tileChords:Vector3) : void</text><ellipse cx="334.5" cy="161.4375" fill="#84BE84" rx="3" ry="3" style="stroke: #038048; stroke-width: 1.0;"/><text fill="#000000" font-family="sans-serif" font-size="11" lengthAdjust="spacingAndGlyphs" textLength="172" x="343.5" y="164.6479">UnhighLightCurrentTile() : void</text><ellipse cx="334.5" cy="174.2422" fill="#84BE84" rx="3" ry="3" style="stroke: #038048; stroke-width: 1.0;"/><text fill="#000000" font-family="sans-serif" font-size="11" lengthAdjust="spacingAndGlyphs" textLength="219" x="343.5" y="177.4526">OnSelectTile(tileChords:Vector3) : void</text><ellipse cx="334.5" cy="187.0469" fill="#84BE84" rx="3" ry="3" style="stroke: #038048; stroke-width: 1.0;"/><text fill="#000000" font-family="sans-serif" font-size="11" lengthAdjust="spacingAndGlyphs" textLength="233" x="343.5" y="190.2573">OnDeselectTile(tileChords:Vector3) : void</text><ellipse cx="334.5" cy="199.8516" fill="#84BE84" rx="3" ry="3" style="stroke: #038048; stroke-width: 1.0;"/><text fill="#000000" font-family="sans-serif" font-size="11" lengthAdjust="spacingAndGlyphs" textLength="220" x="343.5" y="203.062">OnDeleteTile(tileChords:Vector3) : void</text><text fill="#000000" font-family="sans-serif" font-size="11" lengthAdjust="spacingAndGlyphs" textLength="295" x="343.5" y="215.8667">CheckPlaceableNeighbour(tileChords:Vector3) : bool</text><ellipse cx="334.5" cy="225.4609" fill="#84BE84" rx="3" ry="3" style="stroke: #038048; stroke-width: 1.0;"/><text fill="#000000" font-family="sans-serif" font-size="11" lengthAdjust="spacingAndGlyphs" textLength="296" x="343.5" y="228.6714">MoveTile(tileChords:Vector3, newPos:Vector3) : void</text><text fill="#000000" font-family="sans-serif" font-size="11" lengthAdjust="spacingAndGlyphs" textLength="511" x="343.5" y="241.4761">UpdateNeighbours(tileChords:Vector3, offsetChords:Vector3, assignEdgeTiles:bool) : void</text><text fill="#000000" font-family="sans-serif" font-size="11" lengthAdjust="spacingAndGlyphs" textLength="423" x="343.5" y="254.2808">HeightDifference(current:TileInformation, neighbour:TileInformation) : float</text><ellipse cx="334.5" cy="263.875" fill="#84BE84" rx="3" ry="3" style="stroke: #038048; stroke-width: 1.0;"/><text fill="#000000" font-family="sans-serif" font-size="11" lengthAdjust="spacingAndGlyphs" textLength="250" x="343.5" y="267.0854">GetTile(tileChords:Vector3) : TileInformation</text><ellipse cx="334.5" cy="276.6797" fill="#84BE84" rx="3" ry="3" style="stroke: #038048; stroke-width: 1.0;"/><text fill="#000000" font-family="sans-serif" font-size="11" lengthAdjust="spacingAndGlyphs" textLength="206" x="343.5" y="279.8901">CreateTile(tileChords:Vector3) : void</text><ellipse cx="334.5" cy="289.4844" fill="#84BE84" rx="3" ry="3" style="stroke: #038048; stroke-width: 1.0;"/><text fill="#000000" font-family="sans-serif" font-size="11" lengthAdjust="spacingAndGlyphs" textLength="309" x="343.5" y="292.6948">CreateTile(tileChords:Vector3, tileType:TileType) : void</text><ellipse cx="334.5" cy="302.2891" fill="#84BE84" rx="3" ry="3" style="stroke: #038048; stroke-width: 1.0;"/><text fill="#000000" font-family="sans-serif" font-size="11" lengthAdjust="spacingAndGlyphs" textLength="320" x="343.5" y="305.4995">CreateTile(tileChords:Vector3, tile:TileInformation) : void</text><ellipse cx="334.5" cy="315.0938" fill="#84BE84" rx="3" ry="3" style="stroke: #038048; stroke-width: 1.0;"/><text fill="#000000" font-family="sans-serif" font-size="11" lengthAdjust="spacingAndGlyphs" textLength="217" x="343.5" y="318.3042">OnPlayMode(tileChords:Vector3) : void</text><ellipse cx="334.5" cy="327.8984" fill="#84BE84" rx="3" ry="3" style="stroke: #038048; stroke-width: 1.0;"/><text fill="#000000" font-family="sans-serif" font-size="11" lengthAdjust="spacingAndGlyphs" textLength="215" x="343.5" y="331.1089">OnEditMode(tileChords:Vector3) : void</text><!--MD5=[8f832a948bfc4a3a93e752f9abe9d00b]
class TileInformation--><rect fill="#FEFECE" filter="url(#f1t4muzlhlkv2h)" height="649.8203" id="TileInformation" style="stroke: #A80036; stroke-width: 1.5;" width="582" x="118" y="398"/><ellipse cx="358.75" cy="414" fill="#ADD1B2" rx="11" ry="11" style="stroke: #A80036; stroke-width: 1.0;"/><path d="M361.7188,419.6406 Q361.1406,419.9375 360.5,420.0781 Q359.8594,420.2344 359.1563,420.2344 Q356.6563,420.2344 355.3281,418.5938 Q354.0156,416.9375 354.0156,413.8125 Q354.0156,410.6875 355.3281,409.0313 Q356.6563,407.375 359.1563,407.375 Q359.8594,407.375 360.5,407.5313 Q361.1563,407.6875 361.7188,407.9844 L361.7188,410.7031 Q361.0938,410.125 360.5,409.8594 Q359.9063,409.5781 359.2813,409.5781 Q357.9375,409.5781 357.25,410.6563 Q356.5625,411.7188 356.5625,413.8125 Q356.5625,415.9063 357.25,416.9844 Q357.9375,418.0469 359.2813,418.0469 Q359.9063,418.0469 360.5,417.7813 Q361.0938,417.5 361.7188,416.9219 L361.7188,419.6406 Z "/><text fill="#000000" font-family="sans-serif" font-size="12" lengthAdjust="spacingAndGlyphs" textLength="92" x="379.25" y="418.1543">TileInformation</text><line style="stroke: #A80036; stroke-width: 1.5;" x1="119" x2="699" y1="430" y2="430"/><text fill="#000000" font-family="sans-serif" font-size="11" lengthAdjust="spacingAndGlyphs" textLength="90" x="124" y="444.2104">myHeight : float</text><text fill="#000000" font-family="sans-serif" font-size="11" lengthAdjust="spacingAndGlyphs" textLength="67" x="124" y="457.0151">north : float</text><text fill="#000000" font-family="sans-serif" font-size="11" lengthAdjust="spacingAndGlyphs" textLength="62" x="124" y="469.8198">east : float</text><text fill="#000000" font-family="sans-serif" font-size="11" lengthAdjust="spacingAndGlyphs" textLength="69" x="124" y="482.6245">south : float</text><text fill="#000000" font-family="sans-serif" font-size="11" lengthAdjust="spacingAndGlyphs" textLength="64" x="124" y="495.4292">west : float</text><text fill="#000000" font-family="sans-serif" font-size="11" lengthAdjust="spacingAndGlyphs" textLength="95" x="124" y="508.2339">isSelected : bool</text><line style="stroke: #A80036; stroke-width: 1.5;" x1="119" x2="699" y1="514.8281" y2="514.8281"/><ellipse cx="129" cy="525.8281" fill="#84BE84" rx="3" ry="3" style="stroke: #038048; stroke-width: 1.0;"/><text fill="#000000" font-family="sans-serif" font-size="11" lengthAdjust="spacingAndGlyphs" textLength="424" x="138" y="529.0386">TileInformation(myType:TileType, myPosition:Vector3, materials:Material[])</text><ellipse cx="129" cy="538.6328" fill="#84BE84" rx="3" ry="3" style="stroke: #038048; stroke-width: 1.0;"/><text fill="#000000" font-family="sans-serif" font-size="11" lengthAdjust="spacingAndGlyphs" textLength="241" x="138" y="541.8433">TileInformation(tileToCopy:TileInformation)</text><text fill="#000000" font-family="sans-serif" font-size="11" lengthAdjust="spacingAndGlyphs" textLength="260" x="138" y="554.6479">FlatTileWithEdgeMesh(material:Material) : void</text><text fill="#000000" font-family="sans-serif" font-size="11" lengthAdjust="spacingAndGlyphs" textLength="272" x="138" y="567.4526">FlatFullTileMeshOnZero(material:Material) : void</text><text fill="#000000" font-family="sans-serif" font-size="11" lengthAdjust="spacingAndGlyphs" textLength="228" x="138" y="580.2573">FlatFullTileMesh(material:Material) : void</text><text fill="#000000" font-family="sans-serif" font-size="11" lengthAdjust="spacingAndGlyphs" textLength="556" x="138" y="593.062">CubeWithoutBottomSmaller(material:Material, north:float, south:float, east:float, west:float) : void</text><text fill="#000000" font-family="sans-serif" font-size="11" lengthAdjust="spacingAndGlyphs" textLength="512" x="138" y="605.8667">CubeWithoutBottom(material:Material, north:float, south:float, east:float, west:float) : void</text><text fill="#000000" font-family="sans-serif" font-size="11" lengthAdjust="spacingAndGlyphs" textLength="271" x="138" y="618.6714">SouthMesh(material:Material, south:float) : void</text><text fill="#000000" font-family="sans-serif" font-size="11" lengthAdjust="spacingAndGlyphs" textLength="267" x="138" y="631.4761">NorthMesh(material:Material, north:float) : void</text><text fill="#000000" font-family="sans-serif" font-size="11" lengthAdjust="spacingAndGlyphs" textLength="260" x="138" y="644.2808">WestMesh(material:Material, west:float) : void</text><text fill="#000000" font-family="sans-serif" font-size="11" lengthAdjust="spacingAndGlyphs" textLength="256" x="138" y="657.0854">EastMesh(material:Material, east:float) : void</text><text fill="#000000" font-family="sans-serif" font-size="11" lengthAdjust="spacingAndGlyphs" textLength="381" x="138" y="669.8901">ParallelNorthSouth(material:Material, north:float, south:float) : void</text><text fill="#000000" font-family="sans-serif" font-size="11" lengthAdjust="spacingAndGlyphs" textLength="359" x="138" y="682.6948">ParallelEastWest(material:Material, east:float, west:float) : void</text><text fill="#000000" font-family="sans-serif" font-size="11" lengthAdjust="spacingAndGlyphs" textLength="401" x="138" y="695.4995">CornerSouthWestMesh(material:Material, south:float, west:float) : void</text><text fill="#000000" font-family="sans-serif" font-size="11" lengthAdjust="spacingAndGlyphs" textLength="397" x="138" y="708.3042">CornerSouthEastMesh(material:Material, south:float, east:float) : void</text><text fill="#000000" font-family="sans-serif" font-size="11" lengthAdjust="spacingAndGlyphs" textLength="397" x="138" y="721.1089">CornerNorthWestMesh(material:Material, north:float, west:float) : void</text><text fill="#000000" font-family="sans-serif" font-size="11" lengthAdjust="spacingAndGlyphs" textLength="393" x="138" y="733.9136">CornerNorthEastMesh(material:Material, north:float, east:float) : void</text><text fill="#000000" font-family="sans-serif" font-size="11" lengthAdjust="spacingAndGlyphs" textLength="488" x="138" y="746.7183">TrippleSouthEastWestMesh(material:Material, south:float, east:float, west:float) : void</text><text fill="#000000" font-family="sans-serif" font-size="11" lengthAdjust="spacingAndGlyphs" textLength="499" x="138" y="759.5229">TrippleNorthSouthWestMesh(material:Material, north:float, south:float, west:float) : void</text><text fill="#000000" font-family="sans-serif" font-size="11" lengthAdjust="spacingAndGlyphs" textLength="495" x="138" y="772.3276">TrippleNorthSouthEastMesh(material:Material, north:float, south:float, east:float) : void</text><text fill="#000000" font-family="sans-serif" font-size="11" lengthAdjust="spacingAndGlyphs" textLength="484" x="138" y="785.1323">TrippleNorthEastWestMesh(material:Material, north:float, east:float, west:float) : void</text><text fill="#000000" font-family="sans-serif" font-size="11" lengthAdjust="spacingAndGlyphs" textLength="475" x="138" y="797.937">AssignMesh(vertices:Vector3[], uv:Vector2[], triangles:int[], material:Material) : void</text><ellipse cx="129" cy="807.5313" fill="#84BE84" rx="3" ry="3" style="stroke: #038048; stroke-width: 1.0;"/><text fill="#000000" font-family="sans-serif" font-size="11" lengthAdjust="spacingAndGlyphs" textLength="210" x="138" y="810.7417">SetTileType(newType:TileType) : void</text><ellipse cx="129" cy="820.3359" fill="#84BE84" rx="3" ry="3" style="stroke: #038048; stroke-width: 1.0;"/><text fill="#000000" font-family="sans-serif" font-size="11" lengthAdjust="spacingAndGlyphs" textLength="134" x="138" y="823.5464">GetTileType() : TileType</text><ellipse cx="129" cy="833.1406" fill="#84BE84" rx="3" ry="3" style="stroke: #038048; stroke-width: 1.0;"/><text fill="#000000" font-family="sans-serif" font-size="11" lengthAdjust="spacingAndGlyphs" textLength="186" x="138" y="836.3511">SetHeight(newHeight:float) : void</text><ellipse cx="129" cy="845.9453" fill="#84BE84" rx="3" ry="3" style="stroke: #038048; stroke-width: 1.0;"/><text fill="#000000" font-family="sans-serif" font-size="11" lengthAdjust="spacingAndGlyphs" textLength="113" x="138" y="849.1558">UpdateMesh() : void</text><text fill="#000000" font-family="sans-serif" font-size="11" lengthAdjust="spacingAndGlyphs" textLength="457" x="138" y="861.9604">SetMesh2(material:Material, north:float, east:float, south:float, west:float) : void</text><ellipse cx="129" cy="871.5547" fill="#84BE84" rx="3" ry="3" style="stroke: #038048; stroke-width: 1.0;"/><text fill="#000000" font-family="sans-serif" font-size="11" lengthAdjust="spacingAndGlyphs" textLength="114" x="138" y="874.7651">OnSelectTile() : void</text><ellipse cx="129" cy="884.3594" fill="#84BE84" rx="3" ry="3" style="stroke: #038048; stroke-width: 1.0;"/><text fill="#000000" font-family="sans-serif" font-size="11" lengthAdjust="spacingAndGlyphs" textLength="128" x="138" y="887.5698">OnDeselectTile() : void</text><text fill="#000000" font-family="sans-serif" font-size="11" lengthAdjust="spacingAndGlyphs" textLength="188" x="138" y="900.3745">SetMesh(material:Material) : void</text><ellipse cx="129" cy="909.9688" fill="#84BE84" rx="3" ry="3" style="stroke: #038048; stroke-width: 1.0;"/><text fill="#000000" font-family="sans-serif" font-size="11" lengthAdjust="spacingAndGlyphs" textLength="92" x="138" y="913.1792">Highlight() : void</text><ellipse cx="129" cy="922.7734" fill="#84BE84" rx="3" ry="3" style="stroke: #038048; stroke-width: 1.0;"/><text fill="#000000" font-family="sans-serif" font-size="11" lengthAdjust="spacingAndGlyphs" textLength="106" x="138" y="925.9839">Unhighlight() : void</text><ellipse cx="129" cy="935.5781" fill="#84BE84" rx="3" ry="3" style="stroke: #038048; stroke-width: 1.0;"/><text fill="#000000" font-family="sans-serif" font-size="11" lengthAdjust="spacingAndGlyphs" textLength="239" x="138" y="938.7886">AssignGridToObject(grid:PuzzleGrid) : void</text><ellipse cx="129" cy="948.3828" fill="#84BE84" rx="3" ry="3" style="stroke: #038048; stroke-width: 1.0;"/><text fill="#000000" font-family="sans-serif" font-size="11" lengthAdjust="spacingAndGlyphs" textLength="101" x="138" y="951.5933">GetHeight() : float</text><ellipse cx="129" cy="961.1875" fill="#84BE84" rx="3" ry="3" style="stroke: #038048; stroke-width: 1.0;"/><text fill="#000000" font-family="sans-serif" font-size="11" lengthAdjust="spacingAndGlyphs" textLength="176" x="138" y="964.3979">SetNorth(newNorth:float) : void</text><ellipse cx="129" cy="973.9922" fill="#84BE84" rx="3" ry="3" style="stroke: #038048; stroke-width: 1.0;"/><text fill="#000000" font-family="sans-serif" font-size="11" lengthAdjust="spacingAndGlyphs" textLength="164" x="138" y="977.2026">SetEast(newEast:float) : void</text><ellipse cx="129" cy="986.7969" fill="#84BE84" rx="3" ry="3" style="stroke: #038048; stroke-width: 1.0;"/><text fill="#000000" font-family="sans-serif" font-size="11" lengthAdjust="spacingAndGlyphs" textLength="180" x="138" y="990.0073">SetSouth(newSouth:float) : void</text><ellipse cx="129" cy="999.6016" fill="#84BE84" rx="3" ry="3" style="stroke: #038048; stroke-width: 1.0;"/><text fill="#000000" font-family="sans-serif" font-size="11" lengthAdjust="spacingAndGlyphs" textLength="168" x="138" y="1002.812">SetWest(newWest:float) : void</text><ellipse cx="129" cy="1012.4063" fill="#84BE84" rx="3" ry="3" style="stroke: #038048; stroke-width: 1.0;"/><text fill="#000000" font-family="sans-serif" font-size="11" lengthAdjust="spacingAndGlyphs" textLength="75" x="138" y="1015.6167">Reset() : void</text><ellipse cx="129" cy="1025.2109" fill="#84BE84" rx="3" ry="3" style="stroke: #038048; stroke-width: 1.0;"/><text fill="#000000" font-family="sans-serif" font-size="11" lengthAdjust="spacingAndGlyphs" textLength="116" x="138" y="1028.4214">TurnOffMesh() : void</text><ellipse cx="129" cy="1038.0156" fill="#84BE84" rx="3" ry="3" style="stroke: #038048; stroke-width: 1.0;"/><text fill="#000000" font-family="sans-serif" font-size="11" lengthAdjust="spacingAndGlyphs" textLength="115" x="138" y="1041.2261">TurnOnMesh() : void</text><!--MD5=[67dc9d447ac5dbb625e3d503755a5c3a]
class TileType--><rect fill="#FEFECE" filter="url(#f1t4muzlhlkv2h)" height="86.4141" id="TileType" style="stroke: #A80036; stroke-width: 1.5;" width="128" x="6" y="1108"/><ellipse cx="41.7" cy="1124" fill="#EB937F" rx="11" ry="11" style="stroke: #A80036; stroke-width: 1.0;"/><path d="M45.8094,1130 L38.0906,1130 L38.0906,1117.6094 L45.8094,1117.6094 L45.8094,1119.7656 L40.5438,1119.7656 L40.5438,1122.4375 L45.3094,1122.4375 L45.3094,1124.5938 L40.5438,1124.5938 L40.5438,1127.8438 L45.8094,1127.8438 L45.8094,1130 Z "/><text fill="#000000" font-family="sans-serif" font-size="12" lengthAdjust="spacingAndGlyphs" textLength="50" x="60.3" y="1128.1543">TileType</text><line style="stroke: #A80036; stroke-width: 1.5;" x1="7" x2="133" y1="1140" y2="1140"/><text fill="#000000" font-family="sans-serif" font-size="11" lengthAdjust="spacingAndGlyphs" textLength="85" x="12" y="1154.2104">NONE_TILE= 0,</text><text fill="#000000" font-family="sans-serif" font-size="11" lengthAdjust="spacingAndGlyphs" textLength="84" x="12" y="1167.0151">EDGE_TILE= 1,</text><text fill="#000000" font-family="sans-serif" font-size="11" lengthAdjust="spacingAndGlyphs" textLength="116" x="12" y="1179.8198">PLACEABLE_TILE= 2,</text><line style="stroke: #A80036; stroke-width: 1.5;" x1="7" x2="133" y1="1186.4141" y2="1186.4141"/><!--MD5=[65d619c042c23702cef2ca07d67b1cf6]
class Vector3--><rect fill="#FEFECE" filter="url(#f1t4muzlhlkv2h)" height="48" id="Vector3" style="stroke: #A80036; stroke-width: 1.5;" width="81" x="734.5" y="699"/><ellipse cx="749.5" cy="715" fill="#ADD1B2" rx="11" ry="11" style="stroke: #A80036; stroke-width: 1.0;"/><path d="M752.4688,720.6406 Q751.8906,720.9375 751.25,721.0781 Q750.6094,721.2344 749.9063,721.2344 Q747.4063,721.2344 746.0781,719.5938 Q744.7656,717.9375 744.7656,714.8125 Q744.7656,711.6875 746.0781,710.0313 Q747.4063,708.375 749.9063,708.375 Q750.6094,708.375 751.25,708.5313 Q751.9063,708.6875 752.4688,708.9844 L752.4688,711.7031 Q751.8438,711.125 751.25,710.8594 Q750.6563,710.5781 750.0313,710.5781 Q748.6875,710.5781 748,711.6563 Q747.3125,712.7188 747.3125,714.8125 Q747.3125,716.9063 748,717.9844 Q748.6875,719.0469 750.0313,719.0469 Q750.6563,719.0469 751.25,718.7813 Q751.8438,718.5 752.4688,717.9219 L752.4688,720.6406 Z "/><text fill="#000000" font-family="sans-serif" font-size="12" lengthAdjust="spacingAndGlyphs" textLength="49" x="763.5" y="719.1543">Vector3</text><line style="stroke: #A80036; stroke-width: 1.5;" x1="735.5" x2="814.5" y1="731" y2="731"/><line style="stroke: #A80036; stroke-width: 1.5;" x1="735.5" x2="814.5" y1="739" y2="739"/><!--MD5=[064f7a74fee85463ec1a30143664ee17]
class GameObject--><rect fill="#FEFECE" filter="url(#f1t4muzlhlkv2h)" height="48" id="GameObject" style="stroke: #A80036; stroke-width: 1.5;" width="108" x="169" y="1127"/><ellipse cx="184" cy="1143" fill="#ADD1B2" rx="11" ry="11" style="stroke: #A80036; stroke-width: 1.0;"/><path d="M186.9688,1148.6406 Q186.3906,1148.9375 185.75,1149.0781 Q185.1094,1149.2344 184.4063,1149.2344 Q181.9063,1149.2344 180.5781,1147.5938 Q179.2656,1145.9375 179.2656,1142.8125 Q179.2656,1139.6875 180.5781,1138.0313 Q181.9063,1136.375 184.4063,1136.375 Q185.1094,1136.375 185.75,1136.5313 Q186.4063,1136.6875 186.9688,1136.9844 L186.9688,1139.7031 Q186.3438,1139.125 185.75,1138.8594 Q185.1563,1138.5781 184.5313,1138.5781 Q183.1875,1138.5781 182.5,1139.6563 Q181.8125,1140.7188 181.8125,1142.8125 Q181.8125,1144.9063 182.5,1145.9844 Q183.1875,1147.0469 184.5313,1147.0469 Q185.1563,1147.0469 185.75,1146.7813 Q186.3438,1146.5 186.9688,1145.9219 L186.9688,1148.6406 Z "/><text fill="#000000" font-family="sans-serif" font-size="12" lengthAdjust="spacingAndGlyphs" textLength="76" x="198" y="1147.1543">GameObject</text><line style="stroke: #A80036; stroke-width: 1.5;" x1="170" x2="276" y1="1159" y2="1159"/><line style="stroke: #A80036; stroke-width: 1.5;" x1="170" x2="276" y1="1167" y2="1167"/><!--MD5=[49b4333bed3a745cc53311fcf54bbfcc]
class Mesh--><rect fill="#FEFECE" filter="url(#f1t4muzlhlkv2h)" height="48" id="Mesh" style="stroke: #A80036; stroke-width: 1.5;" width="65" x="312.5" y="1127"/><ellipse cx="327.5" cy="1143" fill="#ADD1B2" rx="11" ry="11" style="stroke: #A80036; stroke-width: 1.0;"/><path d="M330.4688,1148.6406 Q329.8906,1148.9375 329.25,1149.0781 Q328.6094,1149.2344 327.9063,1149.2344 Q325.4063,1149.2344 324.0781,1147.5938 Q322.7656,1145.9375 322.7656,1142.8125 Q322.7656,1139.6875 324.0781,1138.0313 Q325.4063,1136.375 327.9063,1136.375 Q328.6094,1136.375 329.25,1136.5313 Q329.9063,1136.6875 330.4688,1136.9844 L330.4688,1139.7031 Q329.8438,1139.125 329.25,1138.8594 Q328.6563,1138.5781 328.0313,1138.5781 Q326.6875,1138.5781 326,1139.6563 Q325.3125,1140.7188 325.3125,1142.8125 Q325.3125,1144.9063 326,1145.9844 Q326.6875,1147.0469 328.0313,1147.0469 Q328.6563,1147.0469 329.25,1146.7813 Q329.8438,1146.5 330.4688,1145.9219 L330.4688,1148.6406 Z "/><text fill="#000000" font-family="sans-serif" font-size="12" lengthAdjust="spacingAndGlyphs" textLength="33" x="341.5" y="1147.1543">Mesh</text><line style="stroke: #A80036; stroke-width: 1.5;" x1="313.5" x2="376.5" y1="1159" y2="1159"/><line style="stroke: #A80036; stroke-width: 1.5;" x1="313.5" x2="376.5" y1="1167" y2="1167"/><!--MD5=[17c0e1de84ba98e23d8fba3bc9315d65]
class MeshRenderer--><rect fill="#FEFECE" filter="url(#f1t4muzlhlkv2h)" height="48" id="MeshRenderer" style="stroke: #A80036; stroke-width: 1.5;" width="123" x="412.5" y="1127"/><ellipse cx="427.5" cy="1143" fill="#ADD1B2" rx="11" ry="11" style="stroke: #A80036; stroke-width: 1.0;"/><path d="M430.4688,1148.6406 Q429.8906,1148.9375 429.25,1149.0781 Q428.6094,1149.2344 427.9063,1149.2344 Q425.4063,1149.2344 424.0781,1147.5938 Q422.7656,1145.9375 422.7656,1142.8125 Q422.7656,1139.6875 424.0781,1138.0313 Q425.4063,1136.375 427.9063,1136.375 Q428.6094,1136.375 429.25,1136.5313 Q429.9063,1136.6875 430.4688,1136.9844 L430.4688,1139.7031 Q429.8438,1139.125 429.25,1138.8594 Q428.6563,1138.5781 428.0313,1138.5781 Q426.6875,1138.5781 426,1139.6563 Q425.3125,1140.7188 425.3125,1142.8125 Q425.3125,1144.9063 426,1145.9844 Q426.6875,1147.0469 428.0313,1147.0469 Q428.6563,1147.0469 429.25,1146.7813 Q429.8438,1146.5 430.4688,1145.9219 L430.4688,1148.6406 Z "/><text fill="#000000" font-family="sans-serif" font-size="12" lengthAdjust="spacingAndGlyphs" textLength="91" x="441.5" y="1147.1543">MeshRenderer</text><line style="stroke: #A80036; stroke-width: 1.5;" x1="413.5" x2="534.5" y1="1159" y2="1159"/><line style="stroke: #A80036; stroke-width: 1.5;" x1="413.5" x2="534.5" y1="1167" y2="1167"/><!--MD5=[231f7944a3d59392bc6eb8b10e653ecc]
class MeshCollider--><rect fill="#FEFECE" filter="url(#f1t4muzlhlkv2h)" height="48" id="MeshCollider" style="stroke: #A80036; stroke-width: 1.5;" width="111" x="570.5" y="1127"/><ellipse cx="585.5" cy="1143" fill="#ADD1B2" rx="11" ry="11" style="stroke: #A80036; stroke-width: 1.0;"/><path d="M588.4688,1148.6406 Q587.8906,1148.9375 587.25,1149.0781 Q586.6094,1149.2344 585.9063,1149.2344 Q583.4063,1149.2344 582.0781,1147.5938 Q580.7656,1145.9375 580.7656,1142.8125 Q580.7656,1139.6875 582.0781,1138.0313 Q583.4063,1136.375 585.9063,1136.375 Q586.6094,1136.375 587.25,1136.5313 Q587.9063,1136.6875 588.4688,1136.9844 L588.4688,1139.7031 Q587.8438,1139.125 587.25,1138.8594 Q586.6563,1138.5781 586.0313,1138.5781 Q584.6875,1138.5781 584,1139.6563 Q583.3125,1140.7188 583.3125,1142.8125 Q583.3125,1144.9063 584,1145.9844 Q584.6875,1147.0469 586.0313,1147.0469 Q586.6563,1147.0469 587.25,1146.7813 Q587.8438,1146.5 588.4688,1145.9219 L588.4688,1148.6406 Z "/><text fill="#000000" font-family="sans-serif" font-size="12" lengthAdjust="spacingAndGlyphs" textLength="79" x="599.5" y="1147.1543">MeshCollider</text><line style="stroke: #A80036; stroke-width: 1.5;" x1="571.5" x2="680.5" y1="1159" y2="1159"/><line style="stroke: #A80036; stroke-width: 1.5;" x1="571.5" x2="680.5" y1="1167" y2="1167"/><!--MD5=[0f8b90e0a694fb6b7359e8beb96c9e2f]
class GridObject--><rect fill="#FEFECE" filter="url(#f1t4muzlhlkv2h)" height="48" id="GridObject" style="stroke: #A80036; stroke-width: 1.5;" width="97" x="716.5" y="1127"/><ellipse cx="731.5" cy="1143" fill="#ADD1B2" rx="11" ry="11" style="stroke: #A80036; stroke-width: 1.0;"/><path d="M734.4688,1148.6406 Q733.8906,1148.9375 733.25,1149.0781 Q732.6094,1149.2344 731.9063,1149.2344 Q729.4063,1149.2344 728.0781,1147.5938 Q726.7656,1145.9375 726.7656,1142.8125 Q726.7656,1139.6875 728.0781,1138.0313 Q729.4063,1136.375 731.9063,1136.375 Q732.6094,1136.375 733.25,1136.5313 Q733.9063,1136.6875 734.4688,1136.9844 L734.4688,1139.7031 Q733.8438,1139.125 733.25,1138.8594 Q732.6563,1138.5781 732.0313,1138.5781 Q730.6875,1138.5781 730,1139.6563 Q729.3125,1140.7188 729.3125,1142.8125 Q729.3125,1144.9063 730,1145.9844 Q730.6875,1147.0469 732.0313,1147.0469 Q732.6563,1147.0469 733.25,1146.7813 Q733.8438,1146.5 734.4688,1145.9219 L734.4688,1148.6406 Z "/><text fill="#000000" font-family="sans-serif" font-size="12" lengthAdjust="spacingAndGlyphs" textLength="65" x="745.5" y="1147.1543">GridObject</text><line style="stroke: #A80036; stroke-width: 1.5;" x1="717.5" x2="812.5" y1="1159" y2="1159"/><line style="stroke: #A80036; stroke-width: 1.5;" x1="717.5" x2="812.5" y1="1167" y2="1167"/><!--MD5=[10cd86c105ef6ebd50ccc11e1e61c98e]
link PuzzleGrid to Vector3--><path d="M696.6687,348.924 C696.6687,348.924 711.33,382.13 717,398 C752.93,498.6 767.31,625.05 772.46,685.95 " fill="none" id="PuzzleGrid-Vector3" style="stroke: #A80036; stroke-width: 1.0;"/><polygon fill="#A80036" points="773.5,698.94,776.7651,689.6481,773.0989,693.9561,768.7909,690.2899,773.5,698.94" style="stroke: #A80036; stroke-width: 1.0;"/><line style="stroke: #A80036; stroke-width: 1.0;" x1="773.0989" x2="772.465" y1="693.9561" y2="685.985"/><polygon fill="#FFFFFF" points="691.53,338.08,690.4847,345.2149,696.6687,348.924,697.7141,341.7891,691.53,338.08" style="stroke: #A80036; stroke-width: 1.0;"/><text fill="#000000" font-family="sans-serif" font-size="13" lengthAdjust="spacingAndGlyphs" textLength="93" x="785.0313" y="687.9367">negativeOffset</text><!--MD5=[440ff0da1b7e216f5adc1fa84f9e1798]
link PuzzleGrid to TileInformation--><path d="M537.22,338.05 C531.3,355.78 525.13,374.25 518.84,393.08 " fill="none" id="PuzzleGrid-&gt;TileInformation" style="stroke: #A80036; stroke-width: 1.0;"/><polygon fill="#A80036" points="517.24,397.87,523.8676,390.5848,518.8126,393.1237,516.2736,388.0687,517.24,397.87" style="stroke: #A80036; stroke-width: 1.0;"/><text fill="#000000" font-family="sans-serif" font-size="13" lengthAdjust="spacingAndGlyphs" textLength="139" x="379.148" y="387.1445">currentHighlightedTile</text><!--MD5=[f72c07e585a760e13adb3047836d4c4a]
link TileInformation to TileType--><path d="M150.98,1048.23 C134.32,1069.17 119.25,1088.11 106.75,1103.82 " fill="none" id="TileInformation-&gt;TileType" style="stroke: #A80036; stroke-width: 1.0;"/><polygon fill="#A80036" points="103.63,1107.74,112.3636,1103.1876,106.743,1103.8273,106.1033,1098.2067,103.63,1107.74" style="stroke: #A80036; stroke-width: 1.0;"/><text fill="#000000" font-family="sans-serif" font-size="13" lengthAdjust="spacingAndGlyphs" textLength="50" x="54.9515" y="1097.0127">myType</text><!--MD5=[7c57b703142ae7abfe9c068b222faf19]
link TileInformation to GameObject--><path d="M267.43,1048.23 C254.43,1078.01 243.19,1103.75 235.27,1121.9 " fill="none" id="TileInformation-&gt;GameObject" style="stroke: #A80036; stroke-width: 1.0;"/><polygon fill="#A80036" points="233.13,1126.81,240.3944,1120.1595,235.1288,1122.2269,233.0615,1116.9614,233.13,1126.81" style="stroke: #A80036; stroke-width: 1.0;"/><text fill="#000000" font-family="sans-serif" font-size="13" lengthAdjust="spacingAndGlyphs" textLength="100" x="137.2275" y="1115.8961">myGameObject</text><!--MD5=[a83ec6e6568a98d31e8696717fab5001]
link TileInformation to Mesh--><path d="M360.29,1048.23 C355.85,1077.75 352.01,1103.31 349.29,1121.43 " fill="none" id="TileInformation-&gt;Mesh" style="stroke: #A80036; stroke-width: 1.0;"/><polygon fill="#A80036" points="348.48,1126.81,353.7732,1118.5044,349.2231,1121.8655,345.862,1117.3155,348.48,1126.81" style="stroke: #A80036; stroke-width: 1.0;"/><text fill="#000000" font-family="sans-serif" font-size="13" lengthAdjust="spacingAndGlyphs" textLength="54" x="288.453" y="1115.7733">myMesh</text><!--MD5=[d7290716439a8c39133c8b58276b3040]
link TileInformation to MeshRenderer--><path d="M458.47,1048.23 C462.98,1077.75 466.88,1103.31 469.64,1121.43 " fill="none" id="TileInformation-&gt;MeshRenderer" style="stroke: #A80036; stroke-width: 1.0;"/><polygon fill="#A80036" points="470.46,1126.81,473.0512,1117.3081,469.7029,1121.8676,465.1434,1118.5194,470.46,1126.81" style="stroke: #A80036; stroke-width: 1.0;"/><text fill="#000000" font-family="sans-serif" font-size="13" lengthAdjust="spacingAndGlyphs" textLength="112" x="376.2591" y="1115.7733">myMeshRenderer</text><!--MD5=[40c8938c3caca856a5f021dd34b54159]
link TileInformation to MeshCollider--><path d="M574.16,1048.23 C589.33,1078.01 602.44,1103.75 611.68,1121.9 " fill="none" id="TileInformation-&gt;MeshCollider" style="stroke: #A80036; stroke-width: 1.0;"/><polygon fill="#A80036" points="614.19,1126.81,613.6674,1116.975,611.9197,1122.3551,606.5396,1120.6074,614.19,1126.81" style="stroke: #A80036; stroke-width: 1.0;"/><text fill="#000000" font-family="sans-serif" font-size="13" lengthAdjust="spacingAndGlyphs" textLength="67" x="535.5793" y="1115.7733">myCollider</text><!--MD5=[5f5ceaa78c4abc53a8cc7cdb77648708]
link TileInformation to GridObject--><path d="M679.96,1048.23 C705.26,1078.52 727.08,1104.63 742.29,1122.82 " fill="none" id="TileInformation-&gt;GridObject" style="stroke: #A80036; stroke-width: 1.0;"/><polygon fill="#A80036" points="745.62,1126.81,742.9347,1117.3343,742.4205,1122.9677,736.787,1122.4535,745.62,1126.81" style="stroke: #A80036; stroke-width: 1.0;"/><text fill="#000000" font-family="sans-serif" font-size="13" lengthAdjust="spacingAndGlyphs" textLength="87" x="678.1258" y="1115.7733">myGridObject</text><!--MD5=[c412e54569f4126d5c3ab2ac43f7a863]
link TileInformation to Vector3--><path d="M712.3,723 C712.3,723 718.64,723 721.27,723 " fill="none" id="TileInformation-Vector3" style="stroke: #A80036; stroke-width: 1.0;"/><polygon fill="#A80036" points="734.44,723,725.44,719,729.44,723,725.44,727,734.44,723" style="stroke: #A80036; stroke-width: 1.0;"/><line style="stroke: #A80036; stroke-width: 1.0;" x1="729.44" x2="721.44" y1="723" y2="723"/><polygon fill="#FFFFFF" points="700.3,723,706.3,727,712.3,723,706.3,719,700.3,723" style="stroke: #A80036; stroke-width: 1.0;"/><text fill="#000000" font-family="sans-serif" font-size="13" lengthAdjust="spacingAndGlyphs" textLength="57" x="668.6629" y="710.9139">tileOffset</text><!--MD5=[959212abe24d47818c9f23e763addeea]
@startuml
class PuzzleGrid {
    width : int
    length : int
    + PuzzleGrid(width:int, length:int, origin:Vector3, materials:Material[])
    + IncreaseGrid(addWidth:int, addLength:int) : void
    FindXZ(position:Vector3, x:int, z:int) : void
    FindXZ(current:Vector3, offset:Vector3) : void
    + HighlightTile(x:int, z:int) : void
    + HighlightTile(tileChords:Vector3) : void
    + UnhighLightCurrentTile() : void
    + OnSelectTile(tileChords:Vector3) : void
    + OnDeselectTile(tileChords:Vector3) : void
    + OnDeleteTile(tileChords:Vector3) : void
    CheckPlaceableNeighbour(tileChords:Vector3) : bool
    + MoveTile(tileChords:Vector3, newPos:Vector3) : void
    UpdateNeighbours(tileChords:Vector3, offsetChords:Vector3, assignEdgeTiles:bool) : void
    HeightDifference(current:TileInformation, neighbour:TileInformation) : float
    + GetTile(tileChords:Vector3) : TileInformation
    + CreateTile(tileChords:Vector3) : void
    + CreateTile(tileChords:Vector3, tileType:TileType) : void
    + CreateTile(tileChords:Vector3, tile:TileInformation) : void
    + OnPlayMode(tileChords:Vector3) : void
    + OnEditMode(tileChords:Vector3) : void
}
class TileInformation {
    myHeight : float
    north : float
    east : float
    south : float
    west : float
    isSelected : bool
    + TileInformation(myType:TileType, myPosition:Vector3, materials:Material[])
    + TileInformation(tileToCopy:TileInformation)
    FlatTileWithEdgeMesh(material:Material) : void
    FlatFullTileMeshOnZero(material:Material) : void
    FlatFullTileMesh(material:Material) : void
    CubeWithoutBottomSmaller(material:Material, north:float, south:float, east:float, west:float) : void
    CubeWithoutBottom(material:Material, north:float, south:float, east:float, west:float) : void
    SouthMesh(material:Material, south:float) : void
    NorthMesh(material:Material, north:float) : void
    WestMesh(material:Material, west:float) : void
    EastMesh(material:Material, east:float) : void
    ParallelNorthSouth(material:Material, north:float, south:float) : void
    ParallelEastWest(material:Material, east:float, west:float) : void
    CornerSouthWestMesh(material:Material, south:float, west:float) : void
    CornerSouthEastMesh(material:Material, south:float, east:float) : void
    CornerNorthWestMesh(material:Material, north:float, west:float) : void
    CornerNorthEastMesh(material:Material, north:float, east:float) : void
    TrippleSouthEastWestMesh(material:Material, south:float, east:float, west:float) : void
    TrippleNorthSouthWestMesh(material:Material, north:float, south:float, west:float) : void
    TrippleNorthSouthEastMesh(material:Material, north:float, south:float, east:float) : void
    TrippleNorthEastWestMesh(material:Material, north:float, east:float, west:float) : void
    AssignMesh(vertices:Vector3[], uv:Vector2[], triangles:int[], material:Material) : void
    + SetTileType(newType:TileType) : void
    + GetTileType() : TileType
    + SetHeight(newHeight:float) : void
    + UpdateMesh() : void
    SetMesh2(material:Material, north:float, east:float, south:float, west:float) : void
    + OnSelectTile() : void
    + OnDeselectTile() : void
    SetMesh(material:Material) : void
    + Highlight() : void
    + Unhighlight() : void
    + AssignGridToObject(grid:PuzzleGrid) : void
    + GetHeight() : float
    + SetNorth(newNorth:float) : void
    + SetEast(newEast:float) : void
    + SetSouth(newSouth:float) : void
    + SetWest(newWest:float) : void
    + Reset() : void
    + TurnOffMesh() : void
    + TurnOnMesh() : void
}
enum TileType {
    NONE_TILE= 0,
    EDGE_TILE= 1,
    PLACEABLE_TILE= 2,
}
PuzzleGrid o-> "negativeOffset" Vector3
PuzzleGrid - -> "currentHighlightedTile" TileInformation
TileInformation - -> "myType" TileType
TileInformation - -> "myGameObject" GameObject
TileInformation - -> "myMesh" Mesh
TileInformation - -> "myMeshRenderer" MeshRenderer
TileInformation - -> "myCollider" MeshCollider
TileInformation - -> "myGridObject" GridObject
TileInformation o-> "tileOffset" Vector3
@enduml

PlantUML version 1.2020.02(Sun Mar 01 10:22:07 GMT 2020)
(GPL source distribution)
Java Runtime: OpenJDK Runtime Environment
JVM: OpenJDK 64-Bit Server VM
Java Version: 11.0.9+11-Ubuntu-0ubuntu1
Operating System: Linux
Default Encoding: ANSI_X3.4-1968
Language: en
Country: US
--></g></svg>