<?xml version="1.0" encoding="UTF-8" standalone="no"?><svg xmlns="http://www.w3.org/2000/svg" xmlns:xlink="http://www.w3.org/1999/xlink" contentScriptType="application/ecmascript" contentStyleType="text/css" height="334px" preserveAspectRatio="none" style="width:629px;height:334px;" version="1.1" viewBox="0 0 629 334" width="629px" zoomAndPan="magnify"><defs><filter height="300%" id="fcfknpzo9pr0x" width="300%" x="-1" y="-1"><feGaussianBlur result="blurOut" stdDeviation="2.0"/><feColorMatrix in="blurOut" result="blurOut2" type="matrix" values="0 0 0 0 0 0 0 0 0 0 0 0 0 0 0 0 0 0 .4 0"/><feOffset dx="4.0" dy="4.0" in="blurOut2" result="blurOut3"/><feBlend in="SourceGraphic" in2="blurOut3" mode="normal"/></filter></defs><g><!--MD5=[0281433f717099304c2b5fca4ff4a357]
class PuzzleStageEditor--><rect fill="#FEFECE" filter="url(#fcfknpzo9pr0x)" height="99.2188" id="PuzzleStageEditor" style="stroke: #A80036; stroke-width: 1.5;" width="612" x="6" y="116"/><ellipse cx="252.25" cy="132" fill="#ADD1B2" rx="11" ry="11" style="stroke: #A80036; stroke-width: 1.0;"/><path d="M255.2188,137.6406 Q254.6406,137.9375 254,138.0781 Q253.3594,138.2344 252.6563,138.2344 Q250.1563,138.2344 248.8281,136.5938 Q247.5156,134.9375 247.5156,131.8125 Q247.5156,128.6875 248.8281,127.0313 Q250.1563,125.375 252.6563,125.375 Q253.3594,125.375 254,125.5313 Q254.6563,125.6875 255.2188,125.9844 L255.2188,128.7031 Q254.5938,128.125 254,127.8594 Q253.4063,127.5781 252.7813,127.5781 Q251.4375,127.5781 250.75,128.6563 Q250.0625,129.7188 250.0625,131.8125 Q250.0625,133.9063 250.75,134.9844 Q251.4375,136.0469 252.7813,136.0469 Q253.4063,136.0469 254,135.7813 Q254.5938,135.5 255.2188,134.9219 L255.2188,137.6406 Z "/><text fill="#000000" font-family="sans-serif" font-size="12" lengthAdjust="spacingAndGlyphs" textLength="111" x="272.75" y="136.1543">PuzzleStageEditor</text><line style="stroke: #A80036; stroke-width: 1.5;" x1="7" x2="617" y1="148" y2="148"/><line style="stroke: #A80036; stroke-width: 1.5;" x1="7" x2="617" y1="156" y2="156"/><ellipse cx="17" cy="167" fill="#84BE84" rx="3" ry="3" style="stroke: #038048; stroke-width: 1.0;"/><text fill="#000000" font-family="sans-serif" font-size="11" lengthAdjust="spacingAndGlyphs" textLength="164" x="26" y="170.2104">«override» OnUpdate() : void</text><ellipse cx="17" cy="179.8047" fill="#84BE84" rx="3" ry="3" style="stroke: #038048; stroke-width: 1.0;"/><text fill="#000000" font-family="sans-serif" font-size="11" lengthAdjust="spacingAndGlyphs" textLength="156" x="26" y="183.0151">GetPuzzleGrid() : PuzzleGrid</text><ellipse cx="17" cy="192.6094" fill="#84BE84" rx="3" ry="3" style="stroke: #038048; stroke-width: 1.0;"/><text fill="#000000" font-family="sans-serif" font-size="11" lengthAdjust="spacingAndGlyphs" textLength="586" x="26" y="195.8198">InitializeNewGrid(maxX:int, maxZ:int, minX:int, minZ:int, locations:Vector3[], tileTypes:TileType[]) : void</text><ellipse cx="17" cy="205.4141" fill="#84BE84" rx="3" ry="3" style="stroke: #038048; stroke-width: 1.0;"/><text fill="#000000" font-family="sans-serif" font-size="11" lengthAdjust="spacingAndGlyphs" textLength="354" x="26" y="208.6245">InitializeNewGrid(maxX:int, maxZ:int, minX:int, minZ:int) : void</text><!--MD5=[cdc675492b5c7404f9d1fea69146a946]
class EditorBase--><rect fill="#FEFECE" filter="url(#fcfknpzo9pr0x)" height="48" id="EditorBase" style="stroke: #A80036; stroke-width: 1.5;" width="100" x="262" y="8"/><ellipse cx="277" cy="24" fill="#ADD1B2" rx="11" ry="11" style="stroke: #A80036; stroke-width: 1.0;"/><path d="M279.9688,29.6406 Q279.3906,29.9375 278.75,30.0781 Q278.1094,30.2344 277.4063,30.2344 Q274.9063,30.2344 273.5781,28.5938 Q272.2656,26.9375 272.2656,23.8125 Q272.2656,20.6875 273.5781,19.0313 Q274.9063,17.375 277.4063,17.375 Q278.1094,17.375 278.75,17.5313 Q279.4063,17.6875 279.9688,17.9844 L279.9688,20.7031 Q279.3438,20.125 278.75,19.8594 Q278.1563,19.5781 277.5313,19.5781 Q276.1875,19.5781 275.5,20.6563 Q274.8125,21.7188 274.8125,23.8125 Q274.8125,25.9063 275.5,26.9844 Q276.1875,28.0469 277.5313,28.0469 Q278.1563,28.0469 278.75,27.7813 Q279.3438,27.5 279.9688,26.9219 L279.9688,29.6406 Z "/><text fill="#000000" font-family="sans-serif" font-size="12" lengthAdjust="spacingAndGlyphs" textLength="68" x="291" y="28.1543">EditorBase</text><line style="stroke: #A80036; stroke-width: 1.5;" x1="263" x2="361" y1="40" y2="40"/><line style="stroke: #A80036; stroke-width: 1.5;" x1="263" x2="361" y1="48" y2="48"/><!--MD5=[ca4282e67b9ec4eef327b3d9bf721b8a]
class PuzzleGrid--><rect fill="#FEFECE" filter="url(#fcfknpzo9pr0x)" height="48" id="PuzzleGrid" style="stroke: #A80036; stroke-width: 1.5;" width="94" x="200" y="275"/><ellipse cx="215" cy="291" fill="#ADD1B2" rx="11" ry="11" style="stroke: #A80036; stroke-width: 1.0;"/><path d="M217.9688,296.6406 Q217.3906,296.9375 216.75,297.0781 Q216.1094,297.2344 215.4063,297.2344 Q212.9063,297.2344 211.5781,295.5938 Q210.2656,293.9375 210.2656,290.8125 Q210.2656,287.6875 211.5781,286.0313 Q212.9063,284.375 215.4063,284.375 Q216.1094,284.375 216.75,284.5313 Q217.4063,284.6875 217.9688,284.9844 L217.9688,287.7031 Q217.3438,287.125 216.75,286.8594 Q216.1563,286.5781 215.5313,286.5781 Q214.1875,286.5781 213.5,287.6563 Q212.8125,288.7188 212.8125,290.8125 Q212.8125,292.9063 213.5,293.9844 Q214.1875,295.0469 215.5313,295.0469 Q216.1563,295.0469 216.75,294.7813 Q217.3438,294.5 217.9688,293.9219 L217.9688,296.6406 Z "/><text fill="#000000" font-family="sans-serif" font-size="12" lengthAdjust="spacingAndGlyphs" textLength="62" x="229" y="295.1543">PuzzleGrid</text><line style="stroke: #A80036; stroke-width: 1.5;" x1="201" x2="293" y1="307" y2="307"/><line style="stroke: #A80036; stroke-width: 1.5;" x1="201" x2="293" y1="315" y2="315"/><!--MD5=[0f8b90e0a694fb6b7359e8beb96c9e2f]
class GridObject--><rect fill="#FEFECE" filter="url(#fcfknpzo9pr0x)" height="48" id="GridObject" style="stroke: #A80036; stroke-width: 1.5;" width="97" x="329.5" y="275"/><ellipse cx="344.5" cy="291" fill="#ADD1B2" rx="11" ry="11" style="stroke: #A80036; stroke-width: 1.0;"/><path d="M347.4688,296.6406 Q346.8906,296.9375 346.25,297.0781 Q345.6094,297.2344 344.9063,297.2344 Q342.4063,297.2344 341.0781,295.5938 Q339.7656,293.9375 339.7656,290.8125 Q339.7656,287.6875 341.0781,286.0313 Q342.4063,284.375 344.9063,284.375 Q345.6094,284.375 346.25,284.5313 Q346.9063,284.6875 347.4688,284.9844 L347.4688,287.7031 Q346.8438,287.125 346.25,286.8594 Q345.6563,286.5781 345.0313,286.5781 Q343.6875,286.5781 343,287.6563 Q342.3125,288.7188 342.3125,290.8125 Q342.3125,292.9063 343,293.9844 Q343.6875,295.0469 345.0313,295.0469 Q345.6563,295.0469 346.25,294.7813 Q346.8438,294.5 347.4688,293.9219 L347.4688,296.6406 Z "/><text fill="#000000" font-family="sans-serif" font-size="12" lengthAdjust="spacingAndGlyphs" textLength="65" x="358.5" y="295.1543">GridObject</text><line style="stroke: #A80036; stroke-width: 1.5;" x1="330.5" x2="425.5" y1="307" y2="307"/><line style="stroke: #A80036; stroke-width: 1.5;" x1="330.5" x2="425.5" y1="315" y2="315"/><!--MD5=[420941c49d437081ed7a88d983c41bce]
reverse link EditorBase to PuzzleStageEditor--><path d="M312,76.51 C312,89.14 312,103.01 312,115.93 " fill="none" id="EditorBase&lt;-PuzzleStageEditor" style="stroke: #A80036; stroke-width: 1.0;"/><polygon fill="none" points="305,76.21,312,56.21,319,76.21,305,76.21" style="stroke: #A80036; stroke-width: 1.0;"/><!--MD5=[477a31b3657db08131f50c49f4279c9b]
link PuzzleStageEditor to PuzzleGrid--><path d="M287.98,215.09 C278.8,233.66 268.66,254.18 260.76,270.17 " fill="none" id="PuzzleStageEditor-&gt;PuzzleGrid" style="stroke: #A80036; stroke-width: 1.0;"/><polygon fill="#A80036" points="258.38,274.98,265.9585,268.6899,260.5989,270.4993,258.7894,265.1397,258.38,274.98" style="stroke: #A80036; stroke-width: 1.0;"/><text fill="#000000" font-family="sans-serif" font-size="13" lengthAdjust="spacingAndGlyphs" textLength="67" x="185.7118" y="263.9869">puzzleGrid</text><!--MD5=[7465621bea9718ce78fc5ac00f397409]
link PuzzleStageEditor to GridObject--><path d="M336.39,215.09 C345.71,233.66 356.01,254.18 364.03,270.17 " fill="none" id="PuzzleStageEditor-&gt;GridObject" style="stroke: #A80036; stroke-width: 1.0;"/><polygon fill="#A80036" points="366.44,274.98,365.9802,265.1419,364.1982,270.5107,358.8294,268.7287,366.44,274.98" style="stroke: #A80036; stroke-width: 1.0;"/><text fill="#000000" font-family="sans-serif" font-size="13" lengthAdjust="spacingAndGlyphs" textLength="113" x="377.9559" y="263.9869">currentGridObject</text><!--MD5=[40ed8632958a58cb2a0a81fbc9ecd421]
@startuml
class PuzzleStageEditor {
    + <<override>> OnUpdate() : void
    + GetPuzzleGrid() : PuzzleGrid
    + InitializeNewGrid(maxX:int, maxZ:int, minX:int, minZ:int, locations:Vector3[], tileTypes:TileType[]) : void
    + InitializeNewGrid(maxX:int, maxZ:int, minX:int, minZ:int) : void
}
EditorBase <|- - PuzzleStageEditor
PuzzleStageEditor - -> "puzzleGrid" PuzzleGrid
PuzzleStageEditor - -> "currentGridObject" GridObject
@enduml

PlantUML version 1.2020.02(Sun Mar 01 10:22:07 GMT 2020)
(GPL source distribution)
Java Runtime: OpenJDK Runtime Environment
JVM: OpenJDK 64-Bit Server VM
Java Version: 11.0.9+11-Ubuntu-0ubuntu1
Operating System: Linux
Default Encoding: ANSI_X3.4-1968
Language: en
Country: US
--></g></svg>