<?xml version="1.0" encoding="UTF-8" standalone="no"?><svg xmlns="http://www.w3.org/2000/svg" xmlns:xlink="http://www.w3.org/1999/xlink" contentScriptType="application/ecmascript" contentStyleType="text/css" height="398px" preserveAspectRatio="none" style="width:449px;height:398px;" version="1.1" viewBox="0 0 449 398" width="449px" zoomAndPan="magnify"><defs><filter height="300%" id="fdcsk4hijy8o3" width="300%" x="-1" y="-1"><feGaussianBlur result="blurOut" stdDeviation="2.0"/><feColorMatrix in="blurOut" result="blurOut2" type="matrix" values="0 0 0 0 0 0 0 0 0 0 0 0 0 0 0 0 0 0 .4 0"/><feOffset dx="4.0" dy="4.0" in="blurOut2" result="blurOut3"/><feBlend in="SourceGraphic" in2="blurOut3" mode="normal"/></filter></defs><g><!--MD5=[59deb3f529aec2644655575e1fb76f6e]
class SceneObject--><rect fill="#FEFECE" filter="url(#fdcsk4hijy8o3)" height="163.2422" id="SceneObject" style="stroke: #A80036; stroke-width: 1.5;" width="256" x="182.5" y="116"/><ellipse cx="266.75" cy="132" fill="#ADD1B2" rx="11" ry="11" style="stroke: #A80036; stroke-width: 1.0;"/><path d="M269.7188,137.6406 Q269.1406,137.9375 268.5,138.0781 Q267.8594,138.2344 267.1563,138.2344 Q264.6563,138.2344 263.3281,136.5938 Q262.0156,134.9375 262.0156,131.8125 Q262.0156,128.6875 263.3281,127.0313 Q264.6563,125.375 267.1563,125.375 Q267.8594,125.375 268.5,125.5313 Q269.1563,125.6875 269.7188,125.9844 L269.7188,128.7031 Q269.0938,128.125 268.5,127.8594 Q267.9063,127.5781 267.2813,127.5781 Q265.9375,127.5781 265.25,128.6563 Q264.5625,129.7188 264.5625,131.8125 Q264.5625,133.9063 265.25,134.9844 Q265.9375,136.0469 267.2813,136.0469 Q267.9063,136.0469 268.5,135.7813 Q269.0938,135.5 269.7188,134.9219 L269.7188,137.6406 Z "/><text fill="#000000" font-family="sans-serif" font-size="12" lengthAdjust="spacingAndGlyphs" textLength="79" x="287.25" y="136.1543">SceneObject</text><line style="stroke: #A80036; stroke-width: 1.5;" x1="183.5" x2="437.5" y1="148" y2="148"/><line style="stroke: #A80036; stroke-width: 1.5;" x1="183.5" x2="437.5" y1="156" y2="156"/><ellipse cx="193.5" cy="167" fill="#84BE84" rx="3" ry="3" style="stroke: #038048; stroke-width: 1.0;"/><text fill="#000000" font-family="sans-serif" font-size="11" lengthAdjust="spacingAndGlyphs" textLength="160" x="202.5" y="170.2104">«virtual» OnCreation() : void</text><ellipse cx="193.5" cy="179.8047" fill="#84BE84" rx="3" ry="3" style="stroke: #038048; stroke-width: 1.0;"/><text fill="#000000" font-family="sans-serif" font-size="11" lengthAdjust="spacingAndGlyphs" textLength="158" x="202.5" y="183.0151">«virtual» OnDeletion() : void</text><ellipse cx="193.5" cy="192.6094" fill="#84BE84" rx="3" ry="3" style="stroke: #038048; stroke-width: 1.0;"/><text fill="#000000" font-family="sans-serif" font-size="11" lengthAdjust="spacingAndGlyphs" textLength="102" x="202.5" y="195.8198">OnInvisibe() : void</text><ellipse cx="193.5" cy="205.4141" fill="#84BE84" rx="3" ry="3" style="stroke: #038048; stroke-width: 1.0;"/><text fill="#000000" font-family="sans-serif" font-size="11" lengthAdjust="spacingAndGlyphs" textLength="164" x="202.5" y="208.6245">«virtual» OnSelection() : void</text><ellipse cx="193.5" cy="218.2188" fill="#84BE84" rx="3" ry="3" style="stroke: #038048; stroke-width: 1.0;"/><text fill="#000000" font-family="sans-serif" font-size="11" lengthAdjust="spacingAndGlyphs" textLength="178" x="202.5" y="221.4292">«virtual» OnDeselection() : void</text><ellipse cx="193.5" cy="231.0234" fill="#84BE84" rx="3" ry="3" style="stroke: #038048; stroke-width: 1.0;"/><text fill="#000000" font-family="sans-serif" font-size="11" lengthAdjust="spacingAndGlyphs" textLength="230" x="202.5" y="234.2339">«virtual» MoveTo(newPos:Vector3) : void</text><ellipse cx="193.5" cy="243.8281" fill="#84BE84" rx="3" ry="3" style="stroke: #038048; stroke-width: 1.0;"/><text fill="#000000" font-family="sans-serif" font-size="11" lengthAdjust="spacingAndGlyphs" textLength="169" x="202.5" y="247.0386">«virtual» OnStartMove() : void</text><ellipse cx="193.5" cy="256.6328" fill="#84BE84" rx="3" ry="3" style="stroke: #038048; stroke-width: 1.0;"/><text fill="#000000" font-family="sans-serif" font-size="11" lengthAdjust="spacingAndGlyphs" textLength="174" x="202.5" y="259.8433">«virtual» OnFinishMove() : void</text><ellipse cx="193.5" cy="269.4375" fill="#84BE84" rx="3" ry="3" style="stroke: #038048; stroke-width: 1.0;"/><text fill="#000000" font-family="sans-serif" font-size="11" lengthAdjust="spacingAndGlyphs" textLength="160" x="202.5" y="272.6479">«virtual» SaveObject() : void</text><!--MD5=[f0f1385ed93d2b4b9c99cf13ea11d247]
class SceneObjectData--><rect fill="#FEFECE" filter="url(#fdcsk4hijy8o3)" height="60.8047" id="SceneObjectData" style="stroke: #A80036; stroke-width: 1.5;" width="141" x="6" y="167"/><ellipse cx="21" cy="183" fill="#ADD1B2" rx="11" ry="11" style="stroke: #A80036; stroke-width: 1.0;"/><path d="M23.9688,188.6406 Q23.3906,188.9375 22.75,189.0781 Q22.1094,189.2344 21.4063,189.2344 Q18.9063,189.2344 17.5781,187.5938 Q16.2656,185.9375 16.2656,182.8125 Q16.2656,179.6875 17.5781,178.0313 Q18.9063,176.375 21.4063,176.375 Q22.1094,176.375 22.75,176.5313 Q23.4063,176.6875 23.9688,176.9844 L23.9688,179.7031 Q23.3438,179.125 22.75,178.8594 Q22.1563,178.5781 21.5313,178.5781 Q20.1875,178.5781 19.5,179.6563 Q18.8125,180.7188 18.8125,182.8125 Q18.8125,184.9063 19.5,185.9844 Q20.1875,187.0469 21.5313,187.0469 Q22.1563,187.0469 22.75,186.7813 Q23.3438,186.5 23.9688,185.9219 L23.9688,188.6406 Z "/><text fill="#000000" font-family="sans-serif" font-size="12" lengthAdjust="spacingAndGlyphs" textLength="109" x="35" y="187.1543">SceneObjectData</text><line style="stroke: #A80036; stroke-width: 1.5;" x1="7" x2="146" y1="199" y2="199"/><line style="stroke: #A80036; stroke-width: 1.5;" x1="7" x2="146" y1="207" y2="207"/><ellipse cx="17" cy="218" fill="#84BE84" rx="3" ry="3" style="stroke: #038048; stroke-width: 1.0;"/><text fill="#000000" font-family="sans-serif" font-size="11" lengthAdjust="spacingAndGlyphs" textLength="105" x="26" y="221.2104">SceneObjectData()</text><!--MD5=[cdc675492b5c7404f9d1fea69146a946]
class EditorBase--><rect fill="#FEFECE" filter="url(#fdcsk4hijy8o3)" height="48" id="EditorBase" style="stroke: #A80036; stroke-width: 1.5;" width="100" x="260.5" y="8"/><ellipse cx="275.5" cy="24" fill="#ADD1B2" rx="11" ry="11" style="stroke: #A80036; stroke-width: 1.0;"/><path d="M278.4688,29.6406 Q277.8906,29.9375 277.25,30.0781 Q276.6094,30.2344 275.9063,30.2344 Q273.4063,30.2344 272.0781,28.5938 Q270.7656,26.9375 270.7656,23.8125 Q270.7656,20.6875 272.0781,19.0313 Q273.4063,17.375 275.9063,17.375 Q276.6094,17.375 277.25,17.5313 Q277.9063,17.6875 278.4688,17.9844 L278.4688,20.7031 Q277.8438,20.125 277.25,19.8594 Q276.6563,19.5781 276.0313,19.5781 Q274.6875,19.5781 274,20.6563 Q273.3125,21.7188 273.3125,23.8125 Q273.3125,25.9063 274,26.9844 Q274.6875,28.0469 276.0313,28.0469 Q276.6563,28.0469 277.25,27.7813 Q277.8438,27.5 278.4688,26.9219 L278.4688,29.6406 Z "/><text fill="#000000" font-family="sans-serif" font-size="12" lengthAdjust="spacingAndGlyphs" textLength="68" x="289.5" y="28.1543">EditorBase</text><line style="stroke: #A80036; stroke-width: 1.5;" x1="261.5" x2="359.5" y1="40" y2="40"/><line style="stroke: #A80036; stroke-width: 1.5;" x1="261.5" x2="359.5" y1="48" y2="48"/><!--MD5=[65d619c042c23702cef2ca07d67b1cf6]
class Vector3--><rect fill="#FEFECE" filter="url(#fdcsk4hijy8o3)" height="48" id="Vector3" style="stroke: #A80036; stroke-width: 1.5;" width="81" x="153" y="339"/><ellipse cx="168" cy="355" fill="#ADD1B2" rx="11" ry="11" style="stroke: #A80036; stroke-width: 1.0;"/><path d="M170.9688,360.6406 Q170.3906,360.9375 169.75,361.0781 Q169.1094,361.2344 168.4063,361.2344 Q165.9063,361.2344 164.5781,359.5938 Q163.2656,357.9375 163.2656,354.8125 Q163.2656,351.6875 164.5781,350.0313 Q165.9063,348.375 168.4063,348.375 Q169.1094,348.375 169.75,348.5313 Q170.4063,348.6875 170.9688,348.9844 L170.9688,351.7031 Q170.3438,351.125 169.75,350.8594 Q169.1563,350.5781 168.5313,350.5781 Q167.1875,350.5781 166.5,351.6563 Q165.8125,352.7188 165.8125,354.8125 Q165.8125,356.9063 166.5,357.9844 Q167.1875,359.0469 168.5313,359.0469 Q169.1563,359.0469 169.75,358.7813 Q170.3438,358.5 170.9688,357.9219 L170.9688,360.6406 Z "/><text fill="#000000" font-family="sans-serif" font-size="12" lengthAdjust="spacingAndGlyphs" textLength="49" x="182" y="359.1543">Vector3</text><line style="stroke: #A80036; stroke-width: 1.5;" x1="154" x2="233" y1="371" y2="371"/><line style="stroke: #A80036; stroke-width: 1.5;" x1="154" x2="233" y1="379" y2="379"/><!--MD5=[674c5206f288e09d114026aef295211e]
reverse link EditorBase to SceneObject--><path d="M310.5,76.19 C310.5,88.45 310.5,102.21 310.5,115.93 " fill="none" id="EditorBase&lt;-SceneObject" style="stroke: #A80036; stroke-width: 1.0;"/><polygon fill="none" points="303.5,76.08,310.5,56.08,317.5,76.08,303.5,76.08" style="stroke: #A80036; stroke-width: 1.0;"/><!--MD5=[3c354887b3a339e5ba3f855d5fc4df79]
link SceneObject to Vector3--><path d="M252.69,279.29 C238.37,299.29 224,319.37 213.01,334.74 " fill="none" id="SceneObject-&gt;Vector3" style="stroke: #A80036; stroke-width: 1.0;"/><polygon fill="#A80036" points="210,338.94,218.4993,333.9639,212.917,334.8791,212.0019,329.2967,210,338.94" style="stroke: #A80036; stroke-width: 1.0;"/><text fill="#000000" font-family="sans-serif" font-size="13" lengthAdjust="spacingAndGlyphs" textLength="75" x="129.6188" y="327.9367">myStartPos</text><!--MD5=[919d04516c953f4db7d8d8a12ea219c2]
link SceneObjectData to Vector3--><path d="M97.69,228.11 C119.4,258.46 152.9,305.26 173.98,334.73 " fill="none" id="SceneObjectData-&gt;Vector3" style="stroke: #A80036; stroke-width: 1.0;"/><polygon fill="#A80036" points="177,338.94,174.9981,329.2967,174.083,334.8791,168.5007,333.9639,177,338.94" style="stroke: #A80036; stroke-width: 1.0;"/><text fill="#000000" font-family="sans-serif" font-size="13" lengthAdjust="spacingAndGlyphs" textLength="50" x="95.3563" y="338.4305">position</text><!--MD5=[cc3e27b6d414aee0154b02379a92adab]
@startuml
class SceneObject {
    + <<virtual>> OnCreation() : void
    + <<virtual>> OnDeletion() : void
    + OnInvisibe() : void
    + <<virtual>> OnSelection() : void
    + <<virtual>> OnDeselection() : void
    + <<virtual>> MoveTo(newPos:Vector3) : void
    + <<virtual>> OnStartMove() : void
    + <<virtual>> OnFinishMove() : void
    + <<virtual>> SaveObject() : void
}
class SceneObjectData {
    + SceneObjectData()
}
EditorBase <|- - SceneObject
SceneObject - -> "myStartPos" Vector3
SceneObjectData - -> "position" Vector3
@enduml

PlantUML version 1.2020.02(Sun Mar 01 10:22:07 GMT 2020)
(GPL source distribution)
Java Runtime: OpenJDK Runtime Environment
JVM: OpenJDK 64-Bit Server VM
Java Version: 11.0.9+11-Ubuntu-0ubuntu1
Operating System: Linux
Default Encoding: ANSI_X3.4-1968
Language: en
Country: US
--></g></svg>