<?xml version="1.0" encoding="UTF-8" standalone="no"?><svg xmlns="http://www.w3.org/2000/svg" xmlns:xlink="http://www.w3.org/1999/xlink" contentScriptType="application/ecmascript" contentStyleType="text/css" height="494px" preserveAspectRatio="none" style="width:781px;height:494px;" version="1.1" viewBox="0 0 781 494" width="781px" zoomAndPan="magnify"><defs><filter height="300%" id="fd7wchkfq3nfb" width="300%" x="-1" y="-1"><feGaussianBlur result="blurOut" stdDeviation="2.0"/><feColorMatrix in="blurOut" result="blurOut2" type="matrix" values="0 0 0 0 0 0 0 0 0 0 0 0 0 0 0 0 0 0 .4 0"/><feOffset dx="4.0" dy="4.0" in="blurOut2" result="blurOut3"/><feBlend in="SourceGraphic" in2="blurOut3" mode="normal"/></filter></defs><g><!--MD5=[427fbd514f55f9891a822d8ba5b0a5e3]
class TerrainObject--><rect fill="#FEFECE" filter="url(#fd7wchkfq3nfb)" height="124.8281" id="TerrainObject" style="stroke: #A80036; stroke-width: 1.5;" width="268" x="182.5" y="116"/><ellipse cx="270.25" cy="132" fill="#ADD1B2" rx="11" ry="11" style="stroke: #A80036; stroke-width: 1.0;"/><path d="M273.2188,137.6406 Q272.6406,137.9375 272,138.0781 Q271.3594,138.2344 270.6563,138.2344 Q268.1563,138.2344 266.8281,136.5938 Q265.5156,134.9375 265.5156,131.8125 Q265.5156,128.6875 266.8281,127.0313 Q268.1563,125.375 270.6563,125.375 Q271.3594,125.375 272,125.5313 Q272.6563,125.6875 273.2188,125.9844 L273.2188,128.7031 Q272.5938,128.125 272,127.8594 Q271.4063,127.5781 270.7813,127.5781 Q269.4375,127.5781 268.75,128.6563 Q268.0625,129.7188 268.0625,131.8125 Q268.0625,133.9063 268.75,134.9844 Q269.4375,136.0469 270.7813,136.0469 Q271.4063,136.0469 272,135.7813 Q272.5938,135.5 273.2188,134.9219 L273.2188,137.6406 Z "/><text fill="#000000" font-family="sans-serif" font-size="12" lengthAdjust="spacingAndGlyphs" textLength="84" x="290.75" y="136.1543">TerrainObject</text><line style="stroke: #A80036; stroke-width: 1.5;" x1="183.5" x2="449.5" y1="148" y2="148"/><line style="stroke: #A80036; stroke-width: 1.5;" x1="183.5" x2="449.5" y1="156" y2="156"/><ellipse cx="193.5" cy="167" fill="#84BE84" rx="3" ry="3" style="stroke: #038048; stroke-width: 1.0;"/><text fill="#000000" font-family="sans-serif" font-size="11" lengthAdjust="spacingAndGlyphs" textLength="172" x="202.5" y="170.2104">«override» OnCreation() : void</text><ellipse cx="193.5" cy="179.8047" fill="#84BE84" rx="3" ry="3" style="stroke: #038048; stroke-width: 1.0;"/><text fill="#000000" font-family="sans-serif" font-size="11" lengthAdjust="spacingAndGlyphs" textLength="170" x="202.5" y="183.0151">«override» OnDeletion() : void</text><ellipse cx="193.5" cy="192.6094" fill="#84BE84" rx="3" ry="3" style="stroke: #038048; stroke-width: 1.0;"/><text fill="#000000" font-family="sans-serif" font-size="11" lengthAdjust="spacingAndGlyphs" textLength="176" x="202.5" y="195.8198">«override» OnSelection() : void</text><ellipse cx="193.5" cy="205.4141" fill="#84BE84" rx="3" ry="3" style="stroke: #038048; stroke-width: 1.0;"/><text fill="#000000" font-family="sans-serif" font-size="11" lengthAdjust="spacingAndGlyphs" textLength="190" x="202.5" y="208.6245">«override» OnDeselection() : void</text><ellipse cx="193.5" cy="218.2188" fill="#84BE84" rx="3" ry="3" style="stroke: #038048; stroke-width: 1.0;"/><text fill="#000000" font-family="sans-serif" font-size="11" lengthAdjust="spacingAndGlyphs" textLength="242" x="202.5" y="221.4292">«override» MoveTo(newPos:Vector3) : void</text><ellipse cx="193.5" cy="231.0234" fill="#84BE84" rx="3" ry="3" style="stroke: #038048; stroke-width: 1.0;"/><text fill="#000000" font-family="sans-serif" font-size="11" lengthAdjust="spacingAndGlyphs" textLength="172" x="202.5" y="234.2339">«override» SaveObject() : void</text><!--MD5=[5beff7c38c9aead66ac6518e757ba8f7]
class TerrainObjectData--><rect fill="#FEFECE" filter="url(#fd7wchkfq3nfb)" height="73.6094" id="TerrainObjectData" style="stroke: #A80036; stroke-width: 1.5;" width="146" x="123.5" y="301"/><ellipse cx="138.5" cy="317" fill="#ADD1B2" rx="11" ry="11" style="stroke: #A80036; stroke-width: 1.0;"/><path d="M141.4688,322.6406 Q140.8906,322.9375 140.25,323.0781 Q139.6094,323.2344 138.9063,323.2344 Q136.4063,323.2344 135.0781,321.5938 Q133.7656,319.9375 133.7656,316.8125 Q133.7656,313.6875 135.0781,312.0313 Q136.4063,310.375 138.9063,310.375 Q139.6094,310.375 140.25,310.5313 Q140.9063,310.6875 141.4688,310.9844 L141.4688,313.7031 Q140.8438,313.125 140.25,312.8594 Q139.6563,312.5781 139.0313,312.5781 Q137.6875,312.5781 137,313.6563 Q136.3125,314.7188 136.3125,316.8125 Q136.3125,318.9063 137,319.9844 Q137.6875,321.0469 139.0313,321.0469 Q139.6563,321.0469 140.25,320.7813 Q140.8438,320.5 141.4688,319.9219 L141.4688,322.6406 Z "/><text fill="#000000" font-family="sans-serif" font-size="12" lengthAdjust="spacingAndGlyphs" textLength="114" x="152.5" y="321.1543">TerrainObjectData</text><line style="stroke: #A80036; stroke-width: 1.5;" x1="124.5" x2="268.5" y1="333" y2="333"/><ellipse cx="134.5" cy="344" fill="none" rx="3" ry="3" style="stroke: #038048; stroke-width: 1.0;"/><text fill="#000000" font-family="sans-serif" font-size="11" lengthAdjust="spacingAndGlyphs" textLength="77" x="143.5" y="347.2104">name : string</text><line style="stroke: #A80036; stroke-width: 1.5;" x1="124.5" x2="268.5" y1="353.8047" y2="353.8047"/><ellipse cx="134.5" cy="364.8047" fill="#84BE84" rx="3" ry="3" style="stroke: #038048; stroke-width: 1.0;"/><text fill="#000000" font-family="sans-serif" font-size="11" lengthAdjust="spacingAndGlyphs" textLength="111" x="143.5" y="368.0151">TerrainObjectData()</text><!--MD5=[e644022de7dea015dd09463c37421447]
class List`1--><rect fill="#FEFECE" filter="url(#fd7wchkfq3nfb)" height="48" id="List`1" style="stroke: #A80036; stroke-width: 1.5;" width="78" x="485.5" y="154.5"/><ellipse cx="500.5" cy="170.5" fill="#ADD1B2" rx="11" ry="11" style="stroke: #A80036; stroke-width: 1.0;"/><path d="M503.4688,176.1406 Q502.8906,176.4375 502.25,176.5781 Q501.6094,176.7344 500.9063,176.7344 Q498.4063,176.7344 497.0781,175.0938 Q495.7656,173.4375 495.7656,170.3125 Q495.7656,167.1875 497.0781,165.5313 Q498.4063,163.875 500.9063,163.875 Q501.6094,163.875 502.25,164.0313 Q502.9063,164.1875 503.4688,164.4844 L503.4688,167.2031 Q502.8438,166.625 502.25,166.3594 Q501.6563,166.0781 501.0313,166.0781 Q499.6875,166.0781 499,167.1563 Q498.3125,168.2188 498.3125,170.3125 Q498.3125,172.4063 499,173.4844 Q499.6875,174.5469 501.0313,174.5469 Q501.6563,174.5469 502.25,174.2813 Q502.8438,174 503.4688,173.4219 L503.4688,176.1406 Z "/><text fill="#000000" font-family="sans-serif" font-size="12" lengthAdjust="spacingAndGlyphs" textLength="35" x="514.5" y="174.6543">List`1</text><rect fill="#FFFFFF" height="15.9688" style="stroke: #000000; stroke-width: 1.0; stroke-dasharray: 2.0,2.0;" width="9" x="557.5" y="151.5"/><text fill="#000000" font-family="sans-serif" font-size="12" font-style="italic" lengthAdjust="spacingAndGlyphs" textLength="7" x="558.5" y="163.6387">T</text><line style="stroke: #A80036; stroke-width: 1.5;" x1="486.5" x2="562.5" y1="186.5" y2="186.5"/><line style="stroke: #A80036; stroke-width: 1.5;" x1="486.5" x2="562.5" y1="194.5" y2="194.5"/><!--MD5=[59deb3f529aec2644655575e1fb76f6e]
class SceneObject--><rect fill="#FEFECE" filter="url(#fd7wchkfq3nfb)" height="48" id="SceneObject" style="stroke: #A80036; stroke-width: 1.5;" width="111" x="261" y="8"/><ellipse cx="276" cy="24" fill="#ADD1B2" rx="11" ry="11" style="stroke: #A80036; stroke-width: 1.0;"/><path d="M278.9688,29.6406 Q278.3906,29.9375 277.75,30.0781 Q277.1094,30.2344 276.4063,30.2344 Q273.9063,30.2344 272.5781,28.5938 Q271.2656,26.9375 271.2656,23.8125 Q271.2656,20.6875 272.5781,19.0313 Q273.9063,17.375 276.4063,17.375 Q277.1094,17.375 277.75,17.5313 Q278.4063,17.6875 278.9688,17.9844 L278.9688,20.7031 Q278.3438,20.125 277.75,19.8594 Q277.1563,19.5781 276.5313,19.5781 Q275.1875,19.5781 274.5,20.6563 Q273.8125,21.7188 273.8125,23.8125 Q273.8125,25.9063 274.5,26.9844 Q275.1875,28.0469 276.5313,28.0469 Q277.1563,28.0469 277.75,27.7813 Q278.3438,27.5 278.9688,26.9219 L278.9688,29.6406 Z "/><text fill="#000000" font-family="sans-serif" font-size="12" lengthAdjust="spacingAndGlyphs" textLength="79" x="290" y="28.1543">SceneObject</text><line style="stroke: #A80036; stroke-width: 1.5;" x1="262" x2="371" y1="40" y2="40"/><line style="stroke: #A80036; stroke-width: 1.5;" x1="262" x2="371" y1="48" y2="48"/><!--MD5=[f0f1385ed93d2b4b9c99cf13ea11d247]
class SceneObjectData--><rect fill="#FEFECE" filter="url(#fd7wchkfq3nfb)" height="48" id="SceneObjectData" style="stroke: #A80036; stroke-width: 1.5;" width="141" x="6" y="154.5"/><ellipse cx="21" cy="170.5" fill="#ADD1B2" rx="11" ry="11" style="stroke: #A80036; stroke-width: 1.0;"/><path d="M23.9688,176.1406 Q23.3906,176.4375 22.75,176.5781 Q22.1094,176.7344 21.4063,176.7344 Q18.9063,176.7344 17.5781,175.0938 Q16.2656,173.4375 16.2656,170.3125 Q16.2656,167.1875 17.5781,165.5313 Q18.9063,163.875 21.4063,163.875 Q22.1094,163.875 22.75,164.0313 Q23.4063,164.1875 23.9688,164.4844 L23.9688,167.2031 Q23.3438,166.625 22.75,166.3594 Q22.1563,166.0781 21.5313,166.0781 Q20.1875,166.0781 19.5,167.1563 Q18.8125,168.2188 18.8125,170.3125 Q18.8125,172.4063 19.5,173.4844 Q20.1875,174.5469 21.5313,174.5469 Q22.1563,174.5469 22.75,174.2813 Q23.3438,174 23.9688,173.4219 L23.9688,176.1406 Z "/><text fill="#000000" font-family="sans-serif" font-size="12" lengthAdjust="spacingAndGlyphs" textLength="109" x="35" y="174.6543">SceneObjectData</text><line style="stroke: #A80036; stroke-width: 1.5;" x1="7" x2="146" y1="186.5" y2="186.5"/><line style="stroke: #A80036; stroke-width: 1.5;" x1="7" x2="146" y1="194.5" y2="194.5"/><!--MD5=[4c7b140fed10e9877852f4b8dc88c33d]
class Quaternion--><rect fill="#FEFECE" filter="url(#fd7wchkfq3nfb)" height="48" id="Quaternion" style="stroke: #A80036; stroke-width: 1.5;" width="102" x="145.5" y="435"/><ellipse cx="160.5" cy="451" fill="#ADD1B2" rx="11" ry="11" style="stroke: #A80036; stroke-width: 1.0;"/><path d="M163.4688,456.6406 Q162.8906,456.9375 162.25,457.0781 Q161.6094,457.2344 160.9063,457.2344 Q158.4063,457.2344 157.0781,455.5938 Q155.7656,453.9375 155.7656,450.8125 Q155.7656,447.6875 157.0781,446.0313 Q158.4063,444.375 160.9063,444.375 Q161.6094,444.375 162.25,444.5313 Q162.9063,444.6875 163.4688,444.9844 L163.4688,447.7031 Q162.8438,447.125 162.25,446.8594 Q161.6563,446.5781 161.0313,446.5781 Q159.6875,446.5781 159,447.6563 Q158.3125,448.7188 158.3125,450.8125 Q158.3125,452.9063 159,453.9844 Q159.6875,455.0469 161.0313,455.0469 Q161.6563,455.0469 162.25,454.7813 Q162.8438,454.5 163.4688,453.9219 L163.4688,456.6406 Z "/><text fill="#000000" font-family="sans-serif" font-size="12" lengthAdjust="spacingAndGlyphs" textLength="70" x="174.5" y="455.1543">Quaternion</text><line style="stroke: #A80036; stroke-width: 1.5;" x1="146.5" x2="246.5" y1="467" y2="467"/><line style="stroke: #A80036; stroke-width: 1.5;" x1="146.5" x2="246.5" y1="475" y2="475"/><!--MD5=[d5e13651fbe691ae0807c6bc6ec9c5bc]
reverse link SceneObject to TerrainObject--><path d="M316.5,76.67 C316.5,89.05 316.5,102.77 316.5,115.99 " fill="none" id="SceneObject&lt;-TerrainObject" style="stroke: #A80036; stroke-width: 1.0;"/><polygon fill="none" points="309.5,76.22,316.5,56.22,323.5,76.22,309.5,76.22" style="stroke: #A80036; stroke-width: 1.0;"/><!--MD5=[8c34c19f3fe2c1afcae90ad0cfe66793]
link TerrainObject to List`1--><path d="M462.56,178.5 C462.56,178.5 469.4,178.5 472.19,178.5 " fill="none" id="TerrainObject-List`1" style="stroke: #A80036; stroke-width: 1.0;"/><polygon fill="#A80036" points="485.22,178.5,476.22,174.5,480.22,178.5,476.22,182.5,485.22,178.5" style="stroke: #A80036; stroke-width: 1.0;"/><line style="stroke: #A80036; stroke-width: 1.0;" x1="480.22" x2="472.22" y1="178.5" y2="178.5"/><polygon fill="#FFFFFF" points="450.56,178.5,456.56,182.5,462.56,178.5,456.56,174.5,450.56,178.5" style="stroke: #A80036; stroke-width: 1.0;"/><text fill="#000000" font-family="sans-serif" font-size="13" lengthAdjust="spacingAndGlyphs" textLength="197" x="572.5695" y="164.6023">terrainObjects&lt;TerrainObject&gt;</text><!--MD5=[1df2c7985d49d229abd8fd91f5e212dc]
link TerrainObject to TerrainObjectData--><path d="M269.42,241.3 C255.25,259.89 240.08,279.8 227.26,296.62 " fill="none" id="TerrainObject-&gt;TerrainObjectData" style="stroke: #A80036; stroke-width: 1.0;"/><polygon fill="#A80036" points="224.06,300.83,232.6982,296.099,227.0919,296.8542,226.3368,291.2479,224.06,300.83" style="stroke: #A80036; stroke-width: 1.0;"/><text fill="#000000" font-family="sans-serif" font-size="13" lengthAdjust="spacingAndGlyphs" textLength="51" x="173.4269" y="289.9867">myData</text><!--MD5=[b16b3843ec24620a083ea1cdb6454fe4]
reverse link SceneObjectData to TerrainObjectData--><path d="M106.44,218.8 C125.6,243.94 150.26,276.3 168.93,300.81 " fill="none" id="SceneObjectData&lt;-TerrainObjectData" style="stroke: #A80036; stroke-width: 1.0;"/><polygon fill="none" points="100.76,222.89,94.21,202.74,111.9,214.41,100.76,222.89" style="stroke: #A80036; stroke-width: 1.0;"/><!--MD5=[d7a2d56b3ec69f25521c43580cd2cd07]
link TerrainObjectData to Quaternion--><path d="M196.5,375.03 C196.5,392.48 196.5,413.15 196.5,429.49 " fill="none" id="TerrainObjectData-&gt;Quaternion" style="stroke: #A80036; stroke-width: 1.0;"/><polygon fill="#A80036" points="196.5,434.85,200.5,425.85,196.5,429.85,192.5,425.85,196.5,434.85" style="stroke: #A80036; stroke-width: 1.0;"/><text fill="#000000" font-family="sans-serif" font-size="13" lengthAdjust="spacingAndGlyphs" textLength="50" x="140.0938" y="423.8236">rotation</text><!--MD5=[f98c49dc5c1b12598020a8b7e5a8f5c8]
@startuml
class TerrainObject {
    + <<override>> OnCreation() : void
    + <<override>> OnDeletion() : void
    + <<override>> OnSelection() : void
    + <<override>> OnDeselection() : void
    + <<override>> MoveTo(newPos:Vector3) : void
    + <<override>> SaveObject() : void
}
class TerrainObjectData {
    + name : string
    + TerrainObjectData()
}
class "List`1"<T> {
}
SceneObject <|- - TerrainObject
TerrainObject o-> "terrainObjects<TerrainObject>" "List`1"
TerrainObject - -> "myData" TerrainObjectData
SceneObjectData <|- - TerrainObjectData
TerrainObjectData - -> "rotation" Quaternion
@enduml

PlantUML version 1.2020.02(Sun Mar 01 10:22:07 GMT 2020)
(GPL source distribution)
Java Runtime: OpenJDK Runtime Environment
JVM: OpenJDK 64-Bit Server VM
Java Version: 11.0.9+11-Ubuntu-0ubuntu1
Operating System: Linux
Default Encoding: ANSI_X3.4-1968
Language: en
Country: US
--></g></svg>