<?xml version="1.0" encoding="UTF-8" standalone="no"?><svg xmlns="http://www.w3.org/2000/svg" xmlns:xlink="http://www.w3.org/1999/xlink" contentScriptType="application/ecmascript" contentStyleType="text/css" height="264px" preserveAspectRatio="none" style="width:511px;height:264px;" version="1.1" viewBox="0 0 511 264" width="511px" zoomAndPan="magnify"><defs><filter height="300%" id="f16lz3mjyz706h" width="300%" x="-1" y="-1"><feGaussianBlur result="blurOut" stdDeviation="2.0"/><feColorMatrix in="blurOut" result="blurOut2" type="matrix" values="0 0 0 0 0 0 0 0 0 0 0 0 0 0 0 0 0 0 .4 0"/><feOffset dx="4.0" dy="4.0" in="blurOut2" result="blurOut3"/><feBlend in="SourceGraphic" in2="blurOut3" mode="normal"/></filter></defs><g><!--MD5=[7b27f8d87d9dde1e059f3739cdaa8789]
class GravityBehaviour--><rect fill="#FEFECE" filter="url(#f16lz3mjyz706h)" height="73.6094" id="GravityBehaviour" style="stroke: #A80036; stroke-width: 1.5;" width="182" x="6" y="173"/><ellipse cx="41.7" cy="189" fill="#ADD1B2" rx="11" ry="11" style="stroke: #A80036; stroke-width: 1.0;"/><path d="M44.6688,194.6406 Q44.0906,194.9375 43.45,195.0781 Q42.8094,195.2344 42.1063,195.2344 Q39.6063,195.2344 38.2781,193.5938 Q36.9656,191.9375 36.9656,188.8125 Q36.9656,185.6875 38.2781,184.0313 Q39.6063,182.375 42.1063,182.375 Q42.8094,182.375 43.45,182.5313 Q44.1063,182.6875 44.6688,182.9844 L44.6688,185.7031 Q44.0438,185.125 43.45,184.8594 Q42.8563,184.5781 42.2313,184.5781 Q40.8875,184.5781 40.2,185.6563 Q39.5125,186.7188 39.5125,188.8125 Q39.5125,190.9063 40.2,191.9844 Q40.8875,193.0469 42.2313,193.0469 Q42.8563,193.0469 43.45,192.7813 Q44.0438,192.5 44.6688,191.9219 L44.6688,194.6406 Z "/><text fill="#000000" font-family="sans-serif" font-size="12" lengthAdjust="spacingAndGlyphs" textLength="104" x="60.3" y="193.1543">GravityBehaviour</text><line style="stroke: #A80036; stroke-width: 1.5;" x1="7" x2="187" y1="205" y2="205"/><text fill="#000000" font-family="sans-serif" font-size="11" lengthAdjust="spacingAndGlyphs" textLength="170" x="12" y="219.2104">gravityStrenght : float = 9.81f</text><text fill="#000000" font-family="sans-serif" font-size="11" lengthAdjust="spacingAndGlyphs" textLength="132" x="12" y="232.0151">zoneRadius : float = 10</text><line style="stroke: #A80036; stroke-width: 1.5;" x1="7" x2="187" y1="238.6094" y2="238.6094"/><!--MD5=[7ca05059718e30e5223bf85d7c89e913]
class GravityType--><rect fill="#FEFECE" filter="url(#f16lz3mjyz706h)" height="86.4141" id="GravityType" style="stroke: #A80036; stroke-width: 1.5;" width="160" x="340" y="167"/><ellipse cx="380.65" cy="183" fill="#EB937F" rx="11" ry="11" style="stroke: #A80036; stroke-width: 1.0;"/><path d="M384.7594,189 L377.0406,189 L377.0406,176.6094 L384.7594,176.6094 L384.7594,178.7656 L379.4938,178.7656 L379.4938,181.4375 L384.2594,181.4375 L384.2594,183.5938 L379.4938,183.5938 L379.4938,186.8438 L384.7594,186.8438 L384.7594,189 Z "/><text fill="#000000" font-family="sans-serif" font-size="12" lengthAdjust="spacingAndGlyphs" textLength="71" x="400.35" y="187.1543">GravityType</text><line style="stroke: #A80036; stroke-width: 1.5;" x1="341" x2="499" y1="199" y2="199"/><text fill="#000000" font-family="sans-serif" font-size="11" lengthAdjust="spacingAndGlyphs" textLength="103" x="346" y="213.2104">STATIC_ZONE= 0,</text><text fill="#000000" font-family="sans-serif" font-size="11" lengthAdjust="spacingAndGlyphs" textLength="144" x="346" y="226.0151">GRAVITY_POINT_PULL= 1,</text><text fill="#000000" font-family="sans-serif" font-size="11" lengthAdjust="spacingAndGlyphs" textLength="148" x="346" y="238.8198">GRAVITY_POINT_PUSH= 2,</text><line style="stroke: #A80036; stroke-width: 1.5;" x1="341" x2="499" y1="245.4141" y2="245.4141"/><!--MD5=[2fb4da6c010319de91248e41255ed55e]
class IGravity--><rect fill="#FEFECE" filter="url(#f16lz3mjyz706h)" height="99.2188" id="IGravity" style="stroke: #A80036; stroke-width: 1.5;" width="210" x="186" y="8"/><ellipse cx="263.25" cy="24" fill="#B4A7E5" rx="11" ry="11" style="stroke: #A80036; stroke-width: 1.0;"/><path d="M259.1719,19.7656 L259.1719,17.6094 L266.5625,17.6094 L266.5625,19.7656 L264.0938,19.7656 L264.0938,27.8438 L266.5625,27.8438 L266.5625,30 L259.1719,30 L259.1719,27.8438 L261.6406,27.8438 L261.6406,19.7656 L259.1719,19.7656 Z "/><text fill="#000000" font-family="sans-serif" font-size="12" font-style="italic" lengthAdjust="spacingAndGlyphs" textLength="47" x="283.75" y="28.1543">IGravity</text><line style="stroke: #A80036; stroke-width: 1.5;" x1="187" x2="395" y1="40" y2="40"/><line style="stroke: #A80036; stroke-width: 1.5;" x1="187" x2="395" y1="48" y2="48"/><text fill="#000000" font-family="sans-serif" font-size="11" lengthAdjust="spacingAndGlyphs" textLength="119" x="192" y="62.2104">OnEnterZone() : void</text><text fill="#000000" font-family="sans-serif" font-size="11" lengthAdjust="spacingAndGlyphs" textLength="198" x="192" y="75.0151">SetGravity(direction:Vector3) : void</text><text fill="#000000" font-family="sans-serif" font-size="11" lengthAdjust="spacingAndGlyphs" textLength="109" x="192" y="87.8198">OnExitZone() : void</text><text fill="#000000" font-family="sans-serif" font-size="11" lengthAdjust="spacingAndGlyphs" textLength="128" x="192" y="100.6245">GetPosition() : Vector3</text><!--MD5=[0b0e26e60ca4bb39236e528f8c5fbd24]
class RunnerBase--><rect fill="#FEFECE" filter="url(#f16lz3mjyz706h)" height="48" id="RunnerBase" style="stroke: #A80036; stroke-width: 1.5;" width="108" x="43" y="33.5"/><ellipse cx="58" cy="49.5" fill="#ADD1B2" rx="11" ry="11" style="stroke: #A80036; stroke-width: 1.0;"/><path d="M60.9688,55.1406 Q60.3906,55.4375 59.75,55.5781 Q59.1094,55.7344 58.4063,55.7344 Q55.9063,55.7344 54.5781,54.0938 Q53.2656,52.4375 53.2656,49.3125 Q53.2656,46.1875 54.5781,44.5313 Q55.9063,42.875 58.4063,42.875 Q59.1094,42.875 59.75,43.0313 Q60.4063,43.1875 60.9688,43.4844 L60.9688,46.2031 Q60.3438,45.625 59.75,45.3594 Q59.1563,45.0781 58.5313,45.0781 Q57.1875,45.0781 56.5,46.1563 Q55.8125,47.2188 55.8125,49.3125 Q55.8125,51.4063 56.5,52.4844 Q57.1875,53.5469 58.5313,53.5469 Q59.1563,53.5469 59.75,53.2813 Q60.3438,53 60.9688,52.4219 L60.9688,55.1406 Z "/><text fill="#000000" font-family="sans-serif" font-size="12" lengthAdjust="spacingAndGlyphs" textLength="76" x="72" y="53.6543">RunnerBase</text><line style="stroke: #A80036; stroke-width: 1.5;" x1="44" x2="150" y1="65.5" y2="65.5"/><line style="stroke: #A80036; stroke-width: 1.5;" x1="44" x2="150" y1="73.5" y2="73.5"/><!--MD5=[65d619c042c23702cef2ca07d67b1cf6]
class Vector3--><rect fill="#FEFECE" filter="url(#f16lz3mjyz706h)" height="48" id="Vector3" style="stroke: #A80036; stroke-width: 1.5;" width="81" x="223.5" y="186"/><ellipse cx="238.5" cy="202" fill="#ADD1B2" rx="11" ry="11" style="stroke: #A80036; stroke-width: 1.0;"/><path d="M241.4688,207.6406 Q240.8906,207.9375 240.25,208.0781 Q239.6094,208.2344 238.9063,208.2344 Q236.4063,208.2344 235.0781,206.5938 Q233.7656,204.9375 233.7656,201.8125 Q233.7656,198.6875 235.0781,197.0313 Q236.4063,195.375 238.9063,195.375 Q239.6094,195.375 240.25,195.5313 Q240.9063,195.6875 241.4688,195.9844 L241.4688,198.7031 Q240.8438,198.125 240.25,197.8594 Q239.6563,197.5781 239.0313,197.5781 Q237.6875,197.5781 237,198.6563 Q236.3125,199.7188 236.3125,201.8125 Q236.3125,203.9063 237,204.9844 Q237.6875,206.0469 239.0313,206.0469 Q239.6563,206.0469 240.25,205.7813 Q240.8438,205.5 241.4688,204.9219 L241.4688,207.6406 Z "/><text fill="#000000" font-family="sans-serif" font-size="12" lengthAdjust="spacingAndGlyphs" textLength="49" x="252.5" y="206.1543">Vector3</text><line style="stroke: #A80036; stroke-width: 1.5;" x1="224.5" x2="303.5" y1="218" y2="218"/><line style="stroke: #A80036; stroke-width: 1.5;" x1="224.5" x2="303.5" y1="226" y2="226"/><!--MD5=[3016adeb96a3f081320d8c9dc9b5a24b]
reverse link RunnerBase to GravityBehaviour--><path d="M97,101.87 C97,124.37 97,151.54 97,172.88 " fill="none" id="RunnerBase&lt;-GravityBehaviour" style="stroke: #A80036; stroke-width: 1.0;"/><polygon fill="none" points="90,101.69,97,81.69,104,101.69,90,101.69" style="stroke: #A80036; stroke-width: 1.0;"/><!--MD5=[902fab2b877dc92437821fade97be9c3]
link GravityBehaviour to GravityType--><path d="M157.4236,166.5905 C157.4236,166.5905 200.98,143.03 223.5,137 C258.27,127.69 269.92,126.99 304.5,137 C321.83,142.02 339.05,150.49 354.71,159.93 " fill="none" id="GravityBehaviour-GravityType" style="stroke: #A80036; stroke-width: 1.0;"/><polygon fill="#A80036" points="365.8,166.94,360.3242,158.7537,361.5718,164.2713,356.0542,165.5189,365.8,166.94" style="stroke: #A80036; stroke-width: 1.0;"/><line style="stroke: #A80036; stroke-width: 1.0;" x1="361.5718" x2="354.81" y1="164.2713" y2="160"/><polygon fill="#FFFFFF" points="147.21,172.89,154.4166,173.1448,157.4236,166.5905,150.217,166.3358,147.21,172.89" style="stroke: #A80036; stroke-width: 1.0;"/><text fill="#000000" font-family="sans-serif" font-size="13" lengthAdjust="spacingAndGlyphs" textLength="73" x="278.3447" y="155.9265">gravityType</text><!--MD5=[91268d31d9d9787c8babecb2dceccdd3]
link GravityBehaviour to Vector3--><path d="M200,210 C200,210 207.23,210 210.22,210 " fill="none" id="GravityBehaviour-Vector3" style="stroke: #A80036; stroke-width: 1.0;"/><polygon fill="#A80036" points="223.33,210,214.33,206,218.33,210,214.33,214,223.33,210" style="stroke: #A80036; stroke-width: 1.0;"/><line style="stroke: #A80036; stroke-width: 1.0;" x1="218.33" x2="210.33" y1="210" y2="210"/><polygon fill="#FFFFFF" points="188,210,194,214,200,210,194,206,188,210" style="stroke: #A80036; stroke-width: 1.0;"/><text fill="#000000" font-family="sans-serif" font-size="13" lengthAdjust="spacingAndGlyphs" textLength="100" x="169.3173" y="174.6505">gravityDirection</text><!--MD5=[f40e13516a8a09caeec95da7513197de]
@startuml
class GravityBehaviour {
    gravityStrenght : float = 9.81f
    zoneRadius : float = 10
}
enum GravityType {
    STATIC_ZONE= 0,
    GRAVITY_POINT_PULL= 1,
    GRAVITY_POINT_PUSH= 2,
}
interface IGravity {
    OnEnterZone() : void
    SetGravity(direction:Vector3) : void
    OnExitZone() : void
    GetPosition() : Vector3
}
RunnerBase <|- - GravityBehaviour
GravityBehaviour o-> "gravityType" GravityType
GravityBehaviour o-> "gravityDirection" Vector3
@enduml

PlantUML version 1.2020.02(Sun Mar 01 10:22:07 GMT 2020)
(GPL source distribution)
Java Runtime: OpenJDK Runtime Environment
JVM: OpenJDK 64-Bit Server VM
Java Version: 11.0.9+11-Ubuntu-0ubuntu1
Operating System: Linux
Default Encoding: ANSI_X3.4-1968
Language: en
Country: US
--></g></svg>