<?xml version="1.0" encoding="UTF-8" standalone="no"?><svg xmlns="http://www.w3.org/2000/svg" xmlns:xlink="http://www.w3.org/1999/xlink" contentScriptType="application/ecmascript" contentStyleType="text/css" height="347px" preserveAspectRatio="none" style="width:319px;height:347px;" version="1.1" viewBox="0 0 319 347" width="319px" zoomAndPan="magnify"><defs><filter height="300%" id="fhr4v100fzu3g" width="300%" x="-1" y="-1"><feGaussianBlur result="blurOut" stdDeviation="2.0"/><feColorMatrix in="blurOut" result="blurOut2" type="matrix" values="0 0 0 0 0 0 0 0 0 0 0 0 0 0 0 0 0 0 .4 0"/><feOffset dx="4.0" dy="4.0" in="blurOut2" result="blurOut3"/><feBlend in="SourceGraphic" in2="blurOut3" mode="normal"/></filter></defs><g><!--MD5=[a88e068c787d4f33cced8e983488a95f]
class PlayerStateManager--><rect fill="#FEFECE" filter="url(#fhr4v100fzu3g)" height="112.0234" id="PlayerStateManager" style="stroke: #A80036; stroke-width: 1.5;" width="243" x="30.99" y="116"/><ellipse cx="84.74" cy="132" fill="#ADD1B2" rx="11" ry="11" style="stroke: #A80036; stroke-width: 1.0;"/><path d="M87.7088,137.6406 Q87.1306,137.9375 86.49,138.0781 Q85.8494,138.2344 85.1463,138.2344 Q82.6463,138.2344 81.3181,136.5938 Q80.0056,134.9375 80.0056,131.8125 Q80.0056,128.6875 81.3181,127.0313 Q82.6463,125.375 85.1463,125.375 Q85.8494,125.375 86.49,125.5313 Q87.1463,125.6875 87.7088,125.9844 L87.7088,128.7031 Q87.0838,128.125 86.49,127.8594 Q85.8963,127.5781 85.2713,127.5781 Q83.9275,127.5781 83.24,128.6563 Q82.5525,129.7188 82.5525,131.8125 Q82.5525,133.9063 83.24,134.9844 Q83.9275,136.0469 85.2713,136.0469 Q85.8963,136.0469 86.49,135.7813 Q87.0838,135.5 87.7088,134.9219 L87.7088,137.6406 Z "/><text fill="#000000" font-family="sans-serif" font-size="12" lengthAdjust="spacingAndGlyphs" textLength="127" x="105.24" y="136.1543">PlayerStateManager</text><line style="stroke: #A80036; stroke-width: 1.5;" x1="31.99" x2="272.99" y1="148" y2="148"/><line style="stroke: #A80036; stroke-width: 1.5;" x1="31.99" x2="272.99" y1="156" y2="156"/><ellipse cx="41.99" cy="167" fill="#84BE84" rx="3" ry="3" style="stroke: #038048; stroke-width: 1.0;"/><text fill="#000000" font-family="sans-serif" font-size="11" lengthAdjust="spacingAndGlyphs" textLength="193" x="50.99" y="170.2104">«override» OnFixedUpdate() : void</text><ellipse cx="41.99" cy="179.8047" fill="#84BE84" rx="3" ry="3" style="stroke: #038048; stroke-width: 1.0;"/><text fill="#000000" font-family="sans-serif" font-size="11" lengthAdjust="spacingAndGlyphs" textLength="188" x="50.99" y="183.0151">«override» OnLateUpdate() : void</text><ellipse cx="41.99" cy="192.6094" fill="#84BE84" rx="3" ry="3" style="stroke: #038048; stroke-width: 1.0;"/><text fill="#000000" font-family="sans-serif" font-size="11" lengthAdjust="spacingAndGlyphs" textLength="164" x="50.99" y="195.8198">«override» OnUpdate() : void</text><ellipse cx="41.99" cy="205.4141" fill="#84BE84" rx="3" ry="3" style="stroke: #038048; stroke-width: 1.0;"/><text fill="#000000" font-family="sans-serif" font-size="11" lengthAdjust="spacingAndGlyphs" textLength="217" x="50.99" y="208.6245">SwitchState(state:System.Type) : void</text><ellipse cx="41.99" cy="218.2188" fill="#84BE84" rx="3" ry="3" style="stroke: #038048; stroke-width: 1.0;"/><text fill="#000000" font-family="sans-serif" font-size="11" lengthAdjust="spacingAndGlyphs" textLength="138" x="50.99" y="221.4292">OnStopPlayMode() : void</text><!--MD5=[0b0e26e60ca4bb39236e528f8c5fbd24]
class RunnerBase--><rect fill="#FEFECE" filter="url(#fhr4v100fzu3g)" height="48" id="RunnerBase" style="stroke: #A80036; stroke-width: 1.5;" width="108" x="98.49" y="8"/><ellipse cx="113.49" cy="24" fill="#ADD1B2" rx="11" ry="11" style="stroke: #A80036; stroke-width: 1.0;"/><path d="M116.4588,29.6406 Q115.8806,29.9375 115.24,30.0781 Q114.5994,30.2344 113.8963,30.2344 Q111.3963,30.2344 110.0681,28.5938 Q108.7556,26.9375 108.7556,23.8125 Q108.7556,20.6875 110.0681,19.0313 Q111.3963,17.375 113.8963,17.375 Q114.5994,17.375 115.24,17.5313 Q115.8963,17.6875 116.4588,17.9844 L116.4588,20.7031 Q115.8338,20.125 115.24,19.8594 Q114.6463,19.5781 114.0213,19.5781 Q112.6775,19.5781 111.99,20.6563 Q111.3025,21.7188 111.3025,23.8125 Q111.3025,25.9063 111.99,26.9844 Q112.6775,28.0469 114.0213,28.0469 Q114.6463,28.0469 115.24,27.7813 Q115.8338,27.5 116.4588,26.9219 L116.4588,29.6406 Z "/><text fill="#000000" font-family="sans-serif" font-size="12" lengthAdjust="spacingAndGlyphs" textLength="76" x="127.49" y="28.1543">RunnerBase</text><line style="stroke: #A80036; stroke-width: 1.5;" x1="99.49" x2="205.49" y1="40" y2="40"/><line style="stroke: #A80036; stroke-width: 1.5;" x1="99.49" x2="205.49" y1="48" y2="48"/><!--MD5=[ced70c4db88c0caf8c044d862484d7f7]
class BaseState--><rect fill="#FEFECE" filter="url(#fhr4v100fzu3g)" height="48" id="BaseState" style="stroke: #A80036; stroke-width: 1.5;" width="97" x="23.99" y="288"/><ellipse cx="38.99" cy="304" fill="#ADD1B2" rx="11" ry="11" style="stroke: #A80036; stroke-width: 1.0;"/><path d="M41.9588,309.6406 Q41.3806,309.9375 40.74,310.0781 Q40.0994,310.2344 39.3963,310.2344 Q36.8963,310.2344 35.5681,308.5938 Q34.2556,306.9375 34.2556,303.8125 Q34.2556,300.6875 35.5681,299.0313 Q36.8963,297.375 39.3963,297.375 Q40.0994,297.375 40.74,297.5313 Q41.3963,297.6875 41.9588,297.9844 L41.9588,300.7031 Q41.3338,300.125 40.74,299.8594 Q40.1463,299.5781 39.5213,299.5781 Q38.1775,299.5781 37.49,300.6563 Q36.8025,301.7188 36.8025,303.8125 Q36.8025,305.9063 37.49,306.9844 Q38.1775,308.0469 39.5213,308.0469 Q40.1463,308.0469 40.74,307.7813 Q41.3338,307.5 41.9588,306.9219 L41.9588,309.6406 Z "/><text fill="#000000" font-family="sans-serif" font-size="12" lengthAdjust="spacingAndGlyphs" textLength="65" x="52.99" y="308.1543">BaseState</text><line style="stroke: #A80036; stroke-width: 1.5;" x1="24.99" x2="119.99" y1="320" y2="320"/><line style="stroke: #A80036; stroke-width: 1.5;" x1="24.99" x2="119.99" y1="328" y2="328"/><!--MD5=[4a8513aeedabc1398a53b507291099b6]
class FiniteStateMachine--><rect fill="#FEFECE" filter="url(#fhr4v100fzu3g)" height="48" id="FiniteStateMachine" style="stroke: #A80036; stroke-width: 1.5;" width="152" x="156.49" y="288"/><ellipse cx="171.49" cy="304" fill="#ADD1B2" rx="11" ry="11" style="stroke: #A80036; stroke-width: 1.0;"/><path d="M174.4588,309.6406 Q173.8806,309.9375 173.24,310.0781 Q172.5994,310.2344 171.8963,310.2344 Q169.3963,310.2344 168.0681,308.5938 Q166.7556,306.9375 166.7556,303.8125 Q166.7556,300.6875 168.0681,299.0313 Q169.3963,297.375 171.8963,297.375 Q172.5994,297.375 173.24,297.5313 Q173.8963,297.6875 174.4588,297.9844 L174.4588,300.7031 Q173.8338,300.125 173.24,299.8594 Q172.6463,299.5781 172.0213,299.5781 Q170.6775,299.5781 169.99,300.6563 Q169.3025,301.7188 169.3025,303.8125 Q169.3025,305.9063 169.99,306.9844 Q170.6775,308.0469 172.0213,308.0469 Q172.6463,308.0469 173.24,307.7813 Q173.8338,307.5 174.4588,306.9219 L174.4588,309.6406 Z "/><text fill="#000000" font-family="sans-serif" font-size="12" lengthAdjust="spacingAndGlyphs" textLength="120" x="185.49" y="308.1543">FiniteStateMachine</text><line style="stroke: #A80036; stroke-width: 1.5;" x1="157.49" x2="307.49" y1="320" y2="320"/><line style="stroke: #A80036; stroke-width: 1.5;" x1="157.49" x2="307.49" y1="328" y2="328"/><!--MD5=[3d468779ee10210bdf7075ddd9f1f0d3]
reverse link RunnerBase to PlayerStateManager--><path d="M152.49,76.25 C152.49,88.82 152.49,102.73 152.49,115.93 " fill="none" id="RunnerBase&lt;-PlayerStateManager" style="stroke: #A80036; stroke-width: 1.0;"/><polygon fill="none" points="145.49,76.1,152.49,56.1,159.49,76.1,145.49,76.1" style="stroke: #A80036; stroke-width: 1.0;"/><!--MD5=[d7dcdb3c75dab02f670ebcadd305b0b5]
link PlayerStateManager to BaseState--><path d="M120.41,228.33 C109.54,247.09 97.85,267.25 88.74,282.96 " fill="none" id="PlayerStateManager-&gt;BaseState" style="stroke: #A80036; stroke-width: 1.0;"/><polygon fill="#A80036" points="86,287.69,93.965,281.897,88.5007,283.3603,87.0374,277.8959,86,287.69" style="stroke: #A80036; stroke-width: 1.0;"/><text fill="#000000" font-family="sans-serif" font-size="13" lengthAdjust="spacingAndGlyphs" textLength="65" x="16.3712" y="277.0194">startState</text><!--MD5=[f7742af3f3f92b78059432ca17a3dff5]
link PlayerStateManager to FiniteStateMachine--><path d="M184.57,228.33 C195.44,247.09 207.13,267.25 216.24,282.96 " fill="none" id="PlayerStateManager-&gt;FiniteStateMachine" style="stroke: #A80036; stroke-width: 1.0;"/><polygon fill="#A80036" points="218.98,287.69,217.9285,277.8974,216.4731,283.3638,211.0067,281.9084,218.98,287.69" style="stroke: #A80036; stroke-width: 1.0;"/><text fill="#000000" font-family="sans-serif" font-size="13" lengthAdjust="spacingAndGlyphs" textLength="24" x="188.7619" y="277.0194">fsm</text><!--MD5=[6943c71ffa8991a6cc407764d0dfc88a]
@startuml
class PlayerStateManager {
    + <<override>> OnFixedUpdate() : void
    + <<override>> OnLateUpdate() : void
    + <<override>> OnUpdate() : void
    + SwitchState(state:System.Type) : void
    + OnStopPlayMode() : void
}
RunnerBase <|- - PlayerStateManager
PlayerStateManager - -> "startState" BaseState
PlayerStateManager - -> "fsm" FiniteStateMachine
@enduml

PlantUML version 1.2020.02(Sun Mar 01 10:22:07 GMT 2020)
(GPL source distribution)
Java Runtime: OpenJDK Runtime Environment
JVM: OpenJDK 64-Bit Server VM
Java Version: 11.0.9+11-Ubuntu-0ubuntu1
Operating System: Linux
Default Encoding: ANSI_X3.4-1968
Language: en
Country: US
--></g></svg>