<?xml version="1.0" encoding="UTF-8" standalone="no"?><svg xmlns="http://www.w3.org/2000/svg" xmlns:xlink="http://www.w3.org/1999/xlink" contentScriptType="application/ecmascript" contentStyleType="text/css" height="251px" preserveAspectRatio="none" style="width:319px;height:251px;" version="1.1" viewBox="0 0 319 251" width="319px" zoomAndPan="magnify"><defs><filter height="300%" id="f1grjn60v35t9m" width="300%" x="-1" y="-1"><feGaussianBlur result="blurOut" stdDeviation="2.0"/><feColorMatrix in="blurOut" result="blurOut2" type="matrix" values="0 0 0 0 0 0 0 0 0 0 0 0 0 0 0 0 0 0 .4 0"/><feOffset dx="4.0" dy="4.0" in="blurOut2" result="blurOut3"/><feBlend in="SourceGraphic" in2="blurOut3" mode="normal"/></filter></defs><g><!--MD5=[ced70c4db88c0caf8c044d862484d7f7]
class BaseState--><rect fill="#FEFECE" filter="url(#f1grjn60v35t9m)" height="124.8281" id="BaseState" style="stroke: #A80036; stroke-width: 1.5;" width="302" x="6" y="116"/><ellipse cx="120.75" cy="132" fill="#A9DCDF" rx="11" ry="11" style="stroke: #A80036; stroke-width: 1.0;"/><path d="M120.8594,127.3438 L119.7031,132.4219 L122.0313,132.4219 L120.8594,127.3438 Z M119.375,125.1094 L122.3594,125.1094 L125.7188,137.5 L123.2656,137.5 L122.5,134.4375 L119.2188,134.4375 L118.4688,137.5 L116.0313,137.5 L119.375,125.1094 Z "/><text fill="#000000" font-family="sans-serif" font-size="12" font-style="italic" lengthAdjust="spacingAndGlyphs" textLength="64" x="141.25" y="136.1543">BaseState</text><line style="stroke: #A80036; stroke-width: 1.5;" x1="7" x2="307" y1="148" y2="148"/><line style="stroke: #A80036; stroke-width: 1.5;" x1="7" x2="307" y1="156" y2="156"/><ellipse cx="17" cy="167" fill="#84BE84" rx="3" ry="3" style="stroke: #038048; stroke-width: 1.0;"/><text fill="#000000" font-family="sans-serif" font-size="11" lengthAdjust="spacingAndGlyphs" textLength="276" x="26" y="170.2104">Initialize(stateManager:FiniteStateMachine) : void</text><ellipse cx="17" cy="179.8047" fill="#84BE84" rx="3" ry="3" style="stroke: #038048; stroke-width: 1.0;"/><text fill="#000000" font-family="sans-serif" font-size="11" font-style="italic" lengthAdjust="spacingAndGlyphs" textLength="90" x="26" y="183.0151">OnEnter() : void</text><ellipse cx="17" cy="192.6094" fill="#84BE84" rx="3" ry="3" style="stroke: #038048; stroke-width: 1.0;"/><text fill="#000000" font-family="sans-serif" font-size="11" font-style="italic" lengthAdjust="spacingAndGlyphs" textLength="81" x="26" y="195.8198">OnExit() : void</text><ellipse cx="17" cy="205.4141" fill="#84BE84" rx="3" ry="3" style="stroke: #038048; stroke-width: 1.0;"/><text fill="#000000" font-family="sans-serif" font-size="11" font-style="italic" lengthAdjust="spacingAndGlyphs" textLength="100" x="26" y="208.6245">OnUpdate() : void</text><ellipse cx="17" cy="218.2188" fill="#84BE84" rx="3" ry="3" style="stroke: #038048; stroke-width: 1.0;"/><text fill="#000000" font-family="sans-serif" font-size="11" font-style="italic" lengthAdjust="spacingAndGlyphs" textLength="130" x="26" y="221.4292">OnFixedUpdate() : void</text><ellipse cx="17" cy="231.0234" fill="#84BE84" rx="3" ry="3" style="stroke: #038048; stroke-width: 1.0;"/><text fill="#000000" font-family="sans-serif" font-size="11" font-style="italic" lengthAdjust="spacingAndGlyphs" textLength="124" x="26" y="234.2339">OnLateUpdate() : void</text><!--MD5=[83b3cf3d23d77c6f1e1b5291a241bc2a]
class MonoBehaviour--><rect fill="#FEFECE" filter="url(#f1grjn60v35t9m)" height="48" id="MonoBehaviour" style="stroke: #A80036; stroke-width: 1.5;" width="128" x="93" y="8"/><ellipse cx="108" cy="24" fill="#ADD1B2" rx="11" ry="11" style="stroke: #A80036; stroke-width: 1.0;"/><path d="M110.9688,29.6406 Q110.3906,29.9375 109.75,30.0781 Q109.1094,30.2344 108.4063,30.2344 Q105.9063,30.2344 104.5781,28.5938 Q103.2656,26.9375 103.2656,23.8125 Q103.2656,20.6875 104.5781,19.0313 Q105.9063,17.375 108.4063,17.375 Q109.1094,17.375 109.75,17.5313 Q110.4063,17.6875 110.9688,17.9844 L110.9688,20.7031 Q110.3438,20.125 109.75,19.8594 Q109.1563,19.5781 108.5313,19.5781 Q107.1875,19.5781 106.5,20.6563 Q105.8125,21.7188 105.8125,23.8125 Q105.8125,25.9063 106.5,26.9844 Q107.1875,28.0469 108.5313,28.0469 Q109.1563,28.0469 109.75,27.7813 Q110.3438,27.5 110.9688,26.9219 L110.9688,29.6406 Z "/><text fill="#000000" font-family="sans-serif" font-size="12" lengthAdjust="spacingAndGlyphs" textLength="96" x="122" y="28.1543">MonoBehaviour</text><line style="stroke: #A80036; stroke-width: 1.5;" x1="94" x2="220" y1="40" y2="40"/><line style="stroke: #A80036; stroke-width: 1.5;" x1="94" x2="220" y1="48" y2="48"/><!--MD5=[27fffb2b452aeb0368143d95c340930f]
reverse link MonoBehaviour to BaseState--><path d="M157,76.67 C157,89.05 157,102.77 157,115.99 " fill="none" id="MonoBehaviour&lt;-BaseState" style="stroke: #A80036; stroke-width: 1.0;"/><polygon fill="none" points="150,76.22,157,56.22,164,76.22,150,76.22" style="stroke: #A80036; stroke-width: 1.0;"/><!--MD5=[95dba0666181b602e382626f5249b6e1]
@startuml
abstract class BaseState {
    + Initialize(stateManager:FiniteStateMachine) : void
    + {abstract} OnEnter() : void
    + {abstract} OnExit() : void
    + {abstract} OnUpdate() : void
    + {abstract} OnFixedUpdate() : void
    + {abstract} OnLateUpdate() : void
}
MonoBehaviour <|- - BaseState
@enduml

PlantUML version 1.2020.02(Sun Mar 01 10:22:07 GMT 2020)
(GPL source distribution)
Java Runtime: OpenJDK Runtime Environment
JVM: OpenJDK 64-Bit Server VM
Java Version: 11.0.9+11-Ubuntu-0ubuntu1
Operating System: Linux
Default Encoding: ANSI_X3.4-1968
Language: en
Country: US
--></g></svg>