<?xml version="1.0" encoding="UTF-8" standalone="no"?><svg xmlns="http://www.w3.org/2000/svg" xmlns:xlink="http://www.w3.org/1999/xlink" contentScriptType="application/ecmascript" contentStyleType="text/css" height="142px" preserveAspectRatio="none" style="width:408px;height:142px;" version="1.1" viewBox="0 0 408 142" width="408px" zoomAndPan="magnify"><defs><filter height="300%" id="f1dt43vglg6rgd" width="300%" x="-1" y="-1"><feGaussianBlur result="blurOut" stdDeviation="2.0"/><feColorMatrix in="blurOut" result="blurOut2" type="matrix" values="0 0 0 0 0 0 0 0 0 0 0 0 0 0 0 0 0 0 .4 0"/><feOffset dx="4.0" dy="4.0" in="blurOut2" result="blurOut3"/><feBlend in="SourceGraphic" in2="blurOut3" mode="normal"/></filter></defs><g><!--MD5=[4a8513aeedabc1398a53b507291099b6]
class FiniteStateMachine--><rect fill="#FEFECE" filter="url(#f1dt43vglg6rgd)" height="124.8281" id="FiniteStateMachine" style="stroke: #A80036; stroke-width: 1.5;" width="390" x="7" y="7"/><ellipse cx="137.75" cy="23" fill="#ADD1B2" rx="11" ry="11" style="stroke: #A80036; stroke-width: 1.0;"/><path d="M140.7188,28.6406 Q140.1406,28.9375 139.5,29.0781 Q138.8594,29.2344 138.1563,29.2344 Q135.6563,29.2344 134.3281,27.5938 Q133.0156,25.9375 133.0156,22.8125 Q133.0156,19.6875 134.3281,18.0313 Q135.6563,16.375 138.1563,16.375 Q138.8594,16.375 139.5,16.5313 Q140.1563,16.6875 140.7188,16.9844 L140.7188,19.7031 Q140.0938,19.125 139.5,18.8594 Q138.9063,18.5781 138.2813,18.5781 Q136.9375,18.5781 136.25,19.6563 Q135.5625,20.7188 135.5625,22.8125 Q135.5625,24.9063 136.25,25.9844 Q136.9375,27.0469 138.2813,27.0469 Q138.9063,27.0469 139.5,26.7813 Q140.0938,26.5 140.7188,25.9219 L140.7188,28.6406 Z "/><text fill="#000000" font-family="sans-serif" font-size="12" lengthAdjust="spacingAndGlyphs" textLength="120" x="158.25" y="27.1543">FiniteStateMachine</text><line style="stroke: #A80036; stroke-width: 1.5;" x1="8" x2="396" y1="39" y2="39"/><line style="stroke: #A80036; stroke-width: 1.5;" x1="8" x2="396" y1="47" y2="47"/><ellipse cx="18" cy="58" fill="#84BE84" rx="3" ry="3" style="stroke: #038048; stroke-width: 1.0;"/><text fill="#000000" font-family="sans-serif" font-size="11" lengthAdjust="spacingAndGlyphs" textLength="364" x="27" y="61.2104">FiniteStateMachine(startState:System.Type, states:BaseState[])</text><ellipse cx="18" cy="70.8047" fill="#84BE84" rx="3" ry="3" style="stroke: #038048; stroke-width: 1.0;"/><text fill="#000000" font-family="sans-serif" font-size="11" lengthAdjust="spacingAndGlyphs" textLength="99" x="27" y="74.0151">OnUpdate() : void</text><ellipse cx="18" cy="83.6094" fill="#84BE84" rx="3" ry="3" style="stroke: #038048; stroke-width: 1.0;"/><text fill="#000000" font-family="sans-serif" font-size="11" lengthAdjust="spacingAndGlyphs" textLength="128" x="27" y="86.8198">OnFixedUpdate() : void</text><ellipse cx="18" cy="96.4141" fill="#84BE84" rx="3" ry="3" style="stroke: #038048; stroke-width: 1.0;"/><text fill="#000000" font-family="sans-serif" font-size="11" lengthAdjust="spacingAndGlyphs" textLength="123" x="27" y="99.6245">OnLateUpdate() : void</text><ellipse cx="18" cy="109.2188" fill="#84BE84" rx="3" ry="3" style="stroke: #038048; stroke-width: 1.0;"/><text fill="#000000" font-family="sans-serif" font-size="11" lengthAdjust="spacingAndGlyphs" textLength="273" x="27" y="112.4292">SwitchState(newStateStype:System.Type) : void</text><ellipse cx="18" cy="122.0234" fill="#84BE84" rx="3" ry="3" style="stroke: #038048; stroke-width: 1.0;"/><text fill="#000000" font-family="sans-serif" font-size="11" lengthAdjust="spacingAndGlyphs" textLength="152" x="27" y="125.2339">DebugCurrentState() : void</text><!--MD5=[984f09267607d49f3c71f6cc24e74b00]
@startuml
class FiniteStateMachine {
    + FiniteStateMachine(startState:System.Type, states:BaseState[])
    + OnUpdate() : void
    + OnFixedUpdate() : void
    + OnLateUpdate() : void
    + SwitchState(newStateStype:System.Type) : void
    + DebugCurrentState() : void
}
@enduml

PlantUML version 1.2020.02(Sun Mar 01 10:22:07 GMT 2020)
(GPL source distribution)
Java Runtime: OpenJDK Runtime Environment
JVM: OpenJDK 64-Bit Server VM
Java Version: 11.0.9+11-Ubuntu-0ubuntu1
Operating System: Linux
Default Encoding: ANSI_X3.4-1968
Language: en
Country: US
--></g></svg>