<?xml version="1.0" encoding="UTF-8" standalone="no"?><svg xmlns="http://www.w3.org/2000/svg" xmlns:xlink="http://www.w3.org/1999/xlink" contentScriptType="application/ecmascript" contentStyleType="text/css" height="296px" preserveAspectRatio="none" style="width:344px;height:296px;" version="1.1" viewBox="0 0 344 296" width="344px" zoomAndPan="magnify"><defs><filter height="300%" id="f18454w301s7x3" width="300%" x="-1" y="-1"><feGaussianBlur result="blurOut" stdDeviation="2.0"/><feColorMatrix in="blurOut" result="blurOut2" type="matrix" values="0 0 0 0 0 0 0 0 0 0 0 0 0 0 0 0 0 0 .4 0"/><feOffset dx="4.0" dy="4.0" in="blurOut2" result="blurOut3"/><feBlend in="SourceGraphic" in2="blurOut3" mode="normal"/></filter></defs><g><!--MD5=[d74399eee2e0ed783cf2f6f8737b0172]
class GameStateManager--><rect fill="#FEFECE" filter="url(#f18454w301s7x3)" height="60.8047" id="GameStateManager" style="stroke: #A80036; stroke-width: 1.5;" width="243" x="27.91" y="116"/><ellipse cx="82.66" cy="132" fill="#ADD1B2" rx="11" ry="11" style="stroke: #A80036; stroke-width: 1.0;"/><path d="M85.6288,137.6406 Q85.0506,137.9375 84.41,138.0781 Q83.7694,138.2344 83.0663,138.2344 Q80.5663,138.2344 79.2381,136.5938 Q77.9256,134.9375 77.9256,131.8125 Q77.9256,128.6875 79.2381,127.0313 Q80.5663,125.375 83.0663,125.375 Q83.7694,125.375 84.41,125.5313 Q85.0663,125.6875 85.6288,125.9844 L85.6288,128.7031 Q85.0038,128.125 84.41,127.8594 Q83.8163,127.5781 83.1913,127.5781 Q81.8475,127.5781 81.16,128.6563 Q80.4725,129.7188 80.4725,131.8125 Q80.4725,133.9063 81.16,134.9844 Q81.8475,136.0469 83.1913,136.0469 Q83.8163,136.0469 84.41,135.7813 Q85.0038,135.5 85.6288,134.9219 L85.6288,137.6406 Z "/><text fill="#000000" font-family="sans-serif" font-size="12" lengthAdjust="spacingAndGlyphs" textLength="125" x="103.16" y="136.1543">GameStateManager</text><line style="stroke: #A80036; stroke-width: 1.5;" x1="28.91" x2="269.91" y1="148" y2="148"/><line style="stroke: #A80036; stroke-width: 1.5;" x1="28.91" x2="269.91" y1="156" y2="156"/><ellipse cx="38.91" cy="167" fill="#84BE84" rx="3" ry="3" style="stroke: #038048; stroke-width: 1.0;"/><text fill="#000000" font-family="sans-serif" font-size="11" lengthAdjust="spacingAndGlyphs" textLength="217" x="47.91" y="170.2104">SwitchState(state:System.Type) : void</text><!--MD5=[83b3cf3d23d77c6f1e1b5291a241bc2a]
class MonoBehaviour--><rect fill="#FEFECE" filter="url(#f18454w301s7x3)" height="48" id="MonoBehaviour" style="stroke: #A80036; stroke-width: 1.5;" width="128" x="85.41" y="8"/><ellipse cx="100.41" cy="24" fill="#ADD1B2" rx="11" ry="11" style="stroke: #A80036; stroke-width: 1.0;"/><path d="M103.3788,29.6406 Q102.8006,29.9375 102.16,30.0781 Q101.5194,30.2344 100.8163,30.2344 Q98.3163,30.2344 96.9881,28.5938 Q95.6756,26.9375 95.6756,23.8125 Q95.6756,20.6875 96.9881,19.0313 Q98.3163,17.375 100.8163,17.375 Q101.5194,17.375 102.16,17.5313 Q102.8163,17.6875 103.3788,17.9844 L103.3788,20.7031 Q102.7538,20.125 102.16,19.8594 Q101.5663,19.5781 100.9413,19.5781 Q99.5975,19.5781 98.91,20.6563 Q98.2225,21.7188 98.2225,23.8125 Q98.2225,25.9063 98.91,26.9844 Q99.5975,28.0469 100.9413,28.0469 Q101.5663,28.0469 102.16,27.7813 Q102.7538,27.5 103.3788,26.9219 L103.3788,29.6406 Z "/><text fill="#000000" font-family="sans-serif" font-size="12" lengthAdjust="spacingAndGlyphs" textLength="96" x="114.41" y="28.1543">MonoBehaviour</text><line style="stroke: #A80036; stroke-width: 1.5;" x1="86.41" x2="212.41" y1="40" y2="40"/><line style="stroke: #A80036; stroke-width: 1.5;" x1="86.41" x2="212.41" y1="48" y2="48"/><!--MD5=[ced70c4db88c0caf8c044d862484d7f7]
class BaseState--><rect fill="#FEFECE" filter="url(#f18454w301s7x3)" height="48" id="BaseState" style="stroke: #A80036; stroke-width: 1.5;" width="97" x="20.91" y="237"/><ellipse cx="35.91" cy="253" fill="#ADD1B2" rx="11" ry="11" style="stroke: #A80036; stroke-width: 1.0;"/><path d="M38.8788,258.6406 Q38.3006,258.9375 37.66,259.0781 Q37.0194,259.2344 36.3163,259.2344 Q33.8163,259.2344 32.4881,257.5938 Q31.1756,255.9375 31.1756,252.8125 Q31.1756,249.6875 32.4881,248.0313 Q33.8163,246.375 36.3163,246.375 Q37.0194,246.375 37.66,246.5313 Q38.3163,246.6875 38.8788,246.9844 L38.8788,249.7031 Q38.2538,249.125 37.66,248.8594 Q37.0663,248.5781 36.4413,248.5781 Q35.0975,248.5781 34.41,249.6563 Q33.7225,250.7188 33.7225,252.8125 Q33.7225,254.9063 34.41,255.9844 Q35.0975,257.0469 36.4413,257.0469 Q37.0663,257.0469 37.66,256.7813 Q38.2538,256.5 38.8788,255.9219 L38.8788,258.6406 Z "/><text fill="#000000" font-family="sans-serif" font-size="12" lengthAdjust="spacingAndGlyphs" textLength="65" x="49.91" y="257.1543">BaseState</text><line style="stroke: #A80036; stroke-width: 1.5;" x1="21.91" x2="116.91" y1="269" y2="269"/><line style="stroke: #A80036; stroke-width: 1.5;" x1="21.91" x2="116.91" y1="277" y2="277"/><!--MD5=[4a8513aeedabc1398a53b507291099b6]
class FiniteStateMachine--><rect fill="#FEFECE" filter="url(#f18454w301s7x3)" height="48" id="FiniteStateMachine" style="stroke: #A80036; stroke-width: 1.5;" width="152" x="153.41" y="237"/><ellipse cx="168.41" cy="253" fill="#ADD1B2" rx="11" ry="11" style="stroke: #A80036; stroke-width: 1.0;"/><path d="M171.3788,258.6406 Q170.8006,258.9375 170.16,259.0781 Q169.5194,259.2344 168.8163,259.2344 Q166.3163,259.2344 164.9881,257.5938 Q163.6756,255.9375 163.6756,252.8125 Q163.6756,249.6875 164.9881,248.0313 Q166.3163,246.375 168.8163,246.375 Q169.5194,246.375 170.16,246.5313 Q170.8163,246.6875 171.3788,246.9844 L171.3788,249.7031 Q170.7538,249.125 170.16,248.8594 Q169.5663,248.5781 168.9413,248.5781 Q167.5975,248.5781 166.91,249.6563 Q166.2225,250.7188 166.2225,252.8125 Q166.2225,254.9063 166.91,255.9844 Q167.5975,257.0469 168.9413,257.0469 Q169.5663,257.0469 170.16,256.7813 Q170.7538,256.5 171.3788,255.9219 L171.3788,258.6406 Z "/><text fill="#000000" font-family="sans-serif" font-size="12" lengthAdjust="spacingAndGlyphs" textLength="120" x="182.41" y="257.1543">FiniteStateMachine</text><line style="stroke: #A80036; stroke-width: 1.5;" x1="154.41" x2="304.41" y1="269" y2="269"/><line style="stroke: #A80036; stroke-width: 1.5;" x1="154.41" x2="304.41" y1="277" y2="277"/><!--MD5=[a74a95dbee6aa9b7c8a52fbe51fd978e]
reverse link MonoBehaviour to GameStateManager--><path d="M149.41,76.11 C149.41,89.31 149.41,103.54 149.41,115.65 " fill="none" id="MonoBehaviour&lt;-GameStateManager" style="stroke: #A80036; stroke-width: 1.0;"/><polygon fill="none" points="142.41,76.04,149.41,56.04,156.41,76.04,142.41,76.04" style="stroke: #A80036; stroke-width: 1.0;"/><!--MD5=[ebc2ca7a0385e6a9f3eb1e7c0d5b6f71]
link GameStateManager to BaseState--><path d="M128.39,177.06 C116.19,194.22 100.91,215.7 88.96,232.5 " fill="none" id="GameStateManager-&gt;BaseState" style="stroke: #A80036; stroke-width: 1.0;"/><polygon fill="#A80036" points="86,236.67,94.4711,231.6461,88.894,232.5927,87.9474,227.0156,86,236.67" style="stroke: #A80036; stroke-width: 1.0;"/><text fill="#000000" font-family="sans-serif" font-size="13" lengthAdjust="spacingAndGlyphs" textLength="65" x="17.1219" y="225.9945">startState</text><!--MD5=[52ab9c717bcafcdcda8d4dac2e26a74c]
link GameStateManager to FiniteStateMachine--><path d="M170.43,177.06 C182.63,194.22 197.91,215.7 209.86,232.5 " fill="none" id="GameStateManager-&gt;FiniteStateMachine" style="stroke: #A80036; stroke-width: 1.0;"/><polygon fill="#A80036" points="212.82,236.67,210.8726,227.0156,209.926,232.5927,204.3489,231.6461,212.82,236.67" style="stroke: #A80036; stroke-width: 1.0;"/><text fill="#000000" font-family="sans-serif" font-size="13" lengthAdjust="spacingAndGlyphs" textLength="24" x="181.8512" y="225.9945">fsm</text><!--MD5=[63e34b623a79fcddddfb5266c999f30e]
link GameStateManager to GameStateManager--><path d="M271.13,126.59 C291.69,129.34 305.91,135.98 305.91,146.5 C305.91,156.12 294.03,162.49 276.29,165.61 " fill="none" id="GameStateManager-&gt;GameStateManager" style="stroke: #A80036; stroke-width: 1.0;"/><polygon fill="#A80036" points="271.13,166.41,280.6319,169.0012,276.0724,165.6529,279.4206,161.0934,271.13,166.41" style="stroke: #A80036; stroke-width: 1.0;"/><text fill="#000000" font-family="sans-serif" font-size="13" lengthAdjust="spacingAndGlyphs" textLength="54" x="278.7984" y="164.1252">Instance</text><!--MD5=[58520051de4c12bc8a7750fa8f40e2eb]
@startuml
class GameStateManager {
    + SwitchState(state:System.Type) : void
}
MonoBehaviour <|- - GameStateManager
GameStateManager - -> "startState" BaseState
GameStateManager - -> "fsm" FiniteStateMachine
GameStateManager - -> "Instance" GameStateManager
@enduml

PlantUML version 1.2020.02(Sun Mar 01 10:22:07 GMT 2020)
(GPL source distribution)
Java Runtime: OpenJDK Runtime Environment
JVM: OpenJDK 64-Bit Server VM
Java Version: 11.0.9+11-Ubuntu-0ubuntu1
Operating System: Linux
Default Encoding: ANSI_X3.4-1968
Language: en
Country: US
--></g></svg>