# This file uses centimeters as units for non-parametric coordinates.

mtllib Arrow.mtl
g default
v 0.951057 8.996145 -0.309017
v 0.809018 8.996145 -0.587786
v 0.587786 8.996145 -0.809018
v 0.309017 8.996145 -0.951057
v 0.000000 8.996145 -1.000000
v -0.309017 8.996145 -0.951057
v -0.587785 8.996145 -0.809018
v -0.809017 8.996145 -0.587786
v -0.951057 8.996145 -0.309017
v -1.000000 8.996145 0.000000
v -0.951057 8.996145 0.309017
v -0.809017 8.996145 0.587785
v -0.587785 8.996145 0.809017
v -0.309017 8.996145 0.951057
v -0.000000 8.996145 1.000000
v 0.309017 8.996145 0.951057
v 0.587785 8.996145 0.809017
v 0.809017 8.996145 0.587785
v 0.951057 8.996145 0.309017
v 1.000000 8.996145 0.000000
v 0.000000 10.996147 0.000000
v 0.435969 8.996145 -0.141656
v 0.370857 8.996145 -0.269445
v 0.269445 8.996145 -0.370857
v 0.141656 8.996145 -0.435970
v -0.000000 8.996145 -0.458406
v -0.141656 8.996145 -0.435970
v -0.269445 8.996145 -0.370857
v -0.370857 8.996145 -0.269445
v -0.435969 8.996145 -0.141656
v -0.458406 8.996145 -0.000000
v -0.435969 8.996145 0.141656
v -0.370857 8.996145 0.269445
v -0.269445 8.996145 0.370857
v -0.141656 8.996145 0.435969
v -0.000000 8.996145 0.458406
v 0.141656 8.996145 0.435969
v 0.269445 8.996145 0.370857
v 0.370857 8.996145 0.269445
v 0.435969 8.996145 0.141656
v 0.458406 8.996145 -0.000000
v 0.435969 -0.000000 -0.141656
v 0.370857 -0.000000 -0.269445
v -0.000000 0.000000 -0.000000
v 0.269445 -0.000000 -0.370857
v 0.141656 -0.000000 -0.435970
v -0.000000 -0.000000 -0.458406
v -0.141656 -0.000000 -0.435970
v -0.269445 -0.000000 -0.370857
v -0.370857 -0.000000 -0.269445
v -0.435969 -0.000000 -0.141656
v -0.458406 -0.000000 -0.000000
v -0.435969 -0.000000 0.141656
v -0.370857 -0.000000 0.269445
v -0.269445 -0.000000 0.370857
v -0.141656 -0.000000 0.435969
v -0.000000 -0.000000 0.458406
v 0.141656 -0.000000 0.435969
v 0.269445 -0.000000 0.370857
v 0.370857 -0.000000 0.269445
v 0.435969 -0.000000 0.141656
v 0.458406 -0.000000 -0.000000
vt 0.250000 0.500000
vt 0.275000 0.500000
vt 0.300000 0.500000
vt 0.325000 0.500000
vt 0.350000 0.500000
vt 0.375000 0.500000
vt 0.400000 0.500000
vt 0.425000 0.500000
vt 0.450000 0.500000
vt 0.475000 0.500000
vt 0.500000 0.500000
vt 0.525000 0.500000
vt 0.550000 0.500000
vt 0.575000 0.500000
vt 0.600000 0.500000
vt 0.625000 0.500000
vt 0.650000 0.500000
vt 0.675000 0.500000
vt 0.700000 0.500000
vt 0.725000 0.500000
vt 0.750000 0.500000
vt 0.500000 1.000000
vt 0.000000 0.000000
vt 1.000000 0.000000
vt 1.000000 1.000000
vt 0.000000 1.000000
vt 0.000000 0.000000
vt 1.000000 0.000000
vt 1.000000 1.000000
vt 0.000000 1.000000
vt 0.000000 0.000000
vt 1.000000 0.000000
vt 1.000000 1.000000
vt 0.000000 1.000000
vt 0.000000 0.000000
vt 1.000000 0.000000
vt 1.000000 1.000000
vt 0.000000 1.000000
vt 0.000000 0.000000
vt 1.000000 0.000000
vt 1.000000 1.000000
vt 0.000000 1.000000
vt 0.000000 0.000000
vt 1.000000 0.000000
vt 1.000000 1.000000
vt 0.000000 1.000000
vt 0.000000 0.000000
vt 1.000000 0.000000
vt 1.000000 1.000000
vt 0.000000 1.000000
vt 0.000000 0.000000
vt 1.000000 0.000000
vt 1.000000 1.000000
vt 0.000000 1.000000
vt 0.000000 0.000000
vt 1.000000 0.000000
vt 1.000000 1.000000
vt 0.000000 1.000000
vt 0.000000 0.000000
vt 1.000000 0.000000
vt 1.000000 1.000000
vt 0.000000 1.000000
vt 0.000000 0.000000
vt 1.000000 0.000000
vt 1.000000 1.000000
vt 0.000000 1.000000
vt 0.000000 0.000000
vt 1.000000 0.000000
vt 1.000000 1.000000
vt 0.000000 1.000000
vt 0.000000 0.000000
vt 1.000000 0.000000
vt 1.000000 1.000000
vt 0.000000 1.000000
vt 0.000000 0.000000
vt 1.000000 0.000000
vt 1.000000 1.000000
vt 0.000000 1.000000
vt 0.000000 0.000000
vt 1.000000 0.000000
vt 1.000000 1.000000
vt 0.000000 1.000000
vt 0.000000 0.000000
vt 1.000000 0.000000
vt 1.000000 1.000000
vt 0.000000 1.000000
vt 0.000000 0.000000
vt 1.000000 0.000000
vt 1.000000 1.000000
vt 0.000000 1.000000
vt 0.000000 0.000000
vt 1.000000 0.000000
vt 1.000000 1.000000
vt 0.000000 1.000000
vt 0.000000 0.000000
vt 1.000000 0.000000
vt 1.000000 1.000000
vt 0.000000 1.000000
vt 0.000000 0.000000
vt 1.000000 0.000000
vt 1.000000 1.000000
vt 0.000000 1.000000
vt 0.000000 0.000000
vt 1.000000 0.000000
vt 0.500000 1.000000
vt 0.000000 0.000000
vt 1.000000 0.000000
vt 0.500000 1.000000
vt 0.000000 0.000000
vt 1.000000 0.000000
vt 0.500000 1.000000
vt 0.000000 0.000000
vt 1.000000 0.000000
vt 0.500000 1.000000
vt 0.000000 0.000000
vt 1.000000 0.000000
vt 0.500000 1.000000
vt 0.000000 0.000000
vt 1.000000 0.000000
vt 0.500000 1.000000
vt 0.000000 0.000000
vt 1.000000 0.000000
vt 0.500000 1.000000
vt 0.000000 0.000000
vt 1.000000 0.000000
vt 0.500000 1.000000
vt 0.000000 0.000000
vt 1.000000 0.000000
vt 0.500000 1.000000
vt 0.000000 0.000000
vt 1.000000 0.000000
vt 0.500000 1.000000
vt 0.000000 0.000000
vt 1.000000 0.000000
vt 0.500000 1.000000
vt 0.000000 0.000000
vt 1.000000 0.000000
vt 0.500000 1.000000
vt 0.000000 0.000000
vt 1.000000 0.000000
vt 0.500000 1.000000
vt 0.000000 0.000000
vt 1.000000 0.000000
vt 0.500000 1.000000
vt 0.000000 0.000000
vt 1.000000 0.000000
vt 0.500000 1.000000
vt 0.000000 0.000000
vt 1.000000 0.000000
vt 0.500000 1.000000
vt 0.000000 0.000000
vt 1.000000 0.000000
vt 0.500000 1.000000
vt 0.000000 0.000000
vt 1.000000 0.000000
vt 0.500000 1.000000
vt 0.000000 0.000000
vt 1.000000 0.000000
vt 0.500000 1.000000
vt 0.000000 0.000000
vt 1.000000 0.000000
vt 0.500000 1.000000
vt 0.000000 0.000000
vt 1.000000 0.000000
vt 0.000000 0.000000
vt 1.000000 0.000000
vt 0.000000 0.000000
vt 1.000000 0.000000
vt 0.000000 0.000000
vt 1.000000 0.000000
vt 0.000000 0.000000
vt 1.000000 0.000000
vt 0.000000 0.000000
vt 1.000000 0.000000
vt 0.000000 0.000000
vt 1.000000 0.000000
vt 0.000000 0.000000
vt 1.000000 0.000000
vt 0.000000 0.000000
vt 1.000000 0.000000
vt 0.000000 0.000000
vt 1.000000 0.000000
vt 0.000000 0.000000
vt 1.000000 0.000000
vt 0.000000 0.000000
vt 1.000000 0.000000
vt 0.000000 0.000000
vt 1.000000 0.000000
vt 0.000000 0.000000
vt 1.000000 0.000000
vt 0.000000 0.000000
vt 1.000000 0.000000
vt 0.000000 0.000000
vt 1.000000 0.000000
vt 0.000000 0.000000
vt 1.000000 0.000000
vt 0.000000 0.000000
vt 1.000000 0.000000
vt 0.000000 0.000000
vt 1.000000 0.000000
vt 0.000000 0.000000
vt 1.000000 0.000000
vn 0.850651 0.447214 -0.276391
vn 0.723607 0.447214 -0.525731
vn -0.000000 1.000000 -0.000000
vn 0.525731 0.447213 -0.723607
vn 0.276393 0.447213 -0.850651
vn -0.000000 0.447214 -0.894427
vn -0.276393 0.447213 -0.850651
vn -0.525732 0.447214 -0.723606
vn -0.723607 0.447213 -0.525731
vn -0.850651 0.447213 -0.276393
vn -0.894427 0.447213 0.000000
vn -0.850652 0.447214 0.276391
vn -0.723607 0.447213 0.525731
vn -0.525731 0.447213 0.723607
vn -0.276393 0.447213 0.850651
vn 0.000000 0.447213 0.894427
vn 0.276393 0.447213 0.850651
vn 0.525731 0.447213 0.723607
vn 0.723607 0.447213 0.525731
vn 0.850651 0.447213 0.276393
vn 0.894427 0.447213 0.000001
vn 0.000000 -1.000000 0.000000
vn 0.000000 -1.000000 0.000000
vn 0.000000 -1.000000 0.000000
vn 0.000000 -1.000000 0.000000
vn 0.000000 -1.000000 0.000002
vn 0.000000 -1.000000 0.000002
vn 0.000000 -1.000000 0.000002
vn 0.000000 -1.000000 0.000002
vn 0.000000 -1.000000 0.000001
vn 0.000000 -1.000000 0.000001
vn 0.000000 -1.000000 0.000001
vn 0.000000 -1.000000 0.000001
vn 0.000000 -1.000000 -0.000001
vn 0.000000 -1.000000 -0.000001
vn 0.000000 -1.000000 -0.000001
vn 0.000000 -1.000000 -0.000001
vn 0.000000 -1.000000 -0.000001
vn 0.000000 -1.000000 -0.000001
vn 0.000000 -1.000000 -0.000001
vn 0.000000 -1.000000 -0.000001
vn 0.000000 -1.000000 -0.000002
vn 0.000000 -1.000000 -0.000002
vn 0.000000 -1.000000 -0.000002
vn 0.000000 -1.000000 -0.000002
vn 0.000000 -1.000000 0.000000
vn 0.000000 -1.000000 0.000000
vn 0.000000 -1.000000 0.000000
vn 0.000000 -1.000000 0.000000
vn 0.000000 -1.000000 0.000000
vn 0.000000 -1.000000 0.000000
vn 0.000000 -1.000000 0.000000
vn 0.000000 -1.000000 0.000000
vn 0.000000 -1.000000 0.000000
vn 0.000000 -1.000000 0.000000
vn 0.000000 -1.000000 0.000000
vn 0.000000 -1.000000 0.000000
vn 0.000000 -1.000000 0.000000
vn 0.000000 -1.000000 0.000000
vn 0.000000 -1.000000 0.000000
vn 0.000000 -1.000000 0.000000
vn 0.000000 -1.000000 -0.000002
vn 0.000000 -1.000000 -0.000002
vn 0.000000 -1.000000 -0.000002
vn 0.000000 -1.000000 -0.000002
vn 0.000000 -1.000000 0.000000
vn 0.000000 -1.000000 0.000000
vn 0.000000 -1.000000 0.000000
vn 0.000000 -1.000000 0.000000
vn 0.000000 -1.000000 0.000000
vn 0.000000 -1.000000 0.000000
vn 0.000000 -1.000000 0.000000
vn 0.000000 -1.000000 0.000000
vn 0.000000 -1.000000 -0.000001
vn 0.000000 -1.000000 -0.000001
vn 0.000000 -1.000000 -0.000001
vn 0.000000 -1.000000 -0.000001
vn 0.000000 -1.000000 0.000000
vn 0.000000 -1.000000 0.000000
vn 0.000000 -1.000000 0.000000
vn 0.000000 -1.000000 0.000000
vn 0.000000 -1.000000 0.000004
vn 0.000000 -1.000000 0.000004
vn 0.000000 -1.000000 0.000004
vn 0.000000 -1.000000 0.000004
vn 0.000000 -1.000000 0.000000
vn 0.000000 -1.000000 0.000000
vn 0.000000 -1.000000 0.000000
vn 0.000000 -1.000000 0.000000
vn 0.000000 -1.000000 0.000000
vn 0.000000 -1.000000 0.000000
vn 0.000000 -1.000000 0.000000
vn 0.000000 -1.000000 0.000000
vn 0.000000 -1.000000 0.000000
vn 0.000000 -1.000000 0.000000
vn 0.000000 -1.000000 0.000000
vn 0.000000 -1.000000 0.000000
vn 0.000000 -1.000000 0.000000
vn 0.000000 -1.000000 0.000000
vn 0.000000 -1.000000 0.000000
vn 0.000000 -1.000000 0.000000
vn -0.000001 -1.000000 0.000000
vn -0.000001 -1.000000 0.000000
vn -0.000001 -1.000000 0.000000
vn -0.000001 -1.000000 0.000001
vn -0.000001 -1.000000 0.000001
vn -0.000001 -1.000000 0.000001
vn -0.000000 -1.000000 0.000001
vn -0.000000 -1.000000 0.000001
vn -0.000000 -1.000000 0.000001
vn -0.000000 -1.000000 0.000001
vn -0.000000 -1.000000 0.000001
vn -0.000000 -1.000000 0.000001
vn 0.000000 -1.000000 0.000001
vn 0.000000 -1.000000 0.000001
vn 0.000000 -1.000000 0.000001
vn 0.000000 -1.000000 0.000001
vn 0.000000 -1.000000 0.000001
vn 0.000000 -1.000000 0.000001
vn 0.000001 -1.000000 0.000001
vn 0.000001 -1.000000 0.000001
vn 0.000001 -1.000000 0.000001
vn 0.000001 -1.000000 0.000000
vn 0.000001 -1.000000 0.000000
vn 0.000001 -1.000000 0.000000
vn 0.000001 -1.000000 0.000000
vn 0.000001 -1.000000 0.000000
vn 0.000001 -1.000000 0.000000
vn 0.000001 -1.000000 -0.000000
vn 0.000001 -1.000000 -0.000000
vn 0.000001 -1.000000 -0.000000
vn 0.000001 -1.000000 -0.000000
vn 0.000001 -1.000000 -0.000000
vn 0.000001 -1.000000 -0.000000
vn 0.000001 -1.000000 -0.000001
vn 0.000001 -1.000000 -0.000001
vn 0.000001 -1.000000 -0.000001
vn 0.000000 -1.000000 -0.000001
vn 0.000000 -1.000000 -0.000001
vn 0.000000 -1.000000 -0.000001
vn 0.000000 -1.000000 -0.000001
vn 0.000000 -1.000000 -0.000001
vn 0.000000 -1.000000 -0.000001
vn -0.000000 -1.000000 -0.000001
vn -0.000000 -1.000000 -0.000001
vn -0.000000 -1.000000 -0.000001
vn -0.000000 -1.000000 -0.000001
vn -0.000000 -1.000000 -0.000001
vn -0.000000 -1.000000 -0.000001
vn -0.000001 -1.000000 -0.000001
vn -0.000001 -1.000000 -0.000001
vn -0.000001 -1.000000 -0.000001
vn -0.000001 -1.000000 -0.000000
vn -0.000001 -1.000000 -0.000000
vn -0.000001 -1.000000 -0.000000
vn -0.000001 -1.000000 -0.000000
vn -0.000001 -1.000000 -0.000000
vn -0.000001 -1.000000 -0.000000
vn -0.000001 -1.000000 0.000000
vn -0.000001 -1.000000 0.000000
vn -0.000001 -1.000000 0.000000
vn 0.809017 0.000000 -0.587785
vn 0.951056 0.000000 -0.309018
vn 0.951056 0.000000 -0.309018
vn 0.809017 0.000000 -0.587785
vn 0.587785 0.000000 -0.809017
vn 0.587785 0.000000 -0.809017
vn 0.309019 0.000000 -0.951056
vn 0.309019 0.000000 -0.951056
vn -0.000000 0.000000 -1.000000
vn -0.000000 0.000000 -1.000000
vn -0.309019 0.000000 -0.951056
vn -0.309019 0.000000 -0.951056
vn -0.587785 0.000000 -0.809017
vn -0.587785 0.000000 -0.809017
vn -0.809017 0.000000 -0.587785
vn -0.809017 0.000000 -0.587785
vn -0.951056 0.000000 -0.309019
vn -0.951056 0.000000 -0.309019
vn -1.000000 0.000000 0.000000
vn -1.000000 0.000000 0.000000
vn -0.951056 0.000000 0.309019
vn -0.951056 0.000000 0.309019
vn -0.809017 0.000000 0.587785
vn -0.809017 0.000000 0.587785
vn -0.587785 0.000000 0.809017
vn -0.587785 0.000000 0.809017
vn -0.309019 0.000000 0.951056
vn -0.309019 0.000000 0.951056
vn 0.000000 0.000000 1.000000
vn 0.000000 0.000000 1.000000
vn 0.309019 0.000000 0.951056
vn 0.309019 0.000000 0.951056
vn 0.587785 0.000000 0.809017
vn 0.587785 0.000000 0.809017
vn 0.809017 0.000000 0.587785
vn 0.809017 0.000000 0.587785
vn 0.951056 0.000000 0.309019
vn 0.951056 0.000000 0.309019
vn 1.000000 0.000000 0.000001
vn 1.000000 0.000000 0.000001
s 1
g pCone1
usemtl initialShadingGroup
f 1/1/1 2/2/2 21/22/3
f 2/2/2 3/3/4 21/22/3
f 3/3/4 4/4/5 21/22/3
f 4/4/5 5/5/6 21/22/3
f 5/5/6 6/6/7 21/22/3
f 6/6/7 7/7/8 21/22/3
f 7/7/8 8/8/9 21/22/3
f 8/8/9 9/9/10 21/22/3
f 9/9/10 10/10/11 21/22/3
f 10/10/11 11/11/12 21/22/3
f 11/11/12 12/12/13 21/22/3
f 12/12/13 13/13/14 21/22/3
f 13/13/14 14/14/15 21/22/3
f 14/14/15 15/15/16 21/22/3
f 15/15/16 16/16/17 21/22/3
f 16/16/17 17/17/18 21/22/3
f 17/17/18 18/18/19 21/22/3
f 18/18/19 19/19/20 21/22/3
f 19/19/20 20/20/21 21/22/3
f 20/20/21 1/21/1 21/22/3
s off
f 2/23/22 1/24/23 22/25/24 23/26/25
f 3/27/26 2/28/27 23/29/28 24/30/29
f 4/31/30 3/32/31 24/33/32 25/34/33
f 5/35/34 4/36/35 25/37/36 26/38/37
f 6/39/38 5/40/39 26/41/40 27/42/41
f 7/43/42 6/44/43 27/45/44 28/46/45
f 8/47/46 7/48/47 28/49/48 29/50/49
f 9/51/50 8/52/51 29/53/52 30/54/53
f 10/55/54 9/56/55 30/57/56 31/58/57
f 11/59/58 10/60/59 31/61/60 32/62/61
f 12/63/62 11/64/63 32/65/64 33/66/65
f 13/67/66 12/68/67 33/69/68 34/70/69
f 14/71/70 13/72/71 34/73/72 35/74/73
f 15/75/74 14/76/75 35/77/76 36/78/77
f 16/79/78 15/80/79 36/81/80 37/82/81
f 17/83/82 16/84/83 37/85/84 38/86/85
f 18/87/86 17/88/87 38/89/88 39/90/89
f 19/91/90 18/92/91 39/93/92 40/94/93
f 20/95/94 19/96/95 40/97/96 41/98/97
f 1/99/98 20/100/99 41/101/100 22/102/101
f 43/163/102 42/164/103 44/105/104
f 45/165/105 43/166/106 44/108/107
f 46/167/108 45/168/109 44/111/110
f 47/169/111 46/170/112 44/114/113
f 48/171/114 47/172/115 44/117/116
f 49/173/117 48/174/118 44/120/119
f 50/175/120 49/176/121 44/123/122
f 51/177/123 50/178/124 44/126/125
f 52/179/126 51/180/127 44/129/128
f 53/181/129 52/182/130 44/132/131
f 54/183/132 53/184/133 44/135/134
f 55/185/135 54/186/136 44/138/137
f 56/187/138 55/188/139 44/141/140
f 57/189/141 56/190/142 44/144/143
f 58/191/144 57/192/145 44/147/146
f 59/193/147 58/194/148 44/150/149
f 60/195/150 59/196/151 44/153/152
f 61/197/153 60/198/154 44/156/155
f 62/199/156 61/200/157 44/159/158
f 42/201/159 62/202/160 44/162/161
s 2
f 23/103/162 22/104/163 42/164/164 43/163/165
f 24/106/166 23/107/162 43/166/165 45/165/167
f 25/109/168 24/110/166 45/168/167 46/167/169
f 26/112/170 25/113/168 46/170/169 47/169/171
f 27/115/172 26/116/170 47/172/171 48/171/173
f 28/118/174 27/119/172 48/174/173 49/173/175
f 29/121/176 28/122/174 49/176/175 50/175/177
f 30/124/178 29/125/176 50/178/177 51/177/179
f 31/127/180 30/128/178 51/180/179 52/179/181
f 32/130/182 31/131/180 52/182/181 53/181/183
f 33/133/184 32/134/182 53/184/183 54/183/185
f 34/136/186 33/137/184 54/186/185 55/185/187
f 35/139/188 34/140/186 55/188/187 56/187/189
f 36/142/190 35/143/188 56/190/189 57/189/191
f 37/145/192 36/146/190 57/192/191 58/191/193
f 38/148/194 37/149/192 58/194/193 59/193/195
f 39/151/196 38/152/194 59/196/195 60/195/197
f 40/154/198 39/155/196 60/198/197 61/197/199
f 41/157/200 40/158/198 61/200/199 62/199/201
f 22/160/163 41/161/200 62/202/201 42/201/164
