<?xml version="1.0" encoding="UTF-8" standalone="no"?><svg xmlns="http://www.w3.org/2000/svg" xmlns:xlink="http://www.w3.org/1999/xlink" contentScriptType="application/ecmascript" contentStyleType="text/css" height="449px" preserveAspectRatio="none" style="width:1022px;height:449px;" version="1.1" viewBox="0 0 1022 449" width="1022px" zoomAndPan="magnify"><defs><filter height="300%" id="fxg2upq40w70x" width="300%" x="-1" y="-1"><feGaussianBlur result="blurOut" stdDeviation="2.0"/><feColorMatrix in="blurOut" result="blurOut2" type="matrix" values="0 0 0 0 0 0 0 0 0 0 0 0 0 0 0 0 0 0 .4 0"/><feOffset dx="4.0" dy="4.0" in="blurOut2" result="blurOut3"/><feBlend in="SourceGraphic" in2="blurOut3" mode="normal"/></filter></defs><g><!--MD5=[4b83d9df387235491124e195a00c9d86]
class DataPersistenceManager--><rect fill="#FEFECE" filter="url(#fxg2upq40w70x)" height="214.4609" id="DataPersistenceManager" style="stroke: #A80036; stroke-width: 1.5;" width="419" x="317.11" y="116"/><ellipse cx="442.86" cy="132" fill="#ADD1B2" rx="11" ry="11" style="stroke: #A80036; stroke-width: 1.0;"/><path d="M445.8288,137.6406 Q445.2506,137.9375 444.61,138.0781 Q443.9694,138.2344 443.2663,138.2344 Q440.7663,138.2344 439.4381,136.5938 Q438.1256,134.9375 438.1256,131.8125 Q438.1256,128.6875 439.4381,127.0313 Q440.7663,125.375 443.2663,125.375 Q443.9694,125.375 444.61,125.5313 Q445.2663,125.6875 445.8288,125.9844 L445.8288,128.7031 Q445.2038,128.125 444.61,127.8594 Q444.0163,127.5781 443.3913,127.5781 Q442.0475,127.5781 441.36,128.6563 Q440.6725,129.7188 440.6725,131.8125 Q440.6725,133.9063 441.36,134.9844 Q442.0475,136.0469 443.3913,136.0469 Q444.0163,136.0469 444.61,135.7813 Q445.2038,135.5 445.8288,134.9219 L445.8288,137.6406 Z "/><text fill="#000000" font-family="sans-serif" font-size="12" lengthAdjust="spacingAndGlyphs" textLength="159" x="463.36" y="136.1543">DataPersistenceManager</text><line style="stroke: #A80036; stroke-width: 1.5;" x1="318.11" x2="735.11" y1="148" y2="148"/><text fill="#000000" font-family="sans-serif" font-size="11" lengthAdjust="spacingAndGlyphs" textLength="132" x="337.11" y="162.2104">currentFile : string = ""</text><text fill="#000000" font-family="sans-serif" font-size="11" lengthAdjust="spacingAndGlyphs" textLength="81" x="337.11" y="175.0151">isSaved : bool</text><ellipse cx="328.11" cy="184.6094" fill="none" rx="3" ry="3" style="stroke: #038048; stroke-width: 1.0;"/><text fill="#000000" font-family="sans-serif" font-size="11" lengthAdjust="spacingAndGlyphs" text-decoration="underline" textLength="80" x="337.11" y="187.8198">didLoad : bool</text><line style="stroke: #A80036; stroke-width: 1.5;" x1="318.11" x2="735.11" y1="194.4141" y2="194.4141"/><ellipse cx="328.11" cy="205.4141" fill="#84BE84" rx="3" ry="3" style="stroke: #038048; stroke-width: 1.0;"/><text fill="#000000" font-family="sans-serif" font-size="11" lengthAdjust="spacingAndGlyphs" textLength="86" x="337.11" y="208.6245">NewFile() : void</text><ellipse cx="328.11" cy="218.2188" fill="#84BE84" rx="3" ry="3" style="stroke: #038048; stroke-width: 1.0;"/><text fill="#000000" font-family="sans-serif" font-size="11" lengthAdjust="spacingAndGlyphs" textLength="89" x="337.11" y="221.4292">LoadFile() : void</text><ellipse cx="328.11" cy="231.0234" fill="#84BE84" rx="3" ry="3" style="stroke: #038048; stroke-width: 1.0;"/><text fill="#000000" font-family="sans-serif" font-size="11" lengthAdjust="spacingAndGlyphs" textLength="90" x="337.11" y="234.2339">SaveFile() : void</text><ellipse cx="328.11" cy="243.8281" fill="#84BE84" rx="3" ry="3" style="stroke: #038048; stroke-width: 1.0;"/><text fill="#000000" font-family="sans-serif" font-size="11" lengthAdjust="spacingAndGlyphs" textLength="345" x="337.11" y="247.0386">AddDataPersistenceObject(objToAdd:IDataPersistence) : void</text><ellipse cx="328.11" cy="256.6328" fill="#84BE84" rx="3" ry="3" style="stroke: #038048; stroke-width: 1.0;"/><text fill="#000000" font-family="sans-serif" font-size="11" lengthAdjust="spacingAndGlyphs" textLength="393" x="337.11" y="259.8433">RemoveDataPersistenceObject(objToRemove:IDataPersistence) : void</text><text fill="#000000" font-family="sans-serif" font-size="11" lengthAdjust="spacingAndGlyphs" textLength="326" x="337.11" y="272.6479">FindAllDataPersistenceObjects() : List&lt;IDataPersistence&gt;</text><ellipse cx="328.11" cy="282.2422" fill="#84BE84" rx="3" ry="3" style="stroke: #038048; stroke-width: 1.0;"/><text fill="#000000" font-family="sans-serif" font-size="11" lengthAdjust="spacingAndGlyphs" textLength="212" x="337.11" y="285.4526">SetSavedState(saveState:bool) : void</text><ellipse cx="328.11" cy="295.0469" fill="#84BE84" rx="3" ry="3" style="stroke: #038048; stroke-width: 1.0;"/><text fill="#000000" font-family="sans-serif" font-size="11" lengthAdjust="spacingAndGlyphs" textLength="129" x="337.11" y="298.2573">GetSavedState() : bool</text><ellipse cx="328.11" cy="307.8516" fill="#84BE84" rx="3" ry="3" style="stroke: #038048; stroke-width: 1.0;"/><text fill="#000000" font-family="sans-serif" font-size="11" lengthAdjust="spacingAndGlyphs" textLength="183" x="337.11" y="311.062">SetFileName(name:string) : void</text><ellipse cx="328.11" cy="320.6563" fill="#84BE84" rx="3" ry="3" style="stroke: #038048; stroke-width: 1.0;"/><text fill="#000000" font-family="sans-serif" font-size="11" lengthAdjust="spacingAndGlyphs" textLength="125" x="337.11" y="323.8667">GetFileName() : string</text><!--MD5=[e644022de7dea015dd09463c37421447]
class List`1--><rect fill="#FEFECE" filter="url(#fxg2upq40w70x)" height="48" id="List`1" style="stroke: #A80036; stroke-width: 1.5;" width="78" x="231.61" y="390"/><ellipse cx="246.61" cy="406" fill="#ADD1B2" rx="11" ry="11" style="stroke: #A80036; stroke-width: 1.0;"/><path d="M249.5788,411.6406 Q249.0006,411.9375 248.36,412.0781 Q247.7194,412.2344 247.0163,412.2344 Q244.5163,412.2344 243.1881,410.5938 Q241.8756,408.9375 241.8756,405.8125 Q241.8756,402.6875 243.1881,401.0313 Q244.5163,399.375 247.0163,399.375 Q247.7194,399.375 248.36,399.5313 Q249.0163,399.6875 249.5788,399.9844 L249.5788,402.7031 Q248.9538,402.125 248.36,401.8594 Q247.7663,401.5781 247.1413,401.5781 Q245.7975,401.5781 245.11,402.6563 Q244.4225,403.7188 244.4225,405.8125 Q244.4225,407.9063 245.11,408.9844 Q245.7975,410.0469 247.1413,410.0469 Q247.7663,410.0469 248.36,409.7813 Q248.9538,409.5 249.5788,408.9219 L249.5788,411.6406 Z "/><text fill="#000000" font-family="sans-serif" font-size="12" lengthAdjust="spacingAndGlyphs" textLength="35" x="260.61" y="410.1543">List`1</text><rect fill="#FFFFFF" height="15.9688" style="stroke: #000000; stroke-width: 1.0; stroke-dasharray: 2.0,2.0;" width="9" x="303.61" y="387"/><text fill="#000000" font-family="sans-serif" font-size="12" font-style="italic" lengthAdjust="spacingAndGlyphs" textLength="7" x="304.61" y="399.1387">T</text><line style="stroke: #A80036; stroke-width: 1.5;" x1="232.61" x2="308.61" y1="422" y2="422"/><line style="stroke: #A80036; stroke-width: 1.5;" x1="232.61" x2="308.61" y1="430" y2="430"/><!--MD5=[da8c3974d335aac350241f92734c9c19]
class Queue`1--><rect fill="#FEFECE" filter="url(#fxg2upq40w70x)" height="48" id="Queue`1" style="stroke: #A80036; stroke-width: 1.5;" width="98" x="344.61" y="390"/><ellipse cx="359.61" cy="406" fill="#ADD1B2" rx="11" ry="11" style="stroke: #A80036; stroke-width: 1.0;"/><path d="M362.5788,411.6406 Q362.0006,411.9375 361.36,412.0781 Q360.7194,412.2344 360.0163,412.2344 Q357.5163,412.2344 356.1881,410.5938 Q354.8756,408.9375 354.8756,405.8125 Q354.8756,402.6875 356.1881,401.0313 Q357.5163,399.375 360.0163,399.375 Q360.7194,399.375 361.36,399.5313 Q362.0163,399.6875 362.5788,399.9844 L362.5788,402.7031 Q361.9538,402.125 361.36,401.8594 Q360.7663,401.5781 360.1413,401.5781 Q358.7975,401.5781 358.11,402.6563 Q357.4225,403.7188 357.4225,405.8125 Q357.4225,407.9063 358.11,408.9844 Q358.7975,410.0469 360.1413,410.0469 Q360.7663,410.0469 361.36,409.7813 Q361.9538,409.5 362.5788,408.9219 L362.5788,411.6406 Z "/><text fill="#000000" font-family="sans-serif" font-size="12" lengthAdjust="spacingAndGlyphs" textLength="55" x="373.61" y="410.1543">Queue`1</text><rect fill="#FFFFFF" height="15.9688" style="stroke: #000000; stroke-width: 1.0; stroke-dasharray: 2.0,2.0;" width="9" x="436.61" y="387"/><text fill="#000000" font-family="sans-serif" font-size="12" font-style="italic" lengthAdjust="spacingAndGlyphs" textLength="7" x="437.61" y="399.1387">T</text><line style="stroke: #A80036; stroke-width: 1.5;" x1="345.61" x2="441.61" y1="422" y2="422"/><line style="stroke: #A80036; stroke-width: 1.5;" x1="345.61" x2="441.61" y1="430" y2="430"/><!--MD5=[83b3cf3d23d77c6f1e1b5291a241bc2a]
class MonoBehaviour--><rect fill="#FEFECE" filter="url(#fxg2upq40w70x)" height="48" id="MonoBehaviour" style="stroke: #A80036; stroke-width: 1.5;" width="128" x="462.61" y="8"/><ellipse cx="477.61" cy="24" fill="#ADD1B2" rx="11" ry="11" style="stroke: #A80036; stroke-width: 1.0;"/><path d="M480.5788,29.6406 Q480.0006,29.9375 479.36,30.0781 Q478.7194,30.2344 478.0163,30.2344 Q475.5163,30.2344 474.1881,28.5938 Q472.8756,26.9375 472.8756,23.8125 Q472.8756,20.6875 474.1881,19.0313 Q475.5163,17.375 478.0163,17.375 Q478.7194,17.375 479.36,17.5313 Q480.0163,17.6875 480.5788,17.9844 L480.5788,20.7031 Q479.9538,20.125 479.36,19.8594 Q478.7663,19.5781 478.1413,19.5781 Q476.7975,19.5781 476.11,20.6563 Q475.4225,21.7188 475.4225,23.8125 Q475.4225,25.9063 476.11,26.9844 Q476.7975,28.0469 478.1413,28.0469 Q478.7663,28.0469 479.36,27.7813 Q479.9538,27.5 480.5788,26.9219 L480.5788,29.6406 Z "/><text fill="#000000" font-family="sans-serif" font-size="12" lengthAdjust="spacingAndGlyphs" textLength="96" x="491.61" y="28.1543">MonoBehaviour</text><line style="stroke: #A80036; stroke-width: 1.5;" x1="463.61" x2="589.61" y1="40" y2="40"/><line style="stroke: #A80036; stroke-width: 1.5;" x1="463.61" x2="589.61" y1="48" y2="48"/><!--MD5=[31796a549d5a5eebfa62628789de4c0a]
class GameData--><rect fill="#FEFECE" filter="url(#fxg2upq40w70x)" height="48" id="GameData" style="stroke: #A80036; stroke-width: 1.5;" width="98" x="477.61" y="390"/><ellipse cx="492.61" cy="406" fill="#ADD1B2" rx="11" ry="11" style="stroke: #A80036; stroke-width: 1.0;"/><path d="M495.5788,411.6406 Q495.0006,411.9375 494.36,412.0781 Q493.7194,412.2344 493.0163,412.2344 Q490.5163,412.2344 489.1881,410.5938 Q487.8756,408.9375 487.8756,405.8125 Q487.8756,402.6875 489.1881,401.0313 Q490.5163,399.375 493.0163,399.375 Q493.7194,399.375 494.36,399.5313 Q495.0163,399.6875 495.5788,399.9844 L495.5788,402.7031 Q494.9538,402.125 494.36,401.8594 Q493.7663,401.5781 493.1413,401.5781 Q491.7975,401.5781 491.11,402.6563 Q490.4225,403.7188 490.4225,405.8125 Q490.4225,407.9063 491.11,408.9844 Q491.7975,410.0469 493.1413,410.0469 Q493.7663,410.0469 494.36,409.7813 Q494.9538,409.5 495.5788,408.9219 L495.5788,411.6406 Z "/><text fill="#000000" font-family="sans-serif" font-size="12" lengthAdjust="spacingAndGlyphs" textLength="66" x="506.61" y="410.1543">GameData</text><line style="stroke: #A80036; stroke-width: 1.5;" x1="478.61" x2="574.61" y1="422" y2="422"/><line style="stroke: #A80036; stroke-width: 1.5;" x1="478.61" x2="574.61" y1="430" y2="430"/><!--MD5=[ec21b0355a5d6c1b355348409c88cf7d]
class FileDataHandler--><rect fill="#FEFECE" filter="url(#fxg2upq40w70x)" height="48" id="FileDataHandler" style="stroke: #A80036; stroke-width: 1.5;" width="132" x="610.61" y="390"/><ellipse cx="625.61" cy="406" fill="#ADD1B2" rx="11" ry="11" style="stroke: #A80036; stroke-width: 1.0;"/><path d="M628.5788,411.6406 Q628.0006,411.9375 627.36,412.0781 Q626.7194,412.2344 626.0163,412.2344 Q623.5163,412.2344 622.1881,410.5938 Q620.8756,408.9375 620.8756,405.8125 Q620.8756,402.6875 622.1881,401.0313 Q623.5163,399.375 626.0163,399.375 Q626.7194,399.375 627.36,399.5313 Q628.0163,399.6875 628.5788,399.9844 L628.5788,402.7031 Q627.9538,402.125 627.36,401.8594 Q626.7663,401.5781 626.1413,401.5781 Q624.7975,401.5781 624.11,402.6563 Q623.4225,403.7188 623.4225,405.8125 Q623.4225,407.9063 624.11,408.9844 Q624.7975,410.0469 626.1413,410.0469 Q626.7663,410.0469 627.36,409.7813 Q627.9538,409.5 628.5788,408.9219 L628.5788,411.6406 Z "/><text fill="#000000" font-family="sans-serif" font-size="12" lengthAdjust="spacingAndGlyphs" textLength="100" x="639.61" y="410.1543">FileDataHandler</text><line style="stroke: #A80036; stroke-width: 1.5;" x1="611.61" x2="741.61" y1="422" y2="422"/><line style="stroke: #A80036; stroke-width: 1.5;" x1="611.61" x2="741.61" y1="430" y2="430"/><!--MD5=[8d63317074cfba8b8dce7c249856d64f]
class XmlSerializer--><rect fill="#FEFECE" filter="url(#fxg2upq40w70x)" height="48" id="XmlSerializer" style="stroke: #A80036; stroke-width: 1.5;" width="109" x="778.11" y="390"/><ellipse cx="793.11" cy="406" fill="#ADD1B2" rx="11" ry="11" style="stroke: #A80036; stroke-width: 1.0;"/><path d="M796.0788,411.6406 Q795.5006,411.9375 794.86,412.0781 Q794.2194,412.2344 793.5163,412.2344 Q791.0163,412.2344 789.6881,410.5938 Q788.3756,408.9375 788.3756,405.8125 Q788.3756,402.6875 789.6881,401.0313 Q791.0163,399.375 793.5163,399.375 Q794.2194,399.375 794.86,399.5313 Q795.5163,399.6875 796.0788,399.9844 L796.0788,402.7031 Q795.4538,402.125 794.86,401.8594 Q794.2663,401.5781 793.6413,401.5781 Q792.2975,401.5781 791.61,402.6563 Q790.9225,403.7188 790.9225,405.8125 Q790.9225,407.9063 791.61,408.9844 Q792.2975,410.0469 793.6413,410.0469 Q794.2663,410.0469 794.86,409.7813 Q795.4538,409.5 796.0788,408.9219 L796.0788,411.6406 Z "/><text fill="#000000" font-family="sans-serif" font-size="12" lengthAdjust="spacingAndGlyphs" textLength="77" x="807.11" y="410.1543">XmlSerializer</text><line style="stroke: #A80036; stroke-width: 1.5;" x1="779.11" x2="886.11" y1="422" y2="422"/><line style="stroke: #A80036; stroke-width: 1.5;" x1="779.11" x2="886.11" y1="430" y2="430"/><!--MD5=[fa07864ef55e7d1943fa981e1ee9b4e7]
class TMP_Text--><rect fill="#FEFECE" filter="url(#fxg2upq40w70x)" height="48" id="TMP_Text" style="stroke: #A80036; stroke-width: 1.5;" width="89" x="922.11" y="390"/><ellipse cx="937.11" cy="406" fill="#ADD1B2" rx="11" ry="11" style="stroke: #A80036; stroke-width: 1.0;"/><path d="M940.0788,411.6406 Q939.5006,411.9375 938.86,412.0781 Q938.2194,412.2344 937.5163,412.2344 Q935.0163,412.2344 933.6881,410.5938 Q932.3756,408.9375 932.3756,405.8125 Q932.3756,402.6875 933.6881,401.0313 Q935.0163,399.375 937.5163,399.375 Q938.2194,399.375 938.86,399.5313 Q939.5163,399.6875 940.0788,399.9844 L940.0788,402.7031 Q939.4538,402.125 938.86,401.8594 Q938.2663,401.5781 937.6413,401.5781 Q936.2975,401.5781 935.61,402.6563 Q934.9225,403.7188 934.9225,405.8125 Q934.9225,407.9063 935.61,408.9844 Q936.2975,410.0469 937.6413,410.0469 Q938.2663,410.0469 938.86,409.7813 Q939.4538,409.5 940.0788,408.9219 L940.0788,411.6406 Z "/><text fill="#000000" font-family="sans-serif" font-size="12" lengthAdjust="spacingAndGlyphs" textLength="57" x="951.11" y="410.1543">TMP_Text</text><line style="stroke: #A80036; stroke-width: 1.5;" x1="923.11" x2="1010.11" y1="422" y2="422"/><line style="stroke: #A80036; stroke-width: 1.5;" x1="923.11" x2="1010.11" y1="430" y2="430"/><!--MD5=[b30e98ee5ddc5c00c834b5697b3cfb41]
reverse link MonoBehaviour to DataPersistenceManager--><path d="M526.61,76.34 C526.61,88.3 526.61,101.83 526.61,115.71 " fill="none" id="MonoBehaviour&lt;-DataPersistenceManager" style="stroke: #A80036; stroke-width: 1.0;"/><polygon fill="none" points="519.61,76.18,526.61,56.18,533.61,76.18,519.61,76.18" style="stroke: #A80036; stroke-width: 1.0;"/><!--MD5=[50031fbfd5cedc77e02c5e9b01a60aba]
link DataPersistenceManager to GameData--><path d="M526.61,330.1 C526.61,350.19 526.61,369.56 526.61,384.52 " fill="none" id="DataPersistenceManager-&gt;GameData" style="stroke: #A80036; stroke-width: 1.0;"/><polygon fill="#A80036" points="526.61,389.83,530.61,380.83,526.61,384.83,522.61,380.83,526.61,389.83" style="stroke: #A80036; stroke-width: 1.0;"/><text fill="#000000" font-family="sans-serif" font-size="13" lengthAdjust="spacingAndGlyphs" textLength="68" x="411.86" y="379.067">gameData</text><!--MD5=[6b151fb409604a81e345fc9d5946087c]
link DataPersistenceManager to DataPersistenceManager--><path d="M736.16,193.72 C757.49,199.51 771.11,209.27 771.11,223 C771.11,235.66 759.54,244.94 741.02,250.85 " fill="none" id="DataPersistenceManager-&gt;DataPersistenceManager" style="stroke: #A80036; stroke-width: 1.0;"/><polygon fill="#A80036" points="736.16,252.28,745.9236,253.5732,740.9561,250.8669,743.6625,245.8994,736.16,252.28" style="stroke: #A80036; stroke-width: 1.0;"/><text fill="#000000" font-family="sans-serif" font-size="13" lengthAdjust="spacingAndGlyphs" textLength="54" x="743.9218" y="250.0562">instance</text><!--MD5=[7df9e85bc662d74399aaec6be077c1ae]
link DataPersistenceManager to FileDataHandler--><path d="M610.82,330.1 C627.18,350.71 642.95,370.58 654.94,385.69 " fill="none" id="DataPersistenceManager-&gt;FileDataHandler" style="stroke: #A80036; stroke-width: 1.0;"/><polygon fill="#A80036" points="658.22,389.83,655.7636,380.2924,655.1139,385.9118,649.4945,385.2621,658.22,389.83" style="stroke: #A80036; stroke-width: 1.0;"/><text fill="#000000" font-family="sans-serif" font-size="13" lengthAdjust="spacingAndGlyphs" textLength="79" x="663.6294" y="378.7985">dataHandler</text><!--MD5=[a3ccba3d5c616102d18707fc05a86a65]
link DataPersistenceManager to List`1--><path d="M382.9,330.1 C354.26,351.24 326.69,371.6 306.04,386.85 " fill="none" id="DataPersistenceManager-&gt;List`1" style="stroke: #A80036; stroke-width: 1.0;"/><polygon fill="#A80036" points="302,389.83,311.6173,387.7068,306.0238,386.8621,306.8686,381.2686,302,389.83" style="stroke: #A80036; stroke-width: 1.0;"/><text fill="#000000" font-family="sans-serif" font-size="13" lengthAdjust="spacingAndGlyphs" textLength="281" x="-6.9594" y="378.7985">dataPersistenceObjects&lt;IDataPersistence&gt;</text><!--MD5=[34718e18104e711e7491a62b1e0a03d2]
link DataPersistenceManager to Queue`1--><path d="M439.28,330.1 C425.21,350.54 412.45,370.24 403.77,385.31 " fill="none" id="DataPersistenceManager-&gt;Queue`1" style="stroke: #A80036; stroke-width: 1.0;"/><polygon fill="#A80036" points="401.2,389.83,409.1279,383.9863,403.673,385.4844,402.1749,380.0295,401.2,389.83" style="stroke: #A80036; stroke-width: 1.0;"/><text fill="#000000" font-family="sans-serif" font-size="13" lengthAdjust="spacingAndGlyphs" textLength="196" x="428.2574" y="378.7985">addQueue&lt;IDataPersistence&gt;</text><!--MD5=[34718e18104e711e7491a62b1e0a03d2]
link DataPersistenceManager to Queue`1--><path d="M465.36,330.1 C450.53,350.71 435.36,370.58 422.66,385.69 " fill="none" id="DataPersistenceManager-&gt;Queue`1-1" style="stroke: #A80036; stroke-width: 1.0;"/><polygon fill="#A80036" points="419.15,389.83,428.0271,385.5641,422.3887,386.0207,421.9321,380.3823,419.15,389.83" style="stroke: #A80036; stroke-width: 1.0;"/><text fill="#000000" font-family="sans-serif" font-size="13" lengthAdjust="spacingAndGlyphs" textLength="221" x="207.8978" y="378.7985">removeQueue&lt;IDataPersistence&gt;</text><!--MD5=[65e7fb623ccf61f2e8af8e8db0f1fc1a]
link DataPersistenceManager to XmlSerializer--><path d="M698.4,330.1 C732.77,351.33 765.86,371.77 790.58,387.04 " fill="none" id="DataPersistenceManager-&gt;XmlSerializer" style="stroke: #A80036; stroke-width: 1.0;"/><polygon fill="#A80036" points="795.1,389.83,789.5436,381.6982,790.8456,387.2031,785.3407,388.5052,795.1,389.83" style="stroke: #A80036; stroke-width: 1.0;"/><text fill="#000000" font-family="sans-serif" font-size="13" lengthAdjust="spacingAndGlyphs" textLength="87" x="796.6349" y="378.7985">xmlFormatter</text><!--MD5=[5481c021337c18c1f701d15d765d5a93]
link DataPersistenceManager to TMP_Text--><path d="M736.3,314.07 C803.79,343.06 872.57,372.6 917.17,391.76 " fill="none" id="DataPersistenceManager-&gt;TMP_Text" style="stroke: #A80036; stroke-width: 1.0;"/><polygon fill="#A80036" points="921.95,393.82,915.2534,386.5981,917.3543,391.8504,912.102,393.9513,921.95,393.82" style="stroke: #A80036; stroke-width: 1.0;"/><text fill="#000000" font-family="sans-serif" font-size="13" lengthAdjust="spacingAndGlyphs" textLength="85" x="921.005" y="378.8059">inputfieldText</text><!--MD5=[9790cc28d486109cb90d954d18a4ba90]
@startuml
class DataPersistenceManager {
    currentFile : string = ""
    isSaved : bool
    + {static} didLoad : bool
    + NewFile() : void
    + LoadFile() : void
    + SaveFile() : void
    + AddDataPersistenceObject(objToAdd:IDataPersistence) : void
    + RemoveDataPersistenceObject(objToRemove:IDataPersistence) : void
    FindAllDataPersistenceObjects() : List<IDataPersistence>
    + SetSavedState(saveState:bool) : void
    + GetSavedState() : bool
    + SetFileName(name:string) : void
    + GetFileName() : string
}
class "List`1"<T> {
}
class "Queue`1"<T> {
}
MonoBehaviour <|- - DataPersistenceManager
DataPersistenceManager - -> "gameData" GameData
DataPersistenceManager - -> "instance" DataPersistenceManager
DataPersistenceManager - -> "dataHandler" FileDataHandler
DataPersistenceManager - -> "dataPersistenceObjects<IDataPersistence>" "List`1"
DataPersistenceManager - -> "addQueue<IDataPersistence>" "Queue`1"
DataPersistenceManager - -> "removeQueue<IDataPersistence>" "Queue`1"
DataPersistenceManager - -> "xmlFormatter" XmlSerializer
DataPersistenceManager - -> "inputfieldText" TMP_Text
@enduml

PlantUML version 1.2020.02(Sun Mar 01 10:22:07 GMT 2020)
(GPL source distribution)
Java Runtime: OpenJDK Runtime Environment
JVM: OpenJDK 64-Bit Server VM
Java Version: 11.0.9+11-Ubuntu-0ubuntu1
Operating System: Linux
Default Encoding: ANSI_X3.4-1968
Language: en
Country: US
--></g></svg>