<?xml version="1.0" encoding="UTF-8" standalone="no"?><svg xmlns="http://www.w3.org/2000/svg" xmlns:xlink="http://www.w3.org/1999/xlink" contentScriptType="application/ecmascript" contentStyleType="text/css" height="239px" preserveAspectRatio="none" style="width:505px;height:239px;" version="1.1" viewBox="0 0 505 239" width="505px" zoomAndPan="magnify"><defs><filter height="300%" id="f1alc6snto9z1p" width="300%" x="-1" y="-1"><feGaussianBlur result="blurOut" stdDeviation="2.0"/><feColorMatrix in="blurOut" result="blurOut2" type="matrix" values="0 0 0 0 0 0 0 0 0 0 0 0 0 0 0 0 0 0 .4 0"/><feOffset dx="4.0" dy="4.0" in="blurOut2" result="blurOut3"/><feBlend in="SourceGraphic" in2="blurOut3" mode="normal"/></filter></defs><g><!--MD5=[ec21b0355a5d6c1b355348409c88cf7d]
class FileDataHandler--><rect fill="#FEFECE" filter="url(#f1alc6snto9z1p)" height="112.0234" id="FileDataHandler" style="stroke: #A80036; stroke-width: 1.5;" width="488" x="6" y="8"/><ellipse cx="195.75" cy="24" fill="#ADD1B2" rx="11" ry="11" style="stroke: #A80036; stroke-width: 1.0;"/><path d="M198.7188,29.6406 Q198.1406,29.9375 197.5,30.0781 Q196.8594,30.2344 196.1563,30.2344 Q193.6563,30.2344 192.3281,28.5938 Q191.0156,26.9375 191.0156,23.8125 Q191.0156,20.6875 192.3281,19.0313 Q193.6563,17.375 196.1563,17.375 Q196.8594,17.375 197.5,17.5313 Q198.1563,17.6875 198.7188,17.9844 L198.7188,20.7031 Q198.0938,20.125 197.5,19.8594 Q196.9063,19.5781 196.2813,19.5781 Q194.9375,19.5781 194.25,20.6563 Q193.5625,21.7188 193.5625,23.8125 Q193.5625,25.9063 194.25,26.9844 Q194.9375,28.0469 196.2813,28.0469 Q196.9063,28.0469 197.5,27.7813 Q198.0938,27.5 198.7188,26.9219 L198.7188,29.6406 Z "/><text fill="#000000" font-family="sans-serif" font-size="12" lengthAdjust="spacingAndGlyphs" textLength="100" x="216.25" y="28.1543">FileDataHandler</text><line style="stroke: #A80036; stroke-width: 1.5;" x1="7" x2="493" y1="40" y2="40"/><text fill="#000000" font-family="sans-serif" font-size="11" lengthAdjust="spacingAndGlyphs" textLength="138" x="12" y="54.2104">dataDirPath : string = ""</text><text fill="#000000" font-family="sans-serif" font-size="11" lengthAdjust="spacingAndGlyphs" textLength="223" x="12" y="67.0151">fileExtention : string = "puzzlebuildtool"</text><line style="stroke: #A80036; stroke-width: 1.5;" x1="7" x2="493" y1="73.6094" y2="73.6094"/><ellipse cx="17" cy="84.6094" fill="#84BE84" rx="3" ry="3" style="stroke: #038048; stroke-width: 1.0;"/><text fill="#000000" font-family="sans-serif" font-size="11" lengthAdjust="spacingAndGlyphs" textLength="462" x="26" y="87.8198">FileDataHandler(dataDirPath:string, dataFileName:string, formatter:XmlSerializer)</text><ellipse cx="17" cy="97.4141" fill="#84BE84" rx="3" ry="3" style="stroke: #038048; stroke-width: 1.0;"/><text fill="#000000" font-family="sans-serif" font-size="11" lengthAdjust="spacingAndGlyphs" textLength="194" x="26" y="100.6245">Load(fileName:string) : GameData</text><ellipse cx="17" cy="110.2188" fill="#84BE84" rx="3" ry="3" style="stroke: #038048; stroke-width: 1.0;"/><text fill="#000000" font-family="sans-serif" font-size="11" lengthAdjust="spacingAndGlyphs" textLength="255" x="26" y="113.4292">Save(data:GameData, fileName:string) : void</text><!--MD5=[8d63317074cfba8b8dce7c249856d64f]
class XmlSerializer--><rect fill="#FEFECE" filter="url(#f1alc6snto9z1p)" height="48" id="XmlSerializer" style="stroke: #A80036; stroke-width: 1.5;" width="109" x="195.5" y="180"/><ellipse cx="210.5" cy="196" fill="#ADD1B2" rx="11" ry="11" style="stroke: #A80036; stroke-width: 1.0;"/><path d="M213.4688,201.6406 Q212.8906,201.9375 212.25,202.0781 Q211.6094,202.2344 210.9063,202.2344 Q208.4063,202.2344 207.0781,200.5938 Q205.7656,198.9375 205.7656,195.8125 Q205.7656,192.6875 207.0781,191.0313 Q208.4063,189.375 210.9063,189.375 Q211.6094,189.375 212.25,189.5313 Q212.9063,189.6875 213.4688,189.9844 L213.4688,192.7031 Q212.8438,192.125 212.25,191.8594 Q211.6563,191.5781 211.0313,191.5781 Q209.6875,191.5781 209,192.6563 Q208.3125,193.7188 208.3125,195.8125 Q208.3125,197.9063 209,198.9844 Q209.6875,200.0469 211.0313,200.0469 Q211.6563,200.0469 212.25,199.7813 Q212.8438,199.5 213.4688,198.9219 L213.4688,201.6406 Z "/><text fill="#000000" font-family="sans-serif" font-size="12" lengthAdjust="spacingAndGlyphs" textLength="77" x="224.5" y="200.1543">XmlSerializer</text><line style="stroke: #A80036; stroke-width: 1.5;" x1="196.5" x2="303.5" y1="212" y2="212"/><line style="stroke: #A80036; stroke-width: 1.5;" x1="196.5" x2="303.5" y1="220" y2="220"/><!--MD5=[dd303bfff961deff5278618cfaf112c3]
link FileDataHandler to XmlSerializer--><path d="M250,120.33 C250,138.93 250,158.9 250,174.56 " fill="none" id="FileDataHandler-&gt;XmlSerializer" style="stroke: #A80036; stroke-width: 1.0;"/><polygon fill="#A80036" points="250,179.69,254,170.69,250,174.69,246,170.69,250,179.69" style="stroke: #A80036; stroke-width: 1.0;"/><text fill="#000000" font-family="sans-serif" font-size="13" lengthAdjust="spacingAndGlyphs" textLength="87" x="152.3969" y="169.0194">xmlFormatter</text><!--MD5=[b2720ed3747b10bcb4302eb0227a9dac]
@startuml
class FileDataHandler {
    dataDirPath : string = ""
    fileExtention : string = "puzzlebuildtool"
    + FileDataHandler(dataDirPath:string, dataFileName:string, formatter:XmlSerializer)
    + Load(fileName:string) : GameData
    + Save(data:GameData, fileName:string) : void
}
FileDataHandler - -> "xmlFormatter" XmlSerializer
@enduml

PlantUML version 1.2020.02(Sun Mar 01 10:22:07 GMT 2020)
(GPL source distribution)
Java Runtime: OpenJDK Runtime Environment
JVM: OpenJDK 64-Bit Server VM
Java Version: 11.0.9+11-Ubuntu-0ubuntu1
Operating System: Linux
Default Encoding: ANSI_X3.4-1968
Language: en
Country: US
--></g></svg>