<?xml version="1.0" encoding="UTF-8" standalone="no"?><svg xmlns="http://www.w3.org/2000/svg" xmlns:xlink="http://www.w3.org/1999/xlink" contentScriptType="application/ecmascript" contentStyleType="text/css" height="334px" preserveAspectRatio="none" style="width:612px;height:334px;" version="1.1" viewBox="0 0 612 334" width="612px" zoomAndPan="magnify"><defs><filter height="300%" id="f1dsg03bldce4t" width="300%" x="-1" y="-1"><feGaussianBlur result="blurOut" stdDeviation="2.0"/><feColorMatrix in="blurOut" result="blurOut2" type="matrix" values="0 0 0 0 0 0 0 0 0 0 0 0 0 0 0 0 0 0 .4 0"/><feOffset dx="4.0" dy="4.0" in="blurOut2" result="blurOut3"/><feBlend in="SourceGraphic" in2="blurOut3" mode="normal"/></filter></defs><g><!--MD5=[82301b7ea093fcbe9e40642c6b13d0fd]
class SavingLoadingSceneObjects--><rect fill="#FEFECE" filter="url(#f1dsg03bldce4t)" height="99.2188" id="SavingLoadingSceneObjects" style="stroke: #A80036; stroke-width: 1.5;" width="212" x="227.23" y="116"/><ellipse cx="244.03" cy="132" fill="#ADD1B2" rx="11" ry="11" style="stroke: #A80036; stroke-width: 1.0;"/><path d="M246.9988,137.6406 Q246.4206,137.9375 245.78,138.0781 Q245.1394,138.2344 244.4363,138.2344 Q241.9363,138.2344 240.6081,136.5938 Q239.2956,134.9375 239.2956,131.8125 Q239.2956,128.6875 240.6081,127.0313 Q241.9363,125.375 244.4363,125.375 Q245.1394,125.375 245.78,125.5313 Q246.4363,125.6875 246.9988,125.9844 L246.9988,128.7031 Q246.3738,128.125 245.78,127.8594 Q245.1863,127.5781 244.5613,127.5781 Q243.2175,127.5781 242.53,128.6563 Q241.8425,129.7188 241.8425,131.8125 Q241.8425,133.9063 242.53,134.9844 Q243.2175,136.0469 244.5613,136.0469 Q245.1863,136.0469 245.78,135.7813 Q246.3738,135.5 246.9988,134.9219 L246.9988,137.6406 Z "/><text fill="#000000" font-family="sans-serif" font-size="12" lengthAdjust="spacingAndGlyphs" textLength="176" x="258.43" y="136.1543">SavingLoadingSceneObjects</text><line style="stroke: #A80036; stroke-width: 1.5;" x1="228.23" x2="438.23" y1="148" y2="148"/><line style="stroke: #A80036; stroke-width: 1.5;" x1="228.23" x2="438.23" y1="156" y2="156"/><ellipse cx="238.23" cy="167" fill="#84BE84" rx="3" ry="3" style="stroke: #038048; stroke-width: 1.0;"/><text fill="#000000" font-family="sans-serif" font-size="11" lengthAdjust="spacingAndGlyphs" textLength="93" x="247.23" y="170.2104">NewData() : void</text><text fill="#000000" font-family="sans-serif" font-size="11" lengthAdjust="spacingAndGlyphs" textLength="116" x="247.23" y="183.0151">ClearObjects() : void</text><ellipse cx="238.23" cy="192.6094" fill="#84BE84" rx="3" ry="3" style="stroke: #038048; stroke-width: 1.0;"/><text fill="#000000" font-family="sans-serif" font-size="11" lengthAdjust="spacingAndGlyphs" textLength="185" x="247.23" y="195.8198">LoadData(data:GameData) : void</text><ellipse cx="238.23" cy="205.4141" fill="#84BE84" rx="3" ry="3" style="stroke: #038048; stroke-width: 1.0;"/><text fill="#000000" font-family="sans-serif" font-size="11" lengthAdjust="spacingAndGlyphs" textLength="186" x="247.23" y="208.6245">SaveData(data:GameData) : void</text><!--MD5=[83b3cf3d23d77c6f1e1b5291a241bc2a]
class MonoBehaviour--><rect fill="#FEFECE" filter="url(#f1dsg03bldce4t)" height="48" id="MonoBehaviour" style="stroke: #A80036; stroke-width: 1.5;" width="128" x="185.23" y="8"/><ellipse cx="200.23" cy="24" fill="#ADD1B2" rx="11" ry="11" style="stroke: #A80036; stroke-width: 1.0;"/><path d="M203.1988,29.6406 Q202.6206,29.9375 201.98,30.0781 Q201.3394,30.2344 200.6363,30.2344 Q198.1363,30.2344 196.8081,28.5938 Q195.4956,26.9375 195.4956,23.8125 Q195.4956,20.6875 196.8081,19.0313 Q198.1363,17.375 200.6363,17.375 Q201.3394,17.375 201.98,17.5313 Q202.6363,17.6875 203.1988,17.9844 L203.1988,20.7031 Q202.5738,20.125 201.98,19.8594 Q201.3863,19.5781 200.7613,19.5781 Q199.4175,19.5781 198.73,20.6563 Q198.0425,21.7188 198.0425,23.8125 Q198.0425,25.9063 198.73,26.9844 Q199.4175,28.0469 200.7613,28.0469 Q201.3863,28.0469 201.98,27.7813 Q202.5738,27.5 203.1988,26.9219 L203.1988,29.6406 Z "/><text fill="#000000" font-family="sans-serif" font-size="12" lengthAdjust="spacingAndGlyphs" textLength="96" x="214.23" y="28.1543">MonoBehaviour</text><line style="stroke: #A80036; stroke-width: 1.5;" x1="186.23" x2="312.23" y1="40" y2="40"/><line style="stroke: #A80036; stroke-width: 1.5;" x1="186.23" x2="312.23" y1="48" y2="48"/><!--MD5=[64a01738e00397fdc051c8255b006b82]
class IDataPersistence--><rect fill="#FEFECE" filter="url(#f1dsg03bldce4t)" height="48" id="IDataPersistence" style="stroke: #A80036; stroke-width: 1.5;" width="139" x="348.73" y="8"/><ellipse cx="363.73" cy="24" fill="#ADD1B2" rx="11" ry="11" style="stroke: #A80036; stroke-width: 1.0;"/><path d="M366.6988,29.6406 Q366.1206,29.9375 365.48,30.0781 Q364.8394,30.2344 364.1363,30.2344 Q361.6363,30.2344 360.3081,28.5938 Q358.9956,26.9375 358.9956,23.8125 Q358.9956,20.6875 360.3081,19.0313 Q361.6363,17.375 364.1363,17.375 Q364.8394,17.375 365.48,17.5313 Q366.1363,17.6875 366.6988,17.9844 L366.6988,20.7031 Q366.0738,20.125 365.48,19.8594 Q364.8863,19.5781 364.2613,19.5781 Q362.9175,19.5781 362.23,20.6563 Q361.5425,21.7188 361.5425,23.8125 Q361.5425,25.9063 362.23,26.9844 Q362.9175,28.0469 364.2613,28.0469 Q364.8863,28.0469 365.48,27.7813 Q366.0738,27.5 366.6988,26.9219 L366.6988,29.6406 Z "/><text fill="#000000" font-family="sans-serif" font-size="12" lengthAdjust="spacingAndGlyphs" textLength="107" x="377.73" y="28.1543">IDataPersistence</text><line style="stroke: #A80036; stroke-width: 1.5;" x1="349.73" x2="486.73" y1="40" y2="40"/><line style="stroke: #A80036; stroke-width: 1.5;" x1="349.73" x2="486.73" y1="48" y2="48"/><!--MD5=[47f9f6bfe5cfd9169913797a39737c41]
class InputCommands--><rect fill="#FEFECE" filter="url(#f1dsg03bldce4t)" height="48" id="InputCommands" style="stroke: #A80036; stroke-width: 1.5;" width="133" x="16.73" y="275"/><ellipse cx="31.73" cy="291" fill="#ADD1B2" rx="11" ry="11" style="stroke: #A80036; stroke-width: 1.0;"/><path d="M34.6988,296.6406 Q34.1206,296.9375 33.48,297.0781 Q32.8394,297.2344 32.1363,297.2344 Q29.6363,297.2344 28.3081,295.5938 Q26.9956,293.9375 26.9956,290.8125 Q26.9956,287.6875 28.3081,286.0313 Q29.6363,284.375 32.1363,284.375 Q32.8394,284.375 33.48,284.5313 Q34.1363,284.6875 34.6988,284.9844 L34.6988,287.7031 Q34.0738,287.125 33.48,286.8594 Q32.8863,286.5781 32.2613,286.5781 Q30.9175,286.5781 30.23,287.6563 Q29.5425,288.7188 29.5425,290.8125 Q29.5425,292.9063 30.23,293.9844 Q30.9175,295.0469 32.2613,295.0469 Q32.8863,295.0469 33.48,294.7813 Q34.0738,294.5 34.6988,293.9219 L34.6988,296.6406 Z "/><text fill="#000000" font-family="sans-serif" font-size="12" lengthAdjust="spacingAndGlyphs" textLength="101" x="45.73" y="295.1543">InputCommands</text><line style="stroke: #A80036; stroke-width: 1.5;" x1="17.73" x2="148.73" y1="307" y2="307"/><line style="stroke: #A80036; stroke-width: 1.5;" x1="17.73" x2="148.73" y1="315" y2="315"/><!--MD5=[0281433f717099304c2b5fca4ff4a357]
class PuzzleStageEditor--><rect fill="#FEFECE" filter="url(#f1dsg03bldce4t)" height="48" id="PuzzleStageEditor" style="stroke: #A80036; stroke-width: 1.5;" width="143" x="184.73" y="275"/><ellipse cx="199.73" cy="291" fill="#ADD1B2" rx="11" ry="11" style="stroke: #A80036; stroke-width: 1.0;"/><path d="M202.6988,296.6406 Q202.1206,296.9375 201.48,297.0781 Q200.8394,297.2344 200.1363,297.2344 Q197.6363,297.2344 196.3081,295.5938 Q194.9956,293.9375 194.9956,290.8125 Q194.9956,287.6875 196.3081,286.0313 Q197.6363,284.375 200.1363,284.375 Q200.8394,284.375 201.48,284.5313 Q202.1363,284.6875 202.6988,284.9844 L202.6988,287.7031 Q202.0738,287.125 201.48,286.8594 Q200.8863,286.5781 200.2613,286.5781 Q198.9175,286.5781 198.23,287.6563 Q197.5425,288.7188 197.5425,290.8125 Q197.5425,292.9063 198.23,293.9844 Q198.9175,295.0469 200.2613,295.0469 Q200.8863,295.0469 201.48,294.7813 Q202.0738,294.5 202.6988,293.9219 L202.6988,296.6406 Z "/><text fill="#000000" font-family="sans-serif" font-size="12" lengthAdjust="spacingAndGlyphs" textLength="111" x="213.73" y="295.1543">PuzzleStageEditor</text><line style="stroke: #A80036; stroke-width: 1.5;" x1="185.73" x2="326.73" y1="307" y2="307"/><line style="stroke: #A80036; stroke-width: 1.5;" x1="185.73" x2="326.73" y1="315" y2="315"/><!--MD5=[004b1d6c4ca8aad4ba8b586a335ed4f3]
class Transform--><rect fill="#FEFECE" filter="url(#f1dsg03bldce4t)" height="48" id="Transform" style="stroke: #A80036; stroke-width: 1.5;" width="95" x="362.73" y="275"/><ellipse cx="377.73" cy="291" fill="#ADD1B2" rx="11" ry="11" style="stroke: #A80036; stroke-width: 1.0;"/><path d="M380.6988,296.6406 Q380.1206,296.9375 379.48,297.0781 Q378.8394,297.2344 378.1363,297.2344 Q375.6363,297.2344 374.3081,295.5938 Q372.9956,293.9375 372.9956,290.8125 Q372.9956,287.6875 374.3081,286.0313 Q375.6363,284.375 378.1363,284.375 Q378.8394,284.375 379.48,284.5313 Q380.1363,284.6875 380.6988,284.9844 L380.6988,287.7031 Q380.0738,287.125 379.48,286.8594 Q378.8863,286.5781 378.2613,286.5781 Q376.9175,286.5781 376.23,287.6563 Q375.5425,288.7188 375.5425,290.8125 Q375.5425,292.9063 376.23,293.9844 Q376.9175,295.0469 378.2613,295.0469 Q378.8863,295.0469 379.48,294.7813 Q380.0738,294.5 380.6988,293.9219 L380.6988,296.6406 Z "/><text fill="#000000" font-family="sans-serif" font-size="12" lengthAdjust="spacingAndGlyphs" textLength="63" x="391.73" y="295.1543">Transform</text><line style="stroke: #A80036; stroke-width: 1.5;" x1="363.73" x2="456.73" y1="307" y2="307"/><line style="stroke: #A80036; stroke-width: 1.5;" x1="363.73" x2="456.73" y1="315" y2="315"/><!--MD5=[064f7a74fee85463ec1a30143664ee17]
class GameObject--><rect fill="#FEFECE" filter="url(#f1dsg03bldce4t)" height="48" id="GameObject" style="stroke: #A80036; stroke-width: 1.5;" width="108" x="493.23" y="275"/><ellipse cx="508.23" cy="291" fill="#ADD1B2" rx="11" ry="11" style="stroke: #A80036; stroke-width: 1.0;"/><path d="M511.1988,296.6406 Q510.6206,296.9375 509.98,297.0781 Q509.3394,297.2344 508.6363,297.2344 Q506.1363,297.2344 504.8081,295.5938 Q503.4956,293.9375 503.4956,290.8125 Q503.4956,287.6875 504.8081,286.0313 Q506.1363,284.375 508.6363,284.375 Q509.3394,284.375 509.98,284.5313 Q510.6363,284.6875 511.1988,284.9844 L511.1988,287.7031 Q510.5738,287.125 509.98,286.8594 Q509.3863,286.5781 508.7613,286.5781 Q507.4175,286.5781 506.73,287.6563 Q506.0425,288.7188 506.0425,290.8125 Q506.0425,292.9063 506.73,293.9844 Q507.4175,295.0469 508.7613,295.0469 Q509.3863,295.0469 509.98,294.7813 Q510.5738,294.5 511.1988,293.9219 L511.1988,296.6406 Z "/><text fill="#000000" font-family="sans-serif" font-size="12" lengthAdjust="spacingAndGlyphs" textLength="76" x="522.23" y="295.1543">GameObject</text><line style="stroke: #A80036; stroke-width: 1.5;" x1="494.23" x2="600.23" y1="307" y2="307"/><line style="stroke: #A80036; stroke-width: 1.5;" x1="494.23" x2="600.23" y1="315" y2="315"/><!--MD5=[f0b1c410dedca14aa25a8e8f95cf339d]
reverse link MonoBehaviour to SavingLoadingSceneObjects--><path d="M274.95,73.27 C283.56,86.74 293.24,101.9 302.21,115.93 " fill="none" id="MonoBehaviour&lt;-SavingLoadingSceneObjects" style="stroke: #A80036; stroke-width: 1.0;"/><polygon fill="none" points="268.92,76.83,264.05,56.21,280.72,69.29,268.92,76.83" style="stroke: #A80036; stroke-width: 1.0;"/><!--MD5=[ad8fca00bdca1dc33164880485b2a8d8]
reverse link IDataPersistence to SavingLoadingSceneObjects--><path d="M392.2,73.27 C383.5,86.74 373.7,101.9 364.62,115.93 " fill="none" id="IDataPersistence&lt;-SavingLoadingSceneObjects" style="stroke: #A80036; stroke-width: 1.0;"/><polygon fill="none" points="386.49,69.2,403.23,56.21,398.25,76.8,386.49,69.2" style="stroke: #A80036; stroke-width: 1.0;"/><!--MD5=[89d0da43274e70596a555ca0553c87d0]
link SavingLoadingSceneObjects to InputCommands--><path d="M240.85,215.09 C203.73,234.62 162.48,256.31 131.5,272.61 " fill="none" id="SavingLoadingSceneObjects-&gt;InputCommands" style="stroke: #A80036; stroke-width: 1.0;"/><polygon fill="#A80036" points="127,274.98,136.8275,274.3319,131.4255,272.653,133.1044,267.251,127,274.98" style="stroke: #A80036; stroke-width: 1.0;"/><text fill="#000000" font-family="sans-serif" font-size="13" lengthAdjust="spacingAndGlyphs" textLength="106" x="18.6348" y="263.9869">inputCommands</text><!--MD5=[813139378d3d5b66dfe07005f46476d6]
link SavingLoadingSceneObjects to PuzzleStageEditor--><path d="M304.78,215.09 C293.81,233.82 281.68,254.54 272.28,270.58 " fill="none" id="SavingLoadingSceneObjects-&gt;PuzzleStageEditor" style="stroke: #A80036; stroke-width: 1.0;"/><polygon fill="#A80036" points="269.71,274.98,277.7118,269.2379,272.2382,270.6663,270.8099,265.1927,269.71,274.98" style="stroke: #A80036; stroke-width: 1.0;"/><text fill="#000000" font-family="sans-serif" font-size="13" lengthAdjust="spacingAndGlyphs" textLength="116" x="149.1092" y="263.9086">puzzleStageEditor</text><!--MD5=[48c3244bd45cce29b40517795b5aed72]
link SavingLoadingSceneObjects to Transform--><path d="M361.68,215.09 C372.65,233.82 384.78,254.54 394.18,270.58 " fill="none" id="SavingLoadingSceneObjects-&gt;Transform" style="stroke: #A80036; stroke-width: 1.0;"/><polygon fill="#A80036" points="396.75,274.98,395.6501,265.1927,394.2218,270.6663,388.7482,269.2379,396.75,274.98" style="stroke: #A80036; stroke-width: 1.0;"/><text fill="#000000" font-family="sans-serif" font-size="13" lengthAdjust="spacingAndGlyphs" textLength="42" x="345.9145" y="263.9869">parent</text><!--MD5=[340de522d5ce593702bb2367860bfbf5]
link SavingLoadingSceneObjects to GameObject--><path d="M412.31,215.09 C443.82,234.46 478.81,255.96 505.26,272.21 " fill="none" id="SavingLoadingSceneObjects-&gt;GameObject" style="stroke: #A80036; stroke-width: 1.0;"/><polygon fill="#A80036" points="509.76,274.98,504.1839,266.8617,505.4993,272.3635,499.9975,273.6789,509.76,274.98" style="stroke: #A80036; stroke-width: 1.0;"/><text fill="#000000" font-family="sans-serif" font-size="13" lengthAdjust="spacingAndGlyphs" textLength="39" x="456.1614" y="263.9869">player</text><!--MD5=[75196154118697c9eecf09f6df087ca4]
@startuml
class SavingLoadingSceneObjects {
    + NewData() : void
    ClearObjects() : void
    + LoadData(data:GameData) : void
    + SaveData(data:GameData) : void
}
MonoBehaviour <|- - SavingLoadingSceneObjects
IDataPersistence <|- - SavingLoadingSceneObjects
SavingLoadingSceneObjects - -> "inputCommands" InputCommands
SavingLoadingSceneObjects - -> "puzzleStageEditor" PuzzleStageEditor
SavingLoadingSceneObjects - -> "parent" Transform
SavingLoadingSceneObjects - -> "player" GameObject
@enduml

PlantUML version 1.2020.02(Sun Mar 01 10:22:07 GMT 2020)
(GPL source distribution)
Java Runtime: OpenJDK Runtime Environment
JVM: OpenJDK 64-Bit Server VM
Java Version: 11.0.9+11-Ubuntu-0ubuntu1
Operating System: Linux
Default Encoding: ANSI_X3.4-1968
Language: en
Country: US
--></g></svg>