<?xml version="1.0" encoding="UTF-8" standalone="no"?><svg xmlns="http://www.w3.org/2000/svg" xmlns:xlink="http://www.w3.org/1999/xlink" contentScriptType="application/ecmascript" contentStyleType="text/css" height="360px" preserveAspectRatio="none" style="width:596px;height:360px;" version="1.1" viewBox="0 0 596 360" width="596px" zoomAndPan="magnify"><defs><filter height="300%" id="f7jyq2hm0zr4n" width="300%" x="-1" y="-1"><feGaussianBlur result="blurOut" stdDeviation="2.0"/><feColorMatrix in="blurOut" result="blurOut2" type="matrix" values="0 0 0 0 0 0 0 0 0 0 0 0 0 0 0 0 0 0 .4 0"/><feOffset dx="4.0" dy="4.0" in="blurOut2" result="blurOut3"/><feBlend in="SourceGraphic" in2="blurOut3" mode="normal"/></filter></defs><g><!--MD5=[6a60e0a9ae019339c2c7e78bb1504adc]
class AddObjectCommand--><rect fill="#FEFECE" filter="url(#f7jyq2hm0zr4n)" height="124.8281" id="AddObjectCommand" style="stroke: #A80036; stroke-width: 1.5;" width="244" x="58.99" y="116"/><ellipse cx="113.74" cy="132" fill="#ADD1B2" rx="11" ry="11" style="stroke: #A80036; stroke-width: 1.0;"/><path d="M116.7088,137.6406 Q116.1306,137.9375 115.49,138.0781 Q114.8494,138.2344 114.1463,138.2344 Q111.6463,138.2344 110.3181,136.5938 Q109.0056,134.9375 109.0056,131.8125 Q109.0056,128.6875 110.3181,127.0313 Q111.6463,125.375 114.1463,125.375 Q114.8494,125.375 115.49,125.5313 Q116.1463,125.6875 116.7088,125.9844 L116.7088,128.7031 Q116.0838,128.125 115.49,127.8594 Q114.8963,127.5781 114.2713,127.5781 Q112.9275,127.5781 112.24,128.6563 Q111.5525,129.7188 111.5525,131.8125 Q111.5525,133.9063 112.24,134.9844 Q112.9275,136.0469 114.2713,136.0469 Q114.8963,136.0469 115.49,135.7813 Q116.0838,135.5 116.7088,134.9219 L116.7088,137.6406 Z "/><text fill="#000000" font-family="sans-serif" font-size="12" lengthAdjust="spacingAndGlyphs" textLength="126" x="134.24" y="136.1543">AddObjectCommand</text><line style="stroke: #A80036; stroke-width: 1.5;" x1="59.99" x2="301.99" y1="148" y2="148"/><line style="stroke: #A80036; stroke-width: 1.5;" x1="59.99" x2="301.99" y1="156" y2="156"/><ellipse cx="69.99" cy="167" fill="#84BE84" rx="3" ry="3" style="stroke: #038048; stroke-width: 1.0;"/><text fill="#000000" font-family="sans-serif" font-size="11" lengthAdjust="spacingAndGlyphs" textLength="152" x="78.99" y="170.2104">«override» Execute() : void</text><ellipse cx="69.99" cy="179.8047" fill="#84BE84" rx="3" ry="3" style="stroke: #038048; stroke-width: 1.0;"/><text fill="#000000" font-family="sans-serif" font-size="11" lengthAdjust="spacingAndGlyphs" textLength="137" x="78.99" y="183.0151">«override» Undo() : void</text><ellipse cx="69.99" cy="192.6094" fill="#84BE84" rx="3" ry="3" style="stroke: #038048; stroke-width: 1.0;"/><text fill="#000000" font-family="sans-serif" font-size="11" lengthAdjust="spacingAndGlyphs" textLength="136" x="78.99" y="195.8198">«override» Redo() : void</text><ellipse cx="69.99" cy="205.4141" fill="#84BE84" rx="3" ry="3" style="stroke: #038048; stroke-width: 1.0;"/><text fill="#000000" font-family="sans-serif" font-size="11" lengthAdjust="spacingAndGlyphs" textLength="192" x="78.99" y="208.6245">«override» ClearFirstUndo() : void</text><ellipse cx="69.99" cy="218.2188" fill="#84BE84" rx="3" ry="3" style="stroke: #038048; stroke-width: 1.0;"/><text fill="#000000" font-family="sans-serif" font-size="11" lengthAdjust="spacingAndGlyphs" textLength="166" x="78.99" y="221.4292">«override» ClearRedo() : void</text><ellipse cx="69.99" cy="231.0234" fill="#84BE84" rx="3" ry="3" style="stroke: #038048; stroke-width: 1.0;"/><text fill="#000000" font-family="sans-serif" font-size="11" lengthAdjust="spacingAndGlyphs" textLength="218" x="78.99" y="234.2339">SetSpawnPivot(pivot:Transform) : void</text><!--MD5=[92d1d42b41ac56e5f57f4bc2f2e7fa06]
class LinkedList`1--><rect fill="#FEFECE" filter="url(#f7jyq2hm0zr4n)" height="48" id="LinkedList`1" style="stroke: #A80036; stroke-width: 1.5;" width="118" x="464.99" y="154.5"/><ellipse cx="479.99" cy="170.5" fill="#ADD1B2" rx="11" ry="11" style="stroke: #A80036; stroke-width: 1.0;"/><path d="M482.9588,176.1406 Q482.3806,176.4375 481.74,176.5781 Q481.0994,176.7344 480.3963,176.7344 Q477.8963,176.7344 476.5681,175.0938 Q475.2556,173.4375 475.2556,170.3125 Q475.2556,167.1875 476.5681,165.5313 Q477.8963,163.875 480.3963,163.875 Q481.0994,163.875 481.74,164.0313 Q482.3963,164.1875 482.9588,164.4844 L482.9588,167.2031 Q482.3338,166.625 481.74,166.3594 Q481.1463,166.0781 480.5213,166.0781 Q479.1775,166.0781 478.49,167.1563 Q477.8025,168.2188 477.8025,170.3125 Q477.8025,172.4063 478.49,173.4844 Q479.1775,174.5469 480.5213,174.5469 Q481.1463,174.5469 481.74,174.2813 Q482.3338,174 482.9588,173.4219 L482.9588,176.1406 Z "/><text fill="#000000" font-family="sans-serif" font-size="12" lengthAdjust="spacingAndGlyphs" textLength="75" x="493.99" y="174.6543">LinkedList`1</text><rect fill="#FFFFFF" height="15.9688" style="stroke: #000000; stroke-width: 1.0; stroke-dasharray: 2.0,2.0;" width="9" x="576.99" y="151.5"/><text fill="#000000" font-family="sans-serif" font-size="12" font-style="italic" lengthAdjust="spacingAndGlyphs" textLength="7" x="577.99" y="163.6387">T</text><line style="stroke: #A80036; stroke-width: 1.5;" x1="465.99" x2="581.99" y1="186.5" y2="186.5"/><line style="stroke: #A80036; stroke-width: 1.5;" x1="465.99" x2="581.99" y1="194.5" y2="194.5"/><!--MD5=[500abf91d043834fcdd772523ff9273e]
class Stack`1--><rect fill="#FEFECE" filter="url(#f7jyq2hm0zr4n)" height="48" id="Stack`1" style="stroke: #A80036; stroke-width: 1.5;" width="92" x="337.99" y="154.5"/><ellipse cx="352.99" cy="170.5" fill="#ADD1B2" rx="11" ry="11" style="stroke: #A80036; stroke-width: 1.0;"/><path d="M355.9588,176.1406 Q355.3806,176.4375 354.74,176.5781 Q354.0994,176.7344 353.3963,176.7344 Q350.8963,176.7344 349.5681,175.0938 Q348.2556,173.4375 348.2556,170.3125 Q348.2556,167.1875 349.5681,165.5313 Q350.8963,163.875 353.3963,163.875 Q354.0994,163.875 354.74,164.0313 Q355.3963,164.1875 355.9588,164.4844 L355.9588,167.2031 Q355.3338,166.625 354.74,166.3594 Q354.1463,166.0781 353.5213,166.0781 Q352.1775,166.0781 351.49,167.1563 Q350.8025,168.2188 350.8025,170.3125 Q350.8025,172.4063 351.49,173.4844 Q352.1775,174.5469 353.5213,174.5469 Q354.1463,174.5469 354.74,174.2813 Q355.3338,174 355.9588,173.4219 L355.9588,176.1406 Z "/><text fill="#000000" font-family="sans-serif" font-size="12" lengthAdjust="spacingAndGlyphs" textLength="49" x="366.99" y="174.6543">Stack`1</text><rect fill="#FFFFFF" height="15.9688" style="stroke: #000000; stroke-width: 1.0; stroke-dasharray: 2.0,2.0;" width="9" x="423.99" y="151.5"/><text fill="#000000" font-family="sans-serif" font-size="12" font-style="italic" lengthAdjust="spacingAndGlyphs" textLength="7" x="424.99" y="163.6387">T</text><line style="stroke: #A80036; stroke-width: 1.5;" x1="338.99" x2="428.99" y1="186.5" y2="186.5"/><line style="stroke: #A80036; stroke-width: 1.5;" x1="338.99" x2="428.99" y1="194.5" y2="194.5"/><!--MD5=[5afa9872f8a3e7e6502e04d57f103471]
class BaseObjectCommands--><rect fill="#FEFECE" filter="url(#f7jyq2hm0zr4n)" height="48" id="BaseObjectCommands" style="stroke: #A80036; stroke-width: 1.5;" width="172" x="94.99" y="8"/><ellipse cx="109.99" cy="24" fill="#ADD1B2" rx="11" ry="11" style="stroke: #A80036; stroke-width: 1.0;"/><path d="M112.9588,29.6406 Q112.3806,29.9375 111.74,30.0781 Q111.0994,30.2344 110.3963,30.2344 Q107.8963,30.2344 106.5681,28.5938 Q105.2556,26.9375 105.2556,23.8125 Q105.2556,20.6875 106.5681,19.0313 Q107.8963,17.375 110.3963,17.375 Q111.0994,17.375 111.74,17.5313 Q112.3963,17.6875 112.9588,17.9844 L112.9588,20.7031 Q112.3338,20.125 111.74,19.8594 Q111.1463,19.5781 110.5213,19.5781 Q109.1775,19.5781 108.49,20.6563 Q107.8025,21.7188 107.8025,23.8125 Q107.8025,25.9063 108.49,26.9844 Q109.1775,28.0469 110.5213,28.0469 Q111.1463,28.0469 111.74,27.7813 Q112.3338,27.5 112.9588,26.9219 L112.9588,29.6406 Z "/><text fill="#000000" font-family="sans-serif" font-size="12" lengthAdjust="spacingAndGlyphs" textLength="140" x="123.99" y="28.1543">BaseObjectCommands</text><line style="stroke: #A80036; stroke-width: 1.5;" x1="95.99" x2="265.99" y1="40" y2="40"/><line style="stroke: #A80036; stroke-width: 1.5;" x1="95.99" x2="265.99" y1="48" y2="48"/><!--MD5=[59deb3f529aec2644655575e1fb76f6e]
class SceneObject--><rect fill="#FEFECE" filter="url(#f7jyq2hm0zr4n)" height="48" id="SceneObject" style="stroke: #A80036; stroke-width: 1.5;" width="111" x="56.49" y="301"/><ellipse cx="71.49" cy="317" fill="#ADD1B2" rx="11" ry="11" style="stroke: #A80036; stroke-width: 1.0;"/><path d="M74.4588,322.6406 Q73.8806,322.9375 73.24,323.0781 Q72.5994,323.2344 71.8963,323.2344 Q69.3963,323.2344 68.0681,321.5938 Q66.7556,319.9375 66.7556,316.8125 Q66.7556,313.6875 68.0681,312.0313 Q69.3963,310.375 71.8963,310.375 Q72.5994,310.375 73.24,310.5313 Q73.8963,310.6875 74.4588,310.9844 L74.4588,313.7031 Q73.8338,313.125 73.24,312.8594 Q72.6463,312.5781 72.0213,312.5781 Q70.6775,312.5781 69.99,313.6563 Q69.3025,314.7188 69.3025,316.8125 Q69.3025,318.9063 69.99,319.9844 Q70.6775,321.0469 72.0213,321.0469 Q72.6463,321.0469 73.24,320.7813 Q73.8338,320.5 74.4588,319.9219 L74.4588,322.6406 Z "/><text fill="#000000" font-family="sans-serif" font-size="12" lengthAdjust="spacingAndGlyphs" textLength="79" x="85.49" y="321.1543">SceneObject</text><line style="stroke: #A80036; stroke-width: 1.5;" x1="57.49" x2="166.49" y1="333" y2="333"/><line style="stroke: #A80036; stroke-width: 1.5;" x1="57.49" x2="166.49" y1="341" y2="341"/><!--MD5=[004b1d6c4ca8aad4ba8b586a335ed4f3]
class Transform--><rect fill="#FEFECE" filter="url(#f7jyq2hm0zr4n)" height="48" id="Transform" style="stroke: #A80036; stroke-width: 1.5;" width="95" x="202.49" y="301"/><ellipse cx="217.49" cy="317" fill="#ADD1B2" rx="11" ry="11" style="stroke: #A80036; stroke-width: 1.0;"/><path d="M220.4588,322.6406 Q219.8806,322.9375 219.24,323.0781 Q218.5994,323.2344 217.8963,323.2344 Q215.3963,323.2344 214.0681,321.5938 Q212.7556,319.9375 212.7556,316.8125 Q212.7556,313.6875 214.0681,312.0313 Q215.3963,310.375 217.8963,310.375 Q218.5994,310.375 219.24,310.5313 Q219.8963,310.6875 220.4588,310.9844 L220.4588,313.7031 Q219.8338,313.125 219.24,312.8594 Q218.6463,312.5781 218.0213,312.5781 Q216.6775,312.5781 215.99,313.6563 Q215.3025,314.7188 215.3025,316.8125 Q215.3025,318.9063 215.99,319.9844 Q216.6775,321.0469 218.0213,321.0469 Q218.6463,321.0469 219.24,320.7813 Q219.8338,320.5 220.4588,319.9219 L220.4588,322.6406 Z "/><text fill="#000000" font-family="sans-serif" font-size="12" lengthAdjust="spacingAndGlyphs" textLength="63" x="231.49" y="321.1543">Transform</text><line style="stroke: #A80036; stroke-width: 1.5;" x1="203.49" x2="296.49" y1="333" y2="333"/><line style="stroke: #A80036; stroke-width: 1.5;" x1="203.49" x2="296.49" y1="341" y2="341"/><!--MD5=[7086cad073d44acfbfdaf742921389a8]
reverse link BaseObjectCommands to AddObjectCommand--><path d="M180.99,76.67 C180.99,89.05 180.99,102.77 180.99,115.99 " fill="none" id="BaseObjectCommands&lt;-AddObjectCommand" style="stroke: #A80036; stroke-width: 1.0;"/><polygon fill="none" points="173.99,76.22,180.99,56.22,187.99,76.22,173.99,76.22" style="stroke: #A80036; stroke-width: 1.0;"/><!--MD5=[ebaab03eb25e9528c8d964db76a8e6c6]
link AddObjectCommand to SceneObject--><path d="M151.52,241.2 C142.36,260.39 132.72,280.59 125.25,296.23 " fill="none" id="AddObjectCommand-&gt;SceneObject" style="stroke: #A80036; stroke-width: 1.0;"/><polygon fill="#A80036" points="123,300.94,130.4974,294.5533,125.1613,296.4313,123.2834,291.0952,123,300.94" style="stroke: #A80036; stroke-width: 1.0;"/><text fill="#000000" font-family="sans-serif" font-size="13" lengthAdjust="spacingAndGlyphs" textLength="102" x="10.7526" y="289.9367">myObjectPrefab</text><!--MD5=[dbc6ac1ca7b92c32a7a6bf7fa7ec18d6]
link AddObjectCommand to LinkedList`1--><path d="M279.4452,110.1762 C279.4452,110.1762 318.81,91.35 338.49,86 C377.94,75.27 392.67,70.45 430.49,86 C458.9,97.68 483.28,122.63 500.01,143.68 " fill="none" id="AddObjectCommand-LinkedList`1" style="stroke: #A80036; stroke-width: 1.0;"/><polygon fill="#A80036" points="508.04,154.24,505.7725,144.6557,505.0119,150.2612,499.4064,149.5006,508.04,154.24" style="stroke: #A80036; stroke-width: 1.0;"/><line style="stroke: #A80036; stroke-width: 1.0;" x1="505.0119" x2="500.17" y1="150.2612" y2="143.895"/><polygon fill="#FFFFFF" points="268.92,115.94,276.1038,116.5665,279.4452,110.1762,272.2613,109.5497,268.92,115.94" style="stroke: #A80036; stroke-width: 1.0;"/><text fill="#000000" font-family="sans-serif" font-size="13" lengthAdjust="spacingAndGlyphs" textLength="198" x="283.3505" y="143.3973">undoLinkedList&lt;SceneObject&gt;</text><!--MD5=[bee02c7a55b5716826b73747725d5d47]
link AddObjectCommand to Stack`1--><path d="M315.1,178.5 C315.1,178.5 321.79,178.5 324.62,178.5 " fill="none" id="AddObjectCommand-Stack`1" style="stroke: #A80036; stroke-width: 1.0;"/><polygon fill="#A80036" points="337.86,178.5,328.86,174.5,332.86,178.5,328.86,182.5,337.86,178.5" style="stroke: #A80036; stroke-width: 1.0;"/><line style="stroke: #A80036; stroke-width: 1.0;" x1="332.86" x2="324.86" y1="178.5" y2="178.5"/><polygon fill="#FFFFFF" points="303.1,178.5,309.1,182.5,315.1,178.5,309.1,174.5,303.1,178.5" style="stroke: #A80036; stroke-width: 1.0;"/><text fill="#000000" font-family="sans-serif" font-size="13" lengthAdjust="spacingAndGlyphs" textLength="168" x="257.6798" y="143.7465">redoStack&lt;SceneObject&gt;</text><!--MD5=[2a509f2217301e3a6b8048a79fca2959]
link AddObjectCommand to Transform--><path d="M210.45,241.2 C219.61,260.39 229.26,280.59 236.73,296.23 " fill="none" id="AddObjectCommand-&gt;Transform" style="stroke: #A80036; stroke-width: 1.0;"/><polygon fill="#A80036" points="238.97,300.94,238.6987,291.0949,236.8142,296.4286,231.4805,294.5441,238.97,300.94" style="stroke: #A80036; stroke-width: 1.0;"/><text fill="#000000" font-family="sans-serif" font-size="13" lengthAdjust="spacingAndGlyphs" textLength="71" x="169.3389" y="289.9639">spawnPivot</text><!--MD5=[4a20206d8a0cf154287c9b70a8c9734c]
@startuml
class AddObjectCommand {
    + <<override>> Execute() : void
    + <<override>> Undo() : void
    + <<override>> Redo() : void
    + <<override>> ClearFirstUndo() : void
    + <<override>> ClearRedo() : void
    + SetSpawnPivot(pivot:Transform) : void
}
class "LinkedList`1"<T> {
}
class "Stack`1"<T> {
}
BaseObjectCommands <|- - AddObjectCommand
AddObjectCommand - -> "myObjectPrefab" SceneObject
AddObjectCommand o-> "undoLinkedList<SceneObject>" "LinkedList`1"
AddObjectCommand o-> "redoStack<SceneObject>" "Stack`1"
AddObjectCommand - -> "spawnPivot" Transform
@enduml

PlantUML version 1.2020.02(Sun Mar 01 10:22:07 GMT 2020)
(GPL source distribution)
Java Runtime: OpenJDK Runtime Environment
JVM: OpenJDK 64-Bit Server VM
Java Version: 11.0.9+11-Ubuntu-0ubuntu1
Operating System: Linux
Default Encoding: ANSI_X3.4-1968
Language: en
Country: US
--></g></svg>