<?xml version="1.0" encoding="UTF-8" standalone="no"?><svg xmlns="http://www.w3.org/2000/svg" xmlns:xlink="http://www.w3.org/1999/xlink" contentScriptType="application/ecmascript" contentStyleType="text/css" height="321px" preserveAspectRatio="none" style="width:379px;height:321px;" version="1.1" viewBox="0 0 379 321" width="379px" zoomAndPan="magnify"><defs><filter height="300%" id="f19o97i5dw3ty4" width="300%" x="-1" y="-1"><feGaussianBlur result="blurOut" stdDeviation="2.0"/><feColorMatrix in="blurOut" result="blurOut2" type="matrix" values="0 0 0 0 0 0 0 0 0 0 0 0 0 0 0 0 0 0 .4 0"/><feOffset dx="4.0" dy="4.0" in="blurOut2" result="blurOut3"/><feBlend in="SourceGraphic" in2="blurOut3" mode="normal"/></filter></defs><g><!--MD5=[5afa9872f8a3e7e6502e04d57f103471]
class BaseObjectCommands--><rect fill="#FEFECE" filter="url(#f19o97i5dw3ty4)" height="86.4141" id="BaseObjectCommands" style="stroke: #A80036; stroke-width: 1.5;" width="362" x="6" y="116"/><ellipse cx="112.75" cy="132" fill="#ADD1B2" rx="11" ry="11" style="stroke: #A80036; stroke-width: 1.0;"/><path d="M115.7188,137.6406 Q115.1406,137.9375 114.5,138.0781 Q113.8594,138.2344 113.1563,138.2344 Q110.6563,138.2344 109.3281,136.5938 Q108.0156,134.9375 108.0156,131.8125 Q108.0156,128.6875 109.3281,127.0313 Q110.6563,125.375 113.1563,125.375 Q113.8594,125.375 114.5,125.5313 Q115.1563,125.6875 115.7188,125.9844 L115.7188,128.7031 Q115.0938,128.125 114.5,127.8594 Q113.9063,127.5781 113.2813,127.5781 Q111.9375,127.5781 111.25,128.6563 Q110.5625,129.7188 110.5625,131.8125 Q110.5625,133.9063 111.25,134.9844 Q111.9375,136.0469 113.2813,136.0469 Q113.9063,136.0469 114.5,135.7813 Q115.0938,135.5 115.7188,134.9219 L115.7188,137.6406 Z "/><text fill="#000000" font-family="sans-serif" font-size="12" lengthAdjust="spacingAndGlyphs" textLength="140" x="133.25" y="136.1543">BaseObjectCommands</text><line style="stroke: #A80036; stroke-width: 1.5;" x1="7" x2="367" y1="148" y2="148"/><line style="stroke: #A80036; stroke-width: 1.5;" x1="7" x2="367" y1="156" y2="156"/><ellipse cx="17" cy="167" fill="#84BE84" rx="3" ry="3" style="stroke: #038048; stroke-width: 1.0;"/><text fill="#000000" font-family="sans-serif" font-size="11" lengthAdjust="spacingAndGlyphs" textLength="200" x="26" y="170.2104">SetParent(parent:Transform) : void</text><ellipse cx="17" cy="179.8047" fill="#84BE84" rx="3" ry="3" style="stroke: #038048; stroke-width: 1.0;"/><text fill="#000000" font-family="sans-serif" font-size="11" lengthAdjust="spacingAndGlyphs" textLength="326" x="26" y="183.0151">CreateObject(objectToCreate:SceneObject) : SceneObject</text><ellipse cx="17" cy="192.6094" fill="#84BE84" rx="3" ry="3" style="stroke: #038048; stroke-width: 1.0;"/><text fill="#000000" font-family="sans-serif" font-size="11" lengthAdjust="spacingAndGlyphs" textLength="336" x="26" y="195.8198">CreateInvisible(objectToCreate:SceneObject) : SceneObject</text><!--MD5=[e03d4c2f474ddd868eb5f718b492b09b]
class BaseEditorCommand--><rect fill="#FEFECE" filter="url(#f19o97i5dw3ty4)" height="48" id="BaseEditorCommand" style="stroke: #A80036; stroke-width: 1.5;" width="162" x="106" y="8"/><ellipse cx="121" cy="24" fill="#ADD1B2" rx="11" ry="11" style="stroke: #A80036; stroke-width: 1.0;"/><path d="M123.9688,29.6406 Q123.3906,29.9375 122.75,30.0781 Q122.1094,30.2344 121.4063,30.2344 Q118.9063,30.2344 117.5781,28.5938 Q116.2656,26.9375 116.2656,23.8125 Q116.2656,20.6875 117.5781,19.0313 Q118.9063,17.375 121.4063,17.375 Q122.1094,17.375 122.75,17.5313 Q123.4063,17.6875 123.9688,17.9844 L123.9688,20.7031 Q123.3438,20.125 122.75,19.8594 Q122.1563,19.5781 121.5313,19.5781 Q120.1875,19.5781 119.5,20.6563 Q118.8125,21.7188 118.8125,23.8125 Q118.8125,25.9063 119.5,26.9844 Q120.1875,28.0469 121.5313,28.0469 Q122.1563,28.0469 122.75,27.7813 Q123.3438,27.5 123.9688,26.9219 L123.9688,29.6406 Z "/><text fill="#000000" font-family="sans-serif" font-size="12" lengthAdjust="spacingAndGlyphs" textLength="130" x="135" y="28.1543">BaseEditorCommand</text><line style="stroke: #A80036; stroke-width: 1.5;" x1="107" x2="267" y1="40" y2="40"/><line style="stroke: #A80036; stroke-width: 1.5;" x1="107" x2="267" y1="48" y2="48"/><!--MD5=[004b1d6c4ca8aad4ba8b586a335ed4f3]
class Transform--><rect fill="#FEFECE" filter="url(#f19o97i5dw3ty4)" height="48" id="Transform" style="stroke: #A80036; stroke-width: 1.5;" width="95" x="139.5" y="262"/><ellipse cx="154.5" cy="278" fill="#ADD1B2" rx="11" ry="11" style="stroke: #A80036; stroke-width: 1.0;"/><path d="M157.4688,283.6406 Q156.8906,283.9375 156.25,284.0781 Q155.6094,284.2344 154.9063,284.2344 Q152.4063,284.2344 151.0781,282.5938 Q149.7656,280.9375 149.7656,277.8125 Q149.7656,274.6875 151.0781,273.0313 Q152.4063,271.375 154.9063,271.375 Q155.6094,271.375 156.25,271.5313 Q156.9063,271.6875 157.4688,271.9844 L157.4688,274.7031 Q156.8438,274.125 156.25,273.8594 Q155.6563,273.5781 155.0313,273.5781 Q153.6875,273.5781 153,274.6563 Q152.3125,275.7188 152.3125,277.8125 Q152.3125,279.9063 153,280.9844 Q153.6875,282.0469 155.0313,282.0469 Q155.6563,282.0469 156.25,281.7813 Q156.8438,281.5 157.4688,280.9219 L157.4688,283.6406 Z "/><text fill="#000000" font-family="sans-serif" font-size="12" lengthAdjust="spacingAndGlyphs" textLength="63" x="168.5" y="282.1543">Transform</text><line style="stroke: #A80036; stroke-width: 1.5;" x1="140.5" x2="233.5" y1="294" y2="294"/><line style="stroke: #A80036; stroke-width: 1.5;" x1="140.5" x2="233.5" y1="302" y2="302"/><!--MD5=[1a18d628551d90bcce346ab49718acea]
reverse link BaseEditorCommand to BaseObjectCommands--><path d="M187,76.27 C187,89.12 187,103.17 187,115.94 " fill="none" id="BaseEditorCommand&lt;-BaseObjectCommands" style="stroke: #A80036; stroke-width: 1.0;"/><polygon fill="none" points="180,76.22,187,56.22,194,76.22,180,76.22" style="stroke: #A80036; stroke-width: 1.0;"/><!--MD5=[0d1a1154e6135146e40e898ea897f907]
link BaseObjectCommands to Transform--><path d="M187,202.32 C187,220.14 187,240.41 187,256.42 " fill="none" id="BaseObjectCommands-&gt;Transform" style="stroke: #A80036; stroke-width: 1.0;"/><polygon fill="#A80036" points="187,261.67,191,252.67,187,256.67,183,252.67,187,261.67" style="stroke: #A80036; stroke-width: 1.0;"/><text fill="#000000" font-family="sans-serif" font-size="13" lengthAdjust="spacingAndGlyphs" textLength="42" x="139.8813" y="250.9945">parent</text><!--MD5=[ac50f1e6cec3f5ea2afdc793d63e1963]
@startuml
class BaseObjectCommands {
    + SetParent(parent:Transform) : void
    + CreateObject(objectToCreate:SceneObject) : SceneObject
    + CreateInvisible(objectToCreate:SceneObject) : SceneObject
}
BaseEditorCommand <|- - BaseObjectCommands
BaseObjectCommands - -> "parent" Transform
@enduml

PlantUML version 1.2020.02(Sun Mar 01 10:22:07 GMT 2020)
(GPL source distribution)
Java Runtime: OpenJDK Runtime Environment
JVM: OpenJDK 64-Bit Server VM
Java Version: 11.0.9+11-Ubuntu-0ubuntu1
Operating System: Linux
Default Encoding: ANSI_X3.4-1968
Language: en
Country: US
--></g></svg>