<?xml version="1.0" encoding="UTF-8" standalone="no"?><svg xmlns="http://www.w3.org/2000/svg" xmlns:xlink="http://www.w3.org/1999/xlink" contentScriptType="application/ecmascript" contentStyleType="text/css" height="187px" preserveAspectRatio="none" style="width:195px;height:187px;" version="1.1" viewBox="0 0 195 187" width="195px" zoomAndPan="magnify"><defs><filter height="300%" id="f1060dyecstok1" width="300%" x="-1" y="-1"><feGaussianBlur result="blurOut" stdDeviation="2.0"/><feColorMatrix in="blurOut" result="blurOut2" type="matrix" values="0 0 0 0 0 0 0 0 0 0 0 0 0 0 0 0 0 0 .4 0"/><feOffset dx="4.0" dy="4.0" in="blurOut2" result="blurOut3"/><feBlend in="SourceGraphic" in2="blurOut3" mode="normal"/></filter></defs><g><!--MD5=[da2004fdc20347367b467d0f0feb1b81]
class CopyObjectCommand--><rect fill="#FEFECE" filter="url(#f1060dyecstok1)" height="60.8047" id="CopyObjectCommand" style="stroke: #A80036; stroke-width: 1.5;" width="178" x="6" y="116"/><ellipse cx="27.3" cy="132" fill="#ADD1B2" rx="11" ry="11" style="stroke: #A80036; stroke-width: 1.0;"/><path d="M30.2688,137.6406 Q29.6906,137.9375 29.05,138.0781 Q28.4094,138.2344 27.7063,138.2344 Q25.2063,138.2344 23.8781,136.5938 Q22.5656,134.9375 22.5656,131.8125 Q22.5656,128.6875 23.8781,127.0313 Q25.2063,125.375 27.7063,125.375 Q28.4094,125.375 29.05,125.5313 Q29.7063,125.6875 30.2688,125.9844 L30.2688,128.7031 Q29.6438,128.125 29.05,127.8594 Q28.4563,127.5781 27.8313,127.5781 Q26.4875,127.5781 25.8,128.6563 Q25.1125,129.7188 25.1125,131.8125 Q25.1125,133.9063 25.8,134.9844 Q26.4875,136.0469 27.8313,136.0469 Q28.4563,136.0469 29.05,135.7813 Q29.6438,135.5 30.2688,134.9219 L30.2688,137.6406 Z "/><text fill="#000000" font-family="sans-serif" font-size="12" lengthAdjust="spacingAndGlyphs" textLength="132" x="42.7" y="136.1543">CopyObjectCommand</text><line style="stroke: #A80036; stroke-width: 1.5;" x1="7" x2="183" y1="148" y2="148"/><line style="stroke: #A80036; stroke-width: 1.5;" x1="7" x2="183" y1="156" y2="156"/><ellipse cx="17" cy="167" fill="#84BE84" rx="3" ry="3" style="stroke: #038048; stroke-width: 1.0;"/><text fill="#000000" font-family="sans-serif" font-size="11" lengthAdjust="spacingAndGlyphs" textLength="152" x="26" y="170.2104">«override» Execute() : void</text><!--MD5=[5afa9872f8a3e7e6502e04d57f103471]
class BaseObjectCommands--><rect fill="#FEFECE" filter="url(#f1060dyecstok1)" height="48" id="BaseObjectCommands" style="stroke: #A80036; stroke-width: 1.5;" width="172" x="9" y="8"/><ellipse cx="24" cy="24" fill="#ADD1B2" rx="11" ry="11" style="stroke: #A80036; stroke-width: 1.0;"/><path d="M26.9688,29.6406 Q26.3906,29.9375 25.75,30.0781 Q25.1094,30.2344 24.4063,30.2344 Q21.9063,30.2344 20.5781,28.5938 Q19.2656,26.9375 19.2656,23.8125 Q19.2656,20.6875 20.5781,19.0313 Q21.9063,17.375 24.4063,17.375 Q25.1094,17.375 25.75,17.5313 Q26.4063,17.6875 26.9688,17.9844 L26.9688,20.7031 Q26.3438,20.125 25.75,19.8594 Q25.1563,19.5781 24.5313,19.5781 Q23.1875,19.5781 22.5,20.6563 Q21.8125,21.7188 21.8125,23.8125 Q21.8125,25.9063 22.5,26.9844 Q23.1875,28.0469 24.5313,28.0469 Q25.1563,28.0469 25.75,27.7813 Q26.3438,27.5 26.9688,26.9219 L26.9688,29.6406 Z "/><text fill="#000000" font-family="sans-serif" font-size="12" lengthAdjust="spacingAndGlyphs" textLength="140" x="38" y="28.1543">BaseObjectCommands</text><line style="stroke: #A80036; stroke-width: 1.5;" x1="10" x2="180" y1="40" y2="40"/><line style="stroke: #A80036; stroke-width: 1.5;" x1="10" x2="180" y1="48" y2="48"/><!--MD5=[1ad465dac9ee30628a2c2ed6e60439bd]
reverse link BaseObjectCommands to CopyObjectCommand--><path d="M95,76.11 C95,89.31 95,103.54 95,115.65 " fill="none" id="BaseObjectCommands&lt;-CopyObjectCommand" style="stroke: #A80036; stroke-width: 1.0;"/><polygon fill="none" points="88,76.04,95,56.04,102,76.04,88,76.04" style="stroke: #A80036; stroke-width: 1.0;"/><!--MD5=[fb4359a7efd502c86f3a99ccec22f5f1]
@startuml
class CopyObjectCommand {
    + <<override>> Execute() : void
}
BaseObjectCommands <|- - CopyObjectCommand
@enduml

PlantUML version 1.2020.02(Sun Mar 01 10:22:07 GMT 2020)
(GPL source distribution)
Java Runtime: OpenJDK Runtime Environment
JVM: OpenJDK 64-Bit Server VM
Java Version: 11.0.9+11-Ubuntu-0ubuntu1
Operating System: Linux
Default Encoding: ANSI_X3.4-1968
Language: en
Country: US
--></g></svg>