<?xml version="1.0" encoding="UTF-8" standalone="no"?><svg xmlns="http://www.w3.org/2000/svg" xmlns:xlink="http://www.w3.org/1999/xlink" contentScriptType="application/ecmascript" contentStyleType="text/css" height="321px" preserveAspectRatio="none" style="width:443px;height:321px;" version="1.1" viewBox="0 0 443 321" width="443px" zoomAndPan="magnify"><defs><filter height="300%" id="fiiy4tinaclvn" width="300%" x="-1" y="-1"><feGaussianBlur result="blurOut" stdDeviation="2.0"/><feColorMatrix in="blurOut" result="blurOut2" type="matrix" values="0 0 0 0 0 0 0 0 0 0 0 0 0 0 0 0 0 0 .4 0"/><feOffset dx="4.0" dy="4.0" in="blurOut2" result="blurOut3"/><feBlend in="SourceGraphic" in2="blurOut3" mode="normal"/></filter></defs><g><!--MD5=[0f9766fe7128e1e07413e6b08c2ddde2]
class CutObjectCommand--><rect fill="#FEFECE" filter="url(#fiiy4tinaclvn)" height="86.4141" id="CutObjectCommand" style="stroke: #A80036; stroke-width: 1.5;" width="178" x="152.96" y="116"/><ellipse cx="178.31" cy="132" fill="#ADD1B2" rx="11" ry="11" style="stroke: #A80036; stroke-width: 1.0;"/><path d="M181.2788,137.6406 Q180.7006,137.9375 180.06,138.0781 Q179.4194,138.2344 178.7163,138.2344 Q176.2163,138.2344 174.8881,136.5938 Q173.5756,134.9375 173.5756,131.8125 Q173.5756,128.6875 174.8881,127.0313 Q176.2163,125.375 178.7163,125.375 Q179.4194,125.375 180.06,125.5313 Q180.7163,125.6875 181.2788,125.9844 L181.2788,128.7031 Q180.6538,128.125 180.06,127.8594 Q179.4663,127.5781 178.8413,127.5781 Q177.4975,127.5781 176.81,128.6563 Q176.1225,129.7188 176.1225,131.8125 Q176.1225,133.9063 176.81,134.9844 Q177.4975,136.0469 178.8413,136.0469 Q179.4663,136.0469 180.06,135.7813 Q180.6538,135.5 181.2788,134.9219 L181.2788,137.6406 Z "/><text fill="#000000" font-family="sans-serif" font-size="12" lengthAdjust="spacingAndGlyphs" textLength="123" x="194.61" y="136.1543">CutObjectCommand</text><line style="stroke: #A80036; stroke-width: 1.5;" x1="153.96" x2="329.96" y1="148" y2="148"/><line style="stroke: #A80036; stroke-width: 1.5;" x1="153.96" x2="329.96" y1="156" y2="156"/><ellipse cx="163.96" cy="167" fill="#84BE84" rx="3" ry="3" style="stroke: #038048; stroke-width: 1.0;"/><text fill="#000000" font-family="sans-serif" font-size="11" lengthAdjust="spacingAndGlyphs" textLength="152" x="172.96" y="170.2104">«override» Execute() : void</text><ellipse cx="163.96" cy="179.8047" fill="#84BE84" rx="3" ry="3" style="stroke: #038048; stroke-width: 1.0;"/><text fill="#000000" font-family="sans-serif" font-size="11" lengthAdjust="spacingAndGlyphs" textLength="137" x="172.96" y="183.0151">«override» Undo() : void</text><ellipse cx="163.96" cy="192.6094" fill="#84BE84" rx="3" ry="3" style="stroke: #038048; stroke-width: 1.0;"/><text fill="#000000" font-family="sans-serif" font-size="11" lengthAdjust="spacingAndGlyphs" textLength="136" x="172.96" y="195.8198">«override» Redo() : void</text><!--MD5=[5afa9872f8a3e7e6502e04d57f103471]
class BaseObjectCommands--><rect fill="#FEFECE" filter="url(#fiiy4tinaclvn)" height="48" id="BaseObjectCommands" style="stroke: #A80036; stroke-width: 1.5;" width="172" x="155.96" y="8"/><ellipse cx="170.96" cy="24" fill="#ADD1B2" rx="11" ry="11" style="stroke: #A80036; stroke-width: 1.0;"/><path d="M173.9288,29.6406 Q173.3506,29.9375 172.71,30.0781 Q172.0694,30.2344 171.3663,30.2344 Q168.8663,30.2344 167.5381,28.5938 Q166.2256,26.9375 166.2256,23.8125 Q166.2256,20.6875 167.5381,19.0313 Q168.8663,17.375 171.3663,17.375 Q172.0694,17.375 172.71,17.5313 Q173.3663,17.6875 173.9288,17.9844 L173.9288,20.7031 Q173.3038,20.125 172.71,19.8594 Q172.1163,19.5781 171.4913,19.5781 Q170.1475,19.5781 169.46,20.6563 Q168.7725,21.7188 168.7725,23.8125 Q168.7725,25.9063 169.46,26.9844 Q170.1475,28.0469 171.4913,28.0469 Q172.1163,28.0469 172.71,27.7813 Q173.3038,27.5 173.9288,26.9219 L173.9288,29.6406 Z "/><text fill="#000000" font-family="sans-serif" font-size="12" lengthAdjust="spacingAndGlyphs" textLength="140" x="184.96" y="28.1543">BaseObjectCommands</text><line style="stroke: #A80036; stroke-width: 1.5;" x1="156.96" x2="326.96" y1="40" y2="40"/><line style="stroke: #A80036; stroke-width: 1.5;" x1="156.96" x2="326.96" y1="48" y2="48"/><!--MD5=[da2004fdc20347367b467d0f0feb1b81]
class CopyObjectCommand--><rect fill="#FEFECE" filter="url(#fiiy4tinaclvn)" height="48" id="CopyObjectCommand" style="stroke: #A80036; stroke-width: 1.5;" width="164" x="57.96" y="262"/><ellipse cx="72.96" cy="278" fill="#ADD1B2" rx="11" ry="11" style="stroke: #A80036; stroke-width: 1.0;"/><path d="M75.9288,283.6406 Q75.3506,283.9375 74.71,284.0781 Q74.0694,284.2344 73.3663,284.2344 Q70.8663,284.2344 69.5381,282.5938 Q68.2256,280.9375 68.2256,277.8125 Q68.2256,274.6875 69.5381,273.0313 Q70.8663,271.375 73.3663,271.375 Q74.0694,271.375 74.71,271.5313 Q75.3663,271.6875 75.9288,271.9844 L75.9288,274.7031 Q75.3038,274.125 74.71,273.8594 Q74.1163,273.5781 73.4913,273.5781 Q72.1475,273.5781 71.46,274.6563 Q70.7725,275.7188 70.7725,277.8125 Q70.7725,279.9063 71.46,280.9844 Q72.1475,282.0469 73.4913,282.0469 Q74.1163,282.0469 74.71,281.7813 Q75.3038,281.5 75.9288,280.9219 L75.9288,283.6406 Z "/><text fill="#000000" font-family="sans-serif" font-size="12" lengthAdjust="spacingAndGlyphs" textLength="132" x="86.96" y="282.1543">CopyObjectCommand</text><line style="stroke: #A80036; stroke-width: 1.5;" x1="58.96" x2="220.96" y1="294" y2="294"/><line style="stroke: #A80036; stroke-width: 1.5;" x1="58.96" x2="220.96" y1="302" y2="302"/><!--MD5=[f6d373cc2b93e6906d95e86a705f20d5]
class DeleteObjectCommand--><rect fill="#FEFECE" filter="url(#fiiy4tinaclvn)" height="48" id="DeleteObjectCommand" style="stroke: #A80036; stroke-width: 1.5;" width="175" x="257.46" y="262"/><ellipse cx="272.46" cy="278" fill="#ADD1B2" rx="11" ry="11" style="stroke: #A80036; stroke-width: 1.0;"/><path d="M275.4288,283.6406 Q274.8506,283.9375 274.21,284.0781 Q273.5694,284.2344 272.8663,284.2344 Q270.3663,284.2344 269.0381,282.5938 Q267.7256,280.9375 267.7256,277.8125 Q267.7256,274.6875 269.0381,273.0313 Q270.3663,271.375 272.8663,271.375 Q273.5694,271.375 274.21,271.5313 Q274.8663,271.6875 275.4288,271.9844 L275.4288,274.7031 Q274.8038,274.125 274.21,273.8594 Q273.6163,273.5781 272.9913,273.5781 Q271.6475,273.5781 270.96,274.6563 Q270.2725,275.7188 270.2725,277.8125 Q270.2725,279.9063 270.96,280.9844 Q271.6475,282.0469 272.9913,282.0469 Q273.6163,282.0469 274.21,281.7813 Q274.8038,281.5 275.4288,280.9219 L275.4288,283.6406 Z "/><text fill="#000000" font-family="sans-serif" font-size="12" lengthAdjust="spacingAndGlyphs" textLength="143" x="286.46" y="282.1543">DeleteObjectCommand</text><line style="stroke: #A80036; stroke-width: 1.5;" x1="258.46" x2="431.46" y1="294" y2="294"/><line style="stroke: #A80036; stroke-width: 1.5;" x1="258.46" x2="431.46" y1="302" y2="302"/><!--MD5=[d6f3c4783222960f266b1cf33efadd28]
reverse link BaseObjectCommands to CutObjectCommand--><path d="M241.96,76.27 C241.96,89.12 241.96,103.17 241.96,115.94 " fill="none" id="BaseObjectCommands&lt;-CutObjectCommand" style="stroke: #A80036; stroke-width: 1.0;"/><polygon fill="none" points="234.96,76.22,241.96,56.22,248.96,76.22,234.96,76.22" style="stroke: #A80036; stroke-width: 1.0;"/><!--MD5=[ffd17977f445fe13cc6b7baefad2fafe]
link CutObjectCommand to CopyObjectCommand--><path d="M207.43,202.32 C192.51,220.6 175.49,241.46 162.27,257.66 " fill="none" id="CutObjectCommand-&gt;CopyObjectCommand" style="stroke: #A80036; stroke-width: 1.0;"/><polygon fill="#A80036" points="159,261.67,167.7878,257.2232,162.16,257.7951,161.588,252.1673,159,261.67" style="stroke: #A80036; stroke-width: 1.0;"/><text fill="#000000" font-family="sans-serif" font-size="13" lengthAdjust="spacingAndGlyphs" textLength="138" x="8.8222" y="250.9945">copyObjectCommand</text><!--MD5=[28ecb77355dacd345db6e2a8e7952547]
link CutObjectCommand to DeleteObjectCommand--><path d="M276.84,202.32 C291.9,220.6 309.09,241.46 322.44,257.66 " fill="none" id="CutObjectCommand-&gt;DeleteObjectCommand" style="stroke: #A80036; stroke-width: 1.0;"/><polygon fill="#A80036" points="325.74,261.67,323.0928,252.1836,322.556,257.8149,316.9246,257.278,325.74,261.67" style="stroke: #A80036; stroke-width: 1.0;"/><text fill="#000000" font-family="sans-serif" font-size="13" lengthAdjust="spacingAndGlyphs" textLength="148" x="204.8833" y="250.9328">deleteObjectCommand</text><!--MD5=[459bab865f0f393fcf327d3233e36cce]
@startuml
class CutObjectCommand {
    + <<override>> Execute() : void
    + <<override>> Undo() : void
    + <<override>> Redo() : void
}
BaseObjectCommands <|- - CutObjectCommand
CutObjectCommand - -> "copyObjectCommand" CopyObjectCommand
CutObjectCommand - -> "deleteObjectCommand" DeleteObjectCommand
@enduml

PlantUML version 1.2020.02(Sun Mar 01 10:22:07 GMT 2020)
(GPL source distribution)
Java Runtime: OpenJDK Runtime Environment
JVM: OpenJDK 64-Bit Server VM
Java Version: 11.0.9+11-Ubuntu-0ubuntu1
Operating System: Linux
Default Encoding: ANSI_X3.4-1968
Language: en
Country: US
--></g></svg>