<?xml version="1.0" encoding="UTF-8" standalone="no"?><svg xmlns="http://www.w3.org/2000/svg" xmlns:xlink="http://www.w3.org/1999/xlink" contentScriptType="application/ecmascript" contentStyleType="text/css" height="347px" preserveAspectRatio="none" style="width:557px;height:347px;" version="1.1" viewBox="0 0 557 347" width="557px" zoomAndPan="magnify"><defs><filter height="300%" id="f19p3mwcbg0y5g" width="300%" x="-1" y="-1"><feGaussianBlur result="blurOut" stdDeviation="2.0"/><feColorMatrix in="blurOut" result="blurOut2" type="matrix" values="0 0 0 0 0 0 0 0 0 0 0 0 0 0 0 0 0 0 .4 0"/><feOffset dx="4.0" dy="4.0" in="blurOut2" result="blurOut3"/><feBlend in="SourceGraphic" in2="blurOut3" mode="normal"/></filter></defs><g><!--MD5=[f6d373cc2b93e6906d95e86a705f20d5]
class DeleteObjectCommand--><rect fill="#FEFECE" filter="url(#f19p3mwcbg0y5g)" height="112.0234" id="DeleteObjectCommand" style="stroke: #A80036; stroke-width: 1.5;" width="218" x="148.18" y="116"/><ellipse cx="182.53" cy="132" fill="#ADD1B2" rx="11" ry="11" style="stroke: #A80036; stroke-width: 1.0;"/><path d="M185.4988,137.6406 Q184.9206,137.9375 184.28,138.0781 Q183.6394,138.2344 182.9363,138.2344 Q180.4363,138.2344 179.1081,136.5938 Q177.7956,134.9375 177.7956,131.8125 Q177.7956,128.6875 179.1081,127.0313 Q180.4363,125.375 182.9363,125.375 Q183.6394,125.375 184.28,125.5313 Q184.9363,125.6875 185.4988,125.9844 L185.4988,128.7031 Q184.8738,128.125 184.28,127.8594 Q183.6863,127.5781 183.0613,127.5781 Q181.7175,127.5781 181.03,128.6563 Q180.3425,129.7188 180.3425,131.8125 Q180.3425,133.9063 181.03,134.9844 Q181.7175,136.0469 183.0613,136.0469 Q183.6863,136.0469 184.28,135.7813 Q184.8738,135.5 185.4988,134.9219 L185.4988,137.6406 Z "/><text fill="#000000" font-family="sans-serif" font-size="12" lengthAdjust="spacingAndGlyphs" textLength="143" x="200.83" y="136.1543">DeleteObjectCommand</text><line style="stroke: #A80036; stroke-width: 1.5;" x1="149.18" x2="365.18" y1="148" y2="148"/><line style="stroke: #A80036; stroke-width: 1.5;" x1="149.18" x2="365.18" y1="156" y2="156"/><ellipse cx="159.18" cy="167" fill="#84BE84" rx="3" ry="3" style="stroke: #038048; stroke-width: 1.0;"/><text fill="#000000" font-family="sans-serif" font-size="11" lengthAdjust="spacingAndGlyphs" textLength="152" x="168.18" y="170.2104">«override» Execute() : void</text><ellipse cx="159.18" cy="179.8047" fill="#84BE84" rx="3" ry="3" style="stroke: #038048; stroke-width: 1.0;"/><text fill="#000000" font-family="sans-serif" font-size="11" lengthAdjust="spacingAndGlyphs" textLength="137" x="168.18" y="183.0151">«override» Undo() : void</text><ellipse cx="159.18" cy="192.6094" fill="#84BE84" rx="3" ry="3" style="stroke: #038048; stroke-width: 1.0;"/><text fill="#000000" font-family="sans-serif" font-size="11" lengthAdjust="spacingAndGlyphs" textLength="136" x="168.18" y="195.8198">«override» Redo() : void</text><ellipse cx="159.18" cy="205.4141" fill="#84BE84" rx="3" ry="3" style="stroke: #038048; stroke-width: 1.0;"/><text fill="#000000" font-family="sans-serif" font-size="11" lengthAdjust="spacingAndGlyphs" textLength="192" x="168.18" y="208.6245">«override» ClearFirstUndo() : void</text><ellipse cx="159.18" cy="218.2188" fill="#84BE84" rx="3" ry="3" style="stroke: #038048; stroke-width: 1.0;"/><text fill="#000000" font-family="sans-serif" font-size="11" lengthAdjust="spacingAndGlyphs" textLength="166" x="168.18" y="221.4292">«override» ClearRedo() : void</text><!--MD5=[500abf91d043834fcdd772523ff9273e]
class Stack`1--><rect fill="#FEFECE" filter="url(#f19p3mwcbg0y5g)" height="48" id="Stack`1" style="stroke: #A80036; stroke-width: 1.5;" width="92" x="141.18" y="288"/><ellipse cx="156.18" cy="304" fill="#ADD1B2" rx="11" ry="11" style="stroke: #A80036; stroke-width: 1.0;"/><path d="M159.1488,309.6406 Q158.5706,309.9375 157.93,310.0781 Q157.2894,310.2344 156.5863,310.2344 Q154.0863,310.2344 152.7581,308.5938 Q151.4456,306.9375 151.4456,303.8125 Q151.4456,300.6875 152.7581,299.0313 Q154.0863,297.375 156.5863,297.375 Q157.2894,297.375 157.93,297.5313 Q158.5863,297.6875 159.1488,297.9844 L159.1488,300.7031 Q158.5238,300.125 157.93,299.8594 Q157.3363,299.5781 156.7113,299.5781 Q155.3675,299.5781 154.68,300.6563 Q153.9925,301.7188 153.9925,303.8125 Q153.9925,305.9063 154.68,306.9844 Q155.3675,308.0469 156.7113,308.0469 Q157.3363,308.0469 157.93,307.7813 Q158.5238,307.5 159.1488,306.9219 L159.1488,309.6406 Z "/><text fill="#000000" font-family="sans-serif" font-size="12" lengthAdjust="spacingAndGlyphs" textLength="49" x="170.18" y="308.1543">Stack`1</text><rect fill="#FFFFFF" height="15.9688" style="stroke: #000000; stroke-width: 1.0; stroke-dasharray: 2.0,2.0;" width="9" x="227.18" y="285"/><text fill="#000000" font-family="sans-serif" font-size="12" font-style="italic" lengthAdjust="spacingAndGlyphs" textLength="7" x="228.18" y="297.1387">T</text><line style="stroke: #A80036; stroke-width: 1.5;" x1="142.18" x2="232.18" y1="320" y2="320"/><line style="stroke: #A80036; stroke-width: 1.5;" x1="142.18" x2="232.18" y1="328" y2="328"/><!--MD5=[92d1d42b41ac56e5f57f4bc2f2e7fa06]
class LinkedList`1--><rect fill="#FEFECE" filter="url(#f19p3mwcbg0y5g)" height="48" id="LinkedList`1" style="stroke: #A80036; stroke-width: 1.5;" width="118" x="268.18" y="288"/><ellipse cx="283.18" cy="304" fill="#ADD1B2" rx="11" ry="11" style="stroke: #A80036; stroke-width: 1.0;"/><path d="M286.1488,309.6406 Q285.5706,309.9375 284.93,310.0781 Q284.2894,310.2344 283.5863,310.2344 Q281.0863,310.2344 279.7581,308.5938 Q278.4456,306.9375 278.4456,303.8125 Q278.4456,300.6875 279.7581,299.0313 Q281.0863,297.375 283.5863,297.375 Q284.2894,297.375 284.93,297.5313 Q285.5863,297.6875 286.1488,297.9844 L286.1488,300.7031 Q285.5238,300.125 284.93,299.8594 Q284.3363,299.5781 283.7113,299.5781 Q282.3675,299.5781 281.68,300.6563 Q280.9925,301.7188 280.9925,303.8125 Q280.9925,305.9063 281.68,306.9844 Q282.3675,308.0469 283.7113,308.0469 Q284.3363,308.0469 284.93,307.7813 Q285.5238,307.5 286.1488,306.9219 L286.1488,309.6406 Z "/><text fill="#000000" font-family="sans-serif" font-size="12" lengthAdjust="spacingAndGlyphs" textLength="75" x="297.18" y="308.1543">LinkedList`1</text><rect fill="#FFFFFF" height="15.9688" style="stroke: #000000; stroke-width: 1.0; stroke-dasharray: 2.0,2.0;" width="9" x="380.18" y="285"/><text fill="#000000" font-family="sans-serif" font-size="12" font-style="italic" lengthAdjust="spacingAndGlyphs" textLength="7" x="381.18" y="297.1387">T</text><line style="stroke: #A80036; stroke-width: 1.5;" x1="269.18" x2="385.18" y1="320" y2="320"/><line style="stroke: #A80036; stroke-width: 1.5;" x1="269.18" x2="385.18" y1="328" y2="328"/><!--MD5=[5afa9872f8a3e7e6502e04d57f103471]
class BaseObjectCommands--><rect fill="#FEFECE" filter="url(#f19p3mwcbg0y5g)" height="48" id="BaseObjectCommands" style="stroke: #A80036; stroke-width: 1.5;" width="172" x="171.18" y="8"/><ellipse cx="186.18" cy="24" fill="#ADD1B2" rx="11" ry="11" style="stroke: #A80036; stroke-width: 1.0;"/><path d="M189.1488,29.6406 Q188.5706,29.9375 187.93,30.0781 Q187.2894,30.2344 186.5863,30.2344 Q184.0863,30.2344 182.7581,28.5938 Q181.4456,26.9375 181.4456,23.8125 Q181.4456,20.6875 182.7581,19.0313 Q184.0863,17.375 186.5863,17.375 Q187.2894,17.375 187.93,17.5313 Q188.5863,17.6875 189.1488,17.9844 L189.1488,20.7031 Q188.5238,20.125 187.93,19.8594 Q187.3363,19.5781 186.7113,19.5781 Q185.3675,19.5781 184.68,20.6563 Q183.9925,21.7188 183.9925,23.8125 Q183.9925,25.9063 184.68,26.9844 Q185.3675,28.0469 186.7113,28.0469 Q187.3363,28.0469 187.93,27.7813 Q188.5238,27.5 189.1488,26.9219 L189.1488,29.6406 Z "/><text fill="#000000" font-family="sans-serif" font-size="12" lengthAdjust="spacingAndGlyphs" textLength="140" x="200.18" y="28.1543">BaseObjectCommands</text><line style="stroke: #A80036; stroke-width: 1.5;" x1="172.18" x2="342.18" y1="40" y2="40"/><line style="stroke: #A80036; stroke-width: 1.5;" x1="172.18" x2="342.18" y1="48" y2="48"/><!--MD5=[bbdc85f3409392f7a9110c8a18cf981d]
reverse link BaseObjectCommands to DeleteObjectCommand--><path d="M257.18,76.25 C257.18,88.82 257.18,102.73 257.18,115.93 " fill="none" id="BaseObjectCommands&lt;-DeleteObjectCommand" style="stroke: #A80036; stroke-width: 1.0;"/><polygon fill="none" points="250.18,76.1,257.18,56.1,264.18,76.1,250.18,76.1" style="stroke: #A80036; stroke-width: 1.0;"/><!--MD5=[1944cedb176dd1432a42c011954fc685]
link DeleteObjectCommand to Stack`1--><path d="M229.11,228.33 C219.6,247.09 209.37,267.25 201.4,282.96 " fill="none" id="DeleteObjectCommand-&gt;Stack`1" style="stroke: #A80036; stroke-width: 1.0;"/><polygon fill="#A80036" points="199,287.69,206.6504,281.4874,201.2703,283.2351,199.5226,277.855,199,287.69" style="stroke: #A80036; stroke-width: 1.0;"/><text fill="#000000" font-family="sans-serif" font-size="13" lengthAdjust="spacingAndGlyphs" textLength="178" x="2.1874" y="277.0194">redoStack&lt;SceneObject[]&gt;</text><!--MD5=[c1da7ea780d43e0a50ad26e2abc025af]
link DeleteObjectCommand to LinkedList`1--><path d="M285.25,228.33 C294.76,247.09 304.99,267.25 312.96,282.96 " fill="none" id="DeleteObjectCommand-&gt;LinkedList`1" style="stroke: #A80036; stroke-width: 1.0;"/><polygon fill="#A80036" points="315.35,287.69,314.8274,277.855,313.0797,283.2351,307.6996,281.4874,315.35,287.69" style="stroke: #A80036; stroke-width: 1.0;"/><text fill="#000000" font-family="sans-serif" font-size="13" lengthAdjust="spacingAndGlyphs" textLength="208" x="337.8164" y="277.0194">undoLinkedList&lt;SceneObject[]&gt;</text><!--MD5=[8a5d1384792005bb50fa61c22078119d]
@startuml
class DeleteObjectCommand {
    + <<override>> Execute() : void
    + <<override>> Undo() : void
    + <<override>> Redo() : void
    + <<override>> ClearFirstUndo() : void
    + <<override>> ClearRedo() : void
}
class "Stack`1"<T> {
}
class "LinkedList`1"<T> {
}
BaseObjectCommands <|- - DeleteObjectCommand
DeleteObjectCommand - -> "redoStack<SceneObject[]>" "Stack`1"
DeleteObjectCommand - -> "undoLinkedList<SceneObject[]>" "LinkedList`1"
@enduml

PlantUML version 1.2020.02(Sun Mar 01 10:22:07 GMT 2020)
(GPL source distribution)
Java Runtime: OpenJDK Runtime Environment
JVM: OpenJDK 64-Bit Server VM
Java Version: 11.0.9+11-Ubuntu-0ubuntu1
Operating System: Linux
Default Encoding: ANSI_X3.4-1968
Language: en
Country: US
--></g></svg>