<?xml version="1.0" encoding="UTF-8" standalone="no"?><svg xmlns="http://www.w3.org/2000/svg" xmlns:xlink="http://www.w3.org/1999/xlink" contentScriptType="application/ecmascript" contentStyleType="text/css" height="360px" preserveAspectRatio="none" style="width:720px;height:360px;" version="1.1" viewBox="0 0 720 360" width="720px" zoomAndPan="magnify"><defs><filter height="300%" id="f17bo9k7pqy1ah" width="300%" x="-1" y="-1"><feGaussianBlur result="blurOut" stdDeviation="2.0"/><feColorMatrix in="blurOut" result="blurOut2" type="matrix" values="0 0 0 0 0 0 0 0 0 0 0 0 0 0 0 0 0 0 .4 0"/><feOffset dx="4.0" dy="4.0" in="blurOut2" result="blurOut3"/><feBlend in="SourceGraphic" in2="blurOut3" mode="normal"/></filter></defs><g><!--MD5=[76aa093ffa64dcf55a9b326eaaf0e872]
class DeselectObjectCommand--><rect fill="#FEFECE" filter="url(#f17bo9k7pqy1ah)" height="124.8281" id="DeselectObjectCommand" style="stroke: #A80036; stroke-width: 1.5;" width="391" x="151.15" y="116"/><ellipse cx="263.9" cy="132" fill="#ADD1B2" rx="11" ry="11" style="stroke: #A80036; stroke-width: 1.0;"/><path d="M266.8688,137.6406 Q266.2906,137.9375 265.65,138.0781 Q265.0094,138.2344 264.3063,138.2344 Q261.8063,138.2344 260.4781,136.5938 Q259.1656,134.9375 259.1656,131.8125 Q259.1656,128.6875 260.4781,127.0313 Q261.8063,125.375 264.3063,125.375 Q265.0094,125.375 265.65,125.5313 Q266.3063,125.6875 266.8688,125.9844 L266.8688,128.7031 Q266.2438,128.125 265.65,127.8594 Q265.0563,127.5781 264.4313,127.5781 Q263.0875,127.5781 262.4,128.6563 Q261.7125,129.7188 261.7125,131.8125 Q261.7125,133.9063 262.4,134.9844 Q263.0875,136.0469 264.4313,136.0469 Q265.0563,136.0469 265.65,135.7813 Q266.2438,135.5 266.8688,134.9219 L266.8688,137.6406 Z "/><text fill="#000000" font-family="sans-serif" font-size="12" lengthAdjust="spacingAndGlyphs" textLength="157" x="284.4" y="136.1543">DeselectObjectCommand</text><line style="stroke: #A80036; stroke-width: 1.5;" x1="152.15" x2="541.15" y1="148" y2="148"/><line style="stroke: #A80036; stroke-width: 1.5;" x1="152.15" x2="541.15" y1="156" y2="156"/><ellipse cx="162.15" cy="167" fill="#84BE84" rx="3" ry="3" style="stroke: #038048; stroke-width: 1.0;"/><text fill="#000000" font-family="sans-serif" font-size="11" lengthAdjust="spacingAndGlyphs" textLength="152" x="171.15" y="170.2104">«override» Execute() : void</text><ellipse cx="162.15" cy="179.8047" fill="#84BE84" rx="3" ry="3" style="stroke: #038048; stroke-width: 1.0;"/><text fill="#000000" font-family="sans-serif" font-size="11" lengthAdjust="spacingAndGlyphs" textLength="137" x="171.15" y="183.0151">«override» Undo() : void</text><ellipse cx="162.15" cy="192.6094" fill="#84BE84" rx="3" ry="3" style="stroke: #038048; stroke-width: 1.0;"/><text fill="#000000" font-family="sans-serif" font-size="11" lengthAdjust="spacingAndGlyphs" textLength="136" x="171.15" y="195.8198">«override» Redo() : void</text><ellipse cx="162.15" cy="205.4141" fill="#84BE84" rx="3" ry="3" style="stroke: #038048; stroke-width: 1.0;"/><text fill="#000000" font-family="sans-serif" font-size="11" lengthAdjust="spacingAndGlyphs" textLength="192" x="171.15" y="208.6245">«override» ClearFirstUndo() : void</text><ellipse cx="162.15" cy="218.2188" fill="#84BE84" rx="3" ry="3" style="stroke: #038048; stroke-width: 1.0;"/><text fill="#000000" font-family="sans-serif" font-size="11" lengthAdjust="spacingAndGlyphs" textLength="166" x="171.15" y="221.4292">«override» ClearRedo() : void</text><ellipse cx="162.15" cy="231.0234" fill="#84BE84" rx="3" ry="3" style="stroke: #038048; stroke-width: 1.0;"/><text fill="#000000" font-family="sans-serif" font-size="11" lengthAdjust="spacingAndGlyphs" textLength="365" x="171.15" y="234.2339">InitializePreDeselected(preDeselected:List&lt;SceneObject&gt;) : void</text><!--MD5=[92d1d42b41ac56e5f57f4bc2f2e7fa06]
class LinkedList`1--><rect fill="#FEFECE" filter="url(#f17bo9k7pqy1ah)" height="48" id="LinkedList`1" style="stroke: #A80036; stroke-width: 1.5;" width="118" x="147.65" y="301"/><ellipse cx="162.65" cy="317" fill="#ADD1B2" rx="11" ry="11" style="stroke: #A80036; stroke-width: 1.0;"/><path d="M165.6188,322.6406 Q165.0406,322.9375 164.4,323.0781 Q163.7594,323.2344 163.0563,323.2344 Q160.5563,323.2344 159.2281,321.5938 Q157.9156,319.9375 157.9156,316.8125 Q157.9156,313.6875 159.2281,312.0313 Q160.5563,310.375 163.0563,310.375 Q163.7594,310.375 164.4,310.5313 Q165.0563,310.6875 165.6188,310.9844 L165.6188,313.7031 Q164.9938,313.125 164.4,312.8594 Q163.8063,312.5781 163.1813,312.5781 Q161.8375,312.5781 161.15,313.6563 Q160.4625,314.7188 160.4625,316.8125 Q160.4625,318.9063 161.15,319.9844 Q161.8375,321.0469 163.1813,321.0469 Q163.8063,321.0469 164.4,320.7813 Q164.9938,320.5 165.6188,319.9219 L165.6188,322.6406 Z "/><text fill="#000000" font-family="sans-serif" font-size="12" lengthAdjust="spacingAndGlyphs" textLength="75" x="176.65" y="321.1543">LinkedList`1</text><rect fill="#FFFFFF" height="15.9688" style="stroke: #000000; stroke-width: 1.0; stroke-dasharray: 2.0,2.0;" width="9" x="259.65" y="298"/><text fill="#000000" font-family="sans-serif" font-size="12" font-style="italic" lengthAdjust="spacingAndGlyphs" textLength="7" x="260.65" y="310.1387">T</text><line style="stroke: #A80036; stroke-width: 1.5;" x1="148.65" x2="264.65" y1="333" y2="333"/><line style="stroke: #A80036; stroke-width: 1.5;" x1="148.65" x2="264.65" y1="341" y2="341"/><!--MD5=[500abf91d043834fcdd772523ff9273e]
class Stack`1--><rect fill="#FEFECE" filter="url(#f17bo9k7pqy1ah)" height="48" id="Stack`1" style="stroke: #A80036; stroke-width: 1.5;" width="92" x="300.65" y="301"/><ellipse cx="315.65" cy="317" fill="#ADD1B2" rx="11" ry="11" style="stroke: #A80036; stroke-width: 1.0;"/><path d="M318.6188,322.6406 Q318.0406,322.9375 317.4,323.0781 Q316.7594,323.2344 316.0563,323.2344 Q313.5563,323.2344 312.2281,321.5938 Q310.9156,319.9375 310.9156,316.8125 Q310.9156,313.6875 312.2281,312.0313 Q313.5563,310.375 316.0563,310.375 Q316.7594,310.375 317.4,310.5313 Q318.0563,310.6875 318.6188,310.9844 L318.6188,313.7031 Q317.9938,313.125 317.4,312.8594 Q316.8063,312.5781 316.1813,312.5781 Q314.8375,312.5781 314.15,313.6563 Q313.4625,314.7188 313.4625,316.8125 Q313.4625,318.9063 314.15,319.9844 Q314.8375,321.0469 316.1813,321.0469 Q316.8063,321.0469 317.4,320.7813 Q317.9938,320.5 318.6188,319.9219 L318.6188,322.6406 Z "/><text fill="#000000" font-family="sans-serif" font-size="12" lengthAdjust="spacingAndGlyphs" textLength="49" x="329.65" y="321.1543">Stack`1</text><rect fill="#FFFFFF" height="15.9688" style="stroke: #000000; stroke-width: 1.0; stroke-dasharray: 2.0,2.0;" width="9" x="386.65" y="298"/><text fill="#000000" font-family="sans-serif" font-size="12" font-style="italic" lengthAdjust="spacingAndGlyphs" textLength="7" x="387.65" y="310.1387">T</text><line style="stroke: #A80036; stroke-width: 1.5;" x1="301.65" x2="391.65" y1="333" y2="333"/><line style="stroke: #A80036; stroke-width: 1.5;" x1="301.65" x2="391.65" y1="341" y2="341"/><!--MD5=[e644022de7dea015dd09463c37421447]
class List`1--><rect fill="#FEFECE" filter="url(#f17bo9k7pqy1ah)" height="48" id="List`1" style="stroke: #A80036; stroke-width: 1.5;" width="78" x="427.65" y="301"/><ellipse cx="442.65" cy="317" fill="#ADD1B2" rx="11" ry="11" style="stroke: #A80036; stroke-width: 1.0;"/><path d="M445.6188,322.6406 Q445.0406,322.9375 444.4,323.0781 Q443.7594,323.2344 443.0563,323.2344 Q440.5563,323.2344 439.2281,321.5938 Q437.9156,319.9375 437.9156,316.8125 Q437.9156,313.6875 439.2281,312.0313 Q440.5563,310.375 443.0563,310.375 Q443.7594,310.375 444.4,310.5313 Q445.0563,310.6875 445.6188,310.9844 L445.6188,313.7031 Q444.9938,313.125 444.4,312.8594 Q443.8063,312.5781 443.1813,312.5781 Q441.8375,312.5781 441.15,313.6563 Q440.4625,314.7188 440.4625,316.8125 Q440.4625,318.9063 441.15,319.9844 Q441.8375,321.0469 443.1813,321.0469 Q443.8063,321.0469 444.4,320.7813 Q444.9938,320.5 445.6188,319.9219 L445.6188,322.6406 Z "/><text fill="#000000" font-family="sans-serif" font-size="12" lengthAdjust="spacingAndGlyphs" textLength="35" x="456.65" y="321.1543">List`1</text><rect fill="#FFFFFF" height="15.9688" style="stroke: #000000; stroke-width: 1.0; stroke-dasharray: 2.0,2.0;" width="9" x="499.65" y="298"/><text fill="#000000" font-family="sans-serif" font-size="12" font-style="italic" lengthAdjust="spacingAndGlyphs" textLength="7" x="500.65" y="310.1387">T</text><line style="stroke: #A80036; stroke-width: 1.5;" x1="428.65" x2="504.65" y1="333" y2="333"/><line style="stroke: #A80036; stroke-width: 1.5;" x1="428.65" x2="504.65" y1="341" y2="341"/><!--MD5=[e03d4c2f474ddd868eb5f718b492b09b]
class BaseEditorCommand--><rect fill="#FEFECE" filter="url(#f17bo9k7pqy1ah)" height="48" id="BaseEditorCommand" style="stroke: #A80036; stroke-width: 1.5;" width="162" x="265.65" y="8"/><ellipse cx="280.65" cy="24" fill="#ADD1B2" rx="11" ry="11" style="stroke: #A80036; stroke-width: 1.0;"/><path d="M283.6188,29.6406 Q283.0406,29.9375 282.4,30.0781 Q281.7594,30.2344 281.0563,30.2344 Q278.5563,30.2344 277.2281,28.5938 Q275.9156,26.9375 275.9156,23.8125 Q275.9156,20.6875 277.2281,19.0313 Q278.5563,17.375 281.0563,17.375 Q281.7594,17.375 282.4,17.5313 Q283.0563,17.6875 283.6188,17.9844 L283.6188,20.7031 Q282.9938,20.125 282.4,19.8594 Q281.8063,19.5781 281.1813,19.5781 Q279.8375,19.5781 279.15,20.6563 Q278.4625,21.7188 278.4625,23.8125 Q278.4625,25.9063 279.15,26.9844 Q279.8375,28.0469 281.1813,28.0469 Q281.8063,28.0469 282.4,27.7813 Q282.9938,27.5 283.6188,26.9219 L283.6188,29.6406 Z "/><text fill="#000000" font-family="sans-serif" font-size="12" lengthAdjust="spacingAndGlyphs" textLength="130" x="294.65" y="28.1543">BaseEditorCommand</text><line style="stroke: #A80036; stroke-width: 1.5;" x1="266.65" x2="426.65" y1="40" y2="40"/><line style="stroke: #A80036; stroke-width: 1.5;" x1="266.65" x2="426.65" y1="48" y2="48"/><!--MD5=[3783e72d9ea32e482e5b9d9ffc0683d3]
reverse link BaseEditorCommand to DeselectObjectCommand--><path d="M346.65,76.67 C346.65,89.05 346.65,102.77 346.65,115.99 " fill="none" id="BaseEditorCommand&lt;-DeselectObjectCommand" style="stroke: #A80036; stroke-width: 1.0;"/><polygon fill="none" points="339.65,76.22,346.65,56.22,353.65,76.22,339.65,76.22" style="stroke: #A80036; stroke-width: 1.0;"/><!--MD5=[858ea2bcf482091340ad1f9534f15cea]
link DeselectObjectCommand to LinkedList`1--><path d="M286.88,241.2 C267.97,260.72 248.04,281.28 232.78,297.04 " fill="none" id="DeselectObjectCommand-&gt;LinkedList`1" style="stroke: #A80036; stroke-width: 1.0;"/><polygon fill="#A80036" points="229,300.94,238.1266,297.2379,232.4707,297.3408,232.3678,291.6849,229,300.94" style="stroke: #A80036; stroke-width: 1.0;"/><text fill="#000000" font-family="sans-serif" font-size="13" lengthAdjust="spacingAndGlyphs" textLength="208" x="0.0772" y="289.9367">undoLinkedList&lt;SceneObject[]&gt;</text><!--MD5=[70266e280dfa8e25a3c2150a2b7190b2]
link DeselectObjectCommand to Stack`1--><path d="M346.65,241.2 C346.65,260.22 346.65,280.24 346.65,295.83 " fill="none" id="DeselectObjectCommand-&gt;Stack`1" style="stroke: #A80036; stroke-width: 1.0;"/><polygon fill="#A80036" points="346.65,300.94,350.65,291.94,346.65,295.94,342.65,291.94,346.65,300.94" style="stroke: #A80036; stroke-width: 1.0;"/><text fill="#000000" font-family="sans-serif" font-size="13" lengthAdjust="spacingAndGlyphs" textLength="178" x="369.4434" y="289.8748">redoStack&lt;SceneObject[]&gt;</text><!--MD5=[8a14ae1ffb523fbcd3e5e3c8e6b117a7]
link DeselectObjectCommand to List`1--><path d="M397.89,241.2 C414.1,260.72 431.18,281.28 444.26,297.04 " fill="none" id="DeselectObjectCommand-&gt;List`1" style="stroke: #A80036; stroke-width: 1.0;"/><polygon fill="#A80036" points="447.5,300.94,444.8147,291.4643,444.3005,297.0977,438.667,296.5835,447.5,300.94" style="stroke: #A80036; stroke-width: 1.0;"/><text fill="#000000" font-family="sans-serif" font-size="13" lengthAdjust="spacingAndGlyphs" textLength="196" x="512.5513" y="299.3997">preDeselected&lt;SceneObject&gt;</text><!--MD5=[c1fd43295b8bb25c533ae5ab4cb35ff1]
@startuml
class DeselectObjectCommand {
    + <<override>> Execute() : void
    + <<override>> Undo() : void
    + <<override>> Redo() : void
    + <<override>> ClearFirstUndo() : void
    + <<override>> ClearRedo() : void
    + InitializePreDeselected(preDeselected:List<SceneObject>) : void
}
class "LinkedList`1"<T> {
}
class "Stack`1"<T> {
}
class "List`1"<T> {
}
BaseEditorCommand <|- - DeselectObjectCommand
DeselectObjectCommand - -> "undoLinkedList<SceneObject[]>" "LinkedList`1"
DeselectObjectCommand - -> "redoStack<SceneObject[]>" "Stack`1"
DeselectObjectCommand - -> "preDeselected<SceneObject>" "List`1"
@enduml

PlantUML version 1.2020.02(Sun Mar 01 10:22:07 GMT 2020)
(GPL source distribution)
Java Runtime: OpenJDK Runtime Environment
JVM: OpenJDK 64-Bit Server VM
Java Version: 11.0.9+11-Ubuntu-0ubuntu1
Operating System: Linux
Default Encoding: ANSI_X3.4-1968
Language: en
Country: US
--></g></svg>