<?xml version="1.0" encoding="UTF-8" standalone="no"?><svg xmlns="http://www.w3.org/2000/svg" xmlns:xlink="http://www.w3.org/1999/xlink" contentScriptType="application/ecmascript" contentStyleType="text/css" height="360px" preserveAspectRatio="none" style="width:873px;height:360px;" version="1.1" viewBox="0 0 873 360" width="873px" zoomAndPan="magnify"><defs><filter height="300%" id="f1elbfbuj5tv11" width="300%" x="-1" y="-1"><feGaussianBlur result="blurOut" stdDeviation="2.0"/><feColorMatrix in="blurOut" result="blurOut2" type="matrix" values="0 0 0 0 0 0 0 0 0 0 0 0 0 0 0 0 0 0 .4 0"/><feOffset dx="4.0" dy="4.0" in="blurOut2" result="blurOut3"/><feBlend in="SourceGraphic" in2="blurOut3" mode="normal"/></filter></defs><g><!--MD5=[b7171611c729bbfef8ce8b8824b2c138]
class FlipSelectionObjectCommand--><rect fill="#FEFECE" filter="url(#f1elbfbuj5tv11)" height="124.8281" id="FlipSelectionObjectCommand" style="stroke: #A80036; stroke-width: 1.5;" width="587" x="25.97" y="116"/><ellipse cx="224.72" cy="132" fill="#ADD1B2" rx="11" ry="11" style="stroke: #A80036; stroke-width: 1.0;"/><path d="M227.6888,137.6406 Q227.1106,137.9375 226.47,138.0781 Q225.8294,138.2344 225.1263,138.2344 Q222.6263,138.2344 221.2981,136.5938 Q219.9856,134.9375 219.9856,131.8125 Q219.9856,128.6875 221.2981,127.0313 Q222.6263,125.375 225.1263,125.375 Q225.8294,125.375 226.47,125.5313 Q227.1263,125.6875 227.6888,125.9844 L227.6888,128.7031 Q227.0638,128.125 226.47,127.8594 Q225.8763,127.5781 225.2513,127.5781 Q223.9075,127.5781 223.22,128.6563 Q222.5325,129.7188 222.5325,131.8125 Q222.5325,133.9063 223.22,134.9844 Q223.9075,136.0469 225.2513,136.0469 Q225.8763,136.0469 226.47,135.7813 Q227.0638,135.5 227.6888,134.9219 L227.6888,137.6406 Z "/><text fill="#000000" font-family="sans-serif" font-size="12" lengthAdjust="spacingAndGlyphs" textLength="181" x="245.22" y="136.1543">FlipSelectionObjectCommand</text><line style="stroke: #A80036; stroke-width: 1.5;" x1="26.97" x2="611.97" y1="148" y2="148"/><line style="stroke: #A80036; stroke-width: 1.5;" x1="26.97" x2="611.97" y1="156" y2="156"/><ellipse cx="36.97" cy="167" fill="#84BE84" rx="3" ry="3" style="stroke: #038048; stroke-width: 1.0;"/><text fill="#000000" font-family="sans-serif" font-size="11" lengthAdjust="spacingAndGlyphs" textLength="152" x="45.97" y="170.2104">«override» Execute() : void</text><ellipse cx="36.97" cy="179.8047" fill="#84BE84" rx="3" ry="3" style="stroke: #038048; stroke-width: 1.0;"/><text fill="#000000" font-family="sans-serif" font-size="11" lengthAdjust="spacingAndGlyphs" textLength="137" x="45.97" y="183.0151">«override» Undo() : void</text><ellipse cx="36.97" cy="192.6094" fill="#84BE84" rx="3" ry="3" style="stroke: #038048; stroke-width: 1.0;"/><text fill="#000000" font-family="sans-serif" font-size="11" lengthAdjust="spacingAndGlyphs" textLength="136" x="45.97" y="195.8198">«override» Redo() : void</text><ellipse cx="36.97" cy="205.4141" fill="#84BE84" rx="3" ry="3" style="stroke: #038048; stroke-width: 1.0;"/><text fill="#000000" font-family="sans-serif" font-size="11" lengthAdjust="spacingAndGlyphs" textLength="192" x="45.97" y="208.6245">«override» ClearFirstUndo() : void</text><ellipse cx="36.97" cy="218.2188" fill="#84BE84" rx="3" ry="3" style="stroke: #038048; stroke-width: 1.0;"/><text fill="#000000" font-family="sans-serif" font-size="11" lengthAdjust="spacingAndGlyphs" textLength="166" x="45.97" y="221.4292">«override» ClearRedo() : void</text><ellipse cx="36.97" cy="231.0234" fill="#84BE84" rx="3" ry="3" style="stroke: #038048; stroke-width: 1.0;"/><text fill="#000000" font-family="sans-serif" font-size="11" lengthAdjust="spacingAndGlyphs" textLength="561" x="45.97" y="234.2339">InitializePreSelected(currentlySelected:List&lt;SceneObject&gt;, newSelected:List&lt;SceneObject&gt;) : void</text><!--MD5=[e644022de7dea015dd09463c37421447]
class List`1--><rect fill="#FEFECE" filter="url(#f1elbfbuj5tv11)" height="48" id="List`1" style="stroke: #A80036; stroke-width: 1.5;" width="78" x="647.47" y="154.5"/><ellipse cx="662.47" cy="170.5" fill="#ADD1B2" rx="11" ry="11" style="stroke: #A80036; stroke-width: 1.0;"/><path d="M665.4388,176.1406 Q664.8606,176.4375 664.22,176.5781 Q663.5794,176.7344 662.8763,176.7344 Q660.3763,176.7344 659.0481,175.0938 Q657.7356,173.4375 657.7356,170.3125 Q657.7356,167.1875 659.0481,165.5313 Q660.3763,163.875 662.8763,163.875 Q663.5794,163.875 664.22,164.0313 Q664.8763,164.1875 665.4388,164.4844 L665.4388,167.2031 Q664.8138,166.625 664.22,166.3594 Q663.6263,166.0781 663.0013,166.0781 Q661.6575,166.0781 660.97,167.1563 Q660.2825,168.2188 660.2825,170.3125 Q660.2825,172.4063 660.97,173.4844 Q661.6575,174.5469 663.0013,174.5469 Q663.6263,174.5469 664.22,174.2813 Q664.8138,174 665.4388,173.4219 L665.4388,176.1406 Z "/><text fill="#000000" font-family="sans-serif" font-size="12" lengthAdjust="spacingAndGlyphs" textLength="35" x="676.47" y="174.6543">List`1</text><rect fill="#FFFFFF" height="15.9688" style="stroke: #000000; stroke-width: 1.0; stroke-dasharray: 2.0,2.0;" width="9" x="719.47" y="151.5"/><text fill="#000000" font-family="sans-serif" font-size="12" font-style="italic" lengthAdjust="spacingAndGlyphs" textLength="7" x="720.47" y="163.6387">T</text><line style="stroke: #A80036; stroke-width: 1.5;" x1="648.47" x2="724.47" y1="186.5" y2="186.5"/><line style="stroke: #A80036; stroke-width: 1.5;" x1="648.47" x2="724.47" y1="194.5" y2="194.5"/><!--MD5=[92d1d42b41ac56e5f57f4bc2f2e7fa06]
class LinkedList`1--><rect fill="#FEFECE" filter="url(#f1elbfbuj5tv11)" height="48" id="LinkedList`1" style="stroke: #A80036; stroke-width: 1.5;" width="118" x="190.47" y="301"/><ellipse cx="205.47" cy="317" fill="#ADD1B2" rx="11" ry="11" style="stroke: #A80036; stroke-width: 1.0;"/><path d="M208.4388,322.6406 Q207.8606,322.9375 207.22,323.0781 Q206.5794,323.2344 205.8763,323.2344 Q203.3763,323.2344 202.0481,321.5938 Q200.7356,319.9375 200.7356,316.8125 Q200.7356,313.6875 202.0481,312.0313 Q203.3763,310.375 205.8763,310.375 Q206.5794,310.375 207.22,310.5313 Q207.8763,310.6875 208.4388,310.9844 L208.4388,313.7031 Q207.8138,313.125 207.22,312.8594 Q206.6263,312.5781 206.0013,312.5781 Q204.6575,312.5781 203.97,313.6563 Q203.2825,314.7188 203.2825,316.8125 Q203.2825,318.9063 203.97,319.9844 Q204.6575,321.0469 206.0013,321.0469 Q206.6263,321.0469 207.22,320.7813 Q207.8138,320.5 208.4388,319.9219 L208.4388,322.6406 Z "/><text fill="#000000" font-family="sans-serif" font-size="12" lengthAdjust="spacingAndGlyphs" textLength="75" x="219.47" y="321.1543">LinkedList`1</text><rect fill="#FFFFFF" height="15.9688" style="stroke: #000000; stroke-width: 1.0; stroke-dasharray: 2.0,2.0;" width="9" x="302.47" y="298"/><text fill="#000000" font-family="sans-serif" font-size="12" font-style="italic" lengthAdjust="spacingAndGlyphs" textLength="7" x="303.47" y="310.1387">T</text><line style="stroke: #A80036; stroke-width: 1.5;" x1="191.47" x2="307.47" y1="333" y2="333"/><line style="stroke: #A80036; stroke-width: 1.5;" x1="191.47" x2="307.47" y1="341" y2="341"/><!--MD5=[500abf91d043834fcdd772523ff9273e]
class Stack`1--><rect fill="#FEFECE" filter="url(#f1elbfbuj5tv11)" height="48" id="Stack`1" style="stroke: #A80036; stroke-width: 1.5;" width="92" x="343.47" y="301"/><ellipse cx="358.47" cy="317" fill="#ADD1B2" rx="11" ry="11" style="stroke: #A80036; stroke-width: 1.0;"/><path d="M361.4388,322.6406 Q360.8606,322.9375 360.22,323.0781 Q359.5794,323.2344 358.8763,323.2344 Q356.3763,323.2344 355.0481,321.5938 Q353.7356,319.9375 353.7356,316.8125 Q353.7356,313.6875 355.0481,312.0313 Q356.3763,310.375 358.8763,310.375 Q359.5794,310.375 360.22,310.5313 Q360.8763,310.6875 361.4388,310.9844 L361.4388,313.7031 Q360.8138,313.125 360.22,312.8594 Q359.6263,312.5781 359.0013,312.5781 Q357.6575,312.5781 356.97,313.6563 Q356.2825,314.7188 356.2825,316.8125 Q356.2825,318.9063 356.97,319.9844 Q357.6575,321.0469 359.0013,321.0469 Q359.6263,321.0469 360.22,320.7813 Q360.8138,320.5 361.4388,319.9219 L361.4388,322.6406 Z "/><text fill="#000000" font-family="sans-serif" font-size="12" lengthAdjust="spacingAndGlyphs" textLength="49" x="372.47" y="321.1543">Stack`1</text><rect fill="#FFFFFF" height="15.9688" style="stroke: #000000; stroke-width: 1.0; stroke-dasharray: 2.0,2.0;" width="9" x="429.47" y="298"/><text fill="#000000" font-family="sans-serif" font-size="12" font-style="italic" lengthAdjust="spacingAndGlyphs" textLength="7" x="430.47" y="310.1387">T</text><line style="stroke: #A80036; stroke-width: 1.5;" x1="344.47" x2="434.47" y1="333" y2="333"/><line style="stroke: #A80036; stroke-width: 1.5;" x1="344.47" x2="434.47" y1="341" y2="341"/><!--MD5=[5afa9872f8a3e7e6502e04d57f103471]
class BaseObjectCommands--><rect fill="#FEFECE" filter="url(#f1elbfbuj5tv11)" height="48" id="BaseObjectCommands" style="stroke: #A80036; stroke-width: 1.5;" width="172" x="233.47" y="8"/><ellipse cx="248.47" cy="24" fill="#ADD1B2" rx="11" ry="11" style="stroke: #A80036; stroke-width: 1.0;"/><path d="M251.4388,29.6406 Q250.8606,29.9375 250.22,30.0781 Q249.5794,30.2344 248.8763,30.2344 Q246.3763,30.2344 245.0481,28.5938 Q243.7356,26.9375 243.7356,23.8125 Q243.7356,20.6875 245.0481,19.0313 Q246.3763,17.375 248.8763,17.375 Q249.5794,17.375 250.22,17.5313 Q250.8763,17.6875 251.4388,17.9844 L251.4388,20.7031 Q250.8138,20.125 250.22,19.8594 Q249.6263,19.5781 249.0013,19.5781 Q247.6575,19.5781 246.97,20.6563 Q246.2825,21.7188 246.2825,23.8125 Q246.2825,25.9063 246.97,26.9844 Q247.6575,28.0469 249.0013,28.0469 Q249.6263,28.0469 250.22,27.7813 Q250.8138,27.5 251.4388,26.9219 L251.4388,29.6406 Z "/><text fill="#000000" font-family="sans-serif" font-size="12" lengthAdjust="spacingAndGlyphs" textLength="140" x="262.47" y="28.1543">BaseObjectCommands</text><line style="stroke: #A80036; stroke-width: 1.5;" x1="234.47" x2="404.47" y1="40" y2="40"/><line style="stroke: #A80036; stroke-width: 1.5;" x1="234.47" x2="404.47" y1="48" y2="48"/><!--MD5=[b2d1c912eee0a606d4a2741d8aea4206]
reverse link BaseObjectCommands to FlipSelectionObjectCommand--><path d="M319.47,76.67 C319.47,89.05 319.47,102.77 319.47,115.99 " fill="none" id="BaseObjectCommands&lt;-FlipSelectionObjectCommand" style="stroke: #A80036; stroke-width: 1.0;"/><polygon fill="none" points="312.47,76.22,319.47,56.22,326.47,76.22,312.47,76.22" style="stroke: #A80036; stroke-width: 1.0;"/><!--MD5=[1690077fe8e3ca696264f6210f1078e0]
link FlipSelectionObjectCommand to List`1--><path d="M624.408,204.8283 C624.408,204.8283 631.81,202.28 635.02,201.1 " fill="none" id="FlipSelectionObjectCommand-List`1" style="stroke: #A80036; stroke-width: 1.0;"/><polygon fill="#A80036" points="647.43,196.32,637.5939,195.8182,642.7634,198.1153,640.4664,203.2847,647.43,196.32" style="stroke: #A80036; stroke-width: 1.0;"/><line style="stroke: #A80036; stroke-width: 1.0;" x1="642.7634" x2="635.305" y1="198.1153" y2="200.99"/><polygon fill="#FFFFFF" points="612.99,208.52,619.9296,210.4801,624.408,204.8283,617.4684,202.8681,612.99,208.52" style="stroke: #A80036; stroke-width: 1.0;"/><text fill="#000000" font-family="sans-serif" font-size="13" lengthAdjust="spacingAndGlyphs" textLength="177" x="675.2512" y="222.6667">flipSelected&lt;SceneObject&gt;</text><!--MD5=[1690077fe8e3ca696264f6210f1078e0]
link FlipSelectionObjectCommand to List`1--><path d="M624.408,152.1717 C624.408,152.1717 631.81,154.72 635.02,155.9 " fill="none" id="FlipSelectionObjectCommand-List`1-1" style="stroke: #A80036; stroke-width: 1.0;"/><polygon fill="#A80036" points="647.43,160.68,640.4664,153.7153,642.7634,158.8847,637.5939,161.1818,647.43,160.68" style="stroke: #A80036; stroke-width: 1.0;"/><line style="stroke: #A80036; stroke-width: 1.0;" x1="642.7634" x2="635.305" y1="158.8847" y2="156.01"/><polygon fill="#FFFFFF" points="612.99,148.48,617.4684,154.1319,624.408,152.1717,619.9296,146.5199,612.99,148.48" style="stroke: #A80036; stroke-width: 1.0;"/><text fill="#000000" font-family="sans-serif" font-size="13" lengthAdjust="spacingAndGlyphs" textLength="184" x="677.22" y="143.5417">newSelected&lt;SceneObject&gt;</text><!--MD5=[16473b20291979653412787c45ede904]
link FlipSelectionObjectCommand to LinkedList`1--><path d="M276.95,241.2 C267.29,260.22 258.35,280.24 252.76,295.83 " fill="none" id="FlipSelectionObjectCommand-&gt;LinkedList`1" style="stroke: #A80036; stroke-width: 1.0;"/><polygon fill="#A80036" points="251,300.94,257.7127,293.7331,252.6282,296.2125,250.1488,291.128,251,300.94" style="stroke: #A80036; stroke-width: 1.0;"/><text fill="#000000" font-family="sans-serif" font-size="13" lengthAdjust="spacingAndGlyphs" textLength="230" x="-8.0767" y="289.9367">curUndoLinkedList&lt;SceneObject[]&gt;</text><!--MD5=[16473b20291979653412787c45ede904]
link FlipSelectionObjectCommand to LinkedList`1--><path d="M302.95,241.2 C294.05,260.55 283.33,280.94 273.57,296.64 " fill="none" id="FlipSelectionObjectCommand-&gt;LinkedList`1-1" style="stroke: #A80036; stroke-width: 1.0;"/><polygon fill="#A80036" points="270.84,300.94,279.0286,295.4676,273.5105,296.7129,272.2652,291.1948,270.84,300.94" style="stroke: #A80036; stroke-width: 1.0;"/><text fill="#000000" font-family="sans-serif" font-size="13" lengthAdjust="spacingAndGlyphs" textLength="235" x="306.4793" y="289.8748">newUndoLinkedList&lt;SceneObject[]&gt;</text><!--MD5=[c6f0bea66fa2322ad5050cf112e711ac]
link FlipSelectionObjectCommand to Stack`1--><path d="M336.73,241.2 C345.65,260.55 356.32,280.94 365.96,296.64 " fill="none" id="FlipSelectionObjectCommand-&gt;Stack`1" style="stroke: #A80036; stroke-width: 1.0;"/><polygon fill="#A80036" points="368.65,300.94,367.2632,291.1893,365.9962,296.7024,360.483,295.4354,368.65,300.94" style="stroke: #A80036; stroke-width: 1.0;"/><text fill="#000000" font-family="sans-serif" font-size="13" lengthAdjust="spacingAndGlyphs" textLength="201" x="442.354" y="297.7503">curRedoStack&lt;SceneObject[]&gt;</text><!--MD5=[c6f0bea66fa2322ad5050cf112e711ac]
link FlipSelectionObjectCommand to Stack`1--><path d="M362.73,241.2 C372.41,260.22 381.3,280.24 386.78,295.83 " fill="none" id="FlipSelectionObjectCommand-&gt;Stack`1-1" style="stroke: #A80036; stroke-width: 1.0;"/><polygon fill="#A80036" points="388.5,300.94,389.4133,291.1336,386.9017,296.2023,381.833,293.6908,388.5,300.94" style="stroke: #A80036; stroke-width: 1.0;"/><text fill="#000000" font-family="sans-serif" font-size="13" lengthAdjust="spacingAndGlyphs" textLength="206" x="414.6452" y="289.9367">newRedoStack&lt;SceneObject[]&gt;</text><!--MD5=[6963a248723ad18807c4d6a85cdd932d]
@startuml
class FlipSelectionObjectCommand {
    + <<override>> Execute() : void
    + <<override>> Undo() : void
    + <<override>> Redo() : void
    + <<override>> ClearFirstUndo() : void
    + <<override>> ClearRedo() : void
    + InitializePreSelected(currentlySelected:List<SceneObject>, newSelected:List<SceneObject>) : void
}
class "List`1"<T> {
}
class "LinkedList`1"<T> {
}
class "Stack`1"<T> {
}
BaseObjectCommands <|- - FlipSelectionObjectCommand
FlipSelectionObjectCommand o-> "flipSelected<SceneObject>" "List`1"
FlipSelectionObjectCommand o-> "newSelected<SceneObject>" "List`1"
FlipSelectionObjectCommand - -> "curUndoLinkedList<SceneObject[]>" "LinkedList`1"
FlipSelectionObjectCommand - -> "newUndoLinkedList<SceneObject[]>" "LinkedList`1"
FlipSelectionObjectCommand - -> "curRedoStack<SceneObject[]>" "Stack`1"
FlipSelectionObjectCommand - -> "newRedoStack<SceneObject[]>" "Stack`1"
@enduml

PlantUML version 1.2020.02(Sun Mar 01 10:22:07 GMT 2020)
(GPL source distribution)
Java Runtime: OpenJDK Runtime Environment
JVM: OpenJDK 64-Bit Server VM
Java Version: 11.0.9+11-Ubuntu-0ubuntu1
Operating System: Linux
Default Encoding: ANSI_X3.4-1968
Language: en
Country: US
--></g></svg>