<?xml version="1.0" encoding="UTF-8" standalone="no"?><svg xmlns="http://www.w3.org/2000/svg" xmlns:xlink="http://www.w3.org/1999/xlink" contentScriptType="application/ecmascript" contentStyleType="text/css" height="360px" preserveAspectRatio="none" style="width:902px;height:360px;" version="1.1" viewBox="0 0 902 360" width="902px" zoomAndPan="magnify"><defs><filter height="300%" id="f18yvpfusqqr3e" width="300%" x="-1" y="-1"><feGaussianBlur result="blurOut" stdDeviation="2.0"/><feColorMatrix in="blurOut" result="blurOut2" type="matrix" values="0 0 0 0 0 0 0 0 0 0 0 0 0 0 0 0 0 0 .4 0"/><feOffset dx="4.0" dy="4.0" in="blurOut2" result="blurOut3"/><feBlend in="SourceGraphic" in2="blurOut3" mode="normal"/></filter></defs><g><!--MD5=[2f2af3f680cb8681f27eed15b121524b]
class OverrideSelectObjectCommand--><rect fill="#FEFECE" filter="url(#f18yvpfusqqr3e)" height="124.8281" id="OverrideSelectObjectCommand" style="stroke: #A80036; stroke-width: 1.5;" width="569" x="34.97" y="116"/><ellipse cx="218.72" cy="132" fill="#ADD1B2" rx="11" ry="11" style="stroke: #A80036; stroke-width: 1.0;"/><path d="M221.6888,137.6406 Q221.1106,137.9375 220.47,138.0781 Q219.8294,138.2344 219.1263,138.2344 Q216.6263,138.2344 215.2981,136.5938 Q213.9856,134.9375 213.9856,131.8125 Q213.9856,128.6875 215.2981,127.0313 Q216.6263,125.375 219.1263,125.375 Q219.8294,125.375 220.47,125.5313 Q221.1263,125.6875 221.6888,125.9844 L221.6888,128.7031 Q221.0638,128.125 220.47,127.8594 Q219.8763,127.5781 219.2513,127.5781 Q217.9075,127.5781 217.22,128.6563 Q216.5325,129.7188 216.5325,131.8125 Q216.5325,133.9063 217.22,134.9844 Q217.9075,136.0469 219.2513,136.0469 Q219.8763,136.0469 220.47,135.7813 Q221.0638,135.5 221.6888,134.9219 L221.6888,137.6406 Z "/><text fill="#000000" font-family="sans-serif" font-size="12" lengthAdjust="spacingAndGlyphs" textLength="193" x="239.22" y="136.1543">OverrideSelectObjectCommand</text><line style="stroke: #A80036; stroke-width: 1.5;" x1="35.97" x2="602.97" y1="148" y2="148"/><line style="stroke: #A80036; stroke-width: 1.5;" x1="35.97" x2="602.97" y1="156" y2="156"/><ellipse cx="45.97" cy="167" fill="#84BE84" rx="3" ry="3" style="stroke: #038048; stroke-width: 1.0;"/><text fill="#000000" font-family="sans-serif" font-size="11" lengthAdjust="spacingAndGlyphs" textLength="152" x="54.97" y="170.2104">«override» Execute() : void</text><ellipse cx="45.97" cy="179.8047" fill="#84BE84" rx="3" ry="3" style="stroke: #038048; stroke-width: 1.0;"/><text fill="#000000" font-family="sans-serif" font-size="11" lengthAdjust="spacingAndGlyphs" textLength="137" x="54.97" y="183.0151">«override» Undo() : void</text><ellipse cx="45.97" cy="192.6094" fill="#84BE84" rx="3" ry="3" style="stroke: #038048; stroke-width: 1.0;"/><text fill="#000000" font-family="sans-serif" font-size="11" lengthAdjust="spacingAndGlyphs" textLength="136" x="54.97" y="195.8198">«override» Redo() : void</text><ellipse cx="45.97" cy="205.4141" fill="#84BE84" rx="3" ry="3" style="stroke: #038048; stroke-width: 1.0;"/><text fill="#000000" font-family="sans-serif" font-size="11" lengthAdjust="spacingAndGlyphs" textLength="192" x="54.97" y="208.6245">«override» ClearFirstUndo() : void</text><ellipse cx="45.97" cy="218.2188" fill="#84BE84" rx="3" ry="3" style="stroke: #038048; stroke-width: 1.0;"/><text fill="#000000" font-family="sans-serif" font-size="11" lengthAdjust="spacingAndGlyphs" textLength="166" x="54.97" y="221.4292">«override» ClearRedo() : void</text><ellipse cx="45.97" cy="231.0234" fill="#84BE84" rx="3" ry="3" style="stroke: #038048; stroke-width: 1.0;"/><text fill="#000000" font-family="sans-serif" font-size="11" lengthAdjust="spacingAndGlyphs" textLength="543" x="54.97" y="234.2339">InitializeSelected(currentlySelected:List&lt;SceneObject&gt;, nextSelected:List&lt;SceneObject&gt;) : void</text><!--MD5=[e644022de7dea015dd09463c37421447]
class List`1--><rect fill="#FEFECE" filter="url(#f18yvpfusqqr3e)" height="48" id="List`1" style="stroke: #A80036; stroke-width: 1.5;" width="78" x="639.47" y="154.5"/><ellipse cx="654.47" cy="170.5" fill="#ADD1B2" rx="11" ry="11" style="stroke: #A80036; stroke-width: 1.0;"/><path d="M657.4388,176.1406 Q656.8606,176.4375 656.22,176.5781 Q655.5794,176.7344 654.8763,176.7344 Q652.3763,176.7344 651.0481,175.0938 Q649.7356,173.4375 649.7356,170.3125 Q649.7356,167.1875 651.0481,165.5313 Q652.3763,163.875 654.8763,163.875 Q655.5794,163.875 656.22,164.0313 Q656.8763,164.1875 657.4388,164.4844 L657.4388,167.2031 Q656.8138,166.625 656.22,166.3594 Q655.6263,166.0781 655.0013,166.0781 Q653.6575,166.0781 652.97,167.1563 Q652.2825,168.2188 652.2825,170.3125 Q652.2825,172.4063 652.97,173.4844 Q653.6575,174.5469 655.0013,174.5469 Q655.6263,174.5469 656.22,174.2813 Q656.8138,174 657.4388,173.4219 L657.4388,176.1406 Z "/><text fill="#000000" font-family="sans-serif" font-size="12" lengthAdjust="spacingAndGlyphs" textLength="35" x="668.47" y="174.6543">List`1</text><rect fill="#FFFFFF" height="15.9688" style="stroke: #000000; stroke-width: 1.0; stroke-dasharray: 2.0,2.0;" width="9" x="711.47" y="151.5"/><text fill="#000000" font-family="sans-serif" font-size="12" font-style="italic" lengthAdjust="spacingAndGlyphs" textLength="7" x="712.47" y="163.6387">T</text><line style="stroke: #A80036; stroke-width: 1.5;" x1="640.47" x2="716.47" y1="186.5" y2="186.5"/><line style="stroke: #A80036; stroke-width: 1.5;" x1="640.47" x2="716.47" y1="194.5" y2="194.5"/><!--MD5=[92d1d42b41ac56e5f57f4bc2f2e7fa06]
class LinkedList`1--><rect fill="#FEFECE" filter="url(#f18yvpfusqqr3e)" height="48" id="LinkedList`1" style="stroke: #A80036; stroke-width: 1.5;" width="118" x="190.47" y="301"/><ellipse cx="205.47" cy="317" fill="#ADD1B2" rx="11" ry="11" style="stroke: #A80036; stroke-width: 1.0;"/><path d="M208.4388,322.6406 Q207.8606,322.9375 207.22,323.0781 Q206.5794,323.2344 205.8763,323.2344 Q203.3763,323.2344 202.0481,321.5938 Q200.7356,319.9375 200.7356,316.8125 Q200.7356,313.6875 202.0481,312.0313 Q203.3763,310.375 205.8763,310.375 Q206.5794,310.375 207.22,310.5313 Q207.8763,310.6875 208.4388,310.9844 L208.4388,313.7031 Q207.8138,313.125 207.22,312.8594 Q206.6263,312.5781 206.0013,312.5781 Q204.6575,312.5781 203.97,313.6563 Q203.2825,314.7188 203.2825,316.8125 Q203.2825,318.9063 203.97,319.9844 Q204.6575,321.0469 206.0013,321.0469 Q206.6263,321.0469 207.22,320.7813 Q207.8138,320.5 208.4388,319.9219 L208.4388,322.6406 Z "/><text fill="#000000" font-family="sans-serif" font-size="12" lengthAdjust="spacingAndGlyphs" textLength="75" x="219.47" y="321.1543">LinkedList`1</text><rect fill="#FFFFFF" height="15.9688" style="stroke: #000000; stroke-width: 1.0; stroke-dasharray: 2.0,2.0;" width="9" x="302.47" y="298"/><text fill="#000000" font-family="sans-serif" font-size="12" font-style="italic" lengthAdjust="spacingAndGlyphs" textLength="7" x="303.47" y="310.1387">T</text><line style="stroke: #A80036; stroke-width: 1.5;" x1="191.47" x2="307.47" y1="333" y2="333"/><line style="stroke: #A80036; stroke-width: 1.5;" x1="191.47" x2="307.47" y1="341" y2="341"/><!--MD5=[500abf91d043834fcdd772523ff9273e]
class Stack`1--><rect fill="#FEFECE" filter="url(#f18yvpfusqqr3e)" height="48" id="Stack`1" style="stroke: #A80036; stroke-width: 1.5;" width="92" x="343.47" y="301"/><ellipse cx="358.47" cy="317" fill="#ADD1B2" rx="11" ry="11" style="stroke: #A80036; stroke-width: 1.0;"/><path d="M361.4388,322.6406 Q360.8606,322.9375 360.22,323.0781 Q359.5794,323.2344 358.8763,323.2344 Q356.3763,323.2344 355.0481,321.5938 Q353.7356,319.9375 353.7356,316.8125 Q353.7356,313.6875 355.0481,312.0313 Q356.3763,310.375 358.8763,310.375 Q359.5794,310.375 360.22,310.5313 Q360.8763,310.6875 361.4388,310.9844 L361.4388,313.7031 Q360.8138,313.125 360.22,312.8594 Q359.6263,312.5781 359.0013,312.5781 Q357.6575,312.5781 356.97,313.6563 Q356.2825,314.7188 356.2825,316.8125 Q356.2825,318.9063 356.97,319.9844 Q357.6575,321.0469 359.0013,321.0469 Q359.6263,321.0469 360.22,320.7813 Q360.8138,320.5 361.4388,319.9219 L361.4388,322.6406 Z "/><text fill="#000000" font-family="sans-serif" font-size="12" lengthAdjust="spacingAndGlyphs" textLength="49" x="372.47" y="321.1543">Stack`1</text><rect fill="#FFFFFF" height="15.9688" style="stroke: #000000; stroke-width: 1.0; stroke-dasharray: 2.0,2.0;" width="9" x="429.47" y="298"/><text fill="#000000" font-family="sans-serif" font-size="12" font-style="italic" lengthAdjust="spacingAndGlyphs" textLength="7" x="430.47" y="310.1387">T</text><line style="stroke: #A80036; stroke-width: 1.5;" x1="344.47" x2="434.47" y1="333" y2="333"/><line style="stroke: #A80036; stroke-width: 1.5;" x1="344.47" x2="434.47" y1="341" y2="341"/><!--MD5=[5afa9872f8a3e7e6502e04d57f103471]
class BaseObjectCommands--><rect fill="#FEFECE" filter="url(#f18yvpfusqqr3e)" height="48" id="BaseObjectCommands" style="stroke: #A80036; stroke-width: 1.5;" width="172" x="233.47" y="8"/><ellipse cx="248.47" cy="24" fill="#ADD1B2" rx="11" ry="11" style="stroke: #A80036; stroke-width: 1.0;"/><path d="M251.4388,29.6406 Q250.8606,29.9375 250.22,30.0781 Q249.5794,30.2344 248.8763,30.2344 Q246.3763,30.2344 245.0481,28.5938 Q243.7356,26.9375 243.7356,23.8125 Q243.7356,20.6875 245.0481,19.0313 Q246.3763,17.375 248.8763,17.375 Q249.5794,17.375 250.22,17.5313 Q250.8763,17.6875 251.4388,17.9844 L251.4388,20.7031 Q250.8138,20.125 250.22,19.8594 Q249.6263,19.5781 249.0013,19.5781 Q247.6575,19.5781 246.97,20.6563 Q246.2825,21.7188 246.2825,23.8125 Q246.2825,25.9063 246.97,26.9844 Q247.6575,28.0469 249.0013,28.0469 Q249.6263,28.0469 250.22,27.7813 Q250.8138,27.5 251.4388,26.9219 L251.4388,29.6406 Z "/><text fill="#000000" font-family="sans-serif" font-size="12" lengthAdjust="spacingAndGlyphs" textLength="140" x="262.47" y="28.1543">BaseObjectCommands</text><line style="stroke: #A80036; stroke-width: 1.5;" x1="234.47" x2="404.47" y1="40" y2="40"/><line style="stroke: #A80036; stroke-width: 1.5;" x1="234.47" x2="404.47" y1="48" y2="48"/><!--MD5=[1fc027024a3afccbd5ed695ec2fb8733]
reverse link BaseObjectCommands to OverrideSelectObjectCommand--><path d="M319.47,76.67 C319.47,89.05 319.47,102.77 319.47,115.99 " fill="none" id="BaseObjectCommands&lt;-OverrideSelectObjectCommand" style="stroke: #A80036; stroke-width: 1.0;"/><polygon fill="none" points="312.47,76.22,319.47,56.22,326.47,76.22,312.47,76.22" style="stroke: #A80036; stroke-width: 1.0;"/><!--MD5=[3b74b3d3333c2f9b60b775e82cf70de9]
link OverrideSelectObjectCommand to List`1--><path d="M615.5542,205.5763 C615.5542,205.5763 623.56,202.81 626.96,201.54 " fill="none" id="OverrideSelectObjectCommand-List`1" style="stroke: #A80036; stroke-width: 1.0;"/><polygon fill="#A80036" points="639.27,196.74,629.4316,196.2863,634.6122,198.5581,632.3405,203.7387,639.27,196.74" style="stroke: #A80036; stroke-width: 1.0;"/><line style="stroke: #A80036; stroke-width: 1.0;" x1="634.6122" x2="627.165" y1="198.5581" y2="201.46"/><polygon fill="#FFFFFF" points="604.14,209.28,611.0816,211.2329,615.5542,205.5763,608.6125,203.6234,604.14,209.28" style="stroke: #A80036; stroke-width: 1.0;"/><text fill="#000000" font-family="sans-serif" font-size="13" lengthAdjust="spacingAndGlyphs" textLength="215" x="675.9812" y="222.6778">currentlySelected&lt;SceneObject&gt;</text><!--MD5=[3b74b3d3333c2f9b60b775e82cf70de9]
link OverrideSelectObjectCommand to List`1--><path d="M615.5542,151.4237 C615.5542,151.4237 623.56,154.19 626.96,155.46 " fill="none" id="OverrideSelectObjectCommand-List`1-1" style="stroke: #A80036; stroke-width: 1.0;"/><polygon fill="#A80036" points="639.27,160.26,632.3405,153.2613,634.6122,158.4419,629.4316,160.7137,639.27,160.26" style="stroke: #A80036; stroke-width: 1.0;"/><line style="stroke: #A80036; stroke-width: 1.0;" x1="634.6122" x2="627.165" y1="158.4419" y2="155.54"/><polygon fill="#FFFFFF" points="604.14,147.72,608.6125,153.3766,615.5542,151.4237,611.0816,145.7671,604.14,147.72" style="stroke: #A80036; stroke-width: 1.0;"/><text fill="#000000" font-family="sans-serif" font-size="13" lengthAdjust="spacingAndGlyphs" textLength="187" x="668.4563" y="143.5273">nextSelected&lt;SceneObject&gt;</text><!--MD5=[4ffef580a1a6fb37f196868271cecfb9]
link OverrideSelectObjectCommand to LinkedList`1--><path d="M276.95,241.2 C267.29,260.22 258.35,280.24 252.76,295.83 " fill="none" id="OverrideSelectObjectCommand-&gt;LinkedList`1" style="stroke: #A80036; stroke-width: 1.0;"/><polygon fill="#A80036" points="251,300.94,257.7127,293.7331,252.6282,296.2125,250.1488,291.128,251,300.94" style="stroke: #A80036; stroke-width: 1.0;"/><text fill="#000000" font-family="sans-serif" font-size="13" lengthAdjust="spacingAndGlyphs" textLength="230" x="-8.0767" y="289.9367">curUndoLinkedList&lt;SceneObject[]&gt;</text><!--MD5=[4ffef580a1a6fb37f196868271cecfb9]
link OverrideSelectObjectCommand to LinkedList`1--><path d="M302.95,241.2 C294.05,260.55 283.33,280.94 273.57,296.64 " fill="none" id="OverrideSelectObjectCommand-&gt;LinkedList`1-1" style="stroke: #A80036; stroke-width: 1.0;"/><polygon fill="#A80036" points="270.84,300.94,279.0286,295.4676,273.5105,296.7129,272.2652,291.1948,270.84,300.94" style="stroke: #A80036; stroke-width: 1.0;"/><text fill="#000000" font-family="sans-serif" font-size="13" lengthAdjust="spacingAndGlyphs" textLength="238" x="306.8666" y="289.8748">nextUndoLinkedList&lt;SceneObject[]&gt;</text><!--MD5=[546498b091b70f2fa0397586b242a0d9]
link OverrideSelectObjectCommand to Stack`1--><path d="M336.73,241.2 C345.65,260.55 356.32,280.94 365.96,296.64 " fill="none" id="OverrideSelectObjectCommand-&gt;Stack`1" style="stroke: #A80036; stroke-width: 1.0;"/><polygon fill="#A80036" points="368.65,300.94,367.2632,291.1893,365.9962,296.7024,360.483,295.4354,368.65,300.94" style="stroke: #A80036; stroke-width: 1.0;"/><text fill="#000000" font-family="sans-serif" font-size="13" lengthAdjust="spacingAndGlyphs" textLength="209" x="441.87" y="298.575">nextRedoStack&lt;SceneObject[]&gt;</text><!--MD5=[546498b091b70f2fa0397586b242a0d9]
link OverrideSelectObjectCommand to Stack`1--><path d="M362.73,241.2 C372.41,260.22 381.3,280.24 386.78,295.83 " fill="none" id="OverrideSelectObjectCommand-&gt;Stack`1-1" style="stroke: #A80036; stroke-width: 1.0;"/><polygon fill="#A80036" points="388.5,300.94,389.4133,291.1336,386.9017,296.2023,381.833,293.6908,388.5,300.94" style="stroke: #A80036; stroke-width: 1.0;"/><text fill="#000000" font-family="sans-serif" font-size="13" lengthAdjust="spacingAndGlyphs" textLength="227" x="417.3358" y="289.9367">currentRedoStack&lt;SceneObject[]&gt;</text><!--MD5=[513dd759e61f683c610789546269ec37]
@startuml
class OverrideSelectObjectCommand {
    + <<override>> Execute() : void
    + <<override>> Undo() : void
    + <<override>> Redo() : void
    + <<override>> ClearFirstUndo() : void
    + <<override>> ClearRedo() : void
    + InitializeSelected(currentlySelected:List<SceneObject>, nextSelected:List<SceneObject>) : void
}
class "List`1"<T> {
}
class "LinkedList`1"<T> {
}
class "Stack`1"<T> {
}
BaseObjectCommands <|- - OverrideSelectObjectCommand
OverrideSelectObjectCommand o-> "currentlySelected<SceneObject>" "List`1"
OverrideSelectObjectCommand o-> "nextSelected<SceneObject>" "List`1"
OverrideSelectObjectCommand - -> "curUndoLinkedList<SceneObject[]>" "LinkedList`1"
OverrideSelectObjectCommand - -> "nextUndoLinkedList<SceneObject[]>" "LinkedList`1"
OverrideSelectObjectCommand - -> "nextRedoStack<SceneObject[]>" "Stack`1"
OverrideSelectObjectCommand - -> "currentRedoStack<SceneObject[]>" "Stack`1"
@enduml

PlantUML version 1.2020.02(Sun Mar 01 10:22:07 GMT 2020)
(GPL source distribution)
Java Runtime: OpenJDK Runtime Environment
JVM: OpenJDK 64-Bit Server VM
Java Version: 11.0.9+11-Ubuntu-0ubuntu1
Operating System: Linux
Default Encoding: ANSI_X3.4-1968
Language: en
Country: US
--></g></svg>