<?xml version="1.0" encoding="UTF-8" standalone="no"?><svg xmlns="http://www.w3.org/2000/svg" xmlns:xlink="http://www.w3.org/1999/xlink" contentScriptType="application/ecmascript" contentStyleType="text/css" height="347px" preserveAspectRatio="none" style="width:630px;height:347px;" version="1.1" viewBox="0 0 630 347" width="630px" zoomAndPan="magnify"><defs><filter height="300%" id="f1gayotemaju09" width="300%" x="-1" y="-1"><feGaussianBlur result="blurOut" stdDeviation="2.0"/><feColorMatrix in="blurOut" result="blurOut2" type="matrix" values="0 0 0 0 0 0 0 0 0 0 0 0 0 0 0 0 0 0 .4 0"/><feOffset dx="4.0" dy="4.0" in="blurOut2" result="blurOut3"/><feBlend in="SourceGraphic" in2="blurOut3" mode="normal"/></filter></defs><g><!--MD5=[f01fb8623b88f46854dc49d9677bbedd]
class PasteObjectCommand--><rect fill="#FEFECE" filter="url(#f1gayotemaju09)" height="112.0234" id="PasteObjectCommand" style="stroke: #A80036; stroke-width: 1.5;" width="218" x="188.02" y="116"/><ellipse cx="224.62" cy="132" fill="#ADD1B2" rx="11" ry="11" style="stroke: #A80036; stroke-width: 1.0;"/><path d="M227.5888,137.6406 Q227.0106,137.9375 226.37,138.0781 Q225.7294,138.2344 225.0263,138.2344 Q222.5263,138.2344 221.1981,136.5938 Q219.8856,134.9375 219.8856,131.8125 Q219.8856,128.6875 221.1981,127.0313 Q222.5263,125.375 225.0263,125.375 Q225.7294,125.375 226.37,125.5313 Q227.0263,125.6875 227.5888,125.9844 L227.5888,128.7031 Q226.9638,128.125 226.37,127.8594 Q225.7763,127.5781 225.1513,127.5781 Q223.8075,127.5781 223.12,128.6563 Q222.4325,129.7188 222.4325,131.8125 Q222.4325,133.9063 223.12,134.9844 Q223.8075,136.0469 225.1513,136.0469 Q225.7763,136.0469 226.37,135.7813 Q226.9638,135.5 227.5888,134.9219 L227.5888,137.6406 Z "/><text fill="#000000" font-family="sans-serif" font-size="12" lengthAdjust="spacingAndGlyphs" textLength="138" x="243.42" y="136.1543">PasteObjectCommand</text><line style="stroke: #A80036; stroke-width: 1.5;" x1="189.02" x2="405.02" y1="148" y2="148"/><line style="stroke: #A80036; stroke-width: 1.5;" x1="189.02" x2="405.02" y1="156" y2="156"/><ellipse cx="199.02" cy="167" fill="#84BE84" rx="3" ry="3" style="stroke: #038048; stroke-width: 1.0;"/><text fill="#000000" font-family="sans-serif" font-size="11" lengthAdjust="spacingAndGlyphs" textLength="152" x="208.02" y="170.2104">«override» Execute() : void</text><ellipse cx="199.02" cy="179.8047" fill="#84BE84" rx="3" ry="3" style="stroke: #038048; stroke-width: 1.0;"/><text fill="#000000" font-family="sans-serif" font-size="11" lengthAdjust="spacingAndGlyphs" textLength="137" x="208.02" y="183.0151">«override» Undo() : void</text><ellipse cx="199.02" cy="192.6094" fill="#84BE84" rx="3" ry="3" style="stroke: #038048; stroke-width: 1.0;"/><text fill="#000000" font-family="sans-serif" font-size="11" lengthAdjust="spacingAndGlyphs" textLength="136" x="208.02" y="195.8198">«override» Redo() : void</text><ellipse cx="199.02" cy="205.4141" fill="#84BE84" rx="3" ry="3" style="stroke: #038048; stroke-width: 1.0;"/><text fill="#000000" font-family="sans-serif" font-size="11" lengthAdjust="spacingAndGlyphs" textLength="192" x="208.02" y="208.6245">«override» ClearFirstUndo() : void</text><ellipse cx="199.02" cy="218.2188" fill="#84BE84" rx="3" ry="3" style="stroke: #038048; stroke-width: 1.0;"/><text fill="#000000" font-family="sans-serif" font-size="11" lengthAdjust="spacingAndGlyphs" textLength="166" x="208.02" y="221.4292">«override» ClearRedo() : void</text><!--MD5=[92d1d42b41ac56e5f57f4bc2f2e7fa06]
class LinkedList`1--><rect fill="#FEFECE" filter="url(#f1gayotemaju09)" height="48" id="LinkedList`1" style="stroke: #A80036; stroke-width: 1.5;" width="118" x="168.02" y="288"/><ellipse cx="183.02" cy="304" fill="#ADD1B2" rx="11" ry="11" style="stroke: #A80036; stroke-width: 1.0;"/><path d="M185.9888,309.6406 Q185.4106,309.9375 184.77,310.0781 Q184.1294,310.2344 183.4263,310.2344 Q180.9263,310.2344 179.5981,308.5938 Q178.2856,306.9375 178.2856,303.8125 Q178.2856,300.6875 179.5981,299.0313 Q180.9263,297.375 183.4263,297.375 Q184.1294,297.375 184.77,297.5313 Q185.4263,297.6875 185.9888,297.9844 L185.9888,300.7031 Q185.3638,300.125 184.77,299.8594 Q184.1763,299.5781 183.5513,299.5781 Q182.2075,299.5781 181.52,300.6563 Q180.8325,301.7188 180.8325,303.8125 Q180.8325,305.9063 181.52,306.9844 Q182.2075,308.0469 183.5513,308.0469 Q184.1763,308.0469 184.77,307.7813 Q185.3638,307.5 185.9888,306.9219 L185.9888,309.6406 Z "/><text fill="#000000" font-family="sans-serif" font-size="12" lengthAdjust="spacingAndGlyphs" textLength="75" x="197.02" y="308.1543">LinkedList`1</text><rect fill="#FFFFFF" height="15.9688" style="stroke: #000000; stroke-width: 1.0; stroke-dasharray: 2.0,2.0;" width="9" x="280.02" y="285"/><text fill="#000000" font-family="sans-serif" font-size="12" font-style="italic" lengthAdjust="spacingAndGlyphs" textLength="7" x="281.02" y="297.1387">T</text><line style="stroke: #A80036; stroke-width: 1.5;" x1="169.02" x2="285.02" y1="320" y2="320"/><line style="stroke: #A80036; stroke-width: 1.5;" x1="169.02" x2="285.02" y1="328" y2="328"/><!--MD5=[500abf91d043834fcdd772523ff9273e]
class Stack`1--><rect fill="#FEFECE" filter="url(#f1gayotemaju09)" height="48" id="Stack`1" style="stroke: #A80036; stroke-width: 1.5;" width="92" x="321.02" y="288"/><ellipse cx="336.02" cy="304" fill="#ADD1B2" rx="11" ry="11" style="stroke: #A80036; stroke-width: 1.0;"/><path d="M338.9888,309.6406 Q338.4106,309.9375 337.77,310.0781 Q337.1294,310.2344 336.4263,310.2344 Q333.9263,310.2344 332.5981,308.5938 Q331.2856,306.9375 331.2856,303.8125 Q331.2856,300.6875 332.5981,299.0313 Q333.9263,297.375 336.4263,297.375 Q337.1294,297.375 337.77,297.5313 Q338.4263,297.6875 338.9888,297.9844 L338.9888,300.7031 Q338.3638,300.125 337.77,299.8594 Q337.1763,299.5781 336.5513,299.5781 Q335.2075,299.5781 334.52,300.6563 Q333.8325,301.7188 333.8325,303.8125 Q333.8325,305.9063 334.52,306.9844 Q335.2075,308.0469 336.5513,308.0469 Q337.1763,308.0469 337.77,307.7813 Q338.3638,307.5 338.9888,306.9219 L338.9888,309.6406 Z "/><text fill="#000000" font-family="sans-serif" font-size="12" lengthAdjust="spacingAndGlyphs" textLength="49" x="350.02" y="308.1543">Stack`1</text><rect fill="#FFFFFF" height="15.9688" style="stroke: #000000; stroke-width: 1.0; stroke-dasharray: 2.0,2.0;" width="9" x="407.02" y="285"/><text fill="#000000" font-family="sans-serif" font-size="12" font-style="italic" lengthAdjust="spacingAndGlyphs" textLength="7" x="408.02" y="297.1387">T</text><line style="stroke: #A80036; stroke-width: 1.5;" x1="322.02" x2="412.02" y1="320" y2="320"/><line style="stroke: #A80036; stroke-width: 1.5;" x1="322.02" x2="412.02" y1="328" y2="328"/><!--MD5=[5afa9872f8a3e7e6502e04d57f103471]
class BaseObjectCommands--><rect fill="#FEFECE" filter="url(#f1gayotemaju09)" height="48" id="BaseObjectCommands" style="stroke: #A80036; stroke-width: 1.5;" width="172" x="211.02" y="8"/><ellipse cx="226.02" cy="24" fill="#ADD1B2" rx="11" ry="11" style="stroke: #A80036; stroke-width: 1.0;"/><path d="M228.9888,29.6406 Q228.4106,29.9375 227.77,30.0781 Q227.1294,30.2344 226.4263,30.2344 Q223.9263,30.2344 222.5981,28.5938 Q221.2856,26.9375 221.2856,23.8125 Q221.2856,20.6875 222.5981,19.0313 Q223.9263,17.375 226.4263,17.375 Q227.1294,17.375 227.77,17.5313 Q228.4263,17.6875 228.9888,17.9844 L228.9888,20.7031 Q228.3638,20.125 227.77,19.8594 Q227.1763,19.5781 226.5513,19.5781 Q225.2075,19.5781 224.52,20.6563 Q223.8325,21.7188 223.8325,23.8125 Q223.8325,25.9063 224.52,26.9844 Q225.2075,28.0469 226.5513,28.0469 Q227.1763,28.0469 227.77,27.7813 Q228.3638,27.5 228.9888,26.9219 L228.9888,29.6406 Z "/><text fill="#000000" font-family="sans-serif" font-size="12" lengthAdjust="spacingAndGlyphs" textLength="140" x="240.02" y="28.1543">BaseObjectCommands</text><line style="stroke: #A80036; stroke-width: 1.5;" x1="212.02" x2="382.02" y1="40" y2="40"/><line style="stroke: #A80036; stroke-width: 1.5;" x1="212.02" x2="382.02" y1="48" y2="48"/><!--MD5=[536392e489a0ddff5c015977f6508a90]
reverse link BaseObjectCommands to PasteObjectCommand--><path d="M297.02,76.25 C297.02,88.82 297.02,102.73 297.02,115.93 " fill="none" id="BaseObjectCommands&lt;-PasteObjectCommand" style="stroke: #A80036; stroke-width: 1.0;"/><polygon fill="none" points="290.02,76.1,297.02,56.1,304.02,76.1,290.02,76.1" style="stroke: #A80036; stroke-width: 1.0;"/><!--MD5=[19f2485dca58f01845437874564c73ab]
link PasteObjectCommand to LinkedList`1--><path d="M256.42,228.33 C246.28,247.09 236.74,267.25 230.74,282.96 " fill="none" id="PasteObjectCommand-&gt;LinkedList`1" style="stroke: #A80036; stroke-width: 1.0;"/><polygon fill="#A80036" points="229,287.69,235.8677,280.6306,230.7305,282.999,228.3621,277.8618,229,287.69" style="stroke: #A80036; stroke-width: 1.0;"/><text fill="#000000" font-family="sans-serif" font-size="13" lengthAdjust="spacingAndGlyphs" textLength="208" x="-3.8674" y="277.0194">undoLinkedList&lt;SceneObject[]&gt;</text><!--MD5=[19f2485dca58f01845437874564c73ab]
link PasteObjectCommand to LinkedList`1--><path d="M282.21,228.33 C273.28,247.25 262.23,267.6 252.09,283.37 " fill="none" id="PasteObjectCommand-&gt;LinkedList`1-1" style="stroke: #A80036; stroke-width: 1.0;"/><polygon fill="#A80036" points="249.26,287.69,257.5385,282.3546,252.0005,283.5079,250.8472,277.9699,249.26,287.69" style="stroke: #A80036; stroke-width: 1.0;"/><text fill="#000000" font-family="sans-serif" font-size="13" lengthAdjust="spacingAndGlyphs" textLength="229" x="282.6374" y="276.9577">undoPrevSelected&lt;SceneObject[]&gt;</text><!--MD5=[cc0497f210066081e5934718a2b50338]
link PasteObjectCommand to Stack`1--><path d="M312.56,228.33 C321.53,247.25 332.54,267.6 342.56,283.37 " fill="none" id="PasteObjectCommand-&gt;Stack`1" style="stroke: #A80036; stroke-width: 1.0;"/><polygon fill="#A80036" points="345.35,287.69,343.8012,277.9637,342.6261,283.4971,337.0926,282.322,345.35,287.69" style="stroke: #A80036; stroke-width: 1.0;"/><text fill="#000000" font-family="sans-serif" font-size="13" lengthAdjust="spacingAndGlyphs" textLength="178" x="421.0963" y="280.9204">redoStack&lt;SceneObject[]&gt;</text><!--MD5=[cc0497f210066081e5934718a2b50338]
link PasteObjectCommand to Stack`1--><path d="M338.35,228.33 C348.52,247.09 358.03,267.25 363.91,282.96 " fill="none" id="PasteObjectCommand-&gt;Stack`1-1" style="stroke: #A80036; stroke-width: 1.0;"/><polygon fill="#A80036" points="365.61,287.69,366.3367,277.868,363.922,282.9836,358.8064,280.5688,365.61,287.69" style="stroke: #A80036; stroke-width: 1.0;"/><text fill="#000000" font-family="sans-serif" font-size="13" lengthAdjust="spacingAndGlyphs" textLength="226" x="392.8101" y="277.0194">redoPrevSelected&lt;SceneObject[]&gt;</text><!--MD5=[b9246706e1f65c893ac56c04aea4f4ff]
@startuml
class PasteObjectCommand {
    + <<override>> Execute() : void
    + <<override>> Undo() : void
    + <<override>> Redo() : void
    + <<override>> ClearFirstUndo() : void
    + <<override>> ClearRedo() : void
}
class "LinkedList`1"<T> {
}
class "Stack`1"<T> {
}
BaseObjectCommands <|- - PasteObjectCommand
PasteObjectCommand - -> "undoLinkedList<SceneObject[]>" "LinkedList`1"
PasteObjectCommand - -> "redoStack<SceneObject[]>" "Stack`1"
PasteObjectCommand - -> "undoPrevSelected<SceneObject[]>" "LinkedList`1"
PasteObjectCommand - -> "redoPrevSelected<SceneObject[]>" "Stack`1"
@enduml

PlantUML version 1.2020.02(Sun Mar 01 10:22:07 GMT 2020)
(GPL source distribution)
Java Runtime: OpenJDK Runtime Environment
JVM: OpenJDK 64-Bit Server VM
Java Version: 11.0.9+11-Ubuntu-0ubuntu1
Operating System: Linux
Default Encoding: ANSI_X3.4-1968
Language: en
Country: US
--></g></svg>