<?xml version="1.0" encoding="UTF-8" standalone="no"?><svg xmlns="http://www.w3.org/2000/svg" xmlns:xlink="http://www.w3.org/1999/xlink" contentScriptType="application/ecmascript" contentStyleType="text/css" height="360px" preserveAspectRatio="none" style="width:889px;height:360px;" version="1.1" viewBox="0 0 889 360" width="889px" zoomAndPan="magnify"><defs><filter height="300%" id="fezfbloz5r8ag" width="300%" x="-1" y="-1"><feGaussianBlur result="blurOut" stdDeviation="2.0"/><feColorMatrix in="blurOut" result="blurOut2" type="matrix" values="0 0 0 0 0 0 0 0 0 0 0 0 0 0 0 0 0 0 .4 0"/><feOffset dx="4.0" dy="4.0" in="blurOut2" result="blurOut3"/><feBlend in="SourceGraphic" in2="blurOut3" mode="normal"/></filter></defs><g><!--MD5=[82babac7d3e319ac20b38066edbe4932]
class RemoveSelectionObjectCommand--><rect fill="#FEFECE" filter="url(#fezfbloz5r8ag)" height="124.8281" id="RemoveSelectionObjectCommand" style="stroke: #A80036; stroke-width: 1.5;" width="583" x="6" y="116"/><ellipse cx="188.75" cy="132" fill="#ADD1B2" rx="11" ry="11" style="stroke: #A80036; stroke-width: 1.0;"/><path d="M191.7188,137.6406 Q191.1406,137.9375 190.5,138.0781 Q189.8594,138.2344 189.1563,138.2344 Q186.6563,138.2344 185.3281,136.5938 Q184.0156,134.9375 184.0156,131.8125 Q184.0156,128.6875 185.3281,127.0313 Q186.6563,125.375 189.1563,125.375 Q189.8594,125.375 190.5,125.5313 Q191.1563,125.6875 191.7188,125.9844 L191.7188,128.7031 Q191.0938,128.125 190.5,127.8594 Q189.9063,127.5781 189.2813,127.5781 Q187.9375,127.5781 187.25,128.6563 Q186.5625,129.7188 186.5625,131.8125 Q186.5625,133.9063 187.25,134.9844 Q187.9375,136.0469 189.2813,136.0469 Q189.9063,136.0469 190.5,135.7813 Q191.0938,135.5 191.7188,134.9219 L191.7188,137.6406 Z "/><text fill="#000000" font-family="sans-serif" font-size="12" lengthAdjust="spacingAndGlyphs" textLength="209" x="209.25" y="136.1543">RemoveSelectionObjectCommand</text><line style="stroke: #A80036; stroke-width: 1.5;" x1="7" x2="588" y1="148" y2="148"/><line style="stroke: #A80036; stroke-width: 1.5;" x1="7" x2="588" y1="156" y2="156"/><ellipse cx="17" cy="167" fill="#84BE84" rx="3" ry="3" style="stroke: #038048; stroke-width: 1.0;"/><text fill="#000000" font-family="sans-serif" font-size="11" lengthAdjust="spacingAndGlyphs" textLength="152" x="26" y="170.2104">«override» Execute() : void</text><ellipse cx="17" cy="179.8047" fill="#84BE84" rx="3" ry="3" style="stroke: #038048; stroke-width: 1.0;"/><text fill="#000000" font-family="sans-serif" font-size="11" lengthAdjust="spacingAndGlyphs" textLength="137" x="26" y="183.0151">«override» Undo() : void</text><ellipse cx="17" cy="192.6094" fill="#84BE84" rx="3" ry="3" style="stroke: #038048; stroke-width: 1.0;"/><text fill="#000000" font-family="sans-serif" font-size="11" lengthAdjust="spacingAndGlyphs" textLength="136" x="26" y="195.8198">«override» Redo() : void</text><ellipse cx="17" cy="205.4141" fill="#84BE84" rx="3" ry="3" style="stroke: #038048; stroke-width: 1.0;"/><text fill="#000000" font-family="sans-serif" font-size="11" lengthAdjust="spacingAndGlyphs" textLength="192" x="26" y="208.6245">«override» ClearFirstUndo() : void</text><ellipse cx="17" cy="218.2188" fill="#84BE84" rx="3" ry="3" style="stroke: #038048; stroke-width: 1.0;"/><text fill="#000000" font-family="sans-serif" font-size="11" lengthAdjust="spacingAndGlyphs" textLength="166" x="26" y="221.4292">«override» ClearRedo() : void</text><ellipse cx="17" cy="231.0234" fill="#84BE84" rx="3" ry="3" style="stroke: #038048; stroke-width: 1.0;"/><text fill="#000000" font-family="sans-serif" font-size="11" lengthAdjust="spacingAndGlyphs" textLength="557" x="26" y="234.2339">InitializePreSelected(currentlySelected:List&lt;SceneObject&gt;, preSelected:List&lt;SceneObject&gt;) : void</text><!--MD5=[92d1d42b41ac56e5f57f4bc2f2e7fa06]
class LinkedList`1--><rect fill="#FEFECE" filter="url(#fezfbloz5r8ag)" height="48" id="LinkedList`1" style="stroke: #A80036; stroke-width: 1.5;" width="118" x="168.5" y="301"/><ellipse cx="183.5" cy="317" fill="#ADD1B2" rx="11" ry="11" style="stroke: #A80036; stroke-width: 1.0;"/><path d="M186.4688,322.6406 Q185.8906,322.9375 185.25,323.0781 Q184.6094,323.2344 183.9063,323.2344 Q181.4063,323.2344 180.0781,321.5938 Q178.7656,319.9375 178.7656,316.8125 Q178.7656,313.6875 180.0781,312.0313 Q181.4063,310.375 183.9063,310.375 Q184.6094,310.375 185.25,310.5313 Q185.9063,310.6875 186.4688,310.9844 L186.4688,313.7031 Q185.8438,313.125 185.25,312.8594 Q184.6563,312.5781 184.0313,312.5781 Q182.6875,312.5781 182,313.6563 Q181.3125,314.7188 181.3125,316.8125 Q181.3125,318.9063 182,319.9844 Q182.6875,321.0469 184.0313,321.0469 Q184.6563,321.0469 185.25,320.7813 Q185.8438,320.5 186.4688,319.9219 L186.4688,322.6406 Z "/><text fill="#000000" font-family="sans-serif" font-size="12" lengthAdjust="spacingAndGlyphs" textLength="75" x="197.5" y="321.1543">LinkedList`1</text><rect fill="#FFFFFF" height="15.9688" style="stroke: #000000; stroke-width: 1.0; stroke-dasharray: 2.0,2.0;" width="9" x="280.5" y="298"/><text fill="#000000" font-family="sans-serif" font-size="12" font-style="italic" lengthAdjust="spacingAndGlyphs" textLength="7" x="281.5" y="310.1387">T</text><line style="stroke: #A80036; stroke-width: 1.5;" x1="169.5" x2="285.5" y1="333" y2="333"/><line style="stroke: #A80036; stroke-width: 1.5;" x1="169.5" x2="285.5" y1="341" y2="341"/><!--MD5=[500abf91d043834fcdd772523ff9273e]
class Stack`1--><rect fill="#FEFECE" filter="url(#fezfbloz5r8ag)" height="48" id="Stack`1" style="stroke: #A80036; stroke-width: 1.5;" width="92" x="321.5" y="301"/><ellipse cx="336.5" cy="317" fill="#ADD1B2" rx="11" ry="11" style="stroke: #A80036; stroke-width: 1.0;"/><path d="M339.4688,322.6406 Q338.8906,322.9375 338.25,323.0781 Q337.6094,323.2344 336.9063,323.2344 Q334.4063,323.2344 333.0781,321.5938 Q331.7656,319.9375 331.7656,316.8125 Q331.7656,313.6875 333.0781,312.0313 Q334.4063,310.375 336.9063,310.375 Q337.6094,310.375 338.25,310.5313 Q338.9063,310.6875 339.4688,310.9844 L339.4688,313.7031 Q338.8438,313.125 338.25,312.8594 Q337.6563,312.5781 337.0313,312.5781 Q335.6875,312.5781 335,313.6563 Q334.3125,314.7188 334.3125,316.8125 Q334.3125,318.9063 335,319.9844 Q335.6875,321.0469 337.0313,321.0469 Q337.6563,321.0469 338.25,320.7813 Q338.8438,320.5 339.4688,319.9219 L339.4688,322.6406 Z "/><text fill="#000000" font-family="sans-serif" font-size="12" lengthAdjust="spacingAndGlyphs" textLength="49" x="350.5" y="321.1543">Stack`1</text><rect fill="#FFFFFF" height="15.9688" style="stroke: #000000; stroke-width: 1.0; stroke-dasharray: 2.0,2.0;" width="9" x="407.5" y="298"/><text fill="#000000" font-family="sans-serif" font-size="12" font-style="italic" lengthAdjust="spacingAndGlyphs" textLength="7" x="408.5" y="310.1387">T</text><line style="stroke: #A80036; stroke-width: 1.5;" x1="322.5" x2="412.5" y1="333" y2="333"/><line style="stroke: #A80036; stroke-width: 1.5;" x1="322.5" x2="412.5" y1="341" y2="341"/><!--MD5=[e644022de7dea015dd09463c37421447]
class List`1--><rect fill="#FEFECE" filter="url(#fezfbloz5r8ag)" height="48" id="List`1" style="stroke: #A80036; stroke-width: 1.5;" width="78" x="624.5" y="154.5"/><ellipse cx="639.5" cy="170.5" fill="#ADD1B2" rx="11" ry="11" style="stroke: #A80036; stroke-width: 1.0;"/><path d="M642.4688,176.1406 Q641.8906,176.4375 641.25,176.5781 Q640.6094,176.7344 639.9063,176.7344 Q637.4063,176.7344 636.0781,175.0938 Q634.7656,173.4375 634.7656,170.3125 Q634.7656,167.1875 636.0781,165.5313 Q637.4063,163.875 639.9063,163.875 Q640.6094,163.875 641.25,164.0313 Q641.9063,164.1875 642.4688,164.4844 L642.4688,167.2031 Q641.8438,166.625 641.25,166.3594 Q640.6563,166.0781 640.0313,166.0781 Q638.6875,166.0781 638,167.1563 Q637.3125,168.2188 637.3125,170.3125 Q637.3125,172.4063 638,173.4844 Q638.6875,174.5469 640.0313,174.5469 Q640.6563,174.5469 641.25,174.2813 Q641.8438,174 642.4688,173.4219 L642.4688,176.1406 Z "/><text fill="#000000" font-family="sans-serif" font-size="12" lengthAdjust="spacingAndGlyphs" textLength="35" x="653.5" y="174.6543">List`1</text><rect fill="#FFFFFF" height="15.9688" style="stroke: #000000; stroke-width: 1.0; stroke-dasharray: 2.0,2.0;" width="9" x="696.5" y="151.5"/><text fill="#000000" font-family="sans-serif" font-size="12" font-style="italic" lengthAdjust="spacingAndGlyphs" textLength="7" x="697.5" y="163.6387">T</text><line style="stroke: #A80036; stroke-width: 1.5;" x1="625.5" x2="701.5" y1="186.5" y2="186.5"/><line style="stroke: #A80036; stroke-width: 1.5;" x1="625.5" x2="701.5" y1="194.5" y2="194.5"/><!--MD5=[5afa9872f8a3e7e6502e04d57f103471]
class BaseObjectCommands--><rect fill="#FEFECE" filter="url(#fezfbloz5r8ag)" height="48" id="BaseObjectCommands" style="stroke: #A80036; stroke-width: 1.5;" width="172" x="211.5" y="8"/><ellipse cx="226.5" cy="24" fill="#ADD1B2" rx="11" ry="11" style="stroke: #A80036; stroke-width: 1.0;"/><path d="M229.4688,29.6406 Q228.8906,29.9375 228.25,30.0781 Q227.6094,30.2344 226.9063,30.2344 Q224.4063,30.2344 223.0781,28.5938 Q221.7656,26.9375 221.7656,23.8125 Q221.7656,20.6875 223.0781,19.0313 Q224.4063,17.375 226.9063,17.375 Q227.6094,17.375 228.25,17.5313 Q228.9063,17.6875 229.4688,17.9844 L229.4688,20.7031 Q228.8438,20.125 228.25,19.8594 Q227.6563,19.5781 227.0313,19.5781 Q225.6875,19.5781 225,20.6563 Q224.3125,21.7188 224.3125,23.8125 Q224.3125,25.9063 225,26.9844 Q225.6875,28.0469 227.0313,28.0469 Q227.6563,28.0469 228.25,27.7813 Q228.8438,27.5 229.4688,26.9219 L229.4688,29.6406 Z "/><text fill="#000000" font-family="sans-serif" font-size="12" lengthAdjust="spacingAndGlyphs" textLength="140" x="240.5" y="28.1543">BaseObjectCommands</text><line style="stroke: #A80036; stroke-width: 1.5;" x1="212.5" x2="382.5" y1="40" y2="40"/><line style="stroke: #A80036; stroke-width: 1.5;" x1="212.5" x2="382.5" y1="48" y2="48"/><!--MD5=[b94bb156f9d0c6454913f04d9fda6c65]
reverse link BaseObjectCommands to RemoveSelectionObjectCommand--><path d="M297.5,76.67 C297.5,89.05 297.5,102.77 297.5,115.99 " fill="none" id="BaseObjectCommands&lt;-RemoveSelectionObjectCommand" style="stroke: #A80036; stroke-width: 1.0;"/><polygon fill="none" points="290.5,76.22,297.5,56.22,304.5,76.22,290.5,76.22" style="stroke: #A80036; stroke-width: 1.0;"/><!--MD5=[9907355c8e283c0be5c86126b93fb636]
link RemoveSelectionObjectCommand to LinkedList`1--><path d="M267.61,241.2 C258.32,260.39 248.53,280.59 240.95,296.23 " fill="none" id="RemoveSelectionObjectCommand-&gt;LinkedList`1" style="stroke: #A80036; stroke-width: 1.0;"/><polygon fill="#A80036" points="238.67,300.94,246.2002,294.592,240.8545,296.4425,239.0041,291.0968,238.67,300.94" style="stroke: #A80036; stroke-width: 1.0;"/><text fill="#000000" font-family="sans-serif" font-size="13" lengthAdjust="spacingAndGlyphs" textLength="208" x="6.8823" y="289.9367">undoLinkedList&lt;SceneObject[]&gt;</text><!--MD5=[939cb8348c94563f2c49b75ed6e25a22]
link RemoveSelectionObjectCommand to Stack`1--><path d="M327.39,241.2 C336.68,260.39 346.47,280.59 354.05,296.23 " fill="none" id="RemoveSelectionObjectCommand-&gt;Stack`1" style="stroke: #A80036; stroke-width: 1.0;"/><polygon fill="#A80036" points="356.33,300.94,355.9959,291.0968,354.1455,296.4425,348.7998,294.592,356.33,300.94" style="stroke: #A80036; stroke-width: 1.0;"/><text fill="#000000" font-family="sans-serif" font-size="13" lengthAdjust="spacingAndGlyphs" textLength="178" x="376.2739" y="289.9367">redoStack&lt;SceneObject[]&gt;</text><!--MD5=[0254bbb6656018e295ecc6950d819388]
link RemoveSelectionObjectCommand to List`1--><path d="M600.5819,205.1702 C600.5819,205.1702 608.58,202.43 611.98,201.18 " fill="none" id="RemoveSelectionObjectCommand-List`1" style="stroke: #A80036; stroke-width: 1.0;"/><polygon fill="#A80036" points="624.3,196.43,614.4637,195.9321,619.6341,198.2271,617.3391,203.3975,624.3,196.43" style="stroke: #A80036; stroke-width: 1.0;"/><line style="stroke: #A80036; stroke-width: 1.0;" x1="619.6341" x2="612.165" y1="198.2271" y2="201.105"/><polygon fill="#FFFFFF" points="589.16,208.85,596.0975,210.8174,600.5819,205.1702,593.6443,203.2028,589.16,208.85" style="stroke: #A80036; stroke-width: 1.0;"/><text fill="#000000" font-family="sans-serif" font-size="13" lengthAdjust="spacingAndGlyphs" textLength="180" x="652.875" y="222.8386">preSelected&lt;SceneObject&gt;</text><!--MD5=[0254bbb6656018e295ecc6950d819388]
link RemoveSelectionObjectCommand to List`1--><path d="M600.5819,151.8298 C600.5819,151.8298 608.58,154.57 611.98,155.82 " fill="none" id="RemoveSelectionObjectCommand-List`1-1" style="stroke: #A80036; stroke-width: 1.0;"/><polygon fill="#A80036" points="624.3,160.57,617.3391,153.6025,619.6341,158.7729,614.4637,161.0679,624.3,160.57" style="stroke: #A80036; stroke-width: 1.0;"/><line style="stroke: #A80036; stroke-width: 1.0;" x1="619.6341" x2="612.165" y1="158.7729" y2="155.895"/><polygon fill="#FFFFFF" points="589.16,148.15,593.6443,153.7972,600.5819,151.8298,596.0975,146.1826,589.16,148.15" style="stroke: #A80036; stroke-width: 1.0;"/><text fill="#000000" font-family="sans-serif" font-size="13" lengthAdjust="spacingAndGlyphs" textLength="215" x="662.7187" y="143.3699">currentlySelected&lt;SceneObject&gt;</text><!--MD5=[9e03965d5d98809c93fe0014b2e4b74c]
@startuml
class RemoveSelectionObjectCommand {
    + <<override>> Execute() : void
    + <<override>> Undo() : void
    + <<override>> Redo() : void
    + <<override>> ClearFirstUndo() : void
    + <<override>> ClearRedo() : void
    + InitializePreSelected(currentlySelected:List<SceneObject>, preSelected:List<SceneObject>) : void
}
class "LinkedList`1"<T> {
}
class "Stack`1"<T> {
}
class "List`1"<T> {
}
BaseObjectCommands <|- - RemoveSelectionObjectCommand
RemoveSelectionObjectCommand - -> "undoLinkedList<SceneObject[]>" "LinkedList`1"
RemoveSelectionObjectCommand - -> "redoStack<SceneObject[]>" "Stack`1"
RemoveSelectionObjectCommand o-> "preSelected<SceneObject>" "List`1"
RemoveSelectionObjectCommand o-> "currentlySelected<SceneObject>" "List`1"
@enduml

PlantUML version 1.2020.02(Sun Mar 01 10:22:07 GMT 2020)
(GPL source distribution)
Java Runtime: OpenJDK Runtime Environment
JVM: OpenJDK 64-Bit Server VM
Java Version: 11.0.9+11-Ubuntu-0ubuntu1
Operating System: Linux
Default Encoding: ANSI_X3.4-1968
Language: en
Country: US
--></g></svg>