<?xml version="1.0" encoding="UTF-8" standalone="no"?><svg xmlns="http://www.w3.org/2000/svg" xmlns:xlink="http://www.w3.org/1999/xlink" contentScriptType="application/ecmascript" contentStyleType="text/css" height="360px" preserveAspectRatio="none" style="width:890px;height:360px;" version="1.1" viewBox="0 0 890 360" width="890px" zoomAndPan="magnify"><defs><filter height="300%" id="f1a2twjvdgcmev" width="300%" x="-1" y="-1"><feGaussianBlur result="blurOut" stdDeviation="2.0"/><feColorMatrix in="blurOut" result="blurOut2" type="matrix" values="0 0 0 0 0 0 0 0 0 0 0 0 0 0 0 0 0 0 .4 0"/><feOffset dx="4.0" dy="4.0" in="blurOut2" result="blurOut3"/><feBlend in="SourceGraphic" in2="blurOut3" mode="normal"/></filter></defs><g><!--MD5=[1f462fe93371418ba0262114651ade32]
class SelectObjectCommand--><rect fill="#FEFECE" filter="url(#f1a2twjvdgcmev)" height="124.8281" id="SelectObjectCommand" style="stroke: #A80036; stroke-width: 1.5;" width="574" x="6" y="116"/><ellipse cx="218.25" cy="132" fill="#ADD1B2" rx="11" ry="11" style="stroke: #A80036; stroke-width: 1.0;"/><path d="M221.2188,137.6406 Q220.6406,137.9375 220,138.0781 Q219.3594,138.2344 218.6563,138.2344 Q216.1563,138.2344 214.8281,136.5938 Q213.5156,134.9375 213.5156,131.8125 Q213.5156,128.6875 214.8281,127.0313 Q216.1563,125.375 218.6563,125.375 Q219.3594,125.375 220,125.5313 Q220.6563,125.6875 221.2188,125.9844 L221.2188,128.7031 Q220.5938,128.125 220,127.8594 Q219.4063,127.5781 218.7813,127.5781 Q217.4375,127.5781 216.75,128.6563 Q216.0625,129.7188 216.0625,131.8125 Q216.0625,133.9063 216.75,134.9844 Q217.4375,136.0469 218.7813,136.0469 Q219.4063,136.0469 220,135.7813 Q220.5938,135.5 221.2188,134.9219 L221.2188,137.6406 Z "/><text fill="#000000" font-family="sans-serif" font-size="12" lengthAdjust="spacingAndGlyphs" textLength="141" x="238.75" y="136.1543">SelectObjectCommand</text><line style="stroke: #A80036; stroke-width: 1.5;" x1="7" x2="579" y1="148" y2="148"/><line style="stroke: #A80036; stroke-width: 1.5;" x1="7" x2="579" y1="156" y2="156"/><ellipse cx="17" cy="167" fill="#84BE84" rx="3" ry="3" style="stroke: #038048; stroke-width: 1.0;"/><text fill="#000000" font-family="sans-serif" font-size="11" lengthAdjust="spacingAndGlyphs" textLength="152" x="26" y="170.2104">«override» Execute() : void</text><ellipse cx="17" cy="179.8047" fill="#84BE84" rx="3" ry="3" style="stroke: #038048; stroke-width: 1.0;"/><text fill="#000000" font-family="sans-serif" font-size="11" lengthAdjust="spacingAndGlyphs" textLength="137" x="26" y="183.0151">«override» Undo() : void</text><ellipse cx="17" cy="192.6094" fill="#84BE84" rx="3" ry="3" style="stroke: #038048; stroke-width: 1.0;"/><text fill="#000000" font-family="sans-serif" font-size="11" lengthAdjust="spacingAndGlyphs" textLength="136" x="26" y="195.8198">«override» Redo() : void</text><ellipse cx="17" cy="205.4141" fill="#84BE84" rx="3" ry="3" style="stroke: #038048; stroke-width: 1.0;"/><text fill="#000000" font-family="sans-serif" font-size="11" lengthAdjust="spacingAndGlyphs" textLength="192" x="26" y="208.6245">«override» ClearFirstUndo() : void</text><ellipse cx="17" cy="218.2188" fill="#84BE84" rx="3" ry="3" style="stroke: #038048; stroke-width: 1.0;"/><text fill="#000000" font-family="sans-serif" font-size="11" lengthAdjust="spacingAndGlyphs" textLength="166" x="26" y="221.4292">«override» ClearRedo() : void</text><ellipse cx="17" cy="231.0234" fill="#84BE84" rx="3" ry="3" style="stroke: #038048; stroke-width: 1.0;"/><text fill="#000000" font-family="sans-serif" font-size="11" lengthAdjust="spacingAndGlyphs" textLength="548" x="26" y="234.2339">InitializePreSelected(currentlySelected:List&lt;SceneObject&gt;, preSelected:List&lt;SceneObject&gt;) : int</text><!--MD5=[92d1d42b41ac56e5f57f4bc2f2e7fa06]
class LinkedList`1--><rect fill="#FEFECE" filter="url(#f1a2twjvdgcmev)" height="48" id="LinkedList`1" style="stroke: #A80036; stroke-width: 1.5;" width="118" x="164" y="301"/><ellipse cx="179" cy="317" fill="#ADD1B2" rx="11" ry="11" style="stroke: #A80036; stroke-width: 1.0;"/><path d="M181.9688,322.6406 Q181.3906,322.9375 180.75,323.0781 Q180.1094,323.2344 179.4063,323.2344 Q176.9063,323.2344 175.5781,321.5938 Q174.2656,319.9375 174.2656,316.8125 Q174.2656,313.6875 175.5781,312.0313 Q176.9063,310.375 179.4063,310.375 Q180.1094,310.375 180.75,310.5313 Q181.4063,310.6875 181.9688,310.9844 L181.9688,313.7031 Q181.3438,313.125 180.75,312.8594 Q180.1563,312.5781 179.5313,312.5781 Q178.1875,312.5781 177.5,313.6563 Q176.8125,314.7188 176.8125,316.8125 Q176.8125,318.9063 177.5,319.9844 Q178.1875,321.0469 179.5313,321.0469 Q180.1563,321.0469 180.75,320.7813 Q181.3438,320.5 181.9688,319.9219 L181.9688,322.6406 Z "/><text fill="#000000" font-family="sans-serif" font-size="12" lengthAdjust="spacingAndGlyphs" textLength="75" x="193" y="321.1543">LinkedList`1</text><rect fill="#FFFFFF" height="15.9688" style="stroke: #000000; stroke-width: 1.0; stroke-dasharray: 2.0,2.0;" width="9" x="276" y="298"/><text fill="#000000" font-family="sans-serif" font-size="12" font-style="italic" lengthAdjust="spacingAndGlyphs" textLength="7" x="277" y="310.1387">T</text><line style="stroke: #A80036; stroke-width: 1.5;" x1="165" x2="281" y1="333" y2="333"/><line style="stroke: #A80036; stroke-width: 1.5;" x1="165" x2="281" y1="341" y2="341"/><!--MD5=[500abf91d043834fcdd772523ff9273e]
class Stack`1--><rect fill="#FEFECE" filter="url(#f1a2twjvdgcmev)" height="48" id="Stack`1" style="stroke: #A80036; stroke-width: 1.5;" width="92" x="317" y="301"/><ellipse cx="332" cy="317" fill="#ADD1B2" rx="11" ry="11" style="stroke: #A80036; stroke-width: 1.0;"/><path d="M334.9688,322.6406 Q334.3906,322.9375 333.75,323.0781 Q333.1094,323.2344 332.4063,323.2344 Q329.9063,323.2344 328.5781,321.5938 Q327.2656,319.9375 327.2656,316.8125 Q327.2656,313.6875 328.5781,312.0313 Q329.9063,310.375 332.4063,310.375 Q333.1094,310.375 333.75,310.5313 Q334.4063,310.6875 334.9688,310.9844 L334.9688,313.7031 Q334.3438,313.125 333.75,312.8594 Q333.1563,312.5781 332.5313,312.5781 Q331.1875,312.5781 330.5,313.6563 Q329.8125,314.7188 329.8125,316.8125 Q329.8125,318.9063 330.5,319.9844 Q331.1875,321.0469 332.5313,321.0469 Q333.1563,321.0469 333.75,320.7813 Q334.3438,320.5 334.9688,319.9219 L334.9688,322.6406 Z "/><text fill="#000000" font-family="sans-serif" font-size="12" lengthAdjust="spacingAndGlyphs" textLength="49" x="346" y="321.1543">Stack`1</text><rect fill="#FFFFFF" height="15.9688" style="stroke: #000000; stroke-width: 1.0; stroke-dasharray: 2.0,2.0;" width="9" x="403" y="298"/><text fill="#000000" font-family="sans-serif" font-size="12" font-style="italic" lengthAdjust="spacingAndGlyphs" textLength="7" x="404" y="310.1387">T</text><line style="stroke: #A80036; stroke-width: 1.5;" x1="318" x2="408" y1="333" y2="333"/><line style="stroke: #A80036; stroke-width: 1.5;" x1="318" x2="408" y1="341" y2="341"/><!--MD5=[e644022de7dea015dd09463c37421447]
class List`1--><rect fill="#FEFECE" filter="url(#f1a2twjvdgcmev)" height="48" id="List`1" style="stroke: #A80036; stroke-width: 1.5;" width="78" x="615" y="154.5"/><ellipse cx="630" cy="170.5" fill="#ADD1B2" rx="11" ry="11" style="stroke: #A80036; stroke-width: 1.0;"/><path d="M632.9688,176.1406 Q632.3906,176.4375 631.75,176.5781 Q631.1094,176.7344 630.4063,176.7344 Q627.9063,176.7344 626.5781,175.0938 Q625.2656,173.4375 625.2656,170.3125 Q625.2656,167.1875 626.5781,165.5313 Q627.9063,163.875 630.4063,163.875 Q631.1094,163.875 631.75,164.0313 Q632.4063,164.1875 632.9688,164.4844 L632.9688,167.2031 Q632.3438,166.625 631.75,166.3594 Q631.1563,166.0781 630.5313,166.0781 Q629.1875,166.0781 628.5,167.1563 Q627.8125,168.2188 627.8125,170.3125 Q627.8125,172.4063 628.5,173.4844 Q629.1875,174.5469 630.5313,174.5469 Q631.1563,174.5469 631.75,174.2813 Q632.3438,174 632.9688,173.4219 L632.9688,176.1406 Z "/><text fill="#000000" font-family="sans-serif" font-size="12" lengthAdjust="spacingAndGlyphs" textLength="35" x="644" y="174.6543">List`1</text><rect fill="#FFFFFF" height="15.9688" style="stroke: #000000; stroke-width: 1.0; stroke-dasharray: 2.0,2.0;" width="9" x="687" y="151.5"/><text fill="#000000" font-family="sans-serif" font-size="12" font-style="italic" lengthAdjust="spacingAndGlyphs" textLength="7" x="688" y="163.6387">T</text><line style="stroke: #A80036; stroke-width: 1.5;" x1="616" x2="692" y1="186.5" y2="186.5"/><line style="stroke: #A80036; stroke-width: 1.5;" x1="616" x2="692" y1="194.5" y2="194.5"/><!--MD5=[5afa9872f8a3e7e6502e04d57f103471]
class BaseObjectCommands--><rect fill="#FEFECE" filter="url(#f1a2twjvdgcmev)" height="48" id="BaseObjectCommands" style="stroke: #A80036; stroke-width: 1.5;" width="172" x="207" y="8"/><ellipse cx="222" cy="24" fill="#ADD1B2" rx="11" ry="11" style="stroke: #A80036; stroke-width: 1.0;"/><path d="M224.9688,29.6406 Q224.3906,29.9375 223.75,30.0781 Q223.1094,30.2344 222.4063,30.2344 Q219.9063,30.2344 218.5781,28.5938 Q217.2656,26.9375 217.2656,23.8125 Q217.2656,20.6875 218.5781,19.0313 Q219.9063,17.375 222.4063,17.375 Q223.1094,17.375 223.75,17.5313 Q224.4063,17.6875 224.9688,17.9844 L224.9688,20.7031 Q224.3438,20.125 223.75,19.8594 Q223.1563,19.5781 222.5313,19.5781 Q221.1875,19.5781 220.5,20.6563 Q219.8125,21.7188 219.8125,23.8125 Q219.8125,25.9063 220.5,26.9844 Q221.1875,28.0469 222.5313,28.0469 Q223.1563,28.0469 223.75,27.7813 Q224.3438,27.5 224.9688,26.9219 L224.9688,29.6406 Z "/><text fill="#000000" font-family="sans-serif" font-size="12" lengthAdjust="spacingAndGlyphs" textLength="140" x="236" y="28.1543">BaseObjectCommands</text><line style="stroke: #A80036; stroke-width: 1.5;" x1="208" x2="378" y1="40" y2="40"/><line style="stroke: #A80036; stroke-width: 1.5;" x1="208" x2="378" y1="48" y2="48"/><!--MD5=[59d251e1886a33cf0ced49f14620e21f]
reverse link BaseObjectCommands to SelectObjectCommand--><path d="M293,76.67 C293,89.05 293,102.77 293,115.99 " fill="none" id="BaseObjectCommands&lt;-SelectObjectCommand" style="stroke: #A80036; stroke-width: 1.0;"/><polygon fill="none" points="286,76.22,293,56.22,300,76.22,286,76.22" style="stroke: #A80036; stroke-width: 1.0;"/><!--MD5=[57ab936df37aeb290f89e174d0ba67a6]
link SelectObjectCommand to LinkedList`1--><path d="M263.11,241.2 C253.82,260.39 244.03,280.59 236.45,296.23 " fill="none" id="SelectObjectCommand-&gt;LinkedList`1" style="stroke: #A80036; stroke-width: 1.0;"/><polygon fill="#A80036" points="234.17,300.94,241.7002,294.592,236.3545,296.4425,234.5041,291.0968,234.17,300.94" style="stroke: #A80036; stroke-width: 1.0;"/><text fill="#000000" font-family="sans-serif" font-size="13" lengthAdjust="spacingAndGlyphs" textLength="208" x="2.3823" y="289.9367">undoLinkedList&lt;SceneObject[]&gt;</text><!--MD5=[cc9aa4773f68181e5cd862a69fee6ad2]
link SelectObjectCommand to Stack`1--><path d="M322.89,241.2 C332.18,260.39 341.97,280.59 349.55,296.23 " fill="none" id="SelectObjectCommand-&gt;Stack`1" style="stroke: #A80036; stroke-width: 1.0;"/><polygon fill="#A80036" points="351.83,300.94,351.4959,291.0968,349.6455,296.4425,344.2998,294.592,351.83,300.94" style="stroke: #A80036; stroke-width: 1.0;"/><text fill="#000000" font-family="sans-serif" font-size="13" lengthAdjust="spacingAndGlyphs" textLength="178" x="371.7739" y="289.9367">redoStack&lt;SceneObject[]&gt;</text><!--MD5=[dec48329823c5b2bb22a76d1fdd601ec]
link SelectObjectCommand to List`1--><path d="M592.32,178.5 C592.32,178.5 598.87,178.5 601.53,178.5 " fill="none" id="SelectObjectCommand-List`1" style="stroke: #A80036; stroke-width: 1.0;"/><polygon fill="#A80036" points="614.86,178.5,605.86,174.5,609.86,178.5,605.86,182.5,614.86,178.5" style="stroke: #A80036; stroke-width: 1.0;"/><line style="stroke: #A80036; stroke-width: 1.0;" x1="609.86" x2="601.86" y1="178.5" y2="178.5"/><polygon fill="#FFFFFF" points="580.32,178.5,586.32,182.5,592.32,178.5,586.32,174.5,580.32,178.5" style="stroke: #A80036; stroke-width: 1.0;"/><text fill="#000000" font-family="sans-serif" font-size="13" lengthAdjust="spacingAndGlyphs" textLength="180" x="698.779" y="163.3015">preSelected&lt;SceneObject&gt;</text><!--MD5=[b755cafd48656baefedffeb0504ba535]
@startuml
class SelectObjectCommand {
    + <<override>> Execute() : void
    + <<override>> Undo() : void
    + <<override>> Redo() : void
    + <<override>> ClearFirstUndo() : void
    + <<override>> ClearRedo() : void
    + InitializePreSelected(currentlySelected:List<SceneObject>, preSelected:List<SceneObject>) : int
}
class "LinkedList`1"<T> {
}
class "Stack`1"<T> {
}
class "List`1"<T> {
}
BaseObjectCommands <|- - SelectObjectCommand
SelectObjectCommand - -> "undoLinkedList<SceneObject[]>" "LinkedList`1"
SelectObjectCommand - -> "redoStack<SceneObject[]>" "Stack`1"
SelectObjectCommand o-> "preSelected<SceneObject>" "List`1"
@enduml

PlantUML version 1.2020.02(Sun Mar 01 10:22:07 GMT 2020)
(GPL source distribution)
Java Runtime: OpenJDK Runtime Environment
JVM: OpenJDK 64-Bit Server VM
Java Version: 11.0.9+11-Ubuntu-0ubuntu1
Operating System: Linux
Default Encoding: ANSI_X3.4-1968
Language: en
Country: US
--></g></svg>