<?xml version="1.0" encoding="UTF-8" standalone="no"?><svg xmlns="http://www.w3.org/2000/svg" xmlns:xlink="http://www.w3.org/1999/xlink" contentScriptType="application/ecmascript" contentStyleType="text/css" height="360px" preserveAspectRatio="none" style="width:658px;height:360px;" version="1.1" viewBox="0 0 658 360" width="658px" zoomAndPan="magnify"><defs><filter height="300%" id="fx2m57c8wv5no" width="300%" x="-1" y="-1"><feGaussianBlur result="blurOut" stdDeviation="2.0"/><feColorMatrix in="blurOut" result="blurOut2" type="matrix" values="0 0 0 0 0 0 0 0 0 0 0 0 0 0 0 0 0 0 .4 0"/><feOffset dx="4.0" dy="4.0" in="blurOut2" result="blurOut3"/><feBlend in="SourceGraphic" in2="blurOut3" mode="normal"/></filter></defs><g><!--MD5=[5429c2c43ba5e61bece9375dd316c825]
class TranslateObjectCommand--><rect fill="#FEFECE" filter="url(#fx2m57c8wv5no)" height="124.8281" id="TranslateObjectCommand" style="stroke: #A80036; stroke-width: 1.5;" width="306" x="93.83" y="116"/><ellipse cx="162.08" cy="132" fill="#ADD1B2" rx="11" ry="11" style="stroke: #A80036; stroke-width: 1.0;"/><path d="M165.0487,137.6406 Q164.4706,137.9375 163.83,138.0781 Q163.1894,138.2344 162.4862,138.2344 Q159.9862,138.2344 158.6581,136.5938 Q157.3456,134.9375 157.3456,131.8125 Q157.3456,128.6875 158.6581,127.0313 Q159.9862,125.375 162.4862,125.375 Q163.1894,125.375 163.83,125.5313 Q164.4862,125.6875 165.0487,125.9844 L165.0487,128.7031 Q164.4237,128.125 163.83,127.8594 Q163.2362,127.5781 162.6112,127.5781 Q161.2675,127.5781 160.58,128.6563 Q159.8925,129.7188 159.8925,131.8125 Q159.8925,133.9063 160.58,134.9844 Q161.2675,136.0469 162.6112,136.0469 Q163.2362,136.0469 163.83,135.7813 Q164.4237,135.5 165.0487,134.9219 L165.0487,137.6406 Z "/><text fill="#000000" font-family="sans-serif" font-size="12" lengthAdjust="spacingAndGlyphs" textLength="161" x="182.58" y="136.1543">TranslateObjectCommand</text><line style="stroke: #A80036; stroke-width: 1.5;" x1="94.83" x2="398.83" y1="148" y2="148"/><line style="stroke: #A80036; stroke-width: 1.5;" x1="94.83" x2="398.83" y1="156" y2="156"/><ellipse cx="104.83" cy="167" fill="#84BE84" rx="3" ry="3" style="stroke: #038048; stroke-width: 1.0;"/><text fill="#000000" font-family="sans-serif" font-size="11" lengthAdjust="spacingAndGlyphs" textLength="152" x="113.83" y="170.2104">«override» Execute() : void</text><ellipse cx="104.83" cy="179.8047" fill="#84BE84" rx="3" ry="3" style="stroke: #038048; stroke-width: 1.0;"/><text fill="#000000" font-family="sans-serif" font-size="11" lengthAdjust="spacingAndGlyphs" textLength="137" x="113.83" y="183.0151">«override» Undo() : void</text><ellipse cx="104.83" cy="192.6094" fill="#84BE84" rx="3" ry="3" style="stroke: #038048; stroke-width: 1.0;"/><text fill="#000000" font-family="sans-serif" font-size="11" lengthAdjust="spacingAndGlyphs" textLength="136" x="113.83" y="195.8198">«override» Redo() : void</text><ellipse cx="104.83" cy="205.4141" fill="#84BE84" rx="3" ry="3" style="stroke: #038048; stroke-width: 1.0;"/><text fill="#000000" font-family="sans-serif" font-size="11" lengthAdjust="spacingAndGlyphs" textLength="192" x="113.83" y="208.6245">«override» ClearFirstUndo() : void</text><ellipse cx="104.83" cy="218.2188" fill="#84BE84" rx="3" ry="3" style="stroke: #038048; stroke-width: 1.0;"/><text fill="#000000" font-family="sans-serif" font-size="11" lengthAdjust="spacingAndGlyphs" textLength="166" x="113.83" y="221.4292">«override» ClearRedo() : void</text><ellipse cx="104.83" cy="231.0234" fill="#84BE84" rx="3" ry="3" style="stroke: #038048; stroke-width: 1.0;"/><text fill="#000000" font-family="sans-serif" font-size="11" lengthAdjust="spacingAndGlyphs" textLength="280" x="113.83" y="234.2339">InitializeNewPostition(newPostition:Vector3) : void</text><!--MD5=[92d1d42b41ac56e5f57f4bc2f2e7fa06]
class LinkedList`1--><rect fill="#FEFECE" filter="url(#fx2m57c8wv5no)" height="48" id="LinkedList`1" style="stroke: #A80036; stroke-width: 1.5;" width="118" x="117.83" y="301"/><ellipse cx="132.83" cy="317" fill="#ADD1B2" rx="11" ry="11" style="stroke: #A80036; stroke-width: 1.0;"/><path d="M135.7987,322.6406 Q135.2206,322.9375 134.58,323.0781 Q133.9394,323.2344 133.2362,323.2344 Q130.7362,323.2344 129.4081,321.5938 Q128.0956,319.9375 128.0956,316.8125 Q128.0956,313.6875 129.4081,312.0313 Q130.7362,310.375 133.2362,310.375 Q133.9394,310.375 134.58,310.5313 Q135.2362,310.6875 135.7987,310.9844 L135.7987,313.7031 Q135.1737,313.125 134.58,312.8594 Q133.9862,312.5781 133.3612,312.5781 Q132.0175,312.5781 131.33,313.6563 Q130.6425,314.7188 130.6425,316.8125 Q130.6425,318.9063 131.33,319.9844 Q132.0175,321.0469 133.3612,321.0469 Q133.9862,321.0469 134.58,320.7813 Q135.1737,320.5 135.7987,319.9219 L135.7987,322.6406 Z "/><text fill="#000000" font-family="sans-serif" font-size="12" lengthAdjust="spacingAndGlyphs" textLength="75" x="146.83" y="321.1543">LinkedList`1</text><rect fill="#FFFFFF" height="15.9688" style="stroke: #000000; stroke-width: 1.0; stroke-dasharray: 2.0,2.0;" width="9" x="229.83" y="298"/><text fill="#000000" font-family="sans-serif" font-size="12" font-style="italic" lengthAdjust="spacingAndGlyphs" textLength="7" x="230.83" y="310.1387">T</text><line style="stroke: #A80036; stroke-width: 1.5;" x1="118.83" x2="234.83" y1="333" y2="333"/><line style="stroke: #A80036; stroke-width: 1.5;" x1="118.83" x2="234.83" y1="341" y2="341"/><!--MD5=[500abf91d043834fcdd772523ff9273e]
class Stack`1--><rect fill="#FEFECE" filter="url(#fx2m57c8wv5no)" height="48" id="Stack`1" style="stroke: #A80036; stroke-width: 1.5;" width="92" x="270.83" y="301"/><ellipse cx="285.83" cy="317" fill="#ADD1B2" rx="11" ry="11" style="stroke: #A80036; stroke-width: 1.0;"/><path d="M288.7988,322.6406 Q288.2206,322.9375 287.58,323.0781 Q286.9394,323.2344 286.2363,323.2344 Q283.7363,323.2344 282.4081,321.5938 Q281.0956,319.9375 281.0956,316.8125 Q281.0956,313.6875 282.4081,312.0313 Q283.7363,310.375 286.2363,310.375 Q286.9394,310.375 287.58,310.5313 Q288.2363,310.6875 288.7988,310.9844 L288.7988,313.7031 Q288.1738,313.125 287.58,312.8594 Q286.9863,312.5781 286.3613,312.5781 Q285.0175,312.5781 284.33,313.6563 Q283.6425,314.7188 283.6425,316.8125 Q283.6425,318.9063 284.33,319.9844 Q285.0175,321.0469 286.3613,321.0469 Q286.9863,321.0469 287.58,320.7813 Q288.1738,320.5 288.7988,319.9219 L288.7988,322.6406 Z "/><text fill="#000000" font-family="sans-serif" font-size="12" lengthAdjust="spacingAndGlyphs" textLength="49" x="299.83" y="321.1543">Stack`1</text><rect fill="#FFFFFF" height="15.9688" style="stroke: #000000; stroke-width: 1.0; stroke-dasharray: 2.0,2.0;" width="9" x="356.83" y="298"/><text fill="#000000" font-family="sans-serif" font-size="12" font-style="italic" lengthAdjust="spacingAndGlyphs" textLength="7" x="357.83" y="310.1387">T</text><line style="stroke: #A80036; stroke-width: 1.5;" x1="271.83" x2="361.83" y1="333" y2="333"/><line style="stroke: #A80036; stroke-width: 1.5;" x1="271.83" x2="361.83" y1="341" y2="341"/><!--MD5=[5afa9872f8a3e7e6502e04d57f103471]
class BaseObjectCommands--><rect fill="#FEFECE" filter="url(#fx2m57c8wv5no)" height="48" id="BaseObjectCommands" style="stroke: #A80036; stroke-width: 1.5;" width="172" x="160.83" y="8"/><ellipse cx="175.83" cy="24" fill="#ADD1B2" rx="11" ry="11" style="stroke: #A80036; stroke-width: 1.0;"/><path d="M178.7988,29.6406 Q178.2206,29.9375 177.58,30.0781 Q176.9394,30.2344 176.2363,30.2344 Q173.7363,30.2344 172.4081,28.5938 Q171.0956,26.9375 171.0956,23.8125 Q171.0956,20.6875 172.4081,19.0313 Q173.7363,17.375 176.2363,17.375 Q176.9394,17.375 177.58,17.5313 Q178.2363,17.6875 178.7988,17.9844 L178.7988,20.7031 Q178.1738,20.125 177.58,19.8594 Q176.9863,19.5781 176.3613,19.5781 Q175.0175,19.5781 174.33,20.6563 Q173.6425,21.7188 173.6425,23.8125 Q173.6425,25.9063 174.33,26.9844 Q175.0175,28.0469 176.3613,28.0469 Q176.9863,28.0469 177.58,27.7813 Q178.1738,27.5 178.7988,26.9219 L178.7988,29.6406 Z "/><text fill="#000000" font-family="sans-serif" font-size="12" lengthAdjust="spacingAndGlyphs" textLength="140" x="189.83" y="28.1543">BaseObjectCommands</text><line style="stroke: #A80036; stroke-width: 1.5;" x1="161.83" x2="331.83" y1="40" y2="40"/><line style="stroke: #A80036; stroke-width: 1.5;" x1="161.83" x2="331.83" y1="48" y2="48"/><!--MD5=[65d619c042c23702cef2ca07d67b1cf6]
class Vector3--><rect fill="#FEFECE" filter="url(#fx2m57c8wv5no)" height="48" id="Vector3" style="stroke: #A80036; stroke-width: 1.5;" width="81" x="435.33" y="154.5"/><ellipse cx="450.33" cy="170.5" fill="#ADD1B2" rx="11" ry="11" style="stroke: #A80036; stroke-width: 1.0;"/><path d="M453.2988,176.1406 Q452.7206,176.4375 452.08,176.5781 Q451.4394,176.7344 450.7363,176.7344 Q448.2363,176.7344 446.9081,175.0938 Q445.5956,173.4375 445.5956,170.3125 Q445.5956,167.1875 446.9081,165.5313 Q448.2363,163.875 450.7363,163.875 Q451.4394,163.875 452.08,164.0313 Q452.7363,164.1875 453.2988,164.4844 L453.2988,167.2031 Q452.6738,166.625 452.08,166.3594 Q451.4863,166.0781 450.8613,166.0781 Q449.5175,166.0781 448.83,167.1563 Q448.1425,168.2188 448.1425,170.3125 Q448.1425,172.4063 448.83,173.4844 Q449.5175,174.5469 450.8613,174.5469 Q451.4863,174.5469 452.08,174.2813 Q452.6738,174 453.2988,173.4219 L453.2988,176.1406 Z "/><text fill="#000000" font-family="sans-serif" font-size="12" lengthAdjust="spacingAndGlyphs" textLength="49" x="464.33" y="174.6543">Vector3</text><line style="stroke: #A80036; stroke-width: 1.5;" x1="436.33" x2="515.33" y1="186.5" y2="186.5"/><line style="stroke: #A80036; stroke-width: 1.5;" x1="436.33" x2="515.33" y1="194.5" y2="194.5"/><!--MD5=[1941d9399b8e904aa2448d52791b0eea]
reverse link BaseObjectCommands to TranslateObjectCommand--><path d="M246.83,76.67 C246.83,89.05 246.83,102.77 246.83,115.99 " fill="none" id="BaseObjectCommands&lt;-TranslateObjectCommand" style="stroke: #A80036; stroke-width: 1.0;"/><polygon fill="none" points="239.83,76.22,246.83,56.22,253.83,76.22,239.83,76.22" style="stroke: #A80036; stroke-width: 1.0;"/><!--MD5=[853dc0d000ba089deb62125ba5a046d0]
link TranslateObjectCommand to Vector3--><path d="M412.24,178.5 C412.24,178.5 418.98,178.5 421.81,178.5 " fill="none" id="TranslateObjectCommand-Vector3" style="stroke: #A80036; stroke-width: 1.0;"/><polygon fill="#A80036" points="435.08,178.5,426.08,174.5,430.08,178.5,426.08,182.5,435.08,178.5" style="stroke: #A80036; stroke-width: 1.0;"/><line style="stroke: #A80036; stroke-width: 1.0;" x1="430.08" x2="422.08" y1="178.5" y2="178.5"/><polygon fill="#FFFFFF" points="400.24,178.5,406.24,182.5,412.24,178.5,406.24,174.5,400.24,178.5" style="stroke: #A80036; stroke-width: 1.0;"/><text fill="#000000" font-family="sans-serif" font-size="13" lengthAdjust="spacingAndGlyphs" textLength="124" x="522.205" y="145.0892">positionToTranslate</text><!--MD5=[1289177fa57f5467c21894f545f013e5]
link TranslateObjectCommand to LinkedList`1--><path d="M216.94,241.2 C207.64,260.39 197.86,280.59 190.28,296.23 " fill="none" id="TranslateObjectCommand-&gt;LinkedList`1" style="stroke: #A80036; stroke-width: 1.0;"/><polygon fill="#A80036" points="188,300.94,195.5302,294.592,190.1845,296.4425,188.3341,291.0968,188,300.94" style="stroke: #A80036; stroke-width: 1.0;"/><text fill="#000000" font-family="sans-serif" font-size="13" lengthAdjust="spacingAndGlyphs" textLength="167" x="2.4654" y="289.9367">undoLinkedList&lt;Vector3&gt;</text><!--MD5=[71d0b2077769603d07879745a4537da6]
link TranslateObjectCommand to Stack`1--><path d="M276.72,241.2 C286.01,260.39 295.8,280.59 303.38,296.23 " fill="none" id="TranslateObjectCommand-&gt;Stack`1" style="stroke: #A80036; stroke-width: 1.0;"/><polygon fill="#A80036" points="305.65,300.94,305.3159,291.0968,303.4655,296.4425,298.1198,294.592,305.65,300.94" style="stroke: #A80036; stroke-width: 1.0;"/><text fill="#000000" font-family="sans-serif" font-size="13" lengthAdjust="spacingAndGlyphs" textLength="137" x="320.3382" y="289.9367">redoStack&lt;Vector3&gt;</text><!--MD5=[8d4a4d7e64d498a7479652b72ed8ebdb]
@startuml
class TranslateObjectCommand {
    + <<override>> Execute() : void
    + <<override>> Undo() : void
    + <<override>> Redo() : void
    + <<override>> ClearFirstUndo() : void
    + <<override>> ClearRedo() : void
    + InitializeNewPostition(newPostition:Vector3) : void
}
class "LinkedList`1"<T> {
}
class "Stack`1"<T> {
}
BaseObjectCommands <|- - TranslateObjectCommand
TranslateObjectCommand o-> "positionToTranslate" Vector3
TranslateObjectCommand - -> "undoLinkedList<Vector3>" "LinkedList`1"
TranslateObjectCommand - -> "redoStack<Vector3>" "Stack`1"
@enduml

PlantUML version 1.2020.02(Sun Mar 01 10:22:07 GMT 2020)
(GPL source distribution)
Java Runtime: OpenJDK Runtime Environment
JVM: OpenJDK 64-Bit Server VM
Java Version: 11.0.9+11-Ubuntu-0ubuntu1
Operating System: Linux
Default Encoding: ANSI_X3.4-1968
Language: en
Country: US
--></g></svg>