<?xml version="1.0" encoding="UTF-8" standalone="no"?><svg xmlns="http://www.w3.org/2000/svg" xmlns:xlink="http://www.w3.org/1999/xlink" contentScriptType="application/ecmascript" contentStyleType="text/css" height="360px" preserveAspectRatio="none" style="width:249px;height:360px;" version="1.1" viewBox="0 0 249 360" width="249px" zoomAndPan="magnify"><defs><filter height="300%" id="f6t6lomfnp01m" width="300%" x="-1" y="-1"><feGaussianBlur result="blurOut" stdDeviation="2.0"/><feColorMatrix in="blurOut" result="blurOut2" type="matrix" values="0 0 0 0 0 0 0 0 0 0 0 0 0 0 0 0 0 0 .4 0"/><feOffset dx="4.0" dy="4.0" in="blurOut2" result="blurOut3"/><feBlend in="SourceGraphic" in2="blurOut3" mode="normal"/></filter></defs><g><!--MD5=[e03d4c2f474ddd868eb5f718b492b09b]
class BaseEditorCommand--><rect fill="#FEFECE" filter="url(#f6t6lomfnp01m)" height="124.8281" id="BaseEditorCommand" style="stroke: #A80036; stroke-width: 1.5;" width="206" x="20" y="116"/><ellipse cx="54.8" cy="132" fill="#ADD1B2" rx="11" ry="11" style="stroke: #A80036; stroke-width: 1.0;"/><path d="M57.7688,137.6406 Q57.1906,137.9375 56.55,138.0781 Q55.9094,138.2344 55.2063,138.2344 Q52.7063,138.2344 51.3781,136.5938 Q50.0656,134.9375 50.0656,131.8125 Q50.0656,128.6875 51.3781,127.0313 Q52.7063,125.375 55.2063,125.375 Q55.9094,125.375 56.55,125.5313 Q57.2063,125.6875 57.7688,125.9844 L57.7688,128.7031 Q57.1438,128.125 56.55,127.8594 Q55.9563,127.5781 55.3313,127.5781 Q53.9875,127.5781 53.3,128.6563 Q52.6125,129.7188 52.6125,131.8125 Q52.6125,133.9063 53.3,134.9844 Q53.9875,136.0469 55.3313,136.0469 Q55.9563,136.0469 56.55,135.7813 Q57.1438,135.5 57.7688,134.9219 L57.7688,137.6406 Z "/><text fill="#000000" font-family="sans-serif" font-size="12" lengthAdjust="spacingAndGlyphs" textLength="130" x="73.2" y="136.1543">BaseEditorCommand</text><line style="stroke: #A80036; stroke-width: 1.5;" x1="21" x2="225" y1="148" y2="148"/><ellipse cx="31" cy="159" fill="none" rx="3" ry="3" style="stroke: #038048; stroke-width: 1.0;"/><text fill="#000000" font-family="sans-serif" font-size="11" lengthAdjust="spacingAndGlyphs" textLength="172" x="40" y="162.2104">addToUndo : bool «get» «set»</text><line style="stroke: #A80036; stroke-width: 1.5;" x1="21" x2="225" y1="168.8047" y2="168.8047"/><ellipse cx="31" cy="179.8047" fill="#84BE84" rx="3" ry="3" style="stroke: #038048; stroke-width: 1.0;"/><text fill="#000000" font-family="sans-serif" font-size="11" lengthAdjust="spacingAndGlyphs" textLength="140" x="40" y="183.0151">«virtual» Execute() : void</text><ellipse cx="31" cy="192.6094" fill="#84BE84" rx="3" ry="3" style="stroke: #038048; stroke-width: 1.0;"/><text fill="#000000" font-family="sans-serif" font-size="11" lengthAdjust="spacingAndGlyphs" textLength="125" x="40" y="195.8198">«virtual» Undo() : void</text><ellipse cx="31" cy="205.4141" fill="#84BE84" rx="3" ry="3" style="stroke: #038048; stroke-width: 1.0;"/><text fill="#000000" font-family="sans-serif" font-size="11" lengthAdjust="spacingAndGlyphs" textLength="124" x="40" y="208.6245">«virtual» Redo() : void</text><ellipse cx="31" cy="218.2188" fill="#84BE84" rx="3" ry="3" style="stroke: #038048; stroke-width: 1.0;"/><text fill="#000000" font-family="sans-serif" font-size="11" lengthAdjust="spacingAndGlyphs" textLength="180" x="40" y="221.4292">«virtual» ClearFirstUndo() : void</text><ellipse cx="31" cy="231.0234" fill="#84BE84" rx="3" ry="3" style="stroke: #038048; stroke-width: 1.0;"/><text fill="#000000" font-family="sans-serif" font-size="11" lengthAdjust="spacingAndGlyphs" textLength="154" x="40" y="234.2339">«virtual» ClearRedo() : void</text><!--MD5=[cdc675492b5c7404f9d1fea69146a946]
class EditorBase--><rect fill="#FEFECE" filter="url(#f6t6lomfnp01m)" height="48" id="EditorBase" style="stroke: #A80036; stroke-width: 1.5;" width="100" x="6" y="8"/><ellipse cx="21" cy="24" fill="#ADD1B2" rx="11" ry="11" style="stroke: #A80036; stroke-width: 1.0;"/><path d="M23.9688,29.6406 Q23.3906,29.9375 22.75,30.0781 Q22.1094,30.2344 21.4063,30.2344 Q18.9063,30.2344 17.5781,28.5938 Q16.2656,26.9375 16.2656,23.8125 Q16.2656,20.6875 17.5781,19.0313 Q18.9063,17.375 21.4063,17.375 Q22.1094,17.375 22.75,17.5313 Q23.4063,17.6875 23.9688,17.9844 L23.9688,20.7031 Q23.3438,20.125 22.75,19.8594 Q22.1563,19.5781 21.5313,19.5781 Q20.1875,19.5781 19.5,20.6563 Q18.8125,21.7188 18.8125,23.8125 Q18.8125,25.9063 19.5,26.9844 Q20.1875,28.0469 21.5313,28.0469 Q22.1563,28.0469 22.75,27.7813 Q23.3438,27.5 23.9688,26.9219 L23.9688,29.6406 Z "/><text fill="#000000" font-family="sans-serif" font-size="12" lengthAdjust="spacingAndGlyphs" textLength="68" x="35" y="28.1543">EditorBase</text><line style="stroke: #A80036; stroke-width: 1.5;" x1="7" x2="105" y1="40" y2="40"/><line style="stroke: #A80036; stroke-width: 1.5;" x1="7" x2="105" y1="48" y2="48"/><!--MD5=[11008d568be52109e77f2977709dd853]
class ICommand--><rect fill="#FEFECE" filter="url(#f6t6lomfnp01m)" height="48" id="ICommand" style="stroke: #A80036; stroke-width: 1.5;" width="97" x="141.5" y="8"/><ellipse cx="156.5" cy="24" fill="#ADD1B2" rx="11" ry="11" style="stroke: #A80036; stroke-width: 1.0;"/><path d="M159.4688,29.6406 Q158.8906,29.9375 158.25,30.0781 Q157.6094,30.2344 156.9063,30.2344 Q154.4063,30.2344 153.0781,28.5938 Q151.7656,26.9375 151.7656,23.8125 Q151.7656,20.6875 153.0781,19.0313 Q154.4063,17.375 156.9063,17.375 Q157.6094,17.375 158.25,17.5313 Q158.9063,17.6875 159.4688,17.9844 L159.4688,20.7031 Q158.8438,20.125 158.25,19.8594 Q157.6563,19.5781 157.0313,19.5781 Q155.6875,19.5781 155,20.6563 Q154.3125,21.7188 154.3125,23.8125 Q154.3125,25.9063 155,26.9844 Q155.6875,28.0469 157.0313,28.0469 Q157.6563,28.0469 158.25,27.7813 Q158.8438,27.5 159.4688,26.9219 L159.4688,29.6406 Z "/><text fill="#000000" font-family="sans-serif" font-size="12" lengthAdjust="spacingAndGlyphs" textLength="65" x="170.5" y="28.1543">ICommand</text><line style="stroke: #A80036; stroke-width: 1.5;" x1="142.5" x2="237.5" y1="40" y2="40"/><line style="stroke: #A80036; stroke-width: 1.5;" x1="142.5" x2="237.5" y1="48" y2="48"/><!--MD5=[ee4c508de9d16bc5a4ce1076f631897d]
class KeyCode--><rect fill="#FEFECE" filter="url(#f6t6lomfnp01m)" height="48" id="KeyCode" style="stroke: #A80036; stroke-width: 1.5;" width="85" x="80.5" y="301"/><ellipse cx="95.5" cy="317" fill="#ADD1B2" rx="11" ry="11" style="stroke: #A80036; stroke-width: 1.0;"/><path d="M98.4688,322.6406 Q97.8906,322.9375 97.25,323.0781 Q96.6094,323.2344 95.9063,323.2344 Q93.4063,323.2344 92.0781,321.5938 Q90.7656,319.9375 90.7656,316.8125 Q90.7656,313.6875 92.0781,312.0313 Q93.4063,310.375 95.9063,310.375 Q96.6094,310.375 97.25,310.5313 Q97.9063,310.6875 98.4688,310.9844 L98.4688,313.7031 Q97.8438,313.125 97.25,312.8594 Q96.6563,312.5781 96.0313,312.5781 Q94.6875,312.5781 94,313.6563 Q93.3125,314.7188 93.3125,316.8125 Q93.3125,318.9063 94,319.9844 Q94.6875,321.0469 96.0313,321.0469 Q96.6563,321.0469 97.25,320.7813 Q97.8438,320.5 98.4688,319.9219 L98.4688,322.6406 Z "/><text fill="#000000" font-family="sans-serif" font-size="12" lengthAdjust="spacingAndGlyphs" textLength="53" x="109.5" y="321.1543">KeyCode</text><line style="stroke: #A80036; stroke-width: 1.5;" x1="81.5" x2="164.5" y1="333" y2="333"/><line style="stroke: #A80036; stroke-width: 1.5;" x1="81.5" x2="164.5" y1="341" y2="341"/><!--MD5=[95be3d4670dda7d827f9effba1c298dd]
reverse link EditorBase to BaseEditorCommand--><path d="M75.18,74.36 C81.19,87.33 87.96,101.94 94.48,115.99 " fill="none" id="EditorBase&lt;-BaseEditorCommand" style="stroke: #A80036; stroke-width: 1.0;"/><polygon fill="none" points="68.83,77.31,66.76,56.22,81.53,71.42,68.83,77.31" style="stroke: #A80036; stroke-width: 1.0;"/><!--MD5=[b1914b88aee0d66cbbe9dee619b6e473]
reverse link ICommand to BaseEditorCommand--><path d="M170.82,74.36 C164.81,87.33 158.04,101.94 151.52,115.99 " fill="none" id="ICommand&lt;-BaseEditorCommand" style="stroke: #A80036; stroke-width: 1.0;"/><polygon fill="none" points="164.47,71.42,179.24,56.22,177.17,77.31,164.47,71.42" style="stroke: #A80036; stroke-width: 1.0;"/><!--MD5=[4c9c93d25c70b91455d34508679f02b9]
link BaseEditorCommand to KeyCode--><path d="M123,241.2 C123,260.22 123,280.24 123,295.83 " fill="none" id="BaseEditorCommand-&gt;KeyCode" style="stroke: #A80036; stroke-width: 1.0;"/><polygon fill="#A80036" points="123,300.94,127,291.94,123,295.94,119,291.94,123,300.94" style="stroke: #A80036; stroke-width: 1.0;"/><text fill="#000000" font-family="sans-serif" font-size="13" lengthAdjust="spacingAndGlyphs" textLength="54" x="62.0813" y="289.9367">baseKey</text><!--MD5=[22a98e4aa78772701d7fa44973a26d60]
@startuml
class BaseEditorCommand {
    + addToUndo : bool <<get>> <<set>>
    + <<virtual>> Execute() : void
    + <<virtual>> Undo() : void
    + <<virtual>> Redo() : void
    + <<virtual>> ClearFirstUndo() : void
    + <<virtual>> ClearRedo() : void
}
EditorBase <|- - BaseEditorCommand
ICommand <|- - BaseEditorCommand
BaseEditorCommand - -> "baseKey" KeyCode
@enduml

PlantUML version 1.2020.02(Sun Mar 01 10:22:07 GMT 2020)
(GPL source distribution)
Java Runtime: OpenJDK Runtime Environment
JVM: OpenJDK 64-Bit Server VM
Java Version: 11.0.9+11-Ubuntu-0ubuntu1
Operating System: Linux
Default Encoding: ANSI_X3.4-1968
Language: en
Country: US
--></g></svg>