<?xml version="1.0" encoding="UTF-8" standalone="no"?><svg xmlns="http://www.w3.org/2000/svg" xmlns:xlink="http://www.w3.org/1999/xlink" contentScriptType="application/ecmascript" contentStyleType="text/css" height="194px" preserveAspectRatio="none" style="width:310px;height:194px;" version="1.1" viewBox="0 0 310 194" width="310px" zoomAndPan="magnify"><defs><filter height="300%" id="fdn5j60x3b59g" width="300%" x="-1" y="-1"><feGaussianBlur result="blurOut" stdDeviation="2.0"/><feColorMatrix in="blurOut" result="blurOut2" type="matrix" values="0 0 0 0 0 0 0 0 0 0 0 0 0 0 0 0 0 0 .4 0"/><feOffset dx="4.0" dy="4.0" in="blurOut2" result="blurOut3"/><feBlend in="SourceGraphic" in2="blurOut3" mode="normal"/></filter></defs><g><!--MD5=[c1f8e17d83d5d6a6ca17c065171989b6]
class CommandManager--><rect fill="#FEFECE" filter="url(#fdn5j60x3b59g)" height="176.0469" id="CommandManager" style="stroke: #A80036; stroke-width: 1.5;" width="292" x="7" y="7"/><ellipse cx="90.25" cy="23" fill="#ADD1B2" rx="11" ry="11" style="stroke: #A80036; stroke-width: 1.0;"/><path d="M93.2188,28.6406 Q92.6406,28.9375 92,29.0781 Q91.3594,29.2344 90.6563,29.2344 Q88.1563,29.2344 86.8281,27.5938 Q85.5156,25.9375 85.5156,22.8125 Q85.5156,19.6875 86.8281,18.0313 Q88.1563,16.375 90.6563,16.375 Q91.3594,16.375 92,16.5313 Q92.6563,16.6875 93.2188,16.9844 L93.2188,19.7031 Q92.5938,19.125 92,18.8594 Q91.4063,18.5781 90.7813,18.5781 Q89.4375,18.5781 88.75,19.6563 Q88.0625,20.7188 88.0625,22.8125 Q88.0625,24.9063 88.75,25.9844 Q89.4375,27.0469 90.7813,27.0469 Q91.4063,27.0469 92,26.7813 Q92.5938,26.5 93.2188,25.9219 L93.2188,28.6406 Z "/><text fill="#000000" font-family="sans-serif" font-size="12" lengthAdjust="spacingAndGlyphs" textLength="117" x="110.75" y="27.1543">CommandManager</text><line style="stroke: #A80036; stroke-width: 1.5;" x1="8" x2="298" y1="39" y2="39"/><ellipse cx="18" cy="50" fill="none" rx="3" ry="3" style="stroke: #038048; stroke-width: 1.0;"/><text fill="#000000" font-family="sans-serif" font-size="11" lengthAdjust="spacingAndGlyphs" text-decoration="underline" textLength="178" x="27" y="53.2104">globalMaxUndoAmount : int = 0</text><line style="stroke: #A80036; stroke-width: 1.5;" x1="8" x2="298" y1="59.8047" y2="59.8047"/><ellipse cx="18" cy="70.8047" fill="#84BE84" rx="3" ry="3" style="stroke: #038048; stroke-width: 1.0;"/><text fill="#000000" font-family="sans-serif" font-size="11" lengthAdjust="spacingAndGlyphs" textLength="229" x="27" y="74.0151">CommandManager(maxUndoAmount:int)</text><ellipse cx="18" cy="83.6094" fill="#84BE84" rx="3" ry="3" style="stroke: #038048; stroke-width: 1.0;"/><text fill="#000000" font-family="sans-serif" font-size="11" lengthAdjust="spacingAndGlyphs" textLength="266" x="27" y="86.8198">ExecuteCommand(command:ICommand) : void</text><ellipse cx="18" cy="96.4141" fill="#84BE84" rx="3" ry="3" style="stroke: #038048; stroke-width: 1.0;"/><text fill="#000000" font-family="sans-serif" font-size="11" lengthAdjust="spacingAndGlyphs" textLength="130" x="27" y="99.6245">UndoCommand() : void</text><ellipse cx="18" cy="109.2188" fill="#84BE84" rx="3" ry="3" style="stroke: #038048; stroke-width: 1.0;"/><text fill="#000000" font-family="sans-serif" font-size="11" lengthAdjust="spacingAndGlyphs" textLength="129" x="27" y="112.4292">RedoCommand() : void</text><ellipse cx="18" cy="122.0234" fill="#84BE84" rx="3" ry="3" style="stroke: #038048; stroke-width: 1.0;"/><text fill="#000000" font-family="sans-serif" font-size="11" lengthAdjust="spacingAndGlyphs" textLength="161" x="27" y="125.2339">Push(item:ICommand) : void</text><ellipse cx="18" cy="134.8281" fill="#84BE84" rx="3" ry="3" style="stroke: #038048; stroke-width: 1.0;"/><text fill="#000000" font-family="sans-serif" font-size="11" lengthAdjust="spacingAndGlyphs" textLength="102" x="27" y="138.0386">Pop() : ICommand</text><ellipse cx="18" cy="147.6328" fill="#84BE84" rx="3" ry="3" style="stroke: #038048; stroke-width: 1.0;"/><text fill="#000000" font-family="sans-serif" font-size="11" lengthAdjust="spacingAndGlyphs" textLength="140" x="27" y="150.8433">RemoveAtBottom() : void</text><ellipse cx="18" cy="160.4375" fill="#84BE84" rx="3" ry="3" style="stroke: #038048; stroke-width: 1.0;"/><text fill="#000000" font-family="sans-serif" font-size="11" lengthAdjust="spacingAndGlyphs" textLength="120" x="27" y="163.6479">RemoveAtTop() : void</text><ellipse cx="18" cy="173.2422" fill="#84BE84" rx="3" ry="3" style="stroke: #038048; stroke-width: 1.0;"/><text fill="#000000" font-family="sans-serif" font-size="11" lengthAdjust="spacingAndGlyphs" textLength="86" x="27" y="176.4526">ClearAll() : void</text><!--MD5=[b113adef930f640c55d9f7714c478826]
@startuml
class CommandManager {
    + {static} globalMaxUndoAmount : int = 0
    + CommandManager(maxUndoAmount:int)
    + ExecuteCommand(command:ICommand) : void
    + UndoCommand() : void
    + RedoCommand() : void
    + Push(item:ICommand) : void
    + Pop() : ICommand
    + RemoveAtBottom() : void
    + RemoveAtTop() : void
    + ClearAll() : void
}
@enduml

PlantUML version 1.2020.02(Sun Mar 01 10:22:07 GMT 2020)
(GPL source distribution)
Java Runtime: OpenJDK Runtime Environment
JVM: OpenJDK 64-Bit Server VM
Java Version: 11.0.9+11-Ubuntu-0ubuntu1
Operating System: Linux
Default Encoding: ANSI_X3.4-1968
Language: en
Country: US
--></g></svg>