<?xml version="1.0" encoding="UTF-8" standalone="no"?><svg xmlns="http://www.w3.org/2000/svg" xmlns:xlink="http://www.w3.org/1999/xlink" contentScriptType="application/ecmascript" contentStyleType="text/css" height="373px" preserveAspectRatio="none" style="width:249px;height:373px;" version="1.1" viewBox="0 0 249 373" width="249px" zoomAndPan="magnify"><defs><filter height="300%" id="fyj25ksrem3f9" width="300%" x="-1" y="-1"><feGaussianBlur result="blurOut" stdDeviation="2.0"/><feColorMatrix in="blurOut" result="blurOut2" type="matrix" values="0 0 0 0 0 0 0 0 0 0 0 0 0 0 0 0 0 0 .4 0"/><feOffset dx="4.0" dy="4.0" in="blurOut2" result="blurOut3"/><feBlend in="SourceGraphic" in2="blurOut3" mode="normal"/></filter></defs><g><!--MD5=[f1ddd9ecb8cebd11c3f1f76d196d908a]
class ExampleCommand--><rect fill="#FEFECE" filter="url(#fyj25ksrem3f9)" height="137.6328" id="ExampleCommand" style="stroke: #A80036; stroke-width: 1.5;" width="209" x="18.5" y="116"/><ellipse cx="61.85" cy="132" fill="#ADD1B2" rx="11" ry="11" style="stroke: #A80036; stroke-width: 1.0;"/><path d="M64.8188,137.6406 Q64.2406,137.9375 63.6,138.0781 Q62.9594,138.2344 62.2563,138.2344 Q59.7563,138.2344 58.4281,136.5938 Q57.1156,134.9375 57.1156,131.8125 Q57.1156,128.6875 58.4281,127.0313 Q59.7563,125.375 62.2563,125.375 Q62.9594,125.375 63.6,125.5313 Q64.2563,125.6875 64.8188,125.9844 L64.8188,128.7031 Q64.1938,128.125 63.6,127.8594 Q63.0063,127.5781 62.3813,127.5781 Q61.0375,127.5781 60.35,128.6563 Q59.6625,129.7188 59.6625,131.8125 Q59.6625,133.9063 60.35,134.9844 Q61.0375,136.0469 62.3813,136.0469 Q63.0063,136.0469 63.6,135.7813 Q64.1938,135.5 64.8188,134.9219 L64.8188,137.6406 Z "/><text fill="#000000" font-family="sans-serif" font-size="12" lengthAdjust="spacingAndGlyphs" textLength="114" x="82.15" y="136.1543">ExampleCommand</text><line style="stroke: #A80036; stroke-width: 1.5;" x1="19.5" x2="226.5" y1="148" y2="148"/><text fill="#000000" font-family="sans-serif" font-size="11" lengthAdjust="spacingAndGlyphs" textLength="183" x="38.5" y="162.2104">addToUndoSystem : bool = true</text><ellipse cx="29.5" cy="171.8047" fill="none" rx="3" ry="3" style="stroke: #038048; stroke-width: 1.0;"/><text fill="#000000" font-family="sans-serif" font-size="11" lengthAdjust="spacingAndGlyphs" textLength="172" x="38.5" y="175.0151">addToUndo : bool «get» «set»</text><line style="stroke: #A80036; stroke-width: 1.5;" x1="19.5" x2="226.5" y1="181.6094" y2="181.6094"/><ellipse cx="29.5" cy="192.6094" fill="#84BE84" rx="3" ry="3" style="stroke: #038048; stroke-width: 1.0;"/><text fill="#000000" font-family="sans-serif" font-size="11" lengthAdjust="spacingAndGlyphs" textLength="87" x="38.5" y="195.8198">Execute() : void</text><ellipse cx="29.5" cy="205.4141" fill="#84BE84" rx="3" ry="3" style="stroke: #038048; stroke-width: 1.0;"/><text fill="#000000" font-family="sans-serif" font-size="11" lengthAdjust="spacingAndGlyphs" textLength="72" x="38.5" y="208.6245">Undo() : void</text><ellipse cx="29.5" cy="218.2188" fill="#84BE84" rx="3" ry="3" style="stroke: #038048; stroke-width: 1.0;"/><text fill="#000000" font-family="sans-serif" font-size="11" lengthAdjust="spacingAndGlyphs" textLength="71" x="38.5" y="221.4292">Redo() : void</text><ellipse cx="29.5" cy="231.0234" fill="#84BE84" rx="3" ry="3" style="stroke: #038048; stroke-width: 1.0;"/><text fill="#000000" font-family="sans-serif" font-size="11" lengthAdjust="spacingAndGlyphs" textLength="127" x="38.5" y="234.2339">ClearFirstUndo() : void</text><ellipse cx="29.5" cy="243.8281" fill="#84BE84" rx="3" ry="3" style="stroke: #038048; stroke-width: 1.0;"/><text fill="#000000" font-family="sans-serif" font-size="11" lengthAdjust="spacingAndGlyphs" textLength="101" x="38.5" y="247.0386">ClearRedo() : void</text><!--MD5=[cdc675492b5c7404f9d1fea69146a946]
class EditorBase--><rect fill="#FEFECE" filter="url(#fyj25ksrem3f9)" height="48" id="EditorBase" style="stroke: #A80036; stroke-width: 1.5;" width="100" x="6" y="8"/><ellipse cx="21" cy="24" fill="#ADD1B2" rx="11" ry="11" style="stroke: #A80036; stroke-width: 1.0;"/><path d="M23.9688,29.6406 Q23.3906,29.9375 22.75,30.0781 Q22.1094,30.2344 21.4063,30.2344 Q18.9063,30.2344 17.5781,28.5938 Q16.2656,26.9375 16.2656,23.8125 Q16.2656,20.6875 17.5781,19.0313 Q18.9063,17.375 21.4063,17.375 Q22.1094,17.375 22.75,17.5313 Q23.4063,17.6875 23.9688,17.9844 L23.9688,20.7031 Q23.3438,20.125 22.75,19.8594 Q22.1563,19.5781 21.5313,19.5781 Q20.1875,19.5781 19.5,20.6563 Q18.8125,21.7188 18.8125,23.8125 Q18.8125,25.9063 19.5,26.9844 Q20.1875,28.0469 21.5313,28.0469 Q22.1563,28.0469 22.75,27.7813 Q23.3438,27.5 23.9688,26.9219 L23.9688,29.6406 Z "/><text fill="#000000" font-family="sans-serif" font-size="12" lengthAdjust="spacingAndGlyphs" textLength="68" x="35" y="28.1543">EditorBase</text><line style="stroke: #A80036; stroke-width: 1.5;" x1="7" x2="105" y1="40" y2="40"/><line style="stroke: #A80036; stroke-width: 1.5;" x1="7" x2="105" y1="48" y2="48"/><!--MD5=[11008d568be52109e77f2977709dd853]
class ICommand--><rect fill="#FEFECE" filter="url(#fyj25ksrem3f9)" height="48" id="ICommand" style="stroke: #A80036; stroke-width: 1.5;" width="97" x="141.5" y="8"/><ellipse cx="156.5" cy="24" fill="#ADD1B2" rx="11" ry="11" style="stroke: #A80036; stroke-width: 1.0;"/><path d="M159.4688,29.6406 Q158.8906,29.9375 158.25,30.0781 Q157.6094,30.2344 156.9063,30.2344 Q154.4063,30.2344 153.0781,28.5938 Q151.7656,26.9375 151.7656,23.8125 Q151.7656,20.6875 153.0781,19.0313 Q154.4063,17.375 156.9063,17.375 Q157.6094,17.375 158.25,17.5313 Q158.9063,17.6875 159.4688,17.9844 L159.4688,20.7031 Q158.8438,20.125 158.25,19.8594 Q157.6563,19.5781 157.0313,19.5781 Q155.6875,19.5781 155,20.6563 Q154.3125,21.7188 154.3125,23.8125 Q154.3125,25.9063 155,26.9844 Q155.6875,28.0469 157.0313,28.0469 Q157.6563,28.0469 158.25,27.7813 Q158.8438,27.5 159.4688,26.9219 L159.4688,29.6406 Z "/><text fill="#000000" font-family="sans-serif" font-size="12" lengthAdjust="spacingAndGlyphs" textLength="65" x="170.5" y="28.1543">ICommand</text><line style="stroke: #A80036; stroke-width: 1.5;" x1="142.5" x2="237.5" y1="40" y2="40"/><line style="stroke: #A80036; stroke-width: 1.5;" x1="142.5" x2="237.5" y1="48" y2="48"/><!--MD5=[ee4c508de9d16bc5a4ce1076f631897d]
class KeyCode--><rect fill="#FEFECE" filter="url(#fyj25ksrem3f9)" height="48" id="KeyCode" style="stroke: #A80036; stroke-width: 1.5;" width="85" x="80.5" y="314"/><ellipse cx="95.5" cy="330" fill="#ADD1B2" rx="11" ry="11" style="stroke: #A80036; stroke-width: 1.0;"/><path d="M98.4688,335.6406 Q97.8906,335.9375 97.25,336.0781 Q96.6094,336.2344 95.9063,336.2344 Q93.4063,336.2344 92.0781,334.5938 Q90.7656,332.9375 90.7656,329.8125 Q90.7656,326.6875 92.0781,325.0313 Q93.4063,323.375 95.9063,323.375 Q96.6094,323.375 97.25,323.5313 Q97.9063,323.6875 98.4688,323.9844 L98.4688,326.7031 Q97.8438,326.125 97.25,325.8594 Q96.6563,325.5781 96.0313,325.5781 Q94.6875,325.5781 94,326.6563 Q93.3125,327.7188 93.3125,329.8125 Q93.3125,331.9063 94,332.9844 Q94.6875,334.0469 96.0313,334.0469 Q96.6563,334.0469 97.25,333.7813 Q97.8438,333.5 98.4688,332.9219 L98.4688,335.6406 Z "/><text fill="#000000" font-family="sans-serif" font-size="12" lengthAdjust="spacingAndGlyphs" textLength="53" x="109.5" y="334.1543">KeyCode</text><line style="stroke: #A80036; stroke-width: 1.5;" x1="81.5" x2="164.5" y1="346" y2="346"/><line style="stroke: #A80036; stroke-width: 1.5;" x1="81.5" x2="164.5" y1="354" y2="354"/><!--MD5=[7ba49aab804269a4450c22e186076abc]
reverse link EditorBase to ExampleCommand--><path d="M74.51,74.72 C80.18,87.5 86.57,101.9 92.81,115.96 " fill="none" id="EditorBase&lt;-ExampleCommand" style="stroke: #A80036; stroke-width: 1.0;"/><polygon fill="none" points="68.04,77.38,66.32,56.26,80.83,71.7,68.04,77.38" style="stroke: #A80036; stroke-width: 1.0;"/><!--MD5=[f86f7c8dc5bbda46eeeb15ac3ef72ecd]
reverse link ICommand to ExampleCommand--><path d="M171.49,74.72 C165.82,87.5 159.43,101.9 153.19,115.96 " fill="none" id="ICommand&lt;-ExampleCommand" style="stroke: #A80036; stroke-width: 1.0;"/><polygon fill="none" points="165.17,71.7,179.68,56.26,177.96,77.38,165.17,71.7" style="stroke: #A80036; stroke-width: 1.0;"/><!--MD5=[babe9c889d4e54f5d1b63fb715c45335]
link ExampleCommand to KeyCode--><path d="M123,254.43 C123,273.64 123,293.47 123,308.87 " fill="none" id="ExampleCommand-&gt;KeyCode" style="stroke: #A80036; stroke-width: 1.0;"/><polygon fill="#A80036" points="123,313.92,127,304.92,123,308.92,119,304.92,123,313.92" style="stroke: #A80036; stroke-width: 1.0;"/><text fill="#000000" font-family="sans-serif" font-size="13" lengthAdjust="spacingAndGlyphs" textLength="78" x="35.0063" y="302.9115">exampleKey</text><!--MD5=[3c2d63ee7d719a2faab6c121b2328321]
@startuml
class ExampleCommand {
    addToUndoSystem : bool = true
    + addToUndo : bool <<get>> <<set>>
    + Execute() : void
    + Undo() : void
    + Redo() : void
    + ClearFirstUndo() : void
    + ClearRedo() : void
}
EditorBase <|- - ExampleCommand
ICommand <|- - ExampleCommand
ExampleCommand - -> "exampleKey" KeyCode
@enduml

PlantUML version 1.2020.02(Sun Mar 01 10:22:07 GMT 2020)
(GPL source distribution)
Java Runtime: OpenJDK Runtime Environment
JVM: OpenJDK 64-Bit Server VM
Java Version: 11.0.9+11-Ubuntu-0ubuntu1
Operating System: Linux
Default Encoding: ANSI_X3.4-1968
Language: en
Country: US
--></g></svg>