<?xml version="1.0" encoding="UTF-8" standalone="no"?><svg xmlns="http://www.w3.org/2000/svg" xmlns:xlink="http://www.w3.org/1999/xlink" contentScriptType="application/ecmascript" contentStyleType="text/css" height="239px" preserveAspectRatio="none" style="width:236px;height:239px;" version="1.1" viewBox="0 0 236 239" width="236px" zoomAndPan="magnify"><defs><filter height="300%" id="f1h9v9zubiradu" width="300%" x="-1" y="-1"><feGaussianBlur result="blurOut" stdDeviation="2.0"/><feColorMatrix in="blurOut" result="blurOut2" type="matrix" values="0 0 0 0 0 0 0 0 0 0 0 0 0 0 0 0 0 0 .4 0"/><feOffset dx="4.0" dy="4.0" in="blurOut2" result="blurOut3"/><feBlend in="SourceGraphic" in2="blurOut3" mode="normal"/></filter></defs><g><!--MD5=[5bd1d985f5a8819f6c106ace2ea26689]
class AirMovementState--><rect fill="#FEFECE" filter="url(#f1h9v9zubiradu)" height="112.0234" id="AirMovementState" style="stroke: #A80036; stroke-width: 1.5;" width="219" x="6" y="116"/><ellipse cx="54.25" cy="132" fill="#ADD1B2" rx="11" ry="11" style="stroke: #A80036; stroke-width: 1.0;"/><path d="M57.2188,137.6406 Q56.6406,137.9375 56,138.0781 Q55.3594,138.2344 54.6563,138.2344 Q52.1563,138.2344 50.8281,136.5938 Q49.5156,134.9375 49.5156,131.8125 Q49.5156,128.6875 50.8281,127.0313 Q52.1563,125.375 54.6563,125.375 Q55.3594,125.375 56,125.5313 Q56.6563,125.6875 57.2188,125.9844 L57.2188,128.7031 Q56.5938,128.125 56,127.8594 Q55.4063,127.5781 54.7813,127.5781 Q53.4375,127.5781 52.75,128.6563 Q52.0625,129.7188 52.0625,131.8125 Q52.0625,133.9063 52.75,134.9844 Q53.4375,136.0469 54.7813,136.0469 Q55.4063,136.0469 56,135.7813 Q56.5938,135.5 57.2188,134.9219 L57.2188,137.6406 Z "/><text fill="#000000" font-family="sans-serif" font-size="12" lengthAdjust="spacingAndGlyphs" textLength="114" x="74.75" y="136.1543">AirMovementState</text><line style="stroke: #A80036; stroke-width: 1.5;" x1="7" x2="224" y1="148" y2="148"/><text fill="#000000" font-family="sans-serif" font-size="11" lengthAdjust="spacingAndGlyphs" textLength="112" x="12" y="162.2104">airMoveForce : float</text><text fill="#000000" font-family="sans-serif" font-size="11" lengthAdjust="spacingAndGlyphs" textLength="96" x="12" y="175.0151">jumpDelay : float</text><line style="stroke: #A80036; stroke-width: 1.5;" x1="7" x2="224" y1="181.6094" y2="181.6094"/><ellipse cx="17" cy="192.6094" fill="#84BE84" rx="3" ry="3" style="stroke: #038048; stroke-width: 1.0;"/><text fill="#000000" font-family="sans-serif" font-size="11" lengthAdjust="spacingAndGlyphs" textLength="154" x="26" y="195.8198">«override» OnEnter() : void</text><ellipse cx="17" cy="205.4141" fill="#84BE84" rx="3" ry="3" style="stroke: #038048; stroke-width: 1.0;"/><text fill="#000000" font-family="sans-serif" font-size="11" lengthAdjust="spacingAndGlyphs" textLength="193" x="26" y="208.6245">«override» OnFixedUpdate() : void</text><ellipse cx="17" cy="218.2188" fill="#84BE84" rx="3" ry="3" style="stroke: #038048; stroke-width: 1.0;"/><text fill="#000000" font-family="sans-serif" font-size="11" lengthAdjust="spacingAndGlyphs" textLength="164" x="26" y="221.4292">«override» OnUpdate() : void</text><!--MD5=[4fd6583678bceafaf6a1928f1cb4667f]
class MoveState--><rect fill="#FEFECE" filter="url(#f1h9v9zubiradu)" height="48" id="MoveState" style="stroke: #A80036; stroke-width: 1.5;" width="98" x="66.5" y="8"/><ellipse cx="81.5" cy="24" fill="#ADD1B2" rx="11" ry="11" style="stroke: #A80036; stroke-width: 1.0;"/><path d="M84.4688,29.6406 Q83.8906,29.9375 83.25,30.0781 Q82.6094,30.2344 81.9063,30.2344 Q79.4063,30.2344 78.0781,28.5938 Q76.7656,26.9375 76.7656,23.8125 Q76.7656,20.6875 78.0781,19.0313 Q79.4063,17.375 81.9063,17.375 Q82.6094,17.375 83.25,17.5313 Q83.9063,17.6875 84.4688,17.9844 L84.4688,20.7031 Q83.8438,20.125 83.25,19.8594 Q82.6563,19.5781 82.0313,19.5781 Q80.6875,19.5781 80,20.6563 Q79.3125,21.7188 79.3125,23.8125 Q79.3125,25.9063 80,26.9844 Q80.6875,28.0469 82.0313,28.0469 Q82.6563,28.0469 83.25,27.7813 Q83.8438,27.5 84.4688,26.9219 L84.4688,29.6406 Z "/><text fill="#000000" font-family="sans-serif" font-size="12" lengthAdjust="spacingAndGlyphs" textLength="66" x="95.5" y="28.1543">MoveState</text><line style="stroke: #A80036; stroke-width: 1.5;" x1="67.5" x2="163.5" y1="40" y2="40"/><line style="stroke: #A80036; stroke-width: 1.5;" x1="67.5" x2="163.5" y1="48" y2="48"/><!--MD5=[bb0e7a332125075b89dbccd264e6202d]
reverse link MoveState to AirMovementState--><path d="M115.5,76.25 C115.5,88.82 115.5,102.73 115.5,115.93 " fill="none" id="MoveState&lt;-AirMovementState" style="stroke: #A80036; stroke-width: 1.0;"/><polygon fill="none" points="108.5,76.1,115.5,56.1,122.5,76.1,108.5,76.1" style="stroke: #A80036; stroke-width: 1.0;"/><!--MD5=[93abf7a7ac446953fd1b6a03c596eca7]
@startuml
class AirMovementState {
    airMoveForce : float
    jumpDelay : float
    + <<override>> OnEnter() : void
    + <<override>> OnFixedUpdate() : void
    + <<override>> OnUpdate() : void
}
MoveState <|- - AirMovementState
@enduml

PlantUML version 1.2020.02(Sun Mar 01 10:22:07 GMT 2020)
(GPL source distribution)
Java Runtime: OpenJDK Runtime Environment
JVM: OpenJDK 64-Bit Server VM
Java Version: 11.0.9+11-Ubuntu-0ubuntu1
Operating System: Linux
Default Encoding: ANSI_X3.4-1968
Language: en
Country: US
--></g></svg>