<?xml version="1.0" encoding="UTF-8" standalone="no"?><svg xmlns="http://www.w3.org/2000/svg" xmlns:xlink="http://www.w3.org/1999/xlink" contentScriptType="application/ecmascript" contentStyleType="text/css" height="411px" preserveAspectRatio="none" style="width:236px;height:411px;" version="1.1" viewBox="0 0 236 411" width="236px" zoomAndPan="magnify"><defs><filter height="300%" id="f17cvrv4p0b3me" width="300%" x="-1" y="-1"><feGaussianBlur result="blurOut" stdDeviation="2.0"/><feColorMatrix in="blurOut" result="blurOut2" type="matrix" values="0 0 0 0 0 0 0 0 0 0 0 0 0 0 0 0 0 0 .4 0"/><feOffset dx="4.0" dy="4.0" in="blurOut2" result="blurOut3"/><feBlend in="SourceGraphic" in2="blurOut3" mode="normal"/></filter></defs><g><!--MD5=[f34e5518d52ad1d89e5b37d352604fbc]
class GroundMovementState--><rect fill="#FEFECE" filter="url(#f17cvrv4p0b3me)" height="176.0469" id="GroundMovementState" style="stroke: #A80036; stroke-width: 1.5;" width="219" x="6" y="116"/><ellipse cx="40.35" cy="132" fill="#ADD1B2" rx="11" ry="11" style="stroke: #A80036; stroke-width: 1.0;"/><path d="M43.3188,137.6406 Q42.7406,137.9375 42.1,138.0781 Q41.4594,138.2344 40.7563,138.2344 Q38.2563,138.2344 36.9281,136.5938 Q35.6156,134.9375 35.6156,131.8125 Q35.6156,128.6875 36.9281,127.0313 Q38.2563,125.375 40.7563,125.375 Q41.4594,125.375 42.1,125.5313 Q42.7563,125.6875 43.3188,125.9844 L43.3188,128.7031 Q42.6938,128.125 42.1,127.8594 Q41.5063,127.5781 40.8813,127.5781 Q39.5375,127.5781 38.85,128.6563 Q38.1625,129.7188 38.1625,131.8125 Q38.1625,133.9063 38.85,134.9844 Q39.5375,136.0469 40.8813,136.0469 Q41.5063,136.0469 42.1,135.7813 Q42.6938,135.5 43.3188,134.9219 L43.3188,137.6406 Z "/><text fill="#000000" font-family="sans-serif" font-size="12" lengthAdjust="spacingAndGlyphs" textLength="144" x="58.65" y="136.1543">GroundMovementState</text><line style="stroke: #A80036; stroke-width: 1.5;" x1="7" x2="224" y1="148" y2="148"/><text fill="#000000" font-family="sans-serif" font-size="11" lengthAdjust="spacingAndGlyphs" textLength="137" x="12" y="162.2104">groundMoveForce : float</text><text fill="#000000" font-family="sans-serif" font-size="11" lengthAdjust="spacingAndGlyphs" textLength="96" x="12" y="175.0151">jumpForce : float</text><text fill="#000000" font-family="sans-serif" font-size="11" lengthAdjust="spacingAndGlyphs" textLength="119" x="12" y="187.8198">recoveryTimer : float</text><text fill="#000000" font-family="sans-serif" font-size="11" lengthAdjust="spacingAndGlyphs" textLength="140" x="12" y="200.6245">maxRecoveryTime : float</text><line style="stroke: #A80036; stroke-width: 1.5;" x1="7" x2="224" y1="207.2188" y2="207.2188"/><ellipse cx="17" cy="218.2188" fill="#84BE84" rx="3" ry="3" style="stroke: #038048; stroke-width: 1.0;"/><text fill="#000000" font-family="sans-serif" font-size="11" lengthAdjust="spacingAndGlyphs" textLength="154" x="26" y="221.4292">«override» OnEnter() : void</text><ellipse cx="17" cy="231.0234" fill="#84BE84" rx="3" ry="3" style="stroke: #038048; stroke-width: 1.0;"/><text fill="#000000" font-family="sans-serif" font-size="11" lengthAdjust="spacingAndGlyphs" textLength="193" x="26" y="234.2339">«override» OnFixedUpdate() : void</text><ellipse cx="17" cy="243.8281" fill="#84BE84" rx="3" ry="3" style="stroke: #038048; stroke-width: 1.0;"/><text fill="#000000" font-family="sans-serif" font-size="11" lengthAdjust="spacingAndGlyphs" textLength="164" x="26" y="247.0386">«override» OnUpdate() : void</text><ellipse cx="17" cy="256.6328" fill="#84BE84" rx="3" ry="3" style="stroke: #038048; stroke-width: 1.0;"/><text fill="#000000" font-family="sans-serif" font-size="11" lengthAdjust="spacingAndGlyphs" textLength="188" x="26" y="259.8433">«override» OnLateUpdate() : void</text><text fill="#000000" font-family="sans-serif" font-size="11" lengthAdjust="spacingAndGlyphs" textLength="71" x="26" y="272.6479">Jump() : void</text><text fill="#000000" font-family="sans-serif" font-size="11" lengthAdjust="spacingAndGlyphs" textLength="126" x="26" y="285.4526">FollowPlatform() : void</text><!--MD5=[4fd6583678bceafaf6a1928f1cb4667f]
class MoveState--><rect fill="#FEFECE" filter="url(#f17cvrv4p0b3me)" height="48" id="MoveState" style="stroke: #A80036; stroke-width: 1.5;" width="98" x="66.5" y="8"/><ellipse cx="81.5" cy="24" fill="#ADD1B2" rx="11" ry="11" style="stroke: #A80036; stroke-width: 1.0;"/><path d="M84.4688,29.6406 Q83.8906,29.9375 83.25,30.0781 Q82.6094,30.2344 81.9063,30.2344 Q79.4063,30.2344 78.0781,28.5938 Q76.7656,26.9375 76.7656,23.8125 Q76.7656,20.6875 78.0781,19.0313 Q79.4063,17.375 81.9063,17.375 Q82.6094,17.375 83.25,17.5313 Q83.9063,17.6875 84.4688,17.9844 L84.4688,20.7031 Q83.8438,20.125 83.25,19.8594 Q82.6563,19.5781 82.0313,19.5781 Q80.6875,19.5781 80,20.6563 Q79.3125,21.7188 79.3125,23.8125 Q79.3125,25.9063 80,26.9844 Q80.6875,28.0469 82.0313,28.0469 Q82.6563,28.0469 83.25,27.7813 Q83.8438,27.5 84.4688,26.9219 L84.4688,29.6406 Z "/><text fill="#000000" font-family="sans-serif" font-size="12" lengthAdjust="spacingAndGlyphs" textLength="66" x="95.5" y="28.1543">MoveState</text><line style="stroke: #A80036; stroke-width: 1.5;" x1="67.5" x2="163.5" y1="40" y2="40"/><line style="stroke: #A80036; stroke-width: 1.5;" x1="67.5" x2="163.5" y1="48" y2="48"/><!--MD5=[65d619c042c23702cef2ca07d67b1cf6]
class Vector3--><rect fill="#FEFECE" filter="url(#f17cvrv4p0b3me)" height="48" id="Vector3" style="stroke: #A80036; stroke-width: 1.5;" width="81" x="75" y="352"/><ellipse cx="90" cy="368" fill="#ADD1B2" rx="11" ry="11" style="stroke: #A80036; stroke-width: 1.0;"/><path d="M92.9688,373.6406 Q92.3906,373.9375 91.75,374.0781 Q91.1094,374.2344 90.4063,374.2344 Q87.9063,374.2344 86.5781,372.5938 Q85.2656,370.9375 85.2656,367.8125 Q85.2656,364.6875 86.5781,363.0313 Q87.9063,361.375 90.4063,361.375 Q91.1094,361.375 91.75,361.5313 Q92.4063,361.6875 92.9688,361.9844 L92.9688,364.7031 Q92.3438,364.125 91.75,363.8594 Q91.1563,363.5781 90.5313,363.5781 Q89.1875,363.5781 88.5,364.6563 Q87.8125,365.7188 87.8125,367.8125 Q87.8125,369.9063 88.5,370.9844 Q89.1875,372.0469 90.5313,372.0469 Q91.1563,372.0469 91.75,371.7813 Q92.3438,371.5 92.9688,370.9219 L92.9688,373.6406 Z "/><text fill="#000000" font-family="sans-serif" font-size="12" lengthAdjust="spacingAndGlyphs" textLength="49" x="104" y="372.1543">Vector3</text><line style="stroke: #A80036; stroke-width: 1.5;" x1="76" x2="155" y1="384" y2="384"/><line style="stroke: #A80036; stroke-width: 1.5;" x1="76" x2="155" y1="392" y2="392"/><!--MD5=[af415b58de0de2b3a4a3b04ae65ebfa1]
reverse link MoveState to GroundMovementState--><path d="M115.5,76.71 C115.5,88.77 115.5,102.3 115.5,115.9 " fill="none" id="MoveState&lt;-GroundMovementState" style="stroke: #A80036; stroke-width: 1.0;"/><polygon fill="none" points="108.5,76.28,115.5,56.28,122.5,76.28,108.5,76.28" style="stroke: #A80036; stroke-width: 1.0;"/><!--MD5=[4f6cc3b8906c473c90bbb90781080553]
link GroundMovementState to Vector3--><path d="M115.5,292.49 C115.5,312.05 115.5,331.44 115.5,346.5 " fill="none" id="GroundMovementState-&gt;Vector3" style="stroke: #A80036; stroke-width: 1.0;"/><polygon fill="#A80036" points="115.5,351.85,119.5,342.85,115.5,346.85,111.5,342.85,115.5,351.85" style="stroke: #A80036; stroke-width: 1.0;"/><text fill="#000000" font-family="sans-serif" font-size="13" lengthAdjust="spacingAndGlyphs" textLength="55" x="53.4531" y="340.8236">deltaPos</text><!--MD5=[1e7445a66705f52be8368dd5fc8c2405]
@startuml
class GroundMovementState {
    groundMoveForce : float
    jumpForce : float
    recoveryTimer : float
    maxRecoveryTime : float
    + <<override>> OnEnter() : void
    + <<override>> OnFixedUpdate() : void
    + <<override>> OnUpdate() : void
    + <<override>> OnLateUpdate() : void
    Jump() : void
    FollowPlatform() : void
}
MoveState <|- - GroundMovementState
GroundMovementState - -> "deltaPos" Vector3
@enduml

PlantUML version 1.2020.02(Sun Mar 01 10:22:07 GMT 2020)
(GPL source distribution)
Java Runtime: OpenJDK Runtime Environment
JVM: OpenJDK 64-Bit Server VM
Java Version: 11.0.9+11-Ubuntu-0ubuntu1
Operating System: Linux
Default Encoding: ANSI_X3.4-1968
Language: en
Country: US
--></g></svg>