<?xml version="1.0" encoding="UTF-8" standalone="no"?><svg xmlns="http://www.w3.org/2000/svg" xmlns:xlink="http://www.w3.org/1999/xlink" contentScriptType="application/ecmascript" contentStyleType="text/css" height="385px" preserveAspectRatio="none" style="width:541px;height:385px;" version="1.1" viewBox="0 0 541 385" width="541px" zoomAndPan="magnify"><defs><filter height="300%" id="fmbw6wl12hdre" width="300%" x="-1" y="-1"><feGaussianBlur result="blurOut" stdDeviation="2.0"/><feColorMatrix in="blurOut" result="blurOut2" type="matrix" values="0 0 0 0 0 0 0 0 0 0 0 0 0 0 0 0 0 0 .4 0"/><feOffset dx="4.0" dy="4.0" in="blurOut2" result="blurOut3"/><feBlend in="SourceGraphic" in2="blurOut3" mode="normal"/></filter></defs><g><!--MD5=[49c293e7b586f80bbf4013178c064b81]
class IdleState--><rect fill="#FEFECE" filter="url(#fmbw6wl12hdre)" height="150.4375" id="IdleState" style="stroke: #A80036; stroke-width: 1.5;" width="219" x="132.5" y="116"/><ellipse cx="209.75" cy="132" fill="#ADD1B2" rx="11" ry="11" style="stroke: #A80036; stroke-width: 1.0;"/><path d="M212.7188,137.6406 Q212.1406,137.9375 211.5,138.0781 Q210.8594,138.2344 210.1563,138.2344 Q207.6563,138.2344 206.3281,136.5938 Q205.0156,134.9375 205.0156,131.8125 Q205.0156,128.6875 206.3281,127.0313 Q207.6563,125.375 210.1563,125.375 Q210.8594,125.375 211.5,125.5313 Q212.1563,125.6875 212.7188,125.9844 L212.7188,128.7031 Q212.0938,128.125 211.5,127.8594 Q210.9063,127.5781 210.2813,127.5781 Q208.9375,127.5781 208.25,128.6563 Q207.5625,129.7188 207.5625,131.8125 Q207.5625,133.9063 208.25,134.9844 Q208.9375,136.0469 210.2813,136.0469 Q210.9063,136.0469 211.5,135.7813 Q212.0938,135.5 212.7188,134.9219 L212.7188,137.6406 Z "/><text fill="#000000" font-family="sans-serif" font-size="12" lengthAdjust="spacingAndGlyphs" textLength="56" x="230.25" y="136.1543">IdleState</text><line style="stroke: #A80036; stroke-width: 1.5;" x1="133.5" x2="350.5" y1="148" y2="148"/><text fill="#000000" font-family="sans-serif" font-size="11" lengthAdjust="spacingAndGlyphs" textLength="147" x="138.5" y="162.2104">transitionTime : float = 3f</text><text fill="#000000" font-family="sans-serif" font-size="11" lengthAdjust="spacingAndGlyphs" textLength="148" x="138.5" y="175.0151">transitionTimer : float = 0</text><line style="stroke: #A80036; stroke-width: 1.5;" x1="133.5" x2="350.5" y1="181.6094" y2="181.6094"/><ellipse cx="143.5" cy="192.6094" fill="#84BE84" rx="3" ry="3" style="stroke: #038048; stroke-width: 1.0;"/><text fill="#000000" font-family="sans-serif" font-size="11" lengthAdjust="spacingAndGlyphs" textLength="154" x="152.5" y="195.8198">«override» OnEnter() : void</text><ellipse cx="143.5" cy="205.4141" fill="#84BE84" rx="3" ry="3" style="stroke: #038048; stroke-width: 1.0;"/><text fill="#000000" font-family="sans-serif" font-size="11" lengthAdjust="spacingAndGlyphs" textLength="144" x="152.5" y="208.6245">«override» OnExit() : void</text><ellipse cx="143.5" cy="218.2188" fill="#84BE84" rx="3" ry="3" style="stroke: #038048; stroke-width: 1.0;"/><text fill="#000000" font-family="sans-serif" font-size="11" lengthAdjust="spacingAndGlyphs" textLength="193" x="152.5" y="221.4292">«override» OnFixedUpdate() : void</text><ellipse cx="143.5" cy="231.0234" fill="#84BE84" rx="3" ry="3" style="stroke: #038048; stroke-width: 1.0;"/><text fill="#000000" font-family="sans-serif" font-size="11" lengthAdjust="spacingAndGlyphs" textLength="164" x="152.5" y="234.2339">«override» OnUpdate() : void</text><ellipse cx="143.5" cy="243.8281" fill="#84BE84" rx="3" ry="3" style="stroke: #038048; stroke-width: 1.0;"/><text fill="#000000" font-family="sans-serif" font-size="11" lengthAdjust="spacingAndGlyphs" textLength="153" x="152.5" y="247.0386">SwitchToMoveState() : void</text><ellipse cx="143.5" cy="256.6328" fill="#84BE84" rx="3" ry="3" style="stroke: #038048; stroke-width: 1.0;"/><text fill="#000000" font-family="sans-serif" font-size="11" lengthAdjust="spacingAndGlyphs" textLength="188" x="152.5" y="259.8433">«override» OnLateUpdate() : void</text><!--MD5=[ced70c4db88c0caf8c044d862484d7f7]
class BaseState--><rect fill="#FEFECE" filter="url(#fmbw6wl12hdre)" height="48" id="BaseState" style="stroke: #A80036; stroke-width: 1.5;" width="97" x="193.5" y="8"/><ellipse cx="208.5" cy="24" fill="#ADD1B2" rx="11" ry="11" style="stroke: #A80036; stroke-width: 1.0;"/><path d="M211.4688,29.6406 Q210.8906,29.9375 210.25,30.0781 Q209.6094,30.2344 208.9063,30.2344 Q206.4063,30.2344 205.0781,28.5938 Q203.7656,26.9375 203.7656,23.8125 Q203.7656,20.6875 205.0781,19.0313 Q206.4063,17.375 208.9063,17.375 Q209.6094,17.375 210.25,17.5313 Q210.9063,17.6875 211.4688,17.9844 L211.4688,20.7031 Q210.8438,20.125 210.25,19.8594 Q209.6563,19.5781 209.0313,19.5781 Q207.6875,19.5781 207,20.6563 Q206.3125,21.7188 206.3125,23.8125 Q206.3125,25.9063 207,26.9844 Q207.6875,28.0469 209.0313,28.0469 Q209.6563,28.0469 210.25,27.7813 Q210.8438,27.5 211.4688,26.9219 L211.4688,29.6406 Z "/><text fill="#000000" font-family="sans-serif" font-size="12" lengthAdjust="spacingAndGlyphs" textLength="65" x="222.5" y="28.1543">BaseState</text><line style="stroke: #A80036; stroke-width: 1.5;" x1="194.5" x2="289.5" y1="40" y2="40"/><line style="stroke: #A80036; stroke-width: 1.5;" x1="194.5" x2="289.5" y1="48" y2="48"/><!--MD5=[24ec51728e56f64a3c7112f6f5948d1e]
class Rigidbody--><rect fill="#FEFECE" filter="url(#fmbw6wl12hdre)" height="48" id="Rigidbody" style="stroke: #A80036; stroke-width: 1.5;" width="92" x="6" y="326"/><ellipse cx="21" cy="342" fill="#ADD1B2" rx="11" ry="11" style="stroke: #A80036; stroke-width: 1.0;"/><path d="M23.9688,347.6406 Q23.3906,347.9375 22.75,348.0781 Q22.1094,348.2344 21.4063,348.2344 Q18.9063,348.2344 17.5781,346.5938 Q16.2656,344.9375 16.2656,341.8125 Q16.2656,338.6875 17.5781,337.0313 Q18.9063,335.375 21.4063,335.375 Q22.1094,335.375 22.75,335.5313 Q23.4063,335.6875 23.9688,335.9844 L23.9688,338.7031 Q23.3438,338.125 22.75,337.8594 Q22.1563,337.5781 21.5313,337.5781 Q20.1875,337.5781 19.5,338.6563 Q18.8125,339.7188 18.8125,341.8125 Q18.8125,343.9063 19.5,344.9844 Q20.1875,346.0469 21.5313,346.0469 Q22.1563,346.0469 22.75,345.7813 Q23.3438,345.5 23.9688,344.9219 L23.9688,347.6406 Z "/><text fill="#000000" font-family="sans-serif" font-size="12" lengthAdjust="spacingAndGlyphs" textLength="60" x="35" y="346.1543">Rigidbody</text><line style="stroke: #A80036; stroke-width: 1.5;" x1="7" x2="97" y1="358" y2="358"/><line style="stroke: #A80036; stroke-width: 1.5;" x1="7" x2="97" y1="366" y2="366"/><!--MD5=[004b1d6c4ca8aad4ba8b586a335ed4f3]
class Transform--><rect fill="#FEFECE" filter="url(#fmbw6wl12hdre)" height="48" id="Transform" style="stroke: #A80036; stroke-width: 1.5;" width="95" x="133.5" y="326"/><ellipse cx="148.5" cy="342" fill="#ADD1B2" rx="11" ry="11" style="stroke: #A80036; stroke-width: 1.0;"/><path d="M151.4688,347.6406 Q150.8906,347.9375 150.25,348.0781 Q149.6094,348.2344 148.9063,348.2344 Q146.4063,348.2344 145.0781,346.5938 Q143.7656,344.9375 143.7656,341.8125 Q143.7656,338.6875 145.0781,337.0313 Q146.4063,335.375 148.9063,335.375 Q149.6094,335.375 150.25,335.5313 Q150.9063,335.6875 151.4688,335.9844 L151.4688,338.7031 Q150.8438,338.125 150.25,337.8594 Q149.6563,337.5781 149.0313,337.5781 Q147.6875,337.5781 147,338.6563 Q146.3125,339.7188 146.3125,341.8125 Q146.3125,343.9063 147,344.9844 Q147.6875,346.0469 149.0313,346.0469 Q149.6563,346.0469 150.25,345.7813 Q150.8438,345.5 151.4688,344.9219 L151.4688,347.6406 Z "/><text fill="#000000" font-family="sans-serif" font-size="12" lengthAdjust="spacingAndGlyphs" textLength="63" x="162.5" y="346.1543">Transform</text><line style="stroke: #A80036; stroke-width: 1.5;" x1="134.5" x2="227.5" y1="358" y2="358"/><line style="stroke: #A80036; stroke-width: 1.5;" x1="134.5" x2="227.5" y1="366" y2="366"/><!--MD5=[65d619c042c23702cef2ca07d67b1cf6]
class Vector3--><rect fill="#FEFECE" filter="url(#fmbw6wl12hdre)" height="48" id="Vector3" style="stroke: #A80036; stroke-width: 1.5;" width="81" x="263.5" y="326"/><ellipse cx="278.5" cy="342" fill="#ADD1B2" rx="11" ry="11" style="stroke: #A80036; stroke-width: 1.0;"/><path d="M281.4688,347.6406 Q280.8906,347.9375 280.25,348.0781 Q279.6094,348.2344 278.9063,348.2344 Q276.4063,348.2344 275.0781,346.5938 Q273.7656,344.9375 273.7656,341.8125 Q273.7656,338.6875 275.0781,337.0313 Q276.4063,335.375 278.9063,335.375 Q279.6094,335.375 280.25,335.5313 Q280.9063,335.6875 281.4688,335.9844 L281.4688,338.7031 Q280.8438,338.125 280.25,337.8594 Q279.6563,337.5781 279.0313,337.5781 Q277.6875,337.5781 277,338.6563 Q276.3125,339.7188 276.3125,341.8125 Q276.3125,343.9063 277,344.9844 Q277.6875,346.0469 279.0313,346.0469 Q279.6563,346.0469 280.25,345.7813 Q280.8438,345.5 281.4688,344.9219 L281.4688,347.6406 Z "/><text fill="#000000" font-family="sans-serif" font-size="12" lengthAdjust="spacingAndGlyphs" textLength="49" x="292.5" y="346.1543">Vector3</text><line style="stroke: #A80036; stroke-width: 1.5;" x1="264.5" x2="343.5" y1="358" y2="358"/><line style="stroke: #A80036; stroke-width: 1.5;" x1="264.5" x2="343.5" y1="366" y2="366"/><!--MD5=[4c7b140fed10e9877852f4b8dc88c33d]
class Quaternion--><rect fill="#FEFECE" filter="url(#fmbw6wl12hdre)" height="48" id="Quaternion" style="stroke: #A80036; stroke-width: 1.5;" width="102" x="380" y="326"/><ellipse cx="395" cy="342" fill="#ADD1B2" rx="11" ry="11" style="stroke: #A80036; stroke-width: 1.0;"/><path d="M397.9688,347.6406 Q397.3906,347.9375 396.75,348.0781 Q396.1094,348.2344 395.4063,348.2344 Q392.9063,348.2344 391.5781,346.5938 Q390.2656,344.9375 390.2656,341.8125 Q390.2656,338.6875 391.5781,337.0313 Q392.9063,335.375 395.4063,335.375 Q396.1094,335.375 396.75,335.5313 Q397.4063,335.6875 397.9688,335.9844 L397.9688,338.7031 Q397.3438,338.125 396.75,337.8594 Q396.1563,337.5781 395.5313,337.5781 Q394.1875,337.5781 393.5,338.6563 Q392.8125,339.7188 392.8125,341.8125 Q392.8125,343.9063 393.5,344.9844 Q394.1875,346.0469 395.5313,346.0469 Q396.1563,346.0469 396.75,345.7813 Q397.3438,345.5 397.9688,344.9219 L397.9688,347.6406 Z "/><text fill="#000000" font-family="sans-serif" font-size="12" lengthAdjust="spacingAndGlyphs" textLength="70" x="409" y="346.1543">Quaternion</text><line style="stroke: #A80036; stroke-width: 1.5;" x1="381" x2="481" y1="358" y2="358"/><line style="stroke: #A80036; stroke-width: 1.5;" x1="381" x2="481" y1="366" y2="366"/><!--MD5=[4be6c31c9edf5b5322e7fa3b4e948c5e]
reverse link BaseState to IdleState--><path d="M242,76.38 C242,88.67 242,102.4 242,115.96 " fill="none" id="BaseState&lt;-IdleState" style="stroke: #A80036; stroke-width: 1.0;"/><polygon fill="none" points="235,76.17,242,56.17,249,76.17,235,76.17" style="stroke: #A80036; stroke-width: 1.0;"/><!--MD5=[dd5fd354e016e39ceddf74fa6836c551]
link IdleState to Rigidbody--><path d="M152.29,266.13 C127.99,286.21 103.23,306.67 84.39,322.24 " fill="none" id="IdleState-&gt;Rigidbody" style="stroke: #A80036; stroke-width: 1.0;"/><polygon fill="#A80036" points="80.22,325.68,89.7016,323.0155,84.0693,322.4889,84.5959,316.8567,80.22,325.68" style="stroke: #A80036; stroke-width: 1.0;"/><text fill="#000000" font-family="sans-serif" font-size="13" lengthAdjust="spacingAndGlyphs" textLength="13" x="72.5143" y="315.007">rb</text><!--MD5=[624ad484a6d3989baf274c882fa996f6]
link IdleState to Transform--><path d="M186.89,266.36 C179.06,285.73 173.24,305.44 171.26,320.74 " fill="none" id="IdleState-&gt;Transform" style="stroke: #A80036; stroke-width: 1.0;"/><polygon fill="#A80036" points="170.74,325.76,175.6449,317.2194,171.2545,320.7865,167.6873,316.3962,170.74,325.76" style="stroke: #A80036; stroke-width: 1.0;"/><text fill="#000000" font-family="sans-serif" font-size="13" lengthAdjust="spacingAndGlyphs" textLength="114" x="181.8288" y="314.9218">mainCameraPivot</text><!--MD5=[624ad484a6d3989baf274c882fa996f6]
link IdleState to Transform--><path d="M213.11,266.36 C205.58,285.73 197.93,305.44 191.98,320.74 " fill="none" id="IdleState-&gt;Transform-1" style="stroke: #A80036; stroke-width: 1.0;"/><polygon fill="#A80036" points="190.03,325.76,197.0056,318.8073,191.8326,321.0962,189.5436,315.9232,190.03,325.76" style="stroke: #A80036; stroke-width: 1.0;"/><text fill="#000000" font-family="sans-serif" font-size="13" lengthAdjust="spacingAndGlyphs" textLength="83" x="99.1154" y="315.1065">mainCamera</text><!--MD5=[624ad484a6d3989baf274c882fa996f6]
link IdleState to Transform--><path d="M239.33,266.36 C231.98,286.07 222.29,306.12 212.18,321.54 " fill="none" id="IdleState-&gt;Transform-2" style="stroke: #A80036; stroke-width: 1.0;"/><polygon fill="#A80036" points="209.32,325.76,217.6737,320.5432,212.1198,321.6174,211.0456,316.0635,209.32,325.76" style="stroke: #A80036; stroke-width: 1.0;"/><text fill="#000000" font-family="sans-serif" font-size="13" lengthAdjust="spacingAndGlyphs" textLength="32" x="223.2604" y="320.7247">head</text><!--MD5=[f8e1db02692368151076dbe0eafa6f1d]
link IdleState to Vector3--><path d="M258.63,266.36 C266.2,285.9 274.96,305.78 282.98,321.14 " fill="none" id="IdleState-&gt;Vector3" style="stroke: #A80036; stroke-width: 1.0;"/><polygon fill="#A80036" points="285.45,325.76,284.7639,315.9351,283.106,321.3435,277.6975,319.6855,285.45,325.76" style="stroke: #A80036; stroke-width: 1.0;"/><text fill="#000000" font-family="sans-serif" font-size="13" lengthAdjust="spacingAndGlyphs" textLength="104" x="293.2031" y="314.9218">cameraStartPos</text><!--MD5=[f8e1db02692368151076dbe0eafa6f1d]
link IdleState to Vector3--><path d="M284.85,266.36 C292.65,285.73 299.49,305.44 303.5,320.74 " fill="none" id="IdleState-&gt;Vector3-1" style="stroke: #A80036; stroke-width: 1.0;"/><polygon fill="#A80036" points="304.75,325.76,306.4746,316.0633,303.5508,320.9059,298.7081,317.9821,304.75,325.76" style="stroke: #A80036; stroke-width: 1.0;"/><text fill="#000000" font-family="sans-serif" font-size="13" lengthAdjust="spacingAndGlyphs" textLength="86" x="346.688" y="315.0375">pivotStartPos</text><!--MD5=[e5ab6834287c9a624aaa14695feb349e]
link IdleState to Quaternion--><path d="M318.51,266.13 C342.72,286.38 368.53,307.01 389.43,322.63 " fill="none" id="IdleState-&gt;Quaternion" style="stroke: #A80036; stroke-width: 1.0;"/><polygon fill="#A80036" points="393.54,325.68,388.686,317.1104,389.5212,322.7052,383.9263,323.5405,393.54,325.68" style="stroke: #A80036; stroke-width: 1.0;"/><text fill="#000000" font-family="sans-serif" font-size="13" lengthAdjust="spacingAndGlyphs" textLength="102" x="396.8404" y="315.007">cameraStartRot</text><!--MD5=[e5ab6834287c9a624aaa14695feb349e]
link IdleState to Quaternion--><path d="M344.72,266.13 C369.06,286.21 392.68,306.67 409.23,322.24 " fill="none" id="IdleState-&gt;Quaternion-1" style="stroke: #A80036; stroke-width: 1.0;"/><polygon fill="#A80036" points="412.86,325.68,409.0844,316.5836,409.2329,322.2385,403.578,322.387,412.86,325.68" style="stroke: #A80036; stroke-width: 1.0;"/><text fill="#000000" font-family="sans-serif" font-size="13" lengthAdjust="spacingAndGlyphs" textLength="84" x="445.6675" y="314.7107">pivotStartRot</text><!--MD5=[7534d9b10bf1249b8f365d91271c6ef9]
@startuml
class IdleState {
    transitionTime : float = 3f
    transitionTimer : float = 0
    + <<override>> OnEnter() : void
    + <<override>> OnExit() : void
    + <<override>> OnFixedUpdate() : void
    + <<override>> OnUpdate() : void
    + SwitchToMoveState() : void
    + <<override>> OnLateUpdate() : void
}
BaseState <|- - IdleState
IdleState - -> "rb" Rigidbody
IdleState - -> "mainCameraPivot" Transform
IdleState - -> "mainCamera" Transform
IdleState - -> "head" Transform
IdleState - -> "cameraStartPos" Vector3
IdleState - -> "pivotStartPos" Vector3
IdleState - -> "cameraStartRot" Quaternion
IdleState - -> "pivotStartRot" Quaternion
@enduml

PlantUML version 1.2020.02(Sun Mar 01 10:22:07 GMT 2020)
(GPL source distribution)
Java Runtime: OpenJDK Runtime Environment
JVM: OpenJDK 64-Bit Server VM
Java Version: 11.0.9+11-Ubuntu-0ubuntu1
Operating System: Linux
Default Encoding: ANSI_X3.4-1968
Language: en
Country: US
--></g></svg>