<?xml version="1.0" encoding="UTF-8" standalone="no"?><svg xmlns="http://www.w3.org/2000/svg" xmlns:xlink="http://www.w3.org/1999/xlink" contentScriptType="application/ecmascript" contentStyleType="text/css" height="475px" preserveAspectRatio="none" style="width:307px;height:475px;" version="1.1" viewBox="0 0 307 475" width="307px" zoomAndPan="magnify"><defs><filter height="300%" id="f1kky2ofqlmi26" width="300%" x="-1" y="-1"><feGaussianBlur result="blurOut" stdDeviation="2.0"/><feColorMatrix in="blurOut" result="blurOut2" type="matrix" values="0 0 0 0 0 0 0 0 0 0 0 0 0 0 0 0 0 0 .4 0"/><feOffset dx="4.0" dy="4.0" in="blurOut2" result="blurOut3"/><feBlend in="SourceGraphic" in2="blurOut3" mode="normal"/></filter></defs><g><!--MD5=[4fd6583678bceafaf6a1928f1cb4667f]
class MoveState--><rect fill="#FEFECE" filter="url(#f1kky2ofqlmi26)" height="240.0703" id="MoveState" style="stroke: #A80036; stroke-width: 1.5;" width="290" x="6" y="116"/><ellipse cx="113.75" cy="132" fill="#ADD1B2" rx="11" ry="11" style="stroke: #A80036; stroke-width: 1.0;"/><path d="M116.7188,137.6406 Q116.1406,137.9375 115.5,138.0781 Q114.8594,138.2344 114.1563,138.2344 Q111.6563,138.2344 110.3281,136.5938 Q109.0156,134.9375 109.0156,131.8125 Q109.0156,128.6875 110.3281,127.0313 Q111.6563,125.375 114.1563,125.375 Q114.8594,125.375 115.5,125.5313 Q116.1563,125.6875 116.7188,125.9844 L116.7188,128.7031 Q116.0938,128.125 115.5,127.8594 Q114.9063,127.5781 114.2813,127.5781 Q112.9375,127.5781 112.25,128.6563 Q111.5625,129.7188 111.5625,131.8125 Q111.5625,133.9063 112.25,134.9844 Q112.9375,136.0469 114.2813,136.0469 Q114.9063,136.0469 115.5,135.7813 Q116.0938,135.5 116.7188,134.9219 L116.7188,137.6406 Z "/><text fill="#000000" font-family="sans-serif" font-size="12" lengthAdjust="spacingAndGlyphs" textLength="66" x="134.25" y="136.1543">MoveState</text><line style="stroke: #A80036; stroke-width: 1.5;" x1="7" x2="295" y1="148" y2="148"/><text fill="#000000" font-family="sans-serif" font-size="11" lengthAdjust="spacingAndGlyphs" textLength="94" x="12" y="162.2104">sensitivity : float</text><text fill="#000000" font-family="sans-serif" font-size="11" lengthAdjust="spacingAndGlyphs" textLength="102" x="12" y="175.0151">slerpSpeed : float</text><line style="stroke: #A80036; stroke-width: 1.5;" x1="7" x2="295" y1="181.6094" y2="181.6094"/><ellipse cx="17" cy="192.6094" fill="#84BE84" rx="3" ry="3" style="stroke: #038048; stroke-width: 1.0;"/><text fill="#000000" font-family="sans-serif" font-size="11" lengthAdjust="spacingAndGlyphs" textLength="154" x="26" y="195.8198">«override» OnEnter() : void</text><ellipse cx="17" cy="205.4141" fill="#84BE84" rx="3" ry="3" style="stroke: #038048; stroke-width: 1.0;"/><text fill="#000000" font-family="sans-serif" font-size="11" lengthAdjust="spacingAndGlyphs" textLength="144" x="26" y="208.6245">«override» OnExit() : void</text><ellipse cx="17" cy="218.2188" fill="#84BE84" rx="3" ry="3" style="stroke: #038048; stroke-width: 1.0;"/><text fill="#000000" font-family="sans-serif" font-size="11" lengthAdjust="spacingAndGlyphs" textLength="193" x="26" y="221.4292">«override» OnFixedUpdate() : void</text><ellipse cx="17" cy="231.0234" fill="#84BE84" rx="3" ry="3" style="stroke: #038048; stroke-width: 1.0;"/><text fill="#000000" font-family="sans-serif" font-size="11" lengthAdjust="spacingAndGlyphs" textLength="164" x="26" y="234.2339">«override» OnUpdate() : void</text><ellipse cx="17" cy="243.8281" fill="#84BE84" rx="3" ry="3" style="stroke: #038048; stroke-width: 1.0;"/><text fill="#000000" font-family="sans-serif" font-size="11" lengthAdjust="spacingAndGlyphs" textLength="188" x="26" y="247.0386">«override» OnLateUpdate() : void</text><text fill="#000000" font-family="sans-serif" font-size="11" lengthAdjust="spacingAndGlyphs" textLength="124" x="26" y="259.8433">InputDetection() : void</text><text fill="#000000" font-family="sans-serif" font-size="11" lengthAdjust="spacingAndGlyphs" textLength="138" x="26" y="272.6479">GroundDetection() : void</text><text fill="#000000" font-family="sans-serif" font-size="11" lengthAdjust="spacingAndGlyphs" textLength="146" x="26" y="285.4526">CameraMovement() : void</text><ellipse cx="17" cy="295.0469" fill="#84BE84" rx="3" ry="3" style="stroke: #038048; stroke-width: 1.0;"/><text fill="#000000" font-family="sans-serif" font-size="11" lengthAdjust="spacingAndGlyphs" textLength="119" x="26" y="298.2573">OnEnterZone() : void</text><ellipse cx="17" cy="307.8516" fill="#84BE84" rx="3" ry="3" style="stroke: #038048; stroke-width: 1.0;"/><text fill="#000000" font-family="sans-serif" font-size="11" lengthAdjust="spacingAndGlyphs" textLength="198" x="26" y="311.062">SetGravity(direction:Vector3) : void</text><ellipse cx="17" cy="320.6563" fill="#84BE84" rx="3" ry="3" style="stroke: #038048; stroke-width: 1.0;"/><text fill="#000000" font-family="sans-serif" font-size="11" lengthAdjust="spacingAndGlyphs" textLength="109" x="26" y="323.8667">OnExitZone() : void</text><ellipse cx="17" cy="333.4609" fill="#84BE84" rx="3" ry="3" style="stroke: #038048; stroke-width: 1.0;"/><text fill="#000000" font-family="sans-serif" font-size="11" lengthAdjust="spacingAndGlyphs" textLength="128" x="26" y="336.6714">GetPosition() : Vector3</text><text fill="#000000" font-family="sans-serif" font-size="11" lengthAdjust="spacingAndGlyphs" textLength="264" x="26" y="349.4761">RotateTowardsGravity(direction:Vector3) : void</text><!--MD5=[ced70c4db88c0caf8c044d862484d7f7]
class BaseState--><rect fill="#FEFECE" filter="url(#f1kky2ofqlmi26)" height="48" id="BaseState" style="stroke: #A80036; stroke-width: 1.5;" width="97" x="41.5" y="8"/><ellipse cx="56.5" cy="24" fill="#ADD1B2" rx="11" ry="11" style="stroke: #A80036; stroke-width: 1.0;"/><path d="M59.4688,29.6406 Q58.8906,29.9375 58.25,30.0781 Q57.6094,30.2344 56.9063,30.2344 Q54.4063,30.2344 53.0781,28.5938 Q51.7656,26.9375 51.7656,23.8125 Q51.7656,20.6875 53.0781,19.0313 Q54.4063,17.375 56.9063,17.375 Q57.6094,17.375 58.25,17.5313 Q58.9063,17.6875 59.4688,17.9844 L59.4688,20.7031 Q58.8438,20.125 58.25,19.8594 Q57.6563,19.5781 57.0313,19.5781 Q55.6875,19.5781 55,20.6563 Q54.3125,21.7188 54.3125,23.8125 Q54.3125,25.9063 55,26.9844 Q55.6875,28.0469 57.0313,28.0469 Q57.6563,28.0469 58.25,27.7813 Q58.8438,27.5 59.4688,26.9219 L59.4688,29.6406 Z "/><text fill="#000000" font-family="sans-serif" font-size="12" lengthAdjust="spacingAndGlyphs" textLength="65" x="70.5" y="28.1543">BaseState</text><line style="stroke: #A80036; stroke-width: 1.5;" x1="42.5" x2="137.5" y1="40" y2="40"/><line style="stroke: #A80036; stroke-width: 1.5;" x1="42.5" x2="137.5" y1="48" y2="48"/><!--MD5=[2fb4da6c010319de91248e41255ed55e]
class IGravity--><rect fill="#FEFECE" filter="url(#f1kky2ofqlmi26)" height="48" id="IGravity" style="stroke: #A80036; stroke-width: 1.5;" width="77" x="173.5" y="8"/><ellipse cx="188.5" cy="24" fill="#ADD1B2" rx="11" ry="11" style="stroke: #A80036; stroke-width: 1.0;"/><path d="M191.4688,29.6406 Q190.8906,29.9375 190.25,30.0781 Q189.6094,30.2344 188.9063,30.2344 Q186.4063,30.2344 185.0781,28.5938 Q183.7656,26.9375 183.7656,23.8125 Q183.7656,20.6875 185.0781,19.0313 Q186.4063,17.375 188.9063,17.375 Q189.6094,17.375 190.25,17.5313 Q190.9063,17.6875 191.4688,17.9844 L191.4688,20.7031 Q190.8438,20.125 190.25,19.8594 Q189.6563,19.5781 189.0313,19.5781 Q187.6875,19.5781 187,20.6563 Q186.3125,21.7188 186.3125,23.8125 Q186.3125,25.9063 187,26.9844 Q187.6875,28.0469 189.0313,28.0469 Q189.6563,28.0469 190.25,27.7813 Q190.8438,27.5 191.4688,26.9219 L191.4688,29.6406 Z "/><text fill="#000000" font-family="sans-serif" font-size="12" lengthAdjust="spacingAndGlyphs" textLength="45" x="202.5" y="28.1543">IGravity</text><line style="stroke: #A80036; stroke-width: 1.5;" x1="174.5" x2="249.5" y1="40" y2="40"/><line style="stroke: #A80036; stroke-width: 1.5;" x1="174.5" x2="249.5" y1="48" y2="48"/><!--MD5=[867fdf81c55d2d59776f790d9a1de332]
class LayerMask--><rect fill="#FEFECE" filter="url(#f1kky2ofqlmi26)" height="48" id="LayerMask" style="stroke: #A80036; stroke-width: 1.5;" width="97" x="102.5" y="416"/><ellipse cx="117.5" cy="432" fill="#ADD1B2" rx="11" ry="11" style="stroke: #A80036; stroke-width: 1.0;"/><path d="M120.4688,437.6406 Q119.8906,437.9375 119.25,438.0781 Q118.6094,438.2344 117.9063,438.2344 Q115.4063,438.2344 114.0781,436.5938 Q112.7656,434.9375 112.7656,431.8125 Q112.7656,428.6875 114.0781,427.0313 Q115.4063,425.375 117.9063,425.375 Q118.6094,425.375 119.25,425.5313 Q119.9063,425.6875 120.4688,425.9844 L120.4688,428.7031 Q119.8438,428.125 119.25,427.8594 Q118.6563,427.5781 118.0313,427.5781 Q116.6875,427.5781 116,428.6563 Q115.3125,429.7188 115.3125,431.8125 Q115.3125,433.9063 116,434.9844 Q116.6875,436.0469 118.0313,436.0469 Q118.6563,436.0469 119.25,435.7813 Q119.8438,435.5 120.4688,434.9219 L120.4688,437.6406 Z "/><text fill="#000000" font-family="sans-serif" font-size="12" lengthAdjust="spacingAndGlyphs" textLength="65" x="131.5" y="436.1543">LayerMask</text><line style="stroke: #A80036; stroke-width: 1.5;" x1="103.5" x2="198.5" y1="448" y2="448"/><line style="stroke: #A80036; stroke-width: 1.5;" x1="103.5" x2="198.5" y1="456" y2="456"/><!--MD5=[097017cd8670091a54197de7d4491e98]
reverse link BaseState to MoveState--><path d="M102.91,75.74 C106.53,87.75 110.67,101.43 114.95,115.62 " fill="none" id="BaseState&lt;-MoveState" style="stroke: #A80036; stroke-width: 1.0;"/><polygon fill="none" points="96.08,77.34,97,56.17,109.48,73.29,96.08,77.34" style="stroke: #A80036; stroke-width: 1.0;"/><!--MD5=[fcb396aed21cc55831fac6777706bc09]
reverse link IGravity to MoveState--><path d="M199.09,75.74 C195.47,87.75 191.33,101.43 187.05,115.62 " fill="none" id="IGravity&lt;-MoveState" style="stroke: #A80036; stroke-width: 1.0;"/><polygon fill="none" points="192.52,73.29,205,56.17,205.92,77.34,192.52,73.29" style="stroke: #A80036; stroke-width: 1.0;"/><!--MD5=[4a1d03fdd24884f64e6abe4760b69636]
link MoveState to LayerMask--><path d="M151,356.26 C151,376.49 151,395.72 151,410.53 " fill="none" id="MoveState-&gt;LayerMask" style="stroke: #A80036; stroke-width: 1.0;"/><polygon fill="#A80036" points="151,415.79,155,406.79,151,410.79,147,406.79,151,415.79" style="stroke: #A80036; stroke-width: 1.0;"/><text fill="#000000" font-family="sans-serif" font-size="13" lengthAdjust="spacingAndGlyphs" textLength="69" x="73.1594" y="404.7482">castLayers</text><!--MD5=[484d70c6826124583dba6554dac86551]
@startuml
class MoveState {
    sensitivity : float
    slerpSpeed : float
    + <<override>> OnEnter() : void
    + <<override>> OnExit() : void
    + <<override>> OnFixedUpdate() : void
    + <<override>> OnUpdate() : void
    + <<override>> OnLateUpdate() : void
    InputDetection() : void
    GroundDetection() : void
    CameraMovement() : void
    + OnEnterZone() : void
    + SetGravity(direction:Vector3) : void
    + OnExitZone() : void
    + GetPosition() : Vector3
    RotateTowardsGravity(direction:Vector3) : void
}
BaseState <|- - MoveState
IGravity <|- - MoveState
MoveState - -> "castLayers" LayerMask
@enduml

PlantUML version 1.2020.02(Sun Mar 01 10:22:07 GMT 2020)
(GPL source distribution)
Java Runtime: OpenJDK Runtime Environment
JVM: OpenJDK 64-Bit Server VM
Java Version: 11.0.9+11-Ubuntu-0ubuntu1
Operating System: Linux
Default Encoding: ANSI_X3.4-1968
Language: en
Country: US
--></g></svg>