<?xml version="1.0" encoding="UTF-8" standalone="no"?><svg xmlns="http://www.w3.org/2000/svg" xmlns:xlink="http://www.w3.org/1999/xlink" contentScriptType="application/ecmascript" contentStyleType="text/css" height="309px" preserveAspectRatio="none" style="width:281px;height:309px;" version="1.1" viewBox="0 0 281 309" width="281px" zoomAndPan="magnify"><defs><filter height="300%" id="feofaumqdyqtk" width="300%" x="-1" y="-1"><feGaussianBlur result="blurOut" stdDeviation="2.0"/><feColorMatrix in="blurOut" result="blurOut2" type="matrix" values="0 0 0 0 0 0 0 0 0 0 0 0 0 0 0 0 0 0 .4 0"/><feOffset dx="4.0" dy="4.0" in="blurOut2" result="blurOut3"/><feBlend in="SourceGraphic" in2="blurOut3" mode="normal"/></filter></defs><g><!--MD5=[333075a82cfcc86484e13390c0a91dd8]
class MovingPlatform--><rect fill="#FEFECE" filter="url(#feofaumqdyqtk)" height="73.6094" id="MovingPlatform" style="stroke: #A80036; stroke-width: 1.5;" width="190" x="44.72" y="116"/><ellipse cx="88.07" cy="132" fill="#ADD1B2" rx="11" ry="11" style="stroke: #A80036; stroke-width: 1.0;"/><path d="M91.0388,137.6406 Q90.4606,137.9375 89.82,138.0781 Q89.1794,138.2344 88.4763,138.2344 Q85.9763,138.2344 84.6481,136.5938 Q83.3356,134.9375 83.3356,131.8125 Q83.3356,128.6875 84.6481,127.0313 Q85.9763,125.375 88.4763,125.375 Q89.1794,125.375 89.82,125.5313 Q90.4763,125.6875 91.0388,125.9844 L91.0388,128.7031 Q90.4138,128.125 89.82,127.8594 Q89.2263,127.5781 88.6013,127.5781 Q87.2575,127.5781 86.57,128.6563 Q85.8825,129.7188 85.8825,131.8125 Q85.8825,133.9063 86.57,134.9844 Q87.2575,136.0469 88.6013,136.0469 Q89.2263,136.0469 89.82,135.7813 Q90.4138,135.5 91.0388,134.9219 L91.0388,137.6406 Z "/><text fill="#000000" font-family="sans-serif" font-size="12" lengthAdjust="spacingAndGlyphs" textLength="95" x="108.37" y="136.1543">MovingPlatform</text><line style="stroke: #A80036; stroke-width: 1.5;" x1="45.72" x2="233.72" y1="148" y2="148"/><line style="stroke: #A80036; stroke-width: 1.5;" x1="45.72" x2="233.72" y1="156" y2="156"/><ellipse cx="55.72" cy="167" fill="#84BE84" rx="3" ry="3" style="stroke: #038048; stroke-width: 1.0;"/><text fill="#000000" font-family="sans-serif" font-size="11" lengthAdjust="spacingAndGlyphs" textLength="164" x="64.72" y="170.2104">«override» OnUpdate() : void</text><text fill="#000000" font-family="sans-serif" font-size="11" lengthAdjust="spacingAndGlyphs" textLength="112" x="64.72" y="183.0151">UpdateDelta() : void</text><!--MD5=[0b0e26e60ca4bb39236e528f8c5fbd24]
class RunnerBase--><rect fill="#FEFECE" filter="url(#feofaumqdyqtk)" height="48" id="RunnerBase" style="stroke: #A80036; stroke-width: 1.5;" width="108" x="85.72" y="8"/><ellipse cx="100.72" cy="24" fill="#ADD1B2" rx="11" ry="11" style="stroke: #A80036; stroke-width: 1.0;"/><path d="M103.6888,29.6406 Q103.1106,29.9375 102.47,30.0781 Q101.8294,30.2344 101.1263,30.2344 Q98.6263,30.2344 97.2981,28.5938 Q95.9856,26.9375 95.9856,23.8125 Q95.9856,20.6875 97.2981,19.0313 Q98.6263,17.375 101.1263,17.375 Q101.8294,17.375 102.47,17.5313 Q103.1263,17.6875 103.6888,17.9844 L103.6888,20.7031 Q103.0638,20.125 102.47,19.8594 Q101.8763,19.5781 101.2513,19.5781 Q99.9075,19.5781 99.22,20.6563 Q98.5325,21.7188 98.5325,23.8125 Q98.5325,25.9063 99.22,26.9844 Q99.9075,28.0469 101.2513,28.0469 Q101.8763,28.0469 102.47,27.7813 Q103.0638,27.5 103.6888,26.9219 L103.6888,29.6406 Z "/><text fill="#000000" font-family="sans-serif" font-size="12" lengthAdjust="spacingAndGlyphs" textLength="76" x="114.72" y="28.1543">RunnerBase</text><line style="stroke: #A80036; stroke-width: 1.5;" x1="86.72" x2="192.72" y1="40" y2="40"/><line style="stroke: #A80036; stroke-width: 1.5;" x1="86.72" x2="192.72" y1="48" y2="48"/><!--MD5=[65d619c042c23702cef2ca07d67b1cf6]
class Vector3--><rect fill="#FEFECE" filter="url(#feofaumqdyqtk)" height="48" id="Vector3" style="stroke: #A80036; stroke-width: 1.5;" width="81" x="99.22" y="250"/><ellipse cx="114.22" cy="266" fill="#ADD1B2" rx="11" ry="11" style="stroke: #A80036; stroke-width: 1.0;"/><path d="M117.1888,271.6406 Q116.6106,271.9375 115.97,272.0781 Q115.3294,272.2344 114.6263,272.2344 Q112.1263,272.2344 110.7981,270.5938 Q109.4856,268.9375 109.4856,265.8125 Q109.4856,262.6875 110.7981,261.0313 Q112.1263,259.375 114.6263,259.375 Q115.3294,259.375 115.97,259.5313 Q116.6263,259.6875 117.1888,259.9844 L117.1888,262.7031 Q116.5638,262.125 115.97,261.8594 Q115.3763,261.5781 114.7513,261.5781 Q113.4075,261.5781 112.72,262.6563 Q112.0325,263.7188 112.0325,265.8125 Q112.0325,267.9063 112.72,268.9844 Q113.4075,270.0469 114.7513,270.0469 Q115.3763,270.0469 115.97,269.7813 Q116.5638,269.5 117.1888,268.9219 L117.1888,271.6406 Z "/><text fill="#000000" font-family="sans-serif" font-size="12" lengthAdjust="spacingAndGlyphs" textLength="49" x="128.22" y="270.1543">Vector3</text><line style="stroke: #A80036; stroke-width: 1.5;" x1="100.22" x2="179.22" y1="282" y2="282"/><line style="stroke: #A80036; stroke-width: 1.5;" x1="100.22" x2="179.22" y1="290" y2="290"/><!--MD5=[c6f98a4706b8c69506acba42d8aafb9d]
reverse link RunnerBase to MovingPlatform--><path d="M139.72,76.43 C139.72,89.33 139.72,103.32 139.72,115.71 " fill="none" id="RunnerBase&lt;-MovingPlatform" style="stroke: #A80036; stroke-width: 1.0;"/><polygon fill="none" points="132.72,76.23,139.72,56.23,146.72,76.23,132.72,76.23" style="stroke: #A80036; stroke-width: 1.0;"/><!--MD5=[4533dc3a0673829b7ee9d0e6e30c815a]
link MovingPlatform to Vector3--><path d="M79.21,190.03 C69.5,212.86 74.7,241.18 94.78,258.13 " fill="none" id="MovingPlatform-&gt;Vector3" style="stroke: #A80036; stroke-width: 1.0;"/><polygon fill="#A80036" points="99,261.37,94.3037,252.7129,95.0363,258.3221,89.4271,259.0548,99,261.37" style="stroke: #A80036; stroke-width: 1.0;"/><text fill="#000000" font-family="sans-serif" font-size="13" lengthAdjust="spacingAndGlyphs" textLength="78" x="13.1526" y="256.4619">moveVector</text><!--MD5=[4533dc3a0673829b7ee9d0e6e30c815a]
link MovingPlatform to Vector3--><path d="M103.55,190.03 C99.08,207.63 99.9,228.51 106.02,244.91 " fill="none" id="MovingPlatform-&gt;Vector3-1" style="stroke: #A80036; stroke-width: 1.0;"/><polygon fill="#A80036" points="108.08,249.85,108.3,240.0036,106.1519,245.2367,100.9187,243.0886,108.08,249.85" style="stroke: #A80036; stroke-width: 1.0;"/><text fill="#000000" font-family="sans-serif" font-size="13" lengthAdjust="spacingAndGlyphs" textLength="46" x="105.866" y="238.8236">lastPos</text><!--MD5=[4533dc3a0673829b7ee9d0e6e30c815a]
link MovingPlatform to Vector3--><path d="M127.89,190.03 C126.44,207.48 126.69,228.15 128.65,244.49 " fill="none" id="MovingPlatform-&gt;Vector3-2" style="stroke: #A80036; stroke-width: 1.0;"/><polygon fill="#A80036" points="129.37,249.85,132.1258,240.3946,128.6989,244.8952,124.1982,241.4683,129.37,249.85" style="stroke: #A80036; stroke-width: 1.0;"/><text fill="#000000" font-family="sans-serif" font-size="13" lengthAdjust="spacingAndGlyphs" textLength="55" x="133.7647" y="238.8236">deltaPos</text><!--MD5=[4533dc3a0673829b7ee9d0e6e30c815a]
link MovingPlatform to Vector3--><path d="M152.24,190.03 C153.77,207.48 153.5,228.15 151.44,244.49 " fill="none" id="MovingPlatform-&gt;Vector3-3" style="stroke: #A80036; stroke-width: 1.0;"/><polygon fill="#A80036" points="150.67,249.85,155.9127,241.5125,151.3831,244.9011,147.9945,240.3715,150.67,249.85" style="stroke: #A80036; stroke-width: 1.0;"/><text fill="#000000" font-family="sans-serif" font-size="13" lengthAdjust="spacingAndGlyphs" textLength="81" x="188.6144" y="249.6865">rotateVector</text><!--MD5=[4533dc3a0673829b7ee9d0e6e30c815a]
link MovingPlatform to Vector3--><path d="M176.58,190.03 C181.14,207.63 180.3,228.51 174.06,244.91 " fill="none" id="MovingPlatform-&gt;Vector3-4" style="stroke: #A80036; stroke-width: 1.0;"/><polygon fill="#A80036" points="171.96,249.85,179.1819,243.1534,173.9296,245.2543,171.8287,240.002,171.96,249.85" style="stroke: #A80036; stroke-width: 1.0;"/><text fill="#000000" font-family="sans-serif" font-size="13" lengthAdjust="spacingAndGlyphs" textLength="55" x="187.2684" y="238.8236">lastEuler</text><!--MD5=[4533dc3a0673829b7ee9d0e6e30c815a]
link MovingPlatform to Vector3--><path d="M200.92,190.03 C210.83,213.08 205.38,241.74 184.56,258.63 " fill="none" id="MovingPlatform-&gt;Vector3-5" style="stroke: #A80036; stroke-width: 1.0;"/><polygon fill="#A80036" points="180.5,261.64,190.1087,259.4784,184.512,258.656,185.3343,253.0593,180.5,261.64" style="stroke: #A80036; stroke-width: 1.0;"/><text fill="#000000" font-family="sans-serif" font-size="13" lengthAdjust="spacingAndGlyphs" textLength="64" x="188.0054" y="273.2126">deltaEuler</text><!--MD5=[6a7a2784f5b9d5d9ab7277c2b2b4722a]
@startuml
class MovingPlatform {
    + <<override>> OnUpdate() : void
    UpdateDelta() : void
}
RunnerBase <|- - MovingPlatform
MovingPlatform - -> "moveVector" Vector3
MovingPlatform - -> "lastPos" Vector3
MovingPlatform - -> "deltaPos" Vector3
MovingPlatform - -> "rotateVector" Vector3
MovingPlatform - -> "lastEuler" Vector3
MovingPlatform - -> "deltaEuler" Vector3
@enduml

PlantUML version 1.2020.02(Sun Mar 01 10:22:07 GMT 2020)
(GPL source distribution)
Java Runtime: OpenJDK Runtime Environment
JVM: OpenJDK 64-Bit Server VM
Java Version: 11.0.9+11-Ubuntu-0ubuntu1
Operating System: Linux
Default Encoding: ANSI_X3.4-1968
Language: en
Country: US
--></g></svg>